<?xml version="1.0" encoding="UTF-8" standalone="no"?>
<!DOCTYPE svg PUBLIC "-//W3C//DTD SVG 1.1//EN"
 "http://www.w3.org/Graphics/SVG/1.1/DTD/svg11.dtd">
<!-- Generated by graphviz version 2.40.1 (20161225.0304)
 -->
<!-- Title: Graph.hpp Pages: 1 -->
<svg width="807pt" height="84pt"
 viewBox="0.00 0.00 806.50 84.00" xmlns="http://www.w3.org/2000/svg" xmlns:xlink="http://www.w3.org/1999/xlink">
<g id="graph0" class="graph" transform="scale(1 1) rotate(0) translate(4 80)">
<title>Graph.hpp</title>
<!-- Node0 -->
<g id="node1" class="node">
<title>Node0</title>
<g id="a_node1"><a xlink:title=" ">
<polygon fill="#bfbfbf" stroke="#000000" points="293,-56.5 293,-75.5 360,-75.5 360,-56.5 293,-56.5"/>
<text text-anchor="middle" x="326.5" y="-63.5" font-family="Helvetica,sans-Serif" font-size="10.00" fill="#000000">Graph.hpp</text>
</a>
</g>
</g>
<!-- Node1 -->
<g id="node2" class="node">
<title>Node1</title>
<g id="a_node2"><a xlink:title=" ">
<polygon fill="none" stroke="#bfbfbf" points="0,-.5 0,-19.5 55,-19.5 55,-.5 0,-.5"/>
<text text-anchor="middle" x="27.5" y="-7.5" font-family="Helvetica,sans-Serif" font-size="10.00" fill="#000000">fstream</text>
</a>
</g>
</g>
<!-- Node0&#45;&gt;Node1 -->
<g id="edge1" class="edge">
<title>Node0&#45;&gt;Node1</title>
<path fill="none" stroke="#191970" d="M292.8085,-61.0799C244.5536,-53.8168 152.809,-39.2061 65.1521,-19.9864"/>
<polygon fill="#191970" stroke="#191970" points="65.8342,-16.5528 55.3137,-17.8057 64.3193,-23.3869 65.8342,-16.5528"/>
</g>
<!-- Node2 -->
<g id="node3" class="node">
<title>Node2</title>
<g id="a_node3"><a xlink:title=" ">
<polygon fill="none" stroke="#bfbfbf" points="73.5,-.5 73.5,-19.5 133.5,-19.5 133.5,-.5 73.5,-.5"/>
<text text-anchor="middle" x="103.5" y="-7.5" font-family="Helvetica,sans-Serif" font-size="10.00" fill="#000000">iostream</text>
</a>
</g>
</g>
<!-- Node0&#45;&gt;Node2 -->
<g id="edge2" class="edge">
<title>Node0&#45;&gt;Node2</title>
<path fill="none" stroke="#191970" d="M292.909,-57.6667C258.0283,-48.9992 201.6088,-34.9401 143.7764,-20.3135"/>
<polygon fill="#191970" stroke="#191970" points="144.2822,-16.8312 133.7291,-17.7702 142.5644,-23.6171 144.2822,-16.8312"/>
</g>
<!-- Node3 -->
<g id="node4" class="node">
<title>Node3</title>
<g id="a_node4"><a xlink:title=" ">
<polygon fill="none" stroke="#bfbfbf" points="151.5,-.5 151.5,-19.5 183.5,-19.5 183.5,-.5 151.5,-.5"/>
<text text-anchor="middle" x="167.5" y="-7.5" font-family="Helvetica,sans-Serif" font-size="10.00" fill="#000000">list</text>
</a>
</g>
</g>
<!-- Node0&#45;&gt;Node3 -->
<g id="edge3" class="edge">
<title>Node0&#45;&gt;Node3</title>
<path fill="none" stroke="#191970" d="M297.3371,-56.4546C272.0081,-48.0619 234.1525,-35.275 192.9855,-20.0653"/>
<polygon fill="#191970" stroke="#191970" points="194.1851,-16.7773 183.5923,-16.5737 191.7461,-23.3387 194.1851,-16.7773"/>
</g>
<!-- Node4 -->
<g id="node5" class="node">
<title>Node4</title>
<g id="a_node5"><a xlink:title=" ">
<polygon fill="none" stroke="#bfbfbf" points="202,-.5 202,-19.5 303,-19.5 303,-.5 202,-.5"/>
<text text-anchor="middle" x="252.5" y="-7.5" font-family="Helvetica,sans-Serif" font-size="10.00" fill="#000000">llvm/IR/CallSite.h</text>
</a>
</g>
</g>
<!-- Node0&#45;&gt;Node4 -->
<g id="edge4" class="edge">
<title>Node0&#45;&gt;Node4</title>
<path fill="none" stroke="#191970" d="M313.6102,-56.2455C302.5746,-47.8943 286.4708,-35.7076 273.5647,-25.9408"/>
<polygon fill="#191970" stroke="#191970" points="275.3283,-22.8862 265.2421,-19.6427 271.1041,-28.4681 275.3283,-22.8862"/>
</g>
<!-- Node5 -->
<g id="node6" class="node">
<title>Node5</title>
<g id="a_node6"><a xlink:title=" ">
<polygon fill="none" stroke="#bfbfbf" points="321,-.5 321,-19.5 480,-19.5 480,-.5 321,-.5"/>
<text text-anchor="middle" x="400.5" y="-7.5" font-family="Helvetica,sans-Serif" font-size="10.00" fill="#000000">llvm/IR/DebugInfoMetadata.h</text>
</a>
</g>
</g>
<!-- Node0&#45;&gt;Node5 -->
<g id="edge5" class="edge">
<title>Node0&#45;&gt;Node5</title>
<path fill="none" stroke="#191970" d="M339.3898,-56.2455C350.4254,-47.8943 366.5292,-35.7076 379.4353,-25.9408"/>
<polygon fill="#191970" stroke="#191970" points="381.8959,-28.4681 387.7579,-19.6427 377.6717,-22.8862 381.8959,-28.4681"/>
</g>
<!-- Node6 -->
<g id="node7" class="node">
<title>Node6</title>
<g id="a_node7"><a xlink:title=" ">
<polygon fill="none" stroke="#bfbfbf" points="498,-.5 498,-19.5 611,-19.5 611,-.5 498,-.5"/>
<text text-anchor="middle" x="554.5" y="-7.5" font-family="Helvetica,sans-Serif" font-size="10.00" fill="#000000">llvm/IR/InstrTypes.h</text>
</a>
</g>
</g>
<!-- Node0&#45;&gt;Node6 -->
<g id="edge6" class="edge">
<title>Node0&#45;&gt;Node6</title>
<path fill="none" stroke="#191970" d="M360.1422,-57.737C398.6402,-48.2813 462.0148,-32.7157 505.8798,-21.9418"/>
<polygon fill="#191970" stroke="#191970" points="506.8778,-25.3008 515.7543,-19.5165 505.2081,-18.5028 506.8778,-25.3008"/>
</g>
<!-- Node7 -->
<g id="node8" class="node">
<title>Node7</title>
<g id="a_node8"><a xlink:title=" ">
<polygon fill="none" stroke="#bfbfbf" points="629,-.5 629,-19.5 736,-19.5 736,-.5 629,-.5"/>
<text text-anchor="middle" x="682.5" y="-7.5" font-family="Helvetica,sans-Serif" font-size="10.00" fill="#000000">llvm/IR/Intrinsics.h</text>
</a>
</g>
</g>
<!-- Node0&#45;&gt;Node7 -->
<g id="edge7" class="edge">
<title>Node0&#45;&gt;Node7</title>
<path fill="none" stroke="#191970" d="M360.0174,-60.8083C412.8465,-52.614 518.9804,-36.1053 618.7867,-20.2674"/>
<polygon fill="#191970" stroke="#191970" points="619.4067,-23.7129 628.734,-18.6878 618.3088,-16.7995 619.4067,-23.7129"/>
</g>
<!-- Node8 -->
<g id="node9" class="node">
<title>Node8</title>
<g id="a_node9"><a xlink:title=" ">
<polygon fill="none" stroke="#bfbfbf" points="754.5,-.5 754.5,-19.5 798.5,-19.5 798.5,-.5 754.5,-.5"/>
<text text-anchor="middle" x="776.5" y="-7.5" font-family="Helvetica,sans-Serif" font-size="10.00" fill="#000000">regex</text>
</a>
</g>
</g>
<!-- Node0&#45;&gt;Node8 -->
<g id="edge8" class="edge">
<title>Node0&#45;&gt;Node8</title>
<path fill="none" stroke="#191970" d="M360.2708,-64.6138C430.3487,-61.243 596.6513,-50.6781 744.1589,-19.9112"/>
<polygon fill="#191970" stroke="#191970" points="745.241,-23.2595 754.2956,-17.7582 743.7866,-16.4123 745.241,-23.2595"/>
</g>
</g>
</svg>
