<?xml version="1.0" encoding="UTF-8" standalone="no"?>
<!DOCTYPE svg PUBLIC "-//W3C//DTD SVG 1.1//EN"
 "http://www.w3.org/Graphics/SVG/1.1/DTD/svg11.dtd">
<!-- Generated by graphviz version 2.40.1 (20161225.0304)
 -->
<!-- Title: Diff_Util.hpp Pages: 1 -->
<svg width="406pt" height="140pt"
 viewBox="0.00 0.00 405.50 140.00" xmlns="http://www.w3.org/2000/svg" xmlns:xlink="http://www.w3.org/1999/xlink">
<g id="graph0" class="graph" transform="scale(1 1) rotate(0) translate(4 136)">
<title>Diff_Util.hpp</title>
<!-- Node4 -->
<g id="node1" class="node">
<title>Node4</title>
<g id="a_node1"><a xlink:title=" ">
<polygon fill="#bfbfbf" stroke="#000000" points="227,-112.5 227,-131.5 304,-131.5 304,-112.5 227,-112.5"/>
<text text-anchor="middle" x="265.5" y="-119.5" font-family="Helvetica,sans-Serif" font-size="10.00" fill="#000000">Diff_Util.hpp</text>
</a>
</g>
</g>
<!-- Node5 -->
<g id="node2" class="node">
<title>Node5</title>
<g id="a_node2"><a xlink:href="../../df/d13/Diff__Mapping_8hpp.html" target="_top" xlink:title=" ">
<polygon fill="none" stroke="#000000" points="162,-56.5 162,-75.5 263,-75.5 263,-56.5 162,-56.5"/>
<text text-anchor="middle" x="212.5" y="-63.5" font-family="Helvetica,sans-Serif" font-size="10.00" fill="#000000">Diff_Mapping.hpp</text>
</a>
</g>
</g>
<!-- Node4&#45;&gt;Node5 -->
<g id="edge1" class="edge">
<title>Node4&#45;&gt;Node5</title>
<path fill="none" stroke="#191970" d="M249.2104,-104.7884C240.1438,-95.2085 229.1946,-83.6396 221.6261,-75.6427"/>
<polygon fill="#191970" stroke="#191970" points="246.8522,-107.3884 256.2681,-112.2455 251.9363,-102.5767 246.8522,-107.3884"/>
</g>
<!-- Node10 -->
<g id="node7" class="node">
<title>Node10</title>
<g id="a_node7"><a xlink:href="../../da/d02/Diff__Util_8cpp.html" target="_top" xlink:title=" ">
<polygon fill="none" stroke="#000000" points="281,-56.5 281,-75.5 358,-75.5 358,-56.5 281,-56.5"/>
<text text-anchor="middle" x="319.5" y="-63.5" font-family="Helvetica,sans-Serif" font-size="10.00" fill="#000000">Diff_Util.cpp</text>
</a>
</g>
</g>
<!-- Node4&#45;&gt;Node10 -->
<g id="edge6" class="edge">
<title>Node4&#45;&gt;Node10</title>
<path fill="none" stroke="#191970" d="M282.0969,-104.7884C291.3347,-95.2085 302.4904,-83.6396 310.2017,-75.6427"/>
<polygon fill="#191970" stroke="#191970" points="279.328,-102.6176 274.9061,-112.2455 284.3669,-107.4766 279.328,-102.6176"/>
</g>
<!-- Node6 -->
<g id="node3" class="node">
<title>Node6</title>
<g id="a_node3"><a xlink:href="../../dd/d6f/Diff__Mapping_8cpp.html" target="_top" xlink:title=" ">
<polygon fill="none" stroke="#000000" points="0,-.5 0,-19.5 101,-19.5 101,-.5 0,-.5"/>
<text text-anchor="middle" x="50.5" y="-7.5" font-family="Helvetica,sans-Serif" font-size="10.00" fill="#000000">Diff_Mapping.cpp</text>
</a>
</g>
</g>
<!-- Node5&#45;&gt;Node6 -->
<g id="edge2" class="edge">
<title>Node5&#45;&gt;Node6</title>
<path fill="none" stroke="#191970" d="M175.0578,-53.057C145.4099,-42.8084 104.6804,-28.729 77.9854,-19.5011"/>
<polygon fill="#191970" stroke="#191970" points="174.0564,-56.414 184.6512,-56.3733 176.3435,-49.7982 174.0564,-56.414"/>
</g>
<!-- Node7 -->
<g id="node4" class="node">
<title>Node7</title>
<g id="a_node4"><a xlink:href="../../da/dc7/Get__Input_8cpp.html" target="_top" xlink:title=" ">
<polygon fill="none" stroke="#000000" points="119.5,-.5 119.5,-19.5 203.5,-19.5 203.5,-.5 119.5,-.5"/>
<text text-anchor="middle" x="161.5" y="-7.5" font-family="Helvetica,sans-Serif" font-size="10.00" fill="#000000">Get_Input.cpp</text>
</a>
</g>
</g>
<!-- Node5&#45;&gt;Node7 -->
<g id="edge3" class="edge">
<title>Node5&#45;&gt;Node7</title>
<path fill="none" stroke="#191970" d="M196.8251,-48.7884C188.1006,-39.2085 177.5646,-27.6396 170.2817,-19.6427"/>
<polygon fill="#191970" stroke="#191970" points="194.2954,-51.2088 203.6165,-56.2455 199.4709,-46.4954 194.2954,-51.2088"/>
</g>
<!-- Node8 -->
<g id="node5" class="node">
<title>Node8</title>
<g id="a_node5"><a xlink:href="../../de/d64/Hydrogen_8cpp.html" target="_top" xlink:title=" ">
<polygon fill="none" stroke="#000000" points="221.5,-.5 221.5,-19.5 305.5,-19.5 305.5,-.5 221.5,-.5"/>
<text text-anchor="middle" x="263.5" y="-7.5" font-family="Helvetica,sans-Serif" font-size="10.00" fill="#000000">Hydrogen.cpp</text>
</a>
</g>
</g>
<!-- Node5&#45;&gt;Node8 -->
<g id="edge4" class="edge">
<title>Node5&#45;&gt;Node8</title>
<path fill="none" stroke="#191970" d="M228.1749,-48.7884C236.8994,-39.2085 247.4354,-27.6396 254.7183,-19.6427"/>
<polygon fill="#191970" stroke="#191970" points="225.5291,-46.4954 221.3835,-56.2455 230.7046,-51.2088 225.5291,-46.4954"/>
</g>
<!-- Node9 -->
<g id="node6" class="node">
<title>Node9</title>
<g id="a_node6"><a xlink:href="../../db/d17/MVICFG_8cpp.html" target="_top" xlink:title=" ">
<polygon fill="none" stroke="#000000" points="323.5,-.5 323.5,-19.5 397.5,-19.5 397.5,-.5 323.5,-.5"/>
<text text-anchor="middle" x="360.5" y="-7.5" font-family="Helvetica,sans-Serif" font-size="10.00" fill="#000000">MVICFG.cpp</text>
</a>
</g>
</g>
<!-- Node5&#45;&gt;Node9 -->
<g id="edge5" class="edge">
<title>Node5&#45;&gt;Node9</title>
<path fill="none" stroke="#191970" d="M247.4153,-52.7888C274.4383,-42.5639 311.214,-28.6488 335.3899,-19.5011"/>
<polygon fill="#191970" stroke="#191970" points="246.0563,-49.5608 237.9421,-56.3733 248.5336,-56.1078 246.0563,-49.5608"/>
</g>
</g>
</svg>
