<?xml version="1.0" encoding="UTF-8" standalone="no"?>
<!DOCTYPE svg PUBLIC "-//W3C//DTD SVG 1.1//EN"
 "http://www.w3.org/Graphics/SVG/1.1/DTD/svg11.dtd">
<!-- Generated by graphviz version 2.40.1 (20161225.0304)
 -->
<!-- Title: Get_Input.hpp Pages: 1 -->
<svg width="194pt" height="84pt"
 viewBox="0.00 0.00 194.00 84.00" xmlns="http://www.w3.org/2000/svg" xmlns:xlink="http://www.w3.org/1999/xlink">
<g id="graph0" class="graph" transform="scale(1 1) rotate(0) translate(4 80)">
<title>Get_Input.hpp</title>
<!-- Node6 -->
<g id="node1" class="node">
<title>Node6</title>
<g id="a_node1"><a xlink:title=" ">
<polygon fill="#bfbfbf" stroke="#000000" points="50.5,-56.5 50.5,-75.5 135.5,-75.5 135.5,-56.5 50.5,-56.5"/>
<text text-anchor="middle" x="93" y="-63.5" font-family="Helvetica,sans-Serif" font-size="10.00" fill="#000000">Get_Input.hpp</text>
</a>
</g>
</g>
<!-- Node7 -->
<g id="node2" class="node">
<title>Node7</title>
<g id="a_node2"><a xlink:href="../../da/dc7/Get__Input_8cpp.html" target="_top" xlink:title=" ">
<polygon fill="none" stroke="#000000" points="0,-.5 0,-19.5 84,-19.5 84,-.5 0,-.5"/>
<text text-anchor="middle" x="42" y="-7.5" font-family="Helvetica,sans-Serif" font-size="10.00" fill="#000000">Get_Input.cpp</text>
</a>
</g>
</g>
<!-- Node6&#45;&gt;Node7 -->
<g id="edge1" class="edge">
<title>Node6&#45;&gt;Node7</title>
<path fill="none" stroke="#191970" d="M77.3251,-48.7884C68.6006,-39.2085 58.0646,-27.6396 50.7817,-19.6427"/>
<polygon fill="#191970" stroke="#191970" points="74.7954,-51.2088 84.1165,-56.2455 79.9709,-46.4954 74.7954,-51.2088"/>
</g>
<!-- Node8 -->
<g id="node3" class="node">
<title>Node8</title>
<g id="a_node3"><a xlink:href="../../de/d64/Hydrogen_8cpp.html" target="_top" xlink:title=" ">
<polygon fill="none" stroke="#000000" points="102,-.5 102,-19.5 186,-19.5 186,-.5 102,-.5"/>
<text text-anchor="middle" x="144" y="-7.5" font-family="Helvetica,sans-Serif" font-size="10.00" fill="#000000">Hydrogen.cpp</text>
</a>
</g>
</g>
<!-- Node6&#45;&gt;Node8 -->
<g id="edge2" class="edge">
<title>Node6&#45;&gt;Node8</title>
<path fill="none" stroke="#191970" d="M108.6749,-48.7884C117.3994,-39.2085 127.9354,-27.6396 135.2183,-19.6427"/>
<polygon fill="#191970" stroke="#191970" points="106.0291,-46.4954 101.8835,-56.2455 111.2046,-51.2088 106.0291,-46.4954"/>
</g>
</g>
</svg>
