<?xml version="1.0" encoding="UTF-8" standalone="no"?>
<!DOCTYPE svg PUBLIC "-//W3C//DTD SVG 1.1//EN"
 "http://www.w3.org/Graphics/SVG/1.1/DTD/svg11.dtd">
<!-- Generated by graphviz version 2.40.1 (20161225.0304)
 -->
<!-- Title: Graph.hpp Pages: 1 -->
<svg width="268pt" height="84pt"
 viewBox="0.00 0.00 268.00 84.00" xmlns="http://www.w3.org/2000/svg" xmlns:xlink="http://www.w3.org/1999/xlink">
<g id="graph0" class="graph" transform="scale(1 1) rotate(0) translate(4 80)">
<title>Graph.hpp</title>
<!-- Node9 -->
<g id="node1" class="node">
<title>Node9</title>
<g id="a_node1"><a xlink:title=" ">
<polygon fill="#bfbfbf" stroke="#000000" points="92.5,-56.5 92.5,-75.5 159.5,-75.5 159.5,-56.5 92.5,-56.5"/>
<text text-anchor="middle" x="126" y="-63.5" font-family="Helvetica,sans-Serif" font-size="10.00" fill="#000000">Graph.hpp</text>
</a>
</g>
</g>
<!-- Node10 -->
<g id="node2" class="node">
<title>Node10</title>
<g id="a_node2"><a xlink:href="../../dd/dea/Graph_8cpp.html" target="_top" xlink:title=" ">
<polygon fill="none" stroke="#000000" points="0,-.5 0,-19.5 66,-19.5 66,-.5 0,-.5"/>
<text text-anchor="middle" x="33" y="-7.5" font-family="Helvetica,sans-Serif" font-size="10.00" fill="#000000">Graph.cpp</text>
</a>
</g>
</g>
<!-- Node9&#45;&gt;Node10 -->
<g id="edge1" class="edge">
<title>Node9&#45;&gt;Node10</title>
<path fill="none" stroke="#191970" d="M101.1665,-51.0465C84.6189,-41.0824 63.3568,-28.2794 49.0137,-19.6427"/>
<polygon fill="#191970" stroke="#191970" points="99.4283,-54.0854 109.8006,-56.2455 103.0393,-48.0886 99.4283,-54.0854"/>
</g>
<!-- Node11 -->
<g id="node3" class="node">
<title>Node11</title>
<g id="a_node3"><a xlink:href="../../de/d64/Hydrogen_8cpp.html" target="_top" xlink:title=" ">
<polygon fill="none" stroke="#000000" points="84,-.5 84,-19.5 168,-19.5 168,-.5 84,-.5"/>
<text text-anchor="middle" x="126" y="-7.5" font-family="Helvetica,sans-Serif" font-size="10.00" fill="#000000">Hydrogen.cpp</text>
</a>
</g>
</g>
<!-- Node9&#45;&gt;Node11 -->
<g id="edge2" class="edge">
<title>Node9&#45;&gt;Node11</title>
<path fill="none" stroke="#191970" d="M126,-46.1575C126,-37.155 126,-26.9199 126,-19.6427"/>
<polygon fill="#191970" stroke="#191970" points="122.5001,-46.2455 126,-56.2455 129.5001,-46.2456 122.5001,-46.2455"/>
</g>
<!-- Node12 -->
<g id="node4" class="node">
<title>Node12</title>
<g id="a_node4"><a xlink:href="../../db/d17/MVICFG_8cpp.html" target="_top" xlink:title=" ">
<polygon fill="none" stroke="#000000" points="186,-.5 186,-19.5 260,-19.5 260,-.5 186,-.5"/>
<text text-anchor="middle" x="223" y="-7.5" font-family="Helvetica,sans-Serif" font-size="10.00" fill="#000000">MVICFG.cpp</text>
</a>
</g>
</g>
<!-- Node9&#45;&gt;Node12 -->
<g id="edge3" class="edge">
<title>Node9&#45;&gt;Node12</title>
<path fill="none" stroke="#191970" d="M151.9016,-51.0465C169.1609,-41.0824 191.3376,-28.2794 206.2975,-19.6427"/>
<polygon fill="#191970" stroke="#191970" points="149.8065,-48.2146 142.8961,-56.2455 153.3064,-54.2768 149.8065,-48.2146"/>
</g>
</g>
</svg>
