<?xml version="1.0" encoding="UTF-8" standalone="no"?>
<!DOCTYPE svg PUBLIC "-//W3C//DTD SVG 1.1//EN"
 "http://www.w3.org/Graphics/SVG/1.1/DTD/svg11.dtd">
<!-- Generated by graphviz version 2.40.1 (20161225.0304)
 -->
<!-- Title: Module.hpp Pages: 1 -->
<svg width="376pt" height="84pt"
 viewBox="0.00 0.00 376.00 84.00" xmlns="http://www.w3.org/2000/svg" xmlns:xlink="http://www.w3.org/1999/xlink">
<g id="graph0" class="graph" transform="scale(1 1) rotate(0) translate(4 80)">
<title>Module.hpp</title>
<!-- Node9 -->
<g id="node1" class="node">
<title>Node9</title>
<g id="a_node1"><a xlink:title=" ">
<polygon fill="#bfbfbf" stroke="#000000" points="155.5,-56.5 155.5,-75.5 228.5,-75.5 228.5,-56.5 155.5,-56.5"/>
<text text-anchor="middle" x="192" y="-63.5" font-family="Helvetica,sans-Serif" font-size="10.00" fill="#000000">Module.hpp</text>
</a>
</g>
</g>
<!-- Node10 -->
<g id="node2" class="node">
<title>Node10</title>
<g id="a_node2"><a xlink:href="../../da/dc7/Get__Input_8cpp.html" target="_top" xlink:title=" ">
<polygon fill="none" stroke="#000000" points="0,-.5 0,-19.5 84,-19.5 84,-.5 0,-.5"/>
<text text-anchor="middle" x="42" y="-7.5" font-family="Helvetica,sans-Serif" font-size="10.00" fill="#000000">Get_Input.cpp</text>
</a>
</g>
</g>
<!-- Node9&#45;&gt;Node10 -->
<g id="edge1" class="edge">
<title>Node9&#45;&gt;Node10</title>
<path fill="none" stroke="#191970" d="M156.6129,-52.7888C129.2247,-42.5639 91.9521,-28.6488 67.4494,-19.5011"/>
<polygon fill="#191970" stroke="#191970" points="155.6215,-56.1546 166.2141,-56.3733 158.0698,-49.5967 155.6215,-56.1546"/>
</g>
<!-- Node11 -->
<g id="node3" class="node">
<title>Node11</title>
<g id="a_node3"><a xlink:href="../../de/d64/Hydrogen_8cpp.html" target="_top" xlink:title=" ">
<polygon fill="none" stroke="#000000" points="102,-.5 102,-19.5 186,-19.5 186,-.5 102,-.5"/>
<text text-anchor="middle" x="144" y="-7.5" font-family="Helvetica,sans-Serif" font-size="10.00" fill="#000000">Hydrogen.cpp</text>
</a>
</g>
</g>
<!-- Node9&#45;&gt;Node11 -->
<g id="edge2" class="edge">
<title>Node9&#45;&gt;Node11</title>
<path fill="none" stroke="#191970" d="M177.0003,-48.5004C168.8378,-38.9775 159.0511,-27.5596 152.2651,-19.6427"/>
<polygon fill="#191970" stroke="#191970" points="174.4737,-50.9307 183.639,-56.2455 179.7885,-46.3752 174.4737,-50.9307"/>
</g>
<!-- Node12 -->
<g id="node4" class="node">
<title>Node12</title>
<g id="a_node4"><a xlink:href="../../d4/dd4/Module_8cpp.html" target="_top" xlink:title=" ">
<polygon fill="none" stroke="#000000" points="204,-.5 204,-19.5 276,-19.5 276,-.5 204,-.5"/>
<text text-anchor="middle" x="240" y="-7.5" font-family="Helvetica,sans-Serif" font-size="10.00" fill="#000000">Module.cpp</text>
</a>
</g>
</g>
<!-- Node9&#45;&gt;Node12 -->
<g id="edge3" class="edge">
<title>Node9&#45;&gt;Node12</title>
<path fill="none" stroke="#191970" d="M206.9997,-48.5004C215.1622,-38.9775 224.9489,-27.5596 231.7349,-19.6427"/>
<polygon fill="#191970" stroke="#191970" points="204.2115,-46.3752 200.361,-56.2455 209.5263,-50.9307 204.2115,-46.3752"/>
</g>
<!-- Node13 -->
<g id="node5" class="node">
<title>Node13</title>
<g id="a_node5"><a xlink:href="../../db/d17/MVICFG_8cpp.html" target="_top" xlink:title=" ">
<polygon fill="none" stroke="#000000" points="294,-.5 294,-19.5 368,-19.5 368,-.5 294,-.5"/>
<text text-anchor="middle" x="331" y="-7.5" font-family="Helvetica,sans-Serif" font-size="10.00" fill="#000000">MVICFG.cpp</text>
</a>
</g>
</g>
<!-- Node9&#45;&gt;Node13 -->
<g id="edge4" class="edge">
<title>Node9&#45;&gt;Node13</title>
<path fill="none" stroke="#191970" d="M225.4621,-52.5189C250.7769,-42.3201 284.9103,-28.5685 307.4169,-19.5011"/>
<polygon fill="#191970" stroke="#191970" points="223.8626,-49.3899 215.895,-56.3733 226.4784,-55.8827 223.8626,-49.3899"/>
</g>
</g>
</svg>
