<?xml version="1.0" encoding="UTF-8" standalone="no"?>
<!DOCTYPE svg PUBLIC "-//W3C//DTD SVG 1.1//EN"
 "http://www.w3.org/Graphics/SVG/1.1/DTD/svg11.dtd">
<!-- Generated by graphviz version 2.40.1 (20161225.0304)
 -->
<!-- Title: hydrogen_framework::Diff_Compare::impl Pages: 1 -->
<svg width="684pt" height="57pt"
 viewBox="0.00 0.00 684.00 57.00" xmlns="http://www.w3.org/2000/svg" xmlns:xlink="http://www.w3.org/1999/xlink">
<g id="graph0" class="graph" transform="scale(1 1) rotate(0) translate(4 53)">
<title>hydrogen_framework::Diff_Compare::impl</title>
<!-- Node5 -->
<g id="node1" class="node">
<title>Node5</title>
<g id="a_node1"><a xlink:title=" ">
<polygon fill="#bfbfbf" stroke="#000000" points="555,-.5 555,-30.5 676,-30.5 676,-.5 555,-.5"/>
<text text-anchor="start" x="563" y="-18.5" font-family="Helvetica,sans-Serif" font-size="10.00" fill="#000000">hydrogen_framework</text>
<text text-anchor="middle" x="615.5" y="-7.5" font-family="Helvetica,sans-Serif" font-size="10.00" fill="#000000">::Diff_Compare::impl</text>
</a>
</g>
</g>
<!-- Node6 -->
<g id="node2" class="node">
<title>Node6</title>
<g id="a_node2"><a xlink:href="../../d2/d24/classhydrogen__framework_1_1Diff__Util.html#a5e20bf56f59450ea74fff6d62f5fa80e" target="_top" xlink:title=" ">
<polygon fill="none" stroke="#000000" points="398,-.5 398,-30.5 519,-30.5 519,-.5 398,-.5"/>
<text text-anchor="start" x="406" y="-18.5" font-family="Helvetica,sans-Serif" font-size="10.00" fill="#000000">hydrogen_framework</text>
<text text-anchor="middle" x="458.5" y="-7.5" font-family="Helvetica,sans-Serif" font-size="10.00" fill="#000000">::Diff_Util::snake</text>
</a>
</g>
</g>
<!-- Node5&#45;&gt;Node6 -->
<g id="edge1" class="edge">
<title>Node5&#45;&gt;Node6</title>
<path fill="none" stroke="#191970" d="M544.7902,-15.5C536.193,-15.5 527.4699,-15.5 519.0389,-15.5"/>
<polygon fill="#191970" stroke="#191970" points="544.7997,-19.0001 554.7997,-15.5 544.7997,-12.0001 544.7997,-19.0001"/>
</g>
<!-- Node7 -->
<g id="node3" class="node">
<title>Node7</title>
<g id="a_node3"><a xlink:href="../../d2/d24/classhydrogen__framework_1_1Diff__Util.html#aa59b7d19a2dcff228c035a204fe2aa30" target="_top" xlink:title=" ">
<polygon fill="none" stroke="#000000" points="241,-.5 241,-30.5 362,-30.5 362,-.5 241,-.5"/>
<text text-anchor="start" x="249" y="-18.5" font-family="Helvetica,sans-Serif" font-size="10.00" fill="#000000">hydrogen_framework</text>
<text text-anchor="middle" x="301.5" y="-7.5" font-family="Helvetica,sans-Serif" font-size="10.00" fill="#000000">::Diff_Util::compose</text>
</a>
</g>
</g>
<!-- Node6&#45;&gt;Node7 -->
<g id="edge2" class="edge">
<title>Node6&#45;&gt;Node7</title>
<path fill="none" stroke="#191970" d="M387.7902,-15.5C379.193,-15.5 370.4699,-15.5 362.0389,-15.5"/>
<polygon fill="#191970" stroke="#191970" points="387.7997,-19.0001 397.7997,-15.5 387.7997,-12.0001 387.7997,-19.0001"/>
</g>
<!-- Node8 -->
<g id="node4" class="node">
<title>Node8</title>
<g id="a_node4"><a xlink:href="../../db/d17/MVICFG_8cpp.html#acba4bfcf960997bacef6e55377e99e6f" target="_top" xlink:title=" ">
<polygon fill="none" stroke="#000000" points="77,-.5 77,-30.5 205,-30.5 205,-.5 77,-.5"/>
<text text-anchor="start" x="85" y="-18.5" font-family="Helvetica,sans-Serif" font-size="10.00" fill="#000000">hydrogen_framework</text>
<text text-anchor="middle" x="141" y="-7.5" font-family="Helvetica,sans-Serif" font-size="10.00" fill="#000000">::generateLineMapping</text>
</a>
</g>
</g>
<!-- Node7&#45;&gt;Node8 -->
<g id="edge3" class="edge">
<title>Node7&#45;&gt;Node8</title>
<path fill="none" stroke="#191970" d="M230.6165,-15.5C222.172,-15.5 213.5872,-15.5 205.243,-15.5"/>
<polygon fill="#191970" stroke="#191970" points="230.8219,-19.0001 240.8218,-15.5 230.8218,-12.0001 230.8219,-19.0001"/>
</g>
<!-- Node8&#45;&gt;Node8 -->
<g id="edge4" class="edge">
<title>Node8&#45;&gt;Node8</title>
<path fill="none" stroke="#191970" d="M162.3226,-40.9579C159.6761,-45.679 152.5686,-49 141,-49 122.0156,-49 115.0448,-40.0566 120.0875,-30.659"/>
<polygon fill="#191970" stroke="#191970" points="165.8077,-40.5118 161.9125,-30.659 158.8132,-40.7904 165.8077,-40.5118"/>
</g>
<!-- Node9 -->
<g id="node5" class="node">
<title>Node9</title>
<g id="a_node5"><a xlink:href="../../de/d64/Hydrogen_8cpp.html#a0ddf1224851353fc92bfbff6f499fa97" target="_top" xlink:title=" ">
<polygon fill="none" stroke="#000000" points="0,-6 0,-25 41,-25 41,-6 0,-6"/>
<text text-anchor="middle" x="20.5" y="-13" font-family="Helvetica,sans-Serif" font-size="10.00" fill="#000000">main</text>
</a>
</g>
</g>
<!-- Node8&#45;&gt;Node9 -->
<g id="edge5" class="edge">
<title>Node8&#45;&gt;Node9</title>
<path fill="none" stroke="#191970" d="M66.6631,-15.5C57.387,-15.5 48.5828,-15.5 41.1986,-15.5"/>
<polygon fill="#191970" stroke="#191970" points="66.8691,-19.0001 76.8691,-15.5 66.8691,-12.0001 66.8691,-19.0001"/>
</g>
</g>
</svg>
