<?xml version="1.0" encoding="UTF-8" standalone="no"?>
<!DOCTYPE svg PUBLIC "-//W3C//DTD SVG 1.1//EN"
 "http://www.w3.org/Graphics/SVG/1.1/DTD/svg11.dtd">
<!-- Generated by graphviz version 2.40.1 (20161225.0304)
 -->
<!-- Title: Hydrogen.cpp Pages: 1 -->
<!--zoomable 196 -->
<svg id="main" version="1.1" xmlns="http://www.w3.org/2000/svg" xmlns:xlink="http://www.w3.org/1999/xlink" xml:space="preserve" onload="init(evt)">
<style type="text/css"><![CDATA[
.edge:hover path { stroke: red; }
.edge:hover polygon { stroke: red; fill: red; }
]]></style>
<script type="text/javascript"><![CDATA[
var edges = document.getElementsByTagName('g');
if (edges && edges.length) {
  for (var i=0;i<edges.length;i++) {
    if (edges[i].id.substr(0,4)=='edge') {
      edges[i].setAttribute('class','edge');
    }
  }
}
]]></script>
        <defs>
                <circle id="rim" cx="0" cy="0" r="7"/>
                <circle id="rim2" cx="0" cy="0" r="3.5"/>
                <g id="zoomPlus">
                        <use xlink:href="#rim" fill="#404040">
                                <set attributeName="fill" to="#808080" begin="zoomplus.mouseover" end="zoomplus.mouseout"/>
                        </use>
                        <path d="M-4,0h8M0,-4v8" fill="none" stroke="white" stroke-width="1.5" pointer-events="none"/>
                </g>
                <g id="zoomMin">
                        <use xlink:href="#rim" fill="#404040">
                                <set attributeName="fill" to="#808080" begin="zoomminus.mouseover" end="zoomminus.mouseout"/>
                        </use>
                        <path d="M-4,0h8" fill="none" stroke="white" stroke-width="1.5" pointer-events="none"/>
                </g>
                <g id="dirArrow">
                        <path fill="none" stroke="white" stroke-width="1.5" d="M0,-3.0v7 M-2.5,-0.5L0,-3.0L2.5,-0.5"/>
                </g>
               <g id="resetDef">
                       <use xlink:href="#rim2" fill="#404040">
                               <set attributeName="fill" to="#808080" begin="reset.mouseover" end="reset.mouseout"/>
                       </use>
               </g>
        </defs>

<script type="text/javascript">
var viewWidth = 2783;
var viewHeight = 196;
var sectionId = 'dynsection-0';
</script>
<script xlink:href="../../svgpan.js"/>
<svg id="graph" class="graph">
<g id="viewport">
<title>Hydrogen.cpp</title>
<!-- Node0 -->
<g id="node1" class="node">
<title>Node0</title>
<g id="a_node1"><a xlink:title=" ">
<polygon fill="#bfbfbf" stroke="#000000" points="1397.5,-168.5 1397.5,-187.5 1481.5,-187.5 1481.5,-168.5 1397.5,-168.5"/>
<text text-anchor="middle" x="1439.5" y="-175.5" font-family="Helvetica,sans-Serif" font-size="10.00" fill="#000000">Hydrogen.cpp</text>
</a>
</g>
</g>
<!-- Node1 -->
<g id="node2" class="node">
<title>Node1</title>
<g id="a_node2"><a xlink:href="../../df/d13/Diff__Mapping_8hpp.html" target="_top" xlink:title=" ">
<polygon fill="none" stroke="#000000" points="340,-112.5 340,-131.5 441,-131.5 441,-112.5 340,-112.5"/>
<text text-anchor="middle" x="390.5" y="-119.5" font-family="Helvetica,sans-Serif" font-size="10.00" fill="#000000">Diff_Mapping.hpp</text>
</a>
</g>
</g>
<!-- Node0&#45;&gt;Node1 -->
<g id="edge1" class="edge">
<title>Node0&#45;&gt;Node1</title>
<path fill="none" stroke="#191970" d="M1397.3493,-177.183C1262.2094,-174.311 827.6737,-163.1136 469.5,-132 463.5884,-131.4865 457.4384,-130.864 451.296,-130.1837"/>
<polygon fill="#191970" stroke="#191970" points="451.3458,-126.6661 441.0096,-128.9929 450.5408,-133.6197 451.3458,-126.6661"/>
</g>
<!-- Node8 -->
<g id="node9" class="node">
<title>Node8</title>
<g id="a_node9"><a xlink:href="../../df/ddd/Get__Input_8hpp.html" target="_top" xlink:title=" ">
<polygon fill="none" stroke="#000000" points="478,-112.5 478,-131.5 563,-131.5 563,-112.5 478,-112.5"/>
<text text-anchor="middle" x="520.5" y="-119.5" font-family="Helvetica,sans-Serif" font-size="10.00" fill="#000000">Get_Input.hpp</text>
</a>
</g>
</g>
<!-- Node0&#45;&gt;Node8 -->
<g id="edge10" class="edge">
<title>Node0&#45;&gt;Node8</title>
<path fill="none" stroke="#191970" d="M1397.3216,-175.4298C1247.2875,-166.2874 739.5919,-135.3505 573.5415,-125.2321"/>
<polygon fill="#191970" stroke="#191970" points="573.3,-121.711 563.1056,-124.5962 572.8741,-128.698 573.3,-121.711"/>
</g>
<!-- Node14 -->
<g id="node15" class="node">
<title>Node14</title>
<g id="a_node15"><a xlink:href="../../d9/d69/Graph_8hpp.html" target="_top" xlink:title=" ">
<polygon fill="none" stroke="#000000" points="911,-112.5 911,-131.5 978,-131.5 978,-112.5 911,-112.5"/>
<text text-anchor="middle" x="944.5" y="-119.5" font-family="Helvetica,sans-Serif" font-size="10.00" fill="#000000">Graph.hpp</text>
</a>
</g>
</g>
<!-- Node0&#45;&gt;Node14 -->
<g id="edge16" class="edge">
<title>Node0&#45;&gt;Node14</title>
<path fill="none" stroke="#191970" d="M1397.2966,-173.2255C1304.3394,-162.7091 1082.7025,-137.635 988.2956,-126.9547"/>
<polygon fill="#191970" stroke="#191970" points="988.5584,-123.4621 978.2283,-125.8157 987.7714,-130.4178 988.5584,-123.4621"/>
</g>
<!-- Node19 -->
<g id="node20" class="node">
<title>Node19</title>
<g id="a_node20"><a xlink:href="../../df/ddd/Graph__Line_8hpp.html" target="_top" xlink:title=" ">
<polygon fill="none" stroke="#000000" points="1393.5,-112.5 1393.5,-131.5 1485.5,-131.5 1485.5,-112.5 1393.5,-112.5"/>
<text text-anchor="middle" x="1439.5" y="-119.5" font-family="Helvetica,sans-Serif" font-size="10.00" fill="#000000">Graph_Line.hpp</text>
</a>
</g>
</g>
<!-- Node0&#45;&gt;Node19 -->
<g id="edge25" class="edge">
<title>Node0&#45;&gt;Node19</title>
<path fill="none" stroke="#191970" d="M1439.5,-168.2455C1439.5,-160.9382 1439.5,-150.6944 1439.5,-141.7046"/>
<polygon fill="#191970" stroke="#191970" points="1443.0001,-141.6426 1439.5,-131.6427 1436.0001,-141.6427 1443.0001,-141.6426"/>
</g>
<!-- Node21 -->
<g id="node22" class="node">
<title>Node21</title>
<g id="a_node22"><a xlink:href="../../df/de4/MVICFG_8hpp.html" target="_top" xlink:title=" ">
<polygon fill="none" stroke="#000000" points="1513,-112.5 1513,-131.5 1588,-131.5 1588,-112.5 1513,-112.5"/>
<text text-anchor="middle" x="1550.5" y="-119.5" font-family="Helvetica,sans-Serif" font-size="10.00" fill="#000000">MVICFG.hpp</text>
</a>
</g>
</g>
<!-- Node0&#45;&gt;Node21 -->
<g id="edge28" class="edge">
<title>Node0&#45;&gt;Node21</title>
<path fill="none" stroke="#191970" d="M1458.5816,-168.3733C1476.2402,-159.4644 1502.7053,-146.1127 1522.7098,-136.0203"/>
<polygon fill="#191970" stroke="#191970" points="1524.3158,-139.1303 1531.6674,-131.5011 1521.1628,-132.8806 1524.3158,-139.1303"/>
</g>
<!-- Node25 -->
<g id="node26" class="node">
<title>Node25</title>
<g id="a_node26"><a xlink:href="../../d5/d44/Module_8hpp.html" target="_top" xlink:title=" ">
<polygon fill="none" stroke="#000000" points="2018,-112.5 2018,-131.5 2091,-131.5 2091,-112.5 2018,-112.5"/>
<text text-anchor="middle" x="2054.5" y="-119.5" font-family="Helvetica,sans-Serif" font-size="10.00" fill="#000000">Module.hpp</text>
</a>
</g>
</g>
<!-- Node0&#45;&gt;Node25 -->
<g id="edge38" class="edge">
<title>Node0&#45;&gt;Node25</title>
<path fill="none" stroke="#191970" d="M1481.7714,-174.1509C1592.8065,-164.0404 1892.1238,-136.7855 2007.8949,-126.2437"/>
<polygon fill="#191970" stroke="#191970" points="2008.224,-129.7283 2017.8654,-125.3358 2007.5892,-122.7572 2008.224,-129.7283"/>
</g>
<!-- Node32 -->
<g id="node33" class="node">
<title>Node32</title>
<g id="a_node33"><a xlink:title=" ">
<polygon fill="none" stroke="#bfbfbf" points="2109.5,-112.5 2109.5,-131.5 2159.5,-131.5 2159.5,-112.5 2109.5,-112.5"/>
<text text-anchor="middle" x="2134.5" y="-119.5" font-family="Helvetica,sans-Serif" font-size="10.00" fill="#000000">chrono</text>
</a>
</g>
</g>
<!-- Node0&#45;&gt;Node32 -->
<g id="edge47" class="edge">
<title>Node0&#45;&gt;Node32</title>
<path fill="none" stroke="#191970" d="M1481.6215,-176.2634C1604.501,-171.0131 1961.9825,-154.3854 2099.1321,-131.8186"/>
<polygon fill="#191970" stroke="#191970" points="2100.1377,-135.1967 2109.3945,-130.0429 2098.9442,-128.2992 2100.1377,-135.1967"/>
</g>
<!-- Node2 -->
<g id="node3" class="node">
<title>Node2</title>
<g id="a_node3"><a xlink:href="../../db/dba/Diff__Util_8hpp.html" target="_top" xlink:title=" ">
<polygon fill="none" stroke="#000000" points="18,-56.5 18,-75.5 95,-75.5 95,-56.5 18,-56.5"/>
<text text-anchor="middle" x="56.5" y="-63.5" font-family="Helvetica,sans-Serif" font-size="10.00" fill="#000000">Diff_Util.hpp</text>
</a>
</g>
</g>
<!-- Node1&#45;&gt;Node2 -->
<g id="edge2" class="edge">
<title>Node1&#45;&gt;Node2</title>
<path fill="none" stroke="#191970" d="M339.9297,-114.0996C283.6257,-105.2154 189.951,-90.1725 109.5,-76 108.0591,-75.7462 106.5967,-75.4861 105.1207,-75.2214"/>
<polygon fill="#191970" stroke="#191970" points="105.7328,-71.7754 95.2675,-73.4267 104.4784,-78.6621 105.7328,-71.7754"/>
</g>
<!-- Node3 -->
<g id="node4" class="node">
<title>Node3</title>
<g id="a_node4"><a xlink:title=" ">
<polygon fill="none" stroke="#bfbfbf" points="1414.5,-.5 1414.5,-19.5 1446.5,-19.5 1446.5,-.5 1414.5,-.5"/>
<text text-anchor="middle" x="1430.5" y="-7.5" font-family="Helvetica,sans-Serif" font-size="10.00" fill="#000000">list</text>
</a>
</g>
</g>
<!-- Node1&#45;&gt;Node3 -->
<g id="edge7" class="edge">
<title>Node1&#45;&gt;Node3</title>
<path fill="none" stroke="#191970" d="M339.9213,-119.9954C274.8114,-116.2302 167.1038,-105.5871 142.5,-76 136.8166,-69.1655 136.3278,-62.3966 142.5,-56 165.2198,-32.4543 1222.2746,-13.5239 1404.0326,-10.4402"/>
<polygon fill="#191970" stroke="#191970" points="1404.1201,-13.9393 1414.0596,-10.2712 1404.002,-6.9403 1404.1201,-13.9393"/>
</g>
<!-- Node5 -->
<g id="node6" class="node">
<title>Node5</title>
<g id="a_node6"><a xlink:title=" ">
<polygon fill="none" stroke="#bfbfbf" points="0,-.5 0,-19.5 47,-19.5 47,-.5 0,-.5"/>
<text text-anchor="middle" x="23.5" y="-7.5" font-family="Helvetica,sans-Serif" font-size="10.00" fill="#000000">vector</text>
</a>
</g>
</g>
<!-- Node1&#45;&gt;Node5 -->
<g id="edge9" class="edge">
<title>Node1&#45;&gt;Node5</title>
<path fill="none" stroke="#191970" d="M339.8292,-119.5795C240.9786,-114.3366 30.1339,-100.3953 8.5,-76 -3.0119,-63.0187 3.7461,-43.0555 11.5282,-28.483"/>
<polygon fill="#191970" stroke="#191970" points="14.5727,-30.2102 16.6084,-19.8128 8.5331,-26.6714 14.5727,-30.2102"/>
</g>
<!-- Node6 -->
<g id="node7" class="node">
<title>Node6</title>
<g id="a_node7"><a xlink:title=" ">
<polygon fill="none" stroke="#bfbfbf" points="1304.5,-56.5 1304.5,-75.5 1364.5,-75.5 1364.5,-56.5 1304.5,-56.5"/>
<text text-anchor="middle" x="1334.5" y="-63.5" font-family="Helvetica,sans-Serif" font-size="10.00" fill="#000000">iostream</text>
</a>
</g>
</g>
<!-- Node1&#45;&gt;Node6 -->
<g id="edge6" class="edge">
<title>Node1&#45;&gt;Node6</title>
<path fill="none" stroke="#191970" d="M441.0071,-114.9782C450.4611,-113.8425 460.2707,-112.7839 469.5,-112 832.3338,-81.1817 930.2553,-129.0446 1294.3685,-75.8575"/>
<polygon fill="#191970" stroke="#191970" points="1295.011,-79.3007 1304.3926,-74.3777 1293.9886,-72.3757 1295.011,-79.3007"/>
</g>
<!-- Node7 -->
<g id="node8" class="node">
<title>Node7</title>
<g id="a_node8"><a xlink:title=" ">
<polygon fill="none" stroke="#bfbfbf" points="397.5,-56.5 397.5,-75.5 441.5,-75.5 441.5,-56.5 397.5,-56.5"/>
<text text-anchor="middle" x="419.5" y="-63.5" font-family="Helvetica,sans-Serif" font-size="10.00" fill="#000000">regex</text>
</a>
</g>
</g>
<!-- Node1&#45;&gt;Node7 -->
<g id="edge8" class="edge">
<title>Node1&#45;&gt;Node7</title>
<path fill="none" stroke="#191970" d="M395.5514,-112.2455C399.5019,-104.617 405.1097,-93.7881 409.9058,-84.5267"/>
<polygon fill="#191970" stroke="#191970" points="413.0159,-86.1321 414.5065,-75.6427 406.7999,-82.9131 413.0159,-86.1321"/>
</g>
<!-- Node2&#45;&gt;Node3 -->
<g id="edge3" class="edge">
<title>Node2&#45;&gt;Node3</title>
<path fill="none" stroke="#191970" d="M95.1852,-57.9997C99.9894,-57.2135 104.8468,-56.517 109.5,-56 373.6995,-26.6471 1241.6063,-12.7481 1404.1456,-10.3719"/>
<polygon fill="#191970" stroke="#191970" points="1404.2682,-13.8706 1414.2165,-10.2263 1404.1669,-6.8714 1404.2682,-13.8706"/>
</g>
<!-- Node4 -->
<g id="node5" class="node">
<title>Node4</title>
<g id="a_node5"><a xlink:title=" ">
<polygon fill="none" stroke="#bfbfbf" points="1762.5,-.5 1762.5,-19.5 1806.5,-19.5 1806.5,-.5 1762.5,-.5"/>
<text text-anchor="middle" x="1784.5" y="-7.5" font-family="Helvetica,sans-Serif" font-size="10.00" fill="#000000">string</text>
</a>
</g>
</g>
<!-- Node2&#45;&gt;Node4 -->
<g id="edge4" class="edge">
<title>Node2&#45;&gt;Node4</title>
<path fill="none" stroke="#191970" d="M95.3897,-60.7404C110.1197,-58.9424 127.0576,-57.1073 142.5,-56 724.7797,-14.246 871.9689,-36.8679 1455.5,-20 1564.1228,-16.8601 1692.9096,-12.8671 1751.9663,-11.0209"/>
<polygon fill="#191970" stroke="#191970" points="1752.2758,-14.5131 1762.1614,-10.7019 1752.0567,-7.5165 1752.2758,-14.5131"/>
</g>
<!-- Node2&#45;&gt;Node5 -->
<g id="edge5" class="edge">
<title>Node2&#45;&gt;Node5</title>
<path fill="none" stroke="#191970" d="M50.7518,-56.2455C46.2565,-48.617 39.8752,-37.7881 34.4175,-28.5267"/>
<polygon fill="#191970" stroke="#191970" points="37.2747,-26.4811 29.1823,-19.6427 31.2439,-30.035 37.2747,-26.4811"/>
</g>
<!-- Node9 -->
<g id="node10" class="node">
<title>Node9</title>
<g id="a_node10"><a xlink:title=" ">
<polygon fill="none" stroke="#bfbfbf" points="459.5,-56.5 459.5,-75.5 523.5,-75.5 523.5,-56.5 459.5,-56.5"/>
<text text-anchor="middle" x="491.5" y="-63.5" font-family="Helvetica,sans-Serif" font-size="10.00" fill="#000000">algorithm</text>
</a>
</g>
</g>
<!-- Node8&#45;&gt;Node9 -->
<g id="edge11" class="edge">
<title>Node8&#45;&gt;Node9</title>
<path fill="none" stroke="#191970" d="M515.4486,-112.2455C511.4981,-104.617 505.8903,-93.7881 501.0942,-84.5267"/>
<polygon fill="#191970" stroke="#191970" points="504.2001,-82.9131 496.4935,-75.6427 497.9841,-86.1321 504.2001,-82.9131"/>
</g>
<!-- Node10 -->
<g id="node11" class="node">
<title>Node10</title>
<g id="a_node11"><a xlink:title=" ">
<polygon fill="none" stroke="#bfbfbf" points="151.5,-56.5 151.5,-75.5 297.5,-75.5 297.5,-56.5 151.5,-56.5"/>
<text text-anchor="middle" x="224.5" y="-63.5" font-family="Helvetica,sans-Serif" font-size="10.00" fill="#000000">boost/algorithm/string.hpp</text>
</a>
</g>
</g>
<!-- Node8&#45;&gt;Node10 -->
<g id="edge12" class="edge">
<title>Node8&#45;&gt;Node10</title>
<path fill="none" stroke="#191970" d="M477.7752,-113.9169C427.1038,-104.3305 342.2969,-88.2859 284.9192,-77.4307"/>
<polygon fill="#191970" stroke="#191970" points="285.3705,-73.954 274.8941,-75.534 284.0692,-80.832 285.3705,-73.954"/>
</g>
<!-- Node11 -->
<g id="node12" class="node">
<title>Node11</title>
<g id="a_node12"><a xlink:title=" ">
<polygon fill="none" stroke="#bfbfbf" points="1167,-56.5 1167,-75.5 1286,-75.5 1286,-56.5 1167,-56.5"/>
<text text-anchor="middle" x="1226.5" y="-63.5" font-family="Helvetica,sans-Serif" font-size="10.00" fill="#000000">boost/filesystem.hpp</text>
</a>
</g>
</g>
<!-- Node8&#45;&gt;Node11 -->
<g id="edge13" class="edge">
<title>Node8&#45;&gt;Node11</title>
<path fill="none" stroke="#191970" d="M563.1569,-120.0177C664.3605,-115.0802 927.1075,-100.886 1156.615,-76.141"/>
<polygon fill="#191970" stroke="#191970" points="1157.265,-79.5911 1166.828,-75.0304 1156.5082,-72.6321 1157.265,-79.5911"/>
</g>
<!-- Node12 -->
<g id="node13" class="node">
<title>Node12</title>
<g id="a_node13"><a xlink:title=" ">
<polygon fill="none" stroke="#bfbfbf" points="542,-56.5 542,-75.5 597,-75.5 597,-56.5 542,-56.5"/>
<text text-anchor="middle" x="569.5" y="-63.5" font-family="Helvetica,sans-Serif" font-size="10.00" fill="#000000">fstream</text>
</a>
</g>
</g>
<!-- Node8&#45;&gt;Node12 -->
<g id="edge14" class="edge">
<title>Node8&#45;&gt;Node12</title>
<path fill="none" stroke="#191970" d="M529.0351,-112.2455C535.9912,-104.2958 545.9883,-92.8706 554.3051,-83.3656"/>
<polygon fill="#191970" stroke="#191970" points="557.1116,-85.4732 561.0627,-75.6427 551.8436,-80.8637 557.1116,-85.4732"/>
</g>
<!-- Node13 -->
<g id="node14" class="node">
<title>Node13</title>
<g id="a_node14"><a xlink:title=" ">
<polygon fill="none" stroke="#bfbfbf" points="315.5,-56.5 315.5,-75.5 379.5,-75.5 379.5,-56.5 315.5,-56.5"/>
<text text-anchor="middle" x="347.5" y="-63.5" font-family="Helvetica,sans-Serif" font-size="10.00" fill="#000000">sys/stat.h</text>
</a>
</g>
</g>
<!-- Node8&#45;&gt;Node13 -->
<g id="edge15" class="edge">
<title>Node8&#45;&gt;Node13</title>
<path fill="none" stroke="#191970" d="M490.7602,-112.3733C461.993,-103.0613 418.23,-88.8953 386.6444,-78.671"/>
<polygon fill="#191970" stroke="#191970" points="387.4436,-75.251 376.8517,-75.5011 385.2878,-81.9107 387.4436,-75.251"/>
</g>
<!-- Node14&#45;&gt;Node3 -->
<g id="edge19" class="edge">
<title>Node14&#45;&gt;Node3</title>
<path fill="none" stroke="#191970" d="M978.0866,-121.544C1066.7209,-119.85 1304.8276,-111.9814 1373.5,-76 1393.9346,-65.2932 1410.2372,-43.9495 1420.0871,-28.4247"/>
<polygon fill="#191970" stroke="#191970" points="1423.2061,-30.0298 1425.3655,-19.6574 1417.2091,-26.4193 1423.2061,-30.0298"/>
</g>
<!-- Node14&#45;&gt;Node6 -->
<g id="edge18" class="edge">
<title>Node14&#45;&gt;Node6</title>
<path fill="none" stroke="#191970" d="M978.1095,-118.9586C1039.2033,-113.1369 1172.6581,-99.0712 1294.4779,-76.0081"/>
<polygon fill="#191970" stroke="#191970" points="1295.1863,-79.4361 1304.3477,-74.1145 1293.8673,-72.5615 1295.1863,-79.4361"/>
</g>
<!-- Node14&#45;&gt;Node7 -->
<g id="edge24" class="edge">
<title>Node14&#45;&gt;Node7</title>
<path fill="none" stroke="#191970" d="M910.8815,-121.4004C831.9871,-119.4569 628.8744,-111.3365 451.714,-75.8459"/>
<polygon fill="#191970" stroke="#191970" points="452.1925,-72.3715 441.6949,-73.8035 450.7943,-79.2304 452.1925,-72.3715"/>
</g>
<!-- Node14&#45;&gt;Node12 -->
<g id="edge17" class="edge">
<title>Node14&#45;&gt;Node12</title>
<path fill="none" stroke="#191970" d="M910.6775,-118.8531C851.2226,-113.0076 723.9935,-99.1002 607.1195,-75.9008"/>
<polygon fill="#191970" stroke="#191970" points="607.783,-72.4642 597.289,-73.9221 606.4017,-79.3266 607.783,-72.4642"/>
</g>
<!-- Node15 -->
<g id="node16" class="node">
<title>Node15</title>
<g id="a_node16"><a xlink:title=" ">
<polygon fill="none" stroke="#bfbfbf" points="615,-56.5 615,-75.5 716,-75.5 716,-56.5 615,-56.5"/>
<text text-anchor="middle" x="665.5" y="-63.5" font-family="Helvetica,sans-Serif" font-size="10.00" fill="#000000">llvm/IR/CallSite.h</text>
</a>
</g>
</g>
<!-- Node14&#45;&gt;Node15 -->
<g id="edge20" class="edge">
<title>Node14&#45;&gt;Node15</title>
<path fill="none" stroke="#191970" d="M910.8461,-115.2451C864.3601,-105.9146 779.833,-88.9486 723.1693,-77.5752"/>
<polygon fill="#191970" stroke="#191970" points="723.7717,-74.1264 713.2784,-75.5899 722.3941,-80.9895 723.7717,-74.1264"/>
</g>
<!-- Node16 -->
<g id="node17" class="node">
<title>Node16</title>
<g id="a_node17"><a xlink:title=" ">
<polygon fill="none" stroke="#bfbfbf" points="865,-56.5 865,-75.5 1024,-75.5 1024,-56.5 865,-56.5"/>
<text text-anchor="middle" x="944.5" y="-63.5" font-family="Helvetica,sans-Serif" font-size="10.00" fill="#000000">llvm/IR/DebugInfoMetadata.h</text>
</a>
</g>
</g>
<!-- Node14&#45;&gt;Node16 -->
<g id="edge21" class="edge">
<title>Node14&#45;&gt;Node16</title>
<path fill="none" stroke="#191970" d="M944.5,-112.2455C944.5,-104.9382 944.5,-94.6944 944.5,-85.7046"/>
<polygon fill="#191970" stroke="#191970" points="948.0001,-85.6426 944.5,-75.6427 941.0001,-85.6427 948.0001,-85.6426"/>
</g>
<!-- Node17 -->
<g id="node18" class="node">
<title>Node17</title>
<g id="a_node18"><a xlink:title=" ">
<polygon fill="none" stroke="#bfbfbf" points="734,-56.5 734,-75.5 847,-75.5 847,-56.5 734,-56.5"/>
<text text-anchor="middle" x="790.5" y="-63.5" font-family="Helvetica,sans-Serif" font-size="10.00" fill="#000000">llvm/IR/InstrTypes.h</text>
</a>
</g>
</g>
<!-- Node14&#45;&gt;Node17 -->
<g id="edge22" class="edge">
<title>Node14&#45;&gt;Node17</title>
<path fill="none" stroke="#191970" d="M918.0265,-112.3733C892.6403,-103.1419 854.1355,-89.1402 826.078,-78.9375"/>
<polygon fill="#191970" stroke="#191970" points="827.2222,-75.6293 816.6281,-75.5011 824.8299,-82.2079 827.2222,-75.6293"/>
</g>
<!-- Node18 -->
<g id="node19" class="node">
<title>Node18</title>
<g id="a_node19"><a xlink:title=" ">
<polygon fill="none" stroke="#bfbfbf" points="1042,-56.5 1042,-75.5 1149,-75.5 1149,-56.5 1042,-56.5"/>
<text text-anchor="middle" x="1095.5" y="-63.5" font-family="Helvetica,sans-Serif" font-size="10.00" fill="#000000">llvm/IR/Intrinsics.h</text>
</a>
</g>
</g>
<!-- Node14&#45;&gt;Node18 -->
<g id="edge23" class="edge">
<title>Node14&#45;&gt;Node18</title>
<path fill="none" stroke="#191970" d="M970.4578,-112.3733C995.2407,-103.1822 1032.7746,-89.2624 1060.254,-79.0713"/>
<polygon fill="#191970" stroke="#191970" points="1061.7219,-82.26 1069.8809,-75.5011 1059.2879,-75.6968 1061.7219,-82.26"/>
</g>
<!-- Node19&#45;&gt;Node3 -->
<g id="edge26" class="edge">
<title>Node19&#45;&gt;Node3</title>
<path fill="none" stroke="#191970" d="M1438.7327,-112.4509C1437.2648,-94.184 1434.0321,-53.9553 1432.0828,-29.6976"/>
<polygon fill="#191970" stroke="#191970" points="1435.5552,-29.2124 1431.2654,-19.5249 1428.5777,-29.7731 1435.5552,-29.2124"/>
</g>
<!-- Node20 -->
<g id="node21" class="node">
<title>Node20</title>
<g id="a_node21"><a xlink:title=" ">
<polygon fill="none" stroke="#bfbfbf" points="1458.5,-56.5 1458.5,-75.5 1496.5,-75.5 1496.5,-56.5 1458.5,-56.5"/>
<text text-anchor="middle" x="1477.5" y="-63.5" font-family="Helvetica,sans-Serif" font-size="10.00" fill="#000000">map</text>
</a>
</g>
</g>
<!-- Node19&#45;&gt;Node20 -->
<g id="edge27" class="edge">
<title>Node19&#45;&gt;Node20</title>
<path fill="none" stroke="#191970" d="M1446.1191,-112.2455C1451.4046,-104.4564 1458.9541,-93.3308 1465.3238,-83.9439"/>
<polygon fill="#191970" stroke="#191970" points="1468.2379,-85.8827 1470.9568,-75.6427 1462.4455,-81.9522 1468.2379,-85.8827"/>
</g>
<!-- Node21&#45;&gt;Node3 -->
<g id="edge33" class="edge">
<title>Node21&#45;&gt;Node3</title>
<path fill="none" stroke="#191970" d="M1545.4903,-112.0951C1538.146,-98.2854 1523.3713,-73.0291 1505.5,-56 1490.8477,-42.0382 1471.2713,-30.2062 1455.7931,-22.0396"/>
<polygon fill="#191970" stroke="#191970" points="1457.2654,-18.8616 1446.7661,-17.4421 1454.0885,-25.0993 1457.2654,-18.8616"/>
</g>
<!-- Node21&#45;&gt;Node4 -->
<g id="edge37" class="edge">
<title>Node21&#45;&gt;Node4</title>
<path fill="none" stroke="#191970" d="M1588.2795,-118.7441C1663.29,-111.8965 1825.2203,-95.0553 1841.5,-76 1856.5589,-58.3736 1833.2097,-38.2202 1812.0119,-24.8691"/>
<polygon fill="#191970" stroke="#191970" points="1813.5568,-21.7151 1803.1771,-19.5909 1809.9667,-27.7244 1813.5568,-21.7151"/>
</g>
<!-- Node21&#45;&gt;Node11 -->
<g id="edge32" class="edge">
<title>Node21&#45;&gt;Node11</title>
<path fill="none" stroke="#191970" d="M1512.8526,-115.2414C1506.7198,-114.1508 1500.4341,-113.0391 1494.5,-112 1425.805,-99.9712 1347.1477,-86.507 1292.9016,-77.2696"/>
<polygon fill="#191970" stroke="#191970" points="1293.1722,-73.7654 1282.7267,-75.5378 1291.9976,-80.6662 1293.1722,-73.7654"/>
</g>
<!-- Node21&#45;&gt;Node20 -->
<g id="edge35" class="edge">
<title>Node21&#45;&gt;Node20</title>
<path fill="none" stroke="#191970" d="M1537.7844,-112.2455C1526.898,-103.8943 1511.0117,-91.7076 1498.28,-81.9408"/>
<polygon fill="#191970" stroke="#191970" points="1500.1346,-78.9523 1490.0699,-75.6427 1495.8739,-84.5063 1500.1346,-78.9523"/>
</g>
<!-- Node22 -->
<g id="node23" class="node">
<title>Node22</title>
<g id="a_node23"><a xlink:href="../../df/d2f/Graph__Edge_8hpp.html" target="_top" xlink:title=" ">
<polygon fill="none" stroke="#000000" points="1736.5,-56.5 1736.5,-75.5 1832.5,-75.5 1832.5,-56.5 1736.5,-56.5"/>
<text text-anchor="middle" x="1784.5" y="-63.5" font-family="Helvetica,sans-Serif" font-size="10.00" fill="#000000">Graph_Edge.hpp</text>
</a>
</g>
</g>
<!-- Node21&#45;&gt;Node22 -->
<g id="edge29" class="edge">
<title>Node21&#45;&gt;Node22</title>
<path fill="none" stroke="#191970" d="M1588.0961,-113.0026C1627.8883,-103.4797 1690.8821,-88.4043 1734.7616,-77.9032"/>
<polygon fill="#191970" stroke="#191970" points="1735.7369,-81.2687 1744.6477,-75.5373 1734.1077,-74.4609 1735.7369,-81.2687"/>
</g>
<!-- Node23 -->
<g id="node24" class="node">
<title>Node23</title>
<g id="a_node24"><a xlink:title=" ">
<polygon fill="none" stroke="#bfbfbf" points="1603,-56.5 1603,-75.5 1718,-75.5 1718,-56.5 1603,-56.5"/>
<text text-anchor="middle" x="1660.5" y="-63.5" font-family="Helvetica,sans-Serif" font-size="10.00" fill="#000000">llvm/IR/Instruction.h</text>
</a>
</g>
</g>
<!-- Node21&#45;&gt;Node23 -->
<g id="edge34" class="edge">
<title>Node21&#45;&gt;Node23</title>
<path fill="none" stroke="#191970" d="M1569.6605,-112.2455C1587.0111,-103.4125 1612.7901,-90.2887 1632.4583,-80.2758"/>
<polygon fill="#191970" stroke="#191970" points="1634.2353,-83.2986 1641.559,-75.6427 1631.0595,-77.0605 1634.2353,-83.2986"/>
</g>
<!-- Node24 -->
<g id="node25" class="node">
<title>Node24</title>
<g id="a_node25"><a xlink:title=" ">
<polygon fill="none" stroke="#bfbfbf" points="1552.5,-56.5 1552.5,-75.5 1584.5,-75.5 1584.5,-56.5 1552.5,-56.5"/>
<text text-anchor="middle" x="1568.5" y="-63.5" font-family="Helvetica,sans-Serif" font-size="10.00" fill="#000000">set</text>
</a>
</g>
</g>
<!-- Node21&#45;&gt;Node24 -->
<g id="edge36" class="edge">
<title>Node21&#45;&gt;Node24</title>
<path fill="none" stroke="#191970" d="M1553.6354,-112.2455C1556.01,-104.8579 1559.3493,-94.4689 1562.2615,-85.4087"/>
<polygon fill="#191970" stroke="#191970" points="1565.6725,-86.234 1565.4006,-75.6427 1559.0083,-84.0919 1565.6725,-86.234"/>
</g>
<!-- Node22&#45;&gt;Node3 -->
<g id="edge30" class="edge">
<title>Node22&#45;&gt;Node3</title>
<path fill="none" stroke="#191970" d="M1736.3095,-57.4757C1733.3295,-56.9702 1730.3747,-56.4747 1727.5,-56 1627.5322,-39.491 1508.3336,-21.5597 1456.5995,-13.8629"/>
<polygon fill="#191970" stroke="#191970" points="1457.021,-10.3872 1446.6153,-12.3801 1455.9926,-17.3113 1457.021,-10.3872"/>
</g>
<!-- Node22&#45;&gt;Node4 -->
<g id="edge31" class="edge">
<title>Node22&#45;&gt;Node4</title>
<path fill="none" stroke="#191970" d="M1784.5,-56.2455C1784.5,-48.9382 1784.5,-38.6944 1784.5,-29.7046"/>
<polygon fill="#191970" stroke="#191970" points="1788.0001,-29.6426 1784.5,-19.6427 1781.0001,-29.6427 1788.0001,-29.6426"/>
</g>
<!-- Node25&#45;&gt;Node3 -->
<g id="edge40" class="edge">
<title>Node25&#45;&gt;Node3</title>
<path fill="none" stroke="#191970" d="M2026.1172,-112.4717C1976.867,-96.0619 1877.4059,-63.5018 1841.5,-56 1698.3249,-26.0864 1522.7563,-14.6521 1457.0127,-11.2293"/>
<polygon fill="#191970" stroke="#191970" points="1456.8957,-7.7191 1446.7329,-10.7136 1456.545,-14.7103 1456.8957,-7.7191"/>
</g>
<!-- Node25&#45;&gt;Node6 -->
<g id="edge39" class="edge">
<title>Node25&#45;&gt;Node6</title>
<path fill="none" stroke="#191970" d="M2017.6592,-119.3388C1923.212,-112.4859 1664.7292,-93.5395 1449.5,-76 1424.6693,-73.9765 1396.8366,-71.5602 1374.7726,-69.6097"/>
<polygon fill="#191970" stroke="#191970" points="1375.0287,-66.1187 1364.7586,-68.7214 1374.4102,-73.0914 1375.0287,-66.1187"/>
</g>
<!-- Node26 -->
<g id="node27" class="node">
<title>Node26</title>
<g id="a_node27"><a xlink:title=" ">
<polygon fill="none" stroke="#bfbfbf" points="1926.5,-56.5 1926.5,-75.5 2052.5,-75.5 2052.5,-56.5 1926.5,-56.5"/>
<text text-anchor="middle" x="1989.5" y="-63.5" font-family="Helvetica,sans-Serif" font-size="10.00" fill="#000000">llvm/IR/LLVMContext.h</text>
</a>
</g>
</g>
<!-- Node25&#45;&gt;Node26 -->
<g id="edge41" class="edge">
<title>Node25&#45;&gt;Node26</title>
<path fill="none" stroke="#191970" d="M2043.1779,-112.2455C2033.5777,-103.9746 2019.6108,-91.9416 2008.3305,-82.2232"/>
<polygon fill="#191970" stroke="#191970" points="2010.553,-79.5182 2000.6924,-75.6427 2005.984,-84.8214 2010.553,-79.5182"/>
</g>
<!-- Node27 -->
<g id="node28" class="node">
<title>Node27</title>
<g id="a_node28"><a xlink:title=" ">
<polygon fill="none" stroke="#bfbfbf" points="2070.5,-56.5 2070.5,-75.5 2168.5,-75.5 2168.5,-56.5 2070.5,-56.5"/>
<text text-anchor="middle" x="2119.5" y="-63.5" font-family="Helvetica,sans-Serif" font-size="10.00" fill="#000000">llvm/IR/Module.h</text>
</a>
</g>
</g>
<!-- Node25&#45;&gt;Node27 -->
<g id="edge42" class="edge">
<title>Node25&#45;&gt;Node27</title>
<path fill="none" stroke="#191970" d="M2065.8221,-112.2455C2075.4223,-103.9746 2089.3892,-91.9416 2100.6695,-82.2232"/>
<polygon fill="#191970" stroke="#191970" points="2103.016,-84.8214 2108.3076,-75.6427 2098.447,-79.5182 2103.016,-84.8214"/>
</g>
<!-- Node28 -->
<g id="node29" class="node">
<title>Node28</title>
<g id="a_node29"><a xlink:title=" ">
<polygon fill="none" stroke="#bfbfbf" points="2187,-56.5 2187,-75.5 2284,-75.5 2284,-56.5 2187,-56.5"/>
<text text-anchor="middle" x="2235.5" y="-63.5" font-family="Helvetica,sans-Serif" font-size="10.00" fill="#000000">llvm/IR/Verifier.h</text>
</a>
</g>
</g>
<!-- Node25&#45;&gt;Node28 -->
<g id="edge43" class="edge">
<title>Node25&#45;&gt;Node28</title>
<path fill="none" stroke="#191970" d="M2085.615,-112.3733C2115.8429,-103.021 2161.896,-88.7725 2194.9739,-78.5385"/>
<polygon fill="#191970" stroke="#191970" points="2196.2723,-81.8005 2204.791,-75.5011 2194.2033,-75.1133 2196.2723,-81.8005"/>
</g>
<!-- Node29 -->
<g id="node30" class="node">
<title>Node29</title>
<g id="a_node30"><a xlink:title=" ">
<polygon fill="none" stroke="#bfbfbf" points="2302.5,-56.5 2302.5,-75.5 2442.5,-75.5 2442.5,-56.5 2302.5,-56.5"/>
<text text-anchor="middle" x="2372.5" y="-63.5" font-family="Helvetica,sans-Serif" font-size="10.00" fill="#000000">llvm/IRReader/IRReader.h</text>
</a>
</g>
</g>
<!-- Node25&#45;&gt;Node29 -->
<g id="edge44" class="edge">
<title>Node25&#45;&gt;Node29</title>
<path fill="none" stroke="#191970" d="M2091.1267,-113.8768C2094.2932,-113.2234 2097.4508,-112.5889 2100.5,-112 2168.452,-98.8754 2246.3576,-85.9107 2301.328,-77.1073"/>
<polygon fill="#191970" stroke="#191970" points="2301.9944,-80.5453 2311.3177,-75.5129 2300.891,-73.6328 2301.9944,-80.5453"/>
</g>
<!-- Node30 -->
<g id="node31" class="node">
<title>Node30</title>
<g id="a_node31"><a xlink:title=" ">
<polygon fill="none" stroke="#bfbfbf" points="2461,-56.5 2461,-75.5 2602,-75.5 2602,-56.5 2461,-56.5"/>
<text text-anchor="middle" x="2531.5" y="-63.5" font-family="Helvetica,sans-Serif" font-size="10.00" fill="#000000">llvm/Support/SourceMgr.h</text>
</a>
</g>
</g>
<!-- Node25&#45;&gt;Node30 -->
<g id="edge45" class="edge">
<title>Node25&#45;&gt;Node30</title>
<path fill="none" stroke="#191970" d="M2091.0884,-113.6595C2094.2632,-113.0533 2097.4331,-112.4891 2100.5,-112 2252.1859,-87.8114 2293.9846,-93.4763 2450.8345,-76.0444"/>
<polygon fill="#191970" stroke="#191970" points="2451.294,-79.5149 2460.8399,-74.9187 2450.5112,-72.5588 2451.294,-79.5149"/>
</g>
<!-- Node31 -->
<g id="node32" class="node">
<title>Node31</title>
<g id="a_node32"><a xlink:title=" ">
<polygon fill="none" stroke="#bfbfbf" points="2620,-56.5 2620,-75.5 2775,-75.5 2775,-56.5 2620,-56.5"/>
<text text-anchor="middle" x="2697.5" y="-63.5" font-family="Helvetica,sans-Serif" font-size="10.00" fill="#000000">llvm/Support/raw_ostream.h</text>
</a>
</g>
</g>
<!-- Node25&#45;&gt;Node31 -->
<g id="edge46" class="edge">
<title>Node25&#45;&gt;Node31</title>
<path fill="none" stroke="#191970" d="M2091.0723,-113.5531C2094.2506,-112.9699 2097.4257,-112.4401 2100.5,-112 2322.5747,-80.207 2383.0485,-96.6541 2609.4908,-76.1462"/>
<polygon fill="#191970" stroke="#191970" points="2610.0637,-79.6084 2619.7009,-75.2068 2609.4223,-72.6378 2610.0637,-79.6084"/>
</g>
</g>
</svg>
        <g id="navigator" transform="translate(0 0)" fill="#404254">
                <rect fill="#f2f5e9" fill-opacity="0.5" stroke="#606060" stroke-width=".5" x="0" y="0" width="60" height="60"/>
                <use id="zoomplus" xlink:href="#zoomPlus" x="17" y="9" onmousedown="handleZoom(evt,'in')"/>
                <use id="zoomminus" xlink:href="#zoomMin" x="42" y="9" onmousedown="handleZoom(evt,'out')"/>
                <use id="reset" xlink:href="#resetDef" x="30" y="36" onmousedown="handleReset()"/>
                <g id="arrowUp" xlink:href="#dirArrow" transform="translate(30 24)" onmousedown="handlePan(0,-1)">
                  <use xlink:href="#rim" fill="#404040">
                        <set attributeName="fill" to="#808080" begin="arrowUp.mouseover" end="arrowUp.mouseout"/>
                  </use>
                  <path fill="none" stroke="white" stroke-width="1.5" d="M0,-3.0v7 M-2.5,-0.5L0,-3.0L2.5,-0.5"/>
                </g>
                <g id="arrowRight" xlink:href="#dirArrow" transform="rotate(90) translate(36 -43)" onmousedown="handlePan(1,0)">
                  <use xlink:href="#rim" fill="#404040">
                        <set attributeName="fill" to="#808080" begin="arrowRight.mouseover" end="arrowRight.mouseout"/>
                  </use>
                  <path fill="none" stroke="white" stroke-width="1.5" d="M0,-3.0v7 M-2.5,-0.5L0,-3.0L2.5,-0.5"/>
                </g>
                <g id="arrowDown" xlink:href="#dirArrow" transform="rotate(180) translate(-30 -48)" onmousedown="handlePan(0,1)">
                  <use xlink:href="#rim" fill="#404040">
                        <set attributeName="fill" to="#808080" begin="arrowDown.mouseover" end="arrowDown.mouseout"/>
                  </use>
                  <path fill="none" stroke="white" stroke-width="1.5" d="M0,-3.0v7 M-2.5,-0.5L0,-3.0L2.5,-0.5"/>
                </g>
                <g id="arrowLeft" xlink:href="#dirArrow" transform="rotate(270) translate(-36 17)" onmousedown="handlePan(-1,0)">
                  <use xlink:href="#rim" fill="#404040">
                        <set attributeName="fill" to="#808080" begin="arrowLeft.mouseover" end="arrowLeft.mouseout"/>
                  </use>
                  <path fill="none" stroke="white" stroke-width="1.5" d="M0,-3.0v7 M-2.5,-0.5L0,-3.0L2.5,-0.5"/>
                </g>
        </g>
        <svg viewBox="0 0 15 15" width="100%" height="30px" preserveAspectRatio="xMaxYMin meet">
         <g id="arrow_out" transform="scale(0.3 0.3)">
          <a xlink:href="Hydrogen_8cpp__incl_org.svg" target="_base">
           <rect id="button" ry="5" rx="5" y="6" x="6" height="38" width="38"
                fill="#f2f5e9" fill-opacity="0.5" stroke="#606060" stroke-width="1.0"/>
           <path id="arrow"
             d="M 11.500037,31.436501 C 11.940474,20.09759 22.043105,11.32322 32.158766,21.979434 L 37.068811,17.246167 C 37.068811,17.246167 37.088388,32 37.088388,32 L 22.160133,31.978069 C 22.160133,31.978069 26.997745,27.140456 26.997745,27.140456 C 18.528582,18.264221 13.291696,25.230495 11.500037,31.436501 z"
             style="fill:#404040;"/>
          </a>
         </g>
        </svg>
</svg>
