<?xml version="1.0" encoding="UTF-8" standalone="no"?>
<!DOCTYPE svg PUBLIC "-//W3C//DTD SVG 1.1//EN"
 "http://www.w3.org/Graphics/SVG/1.1/DTD/svg11.dtd">
<!-- Generated by graphviz version 2.40.1 (20161225.0304)
 -->
<!-- Title: Graph_Function.cpp Pages: 1 -->
<svg width="232pt" height="140pt"
 viewBox="0.00 0.00 231.50 140.00" xmlns="http://www.w3.org/2000/svg" xmlns:xlink="http://www.w3.org/1999/xlink">
<g id="graph0" class="graph" transform="scale(1 1) rotate(0) translate(4 136)">
<title>Graph_Function.cpp</title>
<!-- Node0 -->
<g id="node1" class="node">
<title>Node0</title>
<g id="a_node1"><a xlink:title=" ">
<polygon fill="#bfbfbf" stroke="#000000" points="60.5,-112.5 60.5,-131.5 172.5,-131.5 172.5,-112.5 60.5,-112.5"/>
<text text-anchor="middle" x="116.5" y="-119.5" font-family="Helvetica,sans-Serif" font-size="10.00" fill="#000000">Graph_Function.cpp</text>
</a>
</g>
</g>
<!-- Node1 -->
<g id="node2" class="node">
<title>Node1</title>
<g id="a_node2"><a xlink:href="../../d6/dba/Graph__Function_8hpp.html" target="_top" xlink:title=" ">
<polygon fill="none" stroke="#000000" points="0,-56.5 0,-75.5 113,-75.5 113,-56.5 0,-56.5"/>
<text text-anchor="middle" x="56.5" y="-63.5" font-family="Helvetica,sans-Serif" font-size="10.00" fill="#000000">Graph_Function.hpp</text>
</a>
</g>
</g>
<!-- Node0&#45;&gt;Node1 -->
<g id="edge1" class="edge">
<title>Node0&#45;&gt;Node1</title>
<path fill="none" stroke="#191970" d="M106.0488,-112.2455C97.2731,-104.0549 84.5446,-92.1749 74.186,-82.5069"/>
<polygon fill="#191970" stroke="#191970" points="76.5301,-79.9072 66.8314,-75.6427 71.7539,-85.0246 76.5301,-79.9072"/>
</g>
<!-- Node4 -->
<g id="node5" class="node">
<title>Node4</title>
<g id="a_node5"><a xlink:href="../../df/ddd/Graph__Line_8hpp.html" target="_top" xlink:title=" ">
<polygon fill="none" stroke="#000000" points="131.5,-56.5 131.5,-75.5 223.5,-75.5 223.5,-56.5 131.5,-56.5"/>
<text text-anchor="middle" x="177.5" y="-63.5" font-family="Helvetica,sans-Serif" font-size="10.00" fill="#000000">Graph_Line.hpp</text>
</a>
</g>
</g>
<!-- Node0&#45;&gt;Node4 -->
<g id="edge4" class="edge">
<title>Node0&#45;&gt;Node4</title>
<path fill="none" stroke="#191970" d="M127.1254,-112.2455C136.0473,-104.0549 148.988,-92.1749 159.5192,-82.5069"/>
<polygon fill="#191970" stroke="#191970" points="161.9968,-84.9837 166.9964,-75.6427 157.2629,-79.8271 161.9968,-84.9837"/>
</g>
<!-- Node2 -->
<g id="node3" class="node">
<title>Node2</title>
<g id="a_node3"><a xlink:title=" ">
<polygon fill="none" stroke="#bfbfbf" points="102.5,-.5 102.5,-19.5 134.5,-19.5 134.5,-.5 102.5,-.5"/>
<text text-anchor="middle" x="118.5" y="-7.5" font-family="Helvetica,sans-Serif" font-size="10.00" fill="#000000">list</text>
</a>
</g>
</g>
<!-- Node1&#45;&gt;Node2 -->
<g id="edge2" class="edge">
<title>Node1&#45;&gt;Node2</title>
<path fill="none" stroke="#191970" d="M67.2996,-56.2455C76.3678,-48.0549 89.5206,-36.1749 100.2245,-26.5069"/>
<polygon fill="#191970" stroke="#191970" points="102.7491,-28.9429 107.8242,-19.6427 98.0571,-23.7482 102.7491,-28.9429"/>
</g>
<!-- Node3 -->
<g id="node4" class="node">
<title>Node3</title>
<g id="a_node4"><a xlink:title=" ">
<polygon fill="none" stroke="#bfbfbf" points="34.5,-.5 34.5,-19.5 78.5,-19.5 78.5,-.5 34.5,-.5"/>
<text text-anchor="middle" x="56.5" y="-7.5" font-family="Helvetica,sans-Serif" font-size="10.00" fill="#000000">string</text>
</a>
</g>
</g>
<!-- Node1&#45;&gt;Node3 -->
<g id="edge3" class="edge">
<title>Node1&#45;&gt;Node3</title>
<path fill="none" stroke="#191970" d="M56.5,-56.2455C56.5,-48.9382 56.5,-38.6944 56.5,-29.7046"/>
<polygon fill="#191970" stroke="#191970" points="60.0001,-29.6426 56.5,-19.6427 53.0001,-29.6427 60.0001,-29.6426"/>
</g>
<!-- Node4&#45;&gt;Node2 -->
<g id="edge5" class="edge">
<title>Node4&#45;&gt;Node2</title>
<path fill="none" stroke="#191970" d="M167.223,-56.2455C158.6782,-48.1352 146.3222,-36.4075 136.1915,-26.7919"/>
<polygon fill="#191970" stroke="#191970" points="138.3218,-23.9884 128.6592,-19.6427 133.5028,-29.0655 138.3218,-23.9884"/>
</g>
<!-- Node5 -->
<g id="node6" class="node">
<title>Node5</title>
<g id="a_node6"><a xlink:title=" ">
<polygon fill="none" stroke="#bfbfbf" points="158.5,-.5 158.5,-19.5 196.5,-19.5 196.5,-.5 158.5,-.5"/>
<text text-anchor="middle" x="177.5" y="-7.5" font-family="Helvetica,sans-Serif" font-size="10.00" fill="#000000">map</text>
</a>
</g>
</g>
<!-- Node4&#45;&gt;Node5 -->
<g id="edge6" class="edge">
<title>Node4&#45;&gt;Node5</title>
<path fill="none" stroke="#191970" d="M177.5,-56.2455C177.5,-48.9382 177.5,-38.6944 177.5,-29.7046"/>
<polygon fill="#191970" stroke="#191970" points="181.0001,-29.6426 177.5,-19.6427 174.0001,-29.6427 181.0001,-29.6426"/>
</g>
</g>
</svg>
