<?xml version="1.0" encoding="UTF-8" standalone="no"?>
<!DOCTYPE svg PUBLIC "-//W3C//DTD SVG 1.1//EN"
 "http://www.w3.org/Graphics/SVG/1.1/DTD/svg11.dtd">
<!-- Generated by graphviz version 2.40.1 (20161225.0304)
 -->
<!-- Title: Graph_Instruction.hpp Pages: 1 -->
<svg width="390pt" height="84pt"
 viewBox="0.00 0.00 390.00 84.00" xmlns="http://www.w3.org/2000/svg" xmlns:xlink="http://www.w3.org/1999/xlink">
<g id="graph0" class="graph" transform="scale(1 1) rotate(0) translate(4 80)">
<title>Graph_Instruction.hpp</title>
<!-- Node4 -->
<g id="node1" class="node">
<title>Node4</title>
<g id="a_node1"><a xlink:title=" ">
<polygon fill="#bfbfbf" stroke="#000000" points="126,-56.5 126,-75.5 250,-75.5 250,-56.5 126,-56.5"/>
<text text-anchor="middle" x="188" y="-63.5" font-family="Helvetica,sans-Serif" font-size="10.00" fill="#000000">Graph_Instruction.hpp</text>
</a>
</g>
</g>
<!-- Node5 -->
<g id="node2" class="node">
<title>Node5</title>
<g id="a_node2"><a xlink:href="../../dd/dea/Graph_8cpp.html" target="_top" xlink:title=" ">
<polygon fill="none" stroke="#000000" points="0,-.5 0,-19.5 66,-19.5 66,-.5 0,-.5"/>
<text text-anchor="middle" x="33" y="-7.5" font-family="Helvetica,sans-Serif" font-size="10.00" fill="#000000">Graph.cpp</text>
</a>
</g>
</g>
<!-- Node4&#45;&gt;Node5 -->
<g id="edge1" class="edge">
<title>Node4&#45;&gt;Node5</title>
<path fill="none" stroke="#191970" d="M151.8051,-52.9231C123.4703,-42.686 84.7282,-28.6889 59.2978,-19.5011"/>
<polygon fill="#191970" stroke="#191970" points="150.7602,-56.267 161.3546,-56.3733 153.1388,-49.6835 150.7602,-56.267"/>
</g>
<!-- Node6 -->
<g id="node3" class="node">
<title>Node6</title>
<g id="a_node3"><a xlink:href="../../d2/d0d/Graph__Edge_8cpp.html" target="_top" xlink:title=" ">
<polygon fill="none" stroke="#000000" points="84.5,-.5 84.5,-19.5 179.5,-19.5 179.5,-.5 84.5,-.5"/>
<text text-anchor="middle" x="132" y="-7.5" font-family="Helvetica,sans-Serif" font-size="10.00" fill="#000000">Graph_Edge.cpp</text>
</a>
</g>
</g>
<!-- Node4&#45;&gt;Node6 -->
<g id="edge2" class="edge">
<title>Node4&#45;&gt;Node6</title>
<path fill="none" stroke="#191970" d="M171.0751,-49.0751C161.4402,-39.4402 149.7196,-27.7196 141.6427,-19.6427"/>
<polygon fill="#191970" stroke="#191970" points="168.6996,-51.6493 178.2455,-56.2455 173.6493,-46.6996 168.6996,-51.6493"/>
</g>
<!-- Node7 -->
<g id="node4" class="node">
<title>Node7</title>
<g id="a_node4"><a xlink:href="../../d2/d14/Graph__Line_8cpp.html" target="_top" xlink:title=" ">
<polygon fill="none" stroke="#000000" points="198,-.5 198,-19.5 290,-19.5 290,-.5 198,-.5"/>
<text text-anchor="middle" x="244" y="-7.5" font-family="Helvetica,sans-Serif" font-size="10.00" fill="#000000">Graph_Line.cpp</text>
</a>
</g>
</g>
<!-- Node4&#45;&gt;Node7 -->
<g id="edge3" class="edge">
<title>Node4&#45;&gt;Node7</title>
<path fill="none" stroke="#191970" d="M204.9249,-49.0751C214.5598,-39.4402 226.2804,-27.7196 234.3573,-19.6427"/>
<polygon fill="#191970" stroke="#191970" points="202.3507,-46.6996 197.7545,-56.2455 207.3004,-51.6493 202.3507,-46.6996"/>
</g>
<!-- Node8 -->
<g id="node5" class="node">
<title>Node8</title>
<g id="a_node5"><a xlink:href="../../db/d17/MVICFG_8cpp.html" target="_top" xlink:title=" ">
<polygon fill="none" stroke="#000000" points="308,-.5 308,-19.5 382,-19.5 382,-.5 308,-.5"/>
<text text-anchor="middle" x="345" y="-7.5" font-family="Helvetica,sans-Serif" font-size="10.00" fill="#000000">MVICFG.cpp</text>
</a>
</g>
</g>
<!-- Node4&#45;&gt;Node8 -->
<g id="edge4" class="edge">
<title>Node4&#45;&gt;Node8</title>
<path fill="none" stroke="#191970" d="M224.6619,-52.9231C253.3624,-42.686 292.6044,-28.6889 318.3629,-19.5011"/>
<polygon fill="#191970" stroke="#191970" points="223.2322,-49.7171 214.9893,-56.3733 225.5839,-56.3102 223.2322,-49.7171"/>
</g>
</g>
</svg>
