<?xml version="1.0" encoding="UTF-8" standalone="no"?>
<!DOCTYPE svg PUBLIC "-//W3C//DTD SVG 1.1//EN"
 "http://www.w3.org/Graphics/SVG/1.1/DTD/svg11.dtd">
<!-- Generated by graphviz version 2.40.1 (20161225.0304)
 -->
<!-- Title: hydrogen_framework::Graph::getGraphFunctions Pages: 1 -->
<svg width="600pt" height="371pt"
 viewBox="0.00 0.00 600.00 371.33" xmlns="http://www.w3.org/2000/svg" xmlns:xlink="http://www.w3.org/1999/xlink">
<g id="graph0" class="graph" transform="scale(1 1) rotate(0) translate(4 367.3284)">
<title>hydrogen_framework::Graph::getGraphFunctions</title>
<!-- Node95 -->
<g id="node1" class="node">
<title>Node95</title>
<g id="a_node1"><a xlink:title=" ">
<polygon fill="#bfbfbf" stroke="#000000" points="443,-153.5 443,-183.5 592,-183.5 592,-153.5 443,-153.5"/>
<text text-anchor="start" x="451" y="-171.5" font-family="Helvetica,sans-Serif" font-size="10.00" fill="#000000">hydrogen_framework</text>
<text text-anchor="middle" x="517.5" y="-160.5" font-family="Helvetica,sans-Serif" font-size="10.00" fill="#000000">::Graph::getGraphFunctions</text>
</a>
</g>
</g>
<!-- Node96 -->
<g id="node2" class="node">
<title>Node96</title>
<g id="a_node2"><a xlink:href="../../db/d17/MVICFG_8cpp.html#a40d68c502d0833e919395ded787b4599" target="_top" xlink:title=" ">
<polygon fill="none" stroke="#000000" points="86,-287.5 86,-317.5 207,-317.5 207,-287.5 86,-287.5"/>
<text text-anchor="start" x="94" y="-305.5" font-family="Helvetica,sans-Serif" font-size="10.00" fill="#000000">hydrogen_framework</text>
<text text-anchor="middle" x="146.5" y="-294.5" font-family="Helvetica,sans-Serif" font-size="10.00" fill="#000000">::addToMVICFG</text>
</a>
</g>
</g>
<!-- Node95&#45;&gt;Node96 -->
<g id="edge1" class="edge">
<title>Node95&#45;&gt;Node96</title>
<path fill="none" stroke="#191970" d="M510.6036,-193.1496C497.8095,-233.5619 466.1608,-312.6906 407,-345.5 330.4358,-387.9609 223.1109,-343.126 173.5459,-317.6209"/>
<polygon fill="#191970" stroke="#191970" points="513.9673,-194.1178 513.5218,-183.5323 507.2689,-192.0852 513.9673,-194.1178"/>
</g>
<!-- Node98 -->
<g id="node4" class="node">
<title>Node98</title>
<g id="a_node4"><a xlink:href="../../db/d17/MVICFG_8cpp.html#ac6a97f6b1392ad5517822076e830168f" target="_top" xlink:title=" ">
<polygon fill="none" stroke="#000000" points="86,-153.5 86,-183.5 207,-183.5 207,-153.5 86,-153.5"/>
<text text-anchor="start" x="94" y="-171.5" font-family="Helvetica,sans-Serif" font-size="10.00" fill="#000000">hydrogen_framework</text>
<text text-anchor="middle" x="146.5" y="-160.5" font-family="Helvetica,sans-Serif" font-size="10.00" fill="#000000">::deleteFromMVICFG</text>
</a>
</g>
</g>
<!-- Node95&#45;&gt;Node98 -->
<g id="edge4" class="edge">
<title>Node95&#45;&gt;Node98</title>
<path fill="none" stroke="#191970" d="M449.3858,-151.3224C435.4521,-148.483 420.822,-145.9837 407,-144.5 338.5046,-137.1473 320.4585,-136.8115 252,-144.5 235.5734,-146.3449 217.9738,-149.7573 201.9486,-153.4416"/>
<polygon fill="#191970" stroke="#191970" points="448.8788,-154.7926 459.387,-153.4404 450.3291,-147.9444 448.8788,-154.7926"/>
</g>
<!-- Node99 -->
<g id="node5" class="node">
<title>Node99</title>
<g id="a_node5"><a xlink:href="../../db/d17/MVICFG_8cpp.html#aca7226f27a892ce8314159fbd4eaeeb1" target="_top" xlink:title=" ">
<polygon fill="none" stroke="#000000" points="269,-220.5 269,-250.5 390,-250.5 390,-220.5 269,-220.5"/>
<text text-anchor="start" x="277" y="-238.5" font-family="Helvetica,sans-Serif" font-size="10.00" fill="#000000">hydrogen_framework</text>
<text text-anchor="middle" x="329.5" y="-227.5" font-family="Helvetica,sans-Serif" font-size="10.00" fill="#000000">::findMatchedLine</text>
</a>
</g>
</g>
<!-- Node95&#45;&gt;Node99 -->
<g id="edge7" class="edge">
<title>Node95&#45;&gt;Node99</title>
<path fill="none" stroke="#191970" d="M471.3027,-187.318C451.6053,-195.1222 428.2963,-204.0693 407,-211.5 398.3557,-214.5162 389.1047,-217.5479 380.1125,-220.3929"/>
<polygon fill="#191970" stroke="#191970" points="472.6636,-190.5434 480.6576,-183.5903 470.0724,-184.0407 472.6636,-190.5434"/>
</g>
<!-- Node101 -->
<g id="node7" class="node">
<title>Node101</title>
<g id="a_node7"><a xlink:href="../../db/d17/MVICFG_8cpp.html#af4e85a6116ecbc77986b2e11a8077e9d" target="_top" xlink:title=" ">
<polygon fill="none" stroke="#000000" points="258.5,-287.5 258.5,-317.5 400.5,-317.5 400.5,-287.5 258.5,-287.5"/>
<text text-anchor="start" x="266.5" y="-305.5" font-family="Helvetica,sans-Serif" font-size="10.00" fill="#000000">hydrogen_framework</text>
<text text-anchor="middle" x="329.5" y="-294.5" font-family="Helvetica,sans-Serif" font-size="10.00" fill="#000000">::getGraphLinesGivenLine</text>
</a>
</g>
</g>
<!-- Node95&#45;&gt;Node101 -->
<g id="edge14" class="edge">
<title>Node95&#45;&gt;Node101</title>
<path fill="none" stroke="#191970" d="M499.8981,-191.7706C479.9392,-216.6236 445.1748,-255.5275 407,-278.5 401.3278,-281.9134 395.1261,-284.8824 388.7805,-287.4551"/>
<polygon fill="#191970" stroke="#191970" points="502.8837,-193.6364 506.3216,-183.6149 497.3846,-189.3052 502.8837,-193.6364"/>
</g>
<!-- Node102 -->
<g id="node8" class="node">
<title>Node102</title>
<g id="a_node8"><a xlink:href="../../db/d17/MVICFG_8cpp.html#ae8aa13258ce9819a72598738dcf54fb2" target="_top" xlink:title=" ">
<polygon fill="none" stroke="#000000" points="252,-37 252,-78 407,-78 407,-37 252,-37"/>
<text text-anchor="start" x="260" y="-66" font-family="Helvetica,sans-Serif" font-size="10.00" fill="#000000">hydrogen_framework</text>
<text text-anchor="start" x="260" y="-55" font-family="Helvetica,sans-Serif" font-size="10.00" fill="#000000">::getMatchedInstructionFrom</text>
<text text-anchor="middle" x="329.5" y="-44" font-family="Helvetica,sans-Serif" font-size="10.00" fill="#000000">Graph</text>
</a>
</g>
</g>
<!-- Node95&#45;&gt;Node102 -->
<g id="edge19" class="edge">
<title>Node95&#45;&gt;Node102</title>
<path fill="none" stroke="#191970" d="M482.7391,-147.9763C449.0688,-128.0965 398.2829,-98.1112 364.5239,-78.179"/>
<polygon fill="#191970" stroke="#191970" points="481.363,-151.2283 491.7536,-153.2987 484.922,-145.2005 481.363,-151.2283"/>
</g>
<!-- Node104 -->
<g id="node10" class="node">
<title>Node104</title>
<g id="a_node10"><a xlink:href="../../db/d17/MVICFG_8cpp.html#a1d4ae9543ae0c613fedc7d032745b2c1" target="_top" xlink:title=" ">
<polygon fill="none" stroke="#000000" points="269,-153.5 269,-183.5 390,-183.5 390,-153.5 269,-153.5"/>
<text text-anchor="start" x="277" y="-171.5" font-family="Helvetica,sans-Serif" font-size="10.00" fill="#000000">hydrogen_framework</text>
<text text-anchor="middle" x="329.5" y="-160.5" font-family="Helvetica,sans-Serif" font-size="10.00" fill="#000000">::getNewlyAdded</text>
</a>
</g>
</g>
<!-- Node95&#45;&gt;Node104 -->
<g id="edge24" class="edge">
<title>Node95&#45;&gt;Node104</title>
<path fill="none" stroke="#191970" d="M432.5671,-168.5C418.2437,-168.5 403.6369,-168.5 390.0937,-168.5"/>
<polygon fill="#191970" stroke="#191970" points="432.9274,-172.0001 442.9274,-168.5 432.9274,-165.0001 432.9274,-172.0001"/>
</g>
<!-- Node105 -->
<g id="node11" class="node">
<title>Node105</title>
<g id="a_node11"><a xlink:href="../../db/d17/MVICFG_8cpp.html#a2ebefd41917d6565942bb86ec72f6adc" target="_top" xlink:title=" ">
<polygon fill="none" stroke="#000000" points="81.5,-.5 81.5,-30.5 211.5,-30.5 211.5,-.5 81.5,-.5"/>
<text text-anchor="start" x="89.5" y="-18.5" font-family="Helvetica,sans-Serif" font-size="10.00" fill="#000000">hydrogen_framework</text>
<text text-anchor="middle" x="146.5" y="-7.5" font-family="Helvetica,sans-Serif" font-size="10.00" fill="#000000">::updateMVICFGVersion</text>
</a>
</g>
</g>
<!-- Node95&#45;&gt;Node105 -->
<g id="edge27" class="edge">
<title>Node95&#45;&gt;Node105</title>
<path fill="none" stroke="#191970" d="M506.5768,-144.0633C490.2617,-110.8823 456.1002,-52.8165 407,-27.5 346.3388,3.7775 266.7882,2.3796 211.6301,-4.0567"/>
<polygon fill="#191970" stroke="#191970" points="503.6082,-145.9707 511.064,-153.4982 509.9297,-142.9642 503.6082,-145.9707"/>
</g>
<!-- Node96&#45;&gt;Node96 -->
<g id="edge2" class="edge">
<title>Node96&#45;&gt;Node96</title>
<path fill="none" stroke="#191970" d="M168.8887,-327.9579C166.1099,-332.679 158.647,-336 146.5,-336 126.5664,-336 119.247,-327.0566 124.5419,-317.659"/>
<polygon fill="#191970" stroke="#191970" points="172.3729,-327.504 168.4581,-317.659 165.379,-327.7965 172.3729,-327.504"/>
</g>
<!-- Node97 -->
<g id="node3" class="node">
<title>Node97</title>
<g id="a_node3"><a xlink:href="../../de/d64/Hydrogen_8cpp.html#a0ddf1224851353fc92bfbff6f499fa97" target="_top" xlink:title=" ">
<polygon fill="none" stroke="#000000" points="0,-159 0,-178 41,-178 41,-159 0,-159"/>
<text text-anchor="middle" x="20.5" y="-166" font-family="Helvetica,sans-Serif" font-size="10.00" fill="#000000">main</text>
</a>
</g>
</g>
<!-- Node96&#45;&gt;Node97 -->
<g id="edge3" class="edge">
<title>Node96&#45;&gt;Node97</title>
<path fill="none" stroke="#191970" d="M81.2497,-281.8677C79.7794,-280.8004 78.3592,-279.6787 77,-278.5 44.723,-250.5091 28.4858,-199.5663 22.8553,-178.2686"/>
<polygon fill="#191970" stroke="#191970" points="79.8047,-285.091 90.1437,-287.4053 83.5046,-279.1486 79.8047,-285.091"/>
</g>
<!-- Node98&#45;&gt;Node97 -->
<g id="edge6" class="edge">
<title>Node98&#45;&gt;Node97</title>
<path fill="none" stroke="#191970" d="M75.5335,-168.5C62.9053,-168.5 50.7111,-168.5 41.0245,-168.5"/>
<polygon fill="#191970" stroke="#191970" points="75.7145,-172.0001 85.7144,-168.5 75.7144,-165.0001 75.7145,-172.0001"/>
</g>
<!-- Node98&#45;&gt;Node98 -->
<g id="edge5" class="edge">
<title>Node98&#45;&gt;Node98</title>
<path fill="none" stroke="#191970" d="M168.8887,-193.9579C166.1099,-198.679 158.647,-202 146.5,-202 126.5664,-202 119.247,-193.0566 124.5419,-183.659"/>
<polygon fill="#191970" stroke="#191970" points="172.3729,-193.504 168.4581,-183.659 165.379,-193.7965 172.3729,-193.504"/>
</g>
<!-- Node99&#45;&gt;Node96 -->
<g id="edge8" class="edge">
<title>Node99&#45;&gt;Node96</title>
<path fill="none" stroke="#191970" d="M281.1701,-254.1712C261.0651,-261.8442 237.4541,-270.7336 216,-278.5 207.838,-281.4546 199.1084,-284.533 190.6886,-287.4608"/>
<polygon fill="#191970" stroke="#191970" points="282.6442,-257.3547 290.7333,-250.5125 280.1429,-250.8169 282.6442,-257.3547"/>
</g>
<!-- Node99&#45;&gt;Node98 -->
<g id="edge9" class="edge">
<title>Node99&#45;&gt;Node98</title>
<path fill="none" stroke="#191970" d="M268.8322,-217.267C263.1208,-215.384 257.4373,-213.4458 252,-211.5 228.1634,-202.9696 201.7884,-192.2196 181.3726,-183.6022"/>
<polygon fill="#191970" stroke="#191970" points="267.84,-220.6246 278.4319,-220.3756 269.9966,-213.9651 267.84,-220.6246"/>
</g>
<!-- Node99&#45;&gt;Node99 -->
<g id="edge10" class="edge">
<title>Node99&#45;&gt;Node99</title>
<path fill="none" stroke="#191970" d="M361.8392,-260.9579C357.8254,-265.679 347.0457,-269 329.5,-269 300.707,-269 290.1346,-260.0566 297.7827,-250.659"/>
<polygon fill="#191970" stroke="#191970" points="365.3138,-260.4298 361.2173,-250.659 358.3265,-260.8518 365.3138,-260.4298"/>
</g>
<!-- Node100 -->
<g id="node6" class="node">
<title>Node100</title>
<g id="a_node6"><a xlink:href="../../db/d17/MVICFG_8cpp.html#a27bf2e73daf11e2ad6363e34bd06de89" target="_top" xlink:title=" ">
<polygon fill="none" stroke="#000000" points="86,-220.5 86,-250.5 207,-250.5 207,-220.5 86,-220.5"/>
<text text-anchor="start" x="94" y="-238.5" font-family="Helvetica,sans-Serif" font-size="10.00" fill="#000000">hydrogen_framework</text>
<text text-anchor="middle" x="146.5" y="-227.5" font-family="Helvetica,sans-Serif" font-size="10.00" fill="#000000">::matchedInMVICFG</text>
</a>
</g>
</g>
<!-- Node99&#45;&gt;Node100 -->
<g id="edge11" class="edge">
<title>Node99&#45;&gt;Node100</title>
<path fill="none" stroke="#191970" d="M258.3991,-235.5C241.4252,-235.5 223.4645,-235.5 207.018,-235.5"/>
<polygon fill="#191970" stroke="#191970" points="258.8179,-239.0001 268.8178,-235.5 258.8178,-232.0001 258.8179,-239.0001"/>
</g>
<!-- Node100&#45;&gt;Node97 -->
<g id="edge12" class="edge">
<title>Node100&#45;&gt;Node97</title>
<path fill="none" stroke="#191970" d="M87.2509,-216.5109C83.7313,-214.9315 80.2883,-213.2604 77,-211.5 59.6122,-202.1915 41.8888,-187.7217 31.0415,-178.1784"/>
<polygon fill="#191970" stroke="#191970" points="86.1175,-219.831 96.6927,-220.4756 88.8277,-213.3769 86.1175,-219.831"/>
</g>
<!-- Node100&#45;&gt;Node100 -->
<g id="edge13" class="edge">
<title>Node100&#45;&gt;Node100</title>
<path fill="none" stroke="#191970" d="M168.8887,-260.9579C166.1099,-265.679 158.647,-269 146.5,-269 126.5664,-269 119.247,-260.0566 124.5419,-250.659"/>
<polygon fill="#191970" stroke="#191970" points="172.3729,-260.504 168.4581,-250.659 165.379,-260.7965 172.3729,-260.504"/>
</g>
<!-- Node101&#45;&gt;Node96 -->
<g id="edge15" class="edge">
<title>Node101&#45;&gt;Node96</title>
<path fill="none" stroke="#191970" d="M248.4419,-302.5C234.544,-302.5 220.3204,-302.5 207.0765,-302.5"/>
<polygon fill="#191970" stroke="#191970" points="248.4855,-306.0001 258.4855,-302.5 248.4855,-299.0001 248.4855,-306.0001"/>
</g>
<!-- Node101&#45;&gt;Node98 -->
<g id="edge16" class="edge">
<title>Node101&#45;&gt;Node98</title>
<path fill="none" stroke="#191970" d="M256.8384,-282.1288C255.1662,-280.9845 253.5492,-279.7761 252,-278.5 225.9078,-257.0078 239.1629,-236.121 216,-211.5 205.4028,-200.2357 191.2301,-190.7682 178.4479,-183.6095"/>
<polygon fill="#191970" stroke="#191970" points="255.2179,-285.2371 265.6035,-287.3326 258.7914,-279.2179 255.2179,-285.2371"/>
</g>
<!-- Node101&#45;&gt;Node100 -->
<g id="edge18" class="edge">
<title>Node101&#45;&gt;Node100</title>
<path fill="none" stroke="#191970" d="M268.8322,-284.267C263.1208,-282.384 257.4373,-280.4458 252,-278.5 228.1634,-269.9696 201.7884,-259.2196 181.3726,-250.6022"/>
<polygon fill="#191970" stroke="#191970" points="267.84,-287.6246 278.4319,-287.3756 269.9966,-280.9651 267.84,-287.6246"/>
</g>
<!-- Node101&#45;&gt;Node101 -->
<g id="edge17" class="edge">
<title>Node101&#45;&gt;Node101</title>
<path fill="none" stroke="#191970" d="M361.8392,-327.9579C357.8254,-332.679 347.0457,-336 329.5,-336 300.707,-336 290.1346,-327.0566 297.7827,-317.659"/>
<polygon fill="#191970" stroke="#191970" points="365.3138,-327.4298 361.2173,-317.659 358.3265,-327.8518 365.3138,-327.4298"/>
</g>
<!-- Node102&#45;&gt;Node102 -->
<g id="edge23" class="edge">
<title>Node102&#45;&gt;Node102</title>
<path fill="none" stroke="#191970" d="M360.812,-88.3561C356.1556,-93.1966 345.7183,-96.5 329.5,-96.5 303.5508,-96.5 292.4007,-88.0433 296.0498,-78.3644"/>
<polygon fill="#191970" stroke="#191970" points="364.28,-88.8755 362.9502,-78.3644 357.435,-87.4106 364.28,-88.8755"/>
</g>
<!-- Node103 -->
<g id="node9" class="node">
<title>Node103</title>
<g id="a_node9"><a xlink:href="../../db/d17/MVICFG_8cpp.html#a8f5c2085a43bf3b517575d9db43e4b92" target="_top" xlink:title=" ">
<polygon fill="none" stroke="#000000" points="77,-80.5 77,-110.5 216,-110.5 216,-80.5 77,-80.5"/>
<text text-anchor="start" x="85" y="-98.5" font-family="Helvetica,sans-Serif" font-size="10.00" fill="#000000">hydrogen_framework</text>
<text text-anchor="middle" x="146.5" y="-87.5" font-family="Helvetica,sans-Serif" font-size="10.00" fill="#000000">::getEdgesForAddedLines</text>
</a>
</g>
</g>
<!-- Node102&#45;&gt;Node103 -->
<g id="edge20" class="edge">
<title>Node102&#45;&gt;Node103</title>
<path fill="none" stroke="#191970" d="M242.0875,-75.6512C233.3703,-77.4614 224.6035,-79.2818 216.1045,-81.0466"/>
<polygon fill="#191970" stroke="#191970" points="242.812,-79.0755 251.8915,-73.6154 241.3888,-72.2217 242.812,-79.0755"/>
</g>
<!-- Node103&#45;&gt;Node97 -->
<g id="edge22" class="edge">
<title>Node103&#45;&gt;Node97</title>
<path fill="none" stroke="#191970" d="M111.4447,-115.8098C87.0993,-129.9147 55.7717,-148.0648 36.9602,-158.9636"/>
<polygon fill="#191970" stroke="#191970" points="113.4946,-118.6672 120.3927,-110.6256 109.9854,-112.6103 113.4946,-118.6672"/>
</g>
<!-- Node103&#45;&gt;Node103 -->
<g id="edge21" class="edge">
<title>Node103&#45;&gt;Node103</title>
<path fill="none" stroke="#191970" d="M168.8887,-120.9579C166.1099,-125.679 158.647,-129 146.5,-129 126.5664,-129 119.247,-120.0566 124.5419,-110.659"/>
<polygon fill="#191970" stroke="#191970" points="172.3729,-120.504 168.4581,-110.659 165.379,-120.7965 172.3729,-120.504"/>
</g>
<!-- Node104&#45;&gt;Node98 -->
<g id="edge25" class="edge">
<title>Node104&#45;&gt;Node98</title>
<path fill="none" stroke="#191970" d="M258.3991,-168.5C241.4252,-168.5 223.4645,-168.5 207.018,-168.5"/>
<polygon fill="#191970" stroke="#191970" points="258.8179,-172.0001 268.8178,-168.5 258.8178,-165.0001 258.8179,-172.0001"/>
</g>
<!-- Node104&#45;&gt;Node104 -->
<g id="edge26" class="edge">
<title>Node104&#45;&gt;Node104</title>
<path fill="none" stroke="#191970" d="M361.8392,-193.9579C357.8254,-198.679 347.0457,-202 329.5,-202 300.707,-202 290.1346,-193.0566 297.7827,-183.659"/>
<polygon fill="#191970" stroke="#191970" points="365.3138,-193.4298 361.2173,-183.659 358.3265,-193.8518 365.3138,-193.4298"/>
</g>
<!-- Node105&#45;&gt;Node97 -->
<g id="edge28" class="edge">
<title>Node105&#45;&gt;Node97</title>
<path fill="none" stroke="#191970" d="M115.5684,-36.559C102.6991,-46.2525 88.1854,-58.4864 77,-71.5 52.4825,-100.0246 32.8196,-140.6718 24.6266,-158.9503"/>
<polygon fill="#191970" stroke="#191970" points="117.7394,-39.3073 123.7364,-30.5731 113.6016,-33.6611 117.7394,-39.3073"/>
</g>
<!-- Node105&#45;&gt;Node105 -->
<g id="edge29" class="edge">
<title>Node105&#45;&gt;Node105</title>
<path fill="none" stroke="#191970" d="M168.8887,-40.9579C166.1099,-45.679 158.647,-49 146.5,-49 126.5664,-49 119.247,-40.0566 124.5419,-30.659"/>
<polygon fill="#191970" stroke="#191970" points="172.3729,-40.504 168.4581,-30.659 165.379,-40.7965 172.3729,-40.504"/>
</g>
</g>
</svg>
