<?xml version="1.0" encoding="UTF-8" standalone="no"?>
<!DOCTYPE svg PUBLIC "-//W3C//DTD SVG 1.1//EN"
 "http://www.w3.org/Graphics/SVG/1.1/DTD/svg11.dtd">
<!-- Generated by graphviz version 2.40.1 (20161225.0304)
 -->
<!-- Title: hydrogen_framework::Graph::addVirtualNodes Pages: 1 -->
<!--zoomable 631 -->
<svg id="main" version="1.1" xmlns="http://www.w3.org/2000/svg" xmlns:xlink="http://www.w3.org/1999/xlink" xml:space="preserve" onload="init(evt)">
<style type="text/css"><![CDATA[
.edge:hover path { stroke: red; }
.edge:hover polygon { stroke: red; fill: red; }
]]></style>
<script type="text/javascript"><![CDATA[
var edges = document.getElementsByTagName('g');
if (edges && edges.length) {
  for (var i=0;i<edges.length;i++) {
    if (edges[i].id.substr(0,4)=='edge') {
      edges[i].setAttribute('class','edge');
    }
  }
}
]]></script>
        <defs>
                <circle id="rim" cx="0" cy="0" r="7"/>
                <circle id="rim2" cx="0" cy="0" r="3.5"/>
                <g id="zoomPlus">
                        <use xlink:href="#rim" fill="#404040">
                                <set attributeName="fill" to="#808080" begin="zoomplus.mouseover" end="zoomplus.mouseout"/>
                        </use>
                        <path d="M-4,0h8M0,-4v8" fill="none" stroke="white" stroke-width="1.5" pointer-events="none"/>
                </g>
                <g id="zoomMin">
                        <use xlink:href="#rim" fill="#404040">
                                <set attributeName="fill" to="#808080" begin="zoomminus.mouseover" end="zoomminus.mouseout"/>
                        </use>
                        <path d="M-4,0h8" fill="none" stroke="white" stroke-width="1.5" pointer-events="none"/>
                </g>
                <g id="dirArrow">
                        <path fill="none" stroke="white" stroke-width="1.5" d="M0,-3.0v7 M-2.5,-0.5L0,-3.0L2.5,-0.5"/>
                </g>
               <g id="resetDef">
                       <use xlink:href="#rim2" fill="#404040">
                               <set attributeName="fill" to="#808080" begin="reset.mouseover" end="reset.mouseout"/>
                       </use>
               </g>
        </defs>

<script type="text/javascript">
var viewWidth = 576;
var viewHeight = 631;
var sectionId = 'dynsection-9';
</script>
<script xlink:href="../../svgpan.js"/>
<svg id="graph" class="graph">
<g id="viewport">
<title>hydrogen_framework::Graph::addVirtualNodes</title>
<!-- Node56 -->
<g id="node1" class="node">
<title>Node56</title>
<g id="a_node1"><a xlink:title=" ">
<polygon fill="#bfbfbf" stroke="#000000" points="0,-285.5 0,-315.5 139,-315.5 139,-285.5 0,-285.5"/>
<text text-anchor="start" x="8" y="-303.5" font-family="Helvetica,sans-Serif" font-size="10.00" fill="#000000">hydrogen_framework</text>
<text text-anchor="middle" x="69.5" y="-292.5" font-family="Helvetica,sans-Serif" font-size="10.00" fill="#000000">::Graph::addVirtualNodes</text>
</a>
</g>
</g>
<!-- Node57 -->
<g id="node2" class="node">
<title>Node57</title>
<g id="a_node2"><a xlink:href="../../d4/d7a/classhydrogen__framework_1_1Graph.html#ab2ca1cb2b3ca08c12139e86389d34038" target="_top" xlink:title=" ">
<polygon fill="none" stroke="#000000" points="209,-559.5 209,-589.5 330,-589.5 330,-559.5 209,-559.5"/>
<text text-anchor="start" x="217" y="-577.5" font-family="Helvetica,sans-Serif" font-size="10.00" fill="#000000">hydrogen_framework</text>
<text text-anchor="middle" x="269.5" y="-566.5" font-family="Helvetica,sans-Serif" font-size="10.00" fill="#000000">::Graph::addEdge</text>
</a>
</g>
</g>
<!-- Node56&#45;&gt;Node57 -->
<g id="edge1" class="edge">
<title>Node56&#45;&gt;Node57</title>
<path fill="none" stroke="#191970" d="M71.3223,-315.7837C77.3487,-359.3334 100.6867,-485.0642 175,-549.5 181.9679,-555.5417 190.2359,-560.145 198.9382,-563.6482"/>
<polygon fill="#191970" stroke="#191970" points="197.9156,-566.9989 208.5104,-567.0338 200.2498,-560.3995 197.9156,-566.9989"/>
</g>
<!-- Node60 -->
<g id="node5" class="node">
<title>Node60</title>
<g id="a_node5"><a xlink:href="../../dc/d7a/classhydrogen__framework_1_1Graph__Function.html#a83e710a8ef5f39a1e1fe89926fa1b8b0" target="_top" xlink:title=" ">
<polygon fill="none" stroke="#000000" points="189.5,-499 189.5,-540 349.5,-540 349.5,-499 189.5,-499"/>
<text text-anchor="start" x="197.5" y="-528" font-family="Helvetica,sans-Serif" font-size="10.00" fill="#000000">hydrogen_framework</text>
<text text-anchor="start" x="197.5" y="-517" font-family="Helvetica,sans-Serif" font-size="10.00" fill="#000000">::Graph_Function::getFunction</text>
<text text-anchor="middle" x="269.5" y="-506" font-family="Helvetica,sans-Serif" font-size="10.00" fill="#000000">Lines</text>
</a>
</g>
</g>
<!-- Node56&#45;&gt;Node60 -->
<g id="edge4" class="edge">
<title>Node56&#45;&gt;Node60</title>
<path fill="none" stroke="#191970" d="M73.6729,-315.5089C84.3477,-351.1303 116.0474,-441.3832 175,-489.5 176.7878,-490.9592 178.6474,-492.3478 180.5666,-493.6692"/>
<polygon fill="#191970" stroke="#191970" points="178.9699,-496.7958 189.3237,-499.0433 182.6313,-490.8297 178.9699,-496.7958"/>
</g>
<!-- Node61 -->
<g id="node6" class="node">
<title>Node61</title>
<g id="a_node6"><a xlink:href="../../dc/d7a/classhydrogen__framework_1_1Graph__Function.html#a014d9adac948494beaa418a2a5e3e002" target="_top" xlink:title=" ">
<polygon fill="none" stroke="#000000" points="175,-449.5 175,-479.5 364,-479.5 364,-449.5 175,-449.5"/>
<text text-anchor="start" x="183" y="-467.5" font-family="Helvetica,sans-Serif" font-size="10.00" fill="#000000">hydrogen_framework</text>
<text text-anchor="middle" x="269.5" y="-456.5" font-family="Helvetica,sans-Serif" font-size="10.00" fill="#000000">::Graph_Function::getFunctionName</text>
</a>
</g>
</g>
<!-- Node56&#45;&gt;Node61 -->
<g id="edge5" class="edge">
<title>Node56&#45;&gt;Node61</title>
<path fill="none" stroke="#191970" d="M76.6369,-315.8534C90.9636,-344.9186 126.09,-407.9739 175,-440.5 177.4446,-442.1257 179.9917,-443.6413 182.6162,-445.0542"/>
<polygon fill="#191970" stroke="#191970" points="181.2724,-448.2917 191.8012,-449.4734 184.3074,-441.9838 181.2724,-448.2917"/>
</g>
<!-- Node62 -->
<g id="node7" class="node">
<title>Node62</title>
<g id="a_node7"><a xlink:href="../../d4/d7a/classhydrogen__framework_1_1Graph.html#a3ec59eab4872c418d96b508dedcf0777" target="_top" xlink:title=" ">
<polygon fill="none" stroke="#000000" points="209,-400.5 209,-430.5 330,-430.5 330,-400.5 209,-400.5"/>
<text text-anchor="start" x="217" y="-418.5" font-family="Helvetica,sans-Serif" font-size="10.00" fill="#000000">hydrogen_framework</text>
<text text-anchor="middle" x="269.5" y="-407.5" font-family="Helvetica,sans-Serif" font-size="10.00" fill="#000000">::Graph::getNextID</text>
</a>
</g>
</g>
<!-- Node56&#45;&gt;Node62 -->
<g id="edge6" class="edge">
<title>Node56&#45;&gt;Node62</title>
<path fill="none" stroke="#191970" d="M82.9721,-315.6146C101.6748,-335.6742 137.464,-370.8412 175,-390.5 182.646,-394.5045 190.9838,-397.9045 199.4368,-400.7823"/>
<polygon fill="#191970" stroke="#191970" points="198.4085,-404.1279 208.9987,-403.8139 200.5241,-397.4552 198.4085,-404.1279"/>
</g>
<!-- Node63 -->
<g id="node8" class="node">
<title>Node63</title>
<g id="a_node8"><a xlink:href="../../dc/d7a/classhydrogen__framework_1_1Graph__Function.html#a836407a321fcfdd4cbc828ede65527e8" target="_top" xlink:title=" ">
<polygon fill="none" stroke="#000000" points="194,-340 194,-381 345,-381 345,-340 194,-340"/>
<text text-anchor="start" x="202" y="-369" font-family="Helvetica,sans-Serif" font-size="10.00" fill="#000000">hydrogen_framework</text>
<text text-anchor="start" x="202" y="-358" font-family="Helvetica,sans-Serif" font-size="10.00" fill="#000000">::Graph_Function::pushFront</text>
<text text-anchor="middle" x="269.5" y="-347" font-family="Helvetica,sans-Serif" font-size="10.00" fill="#000000">FunctionLines</text>
</a>
</g>
</g>
<!-- Node56&#45;&gt;Node63 -->
<g id="edge7" class="edge">
<title>Node56&#45;&gt;Node63</title>
<path fill="none" stroke="#191970" d="M119.7103,-315.5631C141.3721,-322.0616 167.2188,-329.8156 191.294,-337.0382"/>
<polygon fill="#191970" stroke="#191970" points="190.5446,-340.4674 201.1286,-339.9886 192.5561,-333.7627 190.5446,-340.4674"/>
</g>
<!-- Node65 -->
<g id="node10" class="node">
<title>Node65</title>
<g id="a_node10"><a xlink:href="../../dc/d7a/classhydrogen__framework_1_1Graph__Function.html#ab8c42581be989318468e46db4341f4e9" target="_top" xlink:title=" ">
<polygon fill="none" stroke="#000000" points="186,-280 186,-321 353,-321 353,-280 186,-280"/>
<text text-anchor="start" x="194" y="-309" font-family="Helvetica,sans-Serif" font-size="10.00" fill="#000000">hydrogen_framework</text>
<text text-anchor="start" x="194" y="-298" font-family="Helvetica,sans-Serif" font-size="10.00" fill="#000000">::Graph_Function::pushFunction</text>
<text text-anchor="middle" x="269.5" y="-287" font-family="Helvetica,sans-Serif" font-size="10.00" fill="#000000">Lines</text>
</a>
</g>
</g>
<!-- Node56&#45;&gt;Node65 -->
<g id="edge9" class="edge">
<title>Node56&#45;&gt;Node65</title>
<path fill="none" stroke="#191970" d="M139.1695,-300.5C150.9714,-300.5 163.3958,-300.5 175.6947,-300.5"/>
<polygon fill="#191970" stroke="#191970" points="175.9799,-304.0001 185.9799,-300.5 175.9799,-297.0001 175.9799,-304.0001"/>
</g>
<!-- Node66 -->
<g id="node11" class="node">
<title>Node66</title>
<g id="a_node11"><a xlink:href="../../d8/d0b/classhydrogen__framework_1_1Graph__Line.html#ab0b1293c760736cdf3e93c5d378449a0" target="_top" xlink:title=" ">
<polygon fill="none" stroke="#000000" points="180,-230.5 180,-260.5 359,-260.5 359,-230.5 180,-230.5"/>
<text text-anchor="start" x="188" y="-248.5" font-family="Helvetica,sans-Serif" font-size="10.00" fill="#000000">hydrogen_framework</text>
<text text-anchor="middle" x="269.5" y="-237.5" font-family="Helvetica,sans-Serif" font-size="10.00" fill="#000000">::Graph_Line::pushLineInstruction</text>
</a>
</g>
</g>
<!-- Node56&#45;&gt;Node66 -->
<g id="edge11" class="edge">
<title>Node56&#45;&gt;Node66</title>
<path fill="none" stroke="#191970" d="M121.7668,-285.4317C138.7292,-280.5966 157.6468,-275.2622 175,-270.5 183.7735,-268.0923 193.0166,-265.5967 202.1478,-263.1555"/>
<polygon fill="#191970" stroke="#191970" points="203.2229,-266.4912 211.9848,-260.5347 201.4208,-259.7272 203.2229,-266.4912"/>
</g>
<!-- Node68 -->
<g id="node13" class="node">
<title>Node68</title>
<g id="a_node13"><a xlink:href="../../da/df5/classhydrogen__framework_1_1Graph__Instruction.html#ab13d49cbe4ca64f6f18d97c641529e5d" target="_top" xlink:title=" ">
<polygon fill="none" stroke="#000000" points="209,-170 209,-211 330,-211 330,-170 209,-170"/>
<text text-anchor="start" x="217" y="-199" font-family="Helvetica,sans-Serif" font-size="10.00" fill="#000000">hydrogen_framework</text>
<text text-anchor="start" x="217" y="-188" font-family="Helvetica,sans-Serif" font-size="10.00" fill="#000000">::Graph_Instruction</text>
<text text-anchor="middle" x="269.5" y="-177" font-family="Helvetica,sans-Serif" font-size="10.00" fill="#000000">::setInstructionID</text>
</a>
</g>
</g>
<!-- Node56&#45;&gt;Node68 -->
<g id="edge13" class="edge">
<title>Node56&#45;&gt;Node68</title>
<path fill="none" stroke="#191970" d="M85.8215,-285.2541C105.5791,-267.5126 140.5087,-238.373 175,-220.5 182.6618,-216.5297 190.9469,-212.9639 199.3172,-209.7965"/>
<polygon fill="#191970" stroke="#191970" points="200.5533,-213.0715 208.7752,-206.3893 198.1808,-206.4858 200.5533,-213.0715"/>
</g>
<!-- Node69 -->
<g id="node14" class="node">
<title>Node69</title>
<g id="a_node14"><a xlink:href="../../da/df5/classhydrogen__framework_1_1Graph__Instruction.html#aa4ad8faf804e559c192aa040c3276fe8" target="_top" xlink:title=" ">
<polygon fill="none" stroke="#000000" points="209,-110 209,-151 330,-151 330,-110 209,-110"/>
<text text-anchor="start" x="217" y="-139" font-family="Helvetica,sans-Serif" font-size="10.00" fill="#000000">hydrogen_framework</text>
<text text-anchor="start" x="217" y="-128" font-family="Helvetica,sans-Serif" font-size="10.00" fill="#000000">::Graph_Instruction</text>
<text text-anchor="middle" x="269.5" y="-117" font-family="Helvetica,sans-Serif" font-size="10.00" fill="#000000">::setInstructionLabel</text>
</a>
</g>
</g>
<!-- Node56&#45;&gt;Node69 -->
<g id="edge14" class="edge">
<title>Node56&#45;&gt;Node69</title>
<path fill="none" stroke="#191970" d="M76.8141,-285.4047C91.4437,-256.7808 127.0654,-194.4471 175,-160.5 182.4275,-155.2399 190.8181,-150.8729 199.4573,-147.2544"/>
<polygon fill="#191970" stroke="#191970" points="200.8243,-150.4785 208.8953,-143.6149 198.3057,-143.9473 200.8243,-150.4785"/>
</g>
<!-- Node70 -->
<g id="node15" class="node">
<title>Node70</title>
<g id="a_node15"><a xlink:href="../../da/df5/classhydrogen__framework_1_1Graph__Instruction.html#ae4fed72fc06e6d05039b75a156ef0c6f" target="_top" xlink:title=" ">
<polygon fill="none" stroke="#000000" points="209,-50 209,-91 330,-91 330,-50 209,-50"/>
<text text-anchor="start" x="217" y="-79" font-family="Helvetica,sans-Serif" font-size="10.00" fill="#000000">hydrogen_framework</text>
<text text-anchor="start" x="217" y="-68" font-family="Helvetica,sans-Serif" font-size="10.00" fill="#000000">::Graph_Instruction</text>
<text text-anchor="middle" x="269.5" y="-57" font-family="Helvetica,sans-Serif" font-size="10.00" fill="#000000">::setInstructionPtr</text>
</a>
</g>
</g>
<!-- Node56&#45;&gt;Node70 -->
<g id="edge15" class="edge">
<title>Node56&#45;&gt;Node70</title>
<path fill="none" stroke="#191970" d="M73.1857,-285.4551C83.0475,-248.3712 113.5626,-151.8705 175,-100.5 182.2526,-94.4358 190.7427,-89.5928 199.6057,-85.7262"/>
<polygon fill="#191970" stroke="#191970" points="200.925,-88.9683 208.9405,-82.0399 198.3539,-82.4575 200.925,-88.9683"/>
</g>
<!-- Node71 -->
<g id="node16" class="node">
<title>Node71</title>
<g id="a_node16"><a xlink:href="../../d8/d0b/classhydrogen__framework_1_1Graph__Line.html#aa411d1827230bd4d472a086617e084c3" target="_top" xlink:title=" ">
<polygon fill="none" stroke="#000000" points="190.5,-.5 190.5,-30.5 348.5,-30.5 348.5,-.5 190.5,-.5"/>
<text text-anchor="start" x="198.5" y="-18.5" font-family="Helvetica,sans-Serif" font-size="10.00" fill="#000000">hydrogen_framework</text>
<text text-anchor="middle" x="269.5" y="-7.5" font-family="Helvetica,sans-Serif" font-size="10.00" fill="#000000">::Graph_Line::setLineNumber</text>
</a>
</g>
</g>
<!-- Node56&#45;&gt;Node71 -->
<g id="edge16" class="edge">
<title>Node56&#45;&gt;Node71</title>
<path fill="none" stroke="#191970" d="M71.0202,-285.2019C76.3132,-240.3803 98.0423,-108.2666 175,-40.5 177.006,-38.7336 179.1229,-37.0899 181.3294,-35.5605"/>
<polygon fill="#191970" stroke="#191970" points="183.468,-38.3589 190.2395,-30.2104 179.8645,-32.3576 183.468,-38.3589"/>
</g>
<!-- Node58 -->
<g id="node3" class="node">
<title>Node58</title>
<g id="a_node3"><a xlink:href="../../da/df5/classhydrogen__framework_1_1Graph__Instruction.html#ade4352d83d22adfdfba4a5c45f3b7292" target="_top" xlink:title=" ">
<polygon fill="none" stroke="#000000" points="423,-581 423,-622 545,-622 545,-581 423,-581"/>
<text text-anchor="start" x="431" y="-610" font-family="Helvetica,sans-Serif" font-size="10.00" fill="#000000">hydrogen_framework</text>
<text text-anchor="start" x="431" y="-599" font-family="Helvetica,sans-Serif" font-size="10.00" fill="#000000">::Graph_Instruction</text>
<text text-anchor="middle" x="484" y="-588" font-family="Helvetica,sans-Serif" font-size="10.00" fill="#000000">::pushEdgeInstruction</text>
</a>
</g>
</g>
<!-- Node57&#45;&gt;Node58 -->
<g id="edge2" class="edge">
<title>Node57&#45;&gt;Node58</title>
<path fill="none" stroke="#191970" d="M330.107,-582.1289C355.8126,-585.3645 385.9578,-589.159 412.7226,-592.528"/>
<polygon fill="#191970" stroke="#191970" points="412.4398,-596.02 422.7987,-593.7963 413.3141,-589.0748 412.4398,-596.02"/>
</g>
<!-- Node59 -->
<g id="node4" class="node">
<title>Node59</title>
<g id="a_node4"><a xlink:href="../../d4/d7a/classhydrogen__framework_1_1Graph.html#a654ec603b3fb6fcaaabc1419a18e0b96" target="_top" xlink:title=" ">
<polygon fill="none" stroke="#000000" points="414,-531.5 414,-561.5 554,-561.5 554,-531.5 414,-531.5"/>
<text text-anchor="start" x="422" y="-549.5" font-family="Helvetica,sans-Serif" font-size="10.00" fill="#000000">hydrogen_framework</text>
<text text-anchor="middle" x="484" y="-538.5" font-family="Helvetica,sans-Serif" font-size="10.00" fill="#000000">::Graph::pushGraphEdges</text>
</a>
</g>
</g>
<!-- Node57&#45;&gt;Node59 -->
<g id="edge3" class="edge">
<title>Node57&#45;&gt;Node59</title>
<path fill="none" stroke="#191970" d="M330.107,-566.5886C352.9728,-563.6038 379.3516,-560.1604 403.7392,-556.9769"/>
<polygon fill="#191970" stroke="#191970" points="404.2288,-560.4428 413.6916,-555.6778 403.3227,-553.5017 404.2288,-560.4428"/>
</g>
<!-- Node64 -->
<g id="node9" class="node">
<title>Node64</title>
<g id="a_node9"><a xlink:href="../../d8/d0b/classhydrogen__framework_1_1Graph__Line.html#a99db3f64c0f212064037c367157fcace" target="_top" xlink:title=" ">
<polygon fill="none" stroke="#000000" points="400,-315.5 400,-345.5 568,-345.5 568,-315.5 400,-315.5"/>
<text text-anchor="start" x="408" y="-333.5" font-family="Helvetica,sans-Serif" font-size="10.00" fill="#000000">hydrogen_framework</text>
<text text-anchor="middle" x="484" y="-322.5" font-family="Helvetica,sans-Serif" font-size="10.00" fill="#000000">::Graph_Line::setGraphFunction</text>
</a>
</g>
</g>
<!-- Node63&#45;&gt;Node64 -->
<g id="edge8" class="edge">
<title>Node63&#45;&gt;Node64</title>
<path fill="none" stroke="#191970" d="M345.1247,-349.9231C359.5309,-347.9083 374.7731,-345.7765 389.6774,-343.692"/>
<polygon fill="#191970" stroke="#191970" points="390.5085,-347.1099 399.9273,-342.2584 389.5389,-340.1774 390.5085,-347.1099"/>
</g>
<!-- Node65&#45;&gt;Node64 -->
<g id="edge10" class="edge">
<title>Node65&#45;&gt;Node64</title>
<path fill="none" stroke="#191970" d="M353.0455,-312.1847C365.0845,-313.8685 377.543,-315.6109 389.7722,-317.3213"/>
<polygon fill="#191970" stroke="#191970" points="389.5881,-320.8295 399.9765,-318.7485 390.5578,-313.897 389.5881,-320.8295"/>
</g>
<!-- Node67 -->
<g id="node12" class="node">
<title>Node67</title>
<g id="a_node12"><a xlink:href="../../da/df5/classhydrogen__framework_1_1Graph__Instruction.html#a418b2a7045a9ecddc3f181a55629cd29" target="_top" xlink:title=" ">
<polygon fill="none" stroke="#000000" points="423.5,-225 423.5,-266 544.5,-266 544.5,-225 423.5,-225"/>
<text text-anchor="start" x="431.5" y="-254" font-family="Helvetica,sans-Serif" font-size="10.00" fill="#000000">hydrogen_framework</text>
<text text-anchor="start" x="431.5" y="-243" font-family="Helvetica,sans-Serif" font-size="10.00" fill="#000000">::Graph_Instruction</text>
<text text-anchor="middle" x="484" y="-232" font-family="Helvetica,sans-Serif" font-size="10.00" fill="#000000">::setGraphLine</text>
</a>
</g>
</g>
<!-- Node66&#45;&gt;Node67 -->
<g id="edge12" class="edge">
<title>Node66&#45;&gt;Node67</title>
<path fill="none" stroke="#191970" d="M359.2245,-245.5C377.0977,-245.5 395.6383,-245.5 412.7879,-245.5"/>
<polygon fill="#191970" stroke="#191970" points="413.2678,-249.0001 423.2678,-245.5 413.2677,-242.0001 413.2678,-249.0001"/>
</g>
</g>
</svg>
        <g id="navigator" transform="translate(0 0)" fill="#404254">
                <rect fill="#f2f5e9" fill-opacity="0.5" stroke="#606060" stroke-width=".5" x="0" y="0" width="60" height="60"/>
                <use id="zoomplus" xlink:href="#zoomPlus" x="17" y="9" onmousedown="handleZoom(evt,'in')"/>
                <use id="zoomminus" xlink:href="#zoomMin" x="42" y="9" onmousedown="handleZoom(evt,'out')"/>
                <use id="reset" xlink:href="#resetDef" x="30" y="36" onmousedown="handleReset()"/>
                <g id="arrowUp" xlink:href="#dirArrow" transform="translate(30 24)" onmousedown="handlePan(0,-1)">
                  <use xlink:href="#rim" fill="#404040">
                        <set attributeName="fill" to="#808080" begin="arrowUp.mouseover" end="arrowUp.mouseout"/>
                  </use>
                  <path fill="none" stroke="white" stroke-width="1.5" d="M0,-3.0v7 M-2.5,-0.5L0,-3.0L2.5,-0.5"/>
                </g>
                <g id="arrowRight" xlink:href="#dirArrow" transform="rotate(90) translate(36 -43)" onmousedown="handlePan(1,0)">
                  <use xlink:href="#rim" fill="#404040">
                        <set attributeName="fill" to="#808080" begin="arrowRight.mouseover" end="arrowRight.mouseout"/>
                  </use>
                  <path fill="none" stroke="white" stroke-width="1.5" d="M0,-3.0v7 M-2.5,-0.5L0,-3.0L2.5,-0.5"/>
                </g>
                <g id="arrowDown" xlink:href="#dirArrow" transform="rotate(180) translate(-30 -48)" onmousedown="handlePan(0,1)">
                  <use xlink:href="#rim" fill="#404040">
                        <set attributeName="fill" to="#808080" begin="arrowDown.mouseover" end="arrowDown.mouseout"/>
                  </use>
                  <path fill="none" stroke="white" stroke-width="1.5" d="M0,-3.0v7 M-2.5,-0.5L0,-3.0L2.5,-0.5"/>
                </g>
                <g id="arrowLeft" xlink:href="#dirArrow" transform="rotate(270) translate(-36 17)" onmousedown="handlePan(-1,0)">
                  <use xlink:href="#rim" fill="#404040">
                        <set attributeName="fill" to="#808080" begin="arrowLeft.mouseover" end="arrowLeft.mouseout"/>
                  </use>
                  <path fill="none" stroke="white" stroke-width="1.5" d="M0,-3.0v7 M-2.5,-0.5L0,-3.0L2.5,-0.5"/>
                </g>
        </g>
        <svg viewBox="0 0 15 15" width="100%" height="30px" preserveAspectRatio="xMaxYMin meet">
         <g id="arrow_out" transform="scale(0.3 0.3)">
          <a xlink:href="classhydrogen__framework_1_1Graph_a2baf6364fa45c8574b581fe8c6df79c6_cgraph_org.svg" target="_base">
           <rect id="button" ry="5" rx="5" y="6" x="6" height="38" width="38"
                fill="#f2f5e9" fill-opacity="0.5" stroke="#606060" stroke-width="1.0"/>
           <path id="arrow"
             d="M 11.500037,31.436501 C 11.940474,20.09759 22.043105,11.32322 32.158766,21.979434 L 37.068811,17.246167 C 37.068811,17.246167 37.088388,32 37.088388,32 L 22.160133,31.978069 C 22.160133,31.978069 26.997745,27.140456 26.997745,27.140456 C 18.528582,18.264221 13.291696,25.230495 11.500037,31.436501 z"
             style="fill:#404040;"/>
          </a>
         </g>
        </svg>
</svg>
