<?xml version="1.0" encoding="UTF-8" standalone="no"?>
<!DOCTYPE svg PUBLIC "-//W3C//DTD SVG 1.1//EN"
 "http://www.w3.org/Graphics/SVG/1.1/DTD/svg11.dtd">
<!-- Generated by graphviz version 2.40.1 (20161225.0304)
 -->
<!-- Title: hydrogen_framework::Graph::addEdge Pages: 1 -->
<svg width="305pt" height="100pt"
 viewBox="0.00 0.00 305.00 99.50" xmlns="http://www.w3.org/2000/svg" xmlns:xlink="http://www.w3.org/1999/xlink">
<g id="graph0" class="graph" transform="scale(1 1) rotate(0) translate(4 95.5)">
<title>hydrogen_framework::Graph::addEdge</title>
<!-- Node12 -->
<g id="node1" class="node">
<title>Node12</title>
<g id="a_node1"><a xlink:title=" ">
<polygon fill="#bfbfbf" stroke="#000000" points="0,-27.5 0,-57.5 121,-57.5 121,-27.5 0,-27.5"/>
<text text-anchor="start" x="8" y="-45.5" font-family="Helvetica,sans-Serif" font-size="10.00" fill="#000000">hydrogen_framework</text>
<text text-anchor="middle" x="60.5" y="-34.5" font-family="Helvetica,sans-Serif" font-size="10.00" fill="#000000">::Graph::addEdge</text>
</a>
</g>
</g>
<!-- Node13 -->
<g id="node2" class="node">
<title>Node13</title>
<g id="a_node2"><a xlink:href="../../da/df5/classhydrogen__framework_1_1Graph__Instruction.html#ade4352d83d22adfdfba4a5c45f3b7292" target="_top" xlink:title=" ">
<polygon fill="none" stroke="#000000" points="166,-50 166,-91 288,-91 288,-50 166,-50"/>
<text text-anchor="start" x="174" y="-79" font-family="Helvetica,sans-Serif" font-size="10.00" fill="#000000">hydrogen_framework</text>
<text text-anchor="start" x="174" y="-68" font-family="Helvetica,sans-Serif" font-size="10.00" fill="#000000">::Graph_Instruction</text>
<text text-anchor="middle" x="227" y="-57" font-family="Helvetica,sans-Serif" font-size="10.00" fill="#000000">::pushEdgeInstruction</text>
</a>
</g>
</g>
<!-- Node12&#45;&gt;Node13 -->
<g id="edge1" class="edge">
<title>Node12&#45;&gt;Node13</title>
<path fill="none" stroke="#191970" d="M121.0813,-52.6878C132.372,-54.5866 144.2649,-56.5866 155.8392,-58.533"/>
<polygon fill="#191970" stroke="#191970" points="155.4635,-62.0189 165.9055,-60.2258 156.6244,-55.1158 155.4635,-62.0189"/>
</g>
<!-- Node14 -->
<g id="node3" class="node">
<title>Node14</title>
<g id="a_node3"><a xlink:href="../../d4/d7a/classhydrogen__framework_1_1Graph.html#a654ec603b3fb6fcaaabc1419a18e0b96" target="_top" xlink:title=" ">
<polygon fill="none" stroke="#000000" points="157,-.5 157,-30.5 297,-30.5 297,-.5 157,-.5"/>
<text text-anchor="start" x="165" y="-18.5" font-family="Helvetica,sans-Serif" font-size="10.00" fill="#000000">hydrogen_framework</text>
<text text-anchor="middle" x="227" y="-7.5" font-family="Helvetica,sans-Serif" font-size="10.00" fill="#000000">::Graph::pushGraphEdges</text>
</a>
</g>
</g>
<!-- Node12&#45;&gt;Node14 -->
<g id="edge2" class="edge">
<title>Node12&#45;&gt;Node14</title>
<path fill="none" stroke="#191970" d="M121.0813,-32.676C129.4351,-31.3213 138.1186,-29.9132 146.7587,-28.5121"/>
<polygon fill="#191970" stroke="#191970" points="147.5485,-31.9298 156.8593,-26.8742 146.428,-25.0201 147.5485,-31.9298"/>
</g>
</g>
</svg>
