<?xml version="1.0" encoding="UTF-8" standalone="no"?>
<!DOCTYPE svg PUBLIC "-//W3C//DTD SVG 1.1//EN"
 "http://www.w3.org/Graphics/SVG/1.1/DTD/svg11.dtd">
<!-- Generated by graphviz version 2.40.1 (20161225.0304)
 -->
<!-- Title: hydrogen_framework::Graph::getGraphVersion Pages: 1 -->
<svg width="590pt" height="447pt"
 viewBox="0.00 0.00 590.00 446.94" xmlns="http://www.w3.org/2000/svg" xmlns:xlink="http://www.w3.org/1999/xlink">
<g id="graph0" class="graph" transform="scale(1 1) rotate(0) translate(4 442.9401)">
<title>hydrogen_framework::Graph::getGraphVersion</title>
<!-- Node107 -->
<g id="node1" class="node">
<title>Node107</title>
<g id="a_node1"><a xlink:title=" ">
<polygon fill="#bfbfbf" stroke="#000000" points="443,-188.5 443,-218.5 582,-218.5 582,-188.5 443,-188.5"/>
<text text-anchor="start" x="451" y="-206.5" font-family="Helvetica,sans-Serif" font-size="10.00" fill="#000000">hydrogen_framework</text>
<text text-anchor="middle" x="512.5" y="-195.5" font-family="Helvetica,sans-Serif" font-size="10.00" fill="#000000">::Graph::getGraphVersion</text>
</a>
</g>
</g>
<!-- Node108 -->
<g id="node2" class="node">
<title>Node108</title>
<g id="a_node2"><a xlink:href="../../db/d17/MVICFG_8cpp.html#a40d68c502d0833e919395ded787b4599" target="_top" xlink:title=" ">
<polygon fill="none" stroke="#000000" points="86,-279.5 86,-309.5 207,-309.5 207,-279.5 86,-279.5"/>
<text text-anchor="start" x="94" y="-297.5" font-family="Helvetica,sans-Serif" font-size="10.00" fill="#000000">hydrogen_framework</text>
<text text-anchor="middle" x="146.5" y="-286.5" font-family="Helvetica,sans-Serif" font-size="10.00" fill="#000000">::addToMVICFG</text>
</a>
</g>
</g>
<!-- Node107&#45;&gt;Node108 -->
<g id="edge1" class="edge">
<title>Node107&#45;&gt;Node108</title>
<path fill="none" stroke="#191970" d="M470.993,-222.7178C451.8378,-230.9851 428.5985,-240.181 407,-246.5 339.8016,-266.1599 260.3938,-279.4129 207.0671,-286.9259"/>
<polygon fill="#191970" stroke="#191970" points="472.5722,-225.847 480.3245,-218.6253 469.7607,-219.4364 472.5722,-225.847"/>
</g>
<!-- Node110 -->
<g id="node4" class="node">
<title>Node110</title>
<g id="a_node4"><a xlink:href="../../db/d17/MVICFG_8cpp.html#ac6a97f6b1392ad5517822076e830168f" target="_top" xlink:title=" ">
<polygon fill="none" stroke="#000000" points="86,-193.5 86,-223.5 207,-223.5 207,-193.5 86,-193.5"/>
<text text-anchor="start" x="94" y="-211.5" font-family="Helvetica,sans-Serif" font-size="10.00" fill="#000000">hydrogen_framework</text>
<text text-anchor="middle" x="146.5" y="-200.5" font-family="Helvetica,sans-Serif" font-size="10.00" fill="#000000">::deleteFromMVICFG</text>
</a>
</g>
</g>
<!-- Node107&#45;&gt;Node110 -->
<g id="edge4" class="edge">
<title>Node107&#45;&gt;Node110</title>
<path fill="none" stroke="#191970" d="M447.1142,-186.241C433.9248,-183.4357 420.0899,-180.9701 407,-179.5 338.5415,-171.8115 320.2702,-170.2877 252,-179.5 231.5752,-182.2561 209.5126,-187.8852 190.8694,-193.457"/>
<polygon fill="#191970" stroke="#191970" points="446.5311,-189.6966 457.0514,-188.4416 448.0447,-182.8622 446.5311,-189.6966"/>
</g>
<!-- Node111 -->
<g id="node5" class="node">
<title>Node111</title>
<g id="a_node5"><a xlink:href="../../db/d17/MVICFG_8cpp.html#aca7226f27a892ce8314159fbd4eaeeb1" target="_top" xlink:title=" ">
<polygon fill="none" stroke="#000000" points="269,-361.5 269,-391.5 390,-391.5 390,-361.5 269,-361.5"/>
<text text-anchor="start" x="277" y="-379.5" font-family="Helvetica,sans-Serif" font-size="10.00" fill="#000000">hydrogen_framework</text>
<text text-anchor="middle" x="329.5" y="-368.5" font-family="Helvetica,sans-Serif" font-size="10.00" fill="#000000">::findMatchedLine</text>
</a>
</g>
</g>
<!-- Node107&#45;&gt;Node111 -->
<g id="edge7" class="edge">
<title>Node107&#45;&gt;Node111</title>
<path fill="none" stroke="#191970" d="M501.4581,-228.0579C485.3576,-261.1286 452.3422,-319.6138 407,-352.5 401.8691,-356.2214 396.1474,-359.3761 390.201,-362.0483"/>
<polygon fill="#191970" stroke="#191970" points="504.7886,-229.2026 505.9067,-218.6669 498.4625,-226.2059 504.7886,-229.2026"/>
</g>
<!-- Node112 -->
<g id="node6" class="node">
<title>Node112</title>
<g id="a_node6"><a xlink:href="../../db/d17/MVICFG_8cpp.html#a27bf2e73daf11e2ad6363e34bd06de89" target="_top" xlink:title=" ">
<polygon fill="none" stroke="#000000" points="86,-356.5 86,-386.5 207,-386.5 207,-356.5 86,-356.5"/>
<text text-anchor="start" x="94" y="-374.5" font-family="Helvetica,sans-Serif" font-size="10.00" fill="#000000">hydrogen_framework</text>
<text text-anchor="middle" x="146.5" y="-363.5" font-family="Helvetica,sans-Serif" font-size="10.00" fill="#000000">::matchedInMVICFG</text>
</a>
</g>
</g>
<!-- Node107&#45;&gt;Node112 -->
<g id="edge28" class="edge">
<title>Node107&#45;&gt;Node112</title>
<path fill="none" stroke="#191970" d="M508.8855,-228.5772C500.5813,-275.7651 475.3083,-376.8429 407,-419.5 331.1332,-466.8773 220.1764,-414.5556 171.2435,-386.6824"/>
<polygon fill="#191970" stroke="#191970" points="512.3596,-229.0197 510.5295,-218.5841 505.4525,-227.8833 512.3596,-229.0197"/>
</g>
<!-- Node113 -->
<g id="node7" class="node">
<title>Node113</title>
<g id="a_node7"><a xlink:href="../../db/d17/MVICFG_8cpp.html#a8f5c2085a43bf3b517575d9db43e4b92" target="_top" xlink:title=" ">
<polygon fill="none" stroke="#000000" points="77,-77.5 77,-107.5 216,-107.5 216,-77.5 77,-77.5"/>
<text text-anchor="start" x="85" y="-95.5" font-family="Helvetica,sans-Serif" font-size="10.00" fill="#000000">hydrogen_framework</text>
<text text-anchor="middle" x="146.5" y="-84.5" font-family="Helvetica,sans-Serif" font-size="10.00" fill="#000000">::getEdgesForAddedLines</text>
</a>
</g>
</g>
<!-- Node107&#45;&gt;Node113 -->
<g id="edge14" class="edge">
<title>Node107&#45;&gt;Node113</title>
<path fill="none" stroke="#191970" d="M502.5434,-178.7813C487.5227,-145.2682 455.5582,-86.8136 407,-62.5 332.5064,-25.2003 231.3995,-56.5576 179.7943,-77.474"/>
<polygon fill="#191970" stroke="#191970" points="499.483,-180.5228 506.6606,-188.3158 505.9094,-177.7476 499.483,-180.5228"/>
</g>
<!-- Node114 -->
<g id="node8" class="node">
<title>Node114</title>
<g id="a_node8"><a xlink:href="../../db/d17/MVICFG_8cpp.html#af4e85a6116ecbc77986b2e11a8077e9d" target="_top" xlink:title=" ">
<polygon fill="none" stroke="#000000" points="258.5,-294.5 258.5,-324.5 400.5,-324.5 400.5,-294.5 258.5,-294.5"/>
<text text-anchor="start" x="266.5" y="-312.5" font-family="Helvetica,sans-Serif" font-size="10.00" fill="#000000">hydrogen_framework</text>
<text text-anchor="middle" x="329.5" y="-301.5" font-family="Helvetica,sans-Serif" font-size="10.00" fill="#000000">::getGraphLinesGivenLine</text>
</a>
</g>
</g>
<!-- Node107&#45;&gt;Node114 -->
<g id="edge17" class="edge">
<title>Node107&#45;&gt;Node114</title>
<path fill="none" stroke="#191970" d="M486.4346,-225.1687C465.8074,-241.5834 435.7787,-263.8974 407,-279.5 396.7263,-285.07 385.1952,-290.1186 374.2309,-294.4181"/>
<polygon fill="#191970" stroke="#191970" points="488.8064,-227.7525 494.3973,-218.7529 484.4145,-222.3017 488.8064,-227.7525"/>
</g>
<!-- Node115 -->
<g id="node9" class="node">
<title>Node115</title>
<g id="a_node9"><a xlink:href="../../db/d17/MVICFG_8cpp.html#ae8aa13258ce9819a72598738dcf54fb2" target="_top" xlink:title=" ">
<polygon fill="none" stroke="#000000" points="252,-72 252,-113 407,-113 407,-72 252,-72"/>
<text text-anchor="start" x="260" y="-101" font-family="Helvetica,sans-Serif" font-size="10.00" fill="#000000">hydrogen_framework</text>
<text text-anchor="start" x="260" y="-90" font-family="Helvetica,sans-Serif" font-size="10.00" fill="#000000">::getMatchedInstructionFrom</text>
<text text-anchor="middle" x="329.5" y="-79" font-family="Helvetica,sans-Serif" font-size="10.00" fill="#000000">Graph</text>
</a>
</g>
</g>
<!-- Node107&#45;&gt;Node115 -->
<g id="edge22" class="edge">
<title>Node107&#45;&gt;Node115</title>
<path fill="none" stroke="#191970" d="M478.6636,-182.9763C445.8888,-163.0965 396.4536,-133.1112 363.5924,-113.179"/>
<polygon fill="#191970" stroke="#191970" points="477.0731,-186.105 487.4383,-188.2987 480.7034,-180.12 477.0731,-186.105"/>
</g>
<!-- Node116 -->
<g id="node10" class="node">
<title>Node116</title>
<g id="a_node10"><a xlink:href="../../db/d17/MVICFG_8cpp.html#a1d4ae9543ae0c613fedc7d032745b2c1" target="_top" xlink:title=" ">
<polygon fill="none" stroke="#000000" points="269,-188.5 269,-218.5 390,-218.5 390,-188.5 269,-188.5"/>
<text text-anchor="start" x="277" y="-206.5" font-family="Helvetica,sans-Serif" font-size="10.00" fill="#000000">hydrogen_framework</text>
<text text-anchor="middle" x="329.5" y="-195.5" font-family="Helvetica,sans-Serif" font-size="10.00" fill="#000000">::getNewlyAdded</text>
</a>
</g>
</g>
<!-- Node107&#45;&gt;Node116 -->
<g id="edge25" class="edge">
<title>Node107&#45;&gt;Node116</title>
<path fill="none" stroke="#191970" d="M432.5067,-203.5C418.2599,-203.5 403.6351,-203.5 390.0433,-203.5"/>
<polygon fill="#191970" stroke="#191970" points="432.7935,-207.0001 442.7935,-203.5 432.7935,-200.0001 432.7935,-207.0001"/>
</g>
<!-- Node117 -->
<g id="node11" class="node">
<title>Node117</title>
<g id="a_node11"><a xlink:href="../../db/d17/MVICFG_8cpp.html#a2ebefd41917d6565942bb86ec72f6adc" target="_top" xlink:title=" ">
<polygon fill="none" stroke="#000000" points="81.5,-.5 81.5,-30.5 211.5,-30.5 211.5,-.5 81.5,-.5"/>
<text text-anchor="start" x="89.5" y="-18.5" font-family="Helvetica,sans-Serif" font-size="10.00" fill="#000000">hydrogen_framework</text>
<text text-anchor="middle" x="146.5" y="-7.5" font-family="Helvetica,sans-Serif" font-size="10.00" fill="#000000">::updateMVICFGVersion</text>
</a>
</g>
</g>
<!-- Node107&#45;&gt;Node117 -->
<g id="edge29" class="edge">
<title>Node107&#45;&gt;Node117</title>
<path fill="none" stroke="#191970" d="M504.3127,-178.891C490.6162,-142.0013 459.2894,-73.3088 407,-41.5 348.0753,-5.6548 267.474,-3.1699 211.5997,-7.0904"/>
<polygon fill="#191970" stroke="#191970" points="501.0485,-180.1576 507.7111,-188.3954 507.6398,-177.8008 501.0485,-180.1576"/>
</g>
<!-- Node108&#45;&gt;Node108 -->
<g id="edge2" class="edge">
<title>Node108&#45;&gt;Node108</title>
<path fill="none" stroke="#191970" d="M168.8887,-319.9579C166.1099,-324.679 158.647,-328 146.5,-328 126.5664,-328 119.247,-319.0566 124.5419,-309.659"/>
<polygon fill="#191970" stroke="#191970" points="172.3729,-319.504 168.4581,-309.659 165.379,-319.7965 172.3729,-319.504"/>
</g>
<!-- Node109 -->
<g id="node3" class="node">
<title>Node109</title>
<g id="a_node3"><a xlink:href="../../de/d64/Hydrogen_8cpp.html#a0ddf1224851353fc92bfbff6f499fa97" target="_top" xlink:title=" ">
<polygon fill="none" stroke="#000000" points="0,-199 0,-218 41,-218 41,-199 0,-199"/>
<text text-anchor="middle" x="20.5" y="-206" font-family="Helvetica,sans-Serif" font-size="10.00" fill="#000000">main</text>
</a>
</g>
</g>
<!-- Node108&#45;&gt;Node109 -->
<g id="edge3" class="edge">
<title>Node108&#45;&gt;Node109</title>
<path fill="none" stroke="#191970" d="M111.9581,-274.0349C100.6666,-267.106 88.1631,-259.1748 77,-251.5 61.1541,-240.6056 43.6398,-227.0212 32.3747,-218.0708"/>
<polygon fill="#191970" stroke="#191970" points="110.3419,-277.1484 120.7049,-279.3527 113.9784,-271.167 110.3419,-277.1484"/>
</g>
<!-- Node110&#45;&gt;Node109 -->
<g id="edge6" class="edge">
<title>Node110&#45;&gt;Node109</title>
<path fill="none" stroke="#191970" d="M75.5335,-208.5C62.9053,-208.5 50.7111,-208.5 41.0245,-208.5"/>
<polygon fill="#191970" stroke="#191970" points="75.7145,-212.0001 85.7144,-208.5 75.7144,-205.0001 75.7145,-212.0001"/>
</g>
<!-- Node110&#45;&gt;Node110 -->
<g id="edge5" class="edge">
<title>Node110&#45;&gt;Node110</title>
<path fill="none" stroke="#191970" d="M168.8887,-233.9579C166.1099,-238.679 158.647,-242 146.5,-242 126.5664,-242 119.247,-233.0566 124.5419,-223.659"/>
<polygon fill="#191970" stroke="#191970" points="172.3729,-233.504 168.4581,-223.659 165.379,-233.7965 172.3729,-233.504"/>
</g>
<!-- Node111&#45;&gt;Node108 -->
<g id="edge8" class="edge">
<title>Node111&#45;&gt;Node108</title>
<path fill="none" stroke="#191970" d="M265.8633,-357.9457C261.131,-356.2154 256.4649,-354.3956 252,-352.5 222.9486,-340.1663 191.4637,-322.2034 170.5234,-309.5431"/>
<polygon fill="#191970" stroke="#191970" points="265.0321,-361.363 275.627,-361.3669 267.347,-354.7568 265.0321,-361.363"/>
</g>
<!-- Node111&#45;&gt;Node110 -->
<g id="edge9" class="edge">
<title>Node111&#45;&gt;Node110</title>
<path fill="none" stroke="#191970" d="M259.9498,-358.5238C257.1385,-356.7059 254.4694,-354.7042 252,-352.5 222.3063,-325.9956 239.3857,-302.7072 216,-270.5 202.6045,-252.0515 182.8815,-235.1168 167.8647,-223.625"/>
<polygon fill="#191970" stroke="#191970" points="258.3164,-361.6204 268.753,-363.4446 261.7319,-355.5102 258.3164,-361.6204"/>
</g>
<!-- Node111&#45;&gt;Node111 -->
<g id="edge10" class="edge">
<title>Node111&#45;&gt;Node111</title>
<path fill="none" stroke="#191970" d="M361.8392,-401.9579C357.8254,-406.679 347.0457,-410 329.5,-410 300.707,-410 290.1346,-401.0566 297.7827,-391.659"/>
<polygon fill="#191970" stroke="#191970" points="365.3138,-401.4298 361.2173,-391.659 358.3265,-401.8518 365.3138,-401.4298"/>
</g>
<!-- Node111&#45;&gt;Node112 -->
<g id="edge11" class="edge">
<title>Node111&#45;&gt;Node112</title>
<path fill="none" stroke="#191970" d="M258.3991,-374.5574C241.4252,-374.0936 223.4645,-373.6029 207.018,-373.1535"/>
<polygon fill="#191970" stroke="#191970" points="258.7259,-378.0675 268.8178,-374.842 258.9172,-371.0701 258.7259,-378.0675"/>
</g>
<!-- Node112&#45;&gt;Node109 -->
<g id="edge12" class="edge">
<title>Node112&#45;&gt;Node109</title>
<path fill="none" stroke="#191970" d="M94.701,-351.3966C88.2365,-347.4438 82.1127,-342.8329 77,-337.5 42.6517,-301.6722 27.2505,-241.5499 22.3457,-218.1912"/>
<polygon fill="#191970" stroke="#191970" points="93.2244,-354.5803 103.6644,-356.3849 96.6284,-348.4637 93.2244,-354.5803"/>
</g>
<!-- Node112&#45;&gt;Node112 -->
<g id="edge13" class="edge">
<title>Node112&#45;&gt;Node112</title>
<path fill="none" stroke="#191970" d="M168.8887,-396.9579C166.1099,-401.679 158.647,-405 146.5,-405 126.5664,-405 119.247,-396.0566 124.5419,-386.659"/>
<polygon fill="#191970" stroke="#191970" points="172.3729,-396.504 168.4581,-386.659 165.379,-396.7965 172.3729,-396.504"/>
</g>
<!-- Node113&#45;&gt;Node109 -->
<g id="edge16" class="edge">
<title>Node113&#45;&gt;Node109</title>
<path fill="none" stroke="#191970" d="M122.3912,-114.6954C94.8684,-140.0339 51.0794,-180.3476 31.0834,-198.7566"/>
<polygon fill="#191970" stroke="#191970" points="125.0413,-117.0131 130.0277,-107.665 120.3001,-111.8631 125.0413,-117.0131"/>
</g>
<!-- Node113&#45;&gt;Node113 -->
<g id="edge15" class="edge">
<title>Node113&#45;&gt;Node113</title>
<path fill="none" stroke="#191970" d="M168.8887,-117.9579C166.1099,-122.679 158.647,-126 146.5,-126 126.5664,-126 119.247,-117.0566 124.5419,-107.659"/>
<polygon fill="#191970" stroke="#191970" points="172.3729,-117.504 168.4581,-107.659 165.379,-117.7965 172.3729,-117.504"/>
</g>
<!-- Node114&#45;&gt;Node108 -->
<g id="edge18" class="edge">
<title>Node114&#45;&gt;Node108</title>
<path fill="none" stroke="#191970" d="M248.4419,-302.8559C234.544,-301.7167 220.3204,-300.5509 207.0765,-299.4653"/>
<polygon fill="#191970" stroke="#191970" points="248.233,-306.3504 258.4855,-303.6791 248.8049,-299.3738 248.233,-306.3504"/>
</g>
<!-- Node114&#45;&gt;Node110 -->
<g id="edge19" class="edge">
<title>Node114&#45;&gt;Node110</title>
<path fill="none" stroke="#191970" d="M293.1195,-289.4212C257.9617,-270.0171 205.4969,-241.0611 173.785,-223.5589"/>
<polygon fill="#191970" stroke="#191970" points="291.6567,-292.6115 302.1031,-294.3793 295.0392,-286.4829 291.6567,-292.6115"/>
</g>
<!-- Node114&#45;&gt;Node112 -->
<g id="edge21" class="edge">
<title>Node114&#45;&gt;Node112</title>
<path fill="none" stroke="#191970" d="M275.5482,-327.7788C248.6449,-336.8935 216.5019,-347.7835 191.0255,-356.4149"/>
<polygon fill="#191970" stroke="#191970" points="276.8527,-331.0323 285.2008,-324.5085 274.6065,-324.4024 276.8527,-331.0323"/>
</g>
<!-- Node114&#45;&gt;Node114 -->
<g id="edge20" class="edge">
<title>Node114&#45;&gt;Node114</title>
<path fill="none" stroke="#191970" d="M361.8392,-334.9579C357.8254,-339.679 347.0457,-343 329.5,-343 300.707,-343 290.1346,-334.0566 297.7827,-324.659"/>
<polygon fill="#191970" stroke="#191970" points="365.3138,-334.4298 361.2173,-324.659 358.3265,-334.8518 365.3138,-334.4298"/>
</g>
<!-- Node115&#45;&gt;Node113 -->
<g id="edge23" class="edge">
<title>Node115&#45;&gt;Node113</title>
<path fill="none" stroke="#191970" d="M241.8063,-92.5C233.1818,-92.5 224.5121,-92.5 216.1045,-92.5"/>
<polygon fill="#191970" stroke="#191970" points="241.8916,-96.0001 251.8915,-92.5 241.8915,-89.0001 241.8916,-96.0001"/>
</g>
<!-- Node115&#45;&gt;Node115 -->
<g id="edge24" class="edge">
<title>Node115&#45;&gt;Node115</title>
<path fill="none" stroke="#191970" d="M360.812,-123.3561C356.1556,-128.1966 345.7183,-131.5 329.5,-131.5 303.5508,-131.5 292.4007,-123.0433 296.0498,-113.3644"/>
<polygon fill="#191970" stroke="#191970" points="364.28,-123.8755 362.9502,-113.3644 357.435,-122.4106 364.28,-123.8755"/>
</g>
<!-- Node116&#45;&gt;Node110 -->
<g id="edge26" class="edge">
<title>Node116&#45;&gt;Node110</title>
<path fill="none" stroke="#191970" d="M258.3991,-205.4426C241.4252,-205.9064 223.4645,-206.3971 207.018,-206.8465"/>
<polygon fill="#191970" stroke="#191970" points="258.9172,-208.9299 268.8178,-205.158 258.7259,-201.9325 258.9172,-208.9299"/>
</g>
<!-- Node116&#45;&gt;Node116 -->
<g id="edge27" class="edge">
<title>Node116&#45;&gt;Node116</title>
<path fill="none" stroke="#191970" d="M361.8392,-228.9579C357.8254,-233.679 347.0457,-237 329.5,-237 300.707,-237 290.1346,-228.0566 297.7827,-218.659"/>
<polygon fill="#191970" stroke="#191970" points="365.3138,-228.4298 361.2173,-218.659 358.3265,-228.8518 365.3138,-228.4298"/>
</g>
<!-- Node117&#45;&gt;Node109 -->
<g id="edge30" class="edge">
<title>Node117&#45;&gt;Node109</title>
<path fill="none" stroke="#191970" d="M111.9206,-36.2991C99.6258,-45.0241 86.4937,-56.0487 77,-68.5 44.5803,-111.0193 27.9515,-174.6748 22.5336,-198.7806"/>
<polygon fill="#191970" stroke="#191970" points="113.9443,-39.1555 120.2437,-30.6367 110.0069,-33.3678 113.9443,-39.1555"/>
</g>
<!-- Node117&#45;&gt;Node117 -->
<g id="edge31" class="edge">
<title>Node117&#45;&gt;Node117</title>
<path fill="none" stroke="#191970" d="M168.8887,-40.9579C166.1099,-45.679 158.647,-49 146.5,-49 126.5664,-49 119.247,-40.0566 124.5419,-30.659"/>
<polygon fill="#191970" stroke="#191970" points="172.3729,-40.504 168.4581,-30.659 165.379,-40.7965 172.3729,-40.504"/>
</g>
</g>
</svg>
