<?xml version="1.0" encoding="UTF-8" standalone="no"?>
<!DOCTYPE svg PUBLIC "-//W3C//DTD SVG 1.1//EN"
 "http://www.w3.org/Graphics/SVG/1.1/DTD/svg11.dtd">
<!-- Generated by graphviz version 2.40.1 (20161225.0304)
 -->
<!-- Title: hydrogen_framework::Graph::addBranchEdges Pages: 1 -->
<svg width="528pt" height="122pt"
 viewBox="0.00 0.00 528.00 121.50" xmlns="http://www.w3.org/2000/svg" xmlns:xlink="http://www.w3.org/1999/xlink">
<g id="graph0" class="graph" transform="scale(1 1) rotate(0) translate(4 117.5)">
<title>hydrogen_framework::Graph::addBranchEdges</title>
<!-- Node4 -->
<g id="node1" class="node">
<title>Node4</title>
<g id="a_node1"><a xlink:title=" ">
<polygon fill="#bfbfbf" stroke="#000000" points="0,-24.5 0,-54.5 139,-54.5 139,-24.5 0,-24.5"/>
<text text-anchor="start" x="8" y="-42.5" font-family="Helvetica,sans-Serif" font-size="10.00" fill="#000000">hydrogen_framework</text>
<text text-anchor="middle" x="69.5" y="-31.5" font-family="Helvetica,sans-Serif" font-size="10.00" fill="#000000">::Graph::addBranchEdges</text>
</a>
</g>
</g>
<!-- Node5 -->
<g id="node2" class="node">
<title>Node5</title>
<g id="a_node2"><a xlink:href="../../d4/d7a/classhydrogen__framework_1_1Graph.html#ab2ca1cb2b3ca08c12139e86389d34038" target="_top" xlink:title=" ">
<polygon fill="none" stroke="#000000" points="199,-49.5 199,-79.5 320,-79.5 320,-49.5 199,-49.5"/>
<text text-anchor="start" x="207" y="-67.5" font-family="Helvetica,sans-Serif" font-size="10.00" fill="#000000">hydrogen_framework</text>
<text text-anchor="middle" x="259.5" y="-56.5" font-family="Helvetica,sans-Serif" font-size="10.00" fill="#000000">::Graph::addEdge</text>
</a>
</g>
</g>
<!-- Node4&#45;&gt;Node5 -->
<g id="edge1" class="edge">
<title>Node4&#45;&gt;Node5</title>
<path fill="none" stroke="#191970" d="M139.1701,-48.6671C155.3959,-50.8021 172.6851,-53.077 188.9486,-55.2169"/>
<polygon fill="#191970" stroke="#191970" points="188.5526,-58.6949 198.9237,-56.5294 189.4658,-51.7547 188.5526,-58.6949"/>
</g>
<!-- Node8 -->
<g id="node5" class="node">
<title>Node8</title>
<g id="a_node5"><a xlink:href="../../d4/d7a/classhydrogen__framework_1_1Graph.html#adb36fd35cf85b483ee8ae719b8b00880" target="_top" xlink:title=" ">
<polygon fill="none" stroke="#000000" points="175,-.5 175,-30.5 344,-30.5 344,-.5 175,-.5"/>
<text text-anchor="start" x="183" y="-18.5" font-family="Helvetica,sans-Serif" font-size="10.00" fill="#000000">hydrogen_framework</text>
<text text-anchor="middle" x="259.5" y="-7.5" font-family="Helvetica,sans-Serif" font-size="10.00" fill="#000000">::Graph::findMatchedInstruction</text>
</a>
</g>
</g>
<!-- Node4&#45;&gt;Node8 -->
<g id="edge4" class="edge">
<title>Node4&#45;&gt;Node8</title>
<path fill="none" stroke="#191970" d="M139.1701,-30.6996C147.5436,-29.6419 156.2004,-28.5484 164.8532,-27.4554"/>
<polygon fill="#191970" stroke="#191970" points="165.5094,-30.9004 174.9919,-26.1747 164.6321,-23.9556 165.5094,-30.9004"/>
</g>
<!-- Node6 -->
<g id="node3" class="node">
<title>Node6</title>
<g id="a_node3"><a xlink:href="../../da/df5/classhydrogen__framework_1_1Graph__Instruction.html#ade4352d83d22adfdfba4a5c45f3b7292" target="_top" xlink:title=" ">
<polygon fill="none" stroke="#000000" points="389,-72 389,-113 511,-113 511,-72 389,-72"/>
<text text-anchor="start" x="397" y="-101" font-family="Helvetica,sans-Serif" font-size="10.00" fill="#000000">hydrogen_framework</text>
<text text-anchor="start" x="397" y="-90" font-family="Helvetica,sans-Serif" font-size="10.00" fill="#000000">::Graph_Instruction</text>
<text text-anchor="middle" x="450" y="-79" font-family="Helvetica,sans-Serif" font-size="10.00" fill="#000000">::pushEdgeInstruction</text>
</a>
</g>
</g>
<!-- Node5&#45;&gt;Node6 -->
<g id="edge2" class="edge">
<title>Node5&#45;&gt;Node6</title>
<path fill="none" stroke="#191970" d="M320.0371,-73.3978C338.7778,-76.1524 359.5955,-79.2122 378.9791,-82.0612"/>
<polygon fill="#191970" stroke="#191970" points="378.5635,-85.5377 388.9662,-83.5292 379.5815,-78.6121 378.5635,-85.5377"/>
</g>
<!-- Node7 -->
<g id="node4" class="node">
<title>Node7</title>
<g id="a_node4"><a xlink:href="../../d4/d7a/classhydrogen__framework_1_1Graph.html#a654ec603b3fb6fcaaabc1419a18e0b96" target="_top" xlink:title=" ">
<polygon fill="none" stroke="#000000" points="380,-22.5 380,-52.5 520,-52.5 520,-22.5 380,-22.5"/>
<text text-anchor="start" x="388" y="-40.5" font-family="Helvetica,sans-Serif" font-size="10.00" fill="#000000">hydrogen_framework</text>
<text text-anchor="middle" x="450" y="-29.5" font-family="Helvetica,sans-Serif" font-size="10.00" fill="#000000">::Graph::pushGraphEdges</text>
</a>
</g>
</g>
<!-- Node5&#45;&gt;Node7 -->
<g id="edge3" class="edge">
<title>Node5&#45;&gt;Node7</title>
<path fill="none" stroke="#191970" d="M320.0371,-55.9199C335.826,-53.6821 353.0891,-51.2354 369.7269,-48.8773"/>
<polygon fill="#191970" stroke="#191970" points="370.5768,-52.2919 379.9867,-47.4231 369.5945,-45.3612 370.5768,-52.2919"/>
</g>
</g>
</svg>
