<?xml version="1.0" encoding="UTF-8" standalone="no"?>
<!DOCTYPE svg PUBLIC "-//W3C//DTD SVG 1.1//EN"
 "http://www.w3.org/Graphics/SVG/1.1/DTD/svg11.dtd">
<!-- Generated by graphviz version 2.40.1 (20161225.0304)
 -->
<!-- Title: hydrogen_framework::Graph::addSeqEdges Pages: 1 -->
<!--zoomable 122 -->
<svg id="main" version="1.1" xmlns="http://www.w3.org/2000/svg" xmlns:xlink="http://www.w3.org/1999/xlink" xml:space="preserve" onload="init(evt)">
<style type="text/css"><![CDATA[
.edge:hover path { stroke: red; }
.edge:hover polygon { stroke: red; fill: red; }
]]></style>
<script type="text/javascript"><![CDATA[
var edges = document.getElementsByTagName('g');
if (edges && edges.length) {
  for (var i=0;i<edges.length;i++) {
    if (edges[i].id.substr(0,4)=='edge') {
      edges[i].setAttribute('class','edge');
    }
  }
}
]]></script>
        <defs>
                <circle id="rim" cx="0" cy="0" r="7"/>
                <circle id="rim2" cx="0" cy="0" r="3.5"/>
                <g id="zoomPlus">
                        <use xlink:href="#rim" fill="#404040">
                                <set attributeName="fill" to="#808080" begin="zoomplus.mouseover" end="zoomplus.mouseout"/>
                        </use>
                        <path d="M-4,0h8M0,-4v8" fill="none" stroke="white" stroke-width="1.5" pointer-events="none"/>
                </g>
                <g id="zoomMin">
                        <use xlink:href="#rim" fill="#404040">
                                <set attributeName="fill" to="#808080" begin="zoomminus.mouseover" end="zoomminus.mouseout"/>
                        </use>
                        <path d="M-4,0h8" fill="none" stroke="white" stroke-width="1.5" pointer-events="none"/>
                </g>
                <g id="dirArrow">
                        <path fill="none" stroke="white" stroke-width="1.5" d="M0,-3.0v7 M-2.5,-0.5L0,-3.0L2.5,-0.5"/>
                </g>
               <g id="resetDef">
                       <use xlink:href="#rim2" fill="#404040">
                               <set attributeName="fill" to="#808080" begin="reset.mouseover" end="reset.mouseout"/>
                       </use>
               </g>
        </defs>

<script type="text/javascript">
var viewWidth = 519;
var viewHeight = 122;
var sectionId = 'dynsection-7';
</script>
<script xlink:href="../../svgpan.js"/>
<svg id="graph" class="graph">
<g id="viewport">
<title>hydrogen_framework::Graph::addSeqEdges</title>
<!-- Node48 -->
<g id="node1" class="node">
<title>Node48</title>
<g id="a_node1"><a xlink:title=" ">
<polygon fill="#bfbfbf" stroke="#000000" points="0,-24.5 0,-54.5 123,-54.5 123,-24.5 0,-24.5"/>
<text text-anchor="start" x="8" y="-42.5" font-family="Helvetica,sans-Serif" font-size="10.00" fill="#000000">hydrogen_framework</text>
<text text-anchor="middle" x="61.5" y="-31.5" font-family="Helvetica,sans-Serif" font-size="10.00" fill="#000000">::Graph::addSeqEdges</text>
</a>
</g>
</g>
<!-- Node49 -->
<g id="node2" class="node">
<title>Node49</title>
<g id="a_node2"><a xlink:href="../../d4/d7a/classhydrogen__framework_1_1Graph.html#ab2ca1cb2b3ca08c12139e86389d34038" target="_top" xlink:title=" ">
<polygon fill="none" stroke="#000000" points="186.5,-49.5 186.5,-79.5 307.5,-79.5 307.5,-49.5 186.5,-49.5"/>
<text text-anchor="start" x="194.5" y="-67.5" font-family="Helvetica,sans-Serif" font-size="10.00" fill="#000000">hydrogen_framework</text>
<text text-anchor="middle" x="247" y="-56.5" font-family="Helvetica,sans-Serif" font-size="10.00" fill="#000000">::Graph::addEdge</text>
</a>
</g>
</g>
<!-- Node48&#45;&gt;Node49 -->
<g id="edge1" class="edge">
<title>Node48&#45;&gt;Node49</title>
<path fill="none" stroke="#191970" d="M123.0112,-47.7899C140.0262,-50.083 158.6294,-52.5902 176.1304,-54.9488"/>
<polygon fill="#191970" stroke="#191970" points="175.909,-58.4506 186.2869,-56.3176 176.844,-51.5133 175.909,-58.4506"/>
</g>
<!-- Node52 -->
<g id="node5" class="node">
<title>Node52</title>
<g id="a_node5"><a xlink:href="../../d8/d0b/classhydrogen__framework_1_1Graph__Line.html#af0f712f66ed43d42a1daf4905b3ace16" target="_top" xlink:title=" ">
<polygon fill="none" stroke="#000000" points="159,-.5 159,-30.5 335,-30.5 335,-.5 159,-.5"/>
<text text-anchor="start" x="167" y="-18.5" font-family="Helvetica,sans-Serif" font-size="10.00" fill="#000000">hydrogen_framework</text>
<text text-anchor="middle" x="247" y="-7.5" font-family="Helvetica,sans-Serif" font-size="10.00" fill="#000000">::Graph_Line::getLineInstructions</text>
</a>
</g>
</g>
<!-- Node48&#45;&gt;Node52 -->
<g id="edge4" class="edge">
<title>Node48&#45;&gt;Node52</title>
<path fill="none" stroke="#191970" d="M123.0112,-31.5417C131.3634,-30.4611 140.0983,-29.331 148.8976,-28.1925"/>
<polygon fill="#191970" stroke="#191970" points="149.3745,-31.66 158.8428,-26.9058 148.4763,-24.7179 149.3745,-31.66"/>
</g>
<!-- Node50 -->
<g id="node3" class="node">
<title>Node50</title>
<g id="a_node3"><a xlink:href="../../da/df5/classhydrogen__framework_1_1Graph__Instruction.html#ade4352d83d22adfdfba4a5c45f3b7292" target="_top" xlink:title=" ">
<polygon fill="none" stroke="#000000" points="380,-72 380,-113 502,-113 502,-72 380,-72"/>
<text text-anchor="start" x="388" y="-101" font-family="Helvetica,sans-Serif" font-size="10.00" fill="#000000">hydrogen_framework</text>
<text text-anchor="start" x="388" y="-90" font-family="Helvetica,sans-Serif" font-size="10.00" fill="#000000">::Graph_Instruction</text>
<text text-anchor="middle" x="441" y="-79" font-family="Helvetica,sans-Serif" font-size="10.00" fill="#000000">::pushEdgeInstruction</text>
</a>
</g>
</g>
<!-- Node49&#45;&gt;Node50 -->
<g id="edge2" class="edge">
<title>Node49&#45;&gt;Node50</title>
<path fill="none" stroke="#191970" d="M307.5848,-73.2442C327.3619,-76.0986 349.5016,-79.294 369.9747,-82.2489"/>
<polygon fill="#191970" stroke="#191970" points="369.4761,-85.7132 379.8736,-83.6776 370.4761,-78.7849 369.4761,-85.7132"/>
</g>
<!-- Node51 -->
<g id="node4" class="node">
<title>Node51</title>
<g id="a_node4"><a xlink:href="../../d4/d7a/classhydrogen__framework_1_1Graph.html#a654ec603b3fb6fcaaabc1419a18e0b96" target="_top" xlink:title=" ">
<polygon fill="none" stroke="#000000" points="371,-22.5 371,-52.5 511,-52.5 511,-22.5 371,-22.5"/>
<text text-anchor="start" x="379" y="-40.5" font-family="Helvetica,sans-Serif" font-size="10.00" fill="#000000">hydrogen_framework</text>
<text text-anchor="middle" x="441" y="-29.5" font-family="Helvetica,sans-Serif" font-size="10.00" fill="#000000">::Graph::pushGraphEdges</text>
</a>
</g>
</g>
<!-- Node49&#45;&gt;Node51 -->
<g id="edge3" class="edge">
<title>Node49&#45;&gt;Node51</title>
<path fill="none" stroke="#191970" d="M307.5848,-56.0681C324.3132,-53.7399 342.732,-51.1765 360.4028,-48.7171"/>
<polygon fill="#191970" stroke="#191970" points="361.2802,-52.1288 370.7023,-47.2837 360.3152,-45.1957 361.2802,-52.1288"/>
</g>
</g>
</svg>
        <g id="navigator" transform="translate(0 0)" fill="#404254">
                <rect fill="#f2f5e9" fill-opacity="0.5" stroke="#606060" stroke-width=".5" x="0" y="0" width="60" height="60"/>
                <use id="zoomplus" xlink:href="#zoomPlus" x="17" y="9" onmousedown="handleZoom(evt,'in')"/>
                <use id="zoomminus" xlink:href="#zoomMin" x="42" y="9" onmousedown="handleZoom(evt,'out')"/>
                <use id="reset" xlink:href="#resetDef" x="30" y="36" onmousedown="handleReset()"/>
                <g id="arrowUp" xlink:href="#dirArrow" transform="translate(30 24)" onmousedown="handlePan(0,-1)">
                  <use xlink:href="#rim" fill="#404040">
                        <set attributeName="fill" to="#808080" begin="arrowUp.mouseover" end="arrowUp.mouseout"/>
                  </use>
                  <path fill="none" stroke="white" stroke-width="1.5" d="M0,-3.0v7 M-2.5,-0.5L0,-3.0L2.5,-0.5"/>
                </g>
                <g id="arrowRight" xlink:href="#dirArrow" transform="rotate(90) translate(36 -43)" onmousedown="handlePan(1,0)">
                  <use xlink:href="#rim" fill="#404040">
                        <set attributeName="fill" to="#808080" begin="arrowRight.mouseover" end="arrowRight.mouseout"/>
                  </use>
                  <path fill="none" stroke="white" stroke-width="1.5" d="M0,-3.0v7 M-2.5,-0.5L0,-3.0L2.5,-0.5"/>
                </g>
                <g id="arrowDown" xlink:href="#dirArrow" transform="rotate(180) translate(-30 -48)" onmousedown="handlePan(0,1)">
                  <use xlink:href="#rim" fill="#404040">
                        <set attributeName="fill" to="#808080" begin="arrowDown.mouseover" end="arrowDown.mouseout"/>
                  </use>
                  <path fill="none" stroke="white" stroke-width="1.5" d="M0,-3.0v7 M-2.5,-0.5L0,-3.0L2.5,-0.5"/>
                </g>
                <g id="arrowLeft" xlink:href="#dirArrow" transform="rotate(270) translate(-36 17)" onmousedown="handlePan(-1,0)">
                  <use xlink:href="#rim" fill="#404040">
                        <set attributeName="fill" to="#808080" begin="arrowLeft.mouseover" end="arrowLeft.mouseout"/>
                  </use>
                  <path fill="none" stroke="white" stroke-width="1.5" d="M0,-3.0v7 M-2.5,-0.5L0,-3.0L2.5,-0.5"/>
                </g>
        </g>
        <svg viewBox="0 0 15 15" width="100%" height="30px" preserveAspectRatio="xMaxYMin meet">
         <g id="arrow_out" transform="scale(0.3 0.3)">
          <a xlink:href="classhydrogen__framework_1_1Graph_a184878f1c0abbef7b5fb17548cb8d146_cgraph_org.svg" target="_base">
           <rect id="button" ry="5" rx="5" y="6" x="6" height="38" width="38"
                fill="#f2f5e9" fill-opacity="0.5" stroke="#606060" stroke-width="1.0"/>
           <path id="arrow"
             d="M 11.500037,31.436501 C 11.940474,20.09759 22.043105,11.32322 32.158766,21.979434 L 37.068811,17.246167 C 37.068811,17.246167 37.088388,32 37.088388,32 L 22.160133,31.978069 C 22.160133,31.978069 26.997745,27.140456 26.997745,27.140456 C 18.528582,18.264221 13.291696,25.230495 11.500037,31.436501 z"
             style="fill:#404040;"/>
          </a>
         </g>
        </svg>
</svg>
