<?xml version="1.0" encoding="UTF-8" standalone="no"?>
<!DOCTYPE svg PUBLIC "-//W3C//DTD SVG 1.1//EN"
 "http://www.w3.org/Graphics/SVG/1.1/DTD/svg11.dtd">
<!-- Generated by graphviz version 2.40.1 (20161225.0304)
 -->
<!-- Title: hydrogen_framework::Graph::isVirtualNodeLineNumber Pages: 1 -->
<svg width="552pt" height="217pt"
 viewBox="0.00 0.00 552.00 217.00" xmlns="http://www.w3.org/2000/svg" xmlns:xlink="http://www.w3.org/1999/xlink">
<g id="graph0" class="graph" transform="scale(1 1) rotate(0) translate(4 212.995)">
<title>hydrogen_framework::Graph::isVirtualNodeLineNumber</title>
<!-- Node131 -->
<g id="node1" class="node">
<title>Node131</title>
<g id="a_node1"><a xlink:title=" ">
<polygon fill="#bfbfbf" stroke="#000000" points="400,-31.995 400,-72.995 544,-72.995 544,-31.995 400,-31.995"/>
<text text-anchor="start" x="408" y="-60.995" font-family="Helvetica,sans-Serif" font-size="10.00" fill="#000000">hydrogen_framework</text>
<text text-anchor="start" x="408" y="-49.995" font-family="Helvetica,sans-Serif" font-size="10.00" fill="#000000">::Graph::isVirtualNodeLine</text>
<text text-anchor="middle" x="472" y="-38.995" font-family="Helvetica,sans-Serif" font-size="10.00" fill="#000000">Number</text>
</a>
</g>
</g>
<!-- Node132 -->
<g id="node2" class="node">
<title>Node132</title>
<g id="a_node2"><a xlink:href="../../db/d17/MVICFG_8cpp.html#aca7226f27a892ce8314159fbd4eaeeb1" target="_top" xlink:title=" ">
<polygon fill="none" stroke="#000000" points="238.5,-82.495 238.5,-112.495 359.5,-112.495 359.5,-82.495 238.5,-82.495"/>
<text text-anchor="start" x="246.5" y="-100.495" font-family="Helvetica,sans-Serif" font-size="10.00" fill="#000000">hydrogen_framework</text>
<text text-anchor="middle" x="299" y="-89.495" font-family="Helvetica,sans-Serif" font-size="10.00" fill="#000000">::findMatchedLine</text>
</a>
</g>
</g>
<!-- Node131&#45;&gt;Node132 -->
<g id="edge1" class="edge">
<title>Node131&#45;&gt;Node132</title>
<path fill="none" stroke="#191970" d="M390.0529,-73.8108C378.8125,-76.7346 367.4694,-79.6851 356.7855,-82.4641"/>
<polygon fill="#191970" stroke="#191970" points="391.0883,-77.158 399.8851,-71.2532 389.3261,-70.3834 391.0883,-77.158"/>
</g>
<!-- Node137 -->
<g id="node7" class="node">
<title>Node137</title>
<g id="a_node7"><a xlink:href="../../db/d17/MVICFG_8cpp.html#a2ebefd41917d6565942bb86ec72f6adc" target="_top" xlink:title=" ">
<polygon fill="none" stroke="#000000" points="234,-4.495 234,-34.495 364,-34.495 364,-4.495 234,-4.495"/>
<text text-anchor="start" x="242" y="-22.495" font-family="Helvetica,sans-Serif" font-size="10.00" fill="#000000">hydrogen_framework</text>
<text text-anchor="middle" x="299" y="-11.495" font-family="Helvetica,sans-Serif" font-size="10.00" fill="#000000">::updateMVICFGVersion</text>
</a>
</g>
</g>
<!-- Node131&#45;&gt;Node137 -->
<g id="edge12" class="edge">
<title>Node131&#45;&gt;Node137</title>
<path fill="none" stroke="#191970" d="M389.8045,-36.8161C381.1774,-35.1705 372.493,-33.5139 364.0958,-31.9122"/>
<polygon fill="#191970" stroke="#191970" points="389.4064,-40.3032 399.8851,-38.739 390.7181,-33.4272 389.4064,-40.3032"/>
</g>
<!-- Node132&#45;&gt;Node132 -->
<g id="edge8" class="edge">
<title>Node132&#45;&gt;Node132</title>
<path fill="none" stroke="#191970" d="M327.4301,-122.9529C323.9015,-127.674 314.4248,-130.995 299,-130.995 273.6875,-130.995 264.3931,-122.0516 271.1167,-112.654"/>
<polygon fill="#191970" stroke="#191970" points="330.9086,-122.4544 326.8833,-112.654 323.9185,-122.8256 330.9086,-122.4544"/>
</g>
<!-- Node133 -->
<g id="node3" class="node">
<title>Node133</title>
<g id="a_node3"><a xlink:href="../../db/d17/MVICFG_8cpp.html#a40d68c502d0833e919395ded787b4599" target="_top" xlink:title=" ">
<polygon fill="none" stroke="#000000" points="77,-160.495 77,-190.495 198,-190.495 198,-160.495 77,-160.495"/>
<text text-anchor="start" x="85" y="-178.495" font-family="Helvetica,sans-Serif" font-size="10.00" fill="#000000">hydrogen_framework</text>
<text text-anchor="middle" x="137.5" y="-167.495" font-family="Helvetica,sans-Serif" font-size="10.00" fill="#000000">::addToMVICFG</text>
</a>
</g>
</g>
<!-- Node132&#45;&gt;Node133 -->
<g id="edge2" class="edge">
<title>Node132&#45;&gt;Node133</title>
<path fill="none" stroke="#191970" d="M263.857,-117.5495C244.6637,-128.1789 220.3214,-141.141 198,-151.495 191.4396,-154.5381 184.3781,-157.5597 177.4762,-160.3803"/>
<polygon fill="#191970" stroke="#191970" points="265.807,-120.4695 272.8342,-112.5406 262.3962,-114.3567 265.807,-120.4695"/>
</g>
<!-- Node135 -->
<g id="node5" class="node">
<title>Node135</title>
<g id="a_node5"><a xlink:href="../../db/d17/MVICFG_8cpp.html#ac6a97f6b1392ad5517822076e830168f" target="_top" xlink:title=" ">
<polygon fill="none" stroke="#000000" points="77,-93.495 77,-123.495 198,-123.495 198,-93.495 77,-93.495"/>
<text text-anchor="start" x="85" y="-111.495" font-family="Helvetica,sans-Serif" font-size="10.00" fill="#000000">hydrogen_framework</text>
<text text-anchor="middle" x="137.5" y="-100.495" font-family="Helvetica,sans-Serif" font-size="10.00" fill="#000000">::deleteFromMVICFG</text>
</a>
</g>
</g>
<!-- Node132&#45;&gt;Node135 -->
<g id="edge5" class="edge">
<title>Node132&#45;&gt;Node135</title>
<path fill="none" stroke="#191970" d="M228.4168,-102.3026C218.3343,-102.9893 208.037,-103.6907 198.1671,-104.3629"/>
<polygon fill="#191970" stroke="#191970" points="228.6649,-105.7939 238.4039,-101.6223 228.1891,-98.8101 228.6649,-105.7939"/>
</g>
<!-- Node136 -->
<g id="node6" class="node">
<title>Node136</title>
<g id="a_node6"><a xlink:href="../../db/d17/MVICFG_8cpp.html#a27bf2e73daf11e2ad6363e34bd06de89" target="_top" xlink:title=" ">
<polygon fill="none" stroke="#000000" points="77,-26.495 77,-56.495 198,-56.495 198,-26.495 77,-26.495"/>
<text text-anchor="start" x="85" y="-44.495" font-family="Helvetica,sans-Serif" font-size="10.00" fill="#000000">hydrogen_framework</text>
<text text-anchor="middle" x="137.5" y="-33.495" font-family="Helvetica,sans-Serif" font-size="10.00" fill="#000000">::matchedInMVICFG</text>
</a>
</g>
</g>
<!-- Node132&#45;&gt;Node136 -->
<g id="edge9" class="edge">
<title>Node132&#45;&gt;Node136</title>
<path fill="none" stroke="#191970" d="M246.2333,-79.1982C225.0823,-71.8642 201.0084,-63.5165 180.8985,-56.5434"/>
<polygon fill="#191970" stroke="#191970" points="245.1262,-82.5187 255.721,-82.4881 247.4195,-75.905 245.1262,-82.5187"/>
</g>
<!-- Node133&#45;&gt;Node133 -->
<g id="edge3" class="edge">
<title>Node133&#45;&gt;Node133</title>
<path fill="none" stroke="#191970" d="M158.1118,-200.9529C155.5536,-205.674 148.683,-208.995 137.5,-208.995 119.1484,-208.995 112.41,-200.0516 117.2846,-190.654"/>
<polygon fill="#191970" stroke="#191970" points="161.5975,-200.512 157.7154,-190.654 154.6027,-200.7813 161.5975,-200.512"/>
</g>
<!-- Node134 -->
<g id="node4" class="node">
<title>Node134</title>
<g id="a_node4"><a xlink:href="../../de/d64/Hydrogen_8cpp.html#a0ddf1224851353fc92bfbff6f499fa97" target="_top" xlink:title=" ">
<polygon fill="none" stroke="#000000" points="0,-64.995 0,-83.995 41,-83.995 41,-64.995 0,-64.995"/>
<text text-anchor="middle" x="20.5" y="-71.995" font-family="Helvetica,sans-Serif" font-size="10.00" fill="#000000">main</text>
</a>
</g>
</g>
<!-- Node133&#45;&gt;Node134 -->
<g id="edge4" class="edge">
<title>Node133&#45;&gt;Node134</title>
<path fill="none" stroke="#191970" d="M82.5827,-155.4164C80.6492,-154.1764 78.7801,-152.8701 77,-151.495 52.462,-132.5409 33.625,-100.1915 25.2532,-84.1302"/>
<polygon fill="#191970" stroke="#191970" points="80.9741,-158.528 91.3959,-160.4353 84.4382,-152.4452 80.9741,-158.528"/>
</g>
<!-- Node135&#45;&gt;Node134 -->
<g id="edge7" class="edge">
<title>Node135&#45;&gt;Node134</title>
<path fill="none" stroke="#191970" d="M76.173,-90.6735C63.5232,-86.9975 51.0501,-83.3728 41.1269,-80.4892"/>
<polygon fill="#191970" stroke="#191970" points="75.262,-94.0535 85.8415,-93.4832 77.2155,-87.3316 75.262,-94.0535"/>
</g>
<!-- Node135&#45;&gt;Node135 -->
<g id="edge6" class="edge">
<title>Node135&#45;&gt;Node135</title>
<path fill="none" stroke="#191970" d="M158.1118,-133.9529C155.5536,-138.674 148.683,-141.995 137.5,-141.995 119.1484,-141.995 112.41,-133.0516 117.2846,-123.654"/>
<polygon fill="#191970" stroke="#191970" points="161.5975,-133.512 157.7154,-123.654 154.6027,-133.7813 161.5975,-133.512"/>
</g>
<!-- Node136&#45;&gt;Node134 -->
<g id="edge10" class="edge">
<title>Node136&#45;&gt;Node134</title>
<path fill="none" stroke="#191970" d="M74.4251,-59.2854C62.3374,-62.6948 50.5117,-66.0302 41.0294,-68.7047"/>
<polygon fill="#191970" stroke="#191970" points="75.4614,-62.6298 84.1357,-56.5465 73.5611,-55.8926 75.4614,-62.6298"/>
</g>
<!-- Node136&#45;&gt;Node136 -->
<g id="edge11" class="edge">
<title>Node136&#45;&gt;Node136</title>
<path fill="none" stroke="#191970" d="M158.1118,-66.9529C155.5536,-71.674 148.683,-74.995 137.5,-74.995 119.1484,-74.995 112.41,-66.0516 117.2846,-56.654"/>
<polygon fill="#191970" stroke="#191970" points="161.5975,-66.512 157.7154,-56.654 154.6027,-66.7813 161.5975,-66.512"/>
</g>
<!-- Node137&#45;&gt;Node134 -->
<g id="edge13" class="edge">
<title>Node137&#45;&gt;Node134</title>
<path fill="none" stroke="#191970" d="M223.5568,-3.797C179.1893,1.9148 122.9615,2.8965 77,-16.495 53.6867,-26.3311 35.225,-51.0095 26.3181,-64.7954"/>
<polygon fill="#191970" stroke="#191970" points="223.311,-7.2965 233.6984,-5.2105 224.2773,-.3635 223.311,-7.2965"/>
</g>
<!-- Node137&#45;&gt;Node137 -->
<g id="edge14" class="edge">
<title>Node137&#45;&gt;Node137</title>
<path fill="none" stroke="#191970" d="M327.4301,-44.9529C323.9015,-49.674 314.4248,-52.995 299,-52.995 273.6875,-52.995 264.3931,-44.0516 271.1167,-34.654"/>
<polygon fill="#191970" stroke="#191970" points="330.9086,-44.4544 326.8833,-34.654 323.9185,-44.8256 330.9086,-44.4544"/>
</g>
</g>
</svg>
