<?xml version="1.0" encoding="UTF-8" standalone="no"?>
<!DOCTYPE svg PUBLIC "-//W3C//DTD SVG 1.1//EN"
 "http://www.w3.org/Graphics/SVG/1.1/DTD/svg11.dtd">
<!-- Generated by graphviz version 2.40.1 (0)
 -->
<!-- Title: hydrogen_framework::Graph::addFunctionCallEdges Pages: 1 -->
<svg width="600pt" height="755pt"
 viewBox="0.00 0.00 600.00 754.50" xmlns="http://www.w3.org/2000/svg" xmlns:xlink="http://www.w3.org/1999/xlink">
<g id="graph0" class="graph" transform="scale(1 1) rotate(0) translate(4 750.5)">
<title>hydrogen_framework::Graph::addFunctionCallEdges</title>
<!-- Node25 -->
<g id="node1" class="node">
<title>Node25</title>
<g id="a_node1"><a xlink:title=" ">
<polygon fill="#bfbfbf" stroke="#000000" points="0,-352.5 0,-382.5 164,-382.5 164,-352.5 0,-352.5"/>
<text text-anchor="start" x="8" y="-370.5" font-family="Helvetica,sans-Serif" font-size="10.00" fill="#000000">hydrogen_framework</text>
<text text-anchor="middle" x="82" y="-359.5" font-family="Helvetica,sans-Serif" font-size="10.00" fill="#000000">::Graph::addFunctionCallEdges</text>
</a>
</g>
</g>
<!-- Node26 -->
<g id="node2" class="node">
<title>Node26</title>
<g id="a_node2"><a xlink:href="../../d4/d7a/classhydrogen__framework_1_1Graph.html#ab2ca1cb2b3ca08c12139e86389d34038" target="_top" xlink:title=" ">
<polygon fill="none" stroke="#000000" points="233.5,-683.5 233.5,-713.5 354.5,-713.5 354.5,-683.5 233.5,-683.5"/>
<text text-anchor="start" x="241.5" y="-701.5" font-family="Helvetica,sans-Serif" font-size="10.00" fill="#000000">hydrogen_framework</text>
<text text-anchor="middle" x="294" y="-690.5" font-family="Helvetica,sans-Serif" font-size="10.00" fill="#000000">::Graph::addEdge</text>
</a>
</g>
</g>
<!-- Node25&#45;&gt;Node26 -->
<g id="edge1" class="edge">
<title>Node25&#45;&gt;Node26</title>
<path fill="none" stroke="#191970" d="M83.0822,-382.6706C87.4841,-432.5774 108.4793,-593.1044 200,-674.5 206.8395,-680.5828 215.0111,-685.1646 223.6411,-688.6086"/>
<polygon fill="#191970" stroke="#191970" points="222.5493,-691.9344 233.1441,-691.9162 224.8504,-685.3234 222.5493,-691.9344"/>
</g>
<!-- Node29 -->
<g id="node5" class="node">
<title>Node29</title>
<g id="a_node5"><a xlink:href="../../d4/d7a/classhydrogen__framework_1_1Graph.html#abefc109240680016de3115072c917bf4" target="_top" xlink:title=" ">
<polygon fill="none" stroke="#000000" points="227,-634.5 227,-664.5 361,-664.5 361,-634.5 227,-634.5"/>
<text text-anchor="start" x="235" y="-652.5" font-family="Helvetica,sans-Serif" font-size="10.00" fill="#000000">hydrogen_framework</text>
<text text-anchor="middle" x="294" y="-641.5" font-family="Helvetica,sans-Serif" font-size="10.00" fill="#000000">::Graph::findVirtualEntry</text>
</a>
</g>
</g>
<!-- Node25&#45;&gt;Node29 -->
<g id="edge4" class="edge">
<title>Node25&#45;&gt;Node29</title>
<path fill="none" stroke="#191970" d="M84.3168,-382.7542C91.9325,-427.4338 120.4284,-559.0326 200,-625.5 205.211,-629.8528 211.1118,-633.4299 217.3558,-636.3676"/>
<polygon fill="#191970" stroke="#191970" points="216.1306,-639.6483 226.7094,-640.2301 218.8023,-633.1782 216.1306,-639.6483"/>
</g>
<!-- Node30 -->
<g id="node6" class="node">
<title>Node30</title>
<g id="a_node6"><a xlink:href="../../d4/d7a/classhydrogen__framework_1_1Graph.html#a88bbd90676112137b7ba2d50f363ab43" target="_top" xlink:title=" ">
<polygon fill="none" stroke="#000000" points="230.5,-585.5 230.5,-615.5 357.5,-615.5 357.5,-585.5 230.5,-585.5"/>
<text text-anchor="start" x="238.5" y="-603.5" font-family="Helvetica,sans-Serif" font-size="10.00" fill="#000000">hydrogen_framework</text>
<text text-anchor="middle" x="294" y="-592.5" font-family="Helvetica,sans-Serif" font-size="10.00" fill="#000000">::Graph::findVirtualExit</text>
</a>
</g>
</g>
<!-- Node25&#45;&gt;Node30 -->
<g id="edge5" class="edge">
<title>Node25&#45;&gt;Node30</title>
<path fill="none" stroke="#191970" d="M86.0265,-382.6135C97.1382,-421.2876 132.0089,-524.4473 200,-576.5 206.2062,-581.2514 213.2513,-585.0688 220.6271,-588.1347"/>
<polygon fill="#191970" stroke="#191970" points="219.515,-591.455 230.1084,-591.6301 221.9364,-584.8871 219.515,-591.455"/>
</g>
<!-- Node31 -->
<g id="node7" class="node">
<title>Node31</title>
<g id="a_node7"><a xlink:href="../../d4/d7a/classhydrogen__framework_1_1Graph.html#a3ec59eab4872c418d96b508dedcf0777" target="_top" xlink:title=" ">
<polygon fill="none" stroke="#000000" points="233.5,-536.5 233.5,-566.5 354.5,-566.5 354.5,-536.5 233.5,-536.5"/>
<text text-anchor="start" x="241.5" y="-554.5" font-family="Helvetica,sans-Serif" font-size="10.00" fill="#000000">hydrogen_framework</text>
<text text-anchor="middle" x="294" y="-543.5" font-family="Helvetica,sans-Serif" font-size="10.00" fill="#000000">::Graph::getNextID</text>
</a>
</g>
</g>
<!-- Node25&#45;&gt;Node31 -->
<g id="edge6" class="edge">
<title>Node25&#45;&gt;Node31</title>
<path fill="none" stroke="#191970" d="M88.6974,-382.539C103.7264,-414.4902 143.3151,-489.3275 200,-527.5 207.2068,-532.3532 215.3261,-536.225 223.6974,-539.3139"/>
<polygon fill="#191970" stroke="#191970" points="222.6273,-542.6464 233.2208,-542.4792 224.8352,-536.0037 222.6273,-542.6464"/>
</g>
<!-- Node32 -->
<g id="node8" class="node">
<title>Node32</title>
<g id="a_node8"><a xlink:href="../../d4/d7a/classhydrogen__framework_1_1Graph.html#abf52557d27f175106f187950cbcecc4e" target="_top" xlink:title=" ">
<polygon fill="none" stroke="#000000" points="233.5,-487.5 233.5,-517.5 354.5,-517.5 354.5,-487.5 233.5,-487.5"/>
<text text-anchor="start" x="241.5" y="-505.5" font-family="Helvetica,sans-Serif" font-size="10.00" fill="#000000">hydrogen_framework</text>
<text text-anchor="middle" x="294" y="-494.5" font-family="Helvetica,sans-Serif" font-size="10.00" fill="#000000">::Graph::getWhiteList</text>
</a>
</g>
</g>
<!-- Node25&#45;&gt;Node32 -->
<g id="edge7" class="edge">
<title>Node25&#45;&gt;Node32</title>
<path fill="none" stroke="#191970" d="M94.0499,-382.7912C113.6741,-406.6463 154.9033,-452.5622 200,-477.5 207.3288,-481.5527 215.3459,-484.9735 223.5095,-487.855"/>
<polygon fill="#191970" stroke="#191970" points="222.5352,-491.2187 233.1277,-490.9955 224.708,-484.5644 222.5352,-491.2187"/>
</g>
<!-- Node33 -->
<g id="node9" class="node">
<title>Node33</title>
<g id="a_node9"><a xlink:href="../../dc/d7a/classhydrogen__framework_1_1Graph__Function.html#ab8c42581be989318468e46db4341f4e9" target="_top" xlink:title=" ">
<polygon fill="none" stroke="#000000" points="210.5,-427 210.5,-468 377.5,-468 377.5,-427 210.5,-427"/>
<text text-anchor="start" x="218.5" y="-456" font-family="Helvetica,sans-Serif" font-size="10.00" fill="#000000">hydrogen_framework</text>
<text text-anchor="start" x="218.5" y="-445" font-family="Helvetica,sans-Serif" font-size="10.00" fill="#000000">::Graph_Function::pushFunction</text>
<text text-anchor="middle" x="294" y="-434" font-family="Helvetica,sans-Serif" font-size="10.00" fill="#000000">Lines</text>
</a>
</g>
</g>
<!-- Node25&#45;&gt;Node33 -->
<g id="edge8" class="edge">
<title>Node25&#45;&gt;Node33</title>
<path fill="none" stroke="#191970" d="M115.2411,-382.5516C138.7043,-392.9369 171.0003,-406.7542 200,-417.5 205.5568,-419.5591 211.3283,-421.6095 217.1551,-423.6159"/>
<polygon fill="#191970" stroke="#191970" points="216.3906,-427.0523 226.9849,-426.945 218.6361,-420.4222 216.3906,-427.0523"/>
</g>
<!-- Node35 -->
<g id="node11" class="node">
<title>Node35</title>
<g id="a_node11"><a xlink:href="../../d4/d7a/classhydrogen__framework_1_1Graph.html#a14501e0d4bc84338f8d136a7c3ec94d3" target="_top" xlink:title=" ">
<polygon fill="none" stroke="#000000" points="218.5,-377.5 218.5,-407.5 369.5,-407.5 369.5,-377.5 218.5,-377.5"/>
<text text-anchor="start" x="226.5" y="-395.5" font-family="Helvetica,sans-Serif" font-size="10.00" fill="#000000">hydrogen_framework</text>
<text text-anchor="middle" x="294" y="-384.5" font-family="Helvetica,sans-Serif" font-size="10.00" fill="#000000">::Graph::pushGraphFunction</text>
</a>
</g>
</g>
<!-- Node25&#45;&gt;Node35 -->
<g id="edge10" class="edge">
<title>Node25&#45;&gt;Node35</title>
<path fill="none" stroke="#191970" d="M164.2682,-377.2014C178.7369,-378.9077 193.8275,-380.6872 208.385,-382.4039"/>
<polygon fill="#191970" stroke="#191970" points="208.0228,-385.8853 218.3639,-383.5806 208.8426,-378.9335 208.0228,-385.8853"/>
</g>
<!-- Node37 -->
<g id="node13" class="node">
<title>Node37</title>
<g id="a_node13"><a xlink:href="../../d8/d0b/classhydrogen__framework_1_1Graph__Line.html#ab0b1293c760736cdf3e93c5d378449a0" target="_top" xlink:title=" ">
<polygon fill="none" stroke="#000000" points="204.5,-328.5 204.5,-358.5 383.5,-358.5 383.5,-328.5 204.5,-328.5"/>
<text text-anchor="start" x="212.5" y="-346.5" font-family="Helvetica,sans-Serif" font-size="10.00" fill="#000000">hydrogen_framework</text>
<text text-anchor="middle" x="294" y="-335.5" font-family="Helvetica,sans-Serif" font-size="10.00" fill="#000000">::Graph_Line::pushLineInstruction</text>
</a>
</g>
</g>
<!-- Node25&#45;&gt;Node37 -->
<g id="edge12" class="edge">
<title>Node25&#45;&gt;Node37</title>
<path fill="none" stroke="#191970" d="M164.2682,-358.1866C174.1322,-357.0699 184.2853,-355.9205 194.3614,-354.7798"/>
<polygon fill="#191970" stroke="#191970" points="194.8556,-358.2463 204.3984,-353.6436 194.0681,-351.2908 194.8556,-358.2463"/>
</g>
<!-- Node39 -->
<g id="node15" class="node">
<title>Node39</title>
<g id="a_node15"><a xlink:href="../../dc/d7a/classhydrogen__framework_1_1Graph__Function.html#addcfa453c83414c38958a0b4d2377697" target="_top" xlink:title=" ">
<polygon fill="none" stroke="#000000" points="206,-279.5 206,-309.5 382,-309.5 382,-279.5 206,-279.5"/>
<text text-anchor="start" x="214" y="-297.5" font-family="Helvetica,sans-Serif" font-size="10.00" fill="#000000">hydrogen_framework</text>
<text text-anchor="middle" x="294" y="-286.5" font-family="Helvetica,sans-Serif" font-size="10.00" fill="#000000">::Graph_Function::setFunctionFile</text>
</a>
</g>
</g>
<!-- Node25&#45;&gt;Node39 -->
<g id="edge14" class="edge">
<title>Node25&#45;&gt;Node39</title>
<path fill="none" stroke="#191970" d="M114.5804,-352.4849C138.0104,-342.0552 170.5389,-328.3214 200,-318.5 206.4413,-316.3527 213.1849,-314.2865 219.9759,-312.3291"/>
<polygon fill="#191970" stroke="#191970" points="221.2435,-315.6089 229.9296,-309.5425 219.3563,-308.8681 221.2435,-315.6089"/>
</g>
<!-- Node40 -->
<g id="node16" class="node">
<title>Node40</title>
<g id="a_node16"><a xlink:href="../../dc/d7a/classhydrogen__framework_1_1Graph__Function.html#a20e7d928dc29d5d84a1d06fe1c297bda" target="_top" xlink:title=" ">
<polygon fill="none" stroke="#000000" points="200,-230.5 200,-260.5 388,-260.5 388,-230.5 200,-230.5"/>
<text text-anchor="start" x="208" y="-248.5" font-family="Helvetica,sans-Serif" font-size="10.00" fill="#000000">hydrogen_framework</text>
<text text-anchor="middle" x="294" y="-237.5" font-family="Helvetica,sans-Serif" font-size="10.00" fill="#000000">::Graph_Function::setFunctionName</text>
</a>
</g>
</g>
<!-- Node25&#45;&gt;Node40 -->
<g id="edge15" class="edge">
<title>Node25&#45;&gt;Node40</title>
<path fill="none" stroke="#191970" d="M95.7339,-352.4738C116.3076,-330.8778 157.2968,-291.2737 200,-269.5 203.7981,-267.5634 207.7642,-265.7751 211.8278,-264.1248"/>
<polygon fill="#191970" stroke="#191970" points="213.3166,-267.3047 221.4536,-260.5194 210.8612,-260.7494 213.3166,-267.3047"/>
</g>
<!-- Node41 -->
<g id="node17" class="node">
<title>Node41</title>
<g id="a_node17"><a xlink:href="../../da/df5/classhydrogen__framework_1_1Graph__Instruction.html#ab13d49cbe4ca64f6f18d97c641529e5d" target="_top" xlink:title=" ">
<polygon fill="none" stroke="#000000" points="233.5,-170 233.5,-211 354.5,-211 354.5,-170 233.5,-170"/>
<text text-anchor="start" x="241.5" y="-199" font-family="Helvetica,sans-Serif" font-size="10.00" fill="#000000">hydrogen_framework</text>
<text text-anchor="start" x="241.5" y="-188" font-family="Helvetica,sans-Serif" font-size="10.00" fill="#000000">::Graph_Instruction</text>
<text text-anchor="middle" x="294" y="-177" font-family="Helvetica,sans-Serif" font-size="10.00" fill="#000000">::setInstructionID</text>
</a>
</g>
</g>
<!-- Node25&#45;&gt;Node41 -->
<g id="edge16" class="edge">
<title>Node25&#45;&gt;Node41</title>
<path fill="none" stroke="#191970" d="M90.2014,-352.133C106.883,-322.3254 147.6604,-256.4355 200,-220.5 207.2851,-215.4982 215.4511,-211.294 223.8471,-207.7691"/>
<polygon fill="#191970" stroke="#191970" points="225.3296,-210.9483 233.3896,-204.0718 222.8005,-204.4212 225.3296,-210.9483"/>
</g>
<!-- Node42 -->
<g id="node18" class="node">
<title>Node42</title>
<g id="a_node18"><a xlink:href="../../da/df5/classhydrogen__framework_1_1Graph__Instruction.html#aa4ad8faf804e559c192aa040c3276fe8" target="_top" xlink:title=" ">
<polygon fill="none" stroke="#000000" points="233.5,-110 233.5,-151 354.5,-151 354.5,-110 233.5,-110"/>
<text text-anchor="start" x="241.5" y="-139" font-family="Helvetica,sans-Serif" font-size="10.00" fill="#000000">hydrogen_framework</text>
<text text-anchor="start" x="241.5" y="-128" font-family="Helvetica,sans-Serif" font-size="10.00" fill="#000000">::Graph_Instruction</text>
<text text-anchor="middle" x="294" y="-117" font-family="Helvetica,sans-Serif" font-size="10.00" fill="#000000">::setInstructionLabel</text>
</a>
</g>
</g>
<!-- Node25&#45;&gt;Node42 -->
<g id="edge17" class="edge">
<title>Node25&#45;&gt;Node42</title>
<path fill="none" stroke="#191970" d="M86.3378,-352.4822C98.077,-314.5058 134.1041,-213.8759 200,-160.5 207.1362,-154.7197 215.4057,-150.0447 224.0211,-146.2656"/>
<polygon fill="#191970" stroke="#191970" points="225.4706,-149.4558 233.4681,-142.5066 222.8826,-142.9518 225.4706,-149.4558"/>
</g>
<!-- Node43 -->
<g id="node19" class="node">
<title>Node43</title>
<g id="a_node19"><a xlink:href="../../da/df5/classhydrogen__framework_1_1Graph__Instruction.html#ae4fed72fc06e6d05039b75a156ef0c6f" target="_top" xlink:title=" ">
<polygon fill="none" stroke="#000000" points="233.5,-50 233.5,-91 354.5,-91 354.5,-50 233.5,-50"/>
<text text-anchor="start" x="241.5" y="-79" font-family="Helvetica,sans-Serif" font-size="10.00" fill="#000000">hydrogen_framework</text>
<text text-anchor="start" x="241.5" y="-68" font-family="Helvetica,sans-Serif" font-size="10.00" fill="#000000">::Graph_Instruction</text>
<text text-anchor="middle" x="294" y="-57" font-family="Helvetica,sans-Serif" font-size="10.00" fill="#000000">::setInstructionPtr</text>
</a>
</g>
</g>
<!-- Node25&#45;&gt;Node43 -->
<g id="edge18" class="edge">
<title>Node25&#45;&gt;Node43</title>
<path fill="none" stroke="#191970" d="M84.2818,-352.2738C91.8694,-307.0032 120.4442,-171.9535 200,-100.5 206.9259,-94.2795 215.1473,-89.348 223.802,-85.4387"/>
<polygon fill="#191970" stroke="#191970" points="225.3662,-88.5815 233.3225,-81.5852 222.7398,-82.0928 225.3662,-88.5815"/>
</g>
<!-- Node44 -->
<g id="node20" class="node">
<title>Node44</title>
<g id="a_node20"><a xlink:href="../../d8/d0b/classhydrogen__framework_1_1Graph__Line.html#aa411d1827230bd4d472a086617e084c3" target="_top" xlink:title=" ">
<polygon fill="none" stroke="#000000" points="215,-.5 215,-30.5 373,-30.5 373,-.5 215,-.5"/>
<text text-anchor="start" x="223" y="-18.5" font-family="Helvetica,sans-Serif" font-size="10.00" fill="#000000">hydrogen_framework</text>
<text text-anchor="middle" x="294" y="-7.5" font-family="Helvetica,sans-Serif" font-size="10.00" fill="#000000">::Graph_Line::setLineNumber</text>
</a>
</g>
</g>
<!-- Node25&#45;&gt;Node44 -->
<g id="edge19" class="edge">
<title>Node25&#45;&gt;Node44</title>
<path fill="none" stroke="#191970" d="M82.7055,-352.4984C85.9705,-300.8322 103.9244,-128.616 200,-40.5 201.9601,-38.7023 204.0348,-37.0311 206.2026,-35.4778"/>
<polygon fill="#191970" stroke="#191970" points="208.3144,-38.2872 214.9802,-30.0519 204.6338,-32.3329 208.3144,-38.2872"/>
</g>
<!-- Node27 -->
<g id="node3" class="node">
<title>Node27</title>
<g id="a_node3"><a xlink:href="../../da/df5/classhydrogen__framework_1_1Graph__Instruction.html#ade4352d83d22adfdfba4a5c45f3b7292" target="_top" xlink:title=" ">
<polygon fill="none" stroke="#000000" points="447,-705 447,-746 569,-746 569,-705 447,-705"/>
<text text-anchor="start" x="455" y="-734" font-family="Helvetica,sans-Serif" font-size="10.00" fill="#000000">hydrogen_framework</text>
<text text-anchor="start" x="455" y="-723" font-family="Helvetica,sans-Serif" font-size="10.00" fill="#000000">::Graph_Instruction</text>
<text text-anchor="middle" x="508" y="-712" font-family="Helvetica,sans-Serif" font-size="10.00" fill="#000000">::pushEdgeInstruction</text>
</a>
</g>
</g>
<!-- Node26&#45;&gt;Node27 -->
<g id="edge2" class="edge">
<title>Node26&#45;&gt;Node27</title>
<path fill="none" stroke="#191970" d="M354.7514,-706.1649C380.2816,-709.386 410.1616,-713.1559 436.7237,-716.5072"/>
<polygon fill="#191970" stroke="#191970" points="436.3659,-719.9897 446.7254,-717.7691 437.2422,-713.0448 436.3659,-719.9897"/>
</g>
<!-- Node28 -->
<g id="node4" class="node">
<title>Node28</title>
<g id="a_node4"><a xlink:href="../../d4/d7a/classhydrogen__framework_1_1Graph.html#a654ec603b3fb6fcaaabc1419a18e0b96" target="_top" xlink:title=" ">
<polygon fill="none" stroke="#000000" points="438,-655.5 438,-685.5 578,-685.5 578,-655.5 438,-655.5"/>
<text text-anchor="start" x="446" y="-673.5" font-family="Helvetica,sans-Serif" font-size="10.00" fill="#000000">hydrogen_framework</text>
<text text-anchor="middle" x="508" y="-662.5" font-family="Helvetica,sans-Serif" font-size="10.00" fill="#000000">::Graph::pushGraphEdges</text>
</a>
</g>
</g>
<!-- Node26&#45;&gt;Node28 -->
<g id="edge3" class="edge">
<title>Node26&#45;&gt;Node28</title>
<path fill="none" stroke="#191970" d="M354.7514,-690.5512C377.3492,-687.5945 403.355,-684.1919 427.4513,-681.0391"/>
<polygon fill="#191970" stroke="#191970" points="428.1845,-684.4731 437.6459,-679.7052 427.2763,-677.5322 428.1845,-684.4731"/>
</g>
<!-- Node34 -->
<g id="node10" class="node">
<title>Node34</title>
<g id="a_node10"><a xlink:href="../../d8/d0b/classhydrogen__framework_1_1Graph__Line.html#a99db3f64c0f212064037c367157fcace" target="_top" xlink:title=" ">
<polygon fill="none" stroke="#000000" points="424,-432.5 424,-462.5 592,-462.5 592,-432.5 424,-432.5"/>
<text text-anchor="start" x="432" y="-450.5" font-family="Helvetica,sans-Serif" font-size="10.00" fill="#000000">hydrogen_framework</text>
<text text-anchor="middle" x="508" y="-439.5" font-family="Helvetica,sans-Serif" font-size="10.00" fill="#000000">::Graph_Line::setGraphFunction</text>
</a>
</g>
</g>
<!-- Node33&#45;&gt;Node34 -->
<g id="edge9" class="edge">
<title>Node33&#45;&gt;Node34</title>
<path fill="none" stroke="#191970" d="M377.6574,-447.5C389.4718,-447.5 401.6853,-447.5 413.6831,-447.5"/>
<polygon fill="#191970" stroke="#191970" points="413.697,-451.0001 423.6969,-447.5 413.6969,-444.0001 413.697,-451.0001"/>
</g>
<!-- Node36 -->
<g id="node12" class="node">
<title>Node36</title>
<g id="a_node12"><a xlink:href="../../dc/d7a/classhydrogen__framework_1_1Graph__Function.html#abf958c635c627e54c0e2fdc9436a9caa" target="_top" xlink:title=" ">
<polygon fill="none" stroke="#000000" points="434,-380.5 434,-410.5 582,-410.5 582,-380.5 434,-380.5"/>
<text text-anchor="start" x="442" y="-398.5" font-family="Helvetica,sans-Serif" font-size="10.00" fill="#000000">hydrogen_framework</text>
<text text-anchor="middle" x="508" y="-387.5" font-family="Helvetica,sans-Serif" font-size="10.00" fill="#000000">::Graph_Function::setGraph</text>
</a>
</g>
</g>
<!-- Node35&#45;&gt;Node36 -->
<g id="edge11" class="edge">
<title>Node35&#45;&gt;Node36</title>
<path fill="none" stroke="#191970" d="M369.7496,-393.5619C387.1378,-393.8057 405.7331,-394.0664 423.4661,-394.3149"/>
<polygon fill="#191970" stroke="#191970" points="423.7437,-397.8191 433.7919,-394.4597 423.8419,-390.8198 423.7437,-397.8191"/>
</g>
<!-- Node38 -->
<g id="node14" class="node">
<title>Node38</title>
<g id="a_node14"><a xlink:href="../../da/df5/classhydrogen__framework_1_1Graph__Instruction.html#a418b2a7045a9ecddc3f181a55629cd29" target="_top" xlink:title=" ">
<polygon fill="none" stroke="#000000" points="447.5,-320 447.5,-361 568.5,-361 568.5,-320 447.5,-320"/>
<text text-anchor="start" x="455.5" y="-349" font-family="Helvetica,sans-Serif" font-size="10.00" fill="#000000">hydrogen_framework</text>
<text text-anchor="start" x="455.5" y="-338" font-family="Helvetica,sans-Serif" font-size="10.00" fill="#000000">::Graph_Instruction</text>
<text text-anchor="middle" x="508" y="-327" font-family="Helvetica,sans-Serif" font-size="10.00" fill="#000000">::setGraphLine</text>
</a>
</g>
</g>
<!-- Node37&#45;&gt;Node38 -->
<g id="edge13" class="edge">
<title>Node37&#45;&gt;Node38</title>
<path fill="none" stroke="#191970" d="M383.5153,-342.2451C401.3469,-341.9951 419.8443,-341.7358 436.9539,-341.496"/>
<polygon fill="#191970" stroke="#191970" points="437.4594,-344.9893 447.4093,-341.3494 437.3612,-337.99 437.4594,-344.9893"/>
</g>
</g>
</svg>
