<?xml version="1.0" encoding="UTF-8" standalone="no"?>
<!DOCTYPE svg PUBLIC "-//W3C//DTD SVG 1.1//EN"
 "http://www.w3.org/Graphics/SVG/1.1/DTD/svg11.dtd">
<!-- Generated by graphviz version 2.40.1 (20161225.0304)
 -->
<!-- Title: hydrogen_framework::Graph::getGraphEdges Pages: 1 -->
<svg width="383pt" height="57pt"
 viewBox="0.00 0.00 383.00 57.00" xmlns="http://www.w3.org/2000/svg" xmlns:xlink="http://www.w3.org/1999/xlink">
<g id="graph0" class="graph" transform="scale(1 1) rotate(0) translate(4 53)">
<title>hydrogen_framework::Graph::getGraphEdges</title>
<!-- Node91 -->
<g id="node1" class="node">
<title>Node91</title>
<g id="a_node1"><a xlink:title=" ">
<polygon fill="#bfbfbf" stroke="#000000" points="243,-.5 243,-30.5 375,-30.5 375,-.5 243,-.5"/>
<text text-anchor="start" x="251" y="-18.5" font-family="Helvetica,sans-Serif" font-size="10.00" fill="#000000">hydrogen_framework</text>
<text text-anchor="middle" x="309" y="-7.5" font-family="Helvetica,sans-Serif" font-size="10.00" fill="#000000">::Graph::getGraphEdges</text>
</a>
</g>
</g>
<!-- Node92 -->
<g id="node2" class="node">
<title>Node92</title>
<g id="a_node2"><a xlink:href="../../db/d17/MVICFG_8cpp.html#a2ebefd41917d6565942bb86ec72f6adc" target="_top" xlink:title=" ">
<polygon fill="none" stroke="#000000" points="77,-.5 77,-30.5 207,-30.5 207,-.5 77,-.5"/>
<text text-anchor="start" x="85" y="-18.5" font-family="Helvetica,sans-Serif" font-size="10.00" fill="#000000">hydrogen_framework</text>
<text text-anchor="middle" x="142" y="-7.5" font-family="Helvetica,sans-Serif" font-size="10.00" fill="#000000">::updateMVICFGVersion</text>
</a>
</g>
</g>
<!-- Node91&#45;&gt;Node92 -->
<g id="edge1" class="edge">
<title>Node91&#45;&gt;Node92</title>
<path fill="none" stroke="#191970" d="M232.9808,-15.5C224.3879,-15.5 215.6884,-15.5 207.2504,-15.5"/>
<polygon fill="#191970" stroke="#191970" points="232.9972,-19.0001 242.9972,-15.5 232.9971,-12.0001 232.9972,-19.0001"/>
</g>
<!-- Node92&#45;&gt;Node92 -->
<g id="edge3" class="edge">
<title>Node92&#45;&gt;Node92</title>
<path fill="none" stroke="#191970" d="M163.3226,-40.9579C160.6761,-45.679 153.5686,-49 142,-49 123.0156,-49 116.0448,-40.0566 121.0875,-30.659"/>
<polygon fill="#191970" stroke="#191970" points="166.8077,-40.5118 162.9125,-30.659 159.8132,-40.7904 166.8077,-40.5118"/>
</g>
<!-- Node93 -->
<g id="node3" class="node">
<title>Node93</title>
<g id="a_node3"><a xlink:href="../../de/d64/Hydrogen_8cpp.html#a0ddf1224851353fc92bfbff6f499fa97" target="_top" xlink:title=" ">
<polygon fill="none" stroke="#000000" points="0,-6 0,-25 41,-25 41,-6 0,-6"/>
<text text-anchor="middle" x="20.5" y="-13" font-family="Helvetica,sans-Serif" font-size="10.00" fill="#000000">main</text>
</a>
</g>
</g>
<!-- Node92&#45;&gt;Node93 -->
<g id="edge2" class="edge">
<title>Node92&#45;&gt;Node93</title>
<path fill="none" stroke="#191970" d="M66.7407,-15.5C57.4362,-15.5 48.614,-15.5 41.2184,-15.5"/>
<polygon fill="#191970" stroke="#191970" points="66.9817,-19.0001 76.9816,-15.5 66.9816,-12.0001 66.9817,-19.0001"/>
</g>
</g>
</svg>
