<?xml version="1.0" encoding="UTF-8" standalone="no"?>
<!DOCTYPE svg PUBLIC "-//W3C//DTD SVG 1.1//EN"
 "http://www.w3.org/Graphics/SVG/1.1/DTD/svg11.dtd">
<!-- Generated by graphviz version 2.40.1 (20161225.0304)
 -->
<!-- Title: hydrogen_framework::Diff_Vars::Point Pages: 1 -->
<svg width="129pt" height="204pt"
 viewBox="0.00 0.00 129.00 204.00" xmlns="http://www.w3.org/2000/svg" xmlns:xlink="http://www.w3.org/1999/xlink">
<g id="graph0" class="graph" transform="scale(1 1) rotate(0) translate(4 200)">
<title>hydrogen_framework::Diff_Vars::Point</title>
<!-- Node1 -->
<g id="node1" class="node">
<title>Node1</title>
<g id="a_node1"><a xlink:title=" ">
<polygon fill="#bfbfbf" stroke="#000000" points="0,-.5 0,-68.5 121,-68.5 121,-.5 0,-.5"/>
<text text-anchor="start" x="8" y="-56.5" font-family="Helvetica,sans-Serif" font-size="10.00" fill="#000000">hydrogen_framework</text>
<text text-anchor="middle" x="60.5" y="-45.5" font-family="Helvetica,sans-Serif" font-size="10.00" fill="#000000">::Diff_Vars::Point</text>
<polyline fill="none" stroke="#000000" points="0,-38.5 121,-38.5 "/>
<text text-anchor="middle" x="60.5" y="-26.5" font-family="Helvetica,sans-Serif" font-size="10.00" fill="#000000"> </text>
<polyline fill="none" stroke="#000000" points="0,-19.5 121,-19.5 "/>
<text text-anchor="middle" x="60.5" y="-7.5" font-family="Helvetica,sans-Serif" font-size="10.00" fill="#000000"> </text>
</a>
</g>
</g>
<!-- Node2 -->
<g id="node2" class="node">
<title>Node2</title>
<g id="a_node2"><a xlink:title=" ">
<polygon fill="none" stroke="#bfbfbf" points="29.5,-138.5 29.5,-195.5 91.5,-195.5 91.5,-138.5 29.5,-138.5"/>
<text text-anchor="middle" x="60.5" y="-183.5" font-family="Helvetica,sans-Serif" font-size="10.00" fill="#000000">long long</text>
<polyline fill="none" stroke="#bfbfbf" points="29.5,-176.5 91.5,-176.5 "/>
<text text-anchor="middle" x="60.5" y="-164.5" font-family="Helvetica,sans-Serif" font-size="10.00" fill="#000000"> </text>
<polyline fill="none" stroke="#bfbfbf" points="29.5,-157.5 91.5,-157.5 "/>
<text text-anchor="middle" x="60.5" y="-145.5" font-family="Helvetica,sans-Serif" font-size="10.00" fill="#000000"> </text>
</a>
</g>
</g>
<!-- Node2&#45;&gt;Node1 -->
<g id="edge1" class="edge">
<title>Node2&#45;&gt;Node1</title>
<path fill="none" stroke="#404040" d="M60.5,-138.2495C60.5,-121.5167 60.5,-100.0253 60.5,-80.9467"/>
<polygon fill="none" stroke="#404040" points="60.5001,-80.8321 56.5,-74.8321 60.5,-68.8321 64.5,-74.8321 60.5001,-80.8321"/>
<text text-anchor="middle" x="69.5" y="-112" font-family="Helvetica,sans-Serif" font-size="10.00" fill="#000000"> +x</text>
<text text-anchor="middle" x="69.5" y="-101" font-family="Helvetica,sans-Serif" font-size="10.00" fill="#000000">+y</text>
<text text-anchor="middle" x="69.5" y="-90" font-family="Helvetica,sans-Serif" font-size="10.00" fill="#000000">+k</text>
</g>
</g>
</svg>
