<?xml version="1.0" encoding="UTF-8" standalone="no"?>
<!DOCTYPE svg PUBLIC "-//W3C//DTD SVG 1.1//EN"
 "http://www.w3.org/Graphics/SVG/1.1/DTD/svg11.dtd">
<!-- Generated by graphviz version 2.40.1 (20161225.0304)
 -->
<!-- Title: MVICFG.hpp Pages: 1 -->
<svg width="698pt" height="140pt"
 viewBox="0.00 0.00 697.68 140.00" xmlns="http://www.w3.org/2000/svg" xmlns:xlink="http://www.w3.org/1999/xlink">
<g id="graph0" class="graph" transform="scale(1 1) rotate(0) translate(4 136)">
<title>MVICFG.hpp</title>
<!-- Node0 -->
<g id="node1" class="node">
<title>Node0</title>
<g id="a_node1"><a xlink:title=" ">
<polygon fill="#bfbfbf" stroke="#000000" points="277.1791,-112.5 277.1791,-131.5 352.1791,-131.5 352.1791,-112.5 277.1791,-112.5"/>
<text text-anchor="middle" x="314.6791" y="-119.5" font-family="Helvetica,sans-Serif" font-size="10.00" fill="#000000">MVICFG.hpp</text>
</a>
</g>
</g>
<!-- Node1 -->
<g id="node2" class="node">
<title>Node1</title>
<g id="a_node2"><a xlink:href="../../df/d2f/Graph__Edge_8hpp.html" target="_top" xlink:title=" ">
<polygon fill="none" stroke="#000000" points="14.6791,-56.5 14.6791,-75.5 110.6791,-75.5 110.6791,-56.5 14.6791,-56.5"/>
<text text-anchor="middle" x="62.6791" y="-63.5" font-family="Helvetica,sans-Serif" font-size="10.00" fill="#000000">Graph_Edge.hpp</text>
</a>
</g>
</g>
<!-- Node0&#45;&gt;Node1 -->
<g id="edge1" class="edge">
<title>Node0&#45;&gt;Node1</title>
<path fill="none" stroke="#191970" d="M276.9521,-113.6162C234.138,-104.102 163.9975,-88.5152 115.6956,-77.7814"/>
<polygon fill="#191970" stroke="#191970" points="116.2588,-74.3213 105.7377,-75.5686 114.7403,-81.1546 116.2588,-74.3213"/>
</g>
<!-- Node2 -->
<g id="node3" class="node">
<title>Node2</title>
<g id="a_node3"><a xlink:title=" ">
<polygon fill="none" stroke="#bfbfbf" points="13.6791,-.5 13.6791,-19.5 45.6791,-19.5 45.6791,-.5 13.6791,-.5"/>
<text text-anchor="middle" x="29.6791" y="-7.5" font-family="Helvetica,sans-Serif" font-size="10.00" fill="#000000">list</text>
</a>
</g>
</g>
<!-- Node0&#45;&gt;Node2 -->
<g id="edge6" class="edge">
<title>Node0&#45;&gt;Node2</title>
<path fill="none" stroke="#191970" d="M276.9823,-119.1175C198.4682,-112.7311 23.2097,-96.3336 5.6791,-76 -6.1883,-62.2352 3.9016,-42.1232 14.4019,-27.7226"/>
<polygon fill="#191970" stroke="#191970" points="17.3605,-29.623 20.8003,-19.6021 11.8621,-25.2907 17.3605,-29.623"/>
</g>
<!-- Node3 -->
<g id="node4" class="node">
<title>Node3</title>
<g id="a_node4"><a xlink:title=" ">
<polygon fill="none" stroke="#bfbfbf" points="73.6791,-.5 73.6791,-19.5 117.6791,-19.5 117.6791,-.5 73.6791,-.5"/>
<text text-anchor="middle" x="95.6791" y="-7.5" font-family="Helvetica,sans-Serif" font-size="10.00" fill="#000000">string</text>
</a>
</g>
</g>
<!-- Node0&#45;&gt;Node3 -->
<g id="edge10" class="edge">
<title>Node0&#45;&gt;Node3</title>
<path fill="none" stroke="#191970" d="M276.8674,-116.6984C243.5549,-110.7332 194.7078,-98.7447 157.6791,-76 137.489,-63.5984 119.582,-42.9226 108.2682,-28.014"/>
<polygon fill="#191970" stroke="#191970" points="110.8435,-25.6064 102.1142,-19.6021 105.1939,-29.7395 110.8435,-25.6064"/>
</g>
<!-- Node4 -->
<g id="node5" class="node">
<title>Node4</title>
<g id="a_node5"><a xlink:title=" ">
<polygon fill="none" stroke="#bfbfbf" points="166.6791,-56.5 166.6791,-75.5 312.6791,-75.5 312.6791,-56.5 166.6791,-56.5"/>
<text text-anchor="middle" x="239.6791" y="-63.5" font-family="Helvetica,sans-Serif" font-size="10.00" fill="#000000">boost/algorithm/string.hpp</text>
</a>
</g>
</g>
<!-- Node0&#45;&gt;Node4 -->
<g id="edge4" class="edge">
<title>Node0&#45;&gt;Node4</title>
<path fill="none" stroke="#191970" d="M301.6151,-112.2455C290.3229,-103.814 273.7946,-91.4729 260.652,-81.6598"/>
<polygon fill="#191970" stroke="#191970" points="262.7002,-78.8211 252.5934,-75.6427 258.5122,-84.4301 262.7002,-78.8211"/>
</g>
<!-- Node5 -->
<g id="node6" class="node">
<title>Node5</title>
<g id="a_node6"><a xlink:title=" ">
<polygon fill="none" stroke="#bfbfbf" points="331.1791,-56.5 331.1791,-75.5 450.1791,-75.5 450.1791,-56.5 331.1791,-56.5"/>
<text text-anchor="middle" x="390.6791" y="-63.5" font-family="Helvetica,sans-Serif" font-size="10.00" fill="#000000">boost/filesystem.hpp</text>
</a>
</g>
</g>
<!-- Node0&#45;&gt;Node5 -->
<g id="edge5" class="edge">
<title>Node0&#45;&gt;Node5</title>
<path fill="none" stroke="#191970" d="M327.9173,-112.2455C339.36,-103.814 356.1087,-91.4729 369.4265,-81.6598"/>
<polygon fill="#191970" stroke="#191970" points="371.6182,-84.3924 377.5926,-75.6427 367.4658,-78.757 371.6182,-84.3924"/>
</g>
<!-- Node6 -->
<g id="node7" class="node">
<title>Node6</title>
<g id="a_node7"><a xlink:title=" ">
<polygon fill="none" stroke="#bfbfbf" points="468.1791,-56.5 468.1791,-75.5 583.1791,-75.5 583.1791,-56.5 468.1791,-56.5"/>
<text text-anchor="middle" x="525.6791" y="-63.5" font-family="Helvetica,sans-Serif" font-size="10.00" fill="#000000">llvm/IR/Instruction.h</text>
</a>
</g>
</g>
<!-- Node0&#45;&gt;Node6 -->
<g id="edge7" class="edge">
<title>Node0&#45;&gt;Node6</title>
<path fill="none" stroke="#191970" d="M350.9513,-112.3733C386.6449,-102.9001 441.267,-88.4032 479.9242,-78.1435"/>
<polygon fill="#191970" stroke="#191970" points="481.1127,-81.4493 489.8802,-75.5011 479.317,-74.6835 481.1127,-81.4493"/>
</g>
<!-- Node7 -->
<g id="node8" class="node">
<title>Node7</title>
<g id="a_node8"><a xlink:title=" ">
<polygon fill="none" stroke="#bfbfbf" points="601.6791,-56.5 601.6791,-75.5 639.6791,-75.5 639.6791,-56.5 601.6791,-56.5"/>
<text text-anchor="middle" x="620.6791" y="-63.5" font-family="Helvetica,sans-Serif" font-size="10.00" fill="#000000">map</text>
</a>
</g>
</g>
<!-- Node0&#45;&gt;Node7 -->
<g id="edge8" class="edge">
<title>Node0&#45;&gt;Node7</title>
<path fill="none" stroke="#191970" d="M352.4459,-117.9264C404.4452,-111.8457 501.0483,-98.856 591.6619,-75.895"/>
<polygon fill="#191970" stroke="#191970" points="592.7327,-79.2333 601.5407,-73.3452 590.9833,-72.4555 592.7327,-79.2333"/>
</g>
<!-- Node8 -->
<g id="node9" class="node">
<title>Node8</title>
<g id="a_node9"><a xlink:title=" ">
<polygon fill="none" stroke="#bfbfbf" points="657.6791,-56.5 657.6791,-75.5 689.6791,-75.5 689.6791,-56.5 657.6791,-56.5"/>
<text text-anchor="middle" x="673.6791" y="-63.5" font-family="Helvetica,sans-Serif" font-size="10.00" fill="#000000">set</text>
</a>
</g>
</g>
<!-- Node0&#45;&gt;Node8 -->
<g id="edge9" class="edge">
<title>Node0&#45;&gt;Node8</title>
<path fill="none" stroke="#191970" d="M352.3319,-119.8099C413.0351,-115.6355 536.197,-104.5053 647.744,-75.7092"/>
<polygon fill="#191970" stroke="#191970" points="648.6886,-79.0798 657.4659,-73.146 646.9041,-72.3111 648.6886,-79.0798"/>
</g>
<!-- Node1&#45;&gt;Node2 -->
<g id="edge2" class="edge">
<title>Node1&#45;&gt;Node2</title>
<path fill="none" stroke="#191970" d="M56.9309,-56.2455C52.4355,-48.617 46.0542,-37.7881 40.5966,-28.5267"/>
<polygon fill="#191970" stroke="#191970" points="43.4537,-26.4811 35.3614,-19.6427 37.4229,-30.035 43.4537,-26.4811"/>
</g>
<!-- Node1&#45;&gt;Node3 -->
<g id="edge3" class="edge">
<title>Node1&#45;&gt;Node3</title>
<path fill="none" stroke="#191970" d="M68.4272,-56.2455C72.9226,-48.617 79.3039,-37.7881 84.7615,-28.5267"/>
<polygon fill="#191970" stroke="#191970" points="87.9352,-30.035 89.9968,-19.6427 81.9044,-26.4811 87.9352,-30.035"/>
</g>
</g>
</svg>
