<?xml version="1.0" encoding="UTF-8" standalone="no"?>
<!DOCTYPE svg PUBLIC "-//W3C//DTD SVG 1.1//EN"
 "http://www.w3.org/Graphics/SVG/1.1/DTD/svg11.dtd">
<!-- Generated by graphviz version 2.40.1 (20161225.0304)
 -->
<!-- Title: hydrogen_framework::Graph_Edge::pushEdgeVersions Pages: 1 -->
<svg width="418pt" height="124pt"
 viewBox="0.00 0.00 418.00 124.00" xmlns="http://www.w3.org/2000/svg" xmlns:xlink="http://www.w3.org/1999/xlink">
<g id="graph0" class="graph" transform="scale(1 1) rotate(0) translate(4 120)">
<title>hydrogen_framework::Graph_Edge::pushEdgeVersions</title>
<!-- Node24 -->
<g id="node1" class="node">
<title>Node24</title>
<g id="a_node1"><a xlink:title=" ">
<polygon fill="#bfbfbf" stroke="#000000" points="234,-33.5 234,-63.5 410,-63.5 410,-33.5 234,-33.5"/>
<text text-anchor="start" x="242" y="-51.5" font-family="Helvetica,sans-Serif" font-size="10.00" fill="#000000">hydrogen_framework</text>
<text text-anchor="middle" x="322" y="-40.5" font-family="Helvetica,sans-Serif" font-size="10.00" fill="#000000">::Graph_Edge::pushEdgeVersions</text>
</a>
</g>
</g>
<!-- Node25 -->
<g id="node2" class="node">
<title>Node25</title>
<g id="a_node2"><a xlink:href="../../db/d17/MVICFG_8cpp.html#a40d68c502d0833e919395ded787b4599" target="_top" xlink:title=" ">
<polygon fill="none" stroke="#000000" points="77,-67.5 77,-97.5 198,-97.5 198,-67.5 77,-67.5"/>
<text text-anchor="start" x="85" y="-85.5" font-family="Helvetica,sans-Serif" font-size="10.00" fill="#000000">hydrogen_framework</text>
<text text-anchor="middle" x="137.5" y="-74.5" font-family="Helvetica,sans-Serif" font-size="10.00" fill="#000000">::addToMVICFG</text>
</a>
</g>
</g>
<!-- Node24&#45;&gt;Node25 -->
<g id="edge1" class="edge">
<title>Node24&#45;&gt;Node25</title>
<path fill="none" stroke="#191970" d="M230.4534,-65.3704C219.4481,-67.3985 208.4294,-69.429 198.024,-71.3465"/>
<polygon fill="#191970" stroke="#191970" points="231.3385,-68.7663 240.5386,-63.5119 230.0698,-61.8822 231.3385,-68.7663"/>
</g>
<!-- Node27 -->
<g id="node4" class="node">
<title>Node27</title>
<g id="a_node4"><a xlink:href="../../db/d17/MVICFG_8cpp.html#a27bf2e73daf11e2ad6363e34bd06de89" target="_top" xlink:title=" ">
<polygon fill="none" stroke="#000000" points="77,-.5 77,-30.5 198,-30.5 198,-.5 77,-.5"/>
<text text-anchor="start" x="85" y="-18.5" font-family="Helvetica,sans-Serif" font-size="10.00" fill="#000000">hydrogen_framework</text>
<text text-anchor="middle" x="137.5" y="-7.5" font-family="Helvetica,sans-Serif" font-size="10.00" fill="#000000">::matchedInMVICFG</text>
</a>
</g>
</g>
<!-- Node24&#45;&gt;Node27 -->
<g id="edge4" class="edge">
<title>Node24&#45;&gt;Node27</title>
<path fill="none" stroke="#191970" d="M228.2709,-31.7355C217.9909,-29.8967 207.7353,-28.0624 198.015,-26.3238"/>
<polygon fill="#191970" stroke="#191970" points="227.6579,-35.1813 238.1179,-33.4967 228.8904,-28.2906 227.6579,-35.1813"/>
</g>
<!-- Node25&#45;&gt;Node25 -->
<g id="edge2" class="edge">
<title>Node25&#45;&gt;Node25</title>
<path fill="none" stroke="#191970" d="M158.1118,-107.9579C155.5536,-112.679 148.683,-116 137.5,-116 119.1484,-116 112.41,-107.0566 117.2846,-97.659"/>
<polygon fill="#191970" stroke="#191970" points="161.5975,-107.517 157.7154,-97.659 154.6027,-107.7863 161.5975,-107.517"/>
</g>
<!-- Node26 -->
<g id="node3" class="node">
<title>Node26</title>
<g id="a_node3"><a xlink:href="../../de/d64/Hydrogen_8cpp.html#a0ddf1224851353fc92bfbff6f499fa97" target="_top" xlink:title=" ">
<polygon fill="none" stroke="#000000" points="0,-39 0,-58 41,-58 41,-39 0,-39"/>
<text text-anchor="middle" x="20.5" y="-46" font-family="Helvetica,sans-Serif" font-size="10.00" fill="#000000">main</text>
</a>
</g>
</g>
<!-- Node25&#45;&gt;Node26 -->
<g id="edge3" class="edge">
<title>Node25&#45;&gt;Node26</title>
<path fill="none" stroke="#191970" d="M76.173,-64.6785C63.5232,-61.0025 51.0501,-57.3778 41.1269,-54.4942"/>
<polygon fill="#191970" stroke="#191970" points="75.262,-68.0585 85.8415,-67.4881 77.2155,-61.3366 75.262,-68.0585"/>
</g>
<!-- Node27&#45;&gt;Node26 -->
<g id="edge5" class="edge">
<title>Node27&#45;&gt;Node26</title>
<path fill="none" stroke="#191970" d="M74.4251,-33.2903C62.3374,-36.6997 50.5117,-40.0352 41.0294,-42.7096"/>
<polygon fill="#191970" stroke="#191970" points="75.4614,-36.6347 84.1357,-30.5515 73.5611,-29.8976 75.4614,-36.6347"/>
</g>
<!-- Node27&#45;&gt;Node27 -->
<g id="edge6" class="edge">
<title>Node27&#45;&gt;Node27</title>
<path fill="none" stroke="#191970" d="M158.1118,-40.9579C155.5536,-45.679 148.683,-49 137.5,-49 119.1484,-49 112.41,-40.0566 117.2846,-30.659"/>
<polygon fill="#191970" stroke="#191970" points="161.5975,-40.517 157.7154,-30.659 154.6027,-40.7863 161.5975,-40.517"/>
</g>
</g>
</svg>
