<?xml version="1.0" encoding="UTF-8" standalone="no"?>
<!DOCTYPE svg PUBLIC "-//W3C//DTD SVG 1.1//EN"
 "http://www.w3.org/Graphics/SVG/1.1/DTD/svg11.dtd">
<!-- Generated by graphviz version 2.40.1 (20161225.0304)
 -->
<!-- Title: hydrogen_framework::Graph_Edge::isPartOfGraph Pages: 1 -->
<svg width="397pt" height="57pt"
 viewBox="0.00 0.00 397.00 57.00" xmlns="http://www.w3.org/2000/svg" xmlns:xlink="http://www.w3.org/1999/xlink">
<g id="graph0" class="graph" transform="scale(1 1) rotate(0) translate(4 53)">
<title>hydrogen_framework::Graph_Edge::isPartOfGraph</title>
<!-- Node20 -->
<g id="node1" class="node">
<title>Node20</title>
<g id="a_node1"><a xlink:title=" ">
<polygon fill="#bfbfbf" stroke="#000000" points="234,-.5 234,-30.5 389,-30.5 389,-.5 234,-.5"/>
<text text-anchor="start" x="242" y="-18.5" font-family="Helvetica,sans-Serif" font-size="10.00" fill="#000000">hydrogen_framework</text>
<text text-anchor="middle" x="311.5" y="-7.5" font-family="Helvetica,sans-Serif" font-size="10.00" fill="#000000">::Graph_Edge::isPartOfGraph</text>
</a>
</g>
</g>
<!-- Node21 -->
<g id="node2" class="node">
<title>Node21</title>
<g id="a_node2"><a xlink:href="../../db/d17/MVICFG_8cpp.html#a27bf2e73daf11e2ad6363e34bd06de89" target="_top" xlink:title=" ">
<polygon fill="none" stroke="#000000" points="77,-.5 77,-30.5 198,-30.5 198,-.5 77,-.5"/>
<text text-anchor="start" x="85" y="-18.5" font-family="Helvetica,sans-Serif" font-size="10.00" fill="#000000">hydrogen_framework</text>
<text text-anchor="middle" x="137.5" y="-7.5" font-family="Helvetica,sans-Serif" font-size="10.00" fill="#000000">::matchedInMVICFG</text>
</a>
</g>
</g>
<!-- Node20&#45;&gt;Node21 -->
<g id="edge1" class="edge">
<title>Node20&#45;&gt;Node21</title>
<path fill="none" stroke="#191970" d="M223.7843,-15.5C215.1414,-15.5 206.5079,-15.5 198.2251,-15.5"/>
<polygon fill="#191970" stroke="#191970" points="223.9143,-19.0001 233.9142,-15.5 223.9142,-12.0001 223.9143,-19.0001"/>
</g>
<!-- Node21&#45;&gt;Node21 -->
<g id="edge3" class="edge">
<title>Node21&#45;&gt;Node21</title>
<path fill="none" stroke="#191970" d="M158.1118,-40.9579C155.5536,-45.679 148.683,-49 137.5,-49 119.1484,-49 112.41,-40.0566 117.2846,-30.659"/>
<polygon fill="#191970" stroke="#191970" points="161.5975,-40.517 157.7154,-30.659 154.6027,-40.7863 161.5975,-40.517"/>
</g>
<!-- Node22 -->
<g id="node3" class="node">
<title>Node22</title>
<g id="a_node3"><a xlink:href="../../de/d64/Hydrogen_8cpp.html#a0ddf1224851353fc92bfbff6f499fa97" target="_top" xlink:title=" ">
<polygon fill="none" stroke="#000000" points="0,-6 0,-25 41,-25 41,-6 0,-6"/>
<text text-anchor="middle" x="20.5" y="-13" font-family="Helvetica,sans-Serif" font-size="10.00" fill="#000000">main</text>
</a>
</g>
</g>
<!-- Node21&#45;&gt;Node22 -->
<g id="edge2" class="edge">
<title>Node21&#45;&gt;Node22</title>
<path fill="none" stroke="#191970" d="M66.7111,-15.5C57.3948,-15.5 48.514,-15.5 41.0724,-15.5"/>
<polygon fill="#191970" stroke="#191970" points="66.9438,-19.0001 76.9437,-15.5 66.9437,-12.0001 66.9438,-19.0001"/>
</g>
</g>
</svg>
