<?xml version="1.0" encoding="UTF-8" standalone="no"?>
<!DOCTYPE svg PUBLIC "-//W3C//DTD SVG 1.1//EN"
 "http://www.w3.org/Graphics/SVG/1.1/DTD/svg11.dtd">
<!-- Generated by graphviz version 2.40.1 (20161225.0304)
 -->
<!-- Title: hydrogen_framework::Diff_Vars Pages: 1 -->
<svg width="314pt" height="321pt"
 viewBox="0.00 0.00 314.00 321.00" xmlns="http://www.w3.org/2000/svg" xmlns:xlink="http://www.w3.org/1999/xlink">
<g id="graph0" class="graph" transform="scale(1 1) rotate(0) translate(4 317)">
<title>hydrogen_framework::Diff_Vars</title>
<!-- Node5 -->
<g id="node1" class="node">
<title>Node5</title>
<g id="a_node1"><a xlink:title=" ">
<polygon fill="#bfbfbf" stroke="#000000" points="58.5,-.5 58.5,-79.5 179.5,-79.5 179.5,-.5 58.5,-.5"/>
<text text-anchor="start" x="66.5" y="-67.5" font-family="Helvetica,sans-Serif" font-size="10.00" fill="#000000">hydrogen_framework</text>
<text text-anchor="middle" x="119" y="-56.5" font-family="Helvetica,sans-Serif" font-size="10.00" fill="#000000">::Diff_Vars</text>
<polyline fill="none" stroke="#000000" points="58.5,-49.5 179.5,-49.5 "/>
<text text-anchor="middle" x="119" y="-37.5" font-family="Helvetica,sans-Serif" font-size="10.00" fill="#000000"> </text>
<polyline fill="none" stroke="#000000" points="58.5,-30.5 179.5,-30.5 "/>
<text text-anchor="start" x="66.5" y="-18.5" font-family="Helvetica,sans-Serif" font-size="10.00" fill="#000000">+ Diff_Vars()</text>
<text text-anchor="start" x="66.5" y="-7.5" font-family="Helvetica,sans-Serif" font-size="10.00" fill="#000000">+ ~Diff_Vars()</text>
</a>
</g>
</g>
<!-- Node6 -->
<g id="node2" class="node">
<title>Node6</title>
<g id="a_node2"><a xlink:title="STL class.">
<polygon fill="none" stroke="#bfbfbf" points="19.5,-149.5 19.5,-206.5 84.5,-206.5 84.5,-149.5 19.5,-149.5"/>
<text text-anchor="middle" x="52" y="-194.5" font-family="Helvetica,sans-Serif" font-size="10.00" fill="#000000">std::string</text>
<polyline fill="none" stroke="#bfbfbf" points="19.5,-187.5 84.5,-187.5 "/>
<text text-anchor="middle" x="52" y="-175.5" font-family="Helvetica,sans-Serif" font-size="10.00" fill="#000000"> </text>
<polyline fill="none" stroke="#bfbfbf" points="19.5,-168.5 84.5,-168.5 "/>
<text text-anchor="middle" x="52" y="-156.5" font-family="Helvetica,sans-Serif" font-size="10.00" fill="#000000"> </text>
</a>
</g>
</g>
<!-- Node6&#45;&gt;Node5 -->
<g id="edge1" class="edge">
<title>Node6&#45;&gt;Node5</title>
<path fill="none" stroke="#404040" d="M46.8532,-149.3629C45.3292,-133.528 45.6857,-113.8997 53,-98 54.3109,-95.1504 55.837,-92.3845 57.5353,-89.707"/>
<polygon fill="none" stroke="#404040" points="57.708,-89.4737 58.0633,-82.2713 64.8483,-79.8292 64.493,-87.0316 57.708,-89.4737"/>
<text text-anchor="middle" x="109" y="-123" font-family="Helvetica,sans-Serif" font-size="10.00" fill="#000000"> +SES_MARK_ADD</text>
<text text-anchor="middle" x="109" y="-112" font-family="Helvetica,sans-Serif" font-size="10.00" fill="#000000">+SES_MARK_COMMON</text>
<text text-anchor="middle" x="109" y="-101" font-family="Helvetica,sans-Serif" font-size="10.00" fill="#000000">+SES_MARK_DELETE</text>
</g>
<!-- Node7 -->
<g id="node3" class="node">
<title>Node7</title>
<g id="a_node3"><a xlink:title="STL class.">
<polygon fill="none" stroke="#bfbfbf" points="0,-244.5 0,-312.5 104,-312.5 104,-244.5 0,-244.5"/>
<text text-anchor="start" x="8" y="-300.5" font-family="Helvetica,sans-Serif" font-size="10.00" fill="#000000">std::basic_string&lt;</text>
<text text-anchor="middle" x="52" y="-289.5" font-family="Helvetica,sans-Serif" font-size="10.00" fill="#000000"> char &gt;</text>
<polyline fill="none" stroke="#bfbfbf" points="0,-282.5 104,-282.5 "/>
<text text-anchor="middle" x="52" y="-270.5" font-family="Helvetica,sans-Serif" font-size="10.00" fill="#000000"> </text>
<polyline fill="none" stroke="#bfbfbf" points="0,-263.5 104,-263.5 "/>
<text text-anchor="middle" x="52" y="-251.5" font-family="Helvetica,sans-Serif" font-size="10.00" fill="#000000"> </text>
</a>
</g>
</g>
<!-- Node7&#45;&gt;Node6 -->
<g id="edge2" class="edge">
<title>Node7&#45;&gt;Node6</title>
<path fill="none" stroke="#191970" d="M52,-234.4301C52,-225.0073 52,-215.2901 52,-206.6312"/>
<polygon fill="none" stroke="#191970" points="48.5001,-234.4752 52,-244.4753 55.5001,-234.4753 48.5001,-234.4752"/>
</g>
<!-- Node8 -->
<g id="node4" class="node">
<title>Node8</title>
<g id="a_node4"><a xlink:title=" ">
<polygon fill="none" stroke="#bfbfbf" points="156.5,-149.5 156.5,-206.5 217.5,-206.5 217.5,-149.5 156.5,-149.5"/>
<text text-anchor="middle" x="187" y="-194.5" font-family="Helvetica,sans-Serif" font-size="10.00" fill="#000000">unsigned</text>
<polyline fill="none" stroke="#bfbfbf" points="156.5,-187.5 217.5,-187.5 "/>
<text text-anchor="middle" x="187" y="-175.5" font-family="Helvetica,sans-Serif" font-size="10.00" fill="#000000"> </text>
<polyline fill="none" stroke="#bfbfbf" points="156.5,-168.5 217.5,-168.5 "/>
<text text-anchor="middle" x="187" y="-156.5" font-family="Helvetica,sans-Serif" font-size="10.00" fill="#000000"> </text>
</a>
</g>
</g>
<!-- Node8&#45;&gt;Node5 -->
<g id="edge3" class="edge">
<title>Node8&#45;&gt;Node5</title>
<path fill="none" stroke="#404040" d="M182.0123,-149.2085C178.5817,-133.5076 173.1456,-114.0578 165,-98 163.6264,-95.2922 162.1146,-92.5902 160.5018,-89.916"/>
<polygon fill="none" stroke="#404040" points="160.4394,-89.8208 153.8042,-86.9969 153.8589,-79.786 160.4941,-82.6099 160.4394,-89.8208"/>
<text text-anchor="middle" x="241.5" y="-112" font-family="Helvetica,sans-Serif" font-size="10.00" fill="#000000"> +MAX_CORDINATES_SIZE</text>
</g>
</g>
</svg>
