<?xml version="1.0" encoding="UTF-8" standalone="no"?>
<!DOCTYPE svg PUBLIC "-//W3C//DTD SVG 1.1//EN"
 "http://www.w3.org/Graphics/SVG/1.1/DTD/svg11.dtd">
<!-- Generated by graphviz version 2.40.1 (20161225.0304)
 -->
<!-- Title: Graph_Line.cpp Pages: 1 -->
<svg width="279pt" height="140pt"
 viewBox="0.00 0.00 279.00 140.00" xmlns="http://www.w3.org/2000/svg" xmlns:xlink="http://www.w3.org/1999/xlink">
<g id="graph0" class="graph" transform="scale(1 1) rotate(0) translate(4 136)">
<title>Graph_Line.cpp</title>
<!-- Node0 -->
<g id="node1" class="node">
<title>Node0</title>
<g id="a_node1"><a xlink:title=" ">
<polygon fill="#bfbfbf" stroke="#000000" points="63,-112.5 63,-131.5 155,-131.5 155,-112.5 63,-112.5"/>
<text text-anchor="middle" x="109" y="-119.5" font-family="Helvetica,sans-Serif" font-size="10.00" fill="#000000">Graph_Line.cpp</text>
</a>
</g>
</g>
<!-- Node1 -->
<g id="node2" class="node">
<title>Node1</title>
<g id="a_node2"><a xlink:href="../../df/ddd/Graph__Line_8hpp.html" target="_top" xlink:title=" ">
<polygon fill="none" stroke="#000000" points="0,-56.5 0,-75.5 92,-75.5 92,-56.5 0,-56.5"/>
<text text-anchor="middle" x="46" y="-63.5" font-family="Helvetica,sans-Serif" font-size="10.00" fill="#000000">Graph_Line.hpp</text>
</a>
</g>
</g>
<!-- Node0&#45;&gt;Node1 -->
<g id="edge1" class="edge">
<title>Node0&#45;&gt;Node1</title>
<path fill="none" stroke="#191970" d="M98.0262,-112.2455C88.8118,-104.0549 75.4468,-92.1749 64.5703,-82.5069"/>
<polygon fill="#191970" stroke="#191970" points="66.6474,-79.6704 56.848,-75.6427 61.9968,-84.9023 66.6474,-79.6704"/>
</g>
<!-- Node4 -->
<g id="node5" class="node">
<title>Node4</title>
<g id="a_node5"><a xlink:href="../../d1/d05/Graph__Instruction_8hpp.html" target="_top" xlink:title=" ">
<polygon fill="none" stroke="#000000" points="110,-56.5 110,-75.5 234,-75.5 234,-56.5 110,-56.5"/>
<text text-anchor="middle" x="172" y="-63.5" font-family="Helvetica,sans-Serif" font-size="10.00" fill="#000000">Graph_Instruction.hpp</text>
</a>
</g>
</g>
<!-- Node0&#45;&gt;Node4 -->
<g id="edge4" class="edge">
<title>Node0&#45;&gt;Node4</title>
<path fill="none" stroke="#191970" d="M119.9738,-112.2455C129.1882,-104.0549 142.5532,-92.1749 153.4297,-82.5069"/>
<polygon fill="#191970" stroke="#191970" points="156.0032,-84.9023 161.152,-75.6427 151.3526,-79.6704 156.0032,-84.9023"/>
</g>
<!-- Node2 -->
<g id="node3" class="node">
<title>Node2</title>
<g id="a_node3"><a xlink:title=" ">
<polygon fill="none" stroke="#bfbfbf" points="73,-.5 73,-19.5 105,-19.5 105,-.5 73,-.5"/>
<text text-anchor="middle" x="89" y="-7.5" font-family="Helvetica,sans-Serif" font-size="10.00" fill="#000000">list</text>
</a>
</g>
</g>
<!-- Node1&#45;&gt;Node2 -->
<g id="edge2" class="edge">
<title>Node1&#45;&gt;Node2</title>
<path fill="none" stroke="#191970" d="M53.49,-56.2455C59.5326,-48.3761 68.1903,-37.101 75.4441,-27.6542"/>
<polygon fill="#191970" stroke="#191970" points="78.2815,-29.7058 81.5958,-19.6427 72.7295,-25.4426 78.2815,-29.7058"/>
</g>
<!-- Node3 -->
<g id="node4" class="node">
<title>Node3</title>
<g id="a_node4"><a xlink:title=" ">
<polygon fill="none" stroke="#bfbfbf" points="17,-.5 17,-19.5 55,-19.5 55,-.5 17,-.5"/>
<text text-anchor="middle" x="36" y="-7.5" font-family="Helvetica,sans-Serif" font-size="10.00" fill="#000000">map</text>
</a>
</g>
</g>
<!-- Node1&#45;&gt;Node3 -->
<g id="edge3" class="edge">
<title>Node1&#45;&gt;Node3</title>
<path fill="none" stroke="#191970" d="M44.2581,-56.2455C42.9533,-48.9382 41.124,-38.6944 39.5187,-29.7046"/>
<polygon fill="#191970" stroke="#191970" points="42.9254,-28.8717 37.7219,-19.6427 36.0344,-30.1022 42.9254,-28.8717"/>
</g>
<!-- Node4&#45;&gt;Node2 -->
<g id="edge5" class="edge">
<title>Node4&#45;&gt;Node2</title>
<path fill="none" stroke="#191970" d="M157.5425,-56.2455C144.9268,-47.7337 126.4056,-35.2375 111.7955,-25.3801"/>
<polygon fill="#191970" stroke="#191970" points="113.5391,-22.3343 103.2918,-19.6427 109.6239,-28.1371 113.5391,-22.3343"/>
</g>
<!-- Node5 -->
<g id="node6" class="node">
<title>Node5</title>
<g id="a_node6"><a xlink:title=" ">
<polygon fill="none" stroke="#bfbfbf" points="123,-.5 123,-19.5 221,-19.5 221,-.5 123,-.5"/>
<text text-anchor="middle" x="172" y="-7.5" font-family="Helvetica,sans-Serif" font-size="10.00" fill="#000000">llvm/IR/Module.h</text>
</a>
</g>
</g>
<!-- Node4&#45;&gt;Node5 -->
<g id="edge6" class="edge">
<title>Node4&#45;&gt;Node5</title>
<path fill="none" stroke="#191970" d="M172,-56.2455C172,-48.9382 172,-38.6944 172,-29.7046"/>
<polygon fill="#191970" stroke="#191970" points="175.5001,-29.6426 172,-19.6427 168.5001,-29.6427 175.5001,-29.6426"/>
</g>
<!-- Node6 -->
<g id="node7" class="node">
<title>Node6</title>
<g id="a_node7"><a xlink:title=" ">
<polygon fill="none" stroke="#bfbfbf" points="239,-.5 239,-19.5 271,-19.5 271,-.5 239,-.5"/>
<text text-anchor="middle" x="255" y="-7.5" font-family="Helvetica,sans-Serif" font-size="10.00" fill="#000000">set</text>
</a>
</g>
</g>
<!-- Node4&#45;&gt;Node6 -->
<g id="edge7" class="edge">
<title>Node4&#45;&gt;Node6</title>
<path fill="none" stroke="#191970" d="M186.4575,-56.2455C199.0732,-47.7337 217.5944,-35.2375 232.2045,-25.3801"/>
<polygon fill="#191970" stroke="#191970" points="234.3761,-28.1371 240.7082,-19.6427 230.4609,-22.3343 234.3761,-28.1371"/>
</g>
</g>
</svg>
