<?xml version="1.0" encoding="UTF-8" standalone="no"?>
<!DOCTYPE svg PUBLIC "-//W3C//DTD SVG 1.1//EN"
 "http://www.w3.org/Graphics/SVG/1.1/DTD/svg11.dtd">
<!-- Generated by graphviz version 2.40.1 (20161225.0304)
 -->
<!-- Title: Graph_Edge.hpp Pages: 1 -->
<svg width="346pt" height="140pt"
 viewBox="0.00 0.00 346.00 140.00" xmlns="http://www.w3.org/2000/svg" xmlns:xlink="http://www.w3.org/1999/xlink">
<g id="graph0" class="graph" transform="scale(1 1) rotate(0) translate(4 136)">
<title>Graph_Edge.hpp</title>
<!-- Node3 -->
<g id="node1" class="node">
<title>Node3</title>
<g id="a_node1"><a xlink:title=" ">
<polygon fill="#bfbfbf" stroke="#000000" points="135,-112.5 135,-131.5 231,-131.5 231,-112.5 135,-112.5"/>
<text text-anchor="middle" x="183" y="-119.5" font-family="Helvetica,sans-Serif" font-size="10.00" fill="#000000">Graph_Edge.hpp</text>
</a>
</g>
</g>
<!-- Node4 -->
<g id="node2" class="node">
<title>Node4</title>
<g id="a_node2"><a xlink:href="../../dd/dea/Graph_8cpp.html" target="_top" xlink:title=" ">
<polygon fill="none" stroke="#000000" points="0,-56.5 0,-75.5 66,-75.5 66,-56.5 0,-56.5"/>
<text text-anchor="middle" x="33" y="-63.5" font-family="Helvetica,sans-Serif" font-size="10.00" fill="#000000">Graph.cpp</text>
</a>
</g>
</g>
<!-- Node3&#45;&gt;Node4 -->
<g id="edge1" class="edge">
<title>Node3&#45;&gt;Node4</title>
<path fill="none" stroke="#191970" d="M147.6129,-108.7888C120.2247,-98.5639 82.9521,-84.6488 58.4494,-75.5011"/>
<polygon fill="#191970" stroke="#191970" points="146.6215,-112.1546 157.2141,-112.3733 149.0698,-105.5967 146.6215,-112.1546"/>
</g>
<!-- Node5 -->
<g id="node3" class="node">
<title>Node5</title>
<g id="a_node3"><a xlink:href="../../d2/d0d/Graph__Edge_8cpp.html" target="_top" xlink:title=" ">
<polygon fill="none" stroke="#000000" points="84.5,-56.5 84.5,-75.5 179.5,-75.5 179.5,-56.5 84.5,-56.5"/>
<text text-anchor="middle" x="132" y="-63.5" font-family="Helvetica,sans-Serif" font-size="10.00" fill="#000000">Graph_Edge.cpp</text>
</a>
</g>
</g>
<!-- Node3&#45;&gt;Node5 -->
<g id="edge2" class="edge">
<title>Node3&#45;&gt;Node5</title>
<path fill="none" stroke="#191970" d="M167.3251,-104.7884C158.6006,-95.2085 148.0646,-83.6396 140.7817,-75.6427"/>
<polygon fill="#191970" stroke="#191970" points="164.7954,-107.2088 174.1165,-112.2455 169.9709,-102.4954 164.7954,-107.2088"/>
</g>
<!-- Node6 -->
<g id="node4" class="node">
<title>Node6</title>
<g id="a_node4"><a xlink:href="../../df/de4/MVICFG_8hpp.html" target="_top" xlink:title=" ">
<polygon fill="none" stroke="#000000" points="197.5,-56.5 197.5,-75.5 272.5,-75.5 272.5,-56.5 197.5,-56.5"/>
<text text-anchor="middle" x="235" y="-63.5" font-family="Helvetica,sans-Serif" font-size="10.00" fill="#000000">MVICFG.hpp</text>
</a>
</g>
</g>
<!-- Node3&#45;&gt;Node6 -->
<g id="edge3" class="edge">
<title>Node3&#45;&gt;Node6</title>
<path fill="none" stroke="#191970" d="M198.9822,-104.7884C207.8778,-95.2085 218.6204,-83.6396 226.0461,-75.6427"/>
<polygon fill="#191970" stroke="#191970" points="196.2975,-102.536 192.0577,-112.2455 201.427,-107.2992 196.2975,-102.536"/>
</g>
<!-- Node8 -->
<g id="node6" class="node">
<title>Node8</title>
<g id="a_node6"><a xlink:href="../../db/d17/MVICFG_8cpp.html" target="_top" xlink:title=" ">
<polygon fill="none" stroke="#000000" points="264,-.5 264,-19.5 338,-19.5 338,-.5 264,-.5"/>
<text text-anchor="middle" x="301" y="-7.5" font-family="Helvetica,sans-Serif" font-size="10.00" fill="#000000">MVICFG.cpp</text>
</a>
</g>
</g>
<!-- Node3&#45;&gt;Node8 -->
<g id="edge6" class="edge">
<title>Node3&#45;&gt;Node8</title>
<path fill="none" stroke="#191970" d="M230.5017,-108.88C248.5092,-101.7729 267.825,-91.2328 281,-76 295.0981,-59.6998 299.2585,-33.6924 300.4861,-19.6871"/>
<polygon fill="#191970" stroke="#191970" points="228.8623,-105.7532 220.6794,-112.4831 231.2731,-112.325 228.8623,-105.7532"/>
</g>
<!-- Node7 -->
<g id="node5" class="node">
<title>Node7</title>
<g id="a_node5"><a xlink:href="../../de/d64/Hydrogen_8cpp.html" target="_top" xlink:title=" ">
<polygon fill="none" stroke="#000000" points="162,-.5 162,-19.5 246,-19.5 246,-.5 162,-.5"/>
<text text-anchor="middle" x="204" y="-7.5" font-family="Helvetica,sans-Serif" font-size="10.00" fill="#000000">Hydrogen.cpp</text>
</a>
</g>
</g>
<!-- Node6&#45;&gt;Node7 -->
<g id="edge4" class="edge">
<title>Node6&#45;&gt;Node7</title>
<path fill="none" stroke="#191970" d="M224.6688,-47.3372C219.5335,-38.0605 213.5434,-27.2398 209.3379,-19.6427"/>
<polygon fill="#191970" stroke="#191970" points="221.6949,-49.1917 229.6002,-56.2455 227.8191,-45.8015 221.6949,-49.1917"/>
</g>
<!-- Node6&#45;&gt;Node8 -->
<g id="edge5" class="edge">
<title>Node6&#45;&gt;Node8</title>
<path fill="none" stroke="#191970" d="M254.2755,-49.645C265.7538,-39.9058 279.9277,-27.8795 289.6354,-19.6427"/>
<polygon fill="#191970" stroke="#191970" points="251.857,-47.1069 246.4963,-56.2455 256.3859,-52.4445 251.857,-47.1069"/>
</g>
</g>
</svg>
