<?xml version="1.0" encoding="UTF-8" standalone="no"?>
<!DOCTYPE svg PUBLIC "-//W3C//DTD SVG 1.1//EN"
 "http://www.w3.org/Graphics/SVG/1.1/DTD/svg11.dtd">
<!-- Generated by graphviz version 2.40.1 (20161225.0304)
 -->
<!-- Title: Graph.cpp Pages: 1 -->
<svg width="1113pt" height="140pt"
 viewBox="0.00 0.00 1113.00 140.00" xmlns="http://www.w3.org/2000/svg" xmlns:xlink="http://www.w3.org/1999/xlink">
<g id="graph0" class="graph" transform="scale(1 1) rotate(0) translate(4 136)">
<title>Graph.cpp</title>
<!-- Node0 -->
<g id="node1" class="node">
<title>Node0</title>
<g id="a_node1"><a xlink:title=" ">
<polygon fill="#bfbfbf" stroke="#000000" points="772,-112.5 772,-131.5 838,-131.5 838,-112.5 772,-112.5"/>
<text text-anchor="middle" x="805" y="-119.5" font-family="Helvetica,sans-Serif" font-size="10.00" fill="#000000">Graph.cpp</text>
</a>
</g>
</g>
<!-- Node1 -->
<g id="node2" class="node">
<title>Node1</title>
<g id="a_node2"><a xlink:href="../../d9/d69/Graph_8hpp.html" target="_top" xlink:title=" ">
<polygon fill="none" stroke="#000000" points="525.5,-56.5 525.5,-75.5 592.5,-75.5 592.5,-56.5 525.5,-56.5"/>
<text text-anchor="middle" x="559" y="-63.5" font-family="Helvetica,sans-Serif" font-size="10.00" fill="#000000">Graph.hpp</text>
</a>
</g>
</g>
<!-- Node0&#45;&gt;Node1 -->
<g id="edge1" class="edge">
<title>Node0&#45;&gt;Node1</title>
<path fill="none" stroke="#191970" d="M771.8233,-114.4476C728.1128,-104.4972 651.1257,-86.9717 602.7081,-75.9498"/>
<polygon fill="#191970" stroke="#191970" points="603.3596,-72.5087 592.8322,-73.7016 601.8058,-79.334 603.3596,-72.5087"/>
</g>
<!-- Node10 -->
<g id="node11" class="node">
<title>Node10</title>
<g id="a_node11"><a xlink:href="../../df/d2f/Graph__Edge_8hpp.html" target="_top" xlink:title=" ">
<polygon fill="none" stroke="#000000" points="757,-56.5 757,-75.5 853,-75.5 853,-56.5 757,-56.5"/>
<text text-anchor="middle" x="805" y="-63.5" font-family="Helvetica,sans-Serif" font-size="10.00" fill="#000000">Graph_Edge.hpp</text>
</a>
</g>
</g>
<!-- Node0&#45;&gt;Node10 -->
<g id="edge10" class="edge">
<title>Node0&#45;&gt;Node10</title>
<path fill="none" stroke="#191970" d="M805,-112.2455C805,-104.9382 805,-94.6944 805,-85.7046"/>
<polygon fill="#191970" stroke="#191970" points="808.5001,-85.6426 805,-75.6427 801.5001,-85.6427 808.5001,-85.6426"/>
</g>
<!-- Node12 -->
<g id="node13" class="node">
<title>Node12</title>
<g id="a_node13"><a xlink:href="../../d6/dba/Graph__Function_8hpp.html" target="_top" xlink:title=" ">
<polygon fill="none" stroke="#000000" points="625.5,-56.5 625.5,-75.5 738.5,-75.5 738.5,-56.5 625.5,-56.5"/>
<text text-anchor="middle" x="682" y="-63.5" font-family="Helvetica,sans-Serif" font-size="10.00" fill="#000000">Graph_Function.hpp</text>
</a>
</g>
</g>
<!-- Node0&#45;&gt;Node12 -->
<g id="edge13" class="edge">
<title>Node0&#45;&gt;Node12</title>
<path fill="none" stroke="#191970" d="M783.8555,-112.3733C764.1108,-103.3838 734.4302,-89.8706 712.1945,-79.7471"/>
<polygon fill="#191970" stroke="#191970" points="713.42,-76.4594 702.8685,-75.5011 710.5194,-82.8302 713.42,-76.4594"/>
</g>
<!-- Node13 -->
<g id="node14" class="node">
<title>Node13</title>
<g id="a_node14"><a xlink:href="../../d1/d05/Graph__Instruction_8hpp.html" target="_top" xlink:title=" ">
<polygon fill="none" stroke="#000000" points="871,-56.5 871,-75.5 995,-75.5 995,-56.5 871,-56.5"/>
<text text-anchor="middle" x="933" y="-63.5" font-family="Helvetica,sans-Serif" font-size="10.00" fill="#000000">Graph_Instruction.hpp</text>
</a>
</g>
</g>
<!-- Node0&#45;&gt;Node13 -->
<g id="edge16" class="edge">
<title>Node0&#45;&gt;Node13</title>
<path fill="none" stroke="#191970" d="M827.004,-112.3733C847.6435,-103.3435 878.7158,-89.7494 901.8889,-79.6111"/>
<polygon fill="#191970" stroke="#191970" points="903.5245,-82.7159 911.2831,-75.5011 900.7187,-76.3028 903.5245,-82.7159"/>
</g>
<!-- Node16 -->
<g id="node17" class="node">
<title>Node16</title>
<g id="a_node17"><a xlink:href="../../df/ddd/Graph__Line_8hpp.html" target="_top" xlink:title=" ">
<polygon fill="none" stroke="#000000" points="1013,-56.5 1013,-75.5 1105,-75.5 1105,-56.5 1013,-56.5"/>
<text text-anchor="middle" x="1059" y="-63.5" font-family="Helvetica,sans-Serif" font-size="10.00" fill="#000000">Graph_Line.hpp</text>
</a>
</g>
</g>
<!-- Node0&#45;&gt;Node16 -->
<g id="edge20" class="edge">
<title>Node0&#45;&gt;Node16</title>
<path fill="none" stroke="#191970" d="M838.2061,-114.679C880.8169,-105.2845 955.2557,-88.8728 1005.8046,-77.7281"/>
<polygon fill="#191970" stroke="#191970" points="1006.5675,-81.1441 1015.5794,-75.573 1005.0603,-74.3082 1006.5675,-81.1441"/>
</g>
<!-- Node2 -->
<g id="node3" class="node">
<title>Node2</title>
<g id="a_node3"><a xlink:title=" ">
<polygon fill="none" stroke="#bfbfbf" points="693.5,-.5 693.5,-19.5 748.5,-19.5 748.5,-.5 693.5,-.5"/>
<text text-anchor="middle" x="721" y="-7.5" font-family="Helvetica,sans-Serif" font-size="10.00" fill="#000000">fstream</text>
</a>
</g>
</g>
<!-- Node1&#45;&gt;Node2 -->
<g id="edge2" class="edge">
<title>Node1&#45;&gt;Node2</title>
<path fill="none" stroke="#191970" d="M586.8488,-56.3733C613.6703,-47.1016 654.4127,-33.0178 683.9598,-22.804"/>
<polygon fill="#191970" stroke="#191970" points="685.2069,-26.0762 693.5146,-19.5011 682.9198,-19.4603 685.2069,-26.0762"/>
</g>
<!-- Node3 -->
<g id="node4" class="node">
<title>Node3</title>
<g id="a_node4"><a xlink:title=" ">
<polygon fill="none" stroke="#bfbfbf" points="0,-.5 0,-19.5 60,-19.5 60,-.5 0,-.5"/>
<text text-anchor="middle" x="30" y="-7.5" font-family="Helvetica,sans-Serif" font-size="10.00" fill="#000000">iostream</text>
</a>
</g>
</g>
<!-- Node1&#45;&gt;Node3 -->
<g id="edge3" class="edge">
<title>Node1&#45;&gt;Node3</title>
<path fill="none" stroke="#191970" d="M525.4884,-64.6732C447.2975,-61.1904 246.6698,-50.0171 70.1185,-19.9512"/>
<polygon fill="#191970" stroke="#191970" points="70.5819,-16.4795 60.1319,-18.2256 69.39,-23.3773 70.5819,-16.4795"/>
</g>
<!-- Node4 -->
<g id="node5" class="node">
<title>Node4</title>
<g id="a_node5"><a xlink:title=" ">
<polygon fill="none" stroke="#bfbfbf" points="829,-.5 829,-19.5 861,-19.5 861,-.5 829,-.5"/>
<text text-anchor="middle" x="845" y="-7.5" font-family="Helvetica,sans-Serif" font-size="10.00" fill="#000000">list</text>
</a>
</g>
</g>
<!-- Node1&#45;&gt;Node4 -->
<g id="edge4" class="edge">
<title>Node1&#45;&gt;Node4</title>
<path fill="none" stroke="#191970" d="M592.6444,-60.0931C654.079,-49.3044 781.0227,-26.9986 818.5867,-19.3559"/>
<polygon fill="#191970" stroke="#191970" points="819.7802,-22.6744 828.7617,-17.0545 818.2359,-15.8469 819.7802,-22.6744"/>
</g>
<!-- Node5 -->
<g id="node6" class="node">
<title>Node5</title>
<g id="a_node6"><a xlink:title=" ">
<polygon fill="none" stroke="#bfbfbf" points="78.5,-.5 78.5,-19.5 179.5,-19.5 179.5,-.5 78.5,-.5"/>
<text text-anchor="middle" x="129" y="-7.5" font-family="Helvetica,sans-Serif" font-size="10.00" fill="#000000">llvm/IR/CallSite.h</text>
</a>
</g>
</g>
<!-- Node1&#45;&gt;Node5 -->
<g id="edge5" class="edge">
<title>Node1&#45;&gt;Node5</title>
<path fill="none" stroke="#191970" d="M525.4241,-62.3442C461.9052,-55.3187 319.5672,-39.0546 189.6352,-20.192"/>
<polygon fill="#191970" stroke="#191970" points="189.908,-16.6948 179.5071,-18.7126 188.8962,-23.6213 189.908,-16.6948"/>
</g>
<!-- Node6 -->
<g id="node7" class="node">
<title>Node6</title>
<g id="a_node7"><a xlink:title=" ">
<polygon fill="none" stroke="#bfbfbf" points="197.5,-.5 197.5,-19.5 356.5,-19.5 356.5,-.5 197.5,-.5"/>
<text text-anchor="middle" x="277" y="-7.5" font-family="Helvetica,sans-Serif" font-size="10.00" fill="#000000">llvm/IR/DebugInfoMetadata.h</text>
</a>
</g>
</g>
<!-- Node1&#45;&gt;Node6 -->
<g id="edge6" class="edge">
<title>Node1&#45;&gt;Node6</title>
<path fill="none" stroke="#191970" d="M525.2643,-59.3007C478.2355,-49.9617 392.2998,-32.8964 334.9116,-21.5002"/>
<polygon fill="#191970" stroke="#191970" points="335.3882,-18.0265 324.898,-19.5117 334.0247,-24.8925 335.3882,-18.0265"/>
</g>
<!-- Node7 -->
<g id="node8" class="node">
<title>Node7</title>
<g id="a_node8"><a xlink:title=" ">
<polygon fill="none" stroke="#bfbfbf" points="374.5,-.5 374.5,-19.5 487.5,-19.5 487.5,-.5 374.5,-.5"/>
<text text-anchor="middle" x="431" y="-7.5" font-family="Helvetica,sans-Serif" font-size="10.00" fill="#000000">llvm/IR/InstrTypes.h</text>
</a>
</g>
</g>
<!-- Node1&#45;&gt;Node7 -->
<g id="edge7" class="edge">
<title>Node1&#45;&gt;Node7</title>
<path fill="none" stroke="#191970" d="M536.996,-56.3733C516.3565,-47.3435 485.2842,-33.7494 462.1111,-23.6111"/>
<polygon fill="#191970" stroke="#191970" points="463.2813,-20.3028 452.7169,-19.5011 460.4755,-26.7159 463.2813,-20.3028"/>
</g>
<!-- Node8 -->
<g id="node9" class="node">
<title>Node8</title>
<g id="a_node9"><a xlink:title=" ">
<polygon fill="none" stroke="#bfbfbf" points="505.5,-.5 505.5,-19.5 612.5,-19.5 612.5,-.5 505.5,-.5"/>
<text text-anchor="middle" x="559" y="-7.5" font-family="Helvetica,sans-Serif" font-size="10.00" fill="#000000">llvm/IR/Intrinsics.h</text>
</a>
</g>
</g>
<!-- Node1&#45;&gt;Node8 -->
<g id="edge8" class="edge">
<title>Node1&#45;&gt;Node8</title>
<path fill="none" stroke="#191970" d="M559,-56.2455C559,-48.9382 559,-38.6944 559,-29.7046"/>
<polygon fill="#191970" stroke="#191970" points="562.5001,-29.6426 559,-19.6427 555.5001,-29.6427 562.5001,-29.6426"/>
</g>
<!-- Node9 -->
<g id="node10" class="node">
<title>Node9</title>
<g id="a_node10"><a xlink:title=" ">
<polygon fill="none" stroke="#bfbfbf" points="631,-.5 631,-19.5 675,-19.5 675,-.5 631,-.5"/>
<text text-anchor="middle" x="653" y="-7.5" font-family="Helvetica,sans-Serif" font-size="10.00" fill="#000000">regex</text>
</a>
</g>
</g>
<!-- Node1&#45;&gt;Node9 -->
<g id="edge9" class="edge">
<title>Node1&#45;&gt;Node9</title>
<path fill="none" stroke="#191970" d="M575.3736,-56.2455C589.9308,-47.5731 611.431,-34.7645 628.1152,-24.825"/>
<polygon fill="#191970" stroke="#191970" points="630.0144,-27.7676 636.8141,-19.6427 626.4317,-21.7539 630.0144,-27.7676"/>
</g>
<!-- Node10&#45;&gt;Node4 -->
<g id="edge11" class="edge">
<title>Node10&#45;&gt;Node4</title>
<path fill="none" stroke="#191970" d="M811.9675,-56.2455C817.5311,-48.4564 825.478,-37.3308 832.1829,-27.9439"/>
<polygon fill="#191970" stroke="#191970" points="835.148,-29.8144 838.1124,-19.6427 829.4519,-25.7457 835.148,-29.8144"/>
</g>
<!-- Node11 -->
<g id="node12" class="node">
<title>Node11</title>
<g id="a_node12"><a xlink:title=" ">
<polygon fill="none" stroke="#bfbfbf" points="767,-.5 767,-19.5 811,-19.5 811,-.5 767,-.5"/>
<text text-anchor="middle" x="789" y="-7.5" font-family="Helvetica,sans-Serif" font-size="10.00" fill="#000000">string</text>
</a>
</g>
</g>
<!-- Node10&#45;&gt;Node11 -->
<g id="edge12" class="edge">
<title>Node10&#45;&gt;Node11</title>
<path fill="none" stroke="#191970" d="M802.213,-56.2455C800.1023,-48.8579 797.134,-38.4689 794.5453,-29.4087"/>
<polygon fill="#191970" stroke="#191970" points="797.8677,-28.2964 791.755,-19.6427 791.137,-30.2195 797.8677,-28.2964"/>
</g>
<!-- Node12&#45;&gt;Node4 -->
<g id="edge14" class="edge">
<title>Node12&#45;&gt;Node4</title>
<path fill="none" stroke="#191970" d="M712.3281,-56.4566C738.4333,-48.1178 777.2933,-35.411 819.328,-20.1104"/>
<polygon fill="#191970" stroke="#191970" points="820.7317,-23.3236 828.9156,-16.595 818.3219,-16.7514 820.7317,-23.3236"/>
</g>
<!-- Node12&#45;&gt;Node11 -->
<g id="edge15" class="edge">
<title>Node12&#45;&gt;Node11</title>
<path fill="none" stroke="#191970" d="M700.638,-56.2455C717.4386,-47.4527 742.3634,-34.4079 761.4618,-24.4125"/>
<polygon fill="#191970" stroke="#191970" points="763.3386,-27.3807 770.5756,-19.6427 760.0927,-21.1787 763.3386,-27.3807"/>
</g>
<!-- Node13&#45;&gt;Node4 -->
<g id="edge17" class="edge">
<title>Node13&#45;&gt;Node4</title>
<path fill="none" stroke="#191970" d="M917.6716,-56.2455C904.1697,-47.6534 884.2878,-35.0014 868.7314,-25.1018"/>
<polygon fill="#191970" stroke="#191970" points="870.4685,-22.0587 860.1528,-19.6427 866.7103,-27.9643 870.4685,-22.0587"/>
</g>
<!-- Node14 -->
<g id="node15" class="node">
<title>Node14</title>
<g id="a_node15"><a xlink:title=" ">
<polygon fill="none" stroke="#bfbfbf" points="879,-.5 879,-19.5 977,-19.5 977,-.5 879,-.5"/>
<text text-anchor="middle" x="928" y="-7.5" font-family="Helvetica,sans-Serif" font-size="10.00" fill="#000000">llvm/IR/Module.h</text>
</a>
</g>
</g>
<!-- Node13&#45;&gt;Node14 -->
<g id="edge18" class="edge">
<title>Node13&#45;&gt;Node14</title>
<path fill="none" stroke="#191970" d="M932.1291,-56.2455C931.4766,-48.9382 930.562,-38.6944 929.7593,-29.7046"/>
<polygon fill="#191970" stroke="#191970" points="933.2365,-29.2918 928.861,-19.6427 926.2642,-29.9143 933.2365,-29.2918"/>
</g>
<!-- Node15 -->
<g id="node16" class="node">
<title>Node15</title>
<g id="a_node16"><a xlink:title=" ">
<polygon fill="none" stroke="#bfbfbf" points="995,-.5 995,-19.5 1027,-19.5 1027,-.5 995,-.5"/>
<text text-anchor="middle" x="1011" y="-7.5" font-family="Helvetica,sans-Serif" font-size="10.00" fill="#000000">set</text>
</a>
</g>
</g>
<!-- Node13&#45;&gt;Node15 -->
<g id="edge19" class="edge">
<title>Node13&#45;&gt;Node15</title>
<path fill="none" stroke="#191970" d="M946.5866,-56.2455C958.3305,-47.814 975.5199,-35.4729 989.1882,-25.6598"/>
<polygon fill="#191970" stroke="#191970" points="991.4871,-28.3179 997.5691,-19.6427 987.4046,-22.6316 991.4871,-28.3179"/>
</g>
<!-- Node16&#45;&gt;Node4 -->
<g id="edge21" class="edge">
<title>Node16&#45;&gt;Node4</title>
<path fill="none" stroke="#191970" d="M1012.6645,-56.6447C976.2731,-48.8665 924.2309,-36.7968 870.6756,-19.8925"/>
<polygon fill="#191970" stroke="#191970" points="871.6069,-16.5156 861.0157,-16.7952 869.4696,-23.1814 871.6069,-16.5156"/>
</g>
<!-- Node17 -->
<g id="node18" class="node">
<title>Node17</title>
<g id="a_node18"><a xlink:title=" ">
<polygon fill="none" stroke="#bfbfbf" points="1045,-.5 1045,-19.5 1083,-19.5 1083,-.5 1045,-.5"/>
<text text-anchor="middle" x="1064" y="-7.5" font-family="Helvetica,sans-Serif" font-size="10.00" fill="#000000">map</text>
</a>
</g>
</g>
<!-- Node16&#45;&gt;Node17 -->
<g id="edge22" class="edge">
<title>Node16&#45;&gt;Node17</title>
<path fill="none" stroke="#191970" d="M1059.8709,-56.2455C1060.5234,-48.9382 1061.438,-38.6944 1062.2407,-29.7046"/>
<polygon fill="#191970" stroke="#191970" points="1065.7358,-29.9143 1063.139,-19.6427 1058.7635,-29.2918 1065.7358,-29.9143"/>
</g>
</g>
</svg>
