<?xml version="1.0" encoding="UTF-8" standalone="no"?>
<!DOCTYPE svg PUBLIC "-//W3C//DTD SVG 1.1//EN"
 "http://www.w3.org/Graphics/SVG/1.1/DTD/svg11.dtd">
<!-- Generated by graphviz version 2.40.1 (20161225.0304)
 -->
<!-- Title: MVICFG.cpp Pages: 1 -->
<svg width="2625pt" height="196pt"
 viewBox="0.00 0.00 2625.00 196.00" xmlns="http://www.w3.org/2000/svg" xmlns:xlink="http://www.w3.org/1999/xlink">
<g id="graph0" class="graph" transform="scale(1 1) rotate(0) translate(4 192)">
<title>MVICFG.cpp</title>
<!-- Node0 -->
<g id="node1" class="node">
<title>Node0</title>
<g id="a_node1"><a xlink:title=" ">
<polygon fill="#bfbfbf" stroke="#000000" points="1219.5,-168.5 1219.5,-187.5 1293.5,-187.5 1293.5,-168.5 1219.5,-168.5"/>
<text text-anchor="middle" x="1256.5" y="-175.5" font-family="Helvetica,sans-Serif" font-size="10.00" fill="#000000">MVICFG.cpp</text>
</a>
</g>
</g>
<!-- Node1 -->
<g id="node2" class="node">
<title>Node1</title>
<g id="a_node2"><a xlink:href="../../df/de4/MVICFG_8hpp.html" target="_top" xlink:title=" ">
<polygon fill="none" stroke="#000000" points="1327,-112.5 1327,-131.5 1402,-131.5 1402,-112.5 1327,-112.5"/>
<text text-anchor="middle" x="1364.5" y="-119.5" font-family="Helvetica,sans-Serif" font-size="10.00" fill="#000000">MVICFG.hpp</text>
</a>
</g>
</g>
<!-- Node0&#45;&gt;Node1 -->
<g id="edge1" class="edge">
<title>Node0&#45;&gt;Node1</title>
<path fill="none" stroke="#191970" d="M1275.3122,-168.2455C1292.3473,-159.4125 1317.6575,-146.2887 1336.9681,-136.2758"/>
<polygon fill="#191970" stroke="#191970" points="1338.637,-139.353 1345.9034,-131.6427 1335.4147,-133.1388 1338.637,-139.353"/>
</g>
<!-- Node2 -->
<g id="node3" class="node">
<title>Node2</title>
<g id="a_node3"><a xlink:href="../../df/d2f/Graph__Edge_8hpp.html" target="_top" xlink:title=" ">
<polygon fill="none" stroke="#000000" points="1087.5,-56.5 1087.5,-75.5 1183.5,-75.5 1183.5,-56.5 1087.5,-56.5"/>
<text text-anchor="middle" x="1135.5" y="-63.5" font-family="Helvetica,sans-Serif" font-size="10.00" fill="#000000">Graph_Edge.hpp</text>
</a>
</g>
</g>
<!-- Node0&#45;&gt;Node2 -->
<g id="edge29" class="edge">
<title>Node0&#45;&gt;Node2</title>
<path fill="none" stroke="#191970" d="M1246.1836,-168.4509C1225.5558,-149.3574 1179.0057,-106.2697 1153.3328,-82.5063"/>
<polygon fill="#191970" stroke="#191970" points="1155.5065,-79.7492 1145.7903,-75.5249 1150.7515,-84.8864 1155.5065,-79.7492"/>
</g>
<!-- Node9 -->
<g id="node10" class="node">
<title>Node9</title>
<g id="a_node10"><a xlink:href="../../df/d13/Diff__Mapping_8hpp.html" target="_top" xlink:title=" ">
<polygon fill="none" stroke="#000000" points="240,-112.5 240,-131.5 341,-131.5 341,-112.5 240,-112.5"/>
<text text-anchor="middle" x="290.5" y="-119.5" font-family="Helvetica,sans-Serif" font-size="10.00" fill="#000000">Diff_Mapping.hpp</text>
</a>
</g>
</g>
<!-- Node0&#45;&gt;Node9 -->
<g id="edge11" class="edge">
<title>Node0&#45;&gt;Node9</title>
<path fill="none" stroke="#191970" d="M1219.2236,-175.839C1072.4564,-167.3308 533.6034,-136.0929 351.2699,-125.5229"/>
<polygon fill="#191970" stroke="#191970" points="351.2456,-122.0157 341.0598,-124.931 350.8404,-129.004 351.2456,-122.0157"/>
</g>
<!-- Node14 -->
<g id="node15" class="node">
<title>Node14</title>
<g id="a_node15"><a xlink:href="../../d9/d69/Graph_8hpp.html" target="_top" xlink:title=" ">
<polygon fill="none" stroke="#000000" points="639,-112.5 639,-131.5 706,-131.5 706,-112.5 639,-112.5"/>
<text text-anchor="middle" x="672.5" y="-119.5" font-family="Helvetica,sans-Serif" font-size="10.00" fill="#000000">Graph.hpp</text>
</a>
</g>
</g>
<!-- Node0&#45;&gt;Node14 -->
<g id="edge20" class="edge">
<title>Node0&#45;&gt;Node14</title>
<path fill="none" stroke="#191970" d="M1219.0798,-174.4118C1115.7963,-164.5079 827.086,-136.8233 716.4304,-126.2125"/>
<polygon fill="#191970" stroke="#191970" points="716.5783,-122.7107 706.2898,-125.2401 715.91,-129.6788 716.5783,-122.7107"/>
</g>
<!-- Node20 -->
<g id="node21" class="node">
<title>Node20</title>
<g id="a_node21"><a xlink:href="../../d6/dba/Graph__Function_8hpp.html" target="_top" xlink:title=" ">
<polygon fill="none" stroke="#000000" points="113,-56.5 113,-75.5 226,-75.5 226,-56.5 113,-56.5"/>
<text text-anchor="middle" x="169.5" y="-63.5" font-family="Helvetica,sans-Serif" font-size="10.00" fill="#000000">Graph_Function.hpp</text>
</a>
</g>
</g>
<!-- Node0&#45;&gt;Node20 -->
<g id="edge30" class="edge">
<title>Node0&#45;&gt;Node20</title>
<path fill="none" stroke="#191970" d="M1219.4146,-177.127C1040.8285,-172.8231 276.1846,-153.2166 230.5,-132 208.7337,-121.8914 191.1023,-100.1041 180.4946,-84.3211"/>
<polygon fill="#191970" stroke="#191970" points="183.4179,-82.3958 175.0824,-75.8559 177.5202,-86.1664 183.4179,-82.3958"/>
</g>
<!-- Node21 -->
<g id="node22" class="node">
<title>Node21</title>
<g id="a_node22"><a xlink:href="../../d1/d05/Graph__Instruction_8hpp.html" target="_top" xlink:title=" ">
<polygon fill="none" stroke="#000000" points="1636.5,-112.5 1636.5,-131.5 1760.5,-131.5 1760.5,-112.5 1636.5,-112.5"/>
<text text-anchor="middle" x="1698.5" y="-119.5" font-family="Helvetica,sans-Serif" font-size="10.00" fill="#000000">Graph_Instruction.hpp</text>
</a>
</g>
</g>
<!-- Node0&#45;&gt;Node21 -->
<g id="edge33" class="edge">
<title>Node0&#45;&gt;Node21</title>
<path fill="none" stroke="#191970" d="M1293.6554,-173.4024C1359.7935,-165.2025 1502.2917,-147.4624 1622.5,-132 1623.7622,-131.8376 1625.0361,-131.6735 1626.3192,-131.5078"/>
<polygon fill="#191970" stroke="#191970" points="1626.8232,-134.9719 1636.2903,-130.2153 1625.9233,-128.0299 1626.8232,-134.9719"/>
</g>
<!-- Node23 -->
<g id="node24" class="node">
<title>Node23</title>
<g id="a_node24"><a xlink:href="../../df/ddd/Graph__Line_8hpp.html" target="_top" xlink:title=" ">
<polygon fill="none" stroke="#000000" points="1521.5,-112.5 1521.5,-131.5 1613.5,-131.5 1613.5,-112.5 1521.5,-112.5"/>
<text text-anchor="middle" x="1567.5" y="-119.5" font-family="Helvetica,sans-Serif" font-size="10.00" fill="#000000">Graph_Line.hpp</text>
</a>
</g>
</g>
<!-- Node0&#45;&gt;Node23 -->
<g id="edge37" class="edge">
<title>Node0&#45;&gt;Node23</title>
<path fill="none" stroke="#191970" d="M1293.705,-171.3007C1347.6939,-161.5792 1448.1769,-143.4858 1511.2445,-132.1296"/>
<polygon fill="#191970" stroke="#191970" points="1512.1936,-135.5151 1521.4151,-130.2982 1510.9531,-128.6259 1512.1936,-135.5151"/>
</g>
<!-- Node24 -->
<g id="node25" class="node">
<title>Node24</title>
<g id="a_node25"><a xlink:href="../../d5/d44/Module_8hpp.html" target="_top" xlink:title=" ">
<polygon fill="none" stroke="#000000" points="1918,-112.5 1918,-131.5 1991,-131.5 1991,-112.5 1918,-112.5"/>
<text text-anchor="middle" x="1954.5" y="-119.5" font-family="Helvetica,sans-Serif" font-size="10.00" fill="#000000">Module.hpp</text>
</a>
</g>
</g>
<!-- Node0&#45;&gt;Node24 -->
<g id="edge40" class="edge">
<title>Node0&#45;&gt;Node24</title>
<path fill="none" stroke="#191970" d="M1293.5347,-175.0287C1411.3934,-165.573 1777.6459,-136.1889 1907.9206,-125.737"/>
<polygon fill="#191970" stroke="#191970" points="1908.2877,-129.2189 1917.9758,-124.9303 1907.7279,-122.2413 1908.2877,-129.2189"/>
</g>
<!-- Node1&#45;&gt;Node2 -->
<g id="edge2" class="edge">
<title>Node1&#45;&gt;Node2</title>
<path fill="none" stroke="#191970" d="M1326.9417,-112.8154C1288.059,-103.307 1227.1435,-88.4106 1184.4967,-77.9817"/>
<polygon fill="#191970" stroke="#191970" points="1185.1581,-74.5404 1174.6129,-75.5647 1183.4953,-81.34 1185.1581,-74.5404"/>
</g>
<!-- Node3 -->
<g id="node4" class="node">
<title>Node3</title>
<g id="a_node4"><a xlink:title=" ">
<polygon fill="none" stroke="#bfbfbf" points="1119.5,-.5 1119.5,-19.5 1151.5,-19.5 1151.5,-.5 1119.5,-.5"/>
<text text-anchor="middle" x="1135.5" y="-7.5" font-family="Helvetica,sans-Serif" font-size="10.00" fill="#000000">list</text>
</a>
</g>
</g>
<!-- Node1&#45;&gt;Node3 -->
<g id="edge6" class="edge">
<title>Node1&#45;&gt;Node3</title>
<path fill="none" stroke="#191970" d="M1402.2886,-117.3616C1452.8819,-109.6876 1532.8506,-91.5375 1501.5,-56 1479.0427,-30.5436 1242.7209,-15.7003 1162.1983,-11.3521"/>
<polygon fill="#191970" stroke="#191970" points="1162.0795,-7.8411 1151.9087,-10.8082 1161.7099,-14.8313 1162.0795,-7.8411"/>
</g>
<!-- Node4 -->
<g id="node5" class="node">
<title>Node4</title>
<g id="a_node5"><a xlink:title=" ">
<polygon fill="none" stroke="#bfbfbf" points="602.5,-.5 602.5,-19.5 646.5,-19.5 646.5,-.5 602.5,-.5"/>
<text text-anchor="middle" x="624.5" y="-7.5" font-family="Helvetica,sans-Serif" font-size="10.00" fill="#000000">string</text>
</a>
</g>
</g>
<!-- Node1&#45;&gt;Node4 -->
<g id="edge10" class="edge">
<title>Node1&#45;&gt;Node4</title>
<path fill="none" stroke="#191970" d="M1332.2997,-112.4781C1304.8238,-103.9924 1264.4853,-90.6733 1230.5,-76 1212.9781,-68.4348 1210.828,-61.3228 1192.5,-56 1090.7599,-26.4528 761.7053,-14.1485 656.8893,-10.9164"/>
<polygon fill="#191970" stroke="#191970" points="656.7246,-7.41 646.6237,-10.607 656.5137,-14.4068 656.7246,-7.41"/>
</g>
<!-- Node5 -->
<g id="node6" class="node">
<title>Node5</title>
<g id="a_node6"><a xlink:title=" ">
<polygon fill="none" stroke="#bfbfbf" points="1373,-56.5 1373,-75.5 1492,-75.5 1492,-56.5 1373,-56.5"/>
<text text-anchor="middle" x="1432.5" y="-63.5" font-family="Helvetica,sans-Serif" font-size="10.00" fill="#000000">boost/filesystem.hpp</text>
</a>
</g>
</g>
<!-- Node1&#45;&gt;Node5 -->
<g id="edge5" class="edge">
<title>Node1&#45;&gt;Node5</title>
<path fill="none" stroke="#191970" d="M1376.3447,-112.2455C1386.388,-103.9746 1400.9995,-91.9416 1412.8004,-82.2232"/>
<polygon fill="#191970" stroke="#191970" points="1415.2967,-84.7015 1420.791,-75.6427 1410.8467,-79.298 1415.2967,-84.7015"/>
</g>
<!-- Node6 -->
<g id="node7" class="node">
<title>Node6</title>
<g id="a_node7"><a xlink:title=" ">
<polygon fill="none" stroke="#bfbfbf" points="1240,-56.5 1240,-75.5 1355,-75.5 1355,-56.5 1240,-56.5"/>
<text text-anchor="middle" x="1297.5" y="-63.5" font-family="Helvetica,sans-Serif" font-size="10.00" fill="#000000">llvm/IR/Instruction.h</text>
</a>
</g>
</g>
<!-- Node1&#45;&gt;Node6 -->
<g id="edge7" class="edge">
<title>Node1&#45;&gt;Node6</title>
<path fill="none" stroke="#191970" d="M1352.8295,-112.2455C1342.9339,-103.9746 1328.5373,-91.9416 1316.9099,-82.2232"/>
<polygon fill="#191970" stroke="#191970" points="1318.9542,-79.3703 1309.0368,-75.6427 1314.465,-84.7413 1318.9542,-79.3703"/>
</g>
<!-- Node7 -->
<g id="node8" class="node">
<title>Node7</title>
<g id="a_node8"><a xlink:title=" ">
<polygon fill="none" stroke="#bfbfbf" points="1548.5,-56.5 1548.5,-75.5 1586.5,-75.5 1586.5,-56.5 1548.5,-56.5"/>
<text text-anchor="middle" x="1567.5" y="-63.5" font-family="Helvetica,sans-Serif" font-size="10.00" fill="#000000">map</text>
</a>
</g>
</g>
<!-- Node1&#45;&gt;Node7 -->
<g id="edge8" class="edge">
<title>Node1&#45;&gt;Node7</title>
<path fill="none" stroke="#191970" d="M1401.0659,-112.4447C1435.5524,-103.3526 1488.6502,-89.1469 1534.5,-76 1535.7624,-75.638 1537.0508,-75.2646 1538.3514,-74.8845"/>
<polygon fill="#191970" stroke="#191970" points="1539.7475,-78.1208 1548.3339,-71.914 1537.7509,-71.4115 1539.7475,-78.1208"/>
</g>
<!-- Node8 -->
<g id="node9" class="node">
<title>Node8</title>
<g id="a_node9"><a xlink:title=" ">
<polygon fill="none" stroke="#bfbfbf" points="1642.5,-56.5 1642.5,-75.5 1674.5,-75.5 1674.5,-56.5 1642.5,-56.5"/>
<text text-anchor="middle" x="1658.5" y="-63.5" font-family="Helvetica,sans-Serif" font-size="10.00" fill="#000000">set</text>
</a>
</g>
</g>
<!-- Node1&#45;&gt;Node8 -->
<g id="edge9" class="edge">
<title>Node1&#45;&gt;Node8</title>
<path fill="none" stroke="#191970" d="M1402.0339,-114.8507C1462.4443,-103.3439 1579.7565,-80.9988 1632.1358,-71.0218"/>
<polygon fill="#191970" stroke="#191970" points="1633.1151,-74.3982 1642.2836,-69.0888 1631.8052,-67.5219 1633.1151,-74.3982"/>
</g>
<!-- Node2&#45;&gt;Node3 -->
<g id="edge3" class="edge">
<title>Node2&#45;&gt;Node3</title>
<path fill="none" stroke="#191970" d="M1135.5,-56.2455C1135.5,-48.9382 1135.5,-38.6944 1135.5,-29.7046"/>
<polygon fill="#191970" stroke="#191970" points="1139.0001,-29.6426 1135.5,-19.6427 1132.0001,-29.6427 1139.0001,-29.6426"/>
</g>
<!-- Node2&#45;&gt;Node4 -->
<g id="edge4" class="edge">
<title>Node2&#45;&gt;Node4</title>
<path fill="none" stroke="#191970" d="M1087.4264,-60.7317C984.2741,-49.4273 744.0104,-23.097 656.8333,-13.5434"/>
<polygon fill="#191970" stroke="#191970" points="657.0669,-10.0481 646.7451,-12.4378 656.3042,-17.0064 657.0669,-10.0481"/>
</g>
<!-- Node9&#45;&gt;Node3 -->
<g id="edge17" class="edge">
<title>Node9&#45;&gt;Node3</title>
<path fill="none" stroke="#191970" d="M283.0203,-112.0898C273.2041,-97.8065 258.8467,-71.4562 273.5,-56 302.9582,-24.9278 966.9293,-12.6716 1108.928,-10.4012"/>
<polygon fill="#191970" stroke="#191970" points="1109.3493,-13.8951 1119.2932,-10.2386 1109.2394,-6.896 1109.3493,-13.8951"/>
</g>
<!-- Node10 -->
<g id="node11" class="node">
<title>Node10</title>
<g id="a_node11"><a xlink:href="../../db/dba/Diff__Util_8hpp.html" target="_top" xlink:title=" ">
<polygon fill="none" stroke="#000000" points="18,-56.5 18,-75.5 95,-75.5 95,-56.5 18,-56.5"/>
<text text-anchor="middle" x="56.5" y="-63.5" font-family="Helvetica,sans-Serif" font-size="10.00" fill="#000000">Diff_Util.hpp</text>
</a>
</g>
</g>
<!-- Node9&#45;&gt;Node10 -->
<g id="edge12" class="edge">
<title>Node9&#45;&gt;Node10</title>
<path fill="none" stroke="#191970" d="M250.5398,-112.4369C210.2983,-102.8064 148.1685,-87.9377 105.0985,-77.6304"/>
<polygon fill="#191970" stroke="#191970" points="105.6686,-74.1681 95.1286,-75.2444 104.0393,-80.9758 105.6686,-74.1681"/>
</g>
<!-- Node11 -->
<g id="node12" class="node">
<title>Node11</title>
<g id="a_node12"><a xlink:title=" ">
<polygon fill="none" stroke="#bfbfbf" points="0,-.5 0,-19.5 47,-19.5 47,-.5 0,-.5"/>
<text text-anchor="middle" x="23.5" y="-7.5" font-family="Helvetica,sans-Serif" font-size="10.00" fill="#000000">vector</text>
</a>
</g>
</g>
<!-- Node9&#45;&gt;Node11 -->
<g id="edge19" class="edge">
<title>Node9&#45;&gt;Node11</title>
<path fill="none" stroke="#191970" d="M239.9489,-117.2878C162.8735,-109.5869 23.2994,-93.4091 8.5,-76 -2.6307,-62.9066 3.8519,-43.2329 11.4559,-28.7708"/>
<polygon fill="#191970" stroke="#191970" points="14.7065,-30.1423 16.6967,-19.736 8.6515,-26.6299 14.7065,-30.1423"/>
</g>
<!-- Node12 -->
<g id="node13" class="node">
<title>Node12</title>
<g id="a_node13"><a xlink:title=" ">
<polygon fill="none" stroke="#bfbfbf" points="543.5,-56.5 543.5,-75.5 603.5,-75.5 603.5,-56.5 543.5,-56.5"/>
<text text-anchor="middle" x="573.5" y="-63.5" font-family="Helvetica,sans-Serif" font-size="10.00" fill="#000000">iostream</text>
</a>
</g>
</g>
<!-- Node9&#45;&gt;Node12 -->
<g id="edge16" class="edge">
<title>Node9&#45;&gt;Node12</title>
<path fill="none" stroke="#191970" d="M341.4042,-113.2485C390.6911,-104.5667 467.4466,-90.4959 533.5,-76 533.6005,-75.9779 533.7011,-75.9558 533.8019,-75.9336"/>
<polygon fill="#191970" stroke="#191970" points="534.4437,-79.3775 543.4031,-73.7225 532.8727,-72.5561 534.4437,-79.3775"/>
</g>
<!-- Node13 -->
<g id="node14" class="node">
<title>Node13</title>
<g id="a_node14"><a xlink:title=" ">
<polygon fill="none" stroke="#bfbfbf" points="282.5,-56.5 282.5,-75.5 326.5,-75.5 326.5,-56.5 282.5,-56.5"/>
<text text-anchor="middle" x="304.5" y="-63.5" font-family="Helvetica,sans-Serif" font-size="10.00" fill="#000000">regex</text>
</a>
</g>
</g>
<!-- Node9&#45;&gt;Node13 -->
<g id="edge18" class="edge">
<title>Node9&#45;&gt;Node13</title>
<path fill="none" stroke="#191970" d="M292.9386,-112.2455C294.7855,-104.8579 297.3828,-94.4689 299.6478,-85.4087"/>
<polygon fill="#191970" stroke="#191970" points="303.0594,-86.193 302.0893,-75.6427 296.2684,-84.4952 303.0594,-86.193"/>
</g>
<!-- Node10&#45;&gt;Node3 -->
<g id="edge13" class="edge">
<title>Node10&#45;&gt;Node3</title>
<path fill="none" stroke="#191970" d="M95.142,-57.25C97.9615,-56.7741 100.7692,-56.3489 103.5,-56 306.5857,-30.0496 968.295,-13.7983 1109.0309,-10.587"/>
<polygon fill="#191970" stroke="#191970" points="1109.3808,-14.0801 1119.2991,-10.3549 1109.2225,-7.0819 1109.3808,-14.0801"/>
</g>
<!-- Node10&#45;&gt;Node4 -->
<g id="edge14" class="edge">
<title>Node10&#45;&gt;Node4</title>
<path fill="none" stroke="#191970" d="M95.1608,-57.3851C97.9758,-56.8775 100.7775,-56.4083 103.5,-56 287.198,-28.4525 509.9925,-15.5579 592.1031,-11.4885"/>
<polygon fill="#191970" stroke="#191970" points="592.4776,-14.9745 602.2959,-10.9932 592.1378,-7.9828 592.4776,-14.9745"/>
</g>
<!-- Node10&#45;&gt;Node11 -->
<g id="edge15" class="edge">
<title>Node10&#45;&gt;Node11</title>
<path fill="none" stroke="#191970" d="M50.7518,-56.2455C46.2565,-48.617 39.8752,-37.7881 34.4175,-28.5267"/>
<polygon fill="#191970" stroke="#191970" points="37.2747,-26.4811 29.1823,-19.6427 31.2439,-30.035 37.2747,-26.4811"/>
</g>
<!-- Node14&#45;&gt;Node3 -->
<g id="edge23" class="edge">
<title>Node14&#45;&gt;Node3</title>
<path fill="none" stroke="#191970" d="M706.2155,-119.8213C784.9462,-114.4063 978.8066,-99.0872 1039.5,-76 1069.392,-64.6294 1098.9831,-42.1249 1117.2405,-26.579"/>
<polygon fill="#191970" stroke="#191970" points="1120.0169,-28.801 1125.2445,-19.5856 1115.4111,-23.5296 1120.0169,-28.801"/>
</g>
<!-- Node14&#45;&gt;Node12 -->
<g id="edge22" class="edge">
<title>Node14&#45;&gt;Node12</title>
<path fill="none" stroke="#191970" d="M655.2555,-112.2455C639.9239,-103.5731 617.2801,-90.7645 599.7084,-80.825"/>
<polygon fill="#191970" stroke="#191970" points="600.9741,-77.5198 590.5469,-75.6427 597.5276,-83.6126 600.9741,-77.5198"/>
</g>
<!-- Node14&#45;&gt;Node13 -->
<g id="edge28" class="edge">
<title>Node14&#45;&gt;Node13</title>
<path fill="none" stroke="#191970" d="M638.6648,-119.3702C579.2716,-114.3276 452.3505,-101.651 336.7933,-75.9654"/>
<polygon fill="#191970" stroke="#191970" points="337.2461,-72.4795 326.7203,-73.6863 335.7013,-79.3069 337.2461,-72.4795"/>
</g>
<!-- Node15 -->
<g id="node16" class="node">
<title>Node15</title>
<g id="a_node16"><a xlink:title=" ">
<polygon fill="none" stroke="#bfbfbf" points="470,-56.5 470,-75.5 525,-75.5 525,-56.5 470,-56.5"/>
<text text-anchor="middle" x="497.5" y="-63.5" font-family="Helvetica,sans-Serif" font-size="10.00" fill="#000000">fstream</text>
</a>
</g>
</g>
<!-- Node14&#45;&gt;Node15 -->
<g id="edge21" class="edge">
<title>Node14&#45;&gt;Node15</title>
<path fill="none" stroke="#191970" d="M642.4164,-112.3733C612.6993,-102.8638 567.1628,-88.2921 535.0806,-78.0258"/>
<polygon fill="#191970" stroke="#191970" points="535.7652,-74.5701 525.1742,-74.8557 533.6317,-81.237 535.7652,-74.5701"/>
</g>
<!-- Node16 -->
<g id="node17" class="node">
<title>Node16</title>
<g id="a_node17"><a xlink:title=" ">
<polygon fill="none" stroke="#bfbfbf" points="622,-56.5 622,-75.5 723,-75.5 723,-56.5 622,-56.5"/>
<text text-anchor="middle" x="672.5" y="-63.5" font-family="Helvetica,sans-Serif" font-size="10.00" fill="#000000">llvm/IR/CallSite.h</text>
</a>
</g>
</g>
<!-- Node14&#45;&gt;Node16 -->
<g id="edge24" class="edge">
<title>Node14&#45;&gt;Node16</title>
<path fill="none" stroke="#191970" d="M672.5,-112.2455C672.5,-104.9382 672.5,-94.6944 672.5,-85.7046"/>
<polygon fill="#191970" stroke="#191970" points="676.0001,-85.6426 672.5,-75.6427 669.0001,-85.6427 676.0001,-85.6426"/>
</g>
<!-- Node17 -->
<g id="node18" class="node">
<title>Node17</title>
<g id="a_node18"><a xlink:title=" ">
<polygon fill="none" stroke="#bfbfbf" points="741,-56.5 741,-75.5 900,-75.5 900,-56.5 741,-56.5"/>
<text text-anchor="middle" x="820.5" y="-63.5" font-family="Helvetica,sans-Serif" font-size="10.00" fill="#000000">llvm/IR/DebugInfoMetadata.h</text>
</a>
</g>
</g>
<!-- Node14&#45;&gt;Node17 -->
<g id="edge25" class="edge">
<title>Node14&#45;&gt;Node17</title>
<path fill="none" stroke="#191970" d="M697.9421,-112.3733C722.2326,-103.1822 759.0208,-89.2624 785.9543,-79.0713"/>
<polygon fill="#191970" stroke="#191970" points="787.2757,-82.3136 795.3899,-75.5011 784.7984,-75.7666 787.2757,-82.3136"/>
</g>
<!-- Node18 -->
<g id="node19" class="node">
<title>Node18</title>
<g id="a_node19"><a xlink:title=" ">
<polygon fill="none" stroke="#bfbfbf" points="918,-56.5 918,-75.5 1031,-75.5 1031,-56.5 918,-56.5"/>
<text text-anchor="middle" x="974.5" y="-63.5" font-family="Helvetica,sans-Serif" font-size="10.00" fill="#000000">llvm/IR/InstrTypes.h</text>
</a>
</g>
</g>
<!-- Node14&#45;&gt;Node18 -->
<g id="edge26" class="edge">
<title>Node14&#45;&gt;Node18</title>
<path fill="none" stroke="#191970" d="M706.2642,-115.7391C756.201,-106.4793 850.5574,-88.9827 912.9873,-77.4063"/>
<polygon fill="#191970" stroke="#191970" points="913.9095,-80.7951 923.1038,-75.5304 912.6332,-73.9124 913.9095,-80.7951"/>
</g>
<!-- Node19 -->
<g id="node20" class="node">
<title>Node19</title>
<g id="a_node20"><a xlink:title=" ">
<polygon fill="none" stroke="#bfbfbf" points="345,-56.5 345,-75.5 452,-75.5 452,-56.5 345,-56.5"/>
<text text-anchor="middle" x="398.5" y="-63.5" font-family="Helvetica,sans-Serif" font-size="10.00" fill="#000000">llvm/IR/Intrinsics.h</text>
</a>
</g>
</g>
<!-- Node14&#45;&gt;Node19 -->
<g id="edge27" class="edge">
<title>Node14&#45;&gt;Node19</title>
<path fill="none" stroke="#191970" d="M638.9022,-115.1333C593.1624,-105.785 510.6583,-88.9229 455.2324,-77.5949"/>
<polygon fill="#191970" stroke="#191970" points="455.7116,-74.1206 445.2132,-75.5472 454.3098,-80.9788 455.7116,-74.1206"/>
</g>
<!-- Node20&#45;&gt;Node3 -->
<g id="edge31" class="edge">
<title>Node20&#45;&gt;Node3</title>
<path fill="none" stroke="#191970" d="M226.0277,-57.5783C230.9162,-56.9896 235.7914,-56.4517 240.5,-56 582.6698,-23.1754 1000.8342,-12.7465 1108.9792,-10.5052"/>
<polygon fill="#191970" stroke="#191970" points="1109.3515,-13.9985 1119.2788,-10.2974 1109.2102,-6.9999 1109.3515,-13.9985"/>
</g>
<!-- Node20&#45;&gt;Node4 -->
<g id="edge32" class="edge">
<title>Node20&#45;&gt;Node4</title>
<path fill="none" stroke="#191970" d="M226.067,-57.9253C230.9469,-57.2613 235.8094,-56.6112 240.5,-56 370.7382,-39.0294 526.1453,-21.1361 592.218,-13.6385"/>
<polygon fill="#191970" stroke="#191970" points="592.86,-17.0883 602.4025,-12.485 592.0721,-10.1328 592.86,-17.0883"/>
</g>
<!-- Node21&#45;&gt;Node3 -->
<g id="edge34" class="edge">
<title>Node21&#45;&gt;Node3</title>
<path fill="none" stroke="#191970" d="M1699.5106,-112.1607C1700.413,-97.4694 1699.6409,-70.0296 1683.5,-56 1643.784,-21.4791 1266.0435,-12.3004 1161.9468,-10.4174"/>
<polygon fill="#191970" stroke="#191970" points="1161.7464,-6.9135 1151.6873,-10.2398 1161.6252,-13.9125 1161.7464,-6.9135"/>
</g>
<!-- Node21&#45;&gt;Node8 -->
<g id="edge36" class="edge">
<title>Node21&#45;&gt;Node8</title>
<path fill="none" stroke="#191970" d="M1691.5325,-112.2455C1685.9689,-104.4564 1678.022,-93.3308 1671.3171,-83.9439"/>
<polygon fill="#191970" stroke="#191970" points="1674.0481,-81.7457 1665.3876,-75.6427 1668.352,-85.8144 1674.0481,-81.7457"/>
</g>
<!-- Node22 -->
<g id="node23" class="node">
<title>Node22</title>
<g id="a_node23"><a xlink:title=" ">
<polygon fill="none" stroke="#bfbfbf" points="1730.5,-56.5 1730.5,-75.5 1828.5,-75.5 1828.5,-56.5 1730.5,-56.5"/>
<text text-anchor="middle" x="1779.5" y="-63.5" font-family="Helvetica,sans-Serif" font-size="10.00" fill="#000000">llvm/IR/Module.h</text>
</a>
</g>
</g>
<!-- Node21&#45;&gt;Node22 -->
<g id="edge35" class="edge">
<title>Node21&#45;&gt;Node22</title>
<path fill="none" stroke="#191970" d="M1712.6091,-112.2455C1724.9209,-103.7337 1742.9958,-91.2375 1757.2538,-81.3801"/>
<polygon fill="#191970" stroke="#191970" points="1759.3174,-84.2085 1765.5526,-75.6427 1755.3366,-78.4506 1759.3174,-84.2085"/>
</g>
<!-- Node23&#45;&gt;Node3 -->
<g id="edge38" class="edge">
<title>Node23&#45;&gt;Node3</title>
<path fill="none" stroke="#191970" d="M1577.413,-112.3953C1590.5833,-98.4926 1610.5334,-72.6117 1595.5,-56 1566.2311,-23.6582 1254.9552,-13.0734 1161.7337,-10.6164"/>
<polygon fill="#191970" stroke="#191970" points="1161.8029,-7.1171 1151.7173,-10.3619 1161.6251,-14.1148 1161.8029,-7.1171"/>
</g>
<!-- Node23&#45;&gt;Node7 -->
<g id="edge39" class="edge">
<title>Node23&#45;&gt;Node7</title>
<path fill="none" stroke="#191970" d="M1567.5,-112.2455C1567.5,-104.9382 1567.5,-94.6944 1567.5,-85.7046"/>
<polygon fill="#191970" stroke="#191970" points="1571.0001,-85.6426 1567.5,-75.6427 1564.0001,-85.6427 1571.0001,-85.6426"/>
</g>
<!-- Node24&#45;&gt;Node3 -->
<g id="edge42" class="edge">
<title>Node24&#45;&gt;Node3</title>
<path fill="none" stroke="#191970" d="M1937.7099,-112.2679C1906.6538,-94.3033 1842.8921,-57.6063 1837.5,-56 1707.2269,-17.193 1272.7809,-11.094 1161.5957,-10.163"/>
<polygon fill="#191970" stroke="#191970" points="1161.6135,-6.6632 1151.5869,-10.0862 1161.5597,-13.663 1161.6135,-6.6632"/>
</g>
<!-- Node24&#45;&gt;Node12 -->
<g id="edge41" class="edge">
<title>Node24&#45;&gt;Node12</title>
<path fill="none" stroke="#191970" d="M1917.6565,-119.7595C1880.3286,-117.5482 1820.9173,-114.1893 1769.5,-112 1515.7601,-101.196 883.5032,-111.8854 613.8236,-75.8298"/>
<polygon fill="#191970" stroke="#191970" points="613.9873,-72.3192 603.6019,-74.4156 613.0279,-79.2531 613.9873,-72.3192"/>
</g>
<!-- Node24&#45;&gt;Node22 -->
<g id="edge44" class="edge">
<title>Node24&#45;&gt;Node22</title>
<path fill="none" stroke="#191970" d="M1924.4164,-112.3733C1895.3166,-103.0613 1851.0477,-88.8953 1819.097,-78.671"/>
<polygon fill="#191970" stroke="#191970" points="1819.782,-75.2155 1809.191,-75.5011 1817.6485,-81.8824 1819.782,-75.2155"/>
</g>
<!-- Node25 -->
<g id="node26" class="node">
<title>Node25</title>
<g id="a_node26"><a xlink:title=" ">
<polygon fill="none" stroke="#bfbfbf" points="2375.5,-56.5 2375.5,-75.5 2501.5,-75.5 2501.5,-56.5 2375.5,-56.5"/>
<text text-anchor="middle" x="2438.5" y="-63.5" font-family="Helvetica,sans-Serif" font-size="10.00" fill="#000000">llvm/IR/LLVMContext.h</text>
</a>
</g>
</g>
<!-- Node24&#45;&gt;Node25 -->
<g id="edge43" class="edge">
<title>Node24&#45;&gt;Node25</title>
<path fill="none" stroke="#191970" d="M1991.1916,-118.2371C2061.5976,-110.9444 2220.7732,-94.1085 2365.3548,-76.1177"/>
<polygon fill="#191970" stroke="#191970" points="2365.8075,-79.5885 2375.2966,-74.8759 2364.9398,-72.6425 2365.8075,-79.5885"/>
</g>
<!-- Node26 -->
<g id="node27" class="node">
<title>Node26</title>
<g id="a_node27"><a xlink:title=" ">
<polygon fill="none" stroke="#bfbfbf" points="2520,-56.5 2520,-75.5 2617,-75.5 2617,-56.5 2520,-56.5"/>
<text text-anchor="middle" x="2568.5" y="-63.5" font-family="Helvetica,sans-Serif" font-size="10.00" fill="#000000">llvm/IR/Verifier.h</text>
</a>
</g>
</g>
<!-- Node24&#45;&gt;Node26 -->
<g id="edge45" class="edge">
<title>Node24&#45;&gt;Node26</title>
<path fill="none" stroke="#191970" d="M1991.0459,-120.0947C2078.6473,-115.2886 2307.6804,-101.3083 2509.6098,-76.0061"/>
<polygon fill="#191970" stroke="#191970" points="2510.3311,-79.4428 2519.8126,-74.715 2509.4523,-72.4982 2510.3311,-79.4428"/>
</g>
<!-- Node27 -->
<g id="node28" class="node">
<title>Node27</title>
<g id="a_node28"><a xlink:title=" ">
<polygon fill="none" stroke="#bfbfbf" points="1884.5,-56.5 1884.5,-75.5 2024.5,-75.5 2024.5,-56.5 1884.5,-56.5"/>
<text text-anchor="middle" x="1954.5" y="-63.5" font-family="Helvetica,sans-Serif" font-size="10.00" fill="#000000">llvm/IRReader/IRReader.h</text>
</a>
</g>
</g>
<!-- Node24&#45;&gt;Node27 -->
<g id="edge46" class="edge">
<title>Node24&#45;&gt;Node27</title>
<path fill="none" stroke="#191970" d="M1954.5,-112.2455C1954.5,-104.9382 1954.5,-94.6944 1954.5,-85.7046"/>
<polygon fill="#191970" stroke="#191970" points="1958.0001,-85.6426 1954.5,-75.6427 1951.0001,-85.6427 1958.0001,-85.6426"/>
</g>
<!-- Node28 -->
<g id="node29" class="node">
<title>Node28</title>
<g id="a_node29"><a xlink:title=" ">
<polygon fill="none" stroke="#bfbfbf" points="2043,-56.5 2043,-75.5 2184,-75.5 2184,-56.5 2043,-56.5"/>
<text text-anchor="middle" x="2113.5" y="-63.5" font-family="Helvetica,sans-Serif" font-size="10.00" fill="#000000">llvm/Support/SourceMgr.h</text>
</a>
</g>
</g>
<!-- Node24&#45;&gt;Node28 -->
<g id="edge47" class="edge">
<title>Node24&#45;&gt;Node28</title>
<path fill="none" stroke="#191970" d="M1981.8331,-112.3733C2008.0434,-103.1419 2047.7984,-89.1402 2076.7668,-78.9375"/>
<polygon fill="#191970" stroke="#191970" points="2078.2542,-82.1244 2086.5236,-75.5011 2075.9288,-75.5219 2078.2542,-82.1244"/>
</g>
<!-- Node29 -->
<g id="node30" class="node">
<title>Node29</title>
<g id="a_node30"><a xlink:title=" ">
<polygon fill="none" stroke="#bfbfbf" points="2202,-56.5 2202,-75.5 2357,-75.5 2357,-56.5 2202,-56.5"/>
<text text-anchor="middle" x="2279.5" y="-63.5" font-family="Helvetica,sans-Serif" font-size="10.00" fill="#000000">llvm/Support/raw_ostream.h</text>
</a>
</g>
</g>
<!-- Node24&#45;&gt;Node29 -->
<g id="edge48" class="edge">
<title>Node24&#45;&gt;Node29</title>
<path fill="none" stroke="#191970" d="M1991.1499,-115.6849C2045.2311,-106.3663 2147.2305,-88.7911 2214.274,-77.2389"/>
<polygon fill="#191970" stroke="#191970" points="2215.051,-80.6567 2224.3114,-75.5094 2213.8623,-73.7584 2215.051,-80.6567"/>
</g>
</g>
</svg>
