<?xml version="1.0" encoding="UTF-8" standalone="no"?>
<!DOCTYPE svg PUBLIC "-//W3C//DTD SVG 1.1//EN"
 "http://www.w3.org/Graphics/SVG/1.1/DTD/svg11.dtd">
<!-- Generated by graphviz version 2.40.1 (20161225.0304)
 -->
<!-- Title: Graphical Class Hierarchy Pages: 1 -->
<svg width="443pt" height="137pt"
 viewBox="0.00 0.00 443.00 137.00" xmlns="http://www.w3.org/2000/svg" xmlns:xlink="http://www.w3.org/1999/xlink">
<g id="graph0" class="graph" transform="scale(1 1) rotate(0) translate(4 133)">
<title>Graphical Class Hierarchy</title>
<!-- Node0 -->
<g id="node1" class="node">
<title>Node0</title>
<g id="a_node1"><a xlink:href="d3/db1/classhydrogen__framework_1_1Diff__Vars.html" target="_top" xlink:title=" ">
<polygon fill="none" stroke="#000000" points="0,-49.5 0,-79.5 121,-79.5 121,-49.5 0,-49.5"/>
<text text-anchor="start" x="8" y="-67.5" font-family="Helvetica,sans-Serif" font-size="10.00" fill="#000000">hydrogen_framework</text>
<text text-anchor="middle" x="60.5" y="-56.5" font-family="Helvetica,sans-Serif" font-size="10.00" fill="#000000">::Diff_Vars</text>
</a>
</g>
</g>
<!-- Node1 -->
<g id="node2" class="node">
<title>Node1</title>
<g id="a_node2"><a xlink:href="d0/d21/classhydrogen__framework_1_1Diff__Mapping.html" target="_top" xlink:title=" ">
<polygon fill="none" stroke="#000000" points="157,-98.5 157,-128.5 278,-128.5 278,-98.5 157,-98.5"/>
<text text-anchor="start" x="165" y="-116.5" font-family="Helvetica,sans-Serif" font-size="10.00" fill="#000000">hydrogen_framework</text>
<text text-anchor="middle" x="217.5" y="-105.5" font-family="Helvetica,sans-Serif" font-size="10.00" fill="#000000">::Diff_Mapping</text>
</a>
</g>
</g>
<!-- Node0&#45;&gt;Node1 -->
<g id="edge1" class="edge">
<title>Node0&#45;&gt;Node1</title>
<path fill="none" stroke="#191970" d="M118.5353,-82.6129C135.2263,-87.8222 153.2443,-93.4457 169.2735,-98.4484"/>
<polygon fill="#191970" stroke="#191970" points="119.4749,-79.2397 108.8862,-79.6014 117.3894,-85.9219 119.4749,-79.2397"/>
</g>
<!-- Node2 -->
<g id="node3" class="node">
<title>Node2</title>
<g id="a_node3"><a xlink:href="d8/d3a/classhydrogen__framework_1_1Diff__Sequence.html" target="_top" xlink:title=" ">
<polygon fill="none" stroke="#000000" points="157,-49.5 157,-79.5 278,-79.5 278,-49.5 157,-49.5"/>
<text text-anchor="start" x="165" y="-67.5" font-family="Helvetica,sans-Serif" font-size="10.00" fill="#000000">hydrogen_framework</text>
<text text-anchor="middle" x="217.5" y="-56.5" font-family="Helvetica,sans-Serif" font-size="10.00" fill="#000000">::Diff_Sequence</text>
</a>
</g>
</g>
<!-- Node0&#45;&gt;Node2 -->
<g id="edge2" class="edge">
<title>Node0&#45;&gt;Node2</title>
<path fill="none" stroke="#191970" d="M131.2098,-64.5C139.807,-64.5 148.5301,-64.5 156.9611,-64.5"/>
<polygon fill="#191970" stroke="#191970" points="131.2003,-61.0001 121.2003,-64.5 131.2003,-68.0001 131.2003,-61.0001"/>
</g>
<!-- Node4 -->
<g id="node5" class="node">
<title>Node4</title>
<g id="a_node5"><a xlink:href="d2/d24/classhydrogen__framework_1_1Diff__Util.html" target="_top" xlink:title=" ">
<polygon fill="none" stroke="#000000" points="157,-.5 157,-30.5 278,-30.5 278,-.5 157,-.5"/>
<text text-anchor="start" x="165" y="-18.5" font-family="Helvetica,sans-Serif" font-size="10.00" fill="#000000">hydrogen_framework</text>
<text text-anchor="middle" x="217.5" y="-7.5" font-family="Helvetica,sans-Serif" font-size="10.00" fill="#000000">::Diff_Util</text>
</a>
</g>
</g>
<!-- Node0&#45;&gt;Node4 -->
<g id="edge4" class="edge">
<title>Node0&#45;&gt;Node4</title>
<path fill="none" stroke="#8b1a1a" d="M118.5353,-46.3871C135.2263,-41.1778 153.2443,-35.5543 169.2735,-30.5516"/>
<polygon fill="#8b1a1a" stroke="#8b1a1a" points="117.3894,-43.0781 108.8862,-49.3986 119.4749,-49.7603 117.3894,-43.0781"/>
</g>
<!-- Node3 -->
<g id="node4" class="node">
<title>Node3</title>
<g id="a_node4"><a xlink:href="d1/d16/classhydrogen__framework_1_1Diff__Ses.html" target="_top" xlink:title=" ">
<polygon fill="none" stroke="#000000" points="314,-49.5 314,-79.5 435,-79.5 435,-49.5 314,-49.5"/>
<text text-anchor="start" x="322" y="-67.5" font-family="Helvetica,sans-Serif" font-size="10.00" fill="#000000">hydrogen_framework</text>
<text text-anchor="middle" x="374.5" y="-56.5" font-family="Helvetica,sans-Serif" font-size="10.00" fill="#000000">::Diff_Ses</text>
</a>
</g>
</g>
<!-- Node2&#45;&gt;Node3 -->
<g id="edge3" class="edge">
<title>Node2&#45;&gt;Node3</title>
<path fill="none" stroke="#191970" d="M288.2098,-64.5C296.807,-64.5 305.5301,-64.5 313.9611,-64.5"/>
<polygon fill="#191970" stroke="#191970" points="288.2003,-61.0001 278.2003,-64.5 288.2003,-68.0001 288.2003,-61.0001"/>
</g>
</g>
</svg>
