<?xml version="1.0" encoding="UTF-8" standalone="no"?>
<!DOCTYPE svg PUBLIC "-//W3C//DTD SVG 1.1//EN"
 "http://www.w3.org/Graphics/SVG/1.1/DTD/svg11.dtd">
<!-- Generated by graphviz version 2.40.1 (20161225.0304)
 -->
<!-- Title: Graph_Line.hpp Pages: 1 -->
<svg width="508pt" height="84pt"
 viewBox="0.00 0.00 508.00 84.00" xmlns="http://www.w3.org/2000/svg" xmlns:xlink="http://www.w3.org/1999/xlink">
<g id="graph0" class="graph" transform="scale(1 1) rotate(0) translate(4 80)">
<title>Graph_Line.hpp</title>
<!-- Node3 -->
<g id="node1" class="node">
<title>Node3</title>
<g id="a_node1"><a xlink:title=" ">
<polygon fill="#bfbfbf" stroke="#000000" points="214,-56.5 214,-75.5 306,-75.5 306,-56.5 214,-56.5"/>
<text text-anchor="middle" x="260" y="-63.5" font-family="Helvetica,sans-Serif" font-size="10.00" fill="#000000">Graph_Line.hpp</text>
</a>
</g>
</g>
<!-- Node4 -->
<g id="node2" class="node">
<title>Node4</title>
<g id="a_node2"><a xlink:href="../../dd/dea/Graph_8cpp.html" target="_top" xlink:title=" ">
<polygon fill="none" stroke="#000000" points="0,-.5 0,-19.5 66,-19.5 66,-.5 0,-.5"/>
<text text-anchor="middle" x="33" y="-7.5" font-family="Helvetica,sans-Serif" font-size="10.00" fill="#000000">Graph.cpp</text>
</a>
</g>
</g>
<!-- Node3&#45;&gt;Node4 -->
<g id="edge1" class="edge">
<title>Node3&#45;&gt;Node4</title>
<path fill="none" stroke="#191970" d="M211.3684,-54.0028C167.5427,-43.1911 104.292,-27.5874 66.0708,-18.1584"/>
<polygon fill="#191970" stroke="#191970" points="210.688,-57.4398 221.2352,-56.4369 212.3646,-50.6435 210.688,-57.4398"/>
</g>
<!-- Node5 -->
<g id="node3" class="node">
<title>Node5</title>
<g id="a_node3"><a xlink:href="../../da/d0a/Graph__Function_8cpp.html" target="_top" xlink:title=" ">
<polygon fill="none" stroke="#000000" points="84,-.5 84,-19.5 196,-19.5 196,-.5 84,-.5"/>
<text text-anchor="middle" x="140" y="-7.5" font-family="Helvetica,sans-Serif" font-size="10.00" fill="#000000">Graph_Function.cpp</text>
</a>
</g>
</g>
<!-- Node3&#45;&gt;Node5 -->
<g id="edge2" class="edge">
<title>Node3&#45;&gt;Node5</title>
<path fill="none" stroke="#191970" d="M230.2376,-52.1109C208.4768,-41.9559 179.5318,-28.4482 160.3595,-19.5011"/>
<polygon fill="#191970" stroke="#191970" points="228.8293,-55.316 239.3713,-56.3733 231.7895,-48.9727 228.8293,-55.316"/>
</g>
<!-- Node6 -->
<g id="node4" class="node">
<title>Node6</title>
<g id="a_node4"><a xlink:href="../../d2/d14/Graph__Line_8cpp.html" target="_top" xlink:title=" ">
<polygon fill="none" stroke="#000000" points="214,-.5 214,-19.5 306,-19.5 306,-.5 214,-.5"/>
<text text-anchor="middle" x="260" y="-7.5" font-family="Helvetica,sans-Serif" font-size="10.00" fill="#000000">Graph_Line.cpp</text>
</a>
</g>
</g>
<!-- Node3&#45;&gt;Node6 -->
<g id="edge3" class="edge">
<title>Node3&#45;&gt;Node6</title>
<path fill="none" stroke="#191970" d="M260,-46.1575C260,-37.155 260,-26.9199 260,-19.6427"/>
<polygon fill="#191970" stroke="#191970" points="256.5001,-46.2455 260,-56.2455 263.5001,-46.2456 256.5001,-46.2455"/>
</g>
<!-- Node7 -->
<g id="node5" class="node">
<title>Node7</title>
<g id="a_node5"><a xlink:href="../../de/d64/Hydrogen_8cpp.html" target="_top" xlink:title=" ">
<polygon fill="none" stroke="#000000" points="324,-.5 324,-19.5 408,-19.5 408,-.5 324,-.5"/>
<text text-anchor="middle" x="366" y="-7.5" font-family="Helvetica,sans-Serif" font-size="10.00" fill="#000000">Hydrogen.cpp</text>
</a>
</g>
</g>
<!-- Node3&#45;&gt;Node7 -->
<g id="edge4" class="edge">
<title>Node3&#45;&gt;Node7</title>
<path fill="none" stroke="#191970" d="M287.5222,-51.46C306.4908,-41.4388 331.1727,-28.3993 347.7478,-19.6427"/>
<polygon fill="#191970" stroke="#191970" points="285.6708,-48.4796 278.4638,-56.2455 288.9407,-54.669 285.6708,-48.4796"/>
</g>
<!-- Node8 -->
<g id="node6" class="node">
<title>Node8</title>
<g id="a_node6"><a xlink:href="../../db/d17/MVICFG_8cpp.html" target="_top" xlink:title=" ">
<polygon fill="none" stroke="#000000" points="426,-.5 426,-19.5 500,-19.5 500,-.5 426,-.5"/>
<text text-anchor="middle" x="463" y="-7.5" font-family="Helvetica,sans-Serif" font-size="10.00" fill="#000000">MVICFG.cpp</text>
</a>
</g>
</g>
<!-- Node3&#45;&gt;Node8 -->
<g id="edge5" class="edge">
<title>Node3&#45;&gt;Node8</title>
<path fill="none" stroke="#191970" d="M304.9927,-53.5882C342.2891,-43.2996 394.5256,-28.8895 428.5584,-19.5011"/>
<polygon fill="#191970" stroke="#191970" points="303.6061,-50.3399 294.8969,-56.3733 305.4676,-57.0879 303.6061,-50.3399"/>
</g>
</g>
</svg>
