<?xml version="1.0" encoding="UTF-8" standalone="no"?>
<!DOCTYPE svg PUBLIC "-//W3C//DTD SVG 1.1//EN"
 "http://www.w3.org/Graphics/SVG/1.1/DTD/svg11.dtd">
<!-- Generated by graphviz version 2.40.1 (0)
 -->
<!-- Title: hydrogen_framework::Hydrogen Pages: 1 -->
<svg width="660pt" height="767pt"
 viewBox="0.00 0.00 659.50 767.00" xmlns="http://www.w3.org/2000/svg" xmlns:xlink="http://www.w3.org/1999/xlink">
<g id="graph0" class="graph" transform="scale(1 1) rotate(0) translate(4 763)">
<title>hydrogen_framework::Hydrogen</title>
<!-- Node1 -->
<g id="node1" class="node">
<title>Node1</title>
<g id="a_node1"><a xlink:title=" ">
<polygon fill="#bfbfbf" stroke="#000000" points="0,-.5 0,-112.5 121,-112.5 121,-.5 0,-.5"/>
<text text-anchor="start" x="8" y="-100.5" font-family="Helvetica,sans-Serif" font-size="10.00" fill="#000000">hydrogen_framework</text>
<text text-anchor="middle" x="60.5" y="-89.5" font-family="Helvetica,sans-Serif" font-size="10.00" fill="#000000">::Hydrogen</text>
<polyline fill="none" stroke="#000000" points="0,-82.5 121,-82.5 "/>
<text text-anchor="middle" x="60.5" y="-70.5" font-family="Helvetica,sans-Serif" font-size="10.00" fill="#000000"> </text>
<polyline fill="none" stroke="#000000" points="0,-63.5 121,-63.5 "/>
<text text-anchor="start" x="8" y="-51.5" font-family="Helvetica,sans-Serif" font-size="10.00" fill="#000000">+ Hydrogen()</text>
<text text-anchor="start" x="8" y="-40.5" font-family="Helvetica,sans-Serif" font-size="10.00" fill="#000000">+ ~Hydrogen()</text>
<text text-anchor="start" x="8" y="-29.5" font-family="Helvetica,sans-Serif" font-size="10.00" fill="#000000">+ getModules()</text>
<text text-anchor="start" x="8" y="-18.5" font-family="Helvetica,sans-Serif" font-size="10.00" fill="#000000">+ processInputs()</text>
<text text-anchor="start" x="8" y="-7.5" font-family="Helvetica,sans-Serif" font-size="10.00" fill="#000000">+ validateInputs()</text>
</a>
</g>
</g>
<!-- Node2 -->
<g id="node2" class="node">
<title>Node2</title>
<g id="a_node2"><a xlink:title="STL class.">
<polygon fill="none" stroke="#bfbfbf" points="38,-585.5 38,-642.5 103,-642.5 103,-585.5 38,-585.5"/>
<text text-anchor="middle" x="70.5" y="-630.5" font-family="Helvetica,sans-Serif" font-size="10.00" fill="#000000">std::string</text>
<polyline fill="none" stroke="#bfbfbf" points="38,-623.5 103,-623.5 "/>
<text text-anchor="middle" x="70.5" y="-611.5" font-family="Helvetica,sans-Serif" font-size="10.00" fill="#000000"> </text>
<polyline fill="none" stroke="#bfbfbf" points="38,-604.5 103,-604.5 "/>
<text text-anchor="middle" x="70.5" y="-592.5" font-family="Helvetica,sans-Serif" font-size="10.00" fill="#000000"> </text>
</a>
</g>
</g>
<!-- Node2&#45;&gt;Node1 -->
<g id="edge1" class="edge">
<title>Node2&#45;&gt;Node1</title>
<path fill="none" stroke="#404040" d="M59.9248,-585.3514C52.7266,-563.2949 44.5,-531.8794 44.5,-503.5 44.5,-503.5 44.5,-503.5 44.5,-194.5 44.5,-171.7077 46.6802,-146.938 49.4311,-124.7565"/>
<polygon fill="none" stroke="#404040" points="49.448,-124.627 46.2618,-118.1579 51.0078,-112.7288 54.194,-119.1978 49.448,-124.627"/>
<text text-anchor="middle" x="102.5" y="-341" font-family="Helvetica,sans-Serif" font-size="10.00" fill="#000000"> &#45;hydrogenDemarcation</text>
</g>
<!-- Node12 -->
<g id="node12" class="node">
<title>Node12</title>
<g id="a_node12"><a xlink:title=" ">
<polygon fill="none" stroke="#bfbfbf" points="222.5,-475 222.5,-532 346.5,-532 346.5,-475 222.5,-475"/>
<text text-anchor="middle" x="284.5" y="-520" font-family="Helvetica,sans-Serif" font-size="10.00" fill="#000000">std::list&lt; std::string &gt;</text>
<polyline fill="none" stroke="#bfbfbf" points="222.5,-513 346.5,-513 "/>
<text text-anchor="middle" x="284.5" y="-501" font-family="Helvetica,sans-Serif" font-size="10.00" fill="#000000"> </text>
<polyline fill="none" stroke="#bfbfbf" points="222.5,-494 346.5,-494 "/>
<text text-anchor="middle" x="284.5" y="-482" font-family="Helvetica,sans-Serif" font-size="10.00" fill="#000000"> </text>
</a>
</g>
</g>
<!-- Node2&#45;&gt;Node12 -->
<g id="edge12" class="edge">
<title>Node2&#45;&gt;Node12</title>
<path fill="none" stroke="#404040" d="M103.002,-597.2174C133.4382,-581.5015 179.8397,-557.5419 218.1057,-537.7831"/>
<polygon fill="none" stroke="#404040" points="218.5142,-537.5722 222.0102,-531.2652 229.1766,-532.0665 225.6806,-538.3735 218.5142,-537.5722"/>
<text text-anchor="middle" x="206.5" y="-559" font-family="Helvetica,sans-Serif" font-size="10.00" fill="#000000"> +elements</text>
</g>
<!-- Node3 -->
<g id="node3" class="node">
<title>Node3</title>
<g id="a_node3"><a xlink:title="STL class.">
<polygon fill="none" stroke="#bfbfbf" points="18.5,-690.5 18.5,-758.5 122.5,-758.5 122.5,-690.5 18.5,-690.5"/>
<text text-anchor="start" x="26.5" y="-746.5" font-family="Helvetica,sans-Serif" font-size="10.00" fill="#000000">std::basic_string&lt;</text>
<text text-anchor="middle" x="70.5" y="-735.5" font-family="Helvetica,sans-Serif" font-size="10.00" fill="#000000"> char &gt;</text>
<polyline fill="none" stroke="#bfbfbf" points="18.5,-728.5 122.5,-728.5 "/>
<text text-anchor="middle" x="70.5" y="-716.5" font-family="Helvetica,sans-Serif" font-size="10.00" fill="#000000"> </text>
<polyline fill="none" stroke="#bfbfbf" points="18.5,-709.5 122.5,-709.5 "/>
<text text-anchor="middle" x="70.5" y="-697.5" font-family="Helvetica,sans-Serif" font-size="10.00" fill="#000000"> </text>
</a>
</g>
</g>
<!-- Node3&#45;&gt;Node2 -->
<g id="edge2" class="edge">
<title>Node3&#45;&gt;Node2</title>
<path fill="none" stroke="#191970" d="M70.5,-680.0661C70.5,-667.4172 70.5,-653.9812 70.5,-642.5519"/>
<polygon fill="none" stroke="#191970" points="67.0001,-680.4447 70.5,-690.4447 74.0001,-680.4447 67.0001,-680.4447"/>
</g>
<!-- Node4 -->
<g id="node4" class="node">
<title>Node4</title>
<g id="a_node4"><a xlink:title=" ">
<polygon fill="none" stroke="#bfbfbf" points="120.5,-160.5 120.5,-228.5 256.5,-228.5 256.5,-160.5 120.5,-160.5"/>
<text text-anchor="start" x="128.5" y="-216.5" font-family="Helvetica,sans-Serif" font-size="10.00" fill="#000000">std::list&lt; hydrogen</text>
<text text-anchor="middle" x="188.5" y="-205.5" font-family="Helvetica,sans-Serif" font-size="10.00" fill="#000000">_framework::Module * &gt;</text>
<polyline fill="none" stroke="#bfbfbf" points="120.5,-198.5 256.5,-198.5 "/>
<text text-anchor="middle" x="188.5" y="-186.5" font-family="Helvetica,sans-Serif" font-size="10.00" fill="#000000"> </text>
<polyline fill="none" stroke="#bfbfbf" points="120.5,-179.5 256.5,-179.5 "/>
<text text-anchor="middle" x="188.5" y="-167.5" font-family="Helvetica,sans-Serif" font-size="10.00" fill="#000000"> </text>
</a>
</g>
</g>
<!-- Node4&#45;&gt;Node1 -->
<g id="edge3" class="edge">
<title>Node4&#45;&gt;Node1</title>
<path fill="none" stroke="#404040" d="M156.8595,-160.3876C145.8675,-148.5368 133.1472,-134.8228 120.6255,-121.3228"/>
<polygon fill="none" stroke="#404040" points="120.6063,-121.3021 113.5933,-119.6232 112.4457,-112.504 119.4587,-114.1828 120.6063,-121.3021"/>
<text text-anchor="middle" x="187.5" y="-134" font-family="Helvetica,sans-Serif" font-size="10.00" fill="#000000"> &#45;hydrogenModules</text>
</g>
<!-- Node5 -->
<g id="node5" class="node">
<title>Node5</title>
<g id="a_node5"><a xlink:href="../../da/d32/classhydrogen__framework_1_1Module.html" target="_top" xlink:title=" ">
<polygon fill="none" stroke="#000000" points="344,-276.5 344,-410.5 465,-410.5 465,-276.5 344,-276.5"/>
<text text-anchor="start" x="352" y="-398.5" font-family="Helvetica,sans-Serif" font-size="10.00" fill="#000000">hydrogen_framework</text>
<text text-anchor="middle" x="404.5" y="-387.5" font-family="Helvetica,sans-Serif" font-size="10.00" fill="#000000">::Module</text>
<polyline fill="none" stroke="#000000" points="344,-380.5 465,-380.5 "/>
<text text-anchor="middle" x="404.5" y="-368.5" font-family="Helvetica,sans-Serif" font-size="10.00" fill="#000000"> </text>
<polyline fill="none" stroke="#000000" points="344,-361.5 465,-361.5 "/>
<text text-anchor="start" x="352" y="-349.5" font-family="Helvetica,sans-Serif" font-size="10.00" fill="#000000">+ Module()</text>
<text text-anchor="start" x="352" y="-338.5" font-family="Helvetica,sans-Serif" font-size="10.00" fill="#000000">+ ~Module()</text>
<text text-anchor="start" x="352" y="-327.5" font-family="Helvetica,sans-Serif" font-size="10.00" fill="#000000">+ getFiles()</text>
<text text-anchor="start" x="352" y="-316.5" font-family="Helvetica,sans-Serif" font-size="10.00" fill="#000000">+ getPtr()</text>
<text text-anchor="start" x="352" y="-305.5" font-family="Helvetica,sans-Serif" font-size="10.00" fill="#000000">+ getVersion()</text>
<text text-anchor="start" x="352" y="-294.5" font-family="Helvetica,sans-Serif" font-size="10.00" fill="#000000">+ setFiles()</text>
<text text-anchor="start" x="352" y="-283.5" font-family="Helvetica,sans-Serif" font-size="10.00" fill="#000000">+ setModule()</text>
</a>
</g>
</g>
<!-- Node5&#45;&gt;Node4 -->
<g id="edge4" class="edge">
<title>Node5&#45;&gt;Node4</title>
<path fill="none" stroke="#404040" d="M343.7571,-301.5987C313.8431,-280.9635 277.9037,-256.172 248.14,-235.6405"/>
<polygon fill="none" stroke="#404040" points="247.7676,-235.3837 240.5573,-235.2693 237.8897,-228.5698 245.0999,-228.6841 247.7676,-235.3837"/>
<text text-anchor="middle" x="306.5" y="-250" font-family="Helvetica,sans-Serif" font-size="10.00" fill="#000000"> +elements</text>
</g>
<!-- Node6 -->
<g id="node6" class="node">
<title>Node6</title>
<g id="a_node6"><a xlink:title=" ">
<polygon fill="none" stroke="#bfbfbf" points="431.5,-469.5 431.5,-537.5 553.5,-537.5 553.5,-469.5 431.5,-469.5"/>
<text text-anchor="start" x="439.5" y="-525.5" font-family="Helvetica,sans-Serif" font-size="10.00" fill="#000000">std::unique_ptr&lt; llvm</text>
<text text-anchor="middle" x="492.5" y="-514.5" font-family="Helvetica,sans-Serif" font-size="10.00" fill="#000000">::Module &gt;</text>
<polyline fill="none" stroke="#bfbfbf" points="431.5,-507.5 553.5,-507.5 "/>
<text text-anchor="middle" x="492.5" y="-495.5" font-family="Helvetica,sans-Serif" font-size="10.00" fill="#000000"> </text>
<polyline fill="none" stroke="#bfbfbf" points="431.5,-488.5 553.5,-488.5 "/>
<text text-anchor="start" x="439.5" y="-476.5" font-family="Helvetica,sans-Serif" font-size="10.00" fill="#000000">+ operator&#45;&gt;()</text>
</a>
</g>
</g>
<!-- Node6&#45;&gt;Node5 -->
<g id="edge5" class="edge">
<title>Node6&#45;&gt;Node5</title>
<path fill="none" stroke="#404040" d="M485.2905,-469.4802C481.8002,-456.4094 476.9417,-441.6105 470.5,-429 469.1192,-426.2968 467.6491,-423.5936 466.1065,-420.9012"/>
<polygon fill="none" stroke="#404040" points="466.0716,-420.8438 459.5354,-417.7979 459.8331,-410.5929 466.3693,-413.6389 466.0716,-420.8438"/>
<text text-anchor="middle" x="501" y="-437.5" font-family="Helvetica,sans-Serif" font-size="10.00" fill="#000000"> &#45;modPtr</text>
</g>
<!-- Node7 -->
<g id="node7" class="node">
<title>Node7</title>
<g id="a_node7"><a xlink:title=" ">
<polygon fill="none" stroke="#bfbfbf" points="363.5,-585.5 363.5,-642.5 415.5,-642.5 415.5,-585.5 363.5,-585.5"/>
<text text-anchor="middle" x="389.5" y="-630.5" font-family="Helvetica,sans-Serif" font-size="10.00" fill="#000000">Module</text>
<polyline fill="none" stroke="#bfbfbf" points="363.5,-623.5 415.5,-623.5 "/>
<text text-anchor="middle" x="389.5" y="-611.5" font-family="Helvetica,sans-Serif" font-size="10.00" fill="#000000"> </text>
<polyline fill="none" stroke="#bfbfbf" points="363.5,-604.5 415.5,-604.5 "/>
<text text-anchor="middle" x="389.5" y="-592.5" font-family="Helvetica,sans-Serif" font-size="10.00" fill="#000000"> </text>
</a>
</g>
</g>
<!-- Node7&#45;&gt;Node6 -->
<g id="edge6" class="edge">
<title>Node7&#45;&gt;Node6</title>
<path fill="none" stroke="#404040" d="M415.7578,-585.8303C426.8959,-573.8811 440.1269,-559.6867 452.4391,-546.4779"/>
<polygon fill="none" stroke="#404040" points="452.597,-546.3085 453.7621,-539.1921 460.7792,-537.5306 459.6141,-544.6469 452.597,-546.3085"/>
<text text-anchor="middle" x="454" y="-559" font-family="Helvetica,sans-Serif" font-size="10.00" fill="#000000"> +ptr</text>
</g>
<!-- Node8 -->
<g id="node8" class="node">
<title>Node8</title>
<g id="a_node8"><a xlink:title="STL class.">
<polygon fill="none" stroke="#bfbfbf" points="433.5,-585.5 433.5,-642.5 551.5,-642.5 551.5,-585.5 433.5,-585.5"/>
<text text-anchor="middle" x="492.5" y="-630.5" font-family="Helvetica,sans-Serif" font-size="10.00" fill="#000000">std::unique_ptr&lt; T &gt;</text>
<polyline fill="none" stroke="#bfbfbf" points="433.5,-623.5 551.5,-623.5 "/>
<text text-anchor="middle" x="492.5" y="-611.5" font-family="Helvetica,sans-Serif" font-size="10.00" fill="#000000"> </text>
<polyline fill="none" stroke="#bfbfbf" points="433.5,-604.5 551.5,-604.5 "/>
<text text-anchor="start" x="441.5" y="-592.5" font-family="Helvetica,sans-Serif" font-size="10.00" fill="#000000">+ operator&#45;&gt;()</text>
</a>
</g>
</g>
<!-- Node8&#45;&gt;Node6 -->
<g id="edge7" class="edge">
<title>Node8&#45;&gt;Node6</title>
<path fill="none" stroke="#ffa500" d="M492.5,-574.9162C492.5,-562.7375 492.5,-549.4096 492.5,-537.6001"/>
<polygon fill="#ffa500" stroke="#ffa500" points="489.0001,-575.2559 492.5,-585.2559 496.0001,-575.2559 489.0001,-575.2559"/>
<text text-anchor="middle" x="537" y="-559" font-family="Helvetica,sans-Serif" font-size="10.00" fill="#000000"> &lt; llvm::Module &gt;</text>
</g>
<!-- Node9 -->
<g id="node9" class="node">
<title>Node9</title>
<g id="a_node9"><a xlink:title=" ">
<polygon fill="none" stroke="#bfbfbf" points="342,-696 342,-753 371,-753 371,-696 342,-696"/>
<text text-anchor="middle" x="356.5" y="-741" font-family="Helvetica,sans-Serif" font-size="10.00" fill="#000000">T</text>
<polyline fill="none" stroke="#bfbfbf" points="342,-734 371,-734 "/>
<text text-anchor="middle" x="356.5" y="-722" font-family="Helvetica,sans-Serif" font-size="10.00" fill="#000000"> </text>
<polyline fill="none" stroke="#bfbfbf" points="342,-715 371,-715 "/>
<text text-anchor="middle" x="356.5" y="-703" font-family="Helvetica,sans-Serif" font-size="10.00" fill="#000000"> </text>
</a>
</g>
</g>
<!-- Node9&#45;&gt;Node8 -->
<g id="edge8" class="edge">
<title>Node9&#45;&gt;Node8</title>
<path fill="none" stroke="#404040" d="M371.0544,-712.6746C389.2411,-697.8979 421.2064,-671.9261 447.7785,-650.3362"/>
<polygon fill="none" stroke="#404040" points="447.9753,-650.1763 450.1096,-643.2883 457.2887,-642.6092 455.1544,-649.4972 447.9753,-650.1763"/>
<text text-anchor="middle" x="446" y="-664" font-family="Helvetica,sans-Serif" font-size="10.00" fill="#000000"> +ptr</text>
</g>
<!-- Node13 -->
<g id="node13" class="node">
<title>Node13</title>
<g id="a_node13"><a xlink:title="STL class.">
<polygon fill="none" stroke="#bfbfbf" points="244,-585.5 244,-642.5 325,-642.5 325,-585.5 244,-585.5"/>
<text text-anchor="middle" x="284.5" y="-630.5" font-family="Helvetica,sans-Serif" font-size="10.00" fill="#000000">std::list&lt; T &gt;</text>
<polyline fill="none" stroke="#bfbfbf" points="244,-623.5 325,-623.5 "/>
<text text-anchor="middle" x="284.5" y="-611.5" font-family="Helvetica,sans-Serif" font-size="10.00" fill="#000000"> </text>
<polyline fill="none" stroke="#bfbfbf" points="244,-604.5 325,-604.5 "/>
<text text-anchor="middle" x="284.5" y="-592.5" font-family="Helvetica,sans-Serif" font-size="10.00" fill="#000000"> </text>
</a>
</g>
</g>
<!-- Node9&#45;&gt;Node13 -->
<g id="edge14" class="edge">
<title>Node9&#45;&gt;Node13</title>
<path fill="none" stroke="#404040" d="M341.9297,-702.1387C332.7613,-688.0677 320.6772,-669.5219 309.9599,-653.0739"/>
<polygon fill="none" stroke="#404040" points="309.7099,-652.6902 303.083,-649.8469 303.1589,-642.6362 309.7858,-645.4795 309.7099,-652.6902"/>
<text text-anchor="middle" x="349.5" y="-664" font-family="Helvetica,sans-Serif" font-size="10.00" fill="#000000"> +elements</text>
</g>
<!-- Node10 -->
<g id="node10" class="node">
<title>Node10</title>
<g id="a_node10"><a xlink:title=" ">
<polygon fill="none" stroke="#bfbfbf" points="384,-475 384,-532 413,-532 413,-475 384,-475"/>
<text text-anchor="middle" x="398.5" y="-520" font-family="Helvetica,sans-Serif" font-size="10.00" fill="#000000">int</text>
<polyline fill="none" stroke="#bfbfbf" points="384,-513 413,-513 "/>
<text text-anchor="middle" x="398.5" y="-501" font-family="Helvetica,sans-Serif" font-size="10.00" fill="#000000"> </text>
<polyline fill="none" stroke="#bfbfbf" points="384,-494 413,-494 "/>
<text text-anchor="middle" x="398.5" y="-482" font-family="Helvetica,sans-Serif" font-size="10.00" fill="#000000"> </text>
</a>
</g>
</g>
<!-- Node10&#45;&gt;Node5 -->
<g id="edge9" class="edge">
<title>Node10&#45;&gt;Node5</title>
<path fill="none" stroke="#404040" d="M399.5727,-474.8952C400.1229,-460.222 400.8232,-441.5485 401.5219,-422.9172"/>
<polygon fill="none" stroke="#404040" points="401.5294,-422.7139 397.7571,-416.5682 401.9792,-410.7223 405.7515,-416.868 401.5294,-422.7139"/>
<text text-anchor="middle" x="434" y="-437.5" font-family="Helvetica,sans-Serif" font-size="10.00" fill="#000000"> &#45;modVersion</text>
</g>
<!-- Node11 -->
<g id="node11" class="node">
<title>Node11</title>
<g id="a_node11"><a xlink:title=" ">
<polygon fill="none" stroke="#bfbfbf" points="571.5,-475 571.5,-532 651.5,-532 651.5,-475 571.5,-475"/>
<text text-anchor="middle" x="611.5" y="-520" font-family="Helvetica,sans-Serif" font-size="10.00" fill="#000000">LLVMContext</text>
<polyline fill="none" stroke="#bfbfbf" points="571.5,-513 651.5,-513 "/>
<text text-anchor="middle" x="611.5" y="-501" font-family="Helvetica,sans-Serif" font-size="10.00" fill="#000000"> </text>
<polyline fill="none" stroke="#bfbfbf" points="571.5,-494 651.5,-494 "/>
<text text-anchor="middle" x="611.5" y="-482" font-family="Helvetica,sans-Serif" font-size="10.00" fill="#000000"> </text>
</a>
</g>
</g>
<!-- Node11&#45;&gt;Node5 -->
<g id="edge10" class="edge">
<title>Node11&#45;&gt;Node5</title>
<path fill="none" stroke="#404040" d="M580.3069,-474.7151C564.527,-460.5294 544.8687,-443.4177 526.5,-429 510.1728,-416.1847 492.0933,-403.0021 474.9647,-390.9418"/>
<polygon fill="none" stroke="#404040" points="474.8445,-390.8579 467.6352,-390.6981 465.0098,-383.9819 472.2192,-384.1416 474.8445,-390.8579"/>
<text text-anchor="middle" x="586" y="-437.5" font-family="Helvetica,sans-Serif" font-size="10.00" fill="#000000"> &#45;modContext</text>
</g>
<!-- Node12&#45;&gt;Node5 -->
<g id="edge11" class="edge">
<title>Node12&#45;&gt;Node5</title>
<path fill="none" stroke="#404040" d="M305.9536,-474.8952C317.4301,-459.5932 332.1696,-439.9406 346.7333,-420.5223"/>
<polygon fill="none" stroke="#404040" points="346.8832,-420.3223 347.2832,-413.1223 354.0833,-410.7223 353.6833,-417.9223 346.8832,-420.3223"/>
<text text-anchor="middle" x="363" y="-437.5" font-family="Helvetica,sans-Serif" font-size="10.00" fill="#000000"> &#45;modFiles</text>
</g>
<!-- Node13&#45;&gt;Node4 -->
<g id="edge15" class="edge">
<title>Node13&#45;&gt;Node4</title>
<path fill="none" stroke="#ffa500" d="M241.9322,-578.0036C230.8679,-566.3946 220.1898,-552.6937 213.5,-538 165.9303,-433.5164 175.6526,-292.5395 183.4869,-228.5812"/>
<polygon fill="#ffa500" stroke="#ffa500" points="239.6835,-580.7055 249.2207,-585.3198 244.6426,-575.7651 239.6835,-580.7055"/>
<text text-anchor="start" x="187.5" y="-443" font-family="Helvetica,sans-Serif" font-size="10.00" fill="#000000"> &lt; hydrogen_framework</text>
<text text-anchor="middle" x="247" y="-432" font-family="Helvetica,sans-Serif" font-size="10.00" fill="#000000">::Module * &gt;</text>
</g>
<!-- Node13&#45;&gt;Node12 -->
<g id="edge13" class="edge">
<title>Node13&#45;&gt;Node12</title>
<path fill="none" stroke="#ffa500" d="M284.5,-574.845C284.5,-560.7511 284.5,-545.1262 284.5,-532.1002"/>
<polygon fill="#ffa500" stroke="#ffa500" points="281.0001,-575.2559 284.5,-585.2559 288.0001,-575.2559 281.0001,-575.2559"/>
<text text-anchor="middle" x="322" y="-559" font-family="Helvetica,sans-Serif" font-size="10.00" fill="#000000"> &lt; std::string &gt;</text>
</g>
</g>
</svg>
