<?xml version="1.0" encoding="UTF-8" standalone="no"?>
<!DOCTYPE svg PUBLIC "-//W3C//DTD SVG 1.1//EN"
 "http://www.w3.org/Graphics/SVG/1.1/DTD/svg11.dtd">
<!-- Generated by graphviz version 2.40.1 (20161225.0304)
 -->
<!-- Title: hydrogen_framework::Graph_Instruction::getGraphLine Pages: 1 -->
<svg width="572pt" height="125pt"
 viewBox="0.00 0.00 572.00 124.50" xmlns="http://www.w3.org/2000/svg" xmlns:xlink="http://www.w3.org/1999/xlink">
<g id="graph0" class="graph" transform="scale(1 1) rotate(0) translate(4 120.5)">
<title>hydrogen_framework::Graph_Instruction::getGraphLine</title>
<!-- Node5 -->
<g id="node1" class="node">
<title>Node5</title>
<g id="a_node1"><a xlink:title=" ">
<polygon fill="#bfbfbf" stroke="#000000" points="443,-28 443,-69 564,-69 564,-28 443,-28"/>
<text text-anchor="start" x="451" y="-57" font-family="Helvetica,sans-Serif" font-size="10.00" fill="#000000">hydrogen_framework</text>
<text text-anchor="start" x="451" y="-46" font-family="Helvetica,sans-Serif" font-size="10.00" fill="#000000">::Graph_Instruction</text>
<text text-anchor="middle" x="503.5" y="-35" font-family="Helvetica,sans-Serif" font-size="10.00" fill="#000000">::getGraphLine</text>
</a>
</g>
</g>
<!-- Node6 -->
<g id="node2" class="node">
<title>Node6</title>
<g id="a_node2"><a xlink:href="../../db/d17/MVICFG_8cpp.html#ae8aa13258ce9819a72598738dcf54fb2" target="_top" xlink:title=" ">
<polygon fill="none" stroke="#000000" points="252,-57 252,-98 407,-98 407,-57 252,-57"/>
<text text-anchor="start" x="260" y="-86" font-family="Helvetica,sans-Serif" font-size="10.00" fill="#000000">hydrogen_framework</text>
<text text-anchor="start" x="260" y="-75" font-family="Helvetica,sans-Serif" font-size="10.00" fill="#000000">::getMatchedInstructionFrom</text>
<text text-anchor="middle" x="329.5" y="-64" font-family="Helvetica,sans-Serif" font-size="10.00" fill="#000000">Graph</text>
</a>
</g>
</g>
<!-- Node5&#45;&gt;Node6 -->
<g id="edge1" class="edge">
<title>Node5&#45;&gt;Node6</title>
<path fill="none" stroke="#191970" d="M432.5544,-60.3243C424.1819,-61.7197 415.6039,-63.1494 407.1452,-64.5591"/>
<polygon fill="#191970" stroke="#191970" points="433.3547,-63.7392 442.6432,-58.6428 432.2039,-56.8345 433.3547,-63.7392"/>
</g>
<!-- Node9 -->
<g id="node5" class="node">
<title>Node9</title>
<g id="a_node5"><a xlink:href="../../db/d17/MVICFG_8cpp.html#a2ebefd41917d6565942bb86ec72f6adc" target="_top" xlink:title=" ">
<polygon fill="none" stroke="#000000" points="81.5,-.5 81.5,-30.5 211.5,-30.5 211.5,-.5 81.5,-.5"/>
<text text-anchor="start" x="89.5" y="-18.5" font-family="Helvetica,sans-Serif" font-size="10.00" fill="#000000">hydrogen_framework</text>
<text text-anchor="middle" x="146.5" y="-7.5" font-family="Helvetica,sans-Serif" font-size="10.00" fill="#000000">::updateMVICFGVersion</text>
</a>
</g>
</g>
<!-- Node5&#45;&gt;Node9 -->
<g id="edge6" class="edge">
<title>Node5&#45;&gt;Node9</title>
<path fill="none" stroke="#191970" d="M432.8748,-41.9716C368.5011,-36.0211 274.1751,-27.3019 211.5933,-21.517"/>
<polygon fill="#191970" stroke="#191970" points="432.6601,-45.4666 442.9398,-42.902 433.3045,-38.4963 432.6601,-45.4666"/>
</g>
<!-- Node6&#45;&gt;Node6 -->
<g id="edge5" class="edge">
<title>Node6&#45;&gt;Node6</title>
<path fill="none" stroke="#191970" d="M359.4357,-108.3561C354.9839,-113.1966 345.0054,-116.5 329.5,-116.5 304.6914,-116.5 294.0315,-108.0433 297.5202,-98.3644"/>
<polygon fill="#191970" stroke="#191970" points="362.9044,-108.863 361.4798,-98.3644 356.0464,-107.4599 362.9044,-108.863"/>
</g>
<!-- Node7 -->
<g id="node3" class="node">
<title>Node7</title>
<g id="a_node3"><a xlink:href="../../db/d17/MVICFG_8cpp.html#a8f5c2085a43bf3b517575d9db43e4b92" target="_top" xlink:title=" ">
<polygon fill="none" stroke="#000000" points="77,-67.5 77,-97.5 216,-97.5 216,-67.5 77,-67.5"/>
<text text-anchor="start" x="85" y="-85.5" font-family="Helvetica,sans-Serif" font-size="10.00" fill="#000000">hydrogen_framework</text>
<text text-anchor="middle" x="146.5" y="-74.5" font-family="Helvetica,sans-Serif" font-size="10.00" fill="#000000">::getEdgesForAddedLines</text>
</a>
</g>
</g>
<!-- Node6&#45;&gt;Node7 -->
<g id="edge2" class="edge">
<title>Node6&#45;&gt;Node7</title>
<path fill="none" stroke="#191970" d="M241.8063,-79.896C233.1818,-80.1316 224.5121,-80.3685 216.1045,-80.5982"/>
<polygon fill="#191970" stroke="#191970" points="241.9909,-83.3924 251.8915,-79.6205 241.7996,-76.395 241.9909,-83.3924"/>
</g>
<!-- Node7&#45;&gt;Node7 -->
<g id="edge3" class="edge">
<title>Node7&#45;&gt;Node7</title>
<path fill="none" stroke="#191970" d="M168.8887,-107.9579C166.1099,-112.679 158.647,-116 146.5,-116 126.5664,-116 119.247,-107.0566 124.5419,-97.659"/>
<polygon fill="#191970" stroke="#191970" points="172.3729,-107.504 168.4581,-97.659 165.379,-107.7965 172.3729,-107.504"/>
</g>
<!-- Node8 -->
<g id="node4" class="node">
<title>Node8</title>
<g id="a_node4"><a xlink:href="../../de/d64/Hydrogen_8cpp.html#a0ddf1224851353fc92bfbff6f499fa97" target="_top" xlink:title=" ">
<polygon fill="none" stroke="#000000" points="0,-39 0,-58 41,-58 41,-39 0,-39"/>
<text text-anchor="middle" x="20.5" y="-46" font-family="Helvetica,sans-Serif" font-size="10.00" fill="#000000">main</text>
</a>
</g>
</g>
<!-- Node7&#45;&gt;Node8 -->
<g id="edge4" class="edge">
<title>Node7&#45;&gt;Node8</title>
<path fill="none" stroke="#191970" d="M80.8842,-64.7942C66.452,-60.8997 52.203,-57.0548 41.1741,-54.0787"/>
<polygon fill="#191970" stroke="#191970" points="80.3013,-68.262 90.8678,-67.4881 82.125,-61.5037 80.3013,-68.262"/>
</g>
<!-- Node9&#45;&gt;Node8 -->
<g id="edge7" class="edge">
<title>Node9&#45;&gt;Node8</title>
<path fill="none" stroke="#191970" d="M78.9661,-33.1875C65.1623,-36.8027 51.6502,-40.3416 41.0992,-43.105"/>
<polygon fill="#191970" stroke="#191970" points="80.2438,-36.4709 89.0308,-30.5515 78.4703,-29.6993 80.2438,-36.4709"/>
</g>
<!-- Node9&#45;&gt;Node9 -->
<g id="edge8" class="edge">
<title>Node9&#45;&gt;Node9</title>
<path fill="none" stroke="#191970" d="M168.8887,-40.9579C166.1099,-45.679 158.647,-49 146.5,-49 126.5664,-49 119.247,-40.0566 124.5419,-30.659"/>
<polygon fill="#191970" stroke="#191970" points="172.3729,-40.504 168.4581,-30.659 165.379,-40.7965 172.3729,-40.504"/>
</g>
</g>
</svg>
