<?xml version="1.0" encoding="UTF-8" standalone="no"?>
<!DOCTYPE svg PUBLIC "-//W3C//DTD SVG 1.1//EN"
 "http://www.w3.org/Graphics/SVG/1.1/DTD/svg11.dtd">
<!-- Generated by graphviz version 2.40.1 (20161225.0304)
 -->
<!-- Title: hydrogen_framework::Graph_Instruction::setGraphLine Pages: 1 -->
<svg width="778pt" height="161pt"
 viewBox="0.00 0.00 778.00 161.00" xmlns="http://www.w3.org/2000/svg" xmlns:xlink="http://www.w3.org/1999/xlink">
<g id="graph0" class="graph" transform="scale(1 1) rotate(0) translate(4 157)">
<title>hydrogen_framework::Graph_Instruction::setGraphLine</title>
<!-- Node51 -->
<g id="node1" class="node">
<title>Node51</title>
<g id="a_node1"><a xlink:title=" ">
<polygon fill="#bfbfbf" stroke="#000000" points="649,-51 649,-92 770,-92 770,-51 649,-51"/>
<text text-anchor="start" x="657" y="-80" font-family="Helvetica,sans-Serif" font-size="10.00" fill="#000000">hydrogen_framework</text>
<text text-anchor="start" x="657" y="-69" font-family="Helvetica,sans-Serif" font-size="10.00" fill="#000000">::Graph_Instruction</text>
<text text-anchor="middle" x="709.5" y="-58" font-family="Helvetica,sans-Serif" font-size="10.00" fill="#000000">::setGraphLine</text>
</a>
</g>
</g>
<!-- Node52 -->
<g id="node2" class="node">
<title>Node52</title>
<g id="a_node2"><a xlink:href="../../d8/d0b/classhydrogen__framework_1_1Graph__Line.html#ab0b1293c760736cdf3e93c5d378449a0" target="_top" xlink:title=" ">
<polygon fill="none" stroke="#000000" points="434,-56.5 434,-86.5 613,-86.5 613,-56.5 434,-56.5"/>
<text text-anchor="start" x="442" y="-74.5" font-family="Helvetica,sans-Serif" font-size="10.00" fill="#000000">hydrogen_framework</text>
<text text-anchor="middle" x="523.5" y="-63.5" font-family="Helvetica,sans-Serif" font-size="10.00" fill="#000000">::Graph_Line::pushLineInstruction</text>
</a>
</g>
</g>
<!-- Node51&#45;&gt;Node52 -->
<g id="edge1" class="edge">
<title>Node51&#45;&gt;Node52</title>
<path fill="none" stroke="#191970" d="M638.7578,-71.5C630.3599,-71.5 621.7047,-71.5 613.0885,-71.5"/>
<polygon fill="#191970" stroke="#191970" points="638.854,-75.0001 648.854,-71.5 638.854,-68.0001 638.854,-75.0001"/>
</g>
<!-- Node53 -->
<g id="node3" class="node">
<title>Node53</title>
<g id="a_node3"><a xlink:href="../../d4/d7a/classhydrogen__framework_1_1Graph.html#a37c8344541a9008ee43ce284f28539ae" target="_top" xlink:title=" ">
<polygon fill="none" stroke="#000000" points="234,-122.5 234,-152.5 398,-152.5 398,-122.5 234,-122.5"/>
<text text-anchor="start" x="242" y="-140.5" font-family="Helvetica,sans-Serif" font-size="10.00" fill="#000000">hydrogen_framework</text>
<text text-anchor="middle" x="316" y="-129.5" font-family="Helvetica,sans-Serif" font-size="10.00" fill="#000000">::Graph::addFunctionCallEdges</text>
</a>
</g>
</g>
<!-- Node52&#45;&gt;Node53 -->
<g id="edge2" class="edge">
<title>Node52&#45;&gt;Node53</title>
<path fill="none" stroke="#191970" d="M466.3861,-89.6663C434.0575,-99.9492 394.1002,-112.6585 363.5,-122.3916"/>
<polygon fill="#191970" stroke="#191970" points="467.6867,-92.9255 476.1554,-86.559 465.5649,-86.2548 467.6867,-92.9255"/>
</g>
<!-- Node54 -->
<g id="node4" class="node">
<title>Node54</title>
<g id="a_node4"><a xlink:href="../../db/d17/MVICFG_8cpp.html#a8abab0f2232beace9b14c3c7dfa368dd" target="_top" xlink:title=" ">
<polygon fill="none" stroke="#000000" points="77,-72.5 77,-102.5 198,-102.5 198,-72.5 77,-72.5"/>
<text text-anchor="start" x="85" y="-90.5" font-family="Helvetica,sans-Serif" font-size="10.00" fill="#000000">hydrogen_framework</text>
<text text-anchor="middle" x="137.5" y="-79.5" font-family="Helvetica,sans-Serif" font-size="10.00" fill="#000000">::buildICFG</text>
</a>
</g>
</g>
<!-- Node52&#45;&gt;Node54 -->
<g id="edge8" class="edge">
<title>Node52&#45;&gt;Node54</title>
<path fill="none" stroke="#191970" d="M423.6199,-75.6401C352.3026,-78.5963 258.6743,-82.4772 198.2903,-84.9802"/>
<polygon fill="#191970" stroke="#191970" points="424.1272,-79.1222 433.9736,-75.2109 423.8372,-72.1282 424.1272,-79.1222"/>
</g>
<!-- Node56 -->
<g id="node6" class="node">
<title>Node56</title>
<g id="a_node6"><a xlink:href="../../d4/d7a/classhydrogen__framework_1_1Graph.html#a2baf6364fa45c8574b581fe8c6df79c6" target="_top" xlink:title=" ">
<polygon fill="none" stroke="#000000" points="246.5,-34.5 246.5,-64.5 385.5,-64.5 385.5,-34.5 246.5,-34.5"/>
<text text-anchor="start" x="254.5" y="-52.5" font-family="Helvetica,sans-Serif" font-size="10.00" fill="#000000">hydrogen_framework</text>
<text text-anchor="middle" x="316" y="-41.5" font-family="Helvetica,sans-Serif" font-size="10.00" fill="#000000">::Graph::addVirtualNodes</text>
</a>
</g>
</g>
<!-- Node52&#45;&gt;Node56 -->
<g id="edge6" class="edge">
<title>Node52&#45;&gt;Node56</title>
<path fill="none" stroke="#191970" d="M423.6749,-60.9161C410.7649,-59.5474 397.7737,-58.17 385.5025,-56.8689"/>
<polygon fill="#191970" stroke="#191970" points="423.6825,-64.4365 433.9958,-62.0104 424.4205,-57.4755 423.6825,-64.4365"/>
</g>
<!-- Node57 -->
<g id="node7" class="node">
<title>Node57</title>
<g id="a_node7"><a xlink:href="../../db/d17/MVICFG_8cpp.html#a40d68c502d0833e919395ded787b4599" target="_top" xlink:title=" ">
<polygon fill="none" stroke="#000000" points="77,-.5 77,-30.5 198,-30.5 198,-.5 77,-.5"/>
<text text-anchor="start" x="85" y="-18.5" font-family="Helvetica,sans-Serif" font-size="10.00" fill="#000000">hydrogen_framework</text>
<text text-anchor="middle" x="137.5" y="-7.5" font-family="Helvetica,sans-Serif" font-size="10.00" fill="#000000">::addToMVICFG</text>
</a>
</g>
</g>
<!-- Node52&#45;&gt;Node57 -->
<g id="edge9" class="edge">
<title>Node52&#45;&gt;Node57</title>
<path fill="none" stroke="#191970" d="M482.909,-52.4676C458.803,-42.1449 427.3103,-30.3328 398,-24.5 330.5387,-11.0752 251.3513,-10.4195 198.1452,-12.1023"/>
<polygon fill="#191970" stroke="#191970" points="481.5311,-55.685 492.0959,-56.4822 484.3341,-49.2707 481.5311,-55.685"/>
</g>
<!-- Node53&#45;&gt;Node54 -->
<g id="edge3" class="edge">
<title>Node53&#45;&gt;Node54</title>
<path fill="none" stroke="#191970" d="M252.7616,-119.7862C232.6822,-114.1617 210.6781,-107.9981 191.3263,-102.5774"/>
<polygon fill="#191970" stroke="#191970" points="251.8707,-123.1713 262.4441,-122.4984 253.7588,-116.4307 251.8707,-123.1713"/>
</g>
<!-- Node54&#45;&gt;Node54 -->
<g id="edge4" class="edge">
<title>Node54&#45;&gt;Node54</title>
<path fill="none" stroke="#191970" d="M158.1118,-112.9579C155.5536,-117.679 148.683,-121 137.5,-121 119.1484,-121 112.41,-112.0566 117.2846,-102.659"/>
<polygon fill="#191970" stroke="#191970" points="161.5975,-112.517 157.7154,-102.659 154.6027,-112.7863 161.5975,-112.517"/>
</g>
<!-- Node55 -->
<g id="node5" class="node">
<title>Node55</title>
<g id="a_node5"><a xlink:href="../../de/d64/Hydrogen_8cpp.html#a0ddf1224851353fc92bfbff6f499fa97" target="_top" xlink:title=" ">
<polygon fill="none" stroke="#000000" points="0,-39 0,-58 41,-58 41,-39 0,-39"/>
<text text-anchor="middle" x="20.5" y="-46" font-family="Helvetica,sans-Serif" font-size="10.00" fill="#000000">main</text>
</a>
</g>
</g>
<!-- Node54&#45;&gt;Node55 -->
<g id="edge5" class="edge">
<title>Node54&#45;&gt;Node55</title>
<path fill="none" stroke="#191970" d="M82.6425,-69.2142C67.8712,-64.2904 52.789,-59.263 41.1826,-55.3942"/>
<polygon fill="#191970" stroke="#191970" points="81.6711,-72.5796 92.2647,-72.4216 83.8847,-65.9388 81.6711,-72.5796"/>
</g>
<!-- Node56&#45;&gt;Node54 -->
<g id="edge7" class="edge">
<title>Node56&#45;&gt;Node54</title>
<path fill="none" stroke="#191970" d="M236.6615,-66.39C223.7316,-69.1426 210.5206,-71.955 198.1324,-74.5923"/>
<polygon fill="#191970" stroke="#191970" points="237.4241,-69.8062 246.4761,-64.3006 235.9665,-62.9596 237.4241,-69.8062"/>
</g>
<!-- Node57&#45;&gt;Node55 -->
<g id="edge11" class="edge">
<title>Node57&#45;&gt;Node55</title>
<path fill="none" stroke="#191970" d="M74.4251,-33.2903C62.3374,-36.6997 50.5117,-40.0352 41.0294,-42.7096"/>
<polygon fill="#191970" stroke="#191970" points="75.4614,-36.6347 84.1357,-30.5515 73.5611,-29.8976 75.4614,-36.6347"/>
</g>
<!-- Node57&#45;&gt;Node57 -->
<g id="edge10" class="edge">
<title>Node57&#45;&gt;Node57</title>
<path fill="none" stroke="#191970" d="M158.1118,-40.9579C155.5536,-45.679 148.683,-49 137.5,-49 119.1484,-49 112.41,-40.0566 117.2846,-30.659"/>
<polygon fill="#191970" stroke="#191970" points="161.5975,-40.517 157.7154,-30.659 154.6027,-40.7863 161.5975,-40.517"/>
</g>
</g>
</svg>
