<?xml version="1.0" encoding="UTF-8" standalone="no"?>
<!DOCTYPE svg PUBLIC "-//W3C//DTD SVG 1.1//EN"
 "http://www.w3.org/Graphics/SVG/1.1/DTD/svg11.dtd">
<!-- Generated by graphviz version 2.40.1 (20161225.0304)
 -->
<!-- Title: hydrogen_framework::Graph_Instruction::getInstructionEdges Pages: 1 -->
<!--zoomable 363 -->
<svg id="main" version="1.1" xmlns="http://www.w3.org/2000/svg" xmlns:xlink="http://www.w3.org/1999/xlink" xml:space="preserve" onload="init(evt)">
<style type="text/css"><![CDATA[
.edge:hover path { stroke: red; }
.edge:hover polygon { stroke: red; fill: red; }
]]></style>
<script type="text/javascript"><![CDATA[
var edges = document.getElementsByTagName('g');
if (edges && edges.length) {
  for (var i=0;i<edges.length;i++) {
    if (edges[i].id.substr(0,4)=='edge') {
      edges[i].setAttribute('class','edge');
    }
  }
}
]]></script>
        <defs>
                <circle id="rim" cx="0" cy="0" r="7"/>
                <circle id="rim2" cx="0" cy="0" r="3.5"/>
                <g id="zoomPlus">
                        <use xlink:href="#rim" fill="#404040">
                                <set attributeName="fill" to="#808080" begin="zoomplus.mouseover" end="zoomplus.mouseout"/>
                        </use>
                        <path d="M-4,0h8M0,-4v8" fill="none" stroke="white" stroke-width="1.5" pointer-events="none"/>
                </g>
                <g id="zoomMin">
                        <use xlink:href="#rim" fill="#404040">
                                <set attributeName="fill" to="#808080" begin="zoomminus.mouseover" end="zoomminus.mouseout"/>
                        </use>
                        <path d="M-4,0h8" fill="none" stroke="white" stroke-width="1.5" pointer-events="none"/>
                </g>
                <g id="dirArrow">
                        <path fill="none" stroke="white" stroke-width="1.5" d="M0,-3.0v7 M-2.5,-0.5L0,-3.0L2.5,-0.5"/>
                </g>
               <g id="resetDef">
                       <use xlink:href="#rim2" fill="#404040">
                               <set attributeName="fill" to="#808080" begin="reset.mouseover" end="reset.mouseout"/>
                       </use>
               </g>
        </defs>

<script type="text/javascript">
var viewWidth = 695;
var viewHeight = 363;
var sectionId = 'dynsection-2';
</script>
<script xlink:href="../../svgpan.js"/>
<svg id="graph" class="graph">
<g id="viewport">
<title>hydrogen_framework::Graph_Instruction::getInstructionEdges</title>
<!-- Node11 -->
<g id="node1" class="node">
<title>Node11</title>
<g id="a_node1"><a xlink:title=" ">
<polygon fill="#bfbfbf" stroke="#000000" points="566,-138 566,-179 687,-179 687,-138 566,-138"/>
<text text-anchor="start" x="574" y="-167" font-family="Helvetica,sans-Serif" font-size="10.00" fill="#000000">hydrogen_framework</text>
<text text-anchor="start" x="574" y="-156" font-family="Helvetica,sans-Serif" font-size="10.00" fill="#000000">::Graph_Instruction</text>
<text text-anchor="middle" x="626.5" y="-145" font-family="Helvetica,sans-Serif" font-size="10.00" fill="#000000">::getInstructionEdges</text>
</a>
</g>
</g>
<!-- Node12 -->
<g id="node2" class="node">
<title>Node12</title>
<g id="a_node2"><a xlink:href="../../db/d17/MVICFG_8cpp.html#ada0e47addc20cb09435186c57d5aa66a" target="_top" xlink:title=" ">
<polygon fill="none" stroke="#000000" points="409,-112.5 409,-142.5 530,-142.5 530,-112.5 409,-112.5"/>
<text text-anchor="start" x="417" y="-130.5" font-family="Helvetica,sans-Serif" font-size="10.00" fill="#000000">hydrogen_framework</text>
<text text-anchor="middle" x="469.5" y="-119.5" font-family="Helvetica,sans-Serif" font-size="10.00" fill="#000000">::getEdge</text>
</a>
</g>
</g>
<!-- Node11&#45;&gt;Node12 -->
<g id="edge1" class="edge">
<title>Node11&#45;&gt;Node12</title>
<path fill="none" stroke="#191970" d="M555.7902,-144.5382C547.193,-142.8406 538.4699,-141.1183 530.0389,-139.4535"/>
<polygon fill="#191970" stroke="#191970" points="555.3111,-148.0111 565.7997,-146.5146 556.6671,-141.1437 555.3111,-148.0111"/>
</g>
<!-- Node16 -->
<g id="node6" class="node">
<title>Node16</title>
<g id="a_node6"><a xlink:href="../../db/d17/MVICFG_8cpp.html#a8f5c2085a43bf3b517575d9db43e4b92" target="_top" xlink:title=" ">
<polygon fill="none" stroke="#000000" points="234,-.5 234,-30.5 373,-30.5 373,-.5 234,-.5"/>
<text text-anchor="start" x="242" y="-18.5" font-family="Helvetica,sans-Serif" font-size="10.00" fill="#000000">hydrogen_framework</text>
<text text-anchor="middle" x="303.5" y="-7.5" font-family="Helvetica,sans-Serif" font-size="10.00" fill="#000000">::getEdgesForAddedLines</text>
</a>
</g>
</g>
<!-- Node11&#45;&gt;Node16 -->
<g id="edge20" class="edge">
<title>Node11&#45;&gt;Node16</title>
<path fill="none" stroke="#191970" d="M585.1576,-132.5681C568.3658,-122.5517 548.576,-111.388 530,-102.5 469.0125,-73.3195 395.4672,-46.5315 349.0828,-30.606"/>
<polygon fill="#191970" stroke="#191970" points="583.7806,-135.8249 594.1513,-137.9931 587.3962,-129.831 583.7806,-135.8249"/>
</g>
<!-- Node19 -->
<g id="node9" class="node">
<title>Node19</title>
<g id="a_node9"><a xlink:href="../../db/d17/MVICFG_8cpp.html#ae3d8d56d8de87926a4b050f28a5a1fe1" target="_top" xlink:title=" ">
<polygon fill="none" stroke="#000000" points="234.5,-278.5 234.5,-308.5 372.5,-308.5 372.5,-278.5 234.5,-278.5"/>
<text text-anchor="start" x="242.5" y="-296.5" font-family="Helvetica,sans-Serif" font-size="10.00" fill="#000000">hydrogen_framework</text>
<text text-anchor="middle" x="303.5" y="-285.5" font-family="Helvetica,sans-Serif" font-size="10.00" fill="#000000">::getPredGivenGraphLine</text>
</a>
</g>
</g>
<!-- Node11&#45;&gt;Node19 -->
<g id="edge21" class="edge">
<title>Node11&#45;&gt;Node19</title>
<path fill="none" stroke="#191970" d="M576.4306,-183.6647C561.5799,-190.9169 545.217,-198.7017 530,-205.5 461.2011,-236.2365 443.5279,-242.97 373,-269.5 364.995,-272.5112 356.4196,-275.5901 348.1206,-278.4951"/>
<polygon fill="#191970" stroke="#191970" points="578.0247,-186.7812 585.4581,-179.2316 574.9392,-180.4979 578.0247,-186.7812"/>
</g>
<!-- Node20 -->
<g id="node10" class="node">
<title>Node20</title>
<g id="a_node10"><a xlink:href="../../db/d17/MVICFG_8cpp.html#aea56e0949bba61be541008db2bd160a6" target="_top" xlink:title=" ">
<polygon fill="none" stroke="#000000" points="234,-211.5 234,-241.5 373,-241.5 373,-211.5 234,-211.5"/>
<text text-anchor="start" x="242" y="-229.5" font-family="Helvetica,sans-Serif" font-size="10.00" fill="#000000">hydrogen_framework</text>
<text text-anchor="middle" x="303.5" y="-218.5" font-family="Helvetica,sans-Serif" font-size="10.00" fill="#000000">::getSuccGivenGraphLine</text>
</a>
</g>
</g>
<!-- Node11&#45;&gt;Node20 -->
<g id="edge26" class="edge">
<title>Node11&#45;&gt;Node20</title>
<path fill="none" stroke="#191970" d="M555.8704,-173.3694C501.6675,-184.7805 427.2194,-200.4538 373.2397,-211.8179"/>
<polygon fill="#191970" stroke="#191970" points="556.6817,-176.7754 565.7462,-171.2903 555.2396,-169.9255 556.6817,-176.7754"/>
</g>
<!-- Node12&#45;&gt;Node12 -->
<g id="edge8" class="edge">
<title>Node12&#45;&gt;Node12</title>
<path fill="none" stroke="#191970" d="M497.2193,-152.9579C493.779,-157.679 484.5392,-161 469.5,-161 444.8203,-161 435.7582,-152.0566 442.3138,-142.659"/>
<polygon fill="#191970" stroke="#191970" points="500.6986,-152.4647 496.6862,-142.659 493.7079,-152.8266 500.6986,-152.4647"/>
</g>
<!-- Node13 -->
<g id="node3" class="node">
<title>Node13</title>
<g id="a_node3"><a xlink:href="../../db/d17/MVICFG_8cpp.html#a40d68c502d0833e919395ded787b4599" target="_top" xlink:title=" ">
<polygon fill="none" stroke="#000000" points="77,-278.5 77,-308.5 198,-308.5 198,-278.5 77,-278.5"/>
<text text-anchor="start" x="85" y="-296.5" font-family="Helvetica,sans-Serif" font-size="10.00" fill="#000000">hydrogen_framework</text>
<text text-anchor="middle" x="137.5" y="-285.5" font-family="Helvetica,sans-Serif" font-size="10.00" fill="#000000">::addToMVICFG</text>
</a>
</g>
</g>
<!-- Node12&#45;&gt;Node13 -->
<g id="edge2" class="edge">
<title>Node12&#45;&gt;Node13</title>
<path fill="none" stroke="#191970" d="M466.5021,-152.6637C459.5175,-198.6283 437.5168,-295.227 373,-336.5 306.1303,-379.2783 207.9503,-334.2871 162.4042,-308.6822"/>
<polygon fill="#191970" stroke="#191970" points="469.9851,-153.0288 467.9066,-142.6399 463.0528,-152.0574 469.9851,-153.0288"/>
</g>
<!-- Node15 -->
<g id="node5" class="node">
<title>Node15</title>
<g id="a_node5"><a xlink:href="../../db/d17/MVICFG_8cpp.html#ac6a97f6b1392ad5517822076e830168f" target="_top" xlink:title=" ">
<polygon fill="none" stroke="#000000" points="77,-211.5 77,-241.5 198,-241.5 198,-211.5 77,-211.5"/>
<text text-anchor="start" x="85" y="-229.5" font-family="Helvetica,sans-Serif" font-size="10.00" fill="#000000">hydrogen_framework</text>
<text text-anchor="middle" x="137.5" y="-218.5" font-family="Helvetica,sans-Serif" font-size="10.00" fill="#000000">::deleteFromMVICFG</text>
</a>
</g>
</g>
<!-- Node12&#45;&gt;Node15 -->
<g id="edge5" class="edge">
<title>Node12&#45;&gt;Node15</title>
<path fill="none" stroke="#191970" d="M398.829,-112.4045C349.0537,-105.7238 282.847,-105.157 234,-135.5 205.2851,-153.3373 223.2417,-180.0151 198,-202.5 194.2031,-205.8822 189.8716,-208.817 185.3109,-211.357"/>
<polygon fill="#191970" stroke="#191970" points="398.4721,-115.8893 408.8716,-113.8642 399.4791,-108.9621 398.4721,-115.8893"/>
</g>
<!-- Node12&#45;&gt;Node16 -->
<g id="edge9" class="edge">
<title>Node12&#45;&gt;Node16</title>
<path fill="none" stroke="#191970" d="M438.7968,-106.7846C406.0308,-84.6774 354.9165,-50.1906 325.7973,-30.5439"/>
<polygon fill="#191970" stroke="#191970" points="436.8653,-109.7035 447.1125,-112.3952 440.7804,-103.9007 436.8653,-109.7035"/>
</g>
<!-- Node17 -->
<g id="node7" class="node">
<title>Node17</title>
<g id="a_node7"><a xlink:href="../../db/d17/MVICFG_8cpp.html#a8c55b276e33d536dd4b0e230b5be7308" target="_top" xlink:title=" ">
<polygon fill="none" stroke="#000000" points="243,-144.5 243,-174.5 364,-174.5 364,-144.5 243,-144.5"/>
<text text-anchor="start" x="251" y="-162.5" font-family="Helvetica,sans-Serif" font-size="10.00" fill="#000000">hydrogen_framework</text>
<text text-anchor="middle" x="303.5" y="-151.5" font-family="Helvetica,sans-Serif" font-size="10.00" fill="#000000">::getInBetweenEdge</text>
</a>
</g>
</g>
<!-- Node12&#45;&gt;Node17 -->
<g id="edge12" class="edge">
<title>Node12&#45;&gt;Node17</title>
<path fill="none" stroke="#191970" d="M398.6287,-141.1619C387.1286,-143.3788 375.311,-145.6569 364.0849,-147.821"/>
<polygon fill="#191970" stroke="#191970" points="399.4736,-144.5636 408.6303,-139.2339 398.1486,-137.6901 399.4736,-144.5636"/>
</g>
<!-- Node18 -->
<g id="node8" class="node">
<title>Node18</title>
<g id="a_node8"><a xlink:href="../../db/d17/MVICFG_8cpp.html#a27bf2e73daf11e2ad6363e34bd06de89" target="_top" xlink:title=" ">
<polygon fill="none" stroke="#000000" points="77,-144.5 77,-174.5 198,-174.5 198,-144.5 77,-144.5"/>
<text text-anchor="start" x="85" y="-162.5" font-family="Helvetica,sans-Serif" font-size="10.00" fill="#000000">hydrogen_framework</text>
<text text-anchor="middle" x="137.5" y="-151.5" font-family="Helvetica,sans-Serif" font-size="10.00" fill="#000000">::matchedInMVICFG</text>
</a>
</g>
</g>
<!-- Node12&#45;&gt;Node18 -->
<g id="edge19" class="edge">
<title>Node12&#45;&gt;Node18</title>
<path fill="none" stroke="#191970" d="M414.0312,-109.7655C365.7002,-97.0401 294.1331,-84.8194 234,-101.5 204.0517,-109.8075 174.0792,-130.1695 155.6653,-144.4073"/>
<polygon fill="#191970" stroke="#191970" points="413.4108,-113.2241 423.9794,-112.4784 415.2526,-106.4707 413.4108,-113.2241"/>
</g>
<!-- Node13&#45;&gt;Node13 -->
<g id="edge3" class="edge">
<title>Node13&#45;&gt;Node13</title>
<path fill="none" stroke="#191970" d="M158.1118,-318.9579C155.5536,-323.679 148.683,-327 137.5,-327 119.1484,-327 112.41,-318.0566 117.2846,-308.659"/>
<polygon fill="#191970" stroke="#191970" points="161.5975,-318.517 157.7154,-308.659 154.6027,-318.7863 161.5975,-318.517"/>
</g>
<!-- Node14 -->
<g id="node4" class="node">
<title>Node14</title>
<g id="a_node4"><a xlink:href="../../de/d64/Hydrogen_8cpp.html#a0ddf1224851353fc92bfbff6f499fa97" target="_top" xlink:title=" ">
<polygon fill="none" stroke="#000000" points="0,-183 0,-202 41,-202 41,-183 0,-183"/>
<text text-anchor="middle" x="20.5" y="-190" font-family="Helvetica,sans-Serif" font-size="10.00" fill="#000000">main</text>
</a>
</g>
</g>
<!-- Node13&#45;&gt;Node14 -->
<g id="edge4" class="edge">
<title>Node13&#45;&gt;Node14</title>
<path fill="none" stroke="#191970" d="M82.5827,-273.4213C80.6492,-272.1814 78.7801,-270.875 77,-269.5 52.462,-250.5458 33.625,-218.1965 25.2532,-202.1352"/>
<polygon fill="#191970" stroke="#191970" points="80.9741,-276.533 91.3959,-278.4403 84.4382,-270.4502 80.9741,-276.533"/>
</g>
<!-- Node15&#45;&gt;Node14 -->
<g id="edge7" class="edge">
<title>Node15&#45;&gt;Node14</title>
<path fill="none" stroke="#191970" d="M76.173,-208.6785C63.5232,-205.0025 51.0501,-201.3778 41.1269,-198.4942"/>
<polygon fill="#191970" stroke="#191970" points="75.262,-212.0585 85.8415,-211.4881 77.2155,-205.3366 75.262,-212.0585"/>
</g>
<!-- Node15&#45;&gt;Node15 -->
<g id="edge6" class="edge">
<title>Node15&#45;&gt;Node15</title>
<path fill="none" stroke="#191970" d="M158.1118,-251.9579C155.5536,-256.679 148.683,-260 137.5,-260 119.1484,-260 112.41,-251.0566 117.2846,-241.659"/>
<polygon fill="#191970" stroke="#191970" points="161.5975,-251.517 157.7154,-241.659 154.6027,-251.7863 161.5975,-251.517"/>
</g>
<!-- Node16&#45;&gt;Node14 -->
<g id="edge11" class="edge">
<title>Node16&#45;&gt;Node14</title>
<path fill="none" stroke="#191970" d="M258.0055,-34.6532C210.5094,-55.7491 135.0019,-92.4498 77,-135.5 57.7558,-149.7835 38.866,-170.6042 28.5415,-182.73"/>
<polygon fill="#191970" stroke="#191970" points="259.6632,-37.7477 267.4082,-30.5183 256.8453,-31.3399 259.6632,-37.7477"/>
</g>
<!-- Node16&#45;&gt;Node16 -->
<g id="edge10" class="edge">
<title>Node16&#45;&gt;Node16</title>
<path fill="none" stroke="#191970" d="M332.9962,-40.9579C329.3353,-45.679 319.5032,-49 303.5,-49 277.2383,-49 267.5953,-40.0566 274.5711,-30.659"/>
<polygon fill="#191970" stroke="#191970" points="336.4737,-40.4513 332.4289,-30.659 329.4843,-40.8364 336.4737,-40.4513"/>
</g>
<!-- Node17&#45;&gt;Node13 -->
<g id="edge13" class="edge">
<title>Node17&#45;&gt;Node13</title>
<path fill="none" stroke="#191970" d="M262.7078,-179.8248C252.5314,-186.1504 242.1963,-193.7878 234,-202.5 210.8371,-227.121 223.2417,-247.0151 198,-269.5 194.2031,-272.8822 189.8716,-275.817 185.3109,-278.357"/>
<polygon fill="#191970" stroke="#191970" points="264.716,-182.7038 271.5521,-174.6095 261.1604,-176.6741 264.716,-182.7038"/>
</g>
<!-- Node17&#45;&gt;Node15 -->
<g id="edge14" class="edge">
<title>Node17&#45;&gt;Node15</title>
<path fill="none" stroke="#191970" d="M257.5512,-178.337C239.0629,-185.8879 217.5335,-194.645 198,-202.5 190.7662,-205.4089 183.0367,-208.4933 175.6042,-211.4472"/>
<polygon fill="#191970" stroke="#191970" points="258.9832,-181.5329 266.9156,-174.5095 256.3347,-175.0532 258.9832,-181.5329"/>
</g>
<!-- Node17&#45;&gt;Node17 -->
<g id="edge15" class="edge">
<title>Node17&#45;&gt;Node17</title>
<path fill="none" stroke="#191970" d="M332.9962,-184.9579C329.3353,-189.679 319.5032,-193 303.5,-193 277.2383,-193 267.5953,-184.0566 274.5711,-174.659"/>
<polygon fill="#191970" stroke="#191970" points="336.4737,-184.4513 332.4289,-174.659 329.4843,-184.8364 336.4737,-184.4513"/>
</g>
<!-- Node17&#45;&gt;Node18 -->
<g id="edge16" class="edge">
<title>Node17&#45;&gt;Node18</title>
<path fill="none" stroke="#191970" d="M232.6287,-159.5C221.1286,-159.5 209.311,-159.5 198.0849,-159.5"/>
<polygon fill="#191970" stroke="#191970" points="232.6304,-163.0001 242.6303,-159.5 232.6303,-156.0001 232.6304,-163.0001"/>
</g>
<!-- Node18&#45;&gt;Node14 -->
<g id="edge17" class="edge">
<title>Node18&#45;&gt;Node14</title>
<path fill="none" stroke="#191970" d="M74.4251,-177.2903C62.3374,-180.6997 50.5117,-184.0352 41.0294,-186.7096"/>
<polygon fill="#191970" stroke="#191970" points="75.4614,-180.6347 84.1357,-174.5515 73.5611,-173.8976 75.4614,-180.6347"/>
</g>
<!-- Node18&#45;&gt;Node18 -->
<g id="edge18" class="edge">
<title>Node18&#45;&gt;Node18</title>
<path fill="none" stroke="#191970" d="M158.1118,-184.9579C155.5536,-189.679 148.683,-193 137.5,-193 119.1484,-193 112.41,-184.0566 117.2846,-174.659"/>
<polygon fill="#191970" stroke="#191970" points="161.5975,-184.517 157.7154,-174.659 154.6027,-184.7863 161.5975,-184.517"/>
</g>
<!-- Node19&#45;&gt;Node13 -->
<g id="edge22" class="edge">
<title>Node19&#45;&gt;Node13</title>
<path fill="none" stroke="#191970" d="M223.9497,-293.5C215.2959,-293.5 206.5921,-293.5 198.2153,-293.5"/>
<polygon fill="#191970" stroke="#191970" points="224.0629,-297.0001 234.0629,-293.5 224.0629,-290.0001 224.0629,-297.0001"/>
</g>
<!-- Node19&#45;&gt;Node15 -->
<g id="edge23" class="edge">
<title>Node19&#45;&gt;Node15</title>
<path fill="none" stroke="#191970" d="M248.5579,-275.024C243.6149,-273.2121 238.7033,-271.3559 234,-269.5 212.1617,-260.8826 188.0367,-250.1326 169.3713,-241.5369"/>
<polygon fill="#191970" stroke="#191970" points="247.461,-278.3489 258.0555,-278.4421 249.8315,-271.7625 247.461,-278.3489"/>
</g>
<!-- Node19&#45;&gt;Node18 -->
<g id="edge25" class="edge">
<title>Node19&#45;&gt;Node18</title>
<path fill="none" stroke="#191970" d="M238.2788,-272.8338C236.7999,-271.7764 235.3701,-270.666 234,-269.5 208.2571,-247.5906 220.3654,-227.8477 198,-202.5 188.3659,-191.5813 175.4492,-181.9236 164.0248,-174.5412"/>
<polygon fill="#191970" stroke="#191970" points="236.8592,-276.0696 247.2107,-278.3274 240.5265,-270.1071 236.8592,-276.0696"/>
</g>
<!-- Node19&#45;&gt;Node19 -->
<g id="edge24" class="edge">
<title>Node19&#45;&gt;Node19</title>
<path fill="none" stroke="#191970" d="M332.9962,-318.9579C329.3353,-323.679 319.5032,-327 303.5,-327 277.2383,-327 267.5953,-318.0566 274.5711,-308.659"/>
<polygon fill="#191970" stroke="#191970" points="336.4737,-318.4513 332.4289,-308.659 329.4843,-318.8364 336.4737,-318.4513"/>
</g>
<!-- Node20&#45;&gt;Node13 -->
<g id="edge27" class="edge">
<title>Node20&#45;&gt;Node13</title>
<path fill="none" stroke="#191970" d="M257.5512,-245.337C239.0629,-252.8879 217.5335,-261.645 198,-269.5 190.7662,-272.4089 183.0367,-275.4933 175.6042,-278.4472"/>
<polygon fill="#191970" stroke="#191970" points="258.9832,-248.5329 266.9156,-241.5095 256.3347,-242.0532 258.9832,-248.5329"/>
</g>
<!-- Node20&#45;&gt;Node15 -->
<g id="edge28" class="edge">
<title>Node20&#45;&gt;Node15</title>
<path fill="none" stroke="#191970" d="M223.575,-226.5C215.0147,-226.5 206.4108,-226.5 198.128,-226.5"/>
<polygon fill="#191970" stroke="#191970" points="223.5822,-230.0001 233.5822,-226.5 223.5821,-223.0001 223.5822,-230.0001"/>
</g>
<!-- Node20&#45;&gt;Node18 -->
<g id="edge30" class="edge">
<title>Node20&#45;&gt;Node18</title>
<path fill="none" stroke="#191970" d="M248.5579,-208.024C243.6149,-206.2121 238.7033,-204.3559 234,-202.5 212.1617,-193.8826 188.0367,-183.1326 169.3713,-174.5369"/>
<polygon fill="#191970" stroke="#191970" points="247.461,-211.3489 258.0555,-211.4421 249.8315,-204.7625 247.461,-211.3489"/>
</g>
<!-- Node20&#45;&gt;Node20 -->
<g id="edge29" class="edge">
<title>Node20&#45;&gt;Node20</title>
<path fill="none" stroke="#191970" d="M332.9962,-251.9579C329.3353,-256.679 319.5032,-260 303.5,-260 277.2383,-260 267.5953,-251.0566 274.5711,-241.659"/>
<polygon fill="#191970" stroke="#191970" points="336.4737,-251.4513 332.4289,-241.659 329.4843,-251.8364 336.4737,-251.4513"/>
</g>
</g>
</svg>
        <g id="navigator" transform="translate(0 0)" fill="#404254">
                <rect fill="#f2f5e9" fill-opacity="0.5" stroke="#606060" stroke-width=".5" x="0" y="0" width="60" height="60"/>
                <use id="zoomplus" xlink:href="#zoomPlus" x="17" y="9" onmousedown="handleZoom(evt,'in')"/>
                <use id="zoomminus" xlink:href="#zoomMin" x="42" y="9" onmousedown="handleZoom(evt,'out')"/>
                <use id="reset" xlink:href="#resetDef" x="30" y="36" onmousedown="handleReset()"/>
                <g id="arrowUp" xlink:href="#dirArrow" transform="translate(30 24)" onmousedown="handlePan(0,-1)">
                  <use xlink:href="#rim" fill="#404040">
                        <set attributeName="fill" to="#808080" begin="arrowUp.mouseover" end="arrowUp.mouseout"/>
                  </use>
                  <path fill="none" stroke="white" stroke-width="1.5" d="M0,-3.0v7 M-2.5,-0.5L0,-3.0L2.5,-0.5"/>
                </g>
                <g id="arrowRight" xlink:href="#dirArrow" transform="rotate(90) translate(36 -43)" onmousedown="handlePan(1,0)">
                  <use xlink:href="#rim" fill="#404040">
                        <set attributeName="fill" to="#808080" begin="arrowRight.mouseover" end="arrowRight.mouseout"/>
                  </use>
                  <path fill="none" stroke="white" stroke-width="1.5" d="M0,-3.0v7 M-2.5,-0.5L0,-3.0L2.5,-0.5"/>
                </g>
                <g id="arrowDown" xlink:href="#dirArrow" transform="rotate(180) translate(-30 -48)" onmousedown="handlePan(0,1)">
                  <use xlink:href="#rim" fill="#404040">
                        <set attributeName="fill" to="#808080" begin="arrowDown.mouseover" end="arrowDown.mouseout"/>
                  </use>
                  <path fill="none" stroke="white" stroke-width="1.5" d="M0,-3.0v7 M-2.5,-0.5L0,-3.0L2.5,-0.5"/>
                </g>
                <g id="arrowLeft" xlink:href="#dirArrow" transform="rotate(270) translate(-36 17)" onmousedown="handlePan(-1,0)">
                  <use xlink:href="#rim" fill="#404040">
                        <set attributeName="fill" to="#808080" begin="arrowLeft.mouseover" end="arrowLeft.mouseout"/>
                  </use>
                  <path fill="none" stroke="white" stroke-width="1.5" d="M0,-3.0v7 M-2.5,-0.5L0,-3.0L2.5,-0.5"/>
                </g>
        </g>
        <svg viewBox="0 0 15 15" width="100%" height="30px" preserveAspectRatio="xMaxYMin meet">
         <g id="arrow_out" transform="scale(0.3 0.3)">
          <a xlink:href="classhydrogen__framework_1_1Graph__Instruction_a56b37c9df4d67cf2dba65a843f792d03_icgraph_org.svg" target="_base">
           <rect id="button" ry="5" rx="5" y="6" x="6" height="38" width="38"
                fill="#f2f5e9" fill-opacity="0.5" stroke="#606060" stroke-width="1.0"/>
           <path id="arrow"
             d="M 11.500037,31.436501 C 11.940474,20.09759 22.043105,11.32322 32.158766,21.979434 L 37.068811,17.246167 C 37.068811,17.246167 37.088388,32 37.088388,32 L 22.160133,31.978069 C 22.160133,31.978069 26.997745,27.140456 26.997745,27.140456 C 18.528582,18.264221 13.291696,25.230495 11.500037,31.436501 z"
             style="fill:#404040;"/>
          </a>
         </g>
        </svg>
</svg>
