<?xml version="1.0" encoding="UTF-8" standalone="no"?>
<!DOCTYPE svg PUBLIC "-//W3C//DTD SVG 1.1//EN"
 "http://www.w3.org/Graphics/SVG/1.1/DTD/svg11.dtd">
<!-- Generated by graphviz version 2.40.1 (20161225.0304)
 -->
<!-- Title: hydrogen_framework::Graph_Instruction::getInstructionPtr Pages: 1 -->
<svg width="572pt" height="68pt"
 viewBox="0.00 0.00 572.00 68.00" xmlns="http://www.w3.org/2000/svg" xmlns:xlink="http://www.w3.org/1999/xlink">
<g id="graph0" class="graph" transform="scale(1 1) rotate(0) translate(4 64)">
<title>hydrogen_framework::Graph_Instruction::getInstructionPtr</title>
<!-- Node30 -->
<g id="node1" class="node">
<title>Node30</title>
<g id="a_node1"><a xlink:title=" ">
<polygon fill="#bfbfbf" stroke="#000000" points="443,-.5 443,-41.5 564,-41.5 564,-.5 443,-.5"/>
<text text-anchor="start" x="451" y="-29.5" font-family="Helvetica,sans-Serif" font-size="10.00" fill="#000000">hydrogen_framework</text>
<text text-anchor="start" x="451" y="-18.5" font-family="Helvetica,sans-Serif" font-size="10.00" fill="#000000">::Graph_Instruction</text>
<text text-anchor="middle" x="503.5" y="-7.5" font-family="Helvetica,sans-Serif" font-size="10.00" fill="#000000">::getInstructionPtr</text>
</a>
</g>
</g>
<!-- Node31 -->
<g id="node2" class="node">
<title>Node31</title>
<g id="a_node2"><a xlink:href="../../db/d17/MVICFG_8cpp.html#ae8aa13258ce9819a72598738dcf54fb2" target="_top" xlink:title=" ">
<polygon fill="none" stroke="#000000" points="252,-.5 252,-41.5 407,-41.5 407,-.5 252,-.5"/>
<text text-anchor="start" x="260" y="-29.5" font-family="Helvetica,sans-Serif" font-size="10.00" fill="#000000">hydrogen_framework</text>
<text text-anchor="start" x="260" y="-18.5" font-family="Helvetica,sans-Serif" font-size="10.00" fill="#000000">::getMatchedInstructionFrom</text>
<text text-anchor="middle" x="329.5" y="-7.5" font-family="Helvetica,sans-Serif" font-size="10.00" fill="#000000">Graph</text>
</a>
</g>
</g>
<!-- Node30&#45;&gt;Node31 -->
<g id="edge1" class="edge">
<title>Node30&#45;&gt;Node31</title>
<path fill="none" stroke="#191970" d="M432.5544,-21C424.1819,-21 415.6039,-21 407.1452,-21"/>
<polygon fill="#191970" stroke="#191970" points="432.6433,-24.5001 442.6432,-21 432.6432,-17.5001 432.6433,-24.5001"/>
</g>
<!-- Node31&#45;&gt;Node31 -->
<g id="edge5" class="edge">
<title>Node31&#45;&gt;Node31</title>
<path fill="none" stroke="#191970" d="M359.4357,-51.8561C354.9839,-56.6966 345.0054,-60 329.5,-60 304.6914,-60 294.0315,-51.5433 297.5202,-41.8644"/>
<polygon fill="#191970" stroke="#191970" points="362.9044,-52.363 361.4798,-41.8644 356.0464,-50.9599 362.9044,-52.363"/>
</g>
<!-- Node32 -->
<g id="node3" class="node">
<title>Node32</title>
<g id="a_node3"><a xlink:href="../../db/d17/MVICFG_8cpp.html#a8f5c2085a43bf3b517575d9db43e4b92" target="_top" xlink:title=" ">
<polygon fill="none" stroke="#000000" points="77,-6 77,-36 216,-36 216,-6 77,-6"/>
<text text-anchor="start" x="85" y="-24" font-family="Helvetica,sans-Serif" font-size="10.00" fill="#000000">hydrogen_framework</text>
<text text-anchor="middle" x="146.5" y="-13" font-family="Helvetica,sans-Serif" font-size="10.00" fill="#000000">::getEdgesForAddedLines</text>
</a>
</g>
</g>
<!-- Node31&#45;&gt;Node32 -->
<g id="edge2" class="edge">
<title>Node31&#45;&gt;Node32</title>
<path fill="none" stroke="#191970" d="M241.8063,-21C233.1818,-21 224.5121,-21 216.1045,-21"/>
<polygon fill="#191970" stroke="#191970" points="241.8916,-24.5001 251.8915,-21 241.8915,-17.5001 241.8916,-24.5001"/>
</g>
<!-- Node32&#45;&gt;Node32 -->
<g id="edge3" class="edge">
<title>Node32&#45;&gt;Node32</title>
<path fill="none" stroke="#191970" d="M168.8887,-46.4579C166.1099,-51.179 158.647,-54.5 146.5,-54.5 126.5664,-54.5 119.247,-45.5566 124.5419,-36.159"/>
<polygon fill="#191970" stroke="#191970" points="172.3729,-46.004 168.4581,-36.159 165.379,-46.2965 172.3729,-46.004"/>
</g>
<!-- Node33 -->
<g id="node4" class="node">
<title>Node33</title>
<g id="a_node4"><a xlink:href="../../de/d64/Hydrogen_8cpp.html#a0ddf1224851353fc92bfbff6f499fa97" target="_top" xlink:title=" ">
<polygon fill="none" stroke="#000000" points="0,-11.5 0,-30.5 41,-30.5 41,-11.5 0,-11.5"/>
<text text-anchor="middle" x="20.5" y="-18.5" font-family="Helvetica,sans-Serif" font-size="10.00" fill="#000000">main</text>
</a>
</g>
</g>
<!-- Node32&#45;&gt;Node33 -->
<g id="edge4" class="edge">
<title>Node32&#45;&gt;Node33</title>
<path fill="none" stroke="#191970" d="M66.8582,-21C57.4037,-21 48.4878,-21 41.0487,-21"/>
<polygon fill="#191970" stroke="#191970" points="66.8665,-24.5001 76.8664,-21 66.8664,-17.5001 66.8665,-24.5001"/>
</g>
</g>
</svg>
