<?xml version="1.0" encoding="UTF-8" standalone="no"?>
<!DOCTYPE svg PUBLIC "-//W3C//DTD SVG 1.1//EN"
 "http://www.w3.org/Graphics/SVG/1.1/DTD/svg11.dtd">
<!-- Generated by graphviz version 2.40.1 (20161225.0304)
 -->
<!-- Title: hydrogen_framework::Graph_Instruction::pushEdgeInstruction Pages: 1 -->
<svg width="739pt" height="335pt"
 viewBox="0.00 0.00 739.00 335.00" xmlns="http://www.w3.org/2000/svg" xmlns:xlink="http://www.w3.org/1999/xlink">
<g id="graph0" class="graph" transform="scale(1 1) rotate(0) translate(4 331)">
<title>hydrogen_framework::Graph_Instruction::pushEdgeInstruction</title>
<!-- Node39 -->
<g id="node1" class="node">
<title>Node39</title>
<g id="a_node1"><a xlink:title=" ">
<polygon fill="#bfbfbf" stroke="#000000" points="609,-144 609,-185 731,-185 731,-144 609,-144"/>
<text text-anchor="start" x="617" y="-173" font-family="Helvetica,sans-Serif" font-size="10.00" fill="#000000">hydrogen_framework</text>
<text text-anchor="start" x="617" y="-162" font-family="Helvetica,sans-Serif" font-size="10.00" fill="#000000">::Graph_Instruction</text>
<text text-anchor="middle" x="670" y="-151" font-family="Helvetica,sans-Serif" font-size="10.00" fill="#000000">::pushEdgeInstruction</text>
</a>
</g>
</g>
<!-- Node40 -->
<g id="node2" class="node">
<title>Node40</title>
<g id="a_node2"><a xlink:href="../../d4/d7a/classhydrogen__framework_1_1Graph.html#ab2ca1cb2b3ca08c12139e86389d34038" target="_top" xlink:title=" ">
<polygon fill="none" stroke="#000000" points="452,-149.5 452,-179.5 573,-179.5 573,-149.5 452,-149.5"/>
<text text-anchor="start" x="460" y="-167.5" font-family="Helvetica,sans-Serif" font-size="10.00" fill="#000000">hydrogen_framework</text>
<text text-anchor="middle" x="512.5" y="-156.5" font-family="Helvetica,sans-Serif" font-size="10.00" fill="#000000">::Graph::addEdge</text>
</a>
</g>
</g>
<!-- Node39&#45;&gt;Node40 -->
<g id="edge1" class="edge">
<title>Node39&#45;&gt;Node40</title>
<path fill="none" stroke="#191970" d="M598.4357,-164.5C589.9905,-164.5 581.4341,-164.5 573.1595,-164.5"/>
<polygon fill="#191970" stroke="#191970" points="598.6554,-168.0001 608.6554,-164.5 598.6554,-161.0001 598.6554,-168.0001"/>
</g>
<!-- Node41 -->
<g id="node3" class="node">
<title>Node41</title>
<g id="a_node3"><a xlink:href="../../d4/d7a/classhydrogen__framework_1_1Graph.html#a2cd351ee3a6bc8b413c57d2d3601e777" target="_top" xlink:title=" ">
<polygon fill="none" stroke="#000000" points="264.5,-296.5 264.5,-326.5 403.5,-326.5 403.5,-296.5 264.5,-296.5"/>
<text text-anchor="start" x="272.5" y="-314.5" font-family="Helvetica,sans-Serif" font-size="10.00" fill="#000000">hydrogen_framework</text>
<text text-anchor="middle" x="334" y="-303.5" font-family="Helvetica,sans-Serif" font-size="10.00" fill="#000000">::Graph::addBranchEdges</text>
</a>
</g>
</g>
<!-- Node40&#45;&gt;Node41 -->
<g id="edge2" class="edge">
<title>Node40&#45;&gt;Node41</title>
<path fill="none" stroke="#191970" d="M499.5651,-188.9627C483.579,-216.8614 453.7973,-261.9104 416,-287.5 410.9639,-290.9095 405.4377,-293.8425 399.7075,-296.3642"/>
<polygon fill="#191970" stroke="#191970" points="502.822,-190.3084 504.6348,-179.8698 496.7081,-186.8996 502.822,-190.3084"/>
</g>
<!-- Node44 -->
<g id="node6" class="node">
<title>Node44</title>
<g id="a_node6"><a xlink:href="../../d4/d7a/classhydrogen__framework_1_1Graph.html#a37c8344541a9008ee43ce284f28539ae" target="_top" xlink:title=" ">
<polygon fill="none" stroke="#000000" points="252,-247.5 252,-277.5 416,-277.5 416,-247.5 252,-247.5"/>
<text text-anchor="start" x="260" y="-265.5" font-family="Helvetica,sans-Serif" font-size="10.00" fill="#000000">hydrogen_framework</text>
<text text-anchor="middle" x="334" y="-254.5" font-family="Helvetica,sans-Serif" font-size="10.00" fill="#000000">::Graph::addFunctionCallEdges</text>
</a>
</g>
</g>
<!-- Node40&#45;&gt;Node44 -->
<g id="edge6" class="edge">
<title>Node40&#45;&gt;Node44</title>
<path fill="none" stroke="#191970" d="M489.0505,-186.4962C470.4836,-202.8699 443.2259,-224.6886 416,-238.5 409.3857,-241.8553 402.2271,-244.8155 394.9891,-247.4069"/>
<polygon fill="#191970" stroke="#191970" points="491.5947,-188.9155 496.694,-179.6286 486.9163,-183.7086 491.5947,-188.9155"/>
</g>
<!-- Node45 -->
<g id="node7" class="node">
<title>Node45</title>
<g id="a_node7"><a xlink:href="../../d4/d7a/classhydrogen__framework_1_1Graph.html#a184878f1c0abbef7b5fb17548cb8d146" target="_top" xlink:title=" ">
<polygon fill="none" stroke="#000000" points="272.5,-198.5 272.5,-228.5 395.5,-228.5 395.5,-198.5 272.5,-198.5"/>
<text text-anchor="start" x="280.5" y="-216.5" font-family="Helvetica,sans-Serif" font-size="10.00" fill="#000000">hydrogen_framework</text>
<text text-anchor="middle" x="334" y="-205.5" font-family="Helvetica,sans-Serif" font-size="10.00" fill="#000000">::Graph::addSeqEdges</text>
</a>
</g>
</g>
<!-- Node40&#45;&gt;Node45 -->
<g id="edge8" class="edge">
<title>Node40&#45;&gt;Node45</title>
<path fill="none" stroke="#191970" d="M447.5797,-182.3212C428.3071,-187.6118 407.3957,-193.3522 388.8307,-198.4484"/>
<polygon fill="#191970" stroke="#191970" points="448.7709,-185.6238 457.4876,-179.6014 446.9178,-178.8735 448.7709,-185.6238"/>
</g>
<!-- Node46 -->
<g id="node8" class="node">
<title>Node46</title>
<g id="a_node8"><a xlink:href="../../db/d17/MVICFG_8cpp.html#a40d68c502d0833e919395ded787b4599" target="_top" xlink:title=" ">
<polygon fill="none" stroke="#000000" points="86,-134.5 86,-164.5 207,-164.5 207,-134.5 86,-134.5"/>
<text text-anchor="start" x="94" y="-152.5" font-family="Helvetica,sans-Serif" font-size="10.00" fill="#000000">hydrogen_framework</text>
<text text-anchor="middle" x="146.5" y="-141.5" font-family="Helvetica,sans-Serif" font-size="10.00" fill="#000000">::addToMVICFG</text>
</a>
</g>
</g>
<!-- Node40&#45;&gt;Node46 -->
<g id="edge10" class="edge">
<title>Node40&#45;&gt;Node46</title>
<path fill="none" stroke="#191970" d="M454.4744,-146.9358C441.9031,-143.8446 428.5982,-141.1054 416,-139.5 344.7072,-130.4151 262.0164,-135.8203 207.2282,-141.6051"/>
<polygon fill="#191970" stroke="#191970" points="453.8154,-150.38 464.3715,-149.4753 455.5552,-143.5996 453.8154,-150.38"/>
</g>
<!-- Node47 -->
<g id="node9" class="node">
<title>Node47</title>
<g id="a_node9"><a xlink:href="../../d4/d7a/classhydrogen__framework_1_1Graph.html#a2baf6364fa45c8574b581fe8c6df79c6" target="_top" xlink:title=" ">
<polygon fill="none" stroke="#000000" points="264.5,-149.5 264.5,-179.5 403.5,-179.5 403.5,-149.5 264.5,-149.5"/>
<text text-anchor="start" x="272.5" y="-167.5" font-family="Helvetica,sans-Serif" font-size="10.00" fill="#000000">hydrogen_framework</text>
<text text-anchor="middle" x="334" y="-156.5" font-family="Helvetica,sans-Serif" font-size="10.00" fill="#000000">::Graph::addVirtualNodes</text>
</a>
</g>
</g>
<!-- Node40&#45;&gt;Node47 -->
<g id="edge13" class="edge">
<title>Node40&#45;&gt;Node47</title>
<path fill="none" stroke="#191970" d="M441.27,-164.5C428.8457,-164.5 415.9353,-164.5 403.5568,-164.5"/>
<polygon fill="#191970" stroke="#191970" points="441.5697,-168.0001 451.5697,-164.5 441.5696,-161.0001 441.5697,-168.0001"/>
</g>
<!-- Node48 -->
<g id="node10" class="node">
<title>Node48</title>
<g id="a_node10"><a xlink:href="../../db/d17/MVICFG_8cpp.html#ac6a97f6b1392ad5517822076e830168f" target="_top" xlink:title=" ">
<polygon fill="none" stroke="#000000" points="86,-67.5 86,-97.5 207,-97.5 207,-67.5 86,-67.5"/>
<text text-anchor="start" x="94" y="-85.5" font-family="Helvetica,sans-Serif" font-size="10.00" fill="#000000">hydrogen_framework</text>
<text text-anchor="middle" x="146.5" y="-74.5" font-family="Helvetica,sans-Serif" font-size="10.00" fill="#000000">::deleteFromMVICFG</text>
</a>
</g>
</g>
<!-- Node40&#45;&gt;Node48 -->
<g id="edge15" class="edge">
<title>Node40&#45;&gt;Node48</title>
<path fill="none" stroke="#191970" d="M463.3716,-146.1133C448.3136,-140.9089 431.6021,-135.5617 416,-131.5 345.1271,-113.0496 261.9972,-99.0653 207.0043,-90.8507"/>
<polygon fill="#191970" stroke="#191970" points="462.4049,-149.4833 472.9997,-149.4977 464.7263,-142.8795 462.4049,-149.4833"/>
</g>
<!-- Node49 -->
<g id="node11" class="node">
<title>Node49</title>
<g id="a_node11"><a xlink:href="../../db/d17/MVICFG_8cpp.html#a8f5c2085a43bf3b517575d9db43e4b92" target="_top" xlink:title=" ">
<polygon fill="none" stroke="#000000" points="77,-.5 77,-30.5 216,-30.5 216,-.5 77,-.5"/>
<text text-anchor="start" x="85" y="-18.5" font-family="Helvetica,sans-Serif" font-size="10.00" fill="#000000">hydrogen_framework</text>
<text text-anchor="middle" x="146.5" y="-7.5" font-family="Helvetica,sans-Serif" font-size="10.00" fill="#000000">::getEdgesForAddedLines</text>
</a>
</g>
</g>
<!-- Node40&#45;&gt;Node49 -->
<g id="edge18" class="edge">
<title>Node40&#45;&gt;Node49</title>
<path fill="none" stroke="#191970" d="M487.4164,-142.9958C468.7585,-127.9221 442.1115,-108.2634 416,-95.5 351.4336,-63.9398 271.9798,-42.2181 216.1267,-29.4586"/>
<polygon fill="#191970" stroke="#191970" points="485.199,-145.7038 495.147,-149.3493 489.6436,-140.2959 485.199,-145.7038"/>
</g>
<!-- Node42 -->
<g id="node4" class="node">
<title>Node42</title>
<g id="a_node4"><a xlink:href="../../db/d17/MVICFG_8cpp.html#a8abab0f2232beace9b14c3c7dfa368dd" target="_top" xlink:title=" ">
<polygon fill="none" stroke="#000000" points="86,-201.5 86,-231.5 207,-231.5 207,-201.5 86,-201.5"/>
<text text-anchor="start" x="94" y="-219.5" font-family="Helvetica,sans-Serif" font-size="10.00" fill="#000000">hydrogen_framework</text>
<text text-anchor="middle" x="146.5" y="-208.5" font-family="Helvetica,sans-Serif" font-size="10.00" fill="#000000">::buildICFG</text>
</a>
</g>
</g>
<!-- Node41&#45;&gt;Node42 -->
<g id="edge3" class="edge">
<title>Node41&#45;&gt;Node42</title>
<path fill="none" stroke="#191970" d="M264.8095,-292.9359C260.4195,-291.2417 256.1149,-289.4299 252,-287.5 219.4191,-272.2193 185.5571,-247.6135 165.2541,-231.7524"/>
<polygon fill="#191970" stroke="#191970" points="263.9214,-296.3369 274.5156,-296.4574 266.3089,-289.7566 263.9214,-296.3369"/>
</g>
<!-- Node42&#45;&gt;Node42 -->
<g id="edge4" class="edge">
<title>Node42&#45;&gt;Node42</title>
<path fill="none" stroke="#191970" d="M168.8887,-241.9579C166.1099,-246.679 158.647,-250 146.5,-250 126.5664,-250 119.247,-241.0566 124.5419,-231.659"/>
<polygon fill="#191970" stroke="#191970" points="172.3729,-241.504 168.4581,-231.659 165.379,-241.7965 172.3729,-241.504"/>
</g>
<!-- Node43 -->
<g id="node5" class="node">
<title>Node43</title>
<g id="a_node5"><a xlink:href="../../de/d64/Hydrogen_8cpp.html#a0ddf1224851353fc92bfbff6f499fa97" target="_top" xlink:title=" ">
<polygon fill="none" stroke="#000000" points="0,-106 0,-125 41,-125 41,-106 0,-106"/>
<text text-anchor="middle" x="20.5" y="-113" font-family="Helvetica,sans-Serif" font-size="10.00" fill="#000000">main</text>
</a>
</g>
</g>
<!-- Node42&#45;&gt;Node43 -->
<g id="edge5" class="edge">
<title>Node42&#45;&gt;Node43</title>
<path fill="none" stroke="#191970" d="M84.8814,-196.6801C82.1379,-195.0749 79.4939,-193.3506 77,-191.5 52.3105,-173.1785 33.5433,-141.0712 25.2202,-125.0943"/>
<polygon fill="#191970" stroke="#191970" points="83.4367,-199.8743 93.9196,-201.4104 86.6827,-193.6724 83.4367,-199.8743"/>
</g>
<!-- Node44&#45;&gt;Node42 -->
<g id="edge7" class="edge">
<title>Node44&#45;&gt;Node42</title>
<path fill="none" stroke="#191970" d="M262.8347,-245.0408C244.4587,-240.5325 224.8517,-235.7223 207.0725,-231.3604"/>
<polygon fill="#191970" stroke="#191970" points="262.0595,-248.4543 272.6055,-247.4379 263.7275,-241.6559 262.0595,-248.4543"/>
</g>
<!-- Node45&#45;&gt;Node42 -->
<g id="edge9" class="edge">
<title>Node45&#45;&gt;Node42</title>
<path fill="none" stroke="#191970" d="M262.1278,-214.65C244.0117,-214.9398 224.7412,-215.2481 207.2322,-215.5283"/>
<polygon fill="#191970" stroke="#191970" points="262.4031,-218.1461 272.3458,-214.4865 262.291,-211.147 262.4031,-218.1461"/>
</g>
<!-- Node46&#45;&gt;Node43 -->
<g id="edge12" class="edge">
<title>Node46&#45;&gt;Node43</title>
<path fill="none" stroke="#191970" d="M80.8842,-131.7942C66.452,-127.8997 52.203,-124.0548 41.1741,-121.0787"/>
<polygon fill="#191970" stroke="#191970" points="80.3013,-135.262 90.8678,-134.4881 82.125,-128.5037 80.3013,-135.262"/>
</g>
<!-- Node46&#45;&gt;Node46 -->
<g id="edge11" class="edge">
<title>Node46&#45;&gt;Node46</title>
<path fill="none" stroke="#191970" d="M168.8887,-174.9579C166.1099,-179.679 158.647,-183 146.5,-183 126.5664,-183 119.247,-174.0566 124.5419,-164.659"/>
<polygon fill="#191970" stroke="#191970" points="172.3729,-174.504 168.4581,-164.659 165.379,-174.7965 172.3729,-174.504"/>
</g>
<!-- Node47&#45;&gt;Node42 -->
<g id="edge14" class="edge">
<title>Node47&#45;&gt;Node42</title>
<path fill="none" stroke="#191970" d="M269.9403,-182.2659C247.3824,-188.5219 222.2672,-195.4872 200.6109,-201.4932"/>
<polygon fill="#191970" stroke="#191970" points="271.0663,-185.5858 279.7672,-179.5406 269.1956,-178.8404 271.0663,-185.5858"/>
</g>
<!-- Node48&#45;&gt;Node43 -->
<g id="edge17" class="edge">
<title>Node48&#45;&gt;Node43</title>
<path fill="none" stroke="#191970" d="M78.9661,-100.1875C65.1623,-103.8027 51.6502,-107.3416 41.0992,-110.105"/>
<polygon fill="#191970" stroke="#191970" points="80.2438,-103.4709 89.0308,-97.5515 78.4703,-96.6993 80.2438,-103.4709"/>
</g>
<!-- Node48&#45;&gt;Node48 -->
<g id="edge16" class="edge">
<title>Node48&#45;&gt;Node48</title>
<path fill="none" stroke="#191970" d="M168.8887,-107.9579C166.1099,-112.679 158.647,-116 146.5,-116 126.5664,-116 119.247,-107.0566 124.5419,-97.659"/>
<polygon fill="#191970" stroke="#191970" points="172.3729,-107.504 168.4581,-97.659 165.379,-107.7965 172.3729,-107.504"/>
</g>
<!-- Node49&#45;&gt;Node43 -->
<g id="edge20" class="edge">
<title>Node49&#45;&gt;Node43</title>
<path fill="none" stroke="#191970" d="M109.2086,-35.6584C98.4371,-42.1033 86.9199,-49.6241 77,-57.5 58.0638,-72.5344 39.0681,-93.5485 28.641,-105.7202"/>
<polygon fill="#191970" stroke="#191970" points="111.1551,-38.575 118.0299,-30.5136 107.6284,-32.5283 111.1551,-38.575"/>
</g>
<!-- Node49&#45;&gt;Node49 -->
<g id="edge19" class="edge">
<title>Node49&#45;&gt;Node49</title>
<path fill="none" stroke="#191970" d="M168.8887,-40.9579C166.1099,-45.679 158.647,-49 146.5,-49 126.5664,-49 119.247,-40.0566 124.5419,-30.659"/>
<polygon fill="#191970" stroke="#191970" points="172.3729,-40.504 168.4581,-30.659 165.379,-40.7965 172.3729,-40.504"/>
</g>
</g>
</svg>
