<?xml version="1.0" encoding="UTF-8" standalone="no"?>
<!DOCTYPE svg PUBLIC "-//W3C//DTD SVG 1.1//EN"
 "http://www.w3.org/Graphics/SVG/1.1/DTD/svg11.dtd">
<!-- Generated by graphviz version 2.40.1 (20161225.0304)
 -->
<!-- Title: hydrogen_framework::Module Pages: 1 -->
<svg width="480pt" height="480pt"
 viewBox="0.00 0.00 480.00 480.00" xmlns="http://www.w3.org/2000/svg" xmlns:xlink="http://www.w3.org/1999/xlink">
<g id="graph0" class="graph" transform="scale(1 1) rotate(0) translate(4 476)">
<title>hydrogen_framework::Module</title>
<!-- Node1 -->
<g id="node1" class="node">
<title>Node1</title>
<g id="a_node1"><a xlink:title=" ">
<polygon fill="#bfbfbf" stroke="#000000" points="241.5,-.5 241.5,-134.5 362.5,-134.5 362.5,-.5 241.5,-.5"/>
<text text-anchor="start" x="249.5" y="-122.5" font-family="Helvetica,sans-Serif" font-size="10.00" fill="#000000">hydrogen_framework</text>
<text text-anchor="middle" x="302" y="-111.5" font-family="Helvetica,sans-Serif" font-size="10.00" fill="#000000">::Module</text>
<polyline fill="none" stroke="#000000" points="241.5,-104.5 362.5,-104.5 "/>
<text text-anchor="middle" x="302" y="-92.5" font-family="Helvetica,sans-Serif" font-size="10.00" fill="#000000"> </text>
<polyline fill="none" stroke="#000000" points="241.5,-85.5 362.5,-85.5 "/>
<text text-anchor="start" x="249.5" y="-73.5" font-family="Helvetica,sans-Serif" font-size="10.00" fill="#000000">+ Module()</text>
<text text-anchor="start" x="249.5" y="-62.5" font-family="Helvetica,sans-Serif" font-size="10.00" fill="#000000">+ ~Module()</text>
<text text-anchor="start" x="249.5" y="-51.5" font-family="Helvetica,sans-Serif" font-size="10.00" fill="#000000">+ getFiles()</text>
<text text-anchor="start" x="249.5" y="-40.5" font-family="Helvetica,sans-Serif" font-size="10.00" fill="#000000">+ getPtr()</text>
<text text-anchor="start" x="249.5" y="-29.5" font-family="Helvetica,sans-Serif" font-size="10.00" fill="#000000">+ getVersion()</text>
<text text-anchor="start" x="249.5" y="-18.5" font-family="Helvetica,sans-Serif" font-size="10.00" fill="#000000">+ setFiles()</text>
<text text-anchor="start" x="249.5" y="-7.5" font-family="Helvetica,sans-Serif" font-size="10.00" fill="#000000">+ setModule()</text>
</a>
</g>
</g>
<!-- Node2 -->
<g id="node2" class="node">
<title>Node2</title>
<g id="a_node2"><a xlink:title=" ">
<polygon fill="none" stroke="#bfbfbf" points="51,-182.5 51,-250.5 173,-250.5 173,-182.5 51,-182.5"/>
<text text-anchor="start" x="59" y="-238.5" font-family="Helvetica,sans-Serif" font-size="10.00" fill="#000000">std::unique_ptr&lt; llvm</text>
<text text-anchor="middle" x="112" y="-227.5" font-family="Helvetica,sans-Serif" font-size="10.00" fill="#000000">::Module &gt;</text>
<polyline fill="none" stroke="#bfbfbf" points="51,-220.5 173,-220.5 "/>
<text text-anchor="middle" x="112" y="-208.5" font-family="Helvetica,sans-Serif" font-size="10.00" fill="#000000"> </text>
<polyline fill="none" stroke="#bfbfbf" points="51,-201.5 173,-201.5 "/>
<text text-anchor="start" x="59" y="-189.5" font-family="Helvetica,sans-Serif" font-size="10.00" fill="#000000">+ operator&#45;&gt;()</text>
</a>
</g>
</g>
<!-- Node2&#45;&gt;Node1 -->
<g id="edge1" class="edge">
<title>Node2&#45;&gt;Node1</title>
<path fill="none" stroke="#404040" d="M155.5898,-182.3164C178.1283,-164.6415 206.1914,-142.6341 231.701,-122.6292"/>
<polygon fill="none" stroke="#404040" points="231.8932,-122.4785 234.1462,-115.6284 241.3359,-115.0734 239.0829,-121.9236 231.8932,-122.4785"/>
<text text-anchor="middle" x="211.5" y="-156" font-family="Helvetica,sans-Serif" font-size="10.00" fill="#000000"> &#45;modPtr</text>
</g>
<!-- Node3 -->
<g id="node3" class="node">
<title>Node3</title>
<g id="a_node3"><a xlink:title=" ">
<polygon fill="none" stroke="#bfbfbf" points="0,-298.5 0,-355.5 52,-355.5 52,-298.5 0,-298.5"/>
<text text-anchor="middle" x="26" y="-343.5" font-family="Helvetica,sans-Serif" font-size="10.00" fill="#000000">Module</text>
<polyline fill="none" stroke="#bfbfbf" points="0,-336.5 52,-336.5 "/>
<text text-anchor="middle" x="26" y="-324.5" font-family="Helvetica,sans-Serif" font-size="10.00" fill="#000000"> </text>
<polyline fill="none" stroke="#bfbfbf" points="0,-317.5 52,-317.5 "/>
<text text-anchor="middle" x="26" y="-305.5" font-family="Helvetica,sans-Serif" font-size="10.00" fill="#000000"> </text>
</a>
</g>
</g>
<!-- Node3&#45;&gt;Node2 -->
<g id="edge2" class="edge">
<title>Node3&#45;&gt;Node2</title>
<path fill="none" stroke="#404040" d="M48.371,-298.2559C57.4133,-286.6376 68.0506,-272.9699 78.0122,-260.1704"/>
<polygon fill="none" stroke="#404040" points="78.0903,-260.07 78.6188,-252.8783 85.4606,-250.6001 84.9321,-257.7918 78.0903,-260.07"/>
<text text-anchor="middle" x="81.5" y="-272" font-family="Helvetica,sans-Serif" font-size="10.00" fill="#000000"> +ptr</text>
</g>
<!-- Node4 -->
<g id="node4" class="node">
<title>Node4</title>
<g id="a_node4"><a xlink:title="STL class.">
<polygon fill="none" stroke="#bfbfbf" points="70,-298.5 70,-355.5 188,-355.5 188,-298.5 70,-298.5"/>
<text text-anchor="middle" x="129" y="-343.5" font-family="Helvetica,sans-Serif" font-size="10.00" fill="#000000">std::unique_ptr&lt; T &gt;</text>
<polyline fill="none" stroke="#bfbfbf" points="70,-336.5 188,-336.5 "/>
<text text-anchor="middle" x="129" y="-324.5" font-family="Helvetica,sans-Serif" font-size="10.00" fill="#000000"> </text>
<polyline fill="none" stroke="#bfbfbf" points="70,-317.5 188,-317.5 "/>
<text text-anchor="start" x="78" y="-305.5" font-family="Helvetica,sans-Serif" font-size="10.00" fill="#000000">+ operator&#45;&gt;()</text>
</a>
</g>
</g>
<!-- Node4&#45;&gt;Node2 -->
<g id="edge3" class="edge">
<title>Node4&#45;&gt;Node2</title>
<path fill="none" stroke="#ffa500" d="M123.0438,-288.2849C121.1549,-276.0069 119.0814,-262.5289 117.2462,-250.6001"/>
<polygon fill="#ffa500" stroke="#ffa500" points="119.5979,-288.9044 124.5778,-298.2559 126.5165,-287.8399 119.5979,-288.9044"/>
<text text-anchor="middle" x="166.5" y="-272" font-family="Helvetica,sans-Serif" font-size="10.00" fill="#000000"> &lt; llvm::Module &gt;</text>
</g>
<!-- Node5 -->
<g id="node5" class="node">
<title>Node5</title>
<g id="a_node5"><a xlink:title=" ">
<polygon fill="none" stroke="#bfbfbf" points="165.5,-409 165.5,-466 194.5,-466 194.5,-409 165.5,-409"/>
<text text-anchor="middle" x="180" y="-454" font-family="Helvetica,sans-Serif" font-size="10.00" fill="#000000">T</text>
<polyline fill="none" stroke="#bfbfbf" points="165.5,-447 194.5,-447 "/>
<text text-anchor="middle" x="180" y="-435" font-family="Helvetica,sans-Serif" font-size="10.00" fill="#000000"> </text>
<polyline fill="none" stroke="#bfbfbf" points="165.5,-428 194.5,-428 "/>
<text text-anchor="middle" x="180" y="-416" font-family="Helvetica,sans-Serif" font-size="10.00" fill="#000000"> </text>
</a>
</g>
</g>
<!-- Node5&#45;&gt;Node4 -->
<g id="edge4" class="edge">
<title>Node5&#45;&gt;Node4</title>
<path fill="none" stroke="#404040" d="M166.7335,-408.7559C160.8307,-395.9666 153.7818,-380.6939 147.3829,-366.8296"/>
<polygon fill="none" stroke="#404040" points="147.2288,-366.4957 141.0826,-362.7242 142.2001,-355.6002 148.3463,-359.3717 147.2288,-366.4957"/>
<text text-anchor="middle" x="167.5" y="-377" font-family="Helvetica,sans-Serif" font-size="10.00" fill="#000000"> +ptr</text>
</g>
<!-- Node11 -->
<g id="node11" class="node">
<title>Node11</title>
<g id="a_node11"><a xlink:title="STL class.">
<polygon fill="none" stroke="#bfbfbf" points="206.5,-298.5 206.5,-355.5 287.5,-355.5 287.5,-298.5 206.5,-298.5"/>
<text text-anchor="middle" x="247" y="-343.5" font-family="Helvetica,sans-Serif" font-size="10.00" fill="#000000">std::list&lt; T &gt;</text>
<polyline fill="none" stroke="#bfbfbf" points="206.5,-336.5 287.5,-336.5 "/>
<text text-anchor="middle" x="247" y="-324.5" font-family="Helvetica,sans-Serif" font-size="10.00" fill="#000000"> </text>
<polyline fill="none" stroke="#bfbfbf" points="206.5,-317.5 287.5,-317.5 "/>
<text text-anchor="middle" x="247" y="-305.5" font-family="Helvetica,sans-Serif" font-size="10.00" fill="#000000"> </text>
</a>
</g>
</g>
<!-- Node5&#45;&gt;Node11 -->
<g id="edge11" class="edge">
<title>Node5&#45;&gt;Node11</title>
<path fill="none" stroke="#404040" d="M194.538,-413.5231C202.9185,-399.7016 213.6597,-381.9866 223.2378,-366.1899"/>
<polygon fill="none" stroke="#404040" points="223.4179,-365.8928 223.1084,-358.6883 229.6396,-355.6317 229.9491,-362.8361 223.4179,-365.8928"/>
<text text-anchor="middle" x="246" y="-377" font-family="Helvetica,sans-Serif" font-size="10.00" fill="#000000"> +elements</text>
</g>
<!-- Node6 -->
<g id="node6" class="node">
<title>Node6</title>
<g id="a_node6"><a xlink:title=" ">
<polygon fill="none" stroke="#bfbfbf" points="333.5,-188 333.5,-245 362.5,-245 362.5,-188 333.5,-188"/>
<text text-anchor="middle" x="348" y="-233" font-family="Helvetica,sans-Serif" font-size="10.00" fill="#000000">int</text>
<polyline fill="none" stroke="#bfbfbf" points="333.5,-226 362.5,-226 "/>
<text text-anchor="middle" x="348" y="-214" font-family="Helvetica,sans-Serif" font-size="10.00" fill="#000000"> </text>
<polyline fill="none" stroke="#bfbfbf" points="333.5,-207 362.5,-207 "/>
<text text-anchor="middle" x="348" y="-195" font-family="Helvetica,sans-Serif" font-size="10.00" fill="#000000"> </text>
</a>
</g>
</g>
<!-- Node6&#45;&gt;Node1 -->
<g id="edge5" class="edge">
<title>Node6&#45;&gt;Node1</title>
<path fill="none" stroke="#404040" d="M339.1307,-187.7713C335.4432,-175.827 330.9646,-161.32 326.4118,-146.5732"/>
<polygon fill="none" stroke="#404040" points="326.2984,-146.2054 320.7064,-141.6524 322.7585,-134.7394 328.3504,-139.2925 326.2984,-146.2054"/>
<text text-anchor="middle" x="362.5" y="-156" font-family="Helvetica,sans-Serif" font-size="10.00" fill="#000000"> &#45;modVersion</text>
</g>
<!-- Node7 -->
<g id="node7" class="node">
<title>Node7</title>
<g id="a_node7"><a xlink:title=" ">
<polygon fill="none" stroke="#bfbfbf" points="388,-188 388,-245 468,-245 468,-188 388,-188"/>
<text text-anchor="middle" x="428" y="-233" font-family="Helvetica,sans-Serif" font-size="10.00" fill="#000000">LLVMContext</text>
<polyline fill="none" stroke="#bfbfbf" points="388,-226 468,-226 "/>
<text text-anchor="middle" x="428" y="-214" font-family="Helvetica,sans-Serif" font-size="10.00" fill="#000000"> </text>
<polyline fill="none" stroke="#bfbfbf" points="388,-207 468,-207 "/>
<text text-anchor="middle" x="428" y="-195" font-family="Helvetica,sans-Serif" font-size="10.00" fill="#000000"> </text>
</a>
</g>
</g>
<!-- Node7&#45;&gt;Node1 -->
<g id="edge6" class="edge">
<title>Node7&#45;&gt;Node1</title>
<path fill="none" stroke="#404040" d="M417.9498,-187.9089C413.1797,-176.4555 406.7996,-163.5115 399,-153 390.9818,-142.194 381.4005,-131.7608 371.4277,-122.1184"/>
<polygon fill="none" stroke="#404040" points="371.3585,-122.0537 364.2438,-120.8783 362.5924,-113.8588 369.7071,-115.0342 371.3585,-122.0537"/>
<text text-anchor="middle" x="438.5" y="-156" font-family="Helvetica,sans-Serif" font-size="10.00" fill="#000000"> &#45;modContext</text>
</g>
<!-- Node8 -->
<g id="node8" class="node">
<title>Node8</title>
<g id="a_node8"><a xlink:title=" ">
<polygon fill="none" stroke="#bfbfbf" points="191,-188 191,-245 315,-245 315,-188 191,-188"/>
<text text-anchor="middle" x="253" y="-233" font-family="Helvetica,sans-Serif" font-size="10.00" fill="#000000">std::list&lt; std::string &gt;</text>
<polyline fill="none" stroke="#bfbfbf" points="191,-226 315,-226 "/>
<text text-anchor="middle" x="253" y="-214" font-family="Helvetica,sans-Serif" font-size="10.00" fill="#000000"> </text>
<polyline fill="none" stroke="#bfbfbf" points="191,-207 315,-207 "/>
<text text-anchor="middle" x="253" y="-195" font-family="Helvetica,sans-Serif" font-size="10.00" fill="#000000"> </text>
</a>
</g>
</g>
<!-- Node8&#45;&gt;Node1 -->
<g id="edge7" class="edge">
<title>Node8&#45;&gt;Node1</title>
<path fill="none" stroke="#404040" d="M262.4477,-187.7713C266.3757,-175.827 271.1464,-161.32 275.9961,-146.5732"/>
<polygon fill="none" stroke="#404040" points="276.1388,-146.1388 274.2135,-139.1895 279.8877,-134.7394 281.8131,-141.6887 276.1388,-146.1388"/>
<text text-anchor="middle" x="298.5" y="-156" font-family="Helvetica,sans-Serif" font-size="10.00" fill="#000000"> &#45;modFiles</text>
</g>
<!-- Node9 -->
<g id="node9" class="node">
<title>Node9</title>
<g id="a_node9"><a xlink:title="STL class.">
<polygon fill="none" stroke="#bfbfbf" points="312.5,-298.5 312.5,-355.5 377.5,-355.5 377.5,-298.5 312.5,-298.5"/>
<text text-anchor="middle" x="345" y="-343.5" font-family="Helvetica,sans-Serif" font-size="10.00" fill="#000000">std::string</text>
<polyline fill="none" stroke="#bfbfbf" points="312.5,-336.5 377.5,-336.5 "/>
<text text-anchor="middle" x="345" y="-324.5" font-family="Helvetica,sans-Serif" font-size="10.00" fill="#000000"> </text>
<polyline fill="none" stroke="#bfbfbf" points="312.5,-317.5 377.5,-317.5 "/>
<text text-anchor="middle" x="345" y="-305.5" font-family="Helvetica,sans-Serif" font-size="10.00" fill="#000000"> </text>
</a>
</g>
</g>
<!-- Node9&#45;&gt;Node8 -->
<g id="edge8" class="edge">
<title>Node9&#45;&gt;Node8</title>
<path fill="none" stroke="#404040" d="M337.6602,-298.2238C334.247,-288.3392 329.4739,-277.6064 323,-269 318.7294,-263.3227 313.6832,-257.9677 308.2871,-253.0066"/>
<polygon fill="none" stroke="#404040" points="308.0803,-252.8302 300.9196,-251.9793 298.9509,-245.0421 306.1116,-245.893 308.0803,-252.8302"/>
<text text-anchor="middle" x="358" y="-272" font-family="Helvetica,sans-Serif" font-size="10.00" fill="#000000"> +elements</text>
</g>
<!-- Node10 -->
<g id="node10" class="node">
<title>Node10</title>
<g id="a_node10"><a xlink:title="STL class.">
<polygon fill="none" stroke="#bfbfbf" points="293,-403.5 293,-471.5 397,-471.5 397,-403.5 293,-403.5"/>
<text text-anchor="start" x="301" y="-459.5" font-family="Helvetica,sans-Serif" font-size="10.00" fill="#000000">std::basic_string&lt;</text>
<text text-anchor="middle" x="345" y="-448.5" font-family="Helvetica,sans-Serif" font-size="10.00" fill="#000000"> char &gt;</text>
<polyline fill="none" stroke="#bfbfbf" points="293,-441.5 397,-441.5 "/>
<text text-anchor="middle" x="345" y="-429.5" font-family="Helvetica,sans-Serif" font-size="10.00" fill="#000000"> </text>
<polyline fill="none" stroke="#bfbfbf" points="293,-422.5 397,-422.5 "/>
<text text-anchor="middle" x="345" y="-410.5" font-family="Helvetica,sans-Serif" font-size="10.00" fill="#000000"> </text>
</a>
</g>
</g>
<!-- Node10&#45;&gt;Node9 -->
<g id="edge9" class="edge">
<title>Node10&#45;&gt;Node9</title>
<path fill="none" stroke="#191970" d="M345,-393.0661C345,-380.4172 345,-366.9812 345,-355.5519"/>
<polygon fill="none" stroke="#191970" points="341.5001,-393.4447 345,-403.4447 348.5001,-393.4447 341.5001,-393.4447"/>
</g>
<!-- Node11&#45;&gt;Node8 -->
<g id="edge10" class="edge">
<title>Node11&#45;&gt;Node8</title>
<path fill="none" stroke="#ffa500" d="M247.2583,-287.9425C247.4196,-281.6073 247.6564,-275.1195 248,-269 248.4363,-261.2298 249.1341,-252.8316 249.8717,-245.0792"/>
<polygon fill="#ffa500" stroke="#ffa500" points="243.7506,-288.301 247.0526,-298.3681 250.7493,-288.4392 243.7506,-288.301"/>
<text text-anchor="middle" x="285.5" y="-272" font-family="Helvetica,sans-Serif" font-size="10.00" fill="#000000"> &lt; std::string &gt;</text>
</g>
</g>
</svg>
