<?xml version="1.0" encoding="UTF-8" standalone="no"?>
<!DOCTYPE svg PUBLIC "-//W3C//DTD SVG 1.1//EN"
 "http://www.w3.org/Graphics/SVG/1.1/DTD/svg11.dtd">
<!-- Generated by graphviz version 2.40.1 (20161225.0304)
 -->
<!-- Title: hydrogen_framework::Diff_Mapping::getMatchedLines Pages: 1 -->
<svg width="391pt" height="63pt"
 viewBox="0.00 0.00 391.00 62.50" xmlns="http://www.w3.org/2000/svg" xmlns:xlink="http://www.w3.org/1999/xlink">
<g id="graph0" class="graph" transform="scale(1 1) rotate(0) translate(4 58.5)">
<title>hydrogen_framework::Diff_Mapping::getMatchedLines</title>
<!-- Node40 -->
<g id="node1" class="node">
<title>Node40</title>
<g id="a_node1"><a xlink:title=" ">
<polygon fill="#bfbfbf" stroke="#000000" points="234,-.5 234,-41.5 383,-41.5 383,-.5 234,-.5"/>
<text text-anchor="start" x="242" y="-29.5" font-family="Helvetica,sans-Serif" font-size="10.00" fill="#000000">hydrogen_framework</text>
<text text-anchor="start" x="242" y="-18.5" font-family="Helvetica,sans-Serif" font-size="10.00" fill="#000000">::Diff_Mapping::getMatched</text>
<text text-anchor="middle" x="308.5" y="-7.5" font-family="Helvetica,sans-Serif" font-size="10.00" fill="#000000">Lines</text>
</a>
</g>
</g>
<!-- Node41 -->
<g id="node2" class="node">
<title>Node41</title>
<g id="a_node2"><a xlink:href="../../db/d17/MVICFG_8cpp.html#a27bf2e73daf11e2ad6363e34bd06de89" target="_top" xlink:title=" ">
<polygon fill="none" stroke="#000000" points="77,-6 77,-36 198,-36 198,-6 77,-6"/>
<text text-anchor="start" x="85" y="-24" font-family="Helvetica,sans-Serif" font-size="10.00" fill="#000000">hydrogen_framework</text>
<text text-anchor="middle" x="137.5" y="-13" font-family="Helvetica,sans-Serif" font-size="10.00" fill="#000000">::matchedInMVICFG</text>
</a>
</g>
</g>
<!-- Node40&#45;&gt;Node41 -->
<g id="edge1" class="edge">
<title>Node40&#45;&gt;Node41</title>
<path fill="none" stroke="#191970" d="M223.8464,-21C215.1792,-21 206.5003,-21 198.1662,-21"/>
<polygon fill="#191970" stroke="#191970" points="223.9944,-24.5001 233.9944,-21 223.9943,-17.5001 223.9944,-24.5001"/>
</g>
<!-- Node41&#45;&gt;Node41 -->
<g id="edge3" class="edge">
<title>Node41&#45;&gt;Node41</title>
<path fill="none" stroke="#191970" d="M158.1118,-46.4579C155.5536,-51.179 148.683,-54.5 137.5,-54.5 119.1484,-54.5 112.41,-45.5566 117.2846,-36.159"/>
<polygon fill="#191970" stroke="#191970" points="161.5975,-46.017 157.7154,-36.159 154.6027,-46.2863 161.5975,-46.017"/>
</g>
<!-- Node42 -->
<g id="node3" class="node">
<title>Node42</title>
<g id="a_node3"><a xlink:href="../../de/d64/Hydrogen_8cpp.html#a0ddf1224851353fc92bfbff6f499fa97" target="_top" xlink:title=" ">
<polygon fill="none" stroke="#000000" points="0,-11.5 0,-30.5 41,-30.5 41,-11.5 0,-11.5"/>
<text text-anchor="middle" x="20.5" y="-18.5" font-family="Helvetica,sans-Serif" font-size="10.00" fill="#000000">main</text>
</a>
</g>
</g>
<!-- Node41&#45;&gt;Node42 -->
<g id="edge2" class="edge">
<title>Node41&#45;&gt;Node42</title>
<path fill="none" stroke="#191970" d="M66.7111,-21C57.3948,-21 48.514,-21 41.0724,-21"/>
<polygon fill="#191970" stroke="#191970" points="66.9438,-24.5001 76.9437,-21 66.9437,-17.5001 66.9438,-24.5001"/>
</g>
</g>
</svg>
