<?xml version="1.0" encoding="UTF-8" standalone="no"?>
<!DOCTYPE svg PUBLIC "-//W3C//DTD SVG 1.1//EN"
 "http://www.w3.org/Graphics/SVG/1.1/DTD/svg11.dtd">
<!-- Generated by graphviz version 2.40.1 (20161225.0304)
 -->
<!-- Title: hydrogen_framework::Diff_Mapping::getFileName Pages: 1 -->
<!--zoomable 302 -->
<svg id="main" version="1.1" xmlns="http://www.w3.org/2000/svg" xmlns:xlink="http://www.w3.org/1999/xlink" xml:space="preserve" onload="init(evt)">
<style type="text/css"><![CDATA[
.edge:hover path { stroke: red; }
.edge:hover polygon { stroke: red; fill: red; }
]]></style>
<script type="text/javascript"><![CDATA[
var edges = document.getElementsByTagName('g');
if (edges && edges.length) {
  for (var i=0;i<edges.length;i++) {
    if (edges[i].id.substr(0,4)=='edge') {
      edges[i].setAttribute('class','edge');
    }
  }
}
]]></script>
        <defs>
                <circle id="rim" cx="0" cy="0" r="7"/>
                <circle id="rim2" cx="0" cy="0" r="3.5"/>
                <g id="zoomPlus">
                        <use xlink:href="#rim" fill="#404040">
                                <set attributeName="fill" to="#808080" begin="zoomplus.mouseover" end="zoomplus.mouseout"/>
                        </use>
                        <path d="M-4,0h8M0,-4v8" fill="none" stroke="white" stroke-width="1.5" pointer-events="none"/>
                </g>
                <g id="zoomMin">
                        <use xlink:href="#rim" fill="#404040">
                                <set attributeName="fill" to="#808080" begin="zoomminus.mouseover" end="zoomminus.mouseout"/>
                        </use>
                        <path d="M-4,0h8" fill="none" stroke="white" stroke-width="1.5" pointer-events="none"/>
                </g>
                <g id="dirArrow">
                        <path fill="none" stroke="white" stroke-width="1.5" d="M0,-3.0v7 M-2.5,-0.5L0,-3.0L2.5,-0.5"/>
                </g>
               <g id="resetDef">
                       <use xlink:href="#rim2" fill="#404040">
                               <set attributeName="fill" to="#808080" begin="reset.mouseover" end="reset.mouseout"/>
                       </use>
               </g>
        </defs>

<script type="text/javascript">
var viewWidth = 582;
var viewHeight = 302;
var sectionId = 'dynsection-6';
</script>
<script xlink:href="../../svgpan.js"/>
<svg id="graph" class="graph">
<g id="viewport">
<title>hydrogen_framework::Diff_Mapping::getFileName</title>
<!-- Node29 -->
<g id="node1" class="node">
<title>Node29</title>
<g id="a_node1"><a xlink:title=" ">
<polygon fill="#bfbfbf" stroke="#000000" points="420,-130.5 420,-160.5 574,-160.5 574,-130.5 420,-130.5"/>
<text text-anchor="start" x="428" y="-148.5" font-family="Helvetica,sans-Serif" font-size="10.00" fill="#000000">hydrogen_framework</text>
<text text-anchor="middle" x="497" y="-137.5" font-family="Helvetica,sans-Serif" font-size="10.00" fill="#000000">::Diff_Mapping::getFileName</text>
</a>
</g>
</g>
<!-- Node30 -->
<g id="node2" class="node">
<title>Node30</title>
<g id="a_node2"><a xlink:href="../../db/d17/MVICFG_8cpp.html#a40d68c502d0833e919395ded787b4599" target="_top" xlink:title=" ">
<polygon fill="none" stroke="#000000" points="77,-245.5 77,-275.5 198,-275.5 198,-245.5 77,-245.5"/>
<text text-anchor="start" x="85" y="-263.5" font-family="Helvetica,sans-Serif" font-size="10.00" fill="#000000">hydrogen_framework</text>
<text text-anchor="middle" x="137.5" y="-252.5" font-family="Helvetica,sans-Serif" font-size="10.00" fill="#000000">::addToMVICFG</text>
</a>
</g>
</g>
<!-- Node29&#45;&gt;Node30 -->
<g id="edge1" class="edge">
<title>Node29&#45;&gt;Node30</title>
<path fill="none" stroke="#191970" d="M480.5957,-168.7093C460.9629,-194.3211 425.4892,-234.2041 384,-251.5 324.4137,-276.3402 249.5268,-275.0461 198.0217,-269.7833"/>
<polygon fill="#191970" stroke="#191970" points="483.4542,-170.7309 486.6323,-160.6239 477.8451,-166.5431 483.4542,-170.7309"/>
</g>
<!-- Node32 -->
<g id="node4" class="node">
<title>Node32</title>
<g id="a_node4"><a xlink:href="../../db/d17/MVICFG_8cpp.html#ac6a97f6b1392ad5517822076e830168f" target="_top" xlink:title=" ">
<polygon fill="none" stroke="#000000" points="77,-178.5 77,-208.5 198,-208.5 198,-178.5 77,-178.5"/>
<text text-anchor="start" x="85" y="-196.5" font-family="Helvetica,sans-Serif" font-size="10.00" fill="#000000">hydrogen_framework</text>
<text text-anchor="middle" x="137.5" y="-185.5" font-family="Helvetica,sans-Serif" font-size="10.00" fill="#000000">::deleteFromMVICFG</text>
</a>
</g>
</g>
<!-- Node29&#45;&gt;Node32 -->
<g id="edge4" class="edge">
<title>Node29&#45;&gt;Node32</title>
<path fill="none" stroke="#191970" d="M409.5644,-157.1743C344.0497,-165.9217 256.0791,-177.6675 198.1372,-185.4038"/>
<polygon fill="#191970" stroke="#191970" points="410.4294,-160.5899 419.8782,-155.7972 409.503,-153.6515 410.4294,-160.5899"/>
</g>
<!-- Node33 -->
<g id="node5" class="node">
<title>Node33</title>
<g id="a_node5"><a xlink:href="../../db/d17/MVICFG_8cpp.html#aca7226f27a892ce8314159fbd4eaeeb1" target="_top" xlink:title=" ">
<polygon fill="none" stroke="#000000" points="248.5,-193.5 248.5,-223.5 369.5,-223.5 369.5,-193.5 248.5,-193.5"/>
<text text-anchor="start" x="256.5" y="-211.5" font-family="Helvetica,sans-Serif" font-size="10.00" fill="#000000">hydrogen_framework</text>
<text text-anchor="middle" x="309" y="-200.5" font-family="Helvetica,sans-Serif" font-size="10.00" fill="#000000">::findMatchedLine</text>
</a>
</g>
</g>
<!-- Node29&#45;&gt;Node33 -->
<g id="edge7" class="edge">
<title>Node29&#45;&gt;Node33</title>
<path fill="none" stroke="#191970" d="M442.3062,-163.8283C414.2554,-173.2282 380.5091,-184.5369 353.9887,-193.424"/>
<polygon fill="#191970" stroke="#191970" points="443.5996,-167.0862 451.9693,-160.5901 441.3754,-160.4489 443.5996,-167.0862"/>
</g>
<!-- Node34 -->
<g id="node6" class="node">
<title>Node34</title>
<g id="a_node6"><a xlink:href="../../db/d17/MVICFG_8cpp.html#a27bf2e73daf11e2ad6363e34bd06de89" target="_top" xlink:title=" ">
<polygon fill="none" stroke="#000000" points="77,-111.5 77,-141.5 198,-141.5 198,-111.5 77,-111.5"/>
<text text-anchor="start" x="85" y="-129.5" font-family="Helvetica,sans-Serif" font-size="10.00" fill="#000000">hydrogen_framework</text>
<text text-anchor="middle" x="137.5" y="-118.5" font-family="Helvetica,sans-Serif" font-size="10.00" fill="#000000">::matchedInMVICFG</text>
</a>
</g>
</g>
<!-- Node29&#45;&gt;Node34 -->
<g id="edge14" class="edge">
<title>Node29&#45;&gt;Node34</title>
<path fill="none" stroke="#191970" d="M409.5644,-140.8789C344.0497,-137.4164 256.0791,-132.767 198.1372,-129.7047"/>
<polygon fill="#191970" stroke="#191970" points="409.7074,-144.3913 419.8782,-141.424 410.0769,-137.401 409.7074,-144.3913"/>
</g>
<!-- Node35 -->
<g id="node7" class="node">
<title>Node35</title>
<g id="a_node7"><a xlink:href="../../d0/d21/classhydrogen__framework_1_1Diff__Mapping.html#abcb455f072c2c77407e266fc6cb38d55" target="_top" xlink:title=" ">
<polygon fill="none" stroke="#000000" points="234,-.5 234,-30.5 384,-30.5 384,-.5 234,-.5"/>
<text text-anchor="start" x="242" y="-18.5" font-family="Helvetica,sans-Serif" font-size="10.00" fill="#000000">hydrogen_framework</text>
<text text-anchor="middle" x="309" y="-7.5" font-family="Helvetica,sans-Serif" font-size="10.00" fill="#000000">::Diff_Mapping::printFileInfo</text>
</a>
</g>
</g>
<!-- Node29&#45;&gt;Node35 -->
<g id="edge15" class="edge">
<title>Node29&#45;&gt;Node35</title>
<path fill="none" stroke="#191970" d="M477.9851,-122.4097C457.1864,-98.5326 421.7492,-61.6978 384,-39.5 378.2255,-36.1044 371.9138,-33.1294 365.4821,-30.5384"/>
<polygon fill="#191970" stroke="#191970" points="475.5501,-124.9474 484.7111,-130.2697 480.8686,-120.3962 475.5501,-124.9474"/>
</g>
<!-- Node36 -->
<g id="node8" class="node">
<title>Node36</title>
<g id="a_node8"><a xlink:href="../../db/d17/MVICFG_8cpp.html#a2ebefd41917d6565942bb86ec72f6adc" target="_top" xlink:title=" ">
<polygon fill="none" stroke="#000000" points="244,-49.5 244,-79.5 374,-79.5 374,-49.5 244,-49.5"/>
<text text-anchor="start" x="252" y="-67.5" font-family="Helvetica,sans-Serif" font-size="10.00" fill="#000000">hydrogen_framework</text>
<text text-anchor="middle" x="309" y="-56.5" font-family="Helvetica,sans-Serif" font-size="10.00" fill="#000000">::updateMVICFGVersion</text>
</a>
</g>
</g>
<!-- Node29&#45;&gt;Node36 -->
<g id="edge16" class="edge">
<title>Node29&#45;&gt;Node36</title>
<path fill="none" stroke="#191970" d="M452.6194,-126.3786C419.4516,-112.0882 374.7297,-92.8197 344.0522,-79.6023"/>
<polygon fill="#191970" stroke="#191970" points="451.5104,-129.7118 462.0792,-130.4544 454.2803,-123.2831 451.5104,-129.7118"/>
</g>
<!-- Node30&#45;&gt;Node30 -->
<g id="edge2" class="edge">
<title>Node30&#45;&gt;Node30</title>
<path fill="none" stroke="#191970" d="M158.1118,-285.9579C155.5536,-290.679 148.683,-294 137.5,-294 119.1484,-294 112.41,-285.0566 117.2846,-275.659"/>
<polygon fill="#191970" stroke="#191970" points="161.5975,-285.517 157.7154,-275.659 154.6027,-285.7863 161.5975,-285.517"/>
</g>
<!-- Node31 -->
<g id="node3" class="node">
<title>Node31</title>
<g id="a_node3"><a xlink:href="../../de/d64/Hydrogen_8cpp.html#a0ddf1224851353fc92bfbff6f499fa97" target="_top" xlink:title=" ">
<polygon fill="none" stroke="#000000" points="0,-150 0,-169 41,-169 41,-150 0,-150"/>
<text text-anchor="middle" x="20.5" y="-157" font-family="Helvetica,sans-Serif" font-size="10.00" fill="#000000">main</text>
</a>
</g>
</g>
<!-- Node30&#45;&gt;Node31 -->
<g id="edge3" class="edge">
<title>Node30&#45;&gt;Node31</title>
<path fill="none" stroke="#191970" d="M82.5827,-240.4213C80.6492,-239.1814 78.7801,-237.875 77,-236.5 52.462,-217.5458 33.625,-185.1965 25.2532,-169.1352"/>
<polygon fill="#191970" stroke="#191970" points="80.9741,-243.533 91.3959,-245.4403 84.4382,-237.4502 80.9741,-243.533"/>
</g>
<!-- Node32&#45;&gt;Node31 -->
<g id="edge6" class="edge">
<title>Node32&#45;&gt;Node31</title>
<path fill="none" stroke="#191970" d="M76.173,-175.6785C63.5232,-172.0025 51.0501,-168.3778 41.1269,-165.4942"/>
<polygon fill="#191970" stroke="#191970" points="75.262,-179.0585 85.8415,-178.4881 77.2155,-172.3366 75.262,-179.0585"/>
</g>
<!-- Node32&#45;&gt;Node32 -->
<g id="edge5" class="edge">
<title>Node32&#45;&gt;Node32</title>
<path fill="none" stroke="#191970" d="M158.1118,-218.9579C155.5536,-223.679 148.683,-227 137.5,-227 119.1484,-227 112.41,-218.0566 117.2846,-208.659"/>
<polygon fill="#191970" stroke="#191970" points="161.5975,-218.517 157.7154,-208.659 154.6027,-218.7863 161.5975,-218.517"/>
</g>
<!-- Node33&#45;&gt;Node30 -->
<g id="edge8" class="edge">
<title>Node33&#45;&gt;Node30</title>
<path fill="none" stroke="#191970" d="M249.5727,-226.5188C229.1563,-232.7092 206.5352,-239.568 186.9934,-245.4932"/>
<polygon fill="#191970" stroke="#191970" points="250.8409,-229.7917 259.3951,-223.5406 248.8097,-223.0928 250.8409,-229.7917"/>
</g>
<!-- Node33&#45;&gt;Node32 -->
<g id="edge9" class="edge">
<title>Node33&#45;&gt;Node32</title>
<path fill="none" stroke="#191970" d="M238.0585,-202.2952C224.8374,-201.1388 211.1319,-199.9401 198.2511,-198.8135"/>
<polygon fill="#191970" stroke="#191970" points="237.7857,-205.7846 248.0526,-203.1693 238.3956,-198.8112 237.7857,-205.7846"/>
</g>
<!-- Node33&#45;&gt;Node33 -->
<g id="edge10" class="edge">
<title>Node33&#45;&gt;Node33</title>
<path fill="none" stroke="#191970" d="M339.2069,-233.9579C335.4578,-238.679 325.3889,-242 309,-242 282.1055,-242 272.2301,-233.0566 279.374,-223.659"/>
<polygon fill="#191970" stroke="#191970" points="342.6837,-233.446 338.626,-223.659 335.6948,-233.8403 342.6837,-233.446"/>
</g>
<!-- Node33&#45;&gt;Node34 -->
<g id="edge11" class="edge">
<title>Node33&#45;&gt;Node34</title>
<path fill="none" stroke="#191970" d="M268.4747,-189.1235C238.0668,-174.5844 197.0299,-154.9633 169.0463,-141.5833"/>
<polygon fill="#191970" stroke="#191970" points="267.0127,-192.3039 277.5443,-193.4599 270.0322,-185.9886 267.0127,-192.3039"/>
</g>
<!-- Node34&#45;&gt;Node31 -->
<g id="edge12" class="edge">
<title>Node34&#45;&gt;Node31</title>
<path fill="none" stroke="#191970" d="M74.4251,-144.2903C62.3374,-147.6997 50.5117,-151.0352 41.0294,-153.7096"/>
<polygon fill="#191970" stroke="#191970" points="75.4614,-147.6347 84.1357,-141.5515 73.5611,-140.8976 75.4614,-147.6347"/>
</g>
<!-- Node34&#45;&gt;Node34 -->
<g id="edge13" class="edge">
<title>Node34&#45;&gt;Node34</title>
<path fill="none" stroke="#191970" d="M158.1118,-151.9579C155.5536,-156.679 148.683,-160 137.5,-160 119.1484,-160 112.41,-151.0566 117.2846,-141.659"/>
<polygon fill="#191970" stroke="#191970" points="161.5975,-151.517 157.7154,-141.659 154.6027,-151.7863 161.5975,-151.517"/>
</g>
<!-- Node36&#45;&gt;Node31 -->
<g id="edge17" class="edge">
<title>Node36&#45;&gt;Node31</title>
<path fill="none" stroke="#191970" d="M233.6937,-65.1255C186.4001,-68.2736 125.4129,-77.5366 77,-102.5 55.2039,-113.7388 36.6724,-136.4657 27.2187,-149.5724"/>
<polygon fill="#191970" stroke="#191970" points="234.0953,-68.6081 243.8728,-64.5276 233.6847,-61.6201 234.0953,-68.6081"/>
</g>
<!-- Node36&#45;&gt;Node36 -->
<g id="edge18" class="edge">
<title>Node36&#45;&gt;Node36</title>
<path fill="none" stroke="#191970" d="M339.2069,-89.9579C335.4578,-94.679 325.3889,-98 309,-98 282.1055,-98 272.2301,-89.0566 279.374,-79.659"/>
<polygon fill="#191970" stroke="#191970" points="342.6837,-89.446 338.626,-79.659 335.6948,-89.8403 342.6837,-89.446"/>
</g>
</g>
</svg>
        <g id="navigator" transform="translate(0 0)" fill="#404254">
                <rect fill="#f2f5e9" fill-opacity="0.5" stroke="#606060" stroke-width=".5" x="0" y="0" width="60" height="60"/>
                <use id="zoomplus" xlink:href="#zoomPlus" x="17" y="9" onmousedown="handleZoom(evt,'in')"/>
                <use id="zoomminus" xlink:href="#zoomMin" x="42" y="9" onmousedown="handleZoom(evt,'out')"/>
                <use id="reset" xlink:href="#resetDef" x="30" y="36" onmousedown="handleReset()"/>
                <g id="arrowUp" xlink:href="#dirArrow" transform="translate(30 24)" onmousedown="handlePan(0,-1)">
                  <use xlink:href="#rim" fill="#404040">
                        <set attributeName="fill" to="#808080" begin="arrowUp.mouseover" end="arrowUp.mouseout"/>
                  </use>
                  <path fill="none" stroke="white" stroke-width="1.5" d="M0,-3.0v7 M-2.5,-0.5L0,-3.0L2.5,-0.5"/>
                </g>
                <g id="arrowRight" xlink:href="#dirArrow" transform="rotate(90) translate(36 -43)" onmousedown="handlePan(1,0)">
                  <use xlink:href="#rim" fill="#404040">
                        <set attributeName="fill" to="#808080" begin="arrowRight.mouseover" end="arrowRight.mouseout"/>
                  </use>
                  <path fill="none" stroke="white" stroke-width="1.5" d="M0,-3.0v7 M-2.5,-0.5L0,-3.0L2.5,-0.5"/>
                </g>
                <g id="arrowDown" xlink:href="#dirArrow" transform="rotate(180) translate(-30 -48)" onmousedown="handlePan(0,1)">
                  <use xlink:href="#rim" fill="#404040">
                        <set attributeName="fill" to="#808080" begin="arrowDown.mouseover" end="arrowDown.mouseout"/>
                  </use>
                  <path fill="none" stroke="white" stroke-width="1.5" d="M0,-3.0v7 M-2.5,-0.5L0,-3.0L2.5,-0.5"/>
                </g>
                <g id="arrowLeft" xlink:href="#dirArrow" transform="rotate(270) translate(-36 17)" onmousedown="handlePan(-1,0)">
                  <use xlink:href="#rim" fill="#404040">
                        <set attributeName="fill" to="#808080" begin="arrowLeft.mouseover" end="arrowLeft.mouseout"/>
                  </use>
                  <path fill="none" stroke="white" stroke-width="1.5" d="M0,-3.0v7 M-2.5,-0.5L0,-3.0L2.5,-0.5"/>
                </g>
        </g>
        <svg viewBox="0 0 15 15" width="100%" height="30px" preserveAspectRatio="xMaxYMin meet">
         <g id="arrow_out" transform="scale(0.3 0.3)">
          <a xlink:href="classhydrogen__framework_1_1Diff__Mapping_aa478ea59c018a81e417a816d10ceb9fe_icgraph_org.svg" target="_base">
           <rect id="button" ry="5" rx="5" y="6" x="6" height="38" width="38"
                fill="#f2f5e9" fill-opacity="0.5" stroke="#606060" stroke-width="1.0"/>
           <path id="arrow"
             d="M 11.500037,31.436501 C 11.940474,20.09759 22.043105,11.32322 32.158766,21.979434 L 37.068811,17.246167 C 37.068811,17.246167 37.088388,32 37.088388,32 L 22.160133,31.978069 C 22.160133,31.978069 26.997745,27.140456 26.997745,27.140456 C 18.528582,18.264221 13.291696,25.230495 11.500037,31.436501 z"
             style="fill:#404040;"/>
          </a>
         </g>
        </svg>
</svg>
