<?xml version="1.0" encoding="UTF-8" standalone="no"?>
<!DOCTYPE svg PUBLIC "-//W3C//DTD SVG 1.1//EN"
 "http://www.w3.org/Graphics/SVG/1.1/DTD/svg11.dtd">
<!-- Generated by graphviz version 2.40.1 (20161225.0304)
 -->
<!-- Title: hydrogen_framework::Diff_Mapping::printFileInfo Pages: 1 -->
<svg width="350pt" height="220pt"
 viewBox="0.00 0.00 350.00 219.50" xmlns="http://www.w3.org/2000/svg" xmlns:xlink="http://www.w3.org/1999/xlink">
<g id="graph0" class="graph" transform="scale(1 1) rotate(0) translate(4 215.5)">
<title>hydrogen_framework::Diff_Mapping::printFileInfo</title>
<!-- Node49 -->
<g id="node1" class="node">
<title>Node49</title>
<g id="a_node1"><a xlink:title=" ">
<polygon fill="#bfbfbf" stroke="#000000" points="0,-96 0,-126 150,-126 150,-96 0,-96"/>
<text text-anchor="start" x="8" y="-114" font-family="Helvetica,sans-Serif" font-size="10.00" fill="#000000">hydrogen_framework</text>
<text text-anchor="middle" x="75" y="-103" font-family="Helvetica,sans-Serif" font-size="10.00" fill="#000000">::Diff_Mapping::printFileInfo</text>
</a>
</g>
</g>
<!-- Node50 -->
<g id="node2" class="node">
<title>Node50</title>
<g id="a_node2"><a xlink:href="../../d0/d21/classhydrogen__framework_1_1Diff__Mapping.html#aa478ea59c018a81e417a816d10ceb9fe" target="_top" xlink:title=" ">
<polygon fill="none" stroke="#000000" points="187,-181 187,-211 341,-211 341,-181 187,-181"/>
<text text-anchor="start" x="195" y="-199" font-family="Helvetica,sans-Serif" font-size="10.00" fill="#000000">hydrogen_framework</text>
<text text-anchor="middle" x="264" y="-188" font-family="Helvetica,sans-Serif" font-size="10.00" fill="#000000">::Diff_Mapping::getFileName</text>
</a>
</g>
</g>
<!-- Node49&#45;&gt;Node50 -->
<g id="edge1" class="edge">
<title>Node49&#45;&gt;Node50</title>
<path fill="none" stroke="#191970" d="M99.9074,-126.198C121.9801,-139.2412 155.3686,-157.9458 186,-171 191.3635,-173.2858 197.0098,-175.4806 202.7106,-177.5551"/>
<polygon fill="#191970" stroke="#191970" points="201.721,-180.917 212.3158,-180.9273 204.0399,-174.3123 201.721,-180.917"/>
</g>
<!-- Node51 -->
<g id="node3" class="node">
<title>Node51</title>
<g id="a_node3"><a xlink:href="../../d0/d21/classhydrogen__framework_1_1Diff__Mapping.html#aca01ed12bdbad8101fbb489e9b9595b6" target="_top" xlink:title=" ">
<polygon fill="none" stroke="#000000" points="191,-120.5 191,-161.5 337,-161.5 337,-120.5 191,-120.5"/>
<text text-anchor="start" x="199" y="-149.5" font-family="Helvetica,sans-Serif" font-size="10.00" fill="#000000">hydrogen_framework</text>
<text text-anchor="start" x="199" y="-138.5" font-family="Helvetica,sans-Serif" font-size="10.00" fill="#000000">::Diff_Mapping::printAdded</text>
<text text-anchor="middle" x="264" y="-127.5" font-family="Helvetica,sans-Serif" font-size="10.00" fill="#000000">Lines</text>
</a>
</g>
</g>
<!-- Node49&#45;&gt;Node51 -->
<g id="edge2" class="edge">
<title>Node49&#45;&gt;Node51</title>
<path fill="none" stroke="#191970" d="M150.2409,-122.943C160.2777,-124.5361 170.6171,-126.1773 180.7801,-127.7905"/>
<polygon fill="#191970" stroke="#191970" points="180.4413,-131.2805 190.8664,-129.3915 181.5388,-124.367 180.4413,-131.2805"/>
</g>
<!-- Node52 -->
<g id="node4" class="node">
<title>Node52</title>
<g id="a_node4"><a xlink:href="../../d0/d21/classhydrogen__framework_1_1Diff__Mapping.html#ad2360584c6e4e766111614c8be2e5abc" target="_top" xlink:title=" ">
<polygon fill="none" stroke="#000000" points="187.5,-60.5 187.5,-101.5 340.5,-101.5 340.5,-60.5 187.5,-60.5"/>
<text text-anchor="start" x="195.5" y="-89.5" font-family="Helvetica,sans-Serif" font-size="10.00" fill="#000000">hydrogen_framework</text>
<text text-anchor="start" x="195.5" y="-78.5" font-family="Helvetica,sans-Serif" font-size="10.00" fill="#000000">::Diff_Mapping::printDeleted</text>
<text text-anchor="middle" x="264" y="-67.5" font-family="Helvetica,sans-Serif" font-size="10.00" fill="#000000">Lines</text>
</a>
</g>
</g>
<!-- Node49&#45;&gt;Node52 -->
<g id="edge3" class="edge">
<title>Node49&#45;&gt;Node52</title>
<path fill="none" stroke="#191970" d="M150.2409,-99.057C159.1413,-97.6442 168.2797,-96.1937 177.322,-94.7584"/>
<polygon fill="#191970" stroke="#191970" points="178.1447,-98.1717 187.4723,-93.1472 177.0473,-91.2583 178.1447,-98.1717"/>
</g>
<!-- Node53 -->
<g id="node5" class="node">
<title>Node53</title>
<g id="a_node5"><a xlink:href="../../d0/d21/classhydrogen__framework_1_1Diff__Mapping.html#ad6e3a5abe47f7449dfe496a1bfe8f422" target="_top" xlink:title=" ">
<polygon fill="none" stroke="#000000" points="186,-.5 186,-41.5 342,-41.5 342,-.5 186,-.5"/>
<text text-anchor="start" x="194" y="-29.5" font-family="Helvetica,sans-Serif" font-size="10.00" fill="#000000">hydrogen_framework</text>
<text text-anchor="start" x="194" y="-18.5" font-family="Helvetica,sans-Serif" font-size="10.00" fill="#000000">::Diff_Mapping::printMatched</text>
<text text-anchor="middle" x="264" y="-7.5" font-family="Helvetica,sans-Serif" font-size="10.00" fill="#000000">Lines</text>
</a>
</g>
</g>
<!-- Node49&#45;&gt;Node53 -->
<g id="edge4" class="edge">
<title>Node49&#45;&gt;Node53</title>
<path fill="none" stroke="#191970" d="M100.5373,-95.9788C122.7326,-83.22 155.952,-64.8302 186,-51 190.0383,-49.1413 194.2274,-47.2977 198.4732,-45.4923"/>
<polygon fill="#191970" stroke="#191970" points="199.9293,-48.6775 207.8223,-41.6099 197.2446,-42.2128 199.9293,-48.6775"/>
</g>
</g>
</svg>
