<?xml version="1.0" encoding="UTF-8" standalone="no"?>
<!DOCTYPE svg PUBLIC "-//W3C//DTD SVG 1.1//EN"
 "http://www.w3.org/Graphics/SVG/1.1/DTD/svg11.dtd">
<!-- Generated by graphviz version 2.40.1 (20161225.0304)
 -->
<!-- Title: hydrogen_framework::Diff_Util::recordSequence Pages: 1 -->
<svg width="324pt" height="88pt"
 viewBox="0.00 0.00 324.00 88.00" xmlns="http://www.w3.org/2000/svg" xmlns:xlink="http://www.w3.org/1999/xlink">
<g id="graph0" class="graph" transform="scale(1 1) rotate(0) translate(4 84)">
<title>hydrogen_framework::Diff_Util::recordSequence</title>
<!-- Node23 -->
<g id="node1" class="node">
<title>Node23</title>
<g id="a_node1"><a xlink:title=" ">
<polygon fill="#bfbfbf" stroke="#000000" points="0,-24.5 0,-54.5 146,-54.5 146,-24.5 0,-24.5"/>
<text text-anchor="start" x="8" y="-42.5" font-family="Helvetica,sans-Serif" font-size="10.00" fill="#000000">hydrogen_framework</text>
<text text-anchor="middle" x="73" y="-31.5" font-family="Helvetica,sans-Serif" font-size="10.00" fill="#000000">::Diff_Util::recordSequence</text>
</a>
</g>
</g>
<!-- Node24 -->
<g id="node2" class="node">
<title>Node24</title>
<g id="a_node2"><a xlink:href="../../d1/d16/classhydrogen__framework_1_1Diff__Ses.html#aad048cb9107135ef5fce5e808814872d" target="_top" xlink:title=" ">
<polygon fill="none" stroke="#000000" points="182,-49.5 182,-79.5 316,-79.5 316,-49.5 182,-49.5"/>
<text text-anchor="start" x="190" y="-67.5" font-family="Helvetica,sans-Serif" font-size="10.00" fill="#000000">hydrogen_framework</text>
<text text-anchor="middle" x="249" y="-56.5" font-family="Helvetica,sans-Serif" font-size="10.00" fill="#000000">::Diff_Ses::addSequence</text>
</a>
</g>
</g>
<!-- Node23&#45;&gt;Node24 -->
<g id="edge1" class="edge">
<title>Node23&#45;&gt;Node24</title>
<path fill="none" stroke="#191970" d="M146.1108,-49.8851C154.5961,-51.0904 163.2716,-52.3227 171.8093,-53.5354"/>
<polygon fill="#191970" stroke="#191970" points="171.356,-57.0061 181.7488,-54.9473 172.3405,-50.0756 171.356,-57.0061"/>
</g>
<!-- Node25 -->
<g id="node3" class="node">
<title>Node25</title>
<g id="a_node3"><a xlink:href="../../d2/d24/classhydrogen__framework_1_1Diff__Util.html#a13df93008042bf13d0a816819e96a327" target="_top" xlink:title=" ">
<polygon fill="none" stroke="#000000" points="183,-.5 183,-30.5 315,-30.5 315,-.5 183,-.5"/>
<text text-anchor="start" x="191" y="-18.5" font-family="Helvetica,sans-Serif" font-size="10.00" fill="#000000">hydrogen_framework</text>
<text text-anchor="middle" x="249" y="-7.5" font-family="Helvetica,sans-Serif" font-size="10.00" fill="#000000">::Diff_Util::wasSwapped</text>
</a>
</g>
</g>
<!-- Node23&#45;&gt;Node25 -->
<g id="edge2" class="edge">
<title>Node23&#45;&gt;Node25</title>
<path fill="none" stroke="#191970" d="M146.1108,-29.5303C154.9628,-28.3233 164.0218,-27.0879 172.9154,-25.8752"/>
<polygon fill="#191970" stroke="#191970" points="173.4311,-29.3373 182.8665,-24.5182 172.4852,-22.4015 173.4311,-29.3373"/>
</g>
</g>
</svg>
