<?xml version="1.0" encoding="UTF-8" standalone="no"?>
<!DOCTYPE svg PUBLIC "-//W3C//DTD SVG 1.1//EN"
 "http://www.w3.org/Graphics/SVG/1.1/DTD/svg11.dtd">
<!-- Generated by graphviz version 2.40.1 (20161225.0304)
 -->
<!-- Title: hydrogen_framework::Diff_Util::compose Pages: 1 -->
<svg width="481pt" height="137pt"
 viewBox="0.00 0.00 481.00 137.00" xmlns="http://www.w3.org/2000/svg" xmlns:xlink="http://www.w3.org/1999/xlink">
<g id="graph0" class="graph" transform="scale(1 1) rotate(0) translate(4 133)">
<title>hydrogen_framework::Diff_Util::compose</title>
<!-- Node7 -->
<g id="node1" class="node">
<title>Node7</title>
<g id="a_node1"><a xlink:title=" ">
<polygon fill="#bfbfbf" stroke="#000000" points="0,-24.5 0,-54.5 121,-54.5 121,-24.5 0,-24.5"/>
<text text-anchor="start" x="8" y="-42.5" font-family="Helvetica,sans-Serif" font-size="10.00" fill="#000000">hydrogen_framework</text>
<text text-anchor="middle" x="60.5" y="-31.5" font-family="Helvetica,sans-Serif" font-size="10.00" fill="#000000">::Diff_Util::compose</text>
</a>
</g>
</g>
<!-- Node8 -->
<g id="node2" class="node">
<title>Node8</title>
<g id="a_node2"><a xlink:href="../../d2/d24/classhydrogen__framework_1_1Diff__Util.html#a8a55acedee5057dd3c8394106da2dcaf" target="_top" xlink:title=" ">
<polygon fill="none" stroke="#000000" points="157,-49.5 157,-79.5 303,-79.5 303,-49.5 157,-49.5"/>
<text text-anchor="start" x="165" y="-67.5" font-family="Helvetica,sans-Serif" font-size="10.00" fill="#000000">hydrogen_framework</text>
<text text-anchor="middle" x="230" y="-56.5" font-family="Helvetica,sans-Serif" font-size="10.00" fill="#000000">::Diff_Util::recordSequence</text>
</a>
</g>
</g>
<!-- Node7&#45;&gt;Node8 -->
<g id="edge1" class="edge">
<title>Node7&#45;&gt;Node8</title>
<path fill="none" stroke="#191970" d="M121.2146,-48.455C129.5443,-49.6835 138.2117,-50.9619 146.8567,-52.237"/>
<polygon fill="#191970" stroke="#191970" points="146.5697,-55.7324 156.9734,-53.7291 147.5912,-48.8074 146.5697,-55.7324"/>
</g>
<!-- Node11 -->
<g id="node5" class="node">
<title>Node11</title>
<g id="a_node5"><a xlink:href="../../d2/d24/classhydrogen__framework_1_1Diff__Util.html#a5e20bf56f59450ea74fff6d62f5fa80e" target="_top" xlink:title=" ">
<polygon fill="none" stroke="#000000" points="169.5,-.5 169.5,-30.5 290.5,-30.5 290.5,-.5 169.5,-.5"/>
<text text-anchor="start" x="177.5" y="-18.5" font-family="Helvetica,sans-Serif" font-size="10.00" fill="#000000">hydrogen_framework</text>
<text text-anchor="middle" x="230" y="-7.5" font-family="Helvetica,sans-Serif" font-size="10.00" fill="#000000">::Diff_Util::snake</text>
</a>
</g>
</g>
<!-- Node7&#45;&gt;Node11 -->
<g id="edge4" class="edge">
<title>Node7&#45;&gt;Node11</title>
<path fill="none" stroke="#191970" d="M121.2146,-30.9032C133.5822,-29.1521 146.6943,-27.2955 159.3724,-25.5004"/>
<polygon fill="#191970" stroke="#191970" points="160.014,-28.9445 169.4246,-24.0771 159.0326,-22.0137 160.014,-28.9445"/>
</g>
<!-- Node9 -->
<g id="node3" class="node">
<title>Node9</title>
<g id="a_node3"><a xlink:href="../../d2/d24/classhydrogen__framework_1_1Diff__Util.html#a13df93008042bf13d0a816819e96a327" target="_top" xlink:title=" ">
<polygon fill="none" stroke="#000000" points="340,-98.5 340,-128.5 472,-128.5 472,-98.5 340,-98.5"/>
<text text-anchor="start" x="348" y="-116.5" font-family="Helvetica,sans-Serif" font-size="10.00" fill="#000000">hydrogen_framework</text>
<text text-anchor="middle" x="406" y="-105.5" font-family="Helvetica,sans-Serif" font-size="10.00" fill="#000000">::Diff_Util::wasSwapped</text>
</a>
</g>
</g>
<!-- Node8&#45;&gt;Node9 -->
<g id="edge2" class="edge">
<title>Node8&#45;&gt;Node9</title>
<path fill="none" stroke="#191970" d="M284.2419,-79.6014C302.5619,-84.7019 323.1827,-90.4429 342.1748,-95.7305"/>
<polygon fill="#191970" stroke="#191970" points="341.3648,-99.138 351.9372,-98.4484 343.2423,-92.3945 341.3648,-99.138"/>
</g>
<!-- Node10 -->
<g id="node4" class="node">
<title>Node10</title>
<g id="a_node4"><a xlink:href="../../d1/d16/classhydrogen__framework_1_1Diff__Ses.html#aad048cb9107135ef5fce5e808814872d" target="_top" xlink:title=" ">
<polygon fill="none" stroke="#000000" points="339,-49.5 339,-79.5 473,-79.5 473,-49.5 339,-49.5"/>
<text text-anchor="start" x="347" y="-67.5" font-family="Helvetica,sans-Serif" font-size="10.00" fill="#000000">hydrogen_framework</text>
<text text-anchor="middle" x="406" y="-56.5" font-family="Helvetica,sans-Serif" font-size="10.00" fill="#000000">::Diff_Ses::addSequence</text>
</a>
</g>
</g>
<!-- Node8&#45;&gt;Node10 -->
<g id="edge3" class="edge">
<title>Node8&#45;&gt;Node10</title>
<path fill="none" stroke="#191970" d="M303.1108,-64.5C311.5039,-64.5 320.083,-64.5 328.5309,-64.5"/>
<polygon fill="#191970" stroke="#191970" points="328.7489,-68.0001 338.7488,-64.5 328.7488,-61.0001 328.7489,-68.0001"/>
</g>
<!-- Node12 -->
<g id="node6" class="node">
<title>Node12</title>
<g id="a_node6"><a xlink:href="../../d1/d32/classhydrogen__framework_1_1Diff__Compare.html#a0ca27f55c1d86275e679b5b2c89e8e14" target="_top" xlink:title=" ">
<polygon fill="none" stroke="#000000" points="345.5,-.5 345.5,-30.5 466.5,-30.5 466.5,-.5 345.5,-.5"/>
<text text-anchor="start" x="353.5" y="-18.5" font-family="Helvetica,sans-Serif" font-size="10.00" fill="#000000">hydrogen_framework</text>
<text text-anchor="middle" x="406" y="-7.5" font-family="Helvetica,sans-Serif" font-size="10.00" fill="#000000">::Diff_Compare::impl</text>
</a>
</g>
</g>
<!-- Node11&#45;&gt;Node12 -->
<g id="edge5" class="edge">
<title>Node11&#45;&gt;Node12</title>
<path fill="none" stroke="#191970" d="M290.5692,-15.5C304.9499,-15.5 320.4166,-15.5 335.2082,-15.5"/>
<polygon fill="#191970" stroke="#191970" points="335.3192,-19.0001 345.3191,-15.5 335.3191,-12.0001 335.3192,-19.0001"/>
</g>
</g>
</svg>
