<?xml version="1.0" encoding="UTF-8" standalone="no"?>
<!DOCTYPE svg PUBLIC "-//W3C//DTD SVG 1.1//EN"
 "http://www.w3.org/Graphics/SVG/1.1/DTD/svg11.dtd">
<!-- Generated by graphviz version 2.40.1 (0)
 -->
<!-- Title: hydrogen_framework::Diff_Util Pages: 1 -->
<svg width="927pt" height="933pt"
 viewBox="0.00 0.00 926.50 933.00" xmlns="http://www.w3.org/2000/svg" xmlns:xlink="http://www.w3.org/1999/xlink">
<g id="graph0" class="graph" transform="scale(1 1) rotate(0) translate(4 929)">
<title>hydrogen_framework::Diff_Util</title>
<!-- Node2 -->
<g id="node1" class="node">
<title>Node2</title>
<g id="a_node1"><a xlink:title=" ">
<polygon fill="#bfbfbf" stroke="#000000" points="336.5,-.5 336.5,-156.5 457.5,-156.5 457.5,-.5 336.5,-.5"/>
<text text-anchor="start" x="344.5" y="-144.5" font-family="Helvetica,sans-Serif" font-size="10.00" fill="#000000">hydrogen_framework</text>
<text text-anchor="middle" x="397" y="-133.5" font-family="Helvetica,sans-Serif" font-size="10.00" fill="#000000">::Diff_Util</text>
<polyline fill="none" stroke="#000000" points="336.5,-126.5 457.5,-126.5 "/>
<text text-anchor="middle" x="397" y="-114.5" font-family="Helvetica,sans-Serif" font-size="10.00" fill="#000000"> </text>
<polyline fill="none" stroke="#000000" points="336.5,-107.5 457.5,-107.5 "/>
<text text-anchor="start" x="344.5" y="-95.5" font-family="Helvetica,sans-Serif" font-size="10.00" fill="#000000">+ Diff_Util()</text>
<text text-anchor="start" x="344.5" y="-84.5" font-family="Helvetica,sans-Serif" font-size="10.00" fill="#000000">+ Diff_Util()</text>
<text text-anchor="start" x="344.5" y="-73.5" font-family="Helvetica,sans-Serif" font-size="10.00" fill="#000000">+ ~Diff_Util()</text>
<text text-anchor="start" x="344.5" y="-62.5" font-family="Helvetica,sans-Serif" font-size="10.00" fill="#000000">+ compose()</text>
<text text-anchor="start" x="344.5" y="-51.5" font-family="Helvetica,sans-Serif" font-size="10.00" fill="#000000">+ getSes()</text>
<text text-anchor="start" x="344.5" y="-40.5" font-family="Helvetica,sans-Serif" font-size="10.00" fill="#000000">&#45; init()</text>
<text text-anchor="start" x="344.5" y="-29.5" font-family="Helvetica,sans-Serif" font-size="10.00" fill="#000000">&#45; recordSequence()</text>
<text text-anchor="start" x="344.5" y="-18.5" font-family="Helvetica,sans-Serif" font-size="10.00" fill="#000000">&#45; snake()</text>
<text text-anchor="start" x="344.5" y="-7.5" font-family="Helvetica,sans-Serif" font-size="10.00" fill="#000000">&#45; wasSwapped()</text>
</a>
</g>
</g>
<!-- Node3 -->
<g id="node2" class="node">
<title>Node3</title>
<g id="a_node2"><a xlink:href="../../d3/db1/classhydrogen__framework_1_1Diff__Vars.html" target="_top" xlink:title=" ">
<polygon fill="none" stroke="#000000" points="58.5,-612.5 58.5,-691.5 179.5,-691.5 179.5,-612.5 58.5,-612.5"/>
<text text-anchor="start" x="66.5" y="-679.5" font-family="Helvetica,sans-Serif" font-size="10.00" fill="#000000">hydrogen_framework</text>
<text text-anchor="middle" x="119" y="-668.5" font-family="Helvetica,sans-Serif" font-size="10.00" fill="#000000">::Diff_Vars</text>
<polyline fill="none" stroke="#000000" points="58.5,-661.5 179.5,-661.5 "/>
<text text-anchor="middle" x="119" y="-649.5" font-family="Helvetica,sans-Serif" font-size="10.00" fill="#000000"> </text>
<polyline fill="none" stroke="#000000" points="58.5,-642.5 179.5,-642.5 "/>
<text text-anchor="start" x="66.5" y="-630.5" font-family="Helvetica,sans-Serif" font-size="10.00" fill="#000000">+ Diff_Vars()</text>
<text text-anchor="start" x="66.5" y="-619.5" font-family="Helvetica,sans-Serif" font-size="10.00" fill="#000000">+ ~Diff_Vars()</text>
</a>
</g>
</g>
<!-- Node3&#45;&gt;Node2 -->
<g id="edge1" class="edge">
<title>Node3&#45;&gt;Node2</title>
<path fill="none" stroke="#8b1a1a" d="M95.3591,-603.1805C57.5691,-517.4176 -4.7754,-337.2262 72,-215 128.8032,-124.5695 259.1737,-93.9987 336.4259,-83.699"/>
<polygon fill="none" stroke="#8b1a1a" points="92.2151,-604.7235 99.4969,-612.4194 98.6036,-601.8623 92.2151,-604.7235"/>
</g>
<!-- Node10 -->
<g id="node9" class="node">
<title>Node10</title>
<g id="a_node9"><a xlink:href="../../d8/d3a/classhydrogen__framework_1_1Diff__Sequence.html" target="_top" xlink:title=" ">
<polygon fill="none" stroke="#000000" points="226.5,-463.5 226.5,-564.5 347.5,-564.5 347.5,-463.5 226.5,-463.5"/>
<text text-anchor="start" x="234.5" y="-552.5" font-family="Helvetica,sans-Serif" font-size="10.00" fill="#000000">hydrogen_framework</text>
<text text-anchor="middle" x="287" y="-541.5" font-family="Helvetica,sans-Serif" font-size="10.00" fill="#000000">::Diff_Sequence</text>
<polyline fill="none" stroke="#000000" points="226.5,-534.5 347.5,-534.5 "/>
<text text-anchor="middle" x="287" y="-522.5" font-family="Helvetica,sans-Serif" font-size="10.00" fill="#000000"> </text>
<polyline fill="none" stroke="#000000" points="226.5,-515.5 347.5,-515.5 "/>
<text text-anchor="start" x="234.5" y="-503.5" font-family="Helvetica,sans-Serif" font-size="10.00" fill="#000000">+ Diff_Sequence()</text>
<text text-anchor="start" x="234.5" y="-492.5" font-family="Helvetica,sans-Serif" font-size="10.00" fill="#000000">+ ~Diff_Sequence()</text>
<text text-anchor="start" x="234.5" y="-481.5" font-family="Helvetica,sans-Serif" font-size="10.00" fill="#000000">+ addSequence()</text>
<text text-anchor="start" x="234.5" y="-470.5" font-family="Helvetica,sans-Serif" font-size="10.00" fill="#000000">+ getSequence()</text>
</a>
</g>
</g>
<!-- Node3&#45;&gt;Node10 -->
<g id="edge9" class="edge">
<title>Node3&#45;&gt;Node10</title>
<path fill="none" stroke="#191970" d="M175.0692,-605.9432C191.5068,-592.4408 209.5547,-577.6158 226.2684,-563.8867"/>
<polygon fill="none" stroke="#191970" points="172.6477,-603.4028 167.1421,-612.4547 177.0909,-608.8119 172.6477,-603.4028"/>
</g>
<!-- Node4 -->
<g id="node3" class="node">
<title>Node4</title>
<g id="a_node3"><a xlink:title="STL class.">
<polygon fill="none" stroke="#bfbfbf" points="19.5,-761.5 19.5,-818.5 84.5,-818.5 84.5,-761.5 19.5,-761.5"/>
<text text-anchor="middle" x="52" y="-806.5" font-family="Helvetica,sans-Serif" font-size="10.00" fill="#000000">std::string</text>
<polyline fill="none" stroke="#bfbfbf" points="19.5,-799.5 84.5,-799.5 "/>
<text text-anchor="middle" x="52" y="-787.5" font-family="Helvetica,sans-Serif" font-size="10.00" fill="#000000"> </text>
<polyline fill="none" stroke="#bfbfbf" points="19.5,-780.5 84.5,-780.5 "/>
<text text-anchor="middle" x="52" y="-768.5" font-family="Helvetica,sans-Serif" font-size="10.00" fill="#000000"> </text>
</a>
</g>
</g>
<!-- Node4&#45;&gt;Node3 -->
<g id="edge2" class="edge">
<title>Node4&#45;&gt;Node3</title>
<path fill="none" stroke="#404040" d="M46.8532,-761.3629C45.3292,-745.528 45.6857,-725.8997 53,-710 54.3109,-707.1504 55.837,-704.3845 57.5353,-701.707"/>
<polygon fill="none" stroke="#404040" points="57.708,-701.4737 58.0633,-694.2713 64.8483,-691.8292 64.493,-699.0316 57.708,-701.4737"/>
<text text-anchor="middle" x="109" y="-735" font-family="Helvetica,sans-Serif" font-size="10.00" fill="#000000"> +SES_MARK_ADD</text>
<text text-anchor="middle" x="109" y="-724" font-family="Helvetica,sans-Serif" font-size="10.00" fill="#000000">+SES_MARK_COMMON</text>
<text text-anchor="middle" x="109" y="-713" font-family="Helvetica,sans-Serif" font-size="10.00" fill="#000000">+SES_MARK_DELETE</text>
</g>
<!-- Node5 -->
<g id="node4" class="node">
<title>Node5</title>
<g id="a_node4"><a xlink:title="STL class.">
<polygon fill="none" stroke="#bfbfbf" points="0,-856.5 0,-924.5 104,-924.5 104,-856.5 0,-856.5"/>
<text text-anchor="start" x="8" y="-912.5" font-family="Helvetica,sans-Serif" font-size="10.00" fill="#000000">std::basic_string&lt;</text>
<text text-anchor="middle" x="52" y="-901.5" font-family="Helvetica,sans-Serif" font-size="10.00" fill="#000000"> char &gt;</text>
<polyline fill="none" stroke="#bfbfbf" points="0,-894.5 104,-894.5 "/>
<text text-anchor="middle" x="52" y="-882.5" font-family="Helvetica,sans-Serif" font-size="10.00" fill="#000000"> </text>
<polyline fill="none" stroke="#bfbfbf" points="0,-875.5 104,-875.5 "/>
<text text-anchor="middle" x="52" y="-863.5" font-family="Helvetica,sans-Serif" font-size="10.00" fill="#000000"> </text>
</a>
</g>
</g>
<!-- Node5&#45;&gt;Node4 -->
<g id="edge3" class="edge">
<title>Node5&#45;&gt;Node4</title>
<path fill="none" stroke="#191970" d="M52,-846.4301C52,-837.0073 52,-827.2901 52,-818.6312"/>
<polygon fill="none" stroke="#191970" points="48.5001,-846.4752 52,-856.4753 55.5001,-846.4753 48.5001,-846.4752"/>
</g>
<!-- Node6 -->
<g id="node5" class="node">
<title>Node6</title>
<g id="a_node5"><a xlink:title=" ">
<polygon fill="none" stroke="#bfbfbf" points="156.5,-761.5 156.5,-818.5 217.5,-818.5 217.5,-761.5 156.5,-761.5"/>
<text text-anchor="middle" x="187" y="-806.5" font-family="Helvetica,sans-Serif" font-size="10.00" fill="#000000">unsigned</text>
<polyline fill="none" stroke="#bfbfbf" points="156.5,-799.5 217.5,-799.5 "/>
<text text-anchor="middle" x="187" y="-787.5" font-family="Helvetica,sans-Serif" font-size="10.00" fill="#000000"> </text>
<polyline fill="none" stroke="#bfbfbf" points="156.5,-780.5 217.5,-780.5 "/>
<text text-anchor="middle" x="187" y="-768.5" font-family="Helvetica,sans-Serif" font-size="10.00" fill="#000000"> </text>
</a>
</g>
</g>
<!-- Node6&#45;&gt;Node3 -->
<g id="edge4" class="edge">
<title>Node6&#45;&gt;Node3</title>
<path fill="none" stroke="#404040" d="M182.0123,-761.2085C178.5817,-745.5076 173.1456,-726.0578 165,-710 163.6264,-707.2922 162.1146,-704.5902 160.5018,-701.916"/>
<polygon fill="none" stroke="#404040" points="160.4394,-701.8208 153.8042,-698.9969 153.8589,-691.786 160.4941,-694.6099 160.4394,-701.8208"/>
<text text-anchor="middle" x="242.5" y="-724" font-family="Helvetica,sans-Serif" font-size="10.00" fill="#000000"> +MAX_CORDINATES_SIZE</text>
</g>
<!-- Node7 -->
<g id="node6" class="node">
<title>Node7</title>
<g id="a_node6"><a xlink:title=" ">
<polygon fill="none" stroke="#bfbfbf" points="81,-270.5 81,-327.5 137,-327.5 137,-270.5 81,-270.5"/>
<text text-anchor="middle" x="109" y="-315.5" font-family="Helvetica,sans-Serif" font-size="10.00" fill="#000000">editPath</text>
<polyline fill="none" stroke="#bfbfbf" points="81,-308.5 137,-308.5 "/>
<text text-anchor="middle" x="109" y="-296.5" font-family="Helvetica,sans-Serif" font-size="10.00" fill="#000000"> </text>
<polyline fill="none" stroke="#bfbfbf" points="81,-289.5 137,-289.5 "/>
<text text-anchor="middle" x="109" y="-277.5" font-family="Helvetica,sans-Serif" font-size="10.00" fill="#000000"> </text>
</a>
</g>
</g>
<!-- Node7&#45;&gt;Node2 -->
<g id="edge5" class="edge">
<title>Node7&#45;&gt;Node2</title>
<path fill="none" stroke="#404040" d="M118.8727,-270.1263C125.3026,-253.3075 134.6087,-232.1118 146,-215 159.5882,-194.5881 164.0174,-189.2119 184,-175 227.2765,-144.2212 281.9404,-119.7009 325.0548,-103.0796"/>
<polygon fill="none" stroke="#404040" points="325.0976,-103.0634 329.2924,-97.1979 336.3201,-98.8141 332.1253,-104.6796 325.0976,-103.0634"/>
<text text-anchor="middle" x="198.5" y="-183.5" font-family="Helvetica,sans-Serif" font-size="10.00" fill="#000000"> &#45;path</text>
</g>
<!-- Node8 -->
<g id="node7" class="node">
<title>Node8</title>
<g id="a_node7"><a xlink:title=" ">
<polygon fill="none" stroke="#bfbfbf" points="155,-270.5 155,-327.5 225,-327.5 225,-270.5 155,-270.5"/>
<text text-anchor="middle" x="190" y="-315.5" font-family="Helvetica,sans-Serif" font-size="10.00" fill="#000000">long long *</text>
<polyline fill="none" stroke="#bfbfbf" points="155,-308.5 225,-308.5 "/>
<text text-anchor="middle" x="190" y="-296.5" font-family="Helvetica,sans-Serif" font-size="10.00" fill="#000000"> </text>
<polyline fill="none" stroke="#bfbfbf" points="155,-289.5 225,-289.5 "/>
<text text-anchor="middle" x="190" y="-277.5" font-family="Helvetica,sans-Serif" font-size="10.00" fill="#000000"> </text>
</a>
</g>
</g>
<!-- Node8&#45;&gt;Node2 -->
<g id="edge6" class="edge">
<title>Node8&#45;&gt;Node2</title>
<path fill="none" stroke="#404040" d="M193.2659,-270.3633C197.6326,-243.2632 207.6138,-202.715 230,-175 254.7639,-144.3412 292.0559,-121.476 325.1222,-105.7186"/>
<polygon fill="none" stroke="#404040" points="325.2478,-105.6609 329.0273,-99.5195 336.1498,-100.6462 332.3704,-106.7876 325.2478,-105.6609"/>
<text text-anchor="middle" x="238.5" y="-183.5" font-family="Helvetica,sans-Serif" font-size="10.00" fill="#000000"> &#45;fp</text>
</g>
<!-- Node9 -->
<g id="node8" class="node">
<title>Node9</title>
<g id="a_node8"><a xlink:href="../../d1/d16/classhydrogen__framework_1_1Diff__Ses.html" target="_top" xlink:title=" ">
<polygon fill="none" stroke="#000000" points="330,-215.5 330,-382.5 464,-382.5 464,-215.5 330,-215.5"/>
<text text-anchor="start" x="338" y="-370.5" font-family="Helvetica,sans-Serif" font-size="10.00" fill="#000000">hydrogen_framework</text>
<text text-anchor="middle" x="397" y="-359.5" font-family="Helvetica,sans-Serif" font-size="10.00" fill="#000000">::Diff_Ses</text>
<polyline fill="none" stroke="#000000" points="330,-352.5 464,-352.5 "/>
<text text-anchor="middle" x="397" y="-340.5" font-family="Helvetica,sans-Serif" font-size="10.00" fill="#000000"> </text>
<polyline fill="none" stroke="#000000" points="330,-333.5 464,-333.5 "/>
<text text-anchor="start" x="338" y="-321.5" font-family="Helvetica,sans-Serif" font-size="10.00" fill="#000000">+ Diff_Ses()</text>
<text text-anchor="start" x="338" y="-310.5" font-family="Helvetica,sans-Serif" font-size="10.00" fill="#000000">+ Diff_Ses()</text>
<text text-anchor="start" x="338" y="-299.5" font-family="Helvetica,sans-Serif" font-size="10.00" fill="#000000">+ ~Diff_Ses()</text>
<text text-anchor="start" x="338" y="-288.5" font-family="Helvetica,sans-Serif" font-size="10.00" fill="#000000">+ addSequence()</text>
<text text-anchor="start" x="338" y="-277.5" font-family="Helvetica,sans-Serif" font-size="10.00" fill="#000000">+ getSequence()</text>
<text text-anchor="start" x="338" y="-266.5" font-family="Helvetica,sans-Serif" font-size="10.00" fill="#000000">+ isChange()</text>
<text text-anchor="start" x="338" y="-255.5" font-family="Helvetica,sans-Serif" font-size="10.00" fill="#000000">+ isOnlyAdd()</text>
<text text-anchor="start" x="338" y="-244.5" font-family="Helvetica,sans-Serif" font-size="10.00" fill="#000000">+ isOnlyCopy()</text>
<text text-anchor="start" x="338" y="-233.5" font-family="Helvetica,sans-Serif" font-size="10.00" fill="#000000">+ isOnlyDelete()</text>
<text text-anchor="start" x="338" y="-222.5" font-family="Helvetica,sans-Serif" font-size="10.00" fill="#000000">+ isOnlyOneOperation()</text>
</a>
</g>
</g>
<!-- Node9&#45;&gt;Node2 -->
<g id="edge7" class="edge">
<title>Node9&#45;&gt;Node2</title>
<path fill="none" stroke="#404040" d="M397,-215.324C397,-200.135 397,-184.2305 397,-168.8594"/>
<polygon fill="none" stroke="#404040" points="397.0001,-168.6704 393,-162.6705 397,-156.6704 401,-162.6704 397.0001,-168.6704"/>
<text text-anchor="middle" x="409" y="-183.5" font-family="Helvetica,sans-Serif" font-size="10.00" fill="#000000"> &#45;ses</text>
</g>
<!-- Node10&#45;&gt;Node9 -->
<g id="edge8" class="edge">
<title>Node10&#45;&gt;Node9</title>
<path fill="none" stroke="#191970" d="M343.6113,-455.0282C345.8941,-451.7273 348.0413,-448.3762 350,-445 361.0911,-425.883 369.9308,-403.8149 376.8132,-382.719"/>
<polygon fill="none" stroke="#191970" points="340.7731,-452.9801 337.6876,-463.1157 346.4203,-457.1164 340.7731,-452.9801"/>
</g>
<!-- Node11 -->
<g id="node10" class="node">
<title>Node11</title>
<g id="a_node10"><a xlink:title=" ">
<polygon fill="none" stroke="#bfbfbf" points="257.5,-623.5 257.5,-680.5 316.5,-680.5 316.5,-623.5 257.5,-623.5"/>
<text text-anchor="middle" x="287" y="-668.5" font-family="Helvetica,sans-Serif" font-size="10.00" fill="#000000">elemVec</text>
<polyline fill="none" stroke="#bfbfbf" points="257.5,-661.5 316.5,-661.5 "/>
<text text-anchor="middle" x="287" y="-649.5" font-family="Helvetica,sans-Serif" font-size="10.00" fill="#000000"> </text>
<polyline fill="none" stroke="#bfbfbf" points="257.5,-642.5 316.5,-642.5 "/>
<text text-anchor="middle" x="287" y="-630.5" font-family="Helvetica,sans-Serif" font-size="10.00" fill="#000000"> </text>
</a>
</g>
</g>
<!-- Node11&#45;&gt;Node10 -->
<g id="edge10" class="edge">
<title>Node11&#45;&gt;Node10</title>
<path fill="none" stroke="#404040" d="M287,-623.4063C287,-609.8804 287,-593.1561 287,-576.8884"/>
<polygon fill="none" stroke="#404040" points="287.0001,-576.5979 283,-570.5979 287,-564.5979 291,-570.5979 287.0001,-576.5979"/>
<text text-anchor="middle" x="316" y="-586" font-family="Helvetica,sans-Serif" font-size="10.00" fill="#000000"> #sequence</text>
</g>
<!-- Node12 -->
<g id="node11" class="node">
<title>Node12</title>
<g id="a_node11"><a xlink:title=" ">
<polygon fill="none" stroke="#bfbfbf" points="365.5,-485.5 365.5,-542.5 440.5,-542.5 440.5,-485.5 365.5,-485.5"/>
<text text-anchor="middle" x="403" y="-530.5" font-family="Helvetica,sans-Serif" font-size="10.00" fill="#000000">sesElemVec</text>
<polyline fill="none" stroke="#bfbfbf" points="365.5,-523.5 440.5,-523.5 "/>
<text text-anchor="middle" x="403" y="-511.5" font-family="Helvetica,sans-Serif" font-size="10.00" fill="#000000"> </text>
<polyline fill="none" stroke="#bfbfbf" points="365.5,-504.5 440.5,-504.5 "/>
<text text-anchor="middle" x="403" y="-492.5" font-family="Helvetica,sans-Serif" font-size="10.00" fill="#000000"> </text>
</a>
</g>
</g>
<!-- Node12&#45;&gt;Node9 -->
<g id="edge11" class="edge">
<title>Node12&#45;&gt;Node9</title>
<path fill="none" stroke="#404040" d="M400.5128,-485.4884C399.5378,-473.0628 398.5277,-458.3213 398,-445 397.3581,-428.797 396.9746,-411.5749 396.7604,-394.8548"/>
<polygon fill="none" stroke="#404040" points="396.7598,-394.7897 392.6967,-388.8323 396.6331,-382.7904 400.6962,-388.7478 396.7598,-394.7897"/>
<text text-anchor="middle" x="431.5" y="-420.5" font-family="Helvetica,sans-Serif" font-size="10.00" fill="#000000"> &#45;sequenceDS</text>
</g>
<!-- Node13 -->
<g id="node12" class="node">
<title>Node13</title>
<g id="a_node12"><a xlink:title=" ">
<polygon fill="none" stroke="#bfbfbf" points="509.5,-485.5 509.5,-542.5 554.5,-542.5 554.5,-485.5 509.5,-485.5"/>
<text text-anchor="middle" x="532" y="-530.5" font-family="Helvetica,sans-Serif" font-size="10.00" fill="#000000">size_t</text>
<polyline fill="none" stroke="#bfbfbf" points="509.5,-523.5 554.5,-523.5 "/>
<text text-anchor="middle" x="532" y="-511.5" font-family="Helvetica,sans-Serif" font-size="10.00" fill="#000000"> </text>
<polyline fill="none" stroke="#bfbfbf" points="509.5,-504.5 554.5,-504.5 "/>
<text text-anchor="middle" x="532" y="-492.5" font-family="Helvetica,sans-Serif" font-size="10.00" fill="#000000"> </text>
</a>
</g>
</g>
<!-- Node13&#45;&gt;Node2 -->
<g id="edge14" class="edge">
<title>Node13&#45;&gt;Node2</title>
<path fill="none" stroke="#404040" d="M550.013,-485.3152C562.1376,-462.2582 574.2034,-429.1824 564,-401 560.4549,-391.2083 554.5297,-391.8242 549,-383 505.4834,-313.5568 509.8538,-288.1973 473,-215 465.1707,-199.4498 456.4897,-183.1162 447.8762,-167.3696"/>
<polygon fill="none" stroke="#404040" points="447.7228,-167.0909 441.3249,-163.764 441.9351,-156.5788 448.333,-159.9056 447.7228,-167.0909"/>
<text text-anchor="middle" x="565" y="-313" font-family="Helvetica,sans-Serif" font-size="10.00" fill="#000000"> &#45;delta</text>
<text text-anchor="middle" x="565" y="-302" font-family="Helvetica,sans-Serif" font-size="10.00" fill="#000000">&#45;offset</text>
<text text-anchor="middle" x="565" y="-291" font-family="Helvetica,sans-Serif" font-size="10.00" fill="#000000">&#45;M</text>
<text text-anchor="middle" x="565" y="-280" font-family="Helvetica,sans-Serif" font-size="10.00" fill="#000000">&#45;N</text>
</g>
<!-- Node13&#45;&gt;Node9 -->
<g id="edge12" class="edge">
<title>Node13&#45;&gt;Node9</title>
<path fill="none" stroke="#404040" d="M513.0288,-485.469C505.0532,-473.1678 495.8286,-458.5261 488,-445 476.9466,-425.902 476.247,-419.9847 465,-401 463.4339,-398.3564 461.8281,-395.6865 460.1921,-393.0018"/>
<polygon fill="none" stroke="#404040" points="460.0677,-392.8008 453.5088,-389.8039 453.7525,-382.5969 460.3114,-385.5938 460.0677,-392.8008"/>
<text text-anchor="middle" x="526" y="-420.5" font-family="Helvetica,sans-Serif" font-size="10.00" fill="#000000"> &#45;nextDeleteIdx</text>
</g>
<!-- Node14 -->
<g id="node13" class="node">
<title>Node14</title>
<g id="a_node13"><a xlink:title=" ">
<polygon fill="none" stroke="#bfbfbf" points="170,-485.5 170,-542.5 208,-542.5 208,-485.5 170,-485.5"/>
<text text-anchor="middle" x="189" y="-530.5" font-family="Helvetica,sans-Serif" font-size="10.00" fill="#000000">bool</text>
<polyline fill="none" stroke="#bfbfbf" points="170,-523.5 208,-523.5 "/>
<text text-anchor="middle" x="189" y="-511.5" font-family="Helvetica,sans-Serif" font-size="10.00" fill="#000000"> </text>
<polyline fill="none" stroke="#bfbfbf" points="170,-504.5 208,-504.5 "/>
<text text-anchor="middle" x="189" y="-492.5" font-family="Helvetica,sans-Serif" font-size="10.00" fill="#000000"> </text>
</a>
</g>
</g>
<!-- Node14&#45;&gt;Node2 -->
<g id="edge15" class="edge">
<title>Node14&#45;&gt;Node2</title>
<path fill="none" stroke="#404040" d="M199.9223,-485.4323C209.7233,-459.1006 224.0547,-418.7975 234,-383 254.4408,-309.425 234.7224,-282.7244 270,-215 284.5215,-187.1223 306.3005,-160.753 327.7415,-138.7592"/>
<polygon fill="none" stroke="#404040" points="327.7678,-138.7327 329.1747,-131.6602 336.2443,-130.2385 334.8374,-137.3111 327.7678,-138.7327"/>
<text text-anchor="middle" x="295.5" y="-296.5" font-family="Helvetica,sans-Serif" font-size="10.00" fill="#000000"> &#45;swapped</text>
</g>
<!-- Node14&#45;&gt;Node9 -->
<g id="edge13" class="edge">
<title>Node14&#45;&gt;Node9</title>
<path fill="none" stroke="#404040" d="M200.0767,-485.4869C204.3574,-477.351 209.955,-469.06 217,-463 234.5888,-447.8704 249.1451,-460.9431 266,-445 281.4748,-430.3624 270.8558,-416.927 285,-401 295.5791,-389.0874 303.4611,-392.8287 316,-383 317.445,-381.8674 318.8891,-380.7096 320.3307,-379.53"/>
<polygon fill="none" stroke="#404040" points="320.6602,-379.249 322.6289,-372.3118 329.7897,-371.461 327.8209,-378.3981 320.6602,-379.249"/>
<text text-anchor="middle" x="315.5" y="-437" font-family="Helvetica,sans-Serif" font-size="10.00" fill="#000000"> &#45;onlyAdd</text>
<text text-anchor="middle" x="315.5" y="-426" font-family="Helvetica,sans-Serif" font-size="10.00" fill="#000000">&#45;onlyDelete</text>
<text text-anchor="middle" x="315.5" y="-415" font-family="Helvetica,sans-Serif" font-size="10.00" fill="#000000">&#45;deletesFirst</text>
<text text-anchor="middle" x="315.5" y="-404" font-family="Helvetica,sans-Serif" font-size="10.00" fill="#000000">&#45;onlyCopy</text>
</g>
<!-- Node15 -->
<g id="node14" class="node">
<title>Node15</title>
<g id="a_node14"><a xlink:title=" ">
<polygon fill="none" stroke="#bfbfbf" points="589.5,-270.5 589.5,-327.5 652.5,-327.5 652.5,-270.5 589.5,-270.5"/>
<text text-anchor="middle" x="621" y="-315.5" font-family="Helvetica,sans-Serif" font-size="10.00" fill="#000000">sequence</text>
<polyline fill="none" stroke="#bfbfbf" points="589.5,-308.5 652.5,-308.5 "/>
<text text-anchor="middle" x="621" y="-296.5" font-family="Helvetica,sans-Serif" font-size="10.00" fill="#000000"> </text>
<polyline fill="none" stroke="#bfbfbf" points="589.5,-289.5 652.5,-289.5 "/>
<text text-anchor="middle" x="621" y="-277.5" font-family="Helvetica,sans-Serif" font-size="10.00" fill="#000000"> </text>
</a>
</g>
</g>
<!-- Node15&#45;&gt;Node2 -->
<g id="edge16" class="edge">
<title>Node15&#45;&gt;Node2</title>
<path fill="none" stroke="#404040" d="M610.2693,-270.2474C599.1115,-243.2517 579.5512,-202.9448 553,-175 529.0755,-149.8198 497.221,-128.5794 468.536,-112.4923"/>
<polygon fill="none" stroke="#404040" points="468.2506,-112.3363 461.0673,-112.969 457.7205,-106.5815 464.9038,-105.9489 468.2506,-112.3363"/>
<text text-anchor="middle" x="577" y="-189" font-family="Helvetica,sans-Serif" font-size="10.00" fill="#000000"> &#45;A</text>
<text text-anchor="middle" x="577" y="-178" font-family="Helvetica,sans-Serif" font-size="10.00" fill="#000000">&#45;B</text>
</g>
<!-- Node16 -->
<g id="node15" class="node">
<title>Node16</title>
<g id="a_node15"><a xlink:href="../../d1/d32/classhydrogen__framework_1_1Diff__Compare.html" target="_top" xlink:title=" ">
<polygon fill="none" stroke="#000000" points="670.5,-254 670.5,-344 791.5,-344 791.5,-254 670.5,-254"/>
<text text-anchor="start" x="678.5" y="-332" font-family="Helvetica,sans-Serif" font-size="10.00" fill="#000000">hydrogen_framework</text>
<text text-anchor="middle" x="731" y="-321" font-family="Helvetica,sans-Serif" font-size="10.00" fill="#000000">::Diff_Compare</text>
<polyline fill="none" stroke="#000000" points="670.5,-314 791.5,-314 "/>
<text text-anchor="middle" x="731" y="-302" font-family="Helvetica,sans-Serif" font-size="10.00" fill="#000000"> </text>
<polyline fill="none" stroke="#000000" points="670.5,-295 791.5,-295 "/>
<text text-anchor="start" x="678.5" y="-283" font-family="Helvetica,sans-Serif" font-size="10.00" fill="#000000">+ Diff_Compare()</text>
<text text-anchor="start" x="678.5" y="-272" font-family="Helvetica,sans-Serif" font-size="10.00" fill="#000000">+ ~Diff_Compare()</text>
<text text-anchor="start" x="678.5" y="-261" font-family="Helvetica,sans-Serif" font-size="10.00" fill="#000000">+ impl()</text>
</a>
</g>
</g>
<!-- Node16&#45;&gt;Node2 -->
<g id="edge17" class="edge">
<title>Node16&#45;&gt;Node2</title>
<path fill="none" stroke="#404040" d="M699.1748,-253.7798C688.3535,-240.3014 675.5439,-226.1632 662,-215 603.5299,-166.8075 525.2596,-129.091 468.9631,-105.6313"/>
<polygon fill="none" stroke="#404040" points="468.7546,-105.5457 461.6848,-106.9664 457.6543,-100.9869 464.7241,-99.5662 468.7546,-105.5457"/>
<text text-anchor="middle" x="650" y="-183.5" font-family="Helvetica,sans-Serif" font-size="10.00" fill="#000000"> &#45;cmp</text>
</g>
<!-- Node17 -->
<g id="node16" class="node">
<title>Node17</title>
<g id="a_node16"><a xlink:title=" ">
<polygon fill="none" stroke="#bfbfbf" points="809.5,-270.5 809.5,-327.5 918.5,-327.5 918.5,-270.5 809.5,-270.5"/>
<text text-anchor="middle" x="864" y="-315.5" font-family="Helvetica,sans-Serif" font-size="10.00" fill="#000000">editPathCordinates</text>
<polyline fill="none" stroke="#bfbfbf" points="809.5,-308.5 918.5,-308.5 "/>
<text text-anchor="middle" x="864" y="-296.5" font-family="Helvetica,sans-Serif" font-size="10.00" fill="#000000"> </text>
<polyline fill="none" stroke="#bfbfbf" points="809.5,-289.5 918.5,-289.5 "/>
<text text-anchor="middle" x="864" y="-277.5" font-family="Helvetica,sans-Serif" font-size="10.00" fill="#000000"> </text>
</a>
</g>
</g>
<!-- Node17&#45;&gt;Node2 -->
<g id="edge18" class="edge">
<title>Node17&#45;&gt;Node2</title>
<path fill="none" stroke="#404040" d="M848.4419,-270.1131C837.3644,-252.0006 820.9348,-229.43 801,-215 699.4369,-141.4823 555.4469,-105.4974 469.6107,-89.5602"/>
<polygon fill="none" stroke="#404040" points="469.4467,-89.5306 462.8311,-92.4003 457.6378,-87.3973 464.2533,-84.5277 469.4467,-89.5306"/>
<text text-anchor="middle" x="813" y="-183.5" font-family="Helvetica,sans-Serif" font-size="10.00" fill="#000000"> &#45;pathCordinates</text>
</g>
</g>
</svg>
