<?xml version="1.0" encoding="UTF-8" standalone="no"?>
<!DOCTYPE svg PUBLIC "-//W3C//DTD SVG 1.1//EN"
 "http://www.w3.org/Graphics/SVG/1.1/DTD/svg11.dtd">
<!-- Generated by graphviz version 2.40.1 (20161225.0304)
 -->
<!-- Title: Module.hpp Pages: 1 -->
<svg width="985pt" height="84pt"
 viewBox="0.00 0.00 984.50 84.00" xmlns="http://www.w3.org/2000/svg" xmlns:xlink="http://www.w3.org/1999/xlink">
<g id="graph0" class="graph" transform="scale(1 1) rotate(0) translate(4 80)">
<title>Module.hpp</title>
<!-- Node0 -->
<g id="node1" class="node">
<title>Node0</title>
<g id="a_node1"><a xlink:title=" ">
<polygon fill="#bfbfbf" stroke="#000000" points="342.5,-56.5 342.5,-75.5 415.5,-75.5 415.5,-56.5 342.5,-56.5"/>
<text text-anchor="middle" x="379" y="-63.5" font-family="Helvetica,sans-Serif" font-size="10.00" fill="#000000">Module.hpp</text>
</a>
</g>
</g>
<!-- Node1 -->
<g id="node2" class="node">
<title>Node1</title>
<g id="a_node2"><a xlink:title=" ">
<polygon fill="none" stroke="#bfbfbf" points="0,-.5 0,-19.5 60,-19.5 60,-.5 0,-.5"/>
<text text-anchor="middle" x="30" y="-7.5" font-family="Helvetica,sans-Serif" font-size="10.00" fill="#000000">iostream</text>
</a>
</g>
</g>
<!-- Node0&#45;&gt;Node1 -->
<g id="edge1" class="edge">
<title>Node0&#45;&gt;Node1</title>
<path fill="none" stroke="#191970" d="M342.0408,-61.7743C285.5324,-55.04 174.1121,-40.6866 70.1936,-20.0772"/>
<polygon fill="#191970" stroke="#191970" points="70.6558,-16.6002 60.1624,-18.0632 69.2778,-23.4632 70.6558,-16.6002"/>
</g>
<!-- Node2 -->
<g id="node3" class="node">
<title>Node2</title>
<g id="a_node3"><a xlink:title=" ">
<polygon fill="none" stroke="#bfbfbf" points="78,-.5 78,-19.5 110,-19.5 110,-.5 78,-.5"/>
<text text-anchor="middle" x="94" y="-7.5" font-family="Helvetica,sans-Serif" font-size="10.00" fill="#000000">list</text>
</a>
</g>
</g>
<!-- Node0&#45;&gt;Node2 -->
<g id="edge2" class="edge">
<title>Node0&#45;&gt;Node2</title>
<path fill="none" stroke="#191970" d="M342.2932,-61.919C293.3344,-55.9533 203.9736,-43.2415 119.9295,-19.81"/>
<polygon fill="#191970" stroke="#191970" points="120.8148,-16.4231 110.2387,-17.0529 118.8992,-23.1559 120.8148,-16.4231"/>
</g>
<!-- Node3 -->
<g id="node4" class="node">
<title>Node3</title>
<g id="a_node4"><a xlink:title=" ">
<polygon fill="none" stroke="#bfbfbf" points="128,-.5 128,-19.5 254,-19.5 254,-.5 128,-.5"/>
<text text-anchor="middle" x="191" y="-7.5" font-family="Helvetica,sans-Serif" font-size="10.00" fill="#000000">llvm/IR/LLVMContext.h</text>
</a>
</g>
</g>
<!-- Node0&#45;&gt;Node3 -->
<g id="edge3" class="edge">
<title>Node0&#45;&gt;Node3</title>
<path fill="none" stroke="#191970" d="M346.6816,-56.3733C315.1494,-46.9807 267.0379,-32.6496 232.6499,-22.4064"/>
<polygon fill="#191970" stroke="#191970" points="233.4797,-19.0016 222.8966,-19.5011 231.4813,-25.7103 233.4797,-19.0016"/>
</g>
<!-- Node4 -->
<g id="node5" class="node">
<title>Node4</title>
<g id="a_node5"><a xlink:title=" ">
<polygon fill="none" stroke="#bfbfbf" points="272,-.5 272,-19.5 370,-19.5 370,-.5 272,-.5"/>
<text text-anchor="middle" x="321" y="-7.5" font-family="Helvetica,sans-Serif" font-size="10.00" fill="#000000">llvm/IR/Module.h</text>
</a>
</g>
</g>
<!-- Node0&#45;&gt;Node4 -->
<g id="edge4" class="edge">
<title>Node0&#45;&gt;Node4</title>
<path fill="none" stroke="#191970" d="M368.8972,-56.2455C360.4972,-48.1352 348.3506,-36.4075 338.3916,-26.7919"/>
<polygon fill="#191970" stroke="#191970" points="340.6122,-24.0707 330.9871,-19.6427 335.75,-29.1066 340.6122,-24.0707"/>
</g>
<!-- Node5 -->
<g id="node6" class="node">
<title>Node5</title>
<g id="a_node6"><a xlink:title=" ">
<polygon fill="none" stroke="#bfbfbf" points="388.5,-.5 388.5,-19.5 485.5,-19.5 485.5,-.5 388.5,-.5"/>
<text text-anchor="middle" x="437" y="-7.5" font-family="Helvetica,sans-Serif" font-size="10.00" fill="#000000">llvm/IR/Verifier.h</text>
</a>
</g>
</g>
<!-- Node0&#45;&gt;Node5 -->
<g id="edge5" class="edge">
<title>Node0&#45;&gt;Node5</title>
<path fill="none" stroke="#191970" d="M389.1028,-56.2455C397.5028,-48.1352 409.6494,-36.4075 419.6084,-26.7919"/>
<polygon fill="#191970" stroke="#191970" points="422.25,-29.1066 427.0129,-19.6427 417.3878,-24.0707 422.25,-29.1066"/>
</g>
<!-- Node6 -->
<g id="node7" class="node">
<title>Node6</title>
<g id="a_node7"><a xlink:title=" ">
<polygon fill="none" stroke="#bfbfbf" points="504,-.5 504,-19.5 644,-19.5 644,-.5 504,-.5"/>
<text text-anchor="middle" x="574" y="-7.5" font-family="Helvetica,sans-Serif" font-size="10.00" fill="#000000">llvm/IRReader/IRReader.h</text>
</a>
</g>
</g>
<!-- Node0&#45;&gt;Node6 -->
<g id="edge6" class="edge">
<title>Node0&#45;&gt;Node6</title>
<path fill="none" stroke="#191970" d="M412.5217,-56.3733C445.3683,-46.9404 495.5595,-32.5265 531.2578,-22.2747"/>
<polygon fill="#191970" stroke="#191970" points="532.2703,-25.6255 540.9157,-19.5011 530.3381,-18.8974 532.2703,-25.6255"/>
</g>
<!-- Node7 -->
<g id="node8" class="node">
<title>Node7</title>
<g id="a_node8"><a xlink:title=" ">
<polygon fill="none" stroke="#bfbfbf" points="662.5,-.5 662.5,-19.5 803.5,-19.5 803.5,-.5 662.5,-.5"/>
<text text-anchor="middle" x="733" y="-7.5" font-family="Helvetica,sans-Serif" font-size="10.00" fill="#000000">llvm/Support/SourceMgr.h</text>
</a>
</g>
</g>
<!-- Node0&#45;&gt;Node7 -->
<g id="edge7" class="edge">
<title>Node0&#45;&gt;Node7</title>
<path fill="none" stroke="#191970" d="M415.5509,-60.2179C473.6741,-51.0233 588.1906,-32.9077 662.6179,-21.1339"/>
<polygon fill="#191970" stroke="#191970" points="663.5135,-24.5358 672.8438,-19.5162 662.4197,-17.6218 663.5135,-24.5358"/>
</g>
<!-- Node8 -->
<g id="node9" class="node">
<title>Node8</title>
<g id="a_node9"><a xlink:title=" ">
<polygon fill="none" stroke="#bfbfbf" points="821.5,-.5 821.5,-19.5 976.5,-19.5 976.5,-.5 821.5,-.5"/>
<text text-anchor="middle" x="899" y="-7.5" font-family="Helvetica,sans-Serif" font-size="10.00" fill="#000000">llvm/Support/raw_ostream.h</text>
</a>
</g>
</g>
<!-- Node0&#45;&gt;Node8 -->
<g id="edge8" class="edge">
<title>Node0&#45;&gt;Node8</title>
<path fill="none" stroke="#191970" d="M415.5935,-62.2482C488.7026,-54.7253 658.2842,-37.1383 811.145,-20.1985"/>
<polygon fill="#191970" stroke="#191970" points="811.6355,-23.6656 821.1883,-19.0838 810.8632,-16.7084 811.6355,-23.6656"/>
</g>
</g>
</svg>
