<?xml version="1.0" encoding="UTF-8" standalone="no"?>
<!DOCTYPE svg PUBLIC "-//W3C//DTD SVG 1.1//EN"
 "http://www.w3.org/Graphics/SVG/1.1/DTD/svg11.dtd">
<!-- Generated by graphviz version 2.40.1 (0)
 -->
<!-- Title: hydrogen_framework::Diff_Ses Pages: 1 -->
<svg width="532pt" height="718pt"
 viewBox="0.00 0.00 532.00 718.00" xmlns="http://www.w3.org/2000/svg" xmlns:xlink="http://www.w3.org/1999/xlink">
<g id="graph0" class="graph" transform="scale(1 1) rotate(0) translate(4 714)">
<title>hydrogen_framework::Diff_Ses</title>
<!-- Node3 -->
<g id="node1" class="node">
<title>Node3</title>
<g id="a_node1"><a xlink:title=" ">
<polygon fill="#bfbfbf" stroke="#000000" points="267,-.5 267,-167.5 401,-167.5 401,-.5 267,-.5"/>
<text text-anchor="start" x="275" y="-155.5" font-family="Helvetica,sans-Serif" font-size="10.00" fill="#000000">hydrogen_framework</text>
<text text-anchor="middle" x="334" y="-144.5" font-family="Helvetica,sans-Serif" font-size="10.00" fill="#000000">::Diff_Ses</text>
<polyline fill="none" stroke="#000000" points="267,-137.5 401,-137.5 "/>
<text text-anchor="middle" x="334" y="-125.5" font-family="Helvetica,sans-Serif" font-size="10.00" fill="#000000"> </text>
<polyline fill="none" stroke="#000000" points="267,-118.5 401,-118.5 "/>
<text text-anchor="start" x="275" y="-106.5" font-family="Helvetica,sans-Serif" font-size="10.00" fill="#000000">+ Diff_Ses()</text>
<text text-anchor="start" x="275" y="-95.5" font-family="Helvetica,sans-Serif" font-size="10.00" fill="#000000">+ Diff_Ses()</text>
<text text-anchor="start" x="275" y="-84.5" font-family="Helvetica,sans-Serif" font-size="10.00" fill="#000000">+ ~Diff_Ses()</text>
<text text-anchor="start" x="275" y="-73.5" font-family="Helvetica,sans-Serif" font-size="10.00" fill="#000000">+ addSequence()</text>
<text text-anchor="start" x="275" y="-62.5" font-family="Helvetica,sans-Serif" font-size="10.00" fill="#000000">+ getSequence()</text>
<text text-anchor="start" x="275" y="-51.5" font-family="Helvetica,sans-Serif" font-size="10.00" fill="#000000">+ isChange()</text>
<text text-anchor="start" x="275" y="-40.5" font-family="Helvetica,sans-Serif" font-size="10.00" fill="#000000">+ isOnlyAdd()</text>
<text text-anchor="start" x="275" y="-29.5" font-family="Helvetica,sans-Serif" font-size="10.00" fill="#000000">+ isOnlyCopy()</text>
<text text-anchor="start" x="275" y="-18.5" font-family="Helvetica,sans-Serif" font-size="10.00" fill="#000000">+ isOnlyDelete()</text>
<text text-anchor="start" x="275" y="-7.5" font-family="Helvetica,sans-Serif" font-size="10.00" fill="#000000">+ isOnlyOneOperation()</text>
</a>
</g>
</g>
<!-- Node4 -->
<g id="node2" class="node">
<title>Node4</title>
<g id="a_node2"><a xlink:href="../../d8/d3a/classhydrogen__framework_1_1Diff__Sequence.html" target="_top" xlink:title=" ">
<polygon fill="none" stroke="#000000" points="112.5,-248.5 112.5,-349.5 233.5,-349.5 233.5,-248.5 112.5,-248.5"/>
<text text-anchor="start" x="120.5" y="-337.5" font-family="Helvetica,sans-Serif" font-size="10.00" fill="#000000">hydrogen_framework</text>
<text text-anchor="middle" x="173" y="-326.5" font-family="Helvetica,sans-Serif" font-size="10.00" fill="#000000">::Diff_Sequence</text>
<polyline fill="none" stroke="#000000" points="112.5,-319.5 233.5,-319.5 "/>
<text text-anchor="middle" x="173" y="-307.5" font-family="Helvetica,sans-Serif" font-size="10.00" fill="#000000"> </text>
<polyline fill="none" stroke="#000000" points="112.5,-300.5 233.5,-300.5 "/>
<text text-anchor="start" x="120.5" y="-288.5" font-family="Helvetica,sans-Serif" font-size="10.00" fill="#000000">+ Diff_Sequence()</text>
<text text-anchor="start" x="120.5" y="-277.5" font-family="Helvetica,sans-Serif" font-size="10.00" fill="#000000">+ ~Diff_Sequence()</text>
<text text-anchor="start" x="120.5" y="-266.5" font-family="Helvetica,sans-Serif" font-size="10.00" fill="#000000">+ addSequence()</text>
<text text-anchor="start" x="120.5" y="-255.5" font-family="Helvetica,sans-Serif" font-size="10.00" fill="#000000">+ getSequence()</text>
</a>
</g>
</g>
<!-- Node4&#45;&gt;Node3 -->
<g id="edge1" class="edge">
<title>Node4&#45;&gt;Node3</title>
<path fill="none" stroke="#191970" d="M217.0049,-240.2357C233.7869,-217.825 253.2531,-191.8297 271.4336,-167.5514"/>
<polygon fill="none" stroke="#191970" points="214.1434,-238.2178 210.9509,-248.3203 219.7465,-242.4137 214.1434,-238.2178"/>
</g>
<!-- Node5 -->
<g id="node3" class="node">
<title>Node5</title>
<g id="a_node3"><a xlink:href="../../d3/db1/classhydrogen__framework_1_1Diff__Vars.html" target="_top" xlink:title=" ">
<polygon fill="none" stroke="#000000" points="58.5,-397.5 58.5,-476.5 179.5,-476.5 179.5,-397.5 58.5,-397.5"/>
<text text-anchor="start" x="66.5" y="-464.5" font-family="Helvetica,sans-Serif" font-size="10.00" fill="#000000">hydrogen_framework</text>
<text text-anchor="middle" x="119" y="-453.5" font-family="Helvetica,sans-Serif" font-size="10.00" fill="#000000">::Diff_Vars</text>
<polyline fill="none" stroke="#000000" points="58.5,-446.5 179.5,-446.5 "/>
<text text-anchor="middle" x="119" y="-434.5" font-family="Helvetica,sans-Serif" font-size="10.00" fill="#000000"> </text>
<polyline fill="none" stroke="#000000" points="58.5,-427.5 179.5,-427.5 "/>
<text text-anchor="start" x="66.5" y="-415.5" font-family="Helvetica,sans-Serif" font-size="10.00" fill="#000000">+ Diff_Vars()</text>
<text text-anchor="start" x="66.5" y="-404.5" font-family="Helvetica,sans-Serif" font-size="10.00" fill="#000000">+ ~Diff_Vars()</text>
</a>
</g>
</g>
<!-- Node5&#45;&gt;Node4 -->
<g id="edge2" class="edge">
<title>Node5&#45;&gt;Node4</title>
<path fill="none" stroke="#191970" d="M138.1229,-388.1303C143.0059,-375.6515 148.2656,-362.2101 153.1826,-349.6445"/>
<polygon fill="none" stroke="#191970" points="134.8589,-386.8669 134.4742,-397.4547 141.3776,-389.4177 134.8589,-386.8669"/>
</g>
<!-- Node6 -->
<g id="node4" class="node">
<title>Node6</title>
<g id="a_node4"><a xlink:title="STL class.">
<polygon fill="none" stroke="#bfbfbf" points="19.5,-546.5 19.5,-603.5 84.5,-603.5 84.5,-546.5 19.5,-546.5"/>
<text text-anchor="middle" x="52" y="-591.5" font-family="Helvetica,sans-Serif" font-size="10.00" fill="#000000">std::string</text>
<polyline fill="none" stroke="#bfbfbf" points="19.5,-584.5 84.5,-584.5 "/>
<text text-anchor="middle" x="52" y="-572.5" font-family="Helvetica,sans-Serif" font-size="10.00" fill="#000000"> </text>
<polyline fill="none" stroke="#bfbfbf" points="19.5,-565.5 84.5,-565.5 "/>
<text text-anchor="middle" x="52" y="-553.5" font-family="Helvetica,sans-Serif" font-size="10.00" fill="#000000"> </text>
</a>
</g>
</g>
<!-- Node6&#45;&gt;Node5 -->
<g id="edge3" class="edge">
<title>Node6&#45;&gt;Node5</title>
<path fill="none" stroke="#404040" d="M46.8532,-546.3629C45.3292,-530.528 45.6857,-510.8997 53,-495 54.3109,-492.1504 55.837,-489.3845 57.5353,-486.707"/>
<polygon fill="none" stroke="#404040" points="57.708,-486.4737 58.0633,-479.2713 64.8483,-476.8292 64.493,-484.0316 57.708,-486.4737"/>
<text text-anchor="middle" x="109" y="-520" font-family="Helvetica,sans-Serif" font-size="10.00" fill="#000000"> +SES_MARK_ADD</text>
<text text-anchor="middle" x="109" y="-509" font-family="Helvetica,sans-Serif" font-size="10.00" fill="#000000">+SES_MARK_COMMON</text>
<text text-anchor="middle" x="109" y="-498" font-family="Helvetica,sans-Serif" font-size="10.00" fill="#000000">+SES_MARK_DELETE</text>
</g>
<!-- Node7 -->
<g id="node5" class="node">
<title>Node7</title>
<g id="a_node5"><a xlink:title="STL class.">
<polygon fill="none" stroke="#bfbfbf" points="0,-641.5 0,-709.5 104,-709.5 104,-641.5 0,-641.5"/>
<text text-anchor="start" x="8" y="-697.5" font-family="Helvetica,sans-Serif" font-size="10.00" fill="#000000">std::basic_string&lt;</text>
<text text-anchor="middle" x="52" y="-686.5" font-family="Helvetica,sans-Serif" font-size="10.00" fill="#000000"> char &gt;</text>
<polyline fill="none" stroke="#bfbfbf" points="0,-679.5 104,-679.5 "/>
<text text-anchor="middle" x="52" y="-667.5" font-family="Helvetica,sans-Serif" font-size="10.00" fill="#000000"> </text>
<polyline fill="none" stroke="#bfbfbf" points="0,-660.5 104,-660.5 "/>
<text text-anchor="middle" x="52" y="-648.5" font-family="Helvetica,sans-Serif" font-size="10.00" fill="#000000"> </text>
</a>
</g>
</g>
<!-- Node7&#45;&gt;Node6 -->
<g id="edge4" class="edge">
<title>Node7&#45;&gt;Node6</title>
<path fill="none" stroke="#191970" d="M52,-631.4301C52,-622.0073 52,-612.2901 52,-603.6312"/>
<polygon fill="none" stroke="#191970" points="48.5001,-631.4752 52,-641.4753 55.5001,-631.4753 48.5001,-631.4752"/>
</g>
<!-- Node8 -->
<g id="node6" class="node">
<title>Node8</title>
<g id="a_node6"><a xlink:title=" ">
<polygon fill="none" stroke="#bfbfbf" points="156.5,-546.5 156.5,-603.5 217.5,-603.5 217.5,-546.5 156.5,-546.5"/>
<text text-anchor="middle" x="187" y="-591.5" font-family="Helvetica,sans-Serif" font-size="10.00" fill="#000000">unsigned</text>
<polyline fill="none" stroke="#bfbfbf" points="156.5,-584.5 217.5,-584.5 "/>
<text text-anchor="middle" x="187" y="-572.5" font-family="Helvetica,sans-Serif" font-size="10.00" fill="#000000"> </text>
<polyline fill="none" stroke="#bfbfbf" points="156.5,-565.5 217.5,-565.5 "/>
<text text-anchor="middle" x="187" y="-553.5" font-family="Helvetica,sans-Serif" font-size="10.00" fill="#000000"> </text>
</a>
</g>
</g>
<!-- Node8&#45;&gt;Node5 -->
<g id="edge5" class="edge">
<title>Node8&#45;&gt;Node5</title>
<path fill="none" stroke="#404040" d="M182.0123,-546.2085C178.5817,-530.5076 173.1456,-511.0578 165,-495 163.6264,-492.2922 162.1146,-489.5902 160.5018,-486.916"/>
<polygon fill="none" stroke="#404040" points="160.4394,-486.8208 153.8042,-483.9969 153.8589,-476.786 160.4941,-479.6099 160.4394,-486.8208"/>
<text text-anchor="middle" x="242.5" y="-509" font-family="Helvetica,sans-Serif" font-size="10.00" fill="#000000"> +MAX_CORDINATES_SIZE</text>
</g>
<!-- Node9 -->
<g id="node7" class="node">
<title>Node9</title>
<g id="a_node7"><a xlink:title=" ">
<polygon fill="none" stroke="#bfbfbf" points="197.5,-408.5 197.5,-465.5 256.5,-465.5 256.5,-408.5 197.5,-408.5"/>
<text text-anchor="middle" x="227" y="-453.5" font-family="Helvetica,sans-Serif" font-size="10.00" fill="#000000">elemVec</text>
<polyline fill="none" stroke="#bfbfbf" points="197.5,-446.5 256.5,-446.5 "/>
<text text-anchor="middle" x="227" y="-434.5" font-family="Helvetica,sans-Serif" font-size="10.00" fill="#000000"> </text>
<polyline fill="none" stroke="#bfbfbf" points="197.5,-427.5 256.5,-427.5 "/>
<text text-anchor="middle" x="227" y="-415.5" font-family="Helvetica,sans-Serif" font-size="10.00" fill="#000000"> </text>
</a>
</g>
</g>
<!-- Node9&#45;&gt;Node4 -->
<g id="edge6" class="edge">
<title>Node9&#45;&gt;Node4</title>
<path fill="none" stroke="#404040" d="M215.8112,-408.4063C210.4146,-394.6152 203.717,-377.499 197.2343,-360.932"/>
<polygon fill="none" stroke="#404040" points="197.172,-360.7728 191.2606,-356.643 192.7992,-349.5979 198.7106,-353.7278 197.172,-360.7728"/>
<text text-anchor="middle" x="233" y="-371" font-family="Helvetica,sans-Serif" font-size="10.00" fill="#000000"> #sequence</text>
</g>
<!-- Node10 -->
<g id="node8" class="node">
<title>Node10</title>
<g id="a_node8"><a xlink:title=" ">
<polygon fill="none" stroke="#bfbfbf" points="251.5,-270.5 251.5,-327.5 326.5,-327.5 326.5,-270.5 251.5,-270.5"/>
<text text-anchor="middle" x="289" y="-315.5" font-family="Helvetica,sans-Serif" font-size="10.00" fill="#000000">sesElemVec</text>
<polyline fill="none" stroke="#bfbfbf" points="251.5,-308.5 326.5,-308.5 "/>
<text text-anchor="middle" x="289" y="-296.5" font-family="Helvetica,sans-Serif" font-size="10.00" fill="#000000"> </text>
<polyline fill="none" stroke="#bfbfbf" points="251.5,-289.5 326.5,-289.5 "/>
<text text-anchor="middle" x="289" y="-277.5" font-family="Helvetica,sans-Serif" font-size="10.00" fill="#000000"> </text>
</a>
</g>
</g>
<!-- Node10&#45;&gt;Node3 -->
<g id="edge7" class="edge">
<title>Node10&#45;&gt;Node3</title>
<path fill="none" stroke="#404040" d="M286.1497,-270.3344C284.5975,-247.2883 284.043,-214.2177 290,-186 290.4581,-183.83 290.9638,-181.6491 291.512,-179.4627"/>
<polygon fill="none" stroke="#404040" points="291.5588,-179.2967 289.3391,-172.4357 294.8185,-167.7479 297.0383,-174.6089 291.5588,-179.2967"/>
<text text-anchor="middle" x="323.5" y="-205.5" font-family="Helvetica,sans-Serif" font-size="10.00" fill="#000000"> &#45;sequenceDS</text>
</g>
<!-- Node11 -->
<g id="node9" class="node">
<title>Node11</title>
<g id="a_node9"><a xlink:title=" ">
<polygon fill="none" stroke="#bfbfbf" points="356.5,-270.5 356.5,-327.5 401.5,-327.5 401.5,-270.5 356.5,-270.5"/>
<text text-anchor="middle" x="379" y="-315.5" font-family="Helvetica,sans-Serif" font-size="10.00" fill="#000000">size_t</text>
<polyline fill="none" stroke="#bfbfbf" points="356.5,-308.5 401.5,-308.5 "/>
<text text-anchor="middle" x="379" y="-296.5" font-family="Helvetica,sans-Serif" font-size="10.00" fill="#000000"> </text>
<polyline fill="none" stroke="#bfbfbf" points="356.5,-289.5 401.5,-289.5 "/>
<text text-anchor="middle" x="379" y="-277.5" font-family="Helvetica,sans-Serif" font-size="10.00" fill="#000000"> </text>
</a>
</g>
</g>
<!-- Node11&#45;&gt;Node3 -->
<g id="edge8" class="edge">
<title>Node11&#45;&gt;Node3</title>
<path fill="none" stroke="#404040" d="M373.6274,-270.157C369.3103,-247.2951 362.9982,-214.557 357,-186 356.5508,-183.8612 356.0929,-181.698 355.6283,-179.5174"/>
<polygon fill="none" stroke="#404040" points="355.6161,-179.4609 350.4421,-174.4379 353.0886,-167.73 358.2627,-172.7529 355.6161,-179.4609"/>
<text text-anchor="middle" x="403" y="-205.5" font-family="Helvetica,sans-Serif" font-size="10.00" fill="#000000"> &#45;nextDeleteIdx</text>
</g>
<!-- Node12 -->
<g id="node10" class="node">
<title>Node12</title>
<g id="a_node10"><a xlink:title=" ">
<polygon fill="none" stroke="#bfbfbf" points="459,-270.5 459,-327.5 497,-327.5 497,-270.5 459,-270.5"/>
<text text-anchor="middle" x="478" y="-315.5" font-family="Helvetica,sans-Serif" font-size="10.00" fill="#000000">bool</text>
<polyline fill="none" stroke="#bfbfbf" points="459,-308.5 497,-308.5 "/>
<text text-anchor="middle" x="478" y="-296.5" font-family="Helvetica,sans-Serif" font-size="10.00" fill="#000000"> </text>
<polyline fill="none" stroke="#bfbfbf" points="459,-289.5 497,-289.5 "/>
<text text-anchor="middle" x="478" y="-277.5" font-family="Helvetica,sans-Serif" font-size="10.00" fill="#000000"> </text>
</a>
</g>
</g>
<!-- Node12&#45;&gt;Node3 -->
<g id="edge9" class="edge">
<title>Node12&#45;&gt;Node3</title>
<path fill="none" stroke="#404040" d="M474.0326,-270.3167C469.7263,-246.3603 461.177,-212.0405 445,-186 435.5743,-170.8273 423.285,-156.4949 410.3288,-143.6333"/>
<polygon fill="none" stroke="#404040" points="409.9486,-143.2693 402.8482,-142.0102 401.2796,-134.9717 408.38,-136.2309 409.9486,-143.2693"/>
<text text-anchor="middle" x="493.5" y="-222" font-family="Helvetica,sans-Serif" font-size="10.00" fill="#000000"> &#45;onlyAdd</text>
<text text-anchor="middle" x="493.5" y="-211" font-family="Helvetica,sans-Serif" font-size="10.00" fill="#000000">&#45;onlyDelete</text>
<text text-anchor="middle" x="493.5" y="-200" font-family="Helvetica,sans-Serif" font-size="10.00" fill="#000000">&#45;deletesFirst</text>
<text text-anchor="middle" x="493.5" y="-189" font-family="Helvetica,sans-Serif" font-size="10.00" fill="#000000">&#45;onlyCopy</text>
</g>
</g>
</svg>
