<?xml version="1.0" encoding="UTF-8" standalone="no"?>
<!DOCTYPE svg PUBLIC "-//W3C//DTD SVG 1.1//EN"
 "http://www.w3.org/Graphics/SVG/1.1/DTD/svg11.dtd">
<!-- Generated by graphviz version 2.40.1 (20161225.0304)
 -->
<!-- Title: hydrogen_framework::Diff_Ses::getSequence Pages: 1 -->
<svg width="380pt" height="57pt"
 viewBox="0.00 0.00 380.00 57.00" xmlns="http://www.w3.org/2000/svg" xmlns:xlink="http://www.w3.org/1999/xlink">
<g id="graph0" class="graph" transform="scale(1 1) rotate(0) translate(4 53)">
<title>hydrogen_framework::Diff_Ses::getSequence</title>
<!-- Node13 -->
<g id="node1" class="node">
<title>Node13</title>
<g id="a_node1"><a xlink:title=" ">
<polygon fill="#bfbfbf" stroke="#000000" points="241,-.5 241,-30.5 372,-30.5 372,-.5 241,-.5"/>
<text text-anchor="start" x="249" y="-18.5" font-family="Helvetica,sans-Serif" font-size="10.00" fill="#000000">hydrogen_framework</text>
<text text-anchor="middle" x="306.5" y="-7.5" font-family="Helvetica,sans-Serif" font-size="10.00" fill="#000000">::Diff_Ses::getSequence</text>
</a>
</g>
</g>
<!-- Node14 -->
<g id="node2" class="node">
<title>Node14</title>
<g id="a_node2"><a xlink:href="../../db/d17/MVICFG_8cpp.html#acba4bfcf960997bacef6e55377e99e6f" target="_top" xlink:title=" ">
<polygon fill="none" stroke="#000000" points="77,-.5 77,-30.5 205,-30.5 205,-.5 77,-.5"/>
<text text-anchor="start" x="85" y="-18.5" font-family="Helvetica,sans-Serif" font-size="10.00" fill="#000000">hydrogen_framework</text>
<text text-anchor="middle" x="141" y="-7.5" font-family="Helvetica,sans-Serif" font-size="10.00" fill="#000000">::generateLineMapping</text>
</a>
</g>
</g>
<!-- Node13&#45;&gt;Node14 -->
<g id="edge1" class="edge">
<title>Node13&#45;&gt;Node14</title>
<path fill="none" stroke="#191970" d="M230.3583,-15.5C221.8926,-15.5 213.3342,-15.5 205.0403,-15.5"/>
<polygon fill="#191970" stroke="#191970" points="230.6145,-19.0001 240.6145,-15.5 230.6144,-12.0001 230.6145,-19.0001"/>
</g>
<!-- Node14&#45;&gt;Node14 -->
<g id="edge2" class="edge">
<title>Node14&#45;&gt;Node14</title>
<path fill="none" stroke="#191970" d="M162.3226,-40.9579C159.6761,-45.679 152.5686,-49 141,-49 122.0156,-49 115.0448,-40.0566 120.0875,-30.659"/>
<polygon fill="#191970" stroke="#191970" points="165.8077,-40.5118 161.9125,-30.659 158.8132,-40.7904 165.8077,-40.5118"/>
</g>
<!-- Node15 -->
<g id="node3" class="node">
<title>Node15</title>
<g id="a_node3"><a xlink:href="../../de/d64/Hydrogen_8cpp.html#a0ddf1224851353fc92bfbff6f499fa97" target="_top" xlink:title=" ">
<polygon fill="none" stroke="#000000" points="0,-6 0,-25 41,-25 41,-6 0,-6"/>
<text text-anchor="middle" x="20.5" y="-13" font-family="Helvetica,sans-Serif" font-size="10.00" fill="#000000">main</text>
</a>
</g>
</g>
<!-- Node14&#45;&gt;Node15 -->
<g id="edge3" class="edge">
<title>Node14&#45;&gt;Node15</title>
<path fill="none" stroke="#191970" d="M66.6631,-15.5C57.387,-15.5 48.5828,-15.5 41.1986,-15.5"/>
<polygon fill="#191970" stroke="#191970" points="66.8691,-19.0001 76.8691,-15.5 66.8691,-12.0001 66.8691,-19.0001"/>
</g>
</g>
</svg>
