<?xml version="1.0" encoding="UTF-8" standalone="no"?>
<!DOCTYPE svg PUBLIC "-//W3C//DTD SVG 1.1//EN"
 "http://www.w3.org/Graphics/SVG/1.1/DTD/svg11.dtd">
<!-- Generated by graphviz version 2.40.1 (20161225.0304)
 -->
<!-- Title: hydrogen_framework::Diff_Ses::isOnlyOneOperation Pages: 1 -->
<svg width="342pt" height="137pt"
 viewBox="0.00 0.00 342.00 137.00" xmlns="http://www.w3.org/2000/svg" xmlns:xlink="http://www.w3.org/1999/xlink">
<g id="graph0" class="graph" transform="scale(1 1) rotate(0) translate(4 133)">
<title>hydrogen_framework::Diff_Ses::isOnlyOneOperation</title>
<!-- Node27 -->
<g id="node1" class="node">
<title>Node27</title>
<g id="a_node1"><a xlink:title=" ">
<polygon fill="#bfbfbf" stroke="#000000" points="0,-49.5 0,-79.5 167,-79.5 167,-49.5 0,-49.5"/>
<text text-anchor="start" x="8" y="-67.5" font-family="Helvetica,sans-Serif" font-size="10.00" fill="#000000">hydrogen_framework</text>
<text text-anchor="middle" x="83.5" y="-56.5" font-family="Helvetica,sans-Serif" font-size="10.00" fill="#000000">::Diff_Ses::isOnlyOneOperation</text>
</a>
</g>
</g>
<!-- Node28 -->
<g id="node2" class="node">
<title>Node28</title>
<g id="a_node2"><a xlink:href="../../d1/d16/classhydrogen__framework_1_1Diff__Ses.html#ae54607b1f89be5b184184e1d68d8b23d" target="_top" xlink:title=" ">
<polygon fill="none" stroke="#000000" points="208,-98.5 208,-128.5 329,-128.5 329,-98.5 208,-98.5"/>
<text text-anchor="start" x="216" y="-116.5" font-family="Helvetica,sans-Serif" font-size="10.00" fill="#000000">hydrogen_framework</text>
<text text-anchor="middle" x="268.5" y="-105.5" font-family="Helvetica,sans-Serif" font-size="10.00" fill="#000000">::Diff_Ses::isOnlyAdd</text>
</a>
</g>
</g>
<!-- Node27&#45;&gt;Node28 -->
<g id="edge1" class="edge">
<title>Node27&#45;&gt;Node28</title>
<path fill="none" stroke="#191970" d="M140.2633,-79.5346C159.7968,-84.7083 181.8426,-90.5475 202.0759,-95.9066"/>
<polygon fill="#191970" stroke="#191970" points="201.2812,-99.3167 211.844,-98.4938 203.0735,-92.55 201.2812,-99.3167"/>
</g>
<!-- Node29 -->
<g id="node3" class="node">
<title>Node29</title>
<g id="a_node3"><a xlink:href="../../d1/d16/classhydrogen__framework_1_1Diff__Ses.html#a1c9e213ee78906eb104ab92e5c385999" target="_top" xlink:title=" ">
<polygon fill="none" stroke="#000000" points="206.5,-49.5 206.5,-79.5 330.5,-79.5 330.5,-49.5 206.5,-49.5"/>
<text text-anchor="start" x="214.5" y="-67.5" font-family="Helvetica,sans-Serif" font-size="10.00" fill="#000000">hydrogen_framework</text>
<text text-anchor="middle" x="268.5" y="-56.5" font-family="Helvetica,sans-Serif" font-size="10.00" fill="#000000">::Diff_Ses::isOnlyCopy</text>
</a>
</g>
</g>
<!-- Node27&#45;&gt;Node29 -->
<g id="edge2" class="edge">
<title>Node27&#45;&gt;Node29</title>
<path fill="none" stroke="#191970" d="M167.0695,-64.5C176.7737,-64.5 186.6101,-64.5 196.1464,-64.5"/>
<polygon fill="#191970" stroke="#191970" points="196.3559,-68.0001 206.3559,-64.5 196.3558,-61.0001 196.3559,-68.0001"/>
</g>
<!-- Node30 -->
<g id="node4" class="node">
<title>Node30</title>
<g id="a_node4"><a xlink:href="../../d1/d16/classhydrogen__framework_1_1Diff__Ses.html#a5d41ea9f3fcbe5f571195350eba8221d" target="_top" xlink:title=" ">
<polygon fill="none" stroke="#000000" points="203,-.5 203,-30.5 334,-30.5 334,-.5 203,-.5"/>
<text text-anchor="start" x="211" y="-18.5" font-family="Helvetica,sans-Serif" font-size="10.00" fill="#000000">hydrogen_framework</text>
<text text-anchor="middle" x="268.5" y="-7.5" font-family="Helvetica,sans-Serif" font-size="10.00" fill="#000000">::Diff_Ses::isOnlyDelete</text>
</a>
</g>
</g>
<!-- Node27&#45;&gt;Node30 -->
<g id="edge3" class="edge">
<title>Node27&#45;&gt;Node30</title>
<path fill="none" stroke="#191970" d="M140.2633,-49.4654C159.7968,-44.2917 181.8426,-38.4525 202.0759,-33.0934"/>
<polygon fill="#191970" stroke="#191970" points="203.0735,-36.45 211.844,-30.5062 201.2812,-29.6833 203.0735,-36.45"/>
</g>
</g>
</svg>
