<?xml version="1.0" encoding="UTF-8" standalone="no"?>
<!DOCTYPE svg PUBLIC "-//W3C//DTD SVG 1.1//EN"
 "http://www.w3.org/Graphics/SVG/1.1/DTD/svg11.dtd">
<!-- Generated by graphviz version 2.40.1 (0)
 -->
<!-- Title: hydrogen_framework::getGraphLineInstructionsAsString Pages: 1 -->
<!--zoomable 191 -->
<svg id="main" version="1.1" xmlns="http://www.w3.org/2000/svg" xmlns:xlink="http://www.w3.org/1999/xlink" xml:space="preserve" onload="init(evt)">
<style type="text/css"><![CDATA[
.edge:hover path { stroke: red; }
.edge:hover polygon { stroke: red; fill: red; }
]]></style>
<script type="text/javascript"><![CDATA[
var edges = document.getElementsByTagName('g');
if (edges && edges.length) {
  for (var i=0;i<edges.length;i++) {
    if (edges[i].id.substr(0,4)=='edge') {
      edges[i].setAttribute('class','edge');
    }
  }
}
]]></script>
        <defs>
                <circle id="rim" cx="0" cy="0" r="7"/>
                <circle id="rim2" cx="0" cy="0" r="3.5"/>
                <g id="zoomPlus">
                        <use xlink:href="#rim" fill="#404040">
                                <set attributeName="fill" to="#808080" begin="zoomplus.mouseover" end="zoomplus.mouseout"/>
                        </use>
                        <path d="M-4,0h8M0,-4v8" fill="none" stroke="white" stroke-width="1.5" pointer-events="none"/>
                </g>
                <g id="zoomMin">
                        <use xlink:href="#rim" fill="#404040">
                                <set attributeName="fill" to="#808080" begin="zoomminus.mouseover" end="zoomminus.mouseout"/>
                        </use>
                        <path d="M-4,0h8" fill="none" stroke="white" stroke-width="1.5" pointer-events="none"/>
                </g>
                <g id="dirArrow">
                        <path fill="none" stroke="white" stroke-width="1.5" d="M0,-3.0v7 M-2.5,-0.5L0,-3.0L2.5,-0.5"/>
                </g>
               <g id="resetDef">
                       <use xlink:href="#rim2" fill="#404040">
                               <set attributeName="fill" to="#808080" begin="reset.mouseover" end="reset.mouseout"/>
                       </use>
               </g>
        </defs>

<script type="text/javascript">
var viewWidth = 741;
var viewHeight = 191;
var sectionId = 'dynsection-16';
</script>
<script xlink:href="../../svgpan.js"/>
<svg id="graph" class="graph">
<g id="viewport">
<title>hydrogen_framework::getGraphLineInstructionsAsString</title>
<!-- Node162 -->
<g id="node1" class="node">
<title>Node162</title>
<g id="a_node1"><a xlink:title=" ">
<polygon fill="#bfbfbf" stroke="#000000" points="588,-62 588,-103 733,-103 733,-62 588,-62"/>
<text text-anchor="start" x="596" y="-91" font-family="Helvetica,sans-Serif" font-size="10.00" fill="#000000">hydrogen_framework</text>
<text text-anchor="start" x="596" y="-80" font-family="Helvetica,sans-Serif" font-size="10.00" fill="#000000">::getGraphLineInstructions</text>
<text text-anchor="middle" x="660.5" y="-69" font-family="Helvetica,sans-Serif" font-size="10.00" fill="#000000">AsString</text>
</a>
</g>
</g>
<!-- Node162&#45;&gt;Node162 -->
<g id="edge12" class="edge">
<title>Node162&#45;&gt;Node162</title>
<path fill="none" stroke="#191970" d="M692.8443,-113.3561C688.0344,-118.1966 677.2529,-121.5 660.5,-121.5 633.6953,-121.5 622.1777,-113.0433 625.9471,-103.3644"/>
<polygon fill="#191970" stroke="#191970" points="696.312,-113.8842 695.0529,-103.3644 689.477,-112.3733 696.312,-113.8842"/>
</g>
<!-- Node163 -->
<g id="node2" class="node">
<title>Node163</title>
<g id="a_node2"><a xlink:href="../../db/d17/MVICFG_8cpp.html#aca7226f27a892ce8314159fbd4eaeeb1" target="_top" xlink:title=" ">
<polygon fill="none" stroke="#000000" points="234,-67.5 234,-97.5 355,-97.5 355,-67.5 234,-67.5"/>
<text text-anchor="start" x="242" y="-85.5" font-family="Helvetica,sans-Serif" font-size="10.00" fill="#000000">hydrogen_framework</text>
<text text-anchor="middle" x="294.5" y="-74.5" font-family="Helvetica,sans-Serif" font-size="10.00" fill="#000000">::findMatchedLine</text>
</a>
</g>
</g>
<!-- Node162&#45;&gt;Node163 -->
<g id="edge1" class="edge">
<title>Node162&#45;&gt;Node163</title>
<path fill="none" stroke="#191970" d="M577.8072,-95.1281C569.1106,-96.0982 560.3858,-96.9231 552,-97.5 480.6132,-102.4112 462.343,-103.0117 391,-97.5 379.336,-96.5989 366.9492,-95.0938 355.0766,-93.3758"/>
<polygon fill="#191970" stroke="#191970" points="578.4599,-98.5755 587.9814,-93.9289 577.6404,-91.6236 578.4599,-98.5755"/>
</g>
<!-- Node168 -->
<g id="node7" class="node">
<title>Node168</title>
<g id="a_node7"><a xlink:href="../../db/d17/MVICFG_8cpp.html#aba1f11ef6a3442c674bce54fb19a092e" target="_top" xlink:title=" ">
<polygon fill="none" stroke="#000000" points="391,-29 391,-70 552,-70 552,-29 391,-29"/>
<text text-anchor="start" x="399" y="-58" font-family="Helvetica,sans-Serif" font-size="10.00" fill="#000000">hydrogen_framework</text>
<text text-anchor="start" x="399" y="-47" font-family="Helvetica,sans-Serif" font-size="10.00" fill="#000000">::resolveMatchedLinesWithNo</text>
<text text-anchor="middle" x="471.5" y="-36" font-family="Helvetica,sans-Serif" font-size="10.00" fill="#000000">ExtactStringMatch</text>
</a>
</g>
</g>
<!-- Node162&#45;&gt;Node168 -->
<g id="edge13" class="edge">
<title>Node162&#45;&gt;Node168</title>
<path fill="none" stroke="#191970" d="M577.9463,-68.0859C569.3417,-66.5835 560.6029,-65.0576 552.0213,-63.5593"/>
<polygon fill="#191970" stroke="#191970" points="577.5152,-71.5635 587.9682,-69.8357 578.7193,-64.6678 577.5152,-71.5635"/>
</g>
<!-- Node163&#45;&gt;Node163 -->
<g id="edge8" class="edge">
<title>Node163&#45;&gt;Node163</title>
<path fill="none" stroke="#191970" d="M322.2193,-107.9579C318.779,-112.679 309.5392,-116 294.5,-116 269.8203,-116 260.7582,-107.0566 267.3138,-97.659"/>
<polygon fill="#191970" stroke="#191970" points="325.6986,-107.4647 321.6862,-97.659 318.7079,-107.8266 325.6986,-107.4647"/>
</g>
<!-- Node164 -->
<g id="node3" class="node">
<title>Node164</title>
<g id="a_node3"><a xlink:href="../../db/d17/MVICFG_8cpp.html#a40d68c502d0833e919395ded787b4599" target="_top" xlink:title=" ">
<polygon fill="none" stroke="#000000" points="77,-134.5 77,-164.5 198,-164.5 198,-134.5 77,-134.5"/>
<text text-anchor="start" x="85" y="-152.5" font-family="Helvetica,sans-Serif" font-size="10.00" fill="#000000">hydrogen_framework</text>
<text text-anchor="middle" x="137.5" y="-141.5" font-family="Helvetica,sans-Serif" font-size="10.00" fill="#000000">::addToMVICFG</text>
</a>
</g>
</g>
<!-- Node163&#45;&gt;Node164 -->
<g id="edge2" class="edge">
<title>Node163&#45;&gt;Node164</title>
<path fill="none" stroke="#191970" d="M252.0686,-101.8637C235.295,-109.3984 215.8056,-118.0051 198,-125.5 191.0222,-128.4372 183.5527,-131.4809 176.327,-134.3741"/>
<polygon fill="#191970" stroke="#191970" points="253.9196,-104.8685 261.5975,-97.5677 251.0426,-98.487 253.9196,-104.8685"/>
</g>
<!-- Node166 -->
<g id="node5" class="node">
<title>Node166</title>
<g id="a_node5"><a xlink:href="../../db/d17/MVICFG_8cpp.html#ac6a97f6b1392ad5517822076e830168f" target="_top" xlink:title=" ">
<polygon fill="none" stroke="#000000" points="77,-67.5 77,-97.5 198,-97.5 198,-67.5 77,-67.5"/>
<text text-anchor="start" x="85" y="-85.5" font-family="Helvetica,sans-Serif" font-size="10.00" fill="#000000">hydrogen_framework</text>
<text text-anchor="middle" x="137.5" y="-74.5" font-family="Helvetica,sans-Serif" font-size="10.00" fill="#000000">::deleteFromMVICFG</text>
</a>
</g>
</g>
<!-- Node163&#45;&gt;Node166 -->
<g id="edge5" class="edge">
<title>Node163&#45;&gt;Node166</title>
<path fill="none" stroke="#191970" d="M223.7902,-82.5C215.193,-82.5 206.4699,-82.5 198.0389,-82.5"/>
<polygon fill="#191970" stroke="#191970" points="223.7997,-86.0001 233.7997,-82.5 223.7997,-79.0001 223.7997,-86.0001"/>
</g>
<!-- Node167 -->
<g id="node6" class="node">
<title>Node167</title>
<g id="a_node6"><a xlink:href="../../db/d17/MVICFG_8cpp.html#a27bf2e73daf11e2ad6363e34bd06de89" target="_top" xlink:title=" ">
<polygon fill="none" stroke="#000000" points="77,-.5 77,-30.5 198,-30.5 198,-.5 77,-.5"/>
<text text-anchor="start" x="85" y="-18.5" font-family="Helvetica,sans-Serif" font-size="10.00" fill="#000000">hydrogen_framework</text>
<text text-anchor="middle" x="137.5" y="-7.5" font-family="Helvetica,sans-Serif" font-size="10.00" fill="#000000">::matchedInMVICFG</text>
</a>
</g>
</g>
<!-- Node163&#45;&gt;Node167 -->
<g id="edge9" class="edge">
<title>Node163&#45;&gt;Node167</title>
<path fill="none" stroke="#191970" d="M249.8641,-63.4516C225.465,-53.0392 195.666,-40.3224 172.8875,-30.6017"/>
<polygon fill="#191970" stroke="#191970" points="248.6948,-66.7579 259.2661,-67.4639 251.4424,-60.3197 248.6948,-66.7579"/>
</g>
<!-- Node164&#45;&gt;Node164 -->
<g id="edge3" class="edge">
<title>Node164&#45;&gt;Node164</title>
<path fill="none" stroke="#191970" d="M158.1118,-174.9579C155.5536,-179.679 148.683,-183 137.5,-183 119.1484,-183 112.41,-174.0566 117.2846,-164.659"/>
<polygon fill="#191970" stroke="#191970" points="161.5975,-174.517 157.7154,-164.659 154.6027,-174.7863 161.5975,-174.517"/>
</g>
<!-- Node165 -->
<g id="node4" class="node">
<title>Node165</title>
<g id="a_node4"><a xlink:href="../../de/d64/Hydrogen_8cpp.html#a0ddf1224851353fc92bfbff6f499fa97" target="_top" xlink:title=" ">
<polygon fill="none" stroke="#000000" points="0,-73 0,-92 41,-92 41,-73 0,-73"/>
<text text-anchor="middle" x="20.5" y="-80" font-family="Helvetica,sans-Serif" font-size="10.00" fill="#000000">main</text>
</a>
</g>
</g>
<!-- Node164&#45;&gt;Node165 -->
<g id="edge4" class="edge">
<title>Node164&#45;&gt;Node165</title>
<path fill="none" stroke="#191970" d="M85.8837,-130.1552C82.8366,-128.6657 79.8533,-127.1114 77,-125.5 59.8267,-115.8014 42.0497,-101.4291 31.132,-92.0139"/>
<polygon fill="#191970" stroke="#191970" points="84.6033,-133.4188 95.1506,-134.4214 87.5306,-127.0602 84.6033,-133.4188"/>
</g>
<!-- Node166&#45;&gt;Node165 -->
<g id="edge7" class="edge">
<title>Node166&#45;&gt;Node165</title>
<path fill="none" stroke="#191970" d="M66.7111,-82.5C57.3948,-82.5 48.514,-82.5 41.0724,-82.5"/>
<polygon fill="#191970" stroke="#191970" points="66.9438,-86.0001 76.9437,-82.5 66.9437,-79.0001 66.9438,-86.0001"/>
</g>
<!-- Node166&#45;&gt;Node166 -->
<g id="edge6" class="edge">
<title>Node166&#45;&gt;Node166</title>
<path fill="none" stroke="#191970" d="M158.1118,-107.9579C155.5536,-112.679 148.683,-116 137.5,-116 119.1484,-116 112.41,-107.0566 117.2846,-97.659"/>
<polygon fill="#191970" stroke="#191970" points="161.5975,-107.517 157.7154,-97.659 154.6027,-107.7863 161.5975,-107.517"/>
</g>
<!-- Node167&#45;&gt;Node165 -->
<g id="edge10" class="edge">
<title>Node167&#45;&gt;Node165</title>
<path fill="none" stroke="#191970" d="M102.3577,-35.6242C80.802,-47.9681 54.1837,-63.211 37.271,-72.8961"/>
<polygon fill="#191970" stroke="#191970" points="104.3043,-38.5428 111.2429,-30.5361 100.8257,-32.4683 104.3043,-38.5428"/>
</g>
<!-- Node167&#45;&gt;Node167 -->
<g id="edge11" class="edge">
<title>Node167&#45;&gt;Node167</title>
<path fill="none" stroke="#191970" d="M158.1118,-40.9579C155.5536,-45.679 148.683,-49 137.5,-49 119.1484,-49 112.41,-40.0566 117.2846,-30.659"/>
<polygon fill="#191970" stroke="#191970" points="161.5975,-40.517 157.7154,-30.659 154.6027,-40.7863 161.5975,-40.517"/>
</g>
<!-- Node168&#45;&gt;Node163 -->
<g id="edge14" class="edge">
<title>Node168&#45;&gt;Node163</title>
<path fill="none" stroke="#191970" d="M380.6661,-66.4351C372.0544,-68.0407 363.4722,-69.6408 355.246,-71.1745"/>
<polygon fill="#191970" stroke="#191970" points="381.5803,-69.8251 390.7694,-64.5515 380.2973,-62.9437 381.5803,-69.8251"/>
</g>
<!-- Node168&#45;&gt;Node168 -->
<g id="edge15" class="edge">
<title>Node168&#45;&gt;Node168</title>
<path fill="none" stroke="#191970" d="M501.7798,-80.3561C497.2768,-85.1966 487.1836,-88.5 471.5,-88.5 446.4063,-88.5 435.6238,-80.0433 439.1526,-70.3644"/>
<polygon fill="#191970" stroke="#191970" points="505.2483,-80.8662 503.8474,-70.3644 498.3935,-79.4477 505.2483,-80.8662"/>
</g>
</g>
</svg>
        <g id="navigator" transform="translate(0 0)" fill="#404254">
                <rect fill="#f2f5e9" fill-opacity="0.5" stroke="#606060" stroke-width=".5" x="0" y="0" width="60" height="60"/>
                <use id="zoomplus" xlink:href="#zoomPlus" x="17" y="9" onmousedown="handleZoom(evt,'in')"/>
                <use id="zoomminus" xlink:href="#zoomMin" x="42" y="9" onmousedown="handleZoom(evt,'out')"/>
                <use id="reset" xlink:href="#resetDef" x="30" y="36" onmousedown="handleReset()"/>
                <g id="arrowUp" xlink:href="#dirArrow" transform="translate(30 24)" onmousedown="handlePan(0,-1)">
                  <use xlink:href="#rim" fill="#404040">
                        <set attributeName="fill" to="#808080" begin="arrowUp.mouseover" end="arrowUp.mouseout"/>
                  </use>
                  <path fill="none" stroke="white" stroke-width="1.5" d="M0,-3.0v7 M-2.5,-0.5L0,-3.0L2.5,-0.5"/>
                </g>
                <g id="arrowRight" xlink:href="#dirArrow" transform="rotate(90) translate(36 -43)" onmousedown="handlePan(1,0)">
                  <use xlink:href="#rim" fill="#404040">
                        <set attributeName="fill" to="#808080" begin="arrowRight.mouseover" end="arrowRight.mouseout"/>
                  </use>
                  <path fill="none" stroke="white" stroke-width="1.5" d="M0,-3.0v7 M-2.5,-0.5L0,-3.0L2.5,-0.5"/>
                </g>
                <g id="arrowDown" xlink:href="#dirArrow" transform="rotate(180) translate(-30 -48)" onmousedown="handlePan(0,1)">
                  <use xlink:href="#rim" fill="#404040">
                        <set attributeName="fill" to="#808080" begin="arrowDown.mouseover" end="arrowDown.mouseout"/>
                  </use>
                  <path fill="none" stroke="white" stroke-width="1.5" d="M0,-3.0v7 M-2.5,-0.5L0,-3.0L2.5,-0.5"/>
                </g>
                <g id="arrowLeft" xlink:href="#dirArrow" transform="rotate(270) translate(-36 17)" onmousedown="handlePan(-1,0)">
                  <use xlink:href="#rim" fill="#404040">
                        <set attributeName="fill" to="#808080" begin="arrowLeft.mouseover" end="arrowLeft.mouseout"/>
                  </use>
                  <path fill="none" stroke="white" stroke-width="1.5" d="M0,-3.0v7 M-2.5,-0.5L0,-3.0L2.5,-0.5"/>
                </g>
        </g>
        <svg viewBox="0 0 15 15" width="100%" height="30px" preserveAspectRatio="xMaxYMin meet">
         <g id="arrow_out" transform="scale(0.3 0.3)">
          <a xlink:href="MVICFG_8cpp_a107ab967667e37747c5b7687e6baccec_icgraph_org.svg" target="_base">
           <rect id="button" ry="5" rx="5" y="6" x="6" height="38" width="38"
                fill="#f2f5e9" fill-opacity="0.5" stroke="#606060" stroke-width="1.0"/>
           <path id="arrow"
             d="M 11.500037,31.436501 C 11.940474,20.09759 22.043105,11.32322 32.158766,21.979434 L 37.068811,17.246167 C 37.068811,17.246167 37.088388,32 37.088388,32 L 22.160133,31.978069 C 22.160133,31.978069 26.997745,27.140456 26.997745,27.140456 C 18.528582,18.264221 13.291696,25.230495 11.500037,31.436501 z"
             style="fill:#404040;"/>
          </a>
         </g>
        </svg>
</svg>
