<?xml version="1.0" encoding="UTF-8" standalone="no"?>
<!DOCTYPE svg PUBLIC "-//W3C//DTD SVG 1.1//EN"
 "http://www.w3.org/Graphics/SVG/1.1/DTD/svg11.dtd">
<!-- Generated by graphviz version 2.40.1 (20161225.0304)
 -->
<!-- Title: hydrogen_framework::getGraphLineGivenLine Pages: 1 -->
<svg width="379pt" height="191pt"
 viewBox="0.00 0.00 379.00 191.00" xmlns="http://www.w3.org/2000/svg" xmlns:xlink="http://www.w3.org/1999/xlink">
<g id="graph0" class="graph" transform="scale(1 1) rotate(0) translate(4 187)">
<title>hydrogen_framework::getGraphLineGivenLine</title>
<!-- Node150 -->
<g id="node1" class="node">
<title>Node150</title>
<g id="a_node1"><a xlink:title=" ">
<polygon fill="#bfbfbf" stroke="#000000" points="234,-67.5 234,-97.5 371,-97.5 371,-67.5 234,-67.5"/>
<text text-anchor="start" x="242" y="-85.5" font-family="Helvetica,sans-Serif" font-size="10.00" fill="#000000">hydrogen_framework</text>
<text text-anchor="middle" x="302.5" y="-74.5" font-family="Helvetica,sans-Serif" font-size="10.00" fill="#000000">::getGraphLineGivenLine</text>
</a>
</g>
</g>
<!-- Node150&#45;&gt;Node150 -->
<g id="edge7" class="edge">
<title>Node150&#45;&gt;Node150</title>
<path fill="none" stroke="#191970" d="M331.6408,-107.9579C328.024,-112.679 318.3104,-116 302.5,-116 276.5547,-116 267.0279,-107.0566 273.9196,-97.659"/>
<polygon fill="#191970" stroke="#191970" points="335.1187,-107.454 331.0804,-97.659 328.129,-107.8344 335.1187,-107.454"/>
</g>
<!-- Node151 -->
<g id="node2" class="node">
<title>Node151</title>
<g id="a_node2"><a xlink:href="../../db/d17/MVICFG_8cpp.html#a40d68c502d0833e919395ded787b4599" target="_top" xlink:title=" ">
<polygon fill="none" stroke="#000000" points="77,-134.5 77,-164.5 198,-164.5 198,-134.5 77,-134.5"/>
<text text-anchor="start" x="85" y="-152.5" font-family="Helvetica,sans-Serif" font-size="10.00" fill="#000000">hydrogen_framework</text>
<text text-anchor="middle" x="137.5" y="-141.5" font-family="Helvetica,sans-Serif" font-size="10.00" fill="#000000">::addToMVICFG</text>
</a>
</g>
</g>
<!-- Node150&#45;&gt;Node151 -->
<g id="edge1" class="edge">
<title>Node150&#45;&gt;Node151</title>
<path fill="none" stroke="#191970" d="M257.0005,-101.3692C238.6894,-108.9247 217.3618,-117.6765 198,-125.5 190.771,-128.421 183.0438,-131.5109 175.612,-134.4665"/>
<polygon fill="#191970" stroke="#191970" points="258.3683,-104.5911 266.2747,-97.5385 255.6959,-98.1213 258.3683,-104.5911"/>
</g>
<!-- Node153 -->
<g id="node4" class="node">
<title>Node153</title>
<g id="a_node4"><a xlink:href="../../db/d17/MVICFG_8cpp.html#ac6a97f6b1392ad5517822076e830168f" target="_top" xlink:title=" ">
<polygon fill="none" stroke="#000000" points="77,-67.5 77,-97.5 198,-97.5 198,-67.5 77,-67.5"/>
<text text-anchor="start" x="85" y="-85.5" font-family="Helvetica,sans-Serif" font-size="10.00" fill="#000000">hydrogen_framework</text>
<text text-anchor="middle" x="137.5" y="-74.5" font-family="Helvetica,sans-Serif" font-size="10.00" fill="#000000">::deleteFromMVICFG</text>
</a>
</g>
</g>
<!-- Node150&#45;&gt;Node153 -->
<g id="edge4" class="edge">
<title>Node150&#45;&gt;Node153</title>
<path fill="none" stroke="#191970" d="M223.8764,-82.5C215.2463,-82.5 206.5595,-82.5 198.1949,-82.5"/>
<polygon fill="#191970" stroke="#191970" points="223.9586,-86.0001 233.9586,-82.5 223.9586,-79.0001 223.9586,-86.0001"/>
</g>
<!-- Node154 -->
<g id="node5" class="node">
<title>Node154</title>
<g id="a_node5"><a xlink:href="../../db/d17/MVICFG_8cpp.html#a27bf2e73daf11e2ad6363e34bd06de89" target="_top" xlink:title=" ">
<polygon fill="none" stroke="#000000" points="77,-.5 77,-30.5 198,-30.5 198,-.5 77,-.5"/>
<text text-anchor="start" x="85" y="-18.5" font-family="Helvetica,sans-Serif" font-size="10.00" fill="#000000">hydrogen_framework</text>
<text text-anchor="middle" x="137.5" y="-7.5" font-family="Helvetica,sans-Serif" font-size="10.00" fill="#000000">::matchedInMVICFG</text>
</a>
</g>
</g>
<!-- Node150&#45;&gt;Node154 -->
<g id="edge8" class="edge">
<title>Node150&#45;&gt;Node154</title>
<path fill="none" stroke="#191970" d="M255.9298,-63.5897C230.2245,-53.1518 198.7358,-40.3654 174.6907,-30.6017"/>
<polygon fill="#191970" stroke="#191970" points="254.8887,-66.9444 265.4708,-67.4639 257.5223,-60.4587 254.8887,-66.9444"/>
</g>
<!-- Node151&#45;&gt;Node151 -->
<g id="edge2" class="edge">
<title>Node151&#45;&gt;Node151</title>
<path fill="none" stroke="#191970" d="M158.1118,-174.9579C155.5536,-179.679 148.683,-183 137.5,-183 119.1484,-183 112.41,-174.0566 117.2846,-164.659"/>
<polygon fill="#191970" stroke="#191970" points="161.5975,-174.517 157.7154,-164.659 154.6027,-174.7863 161.5975,-174.517"/>
</g>
<!-- Node152 -->
<g id="node3" class="node">
<title>Node152</title>
<g id="a_node3"><a xlink:href="../../de/d64/Hydrogen_8cpp.html#a0ddf1224851353fc92bfbff6f499fa97" target="_top" xlink:title=" ">
<polygon fill="none" stroke="#000000" points="0,-73 0,-92 41,-92 41,-73 0,-73"/>
<text text-anchor="middle" x="20.5" y="-80" font-family="Helvetica,sans-Serif" font-size="10.00" fill="#000000">main</text>
</a>
</g>
</g>
<!-- Node151&#45;&gt;Node152 -->
<g id="edge3" class="edge">
<title>Node151&#45;&gt;Node152</title>
<path fill="none" stroke="#191970" d="M85.8837,-130.1552C82.8366,-128.6657 79.8533,-127.1114 77,-125.5 59.8267,-115.8014 42.0497,-101.4291 31.132,-92.0139"/>
<polygon fill="#191970" stroke="#191970" points="84.6033,-133.4188 95.1506,-134.4214 87.5306,-127.0602 84.6033,-133.4188"/>
</g>
<!-- Node153&#45;&gt;Node152 -->
<g id="edge6" class="edge">
<title>Node153&#45;&gt;Node152</title>
<path fill="none" stroke="#191970" d="M66.7111,-82.5C57.3948,-82.5 48.514,-82.5 41.0724,-82.5"/>
<polygon fill="#191970" stroke="#191970" points="66.9438,-86.0001 76.9437,-82.5 66.9437,-79.0001 66.9438,-86.0001"/>
</g>
<!-- Node153&#45;&gt;Node153 -->
<g id="edge5" class="edge">
<title>Node153&#45;&gt;Node153</title>
<path fill="none" stroke="#191970" d="M158.1118,-107.9579C155.5536,-112.679 148.683,-116 137.5,-116 119.1484,-116 112.41,-107.0566 117.2846,-97.659"/>
<polygon fill="#191970" stroke="#191970" points="161.5975,-107.517 157.7154,-97.659 154.6027,-107.7863 161.5975,-107.517"/>
</g>
<!-- Node154&#45;&gt;Node152 -->
<g id="edge9" class="edge">
<title>Node154&#45;&gt;Node152</title>
<path fill="none" stroke="#191970" d="M102.3577,-35.6242C80.802,-47.9681 54.1837,-63.211 37.271,-72.8961"/>
<polygon fill="#191970" stroke="#191970" points="104.3043,-38.5428 111.2429,-30.5361 100.8257,-32.4683 104.3043,-38.5428"/>
</g>
<!-- Node154&#45;&gt;Node154 -->
<g id="edge10" class="edge">
<title>Node154&#45;&gt;Node154</title>
<path fill="none" stroke="#191970" d="M158.1118,-40.9579C155.5536,-45.679 148.683,-49 137.5,-49 119.1484,-49 112.41,-40.0566 117.2846,-30.659"/>
<polygon fill="#191970" stroke="#191970" points="161.5975,-40.517 157.7154,-30.659 154.6027,-40.7863 161.5975,-40.517"/>
</g>
</g>
</svg>
