<?xml version="1.0" encoding="UTF-8" standalone="no"?>
<!DOCTYPE svg PUBLIC "-//W3C//DTD SVG 1.1//EN"
 "http://www.w3.org/Graphics/SVG/1.1/DTD/svg11.dtd">
<!-- Generated by graphviz version 2.40.1 (20161225.0304)
 -->
<!-- Title: hydrogen_framework::generateLineMapping Pages: 1 -->
<!--zoomable 210 -->
<svg id="main" version="1.1" xmlns="http://www.w3.org/2000/svg" xmlns:xlink="http://www.w3.org/1999/xlink" xml:space="preserve" onload="init(evt)">
<style type="text/css"><![CDATA[
.edge:hover path { stroke: red; }
.edge:hover polygon { stroke: red; fill: red; }
]]></style>
<script type="text/javascript"><![CDATA[
var edges = document.getElementsByTagName('g');
if (edges && edges.length) {
  for (var i=0;i<edges.length;i++) {
    if (edges[i].id.substr(0,4)=='edge') {
      edges[i].setAttribute('class','edge');
    }
  }
}
]]></script>
        <defs>
                <circle id="rim" cx="0" cy="0" r="7"/>
                <circle id="rim2" cx="0" cy="0" r="3.5"/>
                <g id="zoomPlus">
                        <use xlink:href="#rim" target="_top" fill="#404040">
                                <set attributeName="fill" to="#808080" begin="zoomplus.mouseover" end="zoomplus.mouseout"/>
                        </use>
                        <path d="M-4,0h8M0,-4v8" fill="none" stroke="white" stroke-width="1.5" pointer-events="none"/>
                </g>
                <g id="zoomMin">
                        <use xlink:href="#rim" target="_top" fill="#404040">
                                <set attributeName="fill" to="#808080" begin="zoomminus.mouseover" end="zoomminus.mouseout"/>
                        </use>
                        <path d="M-4,0h8" fill="none" stroke="white" stroke-width="1.5" pointer-events="none"/>
                </g>
                <g id="dirArrow">
                        <path fill="none" stroke="white" stroke-width="1.5" d="M0,-3.0v7 M-2.5,-0.5L0,-3.0L2.5,-0.5"/>
                </g>
               <g id="resetDef">
                       <use xlink:href="#rim2" target="_top" fill="#404040">
                               <set attributeName="fill" to="#808080" begin="reset.mouseover" end="reset.mouseout"/>
                       </use>
               </g>
        </defs>

<script type="text/javascript">
var viewWidth = 673;
var viewHeight = 210;
var sectionId = 'dynsection-9';
</script>
<script xlink:href="../../svgpan.js" target="_top"/>
<svg id="graph" class="graph">
<g id="viewport">
<title>hydrogen_framework::generateLineMapping</title>
<!-- Node127 -->
<g id="node1" class="node">
<title>Node127</title>
<g id="a_node1"><a xlink:title=" ">
<polygon fill="#bfbfbf" stroke="#000000" points="0,-73.5 0,-103.5 128,-103.5 128,-73.5 0,-73.5"/>
<text text-anchor="start" x="8" y="-91.5" font-family="Helvetica,sans-Serif" font-size="10.00" fill="#000000">hydrogen_framework</text>
<text text-anchor="middle" x="64" y="-80.5" font-family="Helvetica,sans-Serif" font-size="10.00" fill="#000000">::generateLineMapping</text>
</a>
</g>
</g>
<!-- Node127&#45;&gt;Node127 -->
<g id="edge7" class="edge">
<title>Node127&#45;&gt;Node127</title>
<path fill="none" stroke="#191970" d="M33.6769,-103.659C26.365,-113.0566 36.4727,-122 64,-122 80.7745,-122 91.0804,-118.679 94.9177,-113.9579"/>
<polygon fill="#191970" stroke="#191970" points="98.3938,-113.4406 94.3231,-103.659 91.4054,-113.8441 98.3938,-113.4406"/>
</g>
<!-- Node128 -->
<g id="node2" class="node">
<title>Node128</title>
<g id="a_node2"><a xlink:href="../../d2/d24/classhydrogen__framework_1_1Diff__Util.html#aa59b7d19a2dcff228c035a204fe2aa30" target="_top" target="_top" xlink:title=" ">
<polygon fill="none" stroke="#000000" points="178,-147.5 178,-177.5 299,-177.5 299,-147.5 178,-147.5"/>
<text text-anchor="start" x="186" y="-165.5" font-family="Helvetica,sans-Serif" font-size="10.00" fill="#000000">hydrogen_framework</text>
<text text-anchor="middle" x="238.5" y="-154.5" font-family="Helvetica,sans-Serif" font-size="10.00" fill="#000000">::Diff_Util::compose</text>
</a>
</g>
</g>
<!-- Node127&#45;&gt;Node128 -->
<g id="edge1" class="edge">
<title>Node127&#45;&gt;Node128</title>
<path fill="none" stroke="#191970" d="M91.4928,-103.6673C111.2932,-114.2371 138.8419,-128.2277 164,-138.5 168.6763,-140.4094 173.5654,-142.2703 178.5068,-144.0565"/>
<polygon fill="#191970" stroke="#191970" points="177.4369,-147.3902 188.0318,-147.3927 179.7509,-140.7838 177.4369,-147.3902"/>
</g>
<!-- Node134 -->
<g id="node8" class="node">
<title>Node134</title>
<g id="a_node8"><a xlink:href="../../d1/d16/classhydrogen__framework_1_1Diff__Ses.html#aed7a641eb4b4f795727d3276c7cf9d72" target="_top" target="_top" xlink:title=" ">
<polygon fill="none" stroke="#000000" points="173,-98.5 173,-128.5 304,-128.5 304,-98.5 173,-98.5"/>
<text text-anchor="start" x="181" y="-116.5" font-family="Helvetica,sans-Serif" font-size="10.00" fill="#000000">hydrogen_framework</text>
<text text-anchor="middle" x="238.5" y="-105.5" font-family="Helvetica,sans-Serif" font-size="10.00" fill="#000000">::Diff_Ses::getSequence</text>
</a>
</g>
</g>
<!-- Node127&#45;&gt;Node134 -->
<g id="edge8" class="edge">
<title>Node127&#45;&gt;Node134</title>
<path fill="none" stroke="#191970" d="M128.4816,-97.738C139.6701,-99.341 151.3957,-101.0209 162.8498,-102.6619"/>
<polygon fill="#191970" stroke="#191970" points="162.4299,-106.1374 172.8253,-104.091 163.4227,-99.2081 162.4299,-106.1374"/>
</g>
<!-- Node135 -->
<g id="node9" class="node">
<title>Node135</title>
<g id="a_node9"><a xlink:href="../../d2/d24/classhydrogen__framework_1_1Diff__Util.html#af63529a18bc4248cad96d9562f114427" target="_top" target="_top" xlink:title=" ">
<polygon fill="none" stroke="#000000" points="178,-49.5 178,-79.5 299,-79.5 299,-49.5 178,-49.5"/>
<text text-anchor="start" x="186" y="-67.5" font-family="Helvetica,sans-Serif" font-size="10.00" fill="#000000">hydrogen_framework</text>
<text text-anchor="middle" x="238.5" y="-56.5" font-family="Helvetica,sans-Serif" font-size="10.00" fill="#000000">::Diff_Util::getSes</text>
</a>
</g>
</g>
<!-- Node127&#45;&gt;Node135 -->
<g id="edge9" class="edge">
<title>Node127&#45;&gt;Node135</title>
<path fill="none" stroke="#191970" d="M128.4816,-79.6315C141.1985,-77.8824 154.6092,-76.038 167.5264,-74.2614"/>
<polygon fill="#191970" stroke="#191970" points="168.3275,-77.6843 177.7573,-72.8543 167.3737,-70.7495 168.3275,-77.6843"/>
</g>
<!-- Node136 -->
<g id="node10" class="node">
<title>Node136</title>
<g id="a_node10"><a xlink:href="../../d0/d21/classhydrogen__framework_1_1Diff__Mapping.html#a034639efedc0bddd31b06669739bdd63" target="_top" target="_top" xlink:title=" ">
<polygon fill="none" stroke="#000000" points="164,-.5 164,-30.5 313,-30.5 313,-.5 164,-.5"/>
<text text-anchor="start" x="172" y="-18.5" font-family="Helvetica,sans-Serif" font-size="10.00" fill="#000000">hydrogen_framework</text>
<text text-anchor="middle" x="238.5" y="-7.5" font-family="Helvetica,sans-Serif" font-size="10.00" fill="#000000">::Diff_Mapping::putMapping</text>
</a>
</g>
</g>
<!-- Node127&#45;&gt;Node136 -->
<g id="edge10" class="edge">
<title>Node127&#45;&gt;Node136</title>
<path fill="none" stroke="#191970" d="M92.8889,-73.4602C112.6344,-63.473 139.5548,-50.424 164,-40.5 169.4257,-38.2973 175.1263,-36.1305 180.8571,-34.0494"/>
<polygon fill="#191970" stroke="#191970" points="182.2303,-37.2761 190.4869,-30.6368 179.8921,-30.6782 182.2303,-37.2761"/>
</g>
<!-- Node129 -->
<g id="node3" class="node">
<title>Node129</title>
<g id="a_node3"><a xlink:href="../../d2/d24/classhydrogen__framework_1_1Diff__Util.html#a5e20bf56f59450ea74fff6d62f5fa80e" target="_top" target="_top" xlink:title=" ">
<polygon fill="none" stroke="#000000" points="361.5,-171.5 361.5,-201.5 482.5,-201.5 482.5,-171.5 361.5,-171.5"/>
<text text-anchor="start" x="369.5" y="-189.5" font-family="Helvetica,sans-Serif" font-size="10.00" fill="#000000">hydrogen_framework</text>
<text text-anchor="middle" x="422" y="-178.5" font-family="Helvetica,sans-Serif" font-size="10.00" fill="#000000">::Diff_Util::snake</text>
</a>
</g>
</g>
<!-- Node128&#45;&gt;Node129 -->
<g id="edge2" class="edge">
<title>Node128&#45;&gt;Node129</title>
<path fill="none" stroke="#191970" d="M299.0933,-170.425C315.8485,-172.6164 334.1767,-175.0136 351.4452,-177.2721"/>
<polygon fill="#191970" stroke="#191970" points="351.1008,-180.7568 361.4703,-178.5833 352.0087,-173.8159 351.1008,-180.7568"/>
</g>
<!-- Node131 -->
<g id="node5" class="node">
<title>Node131</title>
<g id="a_node5"><a xlink:href="../../d2/d24/classhydrogen__framework_1_1Diff__Util.html#a8a55acedee5057dd3c8394106da2dcaf" target="_top" target="_top" xlink:title=" ">
<polygon fill="none" stroke="#000000" points="349,-122.5 349,-152.5 495,-152.5 495,-122.5 349,-122.5"/>
<text text-anchor="start" x="357" y="-140.5" font-family="Helvetica,sans-Serif" font-size="10.00" fill="#000000">hydrogen_framework</text>
<text text-anchor="middle" x="422" y="-129.5" font-family="Helvetica,sans-Serif" font-size="10.00" fill="#000000">::Diff_Util::recordSequence</text>
</a>
</g>
</g>
<!-- Node128&#45;&gt;Node131 -->
<g id="edge4" class="edge">
<title>Node128&#45;&gt;Node131</title>
<path fill="none" stroke="#191970" d="M299.0933,-154.2448C311.738,-152.5221 325.2785,-150.6773 338.5834,-148.8647"/>
<polygon fill="#191970" stroke="#191970" points="339.2571,-152.3053 348.6931,-147.4873 338.3121,-145.3694 339.2571,-152.3053"/>
</g>
<!-- Node130 -->
<g id="node4" class="node">
<title>Node130</title>
<g id="a_node4"><a xlink:href="../../d1/d32/classhydrogen__framework_1_1Diff__Compare.html#a0ca27f55c1d86275e679b5b2c89e8e14" target="_top" target="_top" xlink:title=" ">
<polygon fill="none" stroke="#000000" points="537.5,-171.5 537.5,-201.5 658.5,-201.5 658.5,-171.5 537.5,-171.5"/>
<text text-anchor="start" x="545.5" y="-189.5" font-family="Helvetica,sans-Serif" font-size="10.00" fill="#000000">hydrogen_framework</text>
<text text-anchor="middle" x="598" y="-178.5" font-family="Helvetica,sans-Serif" font-size="10.00" fill="#000000">::Diff_Compare::impl</text>
</a>
</g>
</g>
<!-- Node129&#45;&gt;Node130 -->
<g id="edge3" class="edge">
<title>Node129&#45;&gt;Node130</title>
<path fill="none" stroke="#191970" d="M482.5692,-186.5C496.9499,-186.5 512.4166,-186.5 527.2082,-186.5"/>
<polygon fill="#191970" stroke="#191970" points="527.3192,-190.0001 537.3191,-186.5 527.3191,-183.0001 527.3192,-190.0001"/>
</g>
<!-- Node132 -->
<g id="node6" class="node">
<title>Node132</title>
<g id="a_node6"><a xlink:href="../../d2/d24/classhydrogen__framework_1_1Diff__Util.html#a13df93008042bf13d0a816819e96a327" target="_top" target="_top" xlink:title=" ">
<polygon fill="none" stroke="#000000" points="532,-122.5 532,-152.5 664,-152.5 664,-122.5 532,-122.5"/>
<text text-anchor="start" x="540" y="-140.5" font-family="Helvetica,sans-Serif" font-size="10.00" fill="#000000">hydrogen_framework</text>
<text text-anchor="middle" x="598" y="-129.5" font-family="Helvetica,sans-Serif" font-size="10.00" fill="#000000">::Diff_Util::wasSwapped</text>
</a>
</g>
</g>
<!-- Node131&#45;&gt;Node132 -->
<g id="edge5" class="edge">
<title>Node131&#45;&gt;Node132</title>
<path fill="none" stroke="#191970" d="M495.1108,-137.5C503.8676,-137.5 512.827,-137.5 521.6285,-137.5"/>
<polygon fill="#191970" stroke="#191970" points="521.8665,-141.0001 531.8665,-137.5 521.8664,-134.0001 521.8665,-141.0001"/>
</g>
<!-- Node133 -->
<g id="node7" class="node">
<title>Node133</title>
<g id="a_node7"><a xlink:href="../../d1/d16/classhydrogen__framework_1_1Diff__Ses.html#aad048cb9107135ef5fce5e808814872d" target="_top" target="_top" xlink:title=" ">
<polygon fill="none" stroke="#000000" points="531,-73.5 531,-103.5 665,-103.5 665,-73.5 531,-73.5"/>
<text text-anchor="start" x="539" y="-91.5" font-family="Helvetica,sans-Serif" font-size="10.00" fill="#000000">hydrogen_framework</text>
<text text-anchor="middle" x="598" y="-80.5" font-family="Helvetica,sans-Serif" font-size="10.00" fill="#000000">::Diff_Ses::addSequence</text>
</a>
</g>
</g>
<!-- Node131&#45;&gt;Node133 -->
<g id="edge6" class="edge">
<title>Node131&#45;&gt;Node133</title>
<path fill="none" stroke="#191970" d="M476.2419,-122.3986C494.5619,-117.2981 515.1827,-111.5571 534.1748,-106.2695"/>
<polygon fill="#191970" stroke="#191970" points="535.2423,-109.6055 543.9372,-103.5516 533.3648,-102.862 535.2423,-109.6055"/>
</g>
</g>
</svg>
        <g id="navigator" transform="translate(0 0)" fill="#404254">
                <rect fill="#f2f5e9" fill-opacity="0.5" stroke="#606060" stroke-width=".5" x="0" y="0" width="60" height="60"/>
                <use id="zoomplus" xlink:href="#zoomPlus" target="_top" x="17" y="9" onmousedown="handleZoom(evt,'in')"/>
                <use id="zoomminus" xlink:href="#zoomMin" target="_top" x="42" y="9" onmousedown="handleZoom(evt,'out')"/>
                <use id="reset" xlink:href="#resetDef" target="_top" x="30" y="36" onmousedown="handleReset()"/>
                <g id="arrowUp" xlink:href="#dirArrow" target="_top" transform="translate(30 24)" onmousedown="handlePan(0,-1)">
                  <use xlink:href="#rim" target="_top" fill="#404040">
                        <set attributeName="fill" to="#808080" begin="arrowUp.mouseover" end="arrowUp.mouseout"/>
                  </use>
                  <path fill="none" stroke="white" stroke-width="1.5" d="M0,-3.0v7 M-2.5,-0.5L0,-3.0L2.5,-0.5"/>
                </g>
                <g id="arrowRight" xlink:href="#dirArrow" target="_top" transform="rotate(90) translate(36 -43)" onmousedown="handlePan(1,0)">
                  <use xlink:href="#rim" target="_top" fill="#404040">
                        <set attributeName="fill" to="#808080" begin="arrowRight.mouseover" end="arrowRight.mouseout"/>
                  </use>
                  <path fill="none" stroke="white" stroke-width="1.5" d="M0,-3.0v7 M-2.5,-0.5L0,-3.0L2.5,-0.5"/>
                </g>
                <g id="arrowDown" xlink:href="#dirArrow" target="_top" transform="rotate(180) translate(-30 -48)" onmousedown="handlePan(0,1)">
                  <use xlink:href="#rim" target="_top" fill="#404040">
                        <set attributeName="fill" to="#808080" begin="arrowDown.mouseover" end="arrowDown.mouseout"/>
                  </use>
                  <path fill="none" stroke="white" stroke-width="1.5" d="M0,-3.0v7 M-2.5,-0.5L0,-3.0L2.5,-0.5"/>
                </g>
                <g id="arrowLeft" xlink:href="#dirArrow" target="_top" transform="rotate(270) translate(-36 17)" onmousedown="handlePan(-1,0)">
                  <use xlink:href="#rim" target="_top" fill="#404040">
                        <set attributeName="fill" to="#808080" begin="arrowLeft.mouseover" end="arrowLeft.mouseout"/>
                  </use>
                  <path fill="none" stroke="white" stroke-width="1.5" d="M0,-3.0v7 M-2.5,-0.5L0,-3.0L2.5,-0.5"/>
                </g>
        </g>
        <svg viewBox="0 0 15 15" width="100%" height="30px" preserveAspectRatio="xMaxYMin meet">
         <g id="arrow_out" transform="scale(0.3 0.3)">
          <a xlink:href="MVICFG_8cpp_acba4bfcf960997bacef6e55377e99e6f_cgraph_org.svg" target="_top" target="_base">
           <rect id="button" ry="5" rx="5" y="6" x="6" height="38" width="38"
                fill="#f2f5e9" fill-opacity="0.5" stroke="#606060" stroke-width="1.0"/>
           <path id="arrow"
             d="M 11.500037,31.436501 C 11.940474,20.09759 22.043105,11.32322 32.158766,21.979434 L 37.068811,17.246167 C 37.068811,17.246167 37.088388,32 37.088388,32 L 22.160133,31.978069 C 22.160133,31.978069 26.997745,27.140456 26.997745,27.140456 C 18.528582,18.264221 13.291696,25.230495 11.500037,31.436501 z"
             style="fill:#404040;"/>
          </a>
         </g>
        </svg>
</svg>
