<?xml version="1.0" encoding="UTF-8" standalone="no"?>
<!DOCTYPE svg PUBLIC "-//W3C//DTD SVG 1.1//EN"
 "http://www.w3.org/Graphics/SVG/1.1/DTD/svg11.dtd">
<!-- Generated by graphviz version 2.40.1 (20161225.0304)
 -->
<!-- Title: hydrogen_framework::getSuccGivenGraphLine Pages: 1 -->
<svg width="381pt" height="191pt"
 viewBox="0.00 0.00 381.00 191.00" xmlns="http://www.w3.org/2000/svg" xmlns:xlink="http://www.w3.org/1999/xlink">
<g id="graph0" class="graph" transform="scale(1 1) rotate(0) translate(4 187)">
<title>hydrogen_framework::getSuccGivenGraphLine</title>
<!-- Node218 -->
<g id="node1" class="node">
<title>Node218</title>
<g id="a_node1"><a xlink:title=" ">
<polygon fill="#bfbfbf" stroke="#000000" points="234,-67.5 234,-97.5 373,-97.5 373,-67.5 234,-67.5"/>
<text text-anchor="start" x="242" y="-85.5" font-family="Helvetica,sans-Serif" font-size="10.00" fill="#000000">hydrogen_framework</text>
<text text-anchor="middle" x="303.5" y="-74.5" font-family="Helvetica,sans-Serif" font-size="10.00" fill="#000000">::getSuccGivenGraphLine</text>
</a>
</g>
</g>
<!-- Node218&#45;&gt;Node218 -->
<g id="edge7" class="edge">
<title>Node218&#45;&gt;Node218</title>
<path fill="none" stroke="#191970" d="M332.9962,-107.9579C329.3353,-112.679 319.5032,-116 303.5,-116 277.2383,-116 267.5953,-107.0566 274.5711,-97.659"/>
<polygon fill="#191970" stroke="#191970" points="336.4737,-107.4513 332.4289,-97.659 329.4843,-107.8364 336.4737,-107.4513"/>
</g>
<!-- Node219 -->
<g id="node2" class="node">
<title>Node219</title>
<g id="a_node2"><a xlink:href="../../db/d17/MVICFG_8cpp.html#a40d68c502d0833e919395ded787b4599" target="_top" target="_top" xlink:title=" ">
<polygon fill="none" stroke="#000000" points="77,-134.5 77,-164.5 198,-164.5 198,-134.5 77,-134.5"/>
<text text-anchor="start" x="85" y="-152.5" font-family="Helvetica,sans-Serif" font-size="10.00" fill="#000000">hydrogen_framework</text>
<text text-anchor="middle" x="137.5" y="-141.5" font-family="Helvetica,sans-Serif" font-size="10.00" fill="#000000">::addToMVICFG</text>
</a>
</g>
</g>
<!-- Node218&#45;&gt;Node219 -->
<g id="edge1" class="edge">
<title>Node218&#45;&gt;Node219</title>
<path fill="none" stroke="#191970" d="M257.5512,-101.337C239.0629,-108.8879 217.5335,-117.645 198,-125.5 190.7662,-128.4089 183.0367,-131.4933 175.6042,-134.4472"/>
<polygon fill="#191970" stroke="#191970" points="258.9832,-104.5329 266.9156,-97.5095 256.3347,-98.0532 258.9832,-104.5329"/>
</g>
<!-- Node221 -->
<g id="node4" class="node">
<title>Node221</title>
<g id="a_node4"><a xlink:href="../../db/d17/MVICFG_8cpp.html#ac6a97f6b1392ad5517822076e830168f" target="_top" target="_top" xlink:title=" ">
<polygon fill="none" stroke="#000000" points="77,-67.5 77,-97.5 198,-97.5 198,-67.5 77,-67.5"/>
<text text-anchor="start" x="85" y="-85.5" font-family="Helvetica,sans-Serif" font-size="10.00" fill="#000000">hydrogen_framework</text>
<text text-anchor="middle" x="137.5" y="-74.5" font-family="Helvetica,sans-Serif" font-size="10.00" fill="#000000">::deleteFromMVICFG</text>
</a>
</g>
</g>
<!-- Node218&#45;&gt;Node221 -->
<g id="edge4" class="edge">
<title>Node218&#45;&gt;Node221</title>
<path fill="none" stroke="#191970" d="M223.575,-82.5C215.0147,-82.5 206.4108,-82.5 198.128,-82.5"/>
<polygon fill="#191970" stroke="#191970" points="223.5822,-86.0001 233.5822,-82.5 223.5821,-79.0001 223.5822,-86.0001"/>
</g>
<!-- Node222 -->
<g id="node5" class="node">
<title>Node222</title>
<g id="a_node5"><a xlink:href="../../db/d17/MVICFG_8cpp.html#a27bf2e73daf11e2ad6363e34bd06de89" target="_top" target="_top" xlink:title=" ">
<polygon fill="none" stroke="#000000" points="77,-.5 77,-30.5 198,-30.5 198,-.5 77,-.5"/>
<text text-anchor="start" x="85" y="-18.5" font-family="Helvetica,sans-Serif" font-size="10.00" fill="#000000">hydrogen_framework</text>
<text text-anchor="middle" x="137.5" y="-7.5" font-family="Helvetica,sans-Serif" font-size="10.00" fill="#000000">::matchedInMVICFG</text>
</a>
</g>
</g>
<!-- Node218&#45;&gt;Node222 -->
<g id="edge8" class="edge">
<title>Node218&#45;&gt;Node222</title>
<path fill="none" stroke="#191970" d="M256.6475,-63.5897C230.7865,-53.1518 199.1069,-40.3654 174.9161,-30.6017"/>
<polygon fill="#191970" stroke="#191970" points="255.6632,-66.9667 266.2464,-67.4639 258.2832,-60.4754 255.6632,-66.9667"/>
</g>
<!-- Node219&#45;&gt;Node219 -->
<g id="edge2" class="edge">
<title>Node219&#45;&gt;Node219</title>
<path fill="none" stroke="#191970" d="M158.1118,-174.9579C155.5536,-179.679 148.683,-183 137.5,-183 119.1484,-183 112.41,-174.0566 117.2846,-164.659"/>
<polygon fill="#191970" stroke="#191970" points="161.5975,-174.517 157.7154,-164.659 154.6027,-174.7863 161.5975,-174.517"/>
</g>
<!-- Node220 -->
<g id="node3" class="node">
<title>Node220</title>
<g id="a_node3"><a xlink:href="../../de/d64/Hydrogen_8cpp.html#a0ddf1224851353fc92bfbff6f499fa97" target="_top" target="_top" xlink:title=" ">
<polygon fill="none" stroke="#000000" points="0,-73 0,-92 41,-92 41,-73 0,-73"/>
<text text-anchor="middle" x="20.5" y="-80" font-family="Helvetica,sans-Serif" font-size="10.00" fill="#000000">main</text>
</a>
</g>
</g>
<!-- Node219&#45;&gt;Node220 -->
<g id="edge3" class="edge">
<title>Node219&#45;&gt;Node220</title>
<path fill="none" stroke="#191970" d="M85.8837,-130.1552C82.8366,-128.6657 79.8533,-127.1114 77,-125.5 59.8267,-115.8014 42.0497,-101.4291 31.132,-92.0139"/>
<polygon fill="#191970" stroke="#191970" points="84.6033,-133.4188 95.1506,-134.4214 87.5306,-127.0602 84.6033,-133.4188"/>
</g>
<!-- Node221&#45;&gt;Node220 -->
<g id="edge6" class="edge">
<title>Node221&#45;&gt;Node220</title>
<path fill="none" stroke="#191970" d="M66.7111,-82.5C57.3948,-82.5 48.514,-82.5 41.0724,-82.5"/>
<polygon fill="#191970" stroke="#191970" points="66.9438,-86.0001 76.9437,-82.5 66.9437,-79.0001 66.9438,-86.0001"/>
</g>
<!-- Node221&#45;&gt;Node221 -->
<g id="edge5" class="edge">
<title>Node221&#45;&gt;Node221</title>
<path fill="none" stroke="#191970" d="M158.1118,-107.9579C155.5536,-112.679 148.683,-116 137.5,-116 119.1484,-116 112.41,-107.0566 117.2846,-97.659"/>
<polygon fill="#191970" stroke="#191970" points="161.5975,-107.517 157.7154,-97.659 154.6027,-107.7863 161.5975,-107.517"/>
</g>
<!-- Node222&#45;&gt;Node220 -->
<g id="edge9" class="edge">
<title>Node222&#45;&gt;Node220</title>
<path fill="none" stroke="#191970" d="M102.3577,-35.6242C80.802,-47.9681 54.1837,-63.211 37.271,-72.8961"/>
<polygon fill="#191970" stroke="#191970" points="104.3043,-38.5428 111.2429,-30.5361 100.8257,-32.4683 104.3043,-38.5428"/>
</g>
<!-- Node222&#45;&gt;Node222 -->
<g id="edge10" class="edge">
<title>Node222&#45;&gt;Node222</title>
<path fill="none" stroke="#191970" d="M158.1118,-40.9579C155.5536,-45.679 148.683,-49 137.5,-49 119.1484,-49 112.41,-40.0566 117.2846,-30.659"/>
<polygon fill="#191970" stroke="#191970" points="161.5975,-40.517 157.7154,-30.659 154.6027,-40.7863 161.5975,-40.517"/>
</g>
</g>
</svg>
