<?xml version="1.0" encoding="UTF-8" standalone="no"?>
<!DOCTYPE svg PUBLIC "-//W3C//DTD SVG 1.1//EN"
 "http://www.w3.org/Graphics/SVG/1.1/DTD/svg11.dtd">
<!-- Generated by graphviz version 2.40.1 (20161225.0304)
 -->
<!-- Title: hydrogen_framework::getInBetweenEdge Pages: 1 -->
<svg width="498pt" height="106pt"
 viewBox="0.00 0.00 498.00 106.00" xmlns="http://www.w3.org/2000/svg" xmlns:xlink="http://www.w3.org/1999/xlink">
<g id="graph0" class="graph" transform="scale(1 1) rotate(0) translate(4 102)">
<title>hydrogen_framework::getInBetweenEdge</title>
<!-- Node179 -->
<g id="node1" class="node">
<title>Node179</title>
<g id="a_node1"><a xlink:title=" ">
<polygon fill="#bfbfbf" stroke="#000000" points="0,-24.5 0,-54.5 121,-54.5 121,-24.5 0,-24.5"/>
<text text-anchor="start" x="8" y="-42.5" font-family="Helvetica,sans-Serif" font-size="10.00" fill="#000000">hydrogen_framework</text>
<text text-anchor="middle" x="60.5" y="-31.5" font-family="Helvetica,sans-Serif" font-size="10.00" fill="#000000">::getInBetweenEdge</text>
</a>
</g>
</g>
<!-- Node179&#45;&gt;Node179 -->
<g id="edge4" class="edge">
<title>Node179&#45;&gt;Node179</title>
<path fill="none" stroke="#191970" d="M28.4342,-54.659C20.702,-64.0566 31.3906,-73 60.5,-73 78.2385,-73 89.1367,-69.679 93.1946,-64.9579"/>
<polygon fill="#191970" stroke="#191970" points="96.6688,-64.4271 92.5658,-54.659 89.6818,-64.8537 96.6688,-64.4271"/>
</g>
<!-- Node180 -->
<g id="node2" class="node">
<title>Node180</title>
<g id="a_node2"><a xlink:href="../../db/d17/MVICFG_8cpp.html#ada0e47addc20cb09435186c57d5aa66a" target="_top" target="_top" xlink:title=" ">
<polygon fill="none" stroke="#000000" points="184.5,-49.5 184.5,-79.5 305.5,-79.5 305.5,-49.5 184.5,-49.5"/>
<text text-anchor="start" x="192.5" y="-67.5" font-family="Helvetica,sans-Serif" font-size="10.00" fill="#000000">hydrogen_framework</text>
<text text-anchor="middle" x="245" y="-56.5" font-family="Helvetica,sans-Serif" font-size="10.00" fill="#000000">::getEdge</text>
</a>
</g>
</g>
<!-- Node179&#45;&gt;Node180 -->
<g id="edge1" class="edge">
<title>Node179&#45;&gt;Node180</title>
<path fill="none" stroke="#191970" d="M121.1677,-47.7206C138.1126,-50.0166 156.6743,-52.5318 174.1514,-54.8999"/>
<polygon fill="#191970" stroke="#191970" points="173.9164,-58.4 184.2958,-56.2745 174.8564,-51.4634 173.9164,-58.4"/>
</g>
<!-- Node182 -->
<g id="node4" class="node">
<title>Node182</title>
<g id="a_node4"><a xlink:href="../../d8/d0b/classhydrogen__framework_1_1Graph__Line.html#af0f712f66ed43d42a1daf4905b3ace16" target="_top" target="_top" xlink:title=" ">
<polygon fill="none" stroke="#000000" points="157,-.5 157,-30.5 333,-30.5 333,-.5 157,-.5"/>
<text text-anchor="start" x="165" y="-18.5" font-family="Helvetica,sans-Serif" font-size="10.00" fill="#000000">hydrogen_framework</text>
<text text-anchor="middle" x="245" y="-7.5" font-family="Helvetica,sans-Serif" font-size="10.00" fill="#000000">::Graph_Line::getLineInstructions</text>
</a>
</g>
</g>
<!-- Node179&#45;&gt;Node182 -->
<g id="edge5" class="edge">
<title>Node179&#45;&gt;Node182</title>
<path fill="none" stroke="#191970" d="M121.1677,-31.6083C129.4855,-30.5263 138.1929,-29.3936 146.9703,-28.2518"/>
<polygon fill="#191970" stroke="#191970" points="147.428,-31.7219 156.893,-26.9611 146.525,-24.7803 147.428,-31.7219"/>
</g>
<!-- Node180&#45;&gt;Node180 -->
<g id="edge2" class="edge">
<title>Node180&#45;&gt;Node180</title>
<path fill="none" stroke="#191970" d="M212.9342,-79.659C205.202,-89.0566 215.8906,-98 245,-98 262.7385,-98 273.6367,-94.679 277.6946,-89.9579"/>
<polygon fill="#191970" stroke="#191970" points="281.1688,-89.4271 277.0658,-79.659 274.1818,-89.8537 281.1688,-89.4271"/>
</g>
<!-- Node181 -->
<g id="node3" class="node">
<title>Node181</title>
<g id="a_node3"><a xlink:href="../../da/df5/classhydrogen__framework_1_1Graph__Instruction.html#a56b37c9df4d67cf2dba65a843f792d03" target="_top" target="_top" xlink:title=" ">
<polygon fill="none" stroke="#000000" points="369,-44 369,-85 490,-85 490,-44 369,-44"/>
<text text-anchor="start" x="377" y="-73" font-family="Helvetica,sans-Serif" font-size="10.00" fill="#000000">hydrogen_framework</text>
<text text-anchor="start" x="377" y="-62" font-family="Helvetica,sans-Serif" font-size="10.00" fill="#000000">::Graph_Instruction</text>
<text text-anchor="middle" x="429.5" y="-51" font-family="Helvetica,sans-Serif" font-size="10.00" fill="#000000">::getInstructionEdges</text>
</a>
</g>
</g>
<!-- Node180&#45;&gt;Node181 -->
<g id="edge3" class="edge">
<title>Node180&#45;&gt;Node181</title>
<path fill="none" stroke="#191970" d="M305.6677,-64.5C322.6126,-64.5 341.1743,-64.5 358.6514,-64.5"/>
<polygon fill="#191970" stroke="#191970" points="358.7958,-68.0001 368.7958,-64.5 358.7958,-61.0001 358.7958,-68.0001"/>
</g>
</g>
</svg>
