<?xml version="1.0" encoding="UTF-8" standalone="no"?>
<!DOCTYPE svg PUBLIC "-//W3C//DTD SVG 1.1//EN"
 "http://www.w3.org/Graphics/SVG/1.1/DTD/svg11.dtd">
<!-- Generated by graphviz version 2.40.1 (20161225.0304)
 -->
<!-- Title: hydrogen_framework::getPredGivenGraphLine Pages: 1 -->
<svg width="380pt" height="191pt"
 viewBox="0.00 0.00 380.00 191.00" xmlns="http://www.w3.org/2000/svg" xmlns:xlink="http://www.w3.org/1999/xlink">
<g id="graph0" class="graph" transform="scale(1 1) rotate(0) translate(4 187)">
<title>hydrogen_framework::getPredGivenGraphLine</title>
<!-- Node210 -->
<g id="node1" class="node">
<title>Node210</title>
<g id="a_node1"><a xlink:title=" ">
<polygon fill="#bfbfbf" stroke="#000000" points="234,-67.5 234,-97.5 372,-97.5 372,-67.5 234,-67.5"/>
<text text-anchor="start" x="242" y="-85.5" font-family="Helvetica,sans-Serif" font-size="10.00" fill="#000000">hydrogen_framework</text>
<text text-anchor="middle" x="303" y="-74.5" font-family="Helvetica,sans-Serif" font-size="10.00" fill="#000000">::getPredGivenGraphLine</text>
</a>
</g>
</g>
<!-- Node210&#45;&gt;Node210 -->
<g id="edge7" class="edge">
<title>Node210&#45;&gt;Node210</title>
<path fill="none" stroke="#191970" d="M332.1408,-107.9579C328.524,-112.679 318.8104,-116 303,-116 277.0547,-116 267.5279,-107.0566 274.4196,-97.659"/>
<polygon fill="#191970" stroke="#191970" points="335.6187,-107.454 331.5804,-97.659 328.629,-107.8344 335.6187,-107.454"/>
</g>
<!-- Node211 -->
<g id="node2" class="node">
<title>Node211</title>
<g id="a_node2"><a xlink:href="../../db/d17/MVICFG_8cpp.html#a40d68c502d0833e919395ded787b4599" target="_top" target="_top" xlink:title=" ">
<polygon fill="none" stroke="#000000" points="77,-134.5 77,-164.5 198,-164.5 198,-134.5 77,-134.5"/>
<text text-anchor="start" x="85" y="-152.5" font-family="Helvetica,sans-Serif" font-size="10.00" fill="#000000">hydrogen_framework</text>
<text text-anchor="middle" x="137.5" y="-141.5" font-family="Helvetica,sans-Serif" font-size="10.00" fill="#000000">::addToMVICFG</text>
</a>
</g>
</g>
<!-- Node210&#45;&gt;Node211 -->
<g id="edge1" class="edge">
<title>Node210&#45;&gt;Node211</title>
<path fill="none" stroke="#191970" d="M257.2759,-101.3531C238.8761,-108.9063 217.4476,-117.6608 198,-125.5 190.7686,-128.4149 183.0402,-131.5021 175.6081,-134.4568"/>
<polygon fill="#191970" stroke="#191970" points="258.6757,-104.562 266.5951,-97.524 256.0153,-98.0872 258.6757,-104.562"/>
</g>
<!-- Node213 -->
<g id="node4" class="node">
<title>Node213</title>
<g id="a_node4"><a xlink:href="../../db/d17/MVICFG_8cpp.html#ac6a97f6b1392ad5517822076e830168f" target="_top" target="_top" xlink:title=" ">
<polygon fill="none" stroke="#000000" points="77,-67.5 77,-97.5 198,-97.5 198,-67.5 77,-67.5"/>
<text text-anchor="start" x="85" y="-85.5" font-family="Helvetica,sans-Serif" font-size="10.00" fill="#000000">hydrogen_framework</text>
<text text-anchor="middle" x="137.5" y="-74.5" font-family="Helvetica,sans-Serif" font-size="10.00" fill="#000000">::deleteFromMVICFG</text>
</a>
</g>
</g>
<!-- Node210&#45;&gt;Node213 -->
<g id="edge4" class="edge">
<title>Node210&#45;&gt;Node213</title>
<path fill="none" stroke="#191970" d="M223.6893,-82.5C215.0616,-82.5 206.384,-82.5 198.0324,-82.5"/>
<polygon fill="#191970" stroke="#191970" points="223.7721,-86.0001 233.772,-82.5 223.772,-79.0001 223.7721,-86.0001"/>
</g>
<!-- Node214 -->
<g id="node5" class="node">
<title>Node214</title>
<g id="a_node5"><a xlink:href="../../db/d17/MVICFG_8cpp.html#a27bf2e73daf11e2ad6363e34bd06de89" target="_top" target="_top" xlink:title=" ">
<polygon fill="none" stroke="#000000" points="77,-.5 77,-30.5 198,-30.5 198,-.5 77,-.5"/>
<text text-anchor="start" x="85" y="-18.5" font-family="Helvetica,sans-Serif" font-size="10.00" fill="#000000">hydrogen_framework</text>
<text text-anchor="middle" x="137.5" y="-7.5" font-family="Helvetica,sans-Serif" font-size="10.00" fill="#000000">::matchedInMVICFG</text>
</a>
</g>
</g>
<!-- Node210&#45;&gt;Node214 -->
<g id="edge8" class="edge">
<title>Node210&#45;&gt;Node214</title>
<path fill="none" stroke="#191970" d="M256.2886,-63.5897C230.5055,-53.1518 198.9213,-40.3654 174.8034,-30.6017"/>
<polygon fill="#191970" stroke="#191970" points="255.2759,-66.9556 265.8586,-67.4639 257.9027,-60.4671 255.2759,-66.9556"/>
</g>
<!-- Node211&#45;&gt;Node211 -->
<g id="edge2" class="edge">
<title>Node211&#45;&gt;Node211</title>
<path fill="none" stroke="#191970" d="M158.1118,-174.9579C155.5536,-179.679 148.683,-183 137.5,-183 119.1484,-183 112.41,-174.0566 117.2846,-164.659"/>
<polygon fill="#191970" stroke="#191970" points="161.5975,-174.517 157.7154,-164.659 154.6027,-174.7863 161.5975,-174.517"/>
</g>
<!-- Node212 -->
<g id="node3" class="node">
<title>Node212</title>
<g id="a_node3"><a xlink:href="../../de/d64/Hydrogen_8cpp.html#a0ddf1224851353fc92bfbff6f499fa97" target="_top" target="_top" xlink:title=" ">
<polygon fill="none" stroke="#000000" points="0,-73 0,-92 41,-92 41,-73 0,-73"/>
<text text-anchor="middle" x="20.5" y="-80" font-family="Helvetica,sans-Serif" font-size="10.00" fill="#000000">main</text>
</a>
</g>
</g>
<!-- Node211&#45;&gt;Node212 -->
<g id="edge3" class="edge">
<title>Node211&#45;&gt;Node212</title>
<path fill="none" stroke="#191970" d="M85.8837,-130.1552C82.8366,-128.6657 79.8533,-127.1114 77,-125.5 59.8267,-115.8014 42.0497,-101.4291 31.132,-92.0139"/>
<polygon fill="#191970" stroke="#191970" points="84.6033,-133.4188 95.1506,-134.4214 87.5306,-127.0602 84.6033,-133.4188"/>
</g>
<!-- Node213&#45;&gt;Node212 -->
<g id="edge6" class="edge">
<title>Node213&#45;&gt;Node212</title>
<path fill="none" stroke="#191970" d="M66.7111,-82.5C57.3948,-82.5 48.514,-82.5 41.0724,-82.5"/>
<polygon fill="#191970" stroke="#191970" points="66.9438,-86.0001 76.9437,-82.5 66.9437,-79.0001 66.9438,-86.0001"/>
</g>
<!-- Node213&#45;&gt;Node213 -->
<g id="edge5" class="edge">
<title>Node213&#45;&gt;Node213</title>
<path fill="none" stroke="#191970" d="M158.1118,-107.9579C155.5536,-112.679 148.683,-116 137.5,-116 119.1484,-116 112.41,-107.0566 117.2846,-97.659"/>
<polygon fill="#191970" stroke="#191970" points="161.5975,-107.517 157.7154,-97.659 154.6027,-107.7863 161.5975,-107.517"/>
</g>
<!-- Node214&#45;&gt;Node212 -->
<g id="edge9" class="edge">
<title>Node214&#45;&gt;Node212</title>
<path fill="none" stroke="#191970" d="M102.3577,-35.6242C80.802,-47.9681 54.1837,-63.211 37.271,-72.8961"/>
<polygon fill="#191970" stroke="#191970" points="104.3043,-38.5428 111.2429,-30.5361 100.8257,-32.4683 104.3043,-38.5428"/>
</g>
<!-- Node214&#45;&gt;Node214 -->
<g id="edge10" class="edge">
<title>Node214&#45;&gt;Node214</title>
<path fill="none" stroke="#191970" d="M158.1118,-40.9579C155.5536,-45.679 148.683,-49 137.5,-49 119.1484,-49 112.41,-40.0566 117.2846,-30.659"/>
<polygon fill="#191970" stroke="#191970" points="161.5975,-40.517 157.7154,-30.659 154.6027,-40.7863 161.5975,-40.517"/>
</g>
</g>
</svg>
