<?xml version="1.0" encoding="UTF-8" standalone="no"?>
<!DOCTYPE svg PUBLIC "-//W3C//DTD SVG 1.1//EN"
 "http://www.w3.org/Graphics/SVG/1.1/DTD/svg11.dtd">
<!-- Generated by graphviz version 2.40.1 (20161225.0304)
 -->
<!-- Title: hydrogen_framework::getMatchedInstructionFromGraph Pages: 1 -->
<svg width="357pt" height="259pt"
 viewBox="0.00 0.00 357.00 259.00" xmlns="http://www.w3.org/2000/svg" xmlns:xlink="http://www.w3.org/1999/xlink">
<g id="graph0" class="graph" transform="scale(1 1) rotate(0) translate(4 255)">
<title>hydrogen_framework::getMatchedInstructionFromGraph</title>
<!-- Node188 -->
<g id="node1" class="node">
<title>Node188</title>
<g id="a_node1"><a xlink:title=" ">
<polygon fill="#bfbfbf" stroke="#000000" points="0,-105 0,-146 155,-146 155,-105 0,-105"/>
<text text-anchor="start" x="8" y="-134" font-family="Helvetica,sans-Serif" font-size="10.00" fill="#000000">hydrogen_framework</text>
<text text-anchor="start" x="8" y="-123" font-family="Helvetica,sans-Serif" font-size="10.00" fill="#000000">::getMatchedInstructionFrom</text>
<text text-anchor="middle" x="77.5" y="-112" font-family="Helvetica,sans-Serif" font-size="10.00" fill="#000000">Graph</text>
</a>
</g>
</g>
<!-- Node188&#45;&gt;Node188 -->
<g id="edge6" class="edge">
<title>Node188&#45;&gt;Node188</title>
<path fill="none" stroke="#191970" d="M42.2119,-146.3644C38.3623,-156.0433 50.125,-164.5 77.5,-164.5 94.6094,-164.5 105.6202,-161.1966 110.5325,-156.3561"/>
<polygon fill="#191970" stroke="#191970" points="114,-156.8897 112.7881,-146.3644 107.1718,-155.3482 114,-156.8897"/>
</g>
<!-- Node189 -->
<g id="node2" class="node">
<title>Node189</title>
<g id="a_node2"><a xlink:href="../../d4/d7a/classhydrogen__framework_1_1Graph.html#a7eec182dc5d509ffef12e7b0f50802e7" target="_top" target="_top" xlink:title=" ">
<polygon fill="none" stroke="#000000" points="195.5,-220.5 195.5,-250.5 344.5,-250.5 344.5,-220.5 195.5,-220.5"/>
<text text-anchor="start" x="203.5" y="-238.5" font-family="Helvetica,sans-Serif" font-size="10.00" fill="#000000">hydrogen_framework</text>
<text text-anchor="middle" x="270" y="-227.5" font-family="Helvetica,sans-Serif" font-size="10.00" fill="#000000">::Graph::getGraphFunctions</text>
</a>
</g>
</g>
<!-- Node188&#45;&gt;Node189 -->
<g id="edge1" class="edge">
<title>Node188&#45;&gt;Node189</title>
<path fill="none" stroke="#191970" d="M100.2892,-146.2427C122.1665,-165.2242 156.8411,-192.9486 191,-210.5 195.3304,-212.7251 199.8966,-214.7987 204.5605,-216.7222"/>
<polygon fill="#191970" stroke="#191970" points="203.6375,-220.1177 214.2268,-220.4596 206.1619,-213.5888 203.6375,-220.1177"/>
</g>
<!-- Node190 -->
<g id="node3" class="node">
<title>Node190</title>
<g id="a_node3"><a xlink:href="../../da/df5/classhydrogen__framework_1_1Graph__Instruction.html#a1a44d9594f2492dd558c125e9d6038fd" target="_top" target="_top" xlink:title=" ">
<polygon fill="none" stroke="#000000" points="209.5,-160 209.5,-201 330.5,-201 330.5,-160 209.5,-160"/>
<text text-anchor="start" x="217.5" y="-189" font-family="Helvetica,sans-Serif" font-size="10.00" fill="#000000">hydrogen_framework</text>
<text text-anchor="start" x="217.5" y="-178" font-family="Helvetica,sans-Serif" font-size="10.00" fill="#000000">::Graph_Instruction</text>
<text text-anchor="middle" x="270" y="-167" font-family="Helvetica,sans-Serif" font-size="10.00" fill="#000000">::getGraphLine</text>
</a>
</g>
</g>
<!-- Node188&#45;&gt;Node190 -->
<g id="edge2" class="edge">
<title>Node188&#45;&gt;Node190</title>
<path fill="none" stroke="#191970" d="M149.4536,-146.0582C165.8143,-150.7327 183.1771,-155.6935 199.4775,-160.3507"/>
<polygon fill="#191970" stroke="#191970" points="198.8942,-163.8241 209.471,-163.206 200.8173,-157.0934 198.8942,-163.8241"/>
</g>
<!-- Node191 -->
<g id="node4" class="node">
<title>Node191</title>
<g id="a_node4"><a xlink:href="../../d4/d7a/classhydrogen__framework_1_1Graph.html#a3e9e35a4f8633968db44f453ccee09b0" target="_top" target="_top" xlink:title=" ">
<polygon fill="none" stroke="#000000" points="200.5,-110.5 200.5,-140.5 339.5,-140.5 339.5,-110.5 200.5,-110.5"/>
<text text-anchor="start" x="208.5" y="-128.5" font-family="Helvetica,sans-Serif" font-size="10.00" fill="#000000">hydrogen_framework</text>
<text text-anchor="middle" x="270" y="-117.5" font-family="Helvetica,sans-Serif" font-size="10.00" fill="#000000">::Graph::getGraphVersion</text>
</a>
</g>
</g>
<!-- Node188&#45;&gt;Node191 -->
<g id="edge3" class="edge">
<title>Node188&#45;&gt;Node191</title>
<path fill="none" stroke="#191970" d="M155.2422,-125.5C166.7832,-125.5 178.6931,-125.5 190.274,-125.5"/>
<polygon fill="#191970" stroke="#191970" points="190.349,-129.0001 200.3489,-125.5 190.3489,-122.0001 190.349,-129.0001"/>
</g>
<!-- Node192 -->
<g id="node5" class="node">
<title>Node192</title>
<g id="a_node5"><a xlink:href="../../da/df5/classhydrogen__framework_1_1Graph__Instruction.html#ac3af98350f654c0a1902f4b882d581d1" target="_top" target="_top" xlink:title=" ">
<polygon fill="none" stroke="#000000" points="209.5,-50 209.5,-91 330.5,-91 330.5,-50 209.5,-50"/>
<text text-anchor="start" x="217.5" y="-79" font-family="Helvetica,sans-Serif" font-size="10.00" fill="#000000">hydrogen_framework</text>
<text text-anchor="start" x="217.5" y="-68" font-family="Helvetica,sans-Serif" font-size="10.00" fill="#000000">::Graph_Instruction</text>
<text text-anchor="middle" x="270" y="-57" font-family="Helvetica,sans-Serif" font-size="10.00" fill="#000000">::getInstructionPtr</text>
</a>
</g>
</g>
<!-- Node188&#45;&gt;Node192 -->
<g id="edge4" class="edge">
<title>Node188&#45;&gt;Node192</title>
<path fill="none" stroke="#191970" d="M149.4536,-104.9418C165.8143,-100.2673 183.1771,-95.3065 199.4775,-90.6493"/>
<polygon fill="#191970" stroke="#191970" points="200.8173,-93.9066 209.471,-87.794 198.8942,-87.1759 200.8173,-93.9066"/>
</g>
<!-- Node193 -->
<g id="node6" class="node">
<title>Node193</title>
<g id="a_node6"><a xlink:href="../../d8/d0b/classhydrogen__framework_1_1Graph__Line.html#ae6ad83ec04c972e87856c267d61ba6f5" target="_top" target="_top" xlink:title=" ">
<polygon fill="none" stroke="#000000" points="191,-.5 191,-30.5 349,-30.5 349,-.5 191,-.5"/>
<text text-anchor="start" x="199" y="-18.5" font-family="Helvetica,sans-Serif" font-size="10.00" fill="#000000">hydrogen_framework</text>
<text text-anchor="middle" x="270" y="-7.5" font-family="Helvetica,sans-Serif" font-size="10.00" fill="#000000">::Graph_Line::getLineNumber</text>
</a>
</g>
</g>
<!-- Node188&#45;&gt;Node193 -->
<g id="edge5" class="edge">
<title>Node188&#45;&gt;Node193</title>
<path fill="none" stroke="#191970" d="M100.2892,-104.7573C122.1665,-85.7758 156.8411,-58.0514 191,-40.5 195.3304,-38.2749 199.8966,-36.2013 204.5605,-34.2778"/>
<polygon fill="#191970" stroke="#191970" points="206.1619,-37.4112 214.2268,-30.5404 203.6375,-30.8823 206.1619,-37.4112"/>
</g>
</g>
</svg>
