<?xml version="1.0" encoding="UTF-8" standalone="no"?>
<!DOCTYPE svg PUBLIC "-//W3C//DTD SVG 1.1//EN"
 "http://www.w3.org/Graphics/SVG/1.1/DTD/svg11.dtd">
<!-- Generated by graphviz version 2.40.1 (20161225.0304)
 -->
<!-- Title: hydrogen_framework::getEdgesForAddedLines Pages: 1 -->
<svg width="224pt" height="57pt"
 viewBox="0.00 0.00 224.00 57.00" xmlns="http://www.w3.org/2000/svg" xmlns:xlink="http://www.w3.org/1999/xlink">
<g id="graph0" class="graph" transform="scale(1 1) rotate(0) translate(4 53)">
<title>hydrogen_framework::getEdgesForAddedLines</title>
<!-- Node160 -->
<g id="node1" class="node">
<title>Node160</title>
<g id="a_node1"><a xlink:title=" ">
<polygon fill="#bfbfbf" stroke="#000000" points="77,-.5 77,-30.5 216,-30.5 216,-.5 77,-.5"/>
<text text-anchor="start" x="85" y="-18.5" font-family="Helvetica,sans-Serif" font-size="10.00" fill="#000000">hydrogen_framework</text>
<text text-anchor="middle" x="146.5" y="-7.5" font-family="Helvetica,sans-Serif" font-size="10.00" fill="#000000">::getEdgesForAddedLines</text>
</a>
</g>
</g>
<!-- Node160&#45;&gt;Node160 -->
<g id="edge1" class="edge">
<title>Node160&#45;&gt;Node160</title>
<path fill="none" stroke="#191970" d="M168.8887,-40.9579C166.1099,-45.679 158.647,-49 146.5,-49 126.5664,-49 119.247,-40.0566 124.5419,-30.659"/>
<polygon fill="#191970" stroke="#191970" points="172.3729,-40.504 168.4581,-30.659 165.379,-40.7965 172.3729,-40.504"/>
</g>
<!-- Node161 -->
<g id="node2" class="node">
<title>Node161</title>
<g id="a_node2"><a xlink:href="../../de/d64/Hydrogen_8cpp.html#a0ddf1224851353fc92bfbff6f499fa97" target="_top" target="_top" xlink:title=" ">
<polygon fill="none" stroke="#000000" points="0,-6 0,-25 41,-25 41,-6 0,-6"/>
<text text-anchor="middle" x="20.5" y="-13" font-family="Helvetica,sans-Serif" font-size="10.00" fill="#000000">main</text>
</a>
</g>
</g>
<!-- Node160&#45;&gt;Node161 -->
<g id="edge2" class="edge">
<title>Node160&#45;&gt;Node161</title>
<path fill="none" stroke="#191970" d="M66.8582,-15.5C57.4037,-15.5 48.4878,-15.5 41.0487,-15.5"/>
<polygon fill="#191970" stroke="#191970" points="66.8665,-19.0001 76.8664,-15.5 66.8664,-12.0001 66.8665,-19.0001"/>
</g>
</g>
</svg>
