<?xml version="1.0" encoding="UTF-8" standalone="no"?>
<!DOCTYPE svg PUBLIC "-//W3C//DTD SVG 1.1//EN"
 "http://www.w3.org/Graphics/SVG/1.1/DTD/svg11.dtd">
<!-- Generated by graphviz version 2.40.1 (0)
 -->
<!-- Title: hydrogen_framework::getEdge Pages: 1 -->
<!--zoomable 253 -->
<svg id="main" version="1.1" xmlns="http://www.w3.org/2000/svg" xmlns:xlink="http://www.w3.org/1999/xlink" xml:space="preserve" onload="init(evt)">
<style type="text/css"><![CDATA[
.edge:hover path { stroke: red; }
.edge:hover polygon { stroke: red; fill: red; }
]]></style>
<script type="text/javascript"><![CDATA[
var edges = document.getElementsByTagName('g');
if (edges && edges.length) {
  for (var i=0;i<edges.length;i++) {
    if (edges[i].id.substr(0,4)=='edge') {
      edges[i].setAttribute('class','edge');
    }
  }
}
]]></script>
        <defs>
                <circle id="rim" cx="0" cy="0" r="7"/>
                <circle id="rim2" cx="0" cy="0" r="3.5"/>
                <g id="zoomPlus">
                        <use xlink:href="#rim" fill="#404040">
                                <set attributeName="fill" to="#808080" begin="zoomplus.mouseover" end="zoomplus.mouseout"/>
                        </use>
                        <path d="M-4,0h8M0,-4v8" fill="none" stroke="white" stroke-width="1.5" pointer-events="none"/>
                </g>
                <g id="zoomMin">
                        <use xlink:href="#rim" fill="#404040">
                                <set attributeName="fill" to="#808080" begin="zoomminus.mouseover" end="zoomminus.mouseout"/>
                        </use>
                        <path d="M-4,0h8" fill="none" stroke="white" stroke-width="1.5" pointer-events="none"/>
                </g>
                <g id="dirArrow">
                        <path fill="none" stroke="white" stroke-width="1.5" d="M0,-3.0v7 M-2.5,-0.5L0,-3.0L2.5,-0.5"/>
                </g>
               <g id="resetDef">
                       <use xlink:href="#rim2" fill="#404040">
                               <set attributeName="fill" to="#808080" begin="reset.mouseover" end="reset.mouseout"/>
                       </use>
               </g>
        </defs>

<script type="text/javascript">
var viewWidth = 538;
var viewHeight = 253;
var sectionId = 'dynsection-12';
</script>
<script xlink:href="../../svgpan.js"/>
<svg id="graph" class="graph">
<g id="viewport">
<title>hydrogen_framework::getEdge</title>
<!-- Node139 -->
<g id="node1" class="node">
<title>Node139</title>
<g id="a_node1"><a xlink:title=" ">
<polygon fill="#bfbfbf" stroke="#000000" points="409,-106.5 409,-136.5 530,-136.5 530,-106.5 409,-106.5"/>
<text text-anchor="start" x="417" y="-124.5" font-family="Helvetica,sans-Serif" font-size="10.00" fill="#000000">hydrogen_framework</text>
<text text-anchor="middle" x="469.5" y="-113.5" font-family="Helvetica,sans-Serif" font-size="10.00" fill="#000000">::getEdge</text>
</a>
</g>
</g>
<!-- Node139&#45;&gt;Node139 -->
<g id="edge7" class="edge">
<title>Node139&#45;&gt;Node139</title>
<path fill="none" stroke="#191970" d="M498.9962,-146.9579C495.3353,-151.679 485.5032,-155 469.5,-155 443.2383,-155 433.5953,-146.0566 440.5711,-136.659"/>
<polygon fill="#191970" stroke="#191970" points="502.4737,-146.4513 498.4289,-136.659 495.4843,-146.8364 502.4737,-146.4513"/>
</g>
<!-- Node140 -->
<g id="node2" class="node">
<title>Node140</title>
<g id="a_node2"><a xlink:href="../../db/d17/MVICFG_8cpp.html#a40d68c502d0833e919395ded787b4599" target="_top" xlink:title=" ">
<polygon fill="none" stroke="#000000" points="77,-196.5 77,-226.5 198,-226.5 198,-196.5 77,-196.5"/>
<text text-anchor="start" x="85" y="-214.5" font-family="Helvetica,sans-Serif" font-size="10.00" fill="#000000">hydrogen_framework</text>
<text text-anchor="middle" x="137.5" y="-203.5" font-family="Helvetica,sans-Serif" font-size="10.00" fill="#000000">::addToMVICFG</text>
</a>
</g>
</g>
<!-- Node139&#45;&gt;Node140 -->
<g id="edge1" class="edge">
<title>Node139&#45;&gt;Node140</title>
<path fill="none" stroke="#191970" d="M442.5944,-142.651C424.0857,-156.047 398.3547,-172.4887 373,-181.5 315.9112,-201.79 246.7346,-208.67 198.1759,-210.8504"/>
<polygon fill="#191970" stroke="#191970" points="444.8655,-145.3242 450.8144,-136.5571 440.6968,-139.7009 444.8655,-145.3242"/>
</g>
<!-- Node142 -->
<g id="node4" class="node">
<title>Node142</title>
<g id="a_node4"><a xlink:href="../../db/d17/MVICFG_8cpp.html#ac6a97f6b1392ad5517822076e830168f" target="_top" xlink:title=" ">
<polygon fill="none" stroke="#000000" points="77,-129.5 77,-159.5 198,-159.5 198,-129.5 77,-129.5"/>
<text text-anchor="start" x="85" y="-147.5" font-family="Helvetica,sans-Serif" font-size="10.00" fill="#000000">hydrogen_framework</text>
<text text-anchor="middle" x="137.5" y="-136.5" font-family="Helvetica,sans-Serif" font-size="10.00" fill="#000000">::deleteFromMVICFG</text>
</a>
</g>
</g>
<!-- Node139&#45;&gt;Node142 -->
<g id="edge4" class="edge">
<title>Node139&#45;&gt;Node142</title>
<path fill="none" stroke="#191970" d="M434.61,-141.3126C416.7836,-150.3127 394.3879,-159.9504 373,-164.5 314.4034,-176.9645 246.0457,-168.7065 198.1196,-159.3085"/>
<polygon fill="#191970" stroke="#191970" points="436.2303,-144.415 443.486,-136.6945 432.9994,-138.2052 436.2303,-144.415"/>
</g>
<!-- Node143 -->
<g id="node5" class="node">
<title>Node143</title>
<g id="a_node5"><a xlink:href="../../db/d17/MVICFG_8cpp.html#a8f5c2085a43bf3b517575d9db43e4b92" target="_top" xlink:title=" ">
<polygon fill="none" stroke="#000000" points="234,-.5 234,-30.5 373,-30.5 373,-.5 234,-.5"/>
<text text-anchor="start" x="242" y="-18.5" font-family="Helvetica,sans-Serif" font-size="10.00" fill="#000000">hydrogen_framework</text>
<text text-anchor="middle" x="303.5" y="-7.5" font-family="Helvetica,sans-Serif" font-size="10.00" fill="#000000">::getEdgesForAddedLines</text>
</a>
</g>
</g>
<!-- Node139&#45;&gt;Node143 -->
<g id="edge8" class="edge">
<title>Node139&#45;&gt;Node143</title>
<path fill="none" stroke="#191970" d="M437.0829,-100.7999C404.8164,-80.196 356.064,-49.065 327.2396,-30.659"/>
<polygon fill="#191970" stroke="#191970" points="435.4043,-103.8807 445.7162,-106.3128 439.1717,-97.981 435.4043,-103.8807"/>
</g>
<!-- Node144 -->
<g id="node6" class="node">
<title>Node144</title>
<g id="a_node6"><a xlink:href="../../db/d17/MVICFG_8cpp.html#a8c55b276e33d536dd4b0e230b5be7308" target="_top" xlink:title=" ">
<polygon fill="none" stroke="#000000" points="243,-106.5 243,-136.5 364,-136.5 364,-106.5 243,-106.5"/>
<text text-anchor="start" x="251" y="-124.5" font-family="Helvetica,sans-Serif" font-size="10.00" fill="#000000">hydrogen_framework</text>
<text text-anchor="middle" x="303.5" y="-113.5" font-family="Helvetica,sans-Serif" font-size="10.00" fill="#000000">::getInBetweenEdge</text>
</a>
</g>
</g>
<!-- Node139&#45;&gt;Node144 -->
<g id="edge11" class="edge">
<title>Node139&#45;&gt;Node144</title>
<path fill="none" stroke="#191970" d="M398.6287,-121.5C387.1286,-121.5 375.311,-121.5 364.0849,-121.5"/>
<polygon fill="#191970" stroke="#191970" points="398.6304,-125.0001 408.6303,-121.5 398.6303,-118.0001 398.6304,-125.0001"/>
</g>
<!-- Node145 -->
<g id="node7" class="node">
<title>Node145</title>
<g id="a_node7"><a xlink:href="../../db/d17/MVICFG_8cpp.html#a27bf2e73daf11e2ad6363e34bd06de89" target="_top" xlink:title=" ">
<polygon fill="none" stroke="#000000" points="77,-62.5 77,-92.5 198,-92.5 198,-62.5 77,-62.5"/>
<text text-anchor="start" x="85" y="-80.5" font-family="Helvetica,sans-Serif" font-size="10.00" fill="#000000">hydrogen_framework</text>
<text text-anchor="middle" x="137.5" y="-69.5" font-family="Helvetica,sans-Serif" font-size="10.00" fill="#000000">::matchedInMVICFG</text>
</a>
</g>
</g>
<!-- Node139&#45;&gt;Node145 -->
<g id="edge18" class="edge">
<title>Node139&#45;&gt;Node145</title>
<path fill="none" stroke="#191970" d="M405.6388,-104.1045C394.8072,-101.5899 383.6274,-99.2613 373,-97.5 314.101,-87.7385 246.0795,-82.6124 198.3315,-80.0059"/>
<polygon fill="#191970" stroke="#191970" points="404.9225,-107.5318 415.4625,-106.4553 406.5516,-100.724 404.9225,-107.5318"/>
</g>
<!-- Node140&#45;&gt;Node140 -->
<g id="edge2" class="edge">
<title>Node140&#45;&gt;Node140</title>
<path fill="none" stroke="#191970" d="M158.1118,-236.9579C155.5536,-241.679 148.683,-245 137.5,-245 119.1484,-245 112.41,-236.0566 117.2846,-226.659"/>
<polygon fill="#191970" stroke="#191970" points="161.5975,-236.517 157.7154,-226.659 154.6027,-236.7863 161.5975,-236.517"/>
</g>
<!-- Node141 -->
<g id="node3" class="node">
<title>Node141</title>
<g id="a_node3"><a xlink:href="../../de/d64/Hydrogen_8cpp.html#a0ddf1224851353fc92bfbff6f499fa97" target="_top" xlink:title=" ">
<polygon fill="none" stroke="#000000" points="0,-101 0,-120 41,-120 41,-101 0,-101"/>
<text text-anchor="middle" x="20.5" y="-108" font-family="Helvetica,sans-Serif" font-size="10.00" fill="#000000">main</text>
</a>
</g>
</g>
<!-- Node140&#45;&gt;Node141 -->
<g id="edge3" class="edge">
<title>Node140&#45;&gt;Node141</title>
<path fill="none" stroke="#191970" d="M82.5827,-191.4213C80.6492,-190.1814 78.7801,-188.875 77,-187.5 52.462,-168.5458 33.625,-136.1965 25.2532,-120.1352"/>
<polygon fill="#191970" stroke="#191970" points="80.9741,-194.533 91.3959,-196.4403 84.4382,-188.4502 80.9741,-194.533"/>
</g>
<!-- Node142&#45;&gt;Node141 -->
<g id="edge6" class="edge">
<title>Node142&#45;&gt;Node141</title>
<path fill="none" stroke="#191970" d="M76.173,-126.6785C63.5232,-123.0025 51.0501,-119.3778 41.1269,-116.4942"/>
<polygon fill="#191970" stroke="#191970" points="75.262,-130.0585 85.8415,-129.4881 77.2155,-123.3366 75.262,-130.0585"/>
</g>
<!-- Node142&#45;&gt;Node142 -->
<g id="edge5" class="edge">
<title>Node142&#45;&gt;Node142</title>
<path fill="none" stroke="#191970" d="M158.1118,-169.9579C155.5536,-174.679 148.683,-178 137.5,-178 119.1484,-178 112.41,-169.0566 117.2846,-159.659"/>
<polygon fill="#191970" stroke="#191970" points="161.5975,-169.517 157.7154,-159.659 154.6027,-169.7863 161.5975,-169.517"/>
</g>
<!-- Node143&#45;&gt;Node141 -->
<g id="edge10" class="edge">
<title>Node143&#45;&gt;Node141</title>
<path fill="none" stroke="#191970" d="M223.8117,-16.926C178.587,-20.5818 122.1744,-30.0957 77,-53.5 55.2257,-64.781 36.686,-87.492 27.2251,-100.5848"/>
<polygon fill="#191970" stroke="#191970" points="224.1517,-20.4106 233.8711,-16.1935 223.6433,-13.429 224.1517,-20.4106"/>
</g>
<!-- Node143&#45;&gt;Node143 -->
<g id="edge9" class="edge">
<title>Node143&#45;&gt;Node143</title>
<path fill="none" stroke="#191970" d="M332.9962,-40.9579C329.3353,-45.679 319.5032,-49 303.5,-49 277.2383,-49 267.5953,-40.0566 274.5711,-30.659"/>
<polygon fill="#191970" stroke="#191970" points="336.4737,-40.4513 332.4289,-30.659 329.4843,-40.8364 336.4737,-40.4513"/>
</g>
<!-- Node144&#45;&gt;Node140 -->
<g id="edge12" class="edge">
<title>Node144&#45;&gt;Node140</title>
<path fill="none" stroke="#191970" d="M273.5947,-142.2508C252.924,-156.0782 224.4837,-174.1025 198,-187.5 191.7486,-190.6625 184.9765,-193.7008 178.3028,-196.4897"/>
<polygon fill="#191970" stroke="#191970" points="275.6218,-145.1052 281.9495,-136.6075 271.7037,-139.3045 275.6218,-145.1052"/>
</g>
<!-- Node144&#45;&gt;Node142 -->
<g id="edge13" class="edge">
<title>Node144&#45;&gt;Node142</title>
<path fill="none" stroke="#191970" d="M232.6287,-131.3195C221.1286,-132.9129 209.311,-134.5503 198.0849,-136.1057"/>
<polygon fill="#191970" stroke="#191970" points="233.2053,-134.7731 242.6303,-129.9338 232.2446,-127.8394 233.2053,-134.7731"/>
</g>
<!-- Node144&#45;&gt;Node144 -->
<g id="edge14" class="edge">
<title>Node144&#45;&gt;Node144</title>
<path fill="none" stroke="#191970" d="M332.9962,-146.9579C329.3353,-151.679 319.5032,-155 303.5,-155 277.2383,-155 267.5953,-146.0566 274.5711,-136.659"/>
<polygon fill="#191970" stroke="#191970" points="336.4737,-146.4513 332.4289,-136.659 329.4843,-146.8364 336.4737,-146.4513"/>
</g>
<!-- Node144&#45;&gt;Node145 -->
<g id="edge15" class="edge">
<title>Node144&#45;&gt;Node145</title>
<path fill="none" stroke="#191970" d="M237.1221,-103.9059C222.9023,-100.1368 208.0038,-96.1878 194.1898,-92.5262"/>
<polygon fill="#191970" stroke="#191970" points="236.2735,-107.3017 246.8365,-106.4808 238.0671,-100.5354 236.2735,-107.3017"/>
</g>
<!-- Node145&#45;&gt;Node141 -->
<g id="edge16" class="edge">
<title>Node145&#45;&gt;Node141</title>
<path fill="none" stroke="#191970" d="M74.4251,-95.2903C62.3374,-98.6997 50.5117,-102.0352 41.0294,-104.7096"/>
<polygon fill="#191970" stroke="#191970" points="75.4614,-98.6347 84.1357,-92.5515 73.5611,-91.8976 75.4614,-98.6347"/>
</g>
<!-- Node145&#45;&gt;Node145 -->
<g id="edge17" class="edge">
<title>Node145&#45;&gt;Node145</title>
<path fill="none" stroke="#191970" d="M158.1118,-102.9579C155.5536,-107.679 148.683,-111 137.5,-111 119.1484,-111 112.41,-102.0566 117.2846,-92.659"/>
<polygon fill="#191970" stroke="#191970" points="161.5975,-102.517 157.7154,-92.659 154.6027,-102.7863 161.5975,-102.517"/>
</g>
</g>
</svg>
        <g id="navigator" transform="translate(0 0)" fill="#404254">
                <rect fill="#f2f5e9" fill-opacity="0.5" stroke="#606060" stroke-width=".5" x="0" y="0" width="60" height="60"/>
                <use id="zoomplus" xlink:href="#zoomPlus" x="17" y="9" onmousedown="handleZoom(evt,'in')"/>
                <use id="zoomminus" xlink:href="#zoomMin" x="42" y="9" onmousedown="handleZoom(evt,'out')"/>
                <use id="reset" xlink:href="#resetDef" x="30" y="36" onmousedown="handleReset()"/>
                <g id="arrowUp" xlink:href="#dirArrow" transform="translate(30 24)" onmousedown="handlePan(0,-1)">
                  <use xlink:href="#rim" fill="#404040">
                        <set attributeName="fill" to="#808080" begin="arrowUp.mouseover" end="arrowUp.mouseout"/>
                  </use>
                  <path fill="none" stroke="white" stroke-width="1.5" d="M0,-3.0v7 M-2.5,-0.5L0,-3.0L2.5,-0.5"/>
                </g>
                <g id="arrowRight" xlink:href="#dirArrow" transform="rotate(90) translate(36 -43)" onmousedown="handlePan(1,0)">
                  <use xlink:href="#rim" fill="#404040">
                        <set attributeName="fill" to="#808080" begin="arrowRight.mouseover" end="arrowRight.mouseout"/>
                  </use>
                  <path fill="none" stroke="white" stroke-width="1.5" d="M0,-3.0v7 M-2.5,-0.5L0,-3.0L2.5,-0.5"/>
                </g>
                <g id="arrowDown" xlink:href="#dirArrow" transform="rotate(180) translate(-30 -48)" onmousedown="handlePan(0,1)">
                  <use xlink:href="#rim" fill="#404040">
                        <set attributeName="fill" to="#808080" begin="arrowDown.mouseover" end="arrowDown.mouseout"/>
                  </use>
                  <path fill="none" stroke="white" stroke-width="1.5" d="M0,-3.0v7 M-2.5,-0.5L0,-3.0L2.5,-0.5"/>
                </g>
                <g id="arrowLeft" xlink:href="#dirArrow" transform="rotate(270) translate(-36 17)" onmousedown="handlePan(-1,0)">
                  <use xlink:href="#rim" fill="#404040">
                        <set attributeName="fill" to="#808080" begin="arrowLeft.mouseover" end="arrowLeft.mouseout"/>
                  </use>
                  <path fill="none" stroke="white" stroke-width="1.5" d="M0,-3.0v7 M-2.5,-0.5L0,-3.0L2.5,-0.5"/>
                </g>
        </g>
        <svg viewBox="0 0 15 15" width="100%" height="30px" preserveAspectRatio="xMaxYMin meet">
         <g id="arrow_out" transform="scale(0.3 0.3)">
          <a xlink:href="MVICFG_8cpp_ada0e47addc20cb09435186c57d5aa66a_icgraph_org.svg" target="_base">
           <rect id="button" ry="5" rx="5" y="6" x="6" height="38" width="38"
                fill="#f2f5e9" fill-opacity="0.5" stroke="#606060" stroke-width="1.0"/>
           <path id="arrow"
             d="M 11.500037,31.436501 C 11.940474,20.09759 22.043105,11.32322 32.158766,21.979434 L 37.068811,17.246167 C 37.068811,17.246167 37.088388,32 37.088388,32 L 22.160133,31.978069 C 22.160133,31.978069 26.997745,27.140456 26.997745,27.140456 C 18.528582,18.264221 13.291696,25.230495 11.500037,31.436501 z"
             style="fill:#404040;"/>
          </a>
         </g>
        </svg>
</svg>
