<?xml version="1.0" encoding="UTF-8" standalone="no"?>
<!DOCTYPE svg PUBLIC "-//W3C//DTD SVG 1.1//EN"
 "http://www.w3.org/Graphics/SVG/1.1/DTD/svg11.dtd">
<!-- Generated by graphviz version 2.40.1 (20161225.0304)
 -->
<!-- Title: hydrogen_framework::getPredGivenGraphLine Pages: 1 -->
<svg width="358pt" height="100pt"
 viewBox="0.00 0.00 358.00 99.50" xmlns="http://www.w3.org/2000/svg" xmlns:xlink="http://www.w3.org/1999/xlink">
<g id="graph0" class="graph" transform="scale(1 1) rotate(0) translate(4 95.5)">
<title>hydrogen_framework::getPredGivenGraphLine</title>
<!-- Node207 -->
<g id="node1" class="node">
<title>Node207</title>
<g id="a_node1"><a xlink:title=" ">
<polygon fill="#bfbfbf" stroke="#000000" points="0,-27.5 0,-57.5 138,-57.5 138,-27.5 0,-27.5"/>
<text text-anchor="start" x="8" y="-45.5" font-family="Helvetica,sans-Serif" font-size="10.00" fill="#000000">hydrogen_framework</text>
<text text-anchor="middle" x="69" y="-34.5" font-family="Helvetica,sans-Serif" font-size="10.00" fill="#000000">::getPredGivenGraphLine</text>
</a>
</g>
</g>
<!-- Node207&#45;&gt;Node207 -->
<g id="edge3" class="edge">
<title>Node207&#45;&gt;Node207</title>
<path fill="none" stroke="#191970" d="M35.54,-57.659C27.4717,-67.0566 38.625,-76 69,-76 87.5098,-76 98.8818,-72.679 103.1161,-67.9579"/>
<polygon fill="#191970" stroke="#191970" points="106.5888,-67.4162 102.46,-57.659 99.6029,-67.8613 106.5888,-67.4162"/>
</g>
<!-- Node208 -->
<g id="node2" class="node">
<title>Node208</title>
<g id="a_node2"><a xlink:href="../../da/df5/classhydrogen__framework_1_1Graph__Instruction.html#a56b37c9df4d67cf2dba65a843f792d03" target="_top" target="_top" xlink:title=" ">
<polygon fill="none" stroke="#000000" points="201.5,-50 201.5,-91 322.5,-91 322.5,-50 201.5,-50"/>
<text text-anchor="start" x="209.5" y="-79" font-family="Helvetica,sans-Serif" font-size="10.00" fill="#000000">hydrogen_framework</text>
<text text-anchor="start" x="209.5" y="-68" font-family="Helvetica,sans-Serif" font-size="10.00" fill="#000000">::Graph_Instruction</text>
<text text-anchor="middle" x="262" y="-57" font-family="Helvetica,sans-Serif" font-size="10.00" fill="#000000">::getInstructionEdges</text>
</a>
</g>
</g>
<!-- Node207&#45;&gt;Node208 -->
<g id="edge1" class="edge">
<title>Node207&#45;&gt;Node208</title>
<path fill="none" stroke="#191970" d="M138.1323,-52.5296C155.402,-55.035 173.9465,-57.7254 191.2913,-60.2417"/>
<polygon fill="#191970" stroke="#191970" points="190.9474,-63.7284 201.3464,-61.7005 191.9525,-56.8009 190.9474,-63.7284"/>
</g>
<!-- Node209 -->
<g id="node3" class="node">
<title>Node209</title>
<g id="a_node3"><a xlink:href="../../d8/d0b/classhydrogen__framework_1_1Graph__Line.html#af0f712f66ed43d42a1daf4905b3ace16" target="_top" target="_top" xlink:title=" ">
<polygon fill="none" stroke="#000000" points="174,-.5 174,-30.5 350,-30.5 350,-.5 174,-.5"/>
<text text-anchor="start" x="182" y="-18.5" font-family="Helvetica,sans-Serif" font-size="10.00" fill="#000000">hydrogen_framework</text>
<text text-anchor="middle" x="262" y="-7.5" font-family="Helvetica,sans-Serif" font-size="10.00" fill="#000000">::Graph_Line::getLineInstructions</text>
</a>
</g>
</g>
<!-- Node207&#45;&gt;Node209 -->
<g id="edge2" class="edge">
<title>Node207&#45;&gt;Node209</title>
<path fill="none" stroke="#191970" d="M138.1323,-32.8286C146.4507,-31.6649 155.0648,-30.4598 163.6982,-29.2521"/>
<polygon fill="#191970" stroke="#191970" points="164.4067,-32.6871 173.8254,-27.8353 163.4369,-25.7546 164.4067,-32.6871"/>
</g>
</g>
</svg>
