<?xml version="1.0" encoding="UTF-8" standalone="no"?>
<!DOCTYPE svg PUBLIC "-//W3C//DTD SVG 1.1//EN"
 "http://www.w3.org/Graphics/SVG/1.1/DTD/svg11.dtd">
<!-- Generated by graphviz version 2.40.1 (0)
 -->
<!-- Title: hydrogen_framework::findMatchedLine Pages: 1 -->
<svg width="760pt" height="617pt"
 viewBox="0.00 0.00 760.00 617.10" xmlns="http://www.w3.org/2000/svg" xmlns:xlink="http://www.w3.org/1999/xlink">
<g id="graph0" class="graph" transform="scale(1 1) rotate(0) translate(4 613.1003)">
<title>hydrogen_framework::findMatchedLine</title>
<!-- Node106 -->
<g id="node1" class="node">
<title>Node106</title>
<g id="a_node1"><a xlink:title=" ">
<polygon fill="#bfbfbf" stroke="#000000" points="0,-286.1003 0,-316.1003 121,-316.1003 121,-286.1003 0,-286.1003"/>
<text text-anchor="start" x="8" y="-304.1003" font-family="Helvetica,sans-Serif" font-size="10.00" fill="#000000">hydrogen_framework</text>
<text text-anchor="middle" x="60.5" y="-293.1003" font-family="Helvetica,sans-Serif" font-size="10.00" fill="#000000">::findMatchedLine</text>
</a>
</g>
</g>
<!-- Node106&#45;&gt;Node106 -->
<g id="edge1" class="edge">
<title>Node106&#45;&gt;Node106</title>
<path fill="none" stroke="#191970" d="M27.3886,-316.2593C19.4043,-325.6568 30.4414,-334.6003 60.5,-334.6003 78.817,-334.6003 90.0705,-331.2792 94.2607,-326.5582"/>
<polygon fill="#191970" stroke="#191970" points="97.7338,-326.0192 93.6114,-316.2593 90.7476,-326.4597 97.7338,-326.0192"/>
</g>
<!-- Node107 -->
<g id="node2" class="node">
<title>Node107</title>
<g id="a_node2"><a xlink:href="../../d0/d21/classhydrogen__framework_1_1Diff__Mapping.html#a4326f5b36e7bc06e3fd4410d399d6c41" target="_top" xlink:title=" ">
<polygon fill="none" stroke="#000000" points="175.5,-567.6003 175.5,-608.6003 327.5,-608.6003 327.5,-567.6003 175.5,-567.6003"/>
<text text-anchor="start" x="183.5" y="-596.6003" font-family="Helvetica,sans-Serif" font-size="10.00" fill="#000000">hydrogen_framework</text>
<text text-anchor="start" x="183.5" y="-585.6003" font-family="Helvetica,sans-Serif" font-size="10.00" fill="#000000">::Diff_Mapping::getAfterLine</text>
<text text-anchor="middle" x="251.5" y="-574.6003" font-family="Helvetica,sans-Serif" font-size="10.00" fill="#000000">Number</text>
</a>
</g>
</g>
<!-- Node106&#45;&gt;Node107 -->
<g id="edge2" class="edge">
<title>Node106&#45;&gt;Node107</title>
<path fill="none" stroke="#191970" d="M61.6972,-316.3367C65.9805,-360.3955 84.4199,-489.1857 157,-558.1003 159.9354,-560.8874 163.1288,-563.4156 166.5082,-565.709"/>
<polygon fill="#191970" stroke="#191970" points="164.872,-568.8086 175.2503,-570.9396 168.4661,-562.8017 164.872,-568.8086"/>
</g>
<!-- Node108 -->
<g id="node3" class="node">
<title>Node108</title>
<g id="a_node3"><a xlink:href="../../d0/d21/classhydrogen__framework_1_1Diff__Mapping.html#ae9f45495f5f3d03365cb9303424503e7" target="_top" xlink:title=" ">
<polygon fill="none" stroke="#000000" points="171,-507.6003 171,-548.6003 332,-548.6003 332,-507.6003 171,-507.6003"/>
<text text-anchor="start" x="179" y="-536.6003" font-family="Helvetica,sans-Serif" font-size="10.00" fill="#000000">hydrogen_framework</text>
<text text-anchor="start" x="179" y="-525.6003" font-family="Helvetica,sans-Serif" font-size="10.00" fill="#000000">::Diff_Mapping::getBeforeLine</text>
<text text-anchor="middle" x="251.5" y="-514.6003" font-family="Helvetica,sans-Serif" font-size="10.00" fill="#000000">Number</text>
</a>
</g>
</g>
<!-- Node106&#45;&gt;Node108 -->
<g id="edge3" class="edge">
<title>Node106&#45;&gt;Node108</title>
<path fill="none" stroke="#191970" d="M63.6039,-316.1738C71.943,-352.863 98.2941,-447.5028 157,-498.1003 158.5646,-499.4488 160.1902,-500.7368 161.8676,-501.967"/>
<polygon fill="#191970" stroke="#191970" points="160.3475,-505.1523 170.6439,-507.6491 164.1518,-499.2763 160.3475,-505.1523"/>
</g>
<!-- Node109 -->
<g id="node4" class="node">
<title>Node109</title>
<g id="a_node4"><a xlink:href="../../d0/d21/classhydrogen__framework_1_1Diff__Mapping.html#aa478ea59c018a81e417a816d10ceb9fe" target="_top" xlink:title=" ">
<polygon fill="none" stroke="#000000" points="174.5,-458.1003 174.5,-488.1003 328.5,-488.1003 328.5,-458.1003 174.5,-458.1003"/>
<text text-anchor="start" x="182.5" y="-476.1003" font-family="Helvetica,sans-Serif" font-size="10.00" fill="#000000">hydrogen_framework</text>
<text text-anchor="middle" x="251.5" y="-465.1003" font-family="Helvetica,sans-Serif" font-size="10.00" fill="#000000">::Diff_Mapping::getFileName</text>
</a>
</g>
</g>
<!-- Node106&#45;&gt;Node109 -->
<g id="edge4" class="edge">
<title>Node106&#45;&gt;Node109</title>
<path fill="none" stroke="#191970" d="M66.0391,-316.3782C77.8237,-346.6461 108.3484,-414.3047 157,-449.1003 159.6848,-451.0204 162.5089,-452.7873 165.4355,-454.4131"/>
<polygon fill="#191970" stroke="#191970" points="163.9695,-457.5927 174.4859,-458.8796 167.0674,-451.3155 163.9695,-457.5927"/>
</g>
<!-- Node110 -->
<g id="node5" class="node">
<title>Node110</title>
<g id="a_node5"><a xlink:href="../../dc/d7a/classhydrogen__framework_1_1Graph__Function.html#a6a9a8a2315e726618c6546d55bea6ba5" target="_top" xlink:title=" ">
<polygon fill="none" stroke="#000000" points="163.5,-409.1003 163.5,-439.1003 339.5,-439.1003 339.5,-409.1003 163.5,-409.1003"/>
<text text-anchor="start" x="171.5" y="-427.1003" font-family="Helvetica,sans-Serif" font-size="10.00" fill="#000000">hydrogen_framework</text>
<text text-anchor="middle" x="251.5" y="-416.1003" font-family="Helvetica,sans-Serif" font-size="10.00" fill="#000000">::Graph_Function::getFunctionFile</text>
</a>
</g>
</g>
<!-- Node106&#45;&gt;Node110 -->
<g id="edge5" class="edge">
<title>Node106&#45;&gt;Node110</title>
<path fill="none" stroke="#191970" d="M71.0716,-316.3855C87.0747,-338.3335 119.5815,-378.5043 157,-400.1003 160.1933,-401.9433 163.5272,-403.6464 166.9548,-405.2201"/>
<polygon fill="#191970" stroke="#191970" points="165.6381,-408.4631 176.2144,-409.0906 168.3379,-402.0046 165.6381,-408.4631"/>
</g>
<!-- Node111 -->
<g id="node6" class="node">
<title>Node111</title>
<g id="a_node6"><a xlink:href="../../dc/d7a/classhydrogen__framework_1_1Graph__Function.html#a014d9adac948494beaa418a2a5e3e002" target="_top" xlink:title=" ">
<polygon fill="none" stroke="#000000" points="157,-360.1003 157,-390.1003 346,-390.1003 346,-360.1003 157,-360.1003"/>
<text text-anchor="start" x="165" y="-378.1003" font-family="Helvetica,sans-Serif" font-size="10.00" fill="#000000">hydrogen_framework</text>
<text text-anchor="middle" x="251.5" y="-367.1003" font-family="Helvetica,sans-Serif" font-size="10.00" fill="#000000">::Graph_Function::getFunctionName</text>
</a>
</g>
</g>
<!-- Node106&#45;&gt;Node111 -->
<g id="edge6" class="edge">
<title>Node106&#45;&gt;Node111</title>
<path fill="none" stroke="#191970" d="M85.5656,-316.12C104.6245,-327.0323 131.7796,-341.5098 157,-351.1003 162.5747,-353.2201 168.405,-355.2111 174.3149,-357.0685"/>
<polygon fill="#191970" stroke="#191970" points="173.7209,-360.5444 184.305,-360.0675 175.7336,-353.84 173.7209,-360.5444"/>
</g>
<!-- Node112 -->
<g id="node7" class="node">
<title>Node112</title>
<g id="a_node7"><a xlink:href="../../d8/d0b/classhydrogen__framework_1_1Graph__Line.html#a8f3052170907f9eb0a6e2a4ea0ba7f5d" target="_top" xlink:title=" ">
<polygon fill="none" stroke="#000000" points="167,-311.1003 167,-341.1003 336,-341.1003 336,-311.1003 167,-311.1003"/>
<text text-anchor="start" x="175" y="-329.1003" font-family="Helvetica,sans-Serif" font-size="10.00" fill="#000000">hydrogen_framework</text>
<text text-anchor="middle" x="251.5" y="-318.1003" font-family="Helvetica,sans-Serif" font-size="10.00" fill="#000000">::Graph_Line::getGraphFunction</text>
</a>
</g>
</g>
<!-- Node106&#45;&gt;Node112 -->
<g id="edge7" class="edge">
<title>Node106&#45;&gt;Node112</title>
<path fill="none" stroke="#191970" d="M121.196,-309.0448C132.5461,-310.5304 144.6559,-312.1154 156.7498,-313.6984"/>
<polygon fill="#191970" stroke="#191970" points="156.5181,-317.1979 166.8878,-315.0254 157.4266,-310.2571 156.5181,-317.1979"/>
</g>
<!-- Node113 -->
<g id="node8" class="node">
<title>Node113</title>
<g id="a_node8"><a xlink:href="../../d4/d7a/classhydrogen__framework_1_1Graph.html#a7eec182dc5d509ffef12e7b0f50802e7" target="_top" xlink:title=" ">
<polygon fill="none" stroke="#000000" points="177,-262.1003 177,-292.1003 326,-292.1003 326,-262.1003 177,-262.1003"/>
<text text-anchor="start" x="185" y="-280.1003" font-family="Helvetica,sans-Serif" font-size="10.00" fill="#000000">hydrogen_framework</text>
<text text-anchor="middle" x="251.5" y="-269.1003" font-family="Helvetica,sans-Serif" font-size="10.00" fill="#000000">::Graph::getGraphFunctions</text>
</a>
</g>
</g>
<!-- Node106&#45;&gt;Node113 -->
<g id="edge8" class="edge">
<title>Node106&#45;&gt;Node113</title>
<path fill="none" stroke="#191970" d="M121.196,-293.4735C135.7121,-291.6495 151.4711,-289.6693 166.8498,-287.7369"/>
<polygon fill="#191970" stroke="#191970" points="167.3985,-291.1956 176.8841,-286.4761 166.5257,-284.2502 167.3985,-291.1956"/>
</g>
<!-- Node114 -->
<g id="node9" class="node">
<title>Node114</title>
<g id="a_node9"><a xlink:href="../../db/d17/MVICFG_8cpp.html#a107ab967667e37747c5b7687e6baccec" target="_top" xlink:title=" ">
<polygon fill="none" stroke="#000000" points="388.5,-136.6003 388.5,-177.6003 533.5,-177.6003 533.5,-136.6003 388.5,-136.6003"/>
<text text-anchor="start" x="396.5" y="-165.6003" font-family="Helvetica,sans-Serif" font-size="10.00" fill="#000000">hydrogen_framework</text>
<text text-anchor="start" x="396.5" y="-154.6003" font-family="Helvetica,sans-Serif" font-size="10.00" fill="#000000">::getGraphLineInstructions</text>
<text text-anchor="middle" x="461" y="-143.6003" font-family="Helvetica,sans-Serif" font-size="10.00" fill="#000000">AsString</text>
</a>
</g>
</g>
<!-- Node106&#45;&gt;Node114 -->
<g id="edge9" class="edge">
<title>Node106&#45;&gt;Node114</title>
<path fill="none" stroke="#191970" d="M86.3274,-285.9579C105.3205,-275.3994 132.062,-261.7128 157,-253.1003 238.0711,-225.1017 264.9092,-242.0416 346,-214.1003 370.1327,-205.7849 395.6937,-193.4987 416.573,-182.4601"/>
<polygon fill="#191970" stroke="#191970" points="418.3607,-185.4729 425.515,-177.6584 415.049,-179.3058 418.3607,-185.4729"/>
</g>
<!-- Node116 -->
<g id="node11" class="node">
<title>Node116</title>
<g id="a_node11"><a xlink:href="../../d4/d7a/classhydrogen__framework_1_1Graph.html#a3e9e35a4f8633968db44f453ccee09b0" target="_top" xlink:title=" ">
<polygon fill="none" stroke="#000000" points="182,-174.1003 182,-204.1003 321,-204.1003 321,-174.1003 182,-174.1003"/>
<text text-anchor="start" x="190" y="-192.1003" font-family="Helvetica,sans-Serif" font-size="10.00" fill="#000000">hydrogen_framework</text>
<text text-anchor="middle" x="251.5" y="-181.1003" font-family="Helvetica,sans-Serif" font-size="10.00" fill="#000000">::Graph::getGraphVersion</text>
</a>
</g>
</g>
<!-- Node106&#45;&gt;Node116 -->
<g id="edge12" class="edge">
<title>Node106&#45;&gt;Node116</title>
<path fill="none" stroke="#191970" d="M74.4746,-286.0083C92.1051,-267.7846 124.114,-237.3174 157,-219.1003 164.8509,-214.7512 173.424,-210.9293 182.0993,-207.6001"/>
<polygon fill="#191970" stroke="#191970" points="183.3179,-210.8813 191.5237,-204.1794 180.9296,-204.3013 183.3179,-210.8813"/>
</g>
<!-- Node117 -->
<g id="node12" class="node">
<title>Node117</title>
<g id="a_node12"><a xlink:href="../../d8/d0b/classhydrogen__framework_1_1Graph__Line.html#ae6ad83ec04c972e87856c267d61ba6f5" target="_top" xlink:title=" ">
<polygon fill="none" stroke="#000000" points="382,-60.1003 382,-90.1003 540,-90.1003 540,-60.1003 382,-60.1003"/>
<text text-anchor="start" x="390" y="-78.1003" font-family="Helvetica,sans-Serif" font-size="10.00" fill="#000000">hydrogen_framework</text>
<text text-anchor="middle" x="461" y="-67.1003" font-family="Helvetica,sans-Serif" font-size="10.00" fill="#000000">::Graph_Line::getLineNumber</text>
</a>
</g>
</g>
<!-- Node106&#45;&gt;Node117 -->
<g id="edge13" class="edge">
<title>Node106&#45;&gt;Node117</title>
<path fill="none" stroke="#191970" d="M63.4919,-285.7417C74.1928,-232.5587 112.3165,-57.7752 157,-26.1003 239.5891,32.4449 366.3379,-22.4367 426.7226,-54.9716"/>
<polygon fill="#191970" stroke="#191970" points="425.3785,-58.2269 435.8272,-59.9806 428.7527,-52.0937 425.3785,-58.2269"/>
</g>
<!-- Node118 -->
<g id="node13" class="node">
<title>Node118</title>
<g id="a_node13"><a xlink:href="../../d4/d7a/classhydrogen__framework_1_1Graph.html#a3f18eb16e6ee20b9bfb19933aaab48df" target="_top" xlink:title=" ">
<polygon fill="none" stroke="#000000" points="179.5,-35.6003 179.5,-76.6003 323.5,-76.6003 323.5,-35.6003 179.5,-35.6003"/>
<text text-anchor="start" x="187.5" y="-64.6003" font-family="Helvetica,sans-Serif" font-size="10.00" fill="#000000">hydrogen_framework</text>
<text text-anchor="start" x="187.5" y="-53.6003" font-family="Helvetica,sans-Serif" font-size="10.00" fill="#000000">::Graph::isVirtualNodeLine</text>
<text text-anchor="middle" x="251.5" y="-42.6003" font-family="Helvetica,sans-Serif" font-size="10.00" fill="#000000">Number</text>
</a>
</g>
</g>
<!-- Node106&#45;&gt;Node118 -->
<g id="edge14" class="edge">
<title>Node106&#45;&gt;Node118</title>
<path fill="none" stroke="#191970" d="M62.9578,-285.8338C70.0579,-246.7178 94.2439,-142.0535 157,-86.1003 161.0953,-82.4489 165.6358,-79.2417 170.4472,-76.4248"/>
<polygon fill="#191970" stroke="#191970" points="172.1221,-79.4986 179.3625,-71.7639 168.8789,-73.2952 172.1221,-79.4986"/>
</g>
<!-- Node119 -->
<g id="node14" class="node">
<title>Node119</title>
<g id="a_node14"><a xlink:href="../../db/d17/MVICFG_8cpp.html#aba1f11ef6a3442c674bce54fb19a092e" target="_top" xlink:title=" ">
<polygon fill="none" stroke="#000000" points="171,-95.6003 171,-136.6003 332,-136.6003 332,-95.6003 171,-95.6003"/>
<text text-anchor="start" x="179" y="-124.6003" font-family="Helvetica,sans-Serif" font-size="10.00" fill="#000000">hydrogen_framework</text>
<text text-anchor="start" x="179" y="-113.6003" font-family="Helvetica,sans-Serif" font-size="10.00" fill="#000000">::resolveMatchedLinesWithNo</text>
<text text-anchor="middle" x="251.5" y="-102.6003" font-family="Helvetica,sans-Serif" font-size="10.00" fill="#000000">ExtactStringMatch</text>
</a>
</g>
</g>
<!-- Node106&#45;&gt;Node119 -->
<g id="edge15" class="edge">
<title>Node106&#45;&gt;Node119</title>
<path fill="none" stroke="#191970" d="M68.1601,-285.8422C82.446,-258.6319 115.5013,-201.2061 157,-165.1003 167.4338,-156.0224 179.843,-148.0646 192.181,-141.3478"/>
<polygon fill="#191970" stroke="#191970" points="193.8792,-144.4095 201.1231,-136.678 190.6389,-138.2047 193.8792,-144.4095"/>
</g>
<!-- Node114&#45;&gt;Node114 -->
<g id="edge10" class="edge">
<title>Node114&#45;&gt;Node114</title>
<path fill="none" stroke="#191970" d="M423.874,-177.9647C419.8239,-187.6436 432.1992,-196.1003 461,-196.1003 479.0005,-196.1003 490.5848,-192.7969 495.7529,-187.9563"/>
<polygon fill="#191970" stroke="#191970" points="499.2204,-188.5028 498.126,-177.9647 492.4098,-186.8852 499.2204,-188.5028"/>
</g>
<!-- Node115 -->
<g id="node10" class="node">
<title>Node115</title>
<g id="a_node10"><a xlink:href="../../d8/d0b/classhydrogen__framework_1_1Graph__Line.html#af0f712f66ed43d42a1daf4905b3ace16" target="_top" xlink:title=" ">
<polygon fill="none" stroke="#000000" points="576,-142.1003 576,-172.1003 752,-172.1003 752,-142.1003 576,-142.1003"/>
<text text-anchor="start" x="584" y="-160.1003" font-family="Helvetica,sans-Serif" font-size="10.00" fill="#000000">hydrogen_framework</text>
<text text-anchor="middle" x="664" y="-149.1003" font-family="Helvetica,sans-Serif" font-size="10.00" fill="#000000">::Graph_Line::getLineInstructions</text>
</a>
</g>
</g>
<!-- Node114&#45;&gt;Node115 -->
<g id="edge11" class="edge">
<title>Node114&#45;&gt;Node115</title>
<path fill="none" stroke="#191970" d="M533.7143,-157.1003C544.06,-157.1003 554.8406,-157.1003 565.5754,-157.1003"/>
<polygon fill="#191970" stroke="#191970" points="565.8377,-160.6004 575.8377,-157.1003 565.8376,-153.6004 565.8377,-160.6004"/>
</g>
<!-- Node119&#45;&gt;Node114 -->
<g id="edge16" class="edge">
<title>Node119&#45;&gt;Node114</title>
<path fill="none" stroke="#191970" d="M332.1985,-131.8933C347.3274,-134.8541 363.1638,-137.9533 378.3509,-140.9255"/>
<polygon fill="#191970" stroke="#191970" points="377.7371,-144.3717 388.2232,-142.8576 379.0816,-137.502 377.7371,-144.3717"/>
</g>
<!-- Node119&#45;&gt;Node117 -->
<g id="edge17" class="edge">
<title>Node119&#45;&gt;Node117</title>
<path fill="none" stroke="#191970" d="M332.1985,-100.3072C345.9261,-97.6207 360.2364,-94.8201 374.1154,-92.1039"/>
<polygon fill="#191970" stroke="#191970" points="374.9892,-95.4994 384.1308,-90.1439 373.6447,-88.6297 374.9892,-95.4994"/>
</g>
<!-- Node119&#45;&gt;Node119 -->
<g id="edge18" class="edge">
<title>Node119&#45;&gt;Node119</title>
<path fill="none" stroke="#191970" d="M216.5795,-136.9647C212.77,-146.6436 224.4102,-155.1003 251.5,-155.1003 268.4312,-155.1003 279.3273,-151.7969 284.1884,-146.9563"/>
<polygon fill="#191970" stroke="#191970" points="287.656,-147.4872 286.4205,-136.9647 280.8244,-145.961 287.656,-147.4872"/>
</g>
</g>
</svg>
