<?xml version="1.0" encoding="UTF-8" standalone="no"?>
<!DOCTYPE svg PUBLIC "-//W3C//DTD SVG 1.1//EN"
 "http://www.w3.org/Graphics/SVG/1.1/DTD/svg11.dtd">
<!-- Generated by graphviz version 2.40.1 (20161225.0304)
 -->
<!-- Title: hydrogen_framework::resolveMatchedLinesWithNoExtactStringMatch Pages: 1 -->
<svg width="575pt" height="118pt"
 viewBox="0.00 0.00 575.00 117.50" xmlns="http://www.w3.org/2000/svg" xmlns:xlink="http://www.w3.org/1999/xlink">
<g id="graph0" class="graph" transform="scale(1 1) rotate(0) translate(4 113.5)">
<title>hydrogen_framework::resolveMatchedLinesWithNoExtactStringMatch</title>
<!-- Node250 -->
<g id="node1" class="node">
<title>Node250</title>
<g id="a_node1"><a xlink:title=" ">
<polygon fill="#bfbfbf" stroke="#000000" points="0,-22 0,-63 161,-63 161,-22 0,-22"/>
<text text-anchor="start" x="8" y="-51" font-family="Helvetica,sans-Serif" font-size="10.00" fill="#000000">hydrogen_framework</text>
<text text-anchor="start" x="8" y="-40" font-family="Helvetica,sans-Serif" font-size="10.00" fill="#000000">::resolveMatchedLinesWithNo</text>
<text text-anchor="middle" x="80.5" y="-29" font-family="Helvetica,sans-Serif" font-size="10.00" fill="#000000">ExtactStringMatch</text>
</a>
</g>
</g>
<!-- Node250&#45;&gt;Node250 -->
<g id="edge5" class="edge">
<title>Node250&#45;&gt;Node250</title>
<path fill="none" stroke="#191970" d="M44.8443,-63.3644C40.9546,-73.0433 52.8398,-81.5 80.5,-81.5 97.7876,-81.5 108.9131,-78.1966 113.8765,-73.3561"/>
<polygon fill="#191970" stroke="#191970" points="117.344,-73.8924 116.1557,-63.3644 110.5193,-72.3356 117.344,-73.8924"/>
</g>
<!-- Node251 -->
<g id="node2" class="node">
<title>Node251</title>
<g id="a_node2"><a xlink:href="../../db/d17/MVICFG_8cpp.html#a107ab967667e37747c5b7687e6baccec" target="_top" xlink:title=" ">
<polygon fill="none" stroke="#000000" points="203.5,-50 203.5,-91 348.5,-91 348.5,-50 203.5,-50"/>
<text text-anchor="start" x="211.5" y="-79" font-family="Helvetica,sans-Serif" font-size="10.00" fill="#000000">hydrogen_framework</text>
<text text-anchor="start" x="211.5" y="-68" font-family="Helvetica,sans-Serif" font-size="10.00" fill="#000000">::getGraphLineInstructions</text>
<text text-anchor="middle" x="276" y="-57" font-family="Helvetica,sans-Serif" font-size="10.00" fill="#000000">AsString</text>
</a>
</g>
</g>
<!-- Node250&#45;&gt;Node251 -->
<g id="edge1" class="edge">
<title>Node250&#45;&gt;Node251</title>
<path fill="none" stroke="#191970" d="M161.146,-54.0503C171.7471,-55.5686 182.6253,-57.1266 193.2605,-58.6498"/>
<polygon fill="#191970" stroke="#191970" points="192.9706,-62.144 203.3658,-60.0972 193.9631,-55.2147 192.9706,-62.144"/>
</g>
<!-- Node253 -->
<g id="node4" class="node">
<title>Node253</title>
<g id="a_node4"><a xlink:href="../../d8/d0b/classhydrogen__framework_1_1Graph__Line.html#ae6ad83ec04c972e87856c267d61ba6f5" target="_top" xlink:title=" ">
<polygon fill="none" stroke="#000000" points="197,-.5 197,-30.5 355,-30.5 355,-.5 197,-.5"/>
<text text-anchor="start" x="205" y="-18.5" font-family="Helvetica,sans-Serif" font-size="10.00" fill="#000000">hydrogen_framework</text>
<text text-anchor="middle" x="276" y="-7.5" font-family="Helvetica,sans-Serif" font-size="10.00" fill="#000000">::Graph_Line::getLineNumber</text>
</a>
</g>
</g>
<!-- Node250&#45;&gt;Node253 -->
<g id="edge4" class="edge">
<title>Node250&#45;&gt;Node253</title>
<path fill="none" stroke="#191970" d="M161.146,-31.3622C169.6131,-30.1928 178.2569,-28.999 186.8125,-27.8175"/>
<polygon fill="#191970" stroke="#191970" points="187.3726,-31.2734 196.7997,-26.4381 186.4149,-24.3392 187.3726,-31.2734"/>
</g>
<!-- Node251&#45;&gt;Node251 -->
<g id="edge2" class="edge">
<title>Node251&#45;&gt;Node251</title>
<path fill="none" stroke="#191970" d="M240.3443,-91.3644C236.4546,-101.0433 248.3398,-109.5 276,-109.5 293.2876,-109.5 304.4131,-106.1966 309.3765,-101.3561"/>
<polygon fill="#191970" stroke="#191970" points="312.844,-101.8924 311.6557,-91.3644 306.0193,-100.3356 312.844,-101.8924"/>
</g>
<!-- Node252 -->
<g id="node3" class="node">
<title>Node252</title>
<g id="a_node3"><a xlink:href="../../d8/d0b/classhydrogen__framework_1_1Graph__Line.html#af0f712f66ed43d42a1daf4905b3ace16" target="_top" xlink:title=" ">
<polygon fill="none" stroke="#000000" points="391,-55.5 391,-85.5 567,-85.5 567,-55.5 391,-55.5"/>
<text text-anchor="start" x="399" y="-73.5" font-family="Helvetica,sans-Serif" font-size="10.00" fill="#000000">hydrogen_framework</text>
<text text-anchor="middle" x="479" y="-62.5" font-family="Helvetica,sans-Serif" font-size="10.00" fill="#000000">::Graph_Line::getLineInstructions</text>
</a>
</g>
</g>
<!-- Node251&#45;&gt;Node252 -->
<g id="edge3" class="edge">
<title>Node251&#45;&gt;Node252</title>
<path fill="none" stroke="#191970" d="M348.7143,-70.5C359.06,-70.5 369.8406,-70.5 380.5754,-70.5"/>
<polygon fill="#191970" stroke="#191970" points="380.8377,-74.0001 390.8377,-70.5 380.8376,-67.0001 380.8377,-74.0001"/>
</g>
</g>
</svg>
