<?xml version="1.0" encoding="UTF-8" standalone="no"?>
<!DOCTYPE svg PUBLIC "-//W3C//DTD SVG 1.1//EN"
 "http://www.w3.org/Graphics/SVG/1.1/DTD/svg11.dtd">
<!-- Generated by graphviz version 2.40.1 (20161225.0304)
 -->
<!-- Title: hydrogen_framework::resolveMatchedLinesWithNoExactStringMatch Pages: 1 -->
<!--zoomable 118 -->
<svg id="main" version="1.1" xmlns="http://www.w3.org/2000/svg" xmlns:xlink="http://www.w3.org/1999/xlink" xml:space="preserve" onload="init(evt)">
<style type="text/css"><![CDATA[
.edge:hover path { stroke: red; }
.edge:hover polygon { stroke: red; fill: red; }
]]></style>
<script type="text/javascript"><![CDATA[
var edges = document.getElementsByTagName('g');
if (edges && edges.length) {
  for (var i=0;i<edges.length;i++) {
    if (edges[i].id.substr(0,4)=='edge') {
      edges[i].setAttribute('class','edge');
    }
  }
}
]]></script>
        <defs>
                <circle id="rim" cx="0" cy="0" r="7"/>
                <circle id="rim2" cx="0" cy="0" r="3.5"/>
                <g id="zoomPlus">
                        <use xlink:href="#rim" target="_top" fill="#404040">
                                <set attributeName="fill" to="#808080" begin="zoomplus.mouseover" end="zoomplus.mouseout"/>
                        </use>
                        <path d="M-4,0h8M0,-4v8" fill="none" stroke="white" stroke-width="1.5" pointer-events="none"/>
                </g>
                <g id="zoomMin">
                        <use xlink:href="#rim" target="_top" fill="#404040">
                                <set attributeName="fill" to="#808080" begin="zoomminus.mouseover" end="zoomminus.mouseout"/>
                        </use>
                        <path d="M-4,0h8" fill="none" stroke="white" stroke-width="1.5" pointer-events="none"/>
                </g>
                <g id="dirArrow">
                        <path fill="none" stroke="white" stroke-width="1.5" d="M0,-3.0v7 M-2.5,-0.5L0,-3.0L2.5,-0.5"/>
                </g>
               <g id="resetDef">
                       <use xlink:href="#rim2" target="_top" fill="#404040">
                               <set attributeName="fill" to="#808080" begin="reset.mouseover" end="reset.mouseout"/>
                       </use>
               </g>
        </defs>

<script type="text/javascript">
var viewWidth = 575;
var viewHeight = 118;
var sectionId = 'dynsection-31';
</script>
<script xlink:href="../../svgpan.js" target="_top"/>
<svg id="graph" class="graph">
<g id="viewport">
<title>hydrogen_framework::resolveMatchedLinesWithNoExactStringMatch</title>
<!-- Node250 -->
<g id="node1" class="node">
<title>Node250</title>
<g id="a_node1"><a xlink:title=" ">
<polygon fill="#bfbfbf" stroke="#000000" points="0,-22 0,-63 161,-63 161,-22 0,-22"/>
<text text-anchor="start" x="8" y="-51" font-family="Helvetica,sans-Serif" font-size="10.00" fill="#000000">hydrogen_framework</text>
<text text-anchor="start" x="8" y="-40" font-family="Helvetica,sans-Serif" font-size="10.00" fill="#000000">::resolveMatchedLinesWithNo</text>
<text text-anchor="middle" x="80.5" y="-29" font-family="Helvetica,sans-Serif" font-size="10.00" fill="#000000">ExtactStringMatch</text>
</a>
</g>
</g>
<!-- Node250&#45;&gt;Node250 -->
<g id="edge5" class="edge">
<title>Node250&#45;&gt;Node250</title>
<path fill="none" stroke="#191970" d="M44.8443,-63.3644C40.9546,-73.0433 52.8398,-81.5 80.5,-81.5 97.7876,-81.5 108.9131,-78.1966 113.8765,-73.3561"/>
<polygon fill="#191970" stroke="#191970" points="117.344,-73.8924 116.1557,-63.3644 110.5193,-72.3356 117.344,-73.8924"/>
</g>
<!-- Node251 -->
<g id="node2" class="node">
<title>Node251</title>
<g id="a_node2"><a xlink:href="../../db/d17/MVICFG_8cpp.html#a107ab967667e37747c5b7687e6baccec" target="_top" target="_top" xlink:title=" ">
<polygon fill="none" stroke="#000000" points="203.5,-50 203.5,-91 348.5,-91 348.5,-50 203.5,-50"/>
<text text-anchor="start" x="211.5" y="-79" font-family="Helvetica,sans-Serif" font-size="10.00" fill="#000000">hydrogen_framework</text>
<text text-anchor="start" x="211.5" y="-68" font-family="Helvetica,sans-Serif" font-size="10.00" fill="#000000">::getGraphLineInstructions</text>
<text text-anchor="middle" x="276" y="-57" font-family="Helvetica,sans-Serif" font-size="10.00" fill="#000000">AsString</text>
</a>
</g>
</g>
<!-- Node250&#45;&gt;Node251 -->
<g id="edge1" class="edge">
<title>Node250&#45;&gt;Node251</title>
<path fill="none" stroke="#191970" d="M161.146,-54.0503C171.7471,-55.5686 182.6253,-57.1266 193.2605,-58.6498"/>
<polygon fill="#191970" stroke="#191970" points="192.9706,-62.144 203.3658,-60.0972 193.9631,-55.2147 192.9706,-62.144"/>
</g>
<!-- Node253 -->
<g id="node4" class="node">
<title>Node253</title>
<g id="a_node4"><a xlink:href="../../d8/d0b/classhydrogen__framework_1_1Graph__Line.html#ae6ad83ec04c972e87856c267d61ba6f5" target="_top" target="_top" xlink:title=" ">
<polygon fill="none" stroke="#000000" points="197,-.5 197,-30.5 355,-30.5 355,-.5 197,-.5"/>
<text text-anchor="start" x="205" y="-18.5" font-family="Helvetica,sans-Serif" font-size="10.00" fill="#000000">hydrogen_framework</text>
<text text-anchor="middle" x="276" y="-7.5" font-family="Helvetica,sans-Serif" font-size="10.00" fill="#000000">::Graph_Line::getLineNumber</text>
</a>
</g>
</g>
<!-- Node250&#45;&gt;Node253 -->
<g id="edge4" class="edge">
<title>Node250&#45;&gt;Node253</title>
<path fill="none" stroke="#191970" d="M161.146,-31.3622C169.6131,-30.1928 178.2569,-28.999 186.8125,-27.8175"/>
<polygon fill="#191970" stroke="#191970" points="187.3726,-31.2734 196.7997,-26.4381 186.4149,-24.3392 187.3726,-31.2734"/>
</g>
<!-- Node251&#45;&gt;Node251 -->
<g id="edge2" class="edge">
<title>Node251&#45;&gt;Node251</title>
<path fill="none" stroke="#191970" d="M240.3443,-91.3644C236.4546,-101.0433 248.3398,-109.5 276,-109.5 293.2876,-109.5 304.4131,-106.1966 309.3765,-101.3561"/>
<polygon fill="#191970" stroke="#191970" points="312.844,-101.8924 311.6557,-91.3644 306.0193,-100.3356 312.844,-101.8924"/>
</g>
<!-- Node252 -->
<g id="node3" class="node">
<title>Node252</title>
<g id="a_node3"><a xlink:href="../../d8/d0b/classhydrogen__framework_1_1Graph__Line.html#af0f712f66ed43d42a1daf4905b3ace16" target="_top" target="_top" xlink:title=" ">
<polygon fill="none" stroke="#000000" points="391,-55.5 391,-85.5 567,-85.5 567,-55.5 391,-55.5"/>
<text text-anchor="start" x="399" y="-73.5" font-family="Helvetica,sans-Serif" font-size="10.00" fill="#000000">hydrogen_framework</text>
<text text-anchor="middle" x="479" y="-62.5" font-family="Helvetica,sans-Serif" font-size="10.00" fill="#000000">::Graph_Line::getLineInstructions</text>
</a>
</g>
</g>
<!-- Node251&#45;&gt;Node252 -->
<g id="edge3" class="edge">
<title>Node251&#45;&gt;Node252</title>
<path fill="none" stroke="#191970" d="M348.7143,-70.5C359.06,-70.5 369.8406,-70.5 380.5754,-70.5"/>
<polygon fill="#191970" stroke="#191970" points="380.8377,-74.0001 390.8377,-70.5 380.8376,-67.0001 380.8377,-74.0001"/>
</g>
</g>
</svg>
        <g id="navigator" transform="translate(0 0)" fill="#404254">
                <rect fill="#f2f5e9" fill-opacity="0.5" stroke="#606060" stroke-width=".5" x="0" y="0" width="60" height="60"/>
                <use id="zoomplus" xlink:href="#zoomPlus" target="_top" x="17" y="9" onmousedown="handleZoom(evt,'in')"/>
                <use id="zoomminus" xlink:href="#zoomMin" target="_top" x="42" y="9" onmousedown="handleZoom(evt,'out')"/>
                <use id="reset" xlink:href="#resetDef" target="_top" x="30" y="36" onmousedown="handleReset()"/>
                <g id="arrowUp" xlink:href="#dirArrow" target="_top" transform="translate(30 24)" onmousedown="handlePan(0,-1)">
                  <use xlink:href="#rim" target="_top" fill="#404040">
                        <set attributeName="fill" to="#808080" begin="arrowUp.mouseover" end="arrowUp.mouseout"/>
                  </use>
                  <path fill="none" stroke="white" stroke-width="1.5" d="M0,-3.0v7 M-2.5,-0.5L0,-3.0L2.5,-0.5"/>
                </g>
                <g id="arrowRight" xlink:href="#dirArrow" target="_top" transform="rotate(90) translate(36 -43)" onmousedown="handlePan(1,0)">
                  <use xlink:href="#rim" target="_top" fill="#404040">
                        <set attributeName="fill" to="#808080" begin="arrowRight.mouseover" end="arrowRight.mouseout"/>
                  </use>
                  <path fill="none" stroke="white" stroke-width="1.5" d="M0,-3.0v7 M-2.5,-0.5L0,-3.0L2.5,-0.5"/>
                </g>
                <g id="arrowDown" xlink:href="#dirArrow" target="_top" transform="rotate(180) translate(-30 -48)" onmousedown="handlePan(0,1)">
                  <use xlink:href="#rim" target="_top" fill="#404040">
                        <set attributeName="fill" to="#808080" begin="arrowDown.mouseover" end="arrowDown.mouseout"/>
                  </use>
                  <path fill="none" stroke="white" stroke-width="1.5" d="M0,-3.0v7 M-2.5,-0.5L0,-3.0L2.5,-0.5"/>
                </g>
                <g id="arrowLeft" xlink:href="#dirArrow" target="_top" transform="rotate(270) translate(-36 17)" onmousedown="handlePan(-1,0)">
                  <use xlink:href="#rim" target="_top" fill="#404040">
                        <set attributeName="fill" to="#808080" begin="arrowLeft.mouseover" end="arrowLeft.mouseout"/>
                  </use>
                  <path fill="none" stroke="white" stroke-width="1.5" d="M0,-3.0v7 M-2.5,-0.5L0,-3.0L2.5,-0.5"/>
                </g>
        </g>
        <svg viewBox="0 0 15 15" width="100%" height="30px" preserveAspectRatio="xMaxYMin meet">
         <g id="arrow_out" transform="scale(0.3 0.3)">
          <a xlink:href="MVICFG_8cpp_aba1f11ef6a3442c674bce54fb19a092e_cgraph_org.svg" target="_top" target="_base">
           <rect id="button" ry="5" rx="5" y="6" x="6" height="38" width="38"
                fill="#f2f5e9" fill-opacity="0.5" stroke="#606060" stroke-width="1.0"/>
           <path id="arrow"
             d="M 11.500037,31.436501 C 11.940474,20.09759 22.043105,11.32322 32.158766,21.979434 L 37.068811,17.246167 C 37.068811,17.246167 37.088388,32 37.088388,32 L 22.160133,31.978069 C 22.160133,31.978069 26.997745,27.140456 26.997745,27.140456 C 18.528582,18.264221 13.291696,25.230495 11.500037,31.436501 z"
             style="fill:#404040;"/>
          </a>
         </g>
        </svg>
</svg>
