<?xml version="1.0" encoding="UTF-8" standalone="no"?>
<!DOCTYPE svg PUBLIC "-//W3C//DTD SVG 1.1//EN"
 "http://www.w3.org/Graphics/SVG/1.1/DTD/svg11.dtd">
<!-- Generated by graphviz version 2.40.1 (20161225.0304)
 -->
<!-- Title: hydrogen_framework::getEdge Pages: 1 -->
<svg width="286pt" height="63pt"
 viewBox="0.00 0.00 286.00 62.50" xmlns="http://www.w3.org/2000/svg" xmlns:xlink="http://www.w3.org/1999/xlink">
<g id="graph0" class="graph" transform="scale(1 1) rotate(0) translate(4 58.5)">
<title>hydrogen_framework::getEdge</title>
<!-- Node139 -->
<g id="node1" class="node">
<title>Node139</title>
<g id="a_node1"><a xlink:title=" ">
<polygon fill="#bfbfbf" stroke="#000000" points="0,-6 0,-36 121,-36 121,-6 0,-6"/>
<text text-anchor="start" x="8" y="-24" font-family="Helvetica,sans-Serif" font-size="10.00" fill="#000000">hydrogen_framework</text>
<text text-anchor="middle" x="60.5" y="-13" font-family="Helvetica,sans-Serif" font-size="10.00" fill="#000000">::getEdge</text>
</a>
</g>
</g>
<!-- Node139&#45;&gt;Node139 -->
<g id="edge1" class="edge">
<title>Node139&#45;&gt;Node139</title>
<path fill="none" stroke="#191970" d="M33.3138,-36.159C26.7582,-45.5566 35.8203,-54.5 60.5,-54.5 75.5392,-54.5 84.779,-51.179 88.2193,-46.4579"/>
<polygon fill="#191970" stroke="#191970" points="91.6986,-45.9647 87.6862,-36.159 84.7079,-46.3266 91.6986,-45.9647"/>
</g>
<!-- Node140 -->
<g id="node2" class="node">
<title>Node140</title>
<g id="a_node2"><a xlink:href="../../da/df5/classhydrogen__framework_1_1Graph__Instruction.html#a56b37c9df4d67cf2dba65a843f792d03" target="_top" target="_top" xlink:title=" ">
<polygon fill="none" stroke="#000000" points="157,-.5 157,-41.5 278,-41.5 278,-.5 157,-.5"/>
<text text-anchor="start" x="165" y="-29.5" font-family="Helvetica,sans-Serif" font-size="10.00" fill="#000000">hydrogen_framework</text>
<text text-anchor="start" x="165" y="-18.5" font-family="Helvetica,sans-Serif" font-size="10.00" fill="#000000">::Graph_Instruction</text>
<text text-anchor="middle" x="217.5" y="-7.5" font-family="Helvetica,sans-Serif" font-size="10.00" fill="#000000">::getInstructionEdges</text>
</a>
</g>
</g>
<!-- Node139&#45;&gt;Node140 -->
<g id="edge2" class="edge">
<title>Node139&#45;&gt;Node140</title>
<path fill="none" stroke="#191970" d="M121.2003,-21C129.635,-21 138.3591,-21 146.9547,-21"/>
<polygon fill="#191970" stroke="#191970" points="146.9612,-24.5001 156.9611,-21 146.9611,-17.5001 146.9612,-24.5001"/>
</g>
</g>
</svg>
