<?xml version="1.0" encoding="UTF-8" standalone="no"?>
<!DOCTYPE svg PUBLIC "-//W3C//DTD SVG 1.1//EN"
 "http://www.w3.org/Graphics/SVG/1.1/DTD/svg11.dtd">
<!-- Generated by graphviz version 2.40.1 (0)
 -->
<!-- Title: hydrogen_framework::deleteFromMVICFG Pages: 1 -->
<svg width="945pt" height="1209pt"
 viewBox="0.00 0.00 945.00 1208.50" xmlns="http://www.w3.org/2000/svg" xmlns:xlink="http://www.w3.org/1999/xlink">
<g id="graph0" class="graph" transform="scale(1 1) rotate(0) translate(4 1204.5)">
<title>hydrogen_framework::deleteFromMVICFG</title>
<!-- Node75 -->
<g id="node1" class="node">
<title>Node75</title>
<g id="a_node1"><a xlink:title=" ">
<polygon fill="#bfbfbf" stroke="#000000" points="0,-347 0,-377 121,-377 121,-347 0,-347"/>
<text text-anchor="start" x="8" y="-365" font-family="Helvetica,sans-Serif" font-size="10.00" fill="#000000">hydrogen_framework</text>
<text text-anchor="middle" x="60.5" y="-354" font-family="Helvetica,sans-Serif" font-size="10.00" fill="#000000">::deleteFromMVICFG</text>
</a>
</g>
</g>
<!-- Node75&#45;&gt;Node75 -->
<g id="edge4" class="edge">
<title>Node75&#45;&gt;Node75</title>
<path fill="none" stroke="#191970" d="M30.874,-377.159C23.7301,-386.5566 33.6055,-395.5 60.5,-395.5 76.8889,-395.5 86.9578,-392.179 90.7069,-387.4579"/>
<polygon fill="#191970" stroke="#191970" points="94.1837,-386.946 90.126,-377.159 87.1948,-387.3403 94.1837,-386.946"/>
</g>
<!-- Node76 -->
<g id="node2" class="node">
<title>Node76</title>
<g id="a_node2"><a xlink:href="../../d4/d7a/classhydrogen__framework_1_1Graph.html#ab2ca1cb2b3ca08c12139e86389d34038" target="_top" xlink:title=" ">
<polygon fill="none" stroke="#000000" points="171,-1115 171,-1145 292,-1145 292,-1115 171,-1115"/>
<text text-anchor="start" x="179" y="-1133" font-family="Helvetica,sans-Serif" font-size="10.00" fill="#000000">hydrogen_framework</text>
<text text-anchor="middle" x="231.5" y="-1122" font-family="Helvetica,sans-Serif" font-size="10.00" fill="#000000">::Graph::addEdge</text>
</a>
</g>
</g>
<!-- Node75&#45;&gt;Node76 -->
<g id="edge1" class="edge">
<title>Node75&#45;&gt;Node76</title>
<path fill="none" stroke="#191970" d="M61.708,-377.2729C67.3618,-445.3613 93.6502,-727.6396 157,-950 173.3623,-1007.4323 202.595,-1071.2697 219.16,-1105.3547"/>
<polygon fill="#191970" stroke="#191970" points="216.1223,-1107.1094 223.6707,-1114.544 222.4061,-1104.0249 216.1223,-1107.1094"/>
</g>
<!-- Node79 -->
<g id="node5" class="node">
<title>Node79</title>
<g id="a_node5"><a xlink:href="../../db/d17/MVICFG_8cpp.html#aca7226f27a892ce8314159fbd4eaeeb1" target="_top" xlink:title=" ">
<polygon fill="none" stroke="#000000" points="171,-719 171,-749 292,-749 292,-719 171,-719"/>
<text text-anchor="start" x="179" y="-737" font-family="Helvetica,sans-Serif" font-size="10.00" fill="#000000">hydrogen_framework</text>
<text text-anchor="middle" x="231.5" y="-726" font-family="Helvetica,sans-Serif" font-size="10.00" fill="#000000">::findMatchedLine</text>
</a>
</g>
</g>
<!-- Node75&#45;&gt;Node79 -->
<g id="edge5" class="edge">
<title>Node75&#45;&gt;Node79</title>
<path fill="none" stroke="#191970" d="M66.2486,-377.0685C80.5402,-414.2231 119.255,-513.0113 157,-593 176.764,-634.8836 202.5084,-682.2338 217.9791,-710.0236"/>
<polygon fill="#191970" stroke="#191970" points="215.0609,-711.9763 222.9961,-718.9964 221.1707,-708.56 215.0609,-711.9763"/>
</g>
<!-- Node82 -->
<g id="node8" class="node">
<title>Node82</title>
<g id="a_node8"><a xlink:href="../../d0/d21/classhydrogen__framework_1_1Diff__Mapping.html#aa478ea59c018a81e417a816d10ceb9fe" target="_top" xlink:title=" ">
<polygon fill="none" stroke="#000000" points="359.5,-1060 359.5,-1090 513.5,-1090 513.5,-1060 359.5,-1060"/>
<text text-anchor="start" x="367.5" y="-1078" font-family="Helvetica,sans-Serif" font-size="10.00" fill="#000000">hydrogen_framework</text>
<text text-anchor="middle" x="436.5" y="-1067" font-family="Helvetica,sans-Serif" font-size="10.00" fill="#000000">::Diff_Mapping::getFileName</text>
</a>
</g>
</g>
<!-- Node75&#45;&gt;Node82 -->
<g id="edge29" class="edge">
<title>Node75&#45;&gt;Node82</title>
<path fill="none" stroke="#191970" d="M62.0196,-377.3325C67.9638,-433.0961 92.5711,-629.5775 157,-777 215.695,-911.3025 222.4499,-965.2059 342,-1050 344.6992,-1051.9145 347.5356,-1053.6824 350.4725,-1055.3149"/>
<polygon fill="#191970" stroke="#191970" points="349.0345,-1058.5086 359.5482,-1059.8176 352.1456,-1052.2379 349.0345,-1058.5086"/>
</g>
<!-- Node86 -->
<g id="node12" class="node">
<title>Node86</title>
<g id="a_node12"><a xlink:href="../../d4/d7a/classhydrogen__framework_1_1Graph.html#a7eec182dc5d509ffef12e7b0f50802e7" target="_top" xlink:title=" ">
<polygon fill="none" stroke="#000000" points="362,-440 362,-470 511,-470 511,-440 362,-440"/>
<text text-anchor="start" x="370" y="-458" font-family="Helvetica,sans-Serif" font-size="10.00" fill="#000000">hydrogen_framework</text>
<text text-anchor="middle" x="436.5" y="-447" font-family="Helvetica,sans-Serif" font-size="10.00" fill="#000000">::Graph::getGraphFunctions</text>
</a>
</g>
</g>
<!-- Node75&#45;&gt;Node86 -->
<g id="edge30" class="edge">
<title>Node75&#45;&gt;Node86</title>
<path fill="none" stroke="#191970" d="M66.7558,-377.0617C79.1925,-404.7478 109.9475,-462.9955 157,-486 216.4925,-515.0865 240.2275,-493.7049 306,-486 329.0653,-483.298 353.9641,-477.9968 375.7676,-472.5315"/>
<polygon fill="#191970" stroke="#191970" points="376.7358,-475.8965 385.5499,-470.0176 374.9934,-469.1168 376.7358,-475.8965"/>
</g>
<!-- Node88 -->
<g id="node14" class="node">
<title>Node88</title>
<g id="a_node14"><a xlink:href="../../d8/d0b/classhydrogen__framework_1_1Graph__Line.html#af0f712f66ed43d42a1daf4905b3ace16" target="_top" xlink:title=" ">
<polygon fill="none" stroke="#000000" points="761,-309 761,-339 937,-339 937,-309 761,-309"/>
<text text-anchor="start" x="769" y="-327" font-family="Helvetica,sans-Serif" font-size="10.00" fill="#000000">hydrogen_framework</text>
<text text-anchor="middle" x="849" y="-316" font-family="Helvetica,sans-Serif" font-size="10.00" fill="#000000">::Graph_Line::getLineInstructions</text>
</a>
</g>
</g>
<!-- Node75&#45;&gt;Node88 -->
<g id="edge41" class="edge">
<title>Node75&#45;&gt;Node88</title>
<path fill="none" stroke="#191970" d="M121.4343,-359.3568C238.4395,-354.237 502.6881,-342.4603 725,-331 733.3577,-330.5692 742.0314,-330.1081 750.7332,-329.6358"/>
<polygon fill="#191970" stroke="#191970" points="751.15,-333.1183 760.944,-329.0774 750.7677,-326.1287 751.15,-333.1183"/>
</g>
<!-- Node89 -->
<g id="node15" class="node">
<title>Node89</title>
<g id="a_node15"><a xlink:href="../../d4/d7a/classhydrogen__framework_1_1Graph.html#a3e9e35a4f8633968db44f453ccee09b0" target="_top" xlink:title=" ">
<polygon fill="none" stroke="#000000" points="367,-391 367,-421 506,-421 506,-391 367,-391"/>
<text text-anchor="start" x="375" y="-409" font-family="Helvetica,sans-Serif" font-size="10.00" fill="#000000">hydrogen_framework</text>
<text text-anchor="middle" x="436.5" y="-398" font-family="Helvetica,sans-Serif" font-size="10.00" fill="#000000">::Graph::getGraphVersion</text>
</a>
</g>
</g>
<!-- Node75&#45;&gt;Node89 -->
<g id="edge35" class="edge">
<title>Node75&#45;&gt;Node89</title>
<path fill="none" stroke="#191970" d="M121.1965,-371.1566C133.0587,-372.8469 145.411,-374.5379 157,-376 224.2337,-384.4823 300.7625,-392.5891 356.7221,-398.2322"/>
<polygon fill="#191970" stroke="#191970" points="356.625,-401.74 366.9247,-399.2568 357.3245,-394.775 356.625,-401.74"/>
</g>
<!-- Node93 -->
<g id="node19" class="node">
<title>Node93</title>
<g id="a_node19"><a xlink:href="../../d0/d21/classhydrogen__framework_1_1Diff__Mapping.html#a9319e5ba9266687afa0409cbc840fc87" target="_top" xlink:title=" ">
<polygon fill="none" stroke="#000000" points="158.5,-110.5 158.5,-151.5 304.5,-151.5 304.5,-110.5 158.5,-110.5"/>
<text text-anchor="start" x="166.5" y="-139.5" font-family="Helvetica,sans-Serif" font-size="10.00" fill="#000000">hydrogen_framework</text>
<text text-anchor="start" x="166.5" y="-128.5" font-family="Helvetica,sans-Serif" font-size="10.00" fill="#000000">::Diff_Mapping::getDeleted</text>
<text text-anchor="middle" x="231.5" y="-117.5" font-family="Helvetica,sans-Serif" font-size="10.00" fill="#000000">Lines</text>
</a>
</g>
</g>
<!-- Node75&#45;&gt;Node93 -->
<g id="edge24" class="edge">
<title>Node75&#45;&gt;Node93</title>
<path fill="none" stroke="#191970" d="M64.2015,-346.9477C73.7129,-311.1292 102.1956,-219.81 157,-166 160.2423,-162.8166 163.8285,-159.884 167.6231,-157.189"/>
<polygon fill="#191970" stroke="#191970" points="169.6947,-160.0181 176.2107,-151.6638 165.9071,-154.1312 169.6947,-160.0181"/>
</g>
<!-- Node94 -->
<g id="node20" class="node">
<title>Node94</title>
<g id="a_node20"><a xlink:href="../../db/d17/MVICFG_8cpp.html#ada0e47addc20cb09435186c57d5aa66a" target="_top" xlink:title=" ">
<polygon fill="none" stroke="#000000" points="376,-247 376,-277 497,-277 497,-247 376,-247"/>
<text text-anchor="start" x="384" y="-265" font-family="Helvetica,sans-Serif" font-size="10.00" fill="#000000">hydrogen_framework</text>
<text text-anchor="middle" x="436.5" y="-254" font-family="Helvetica,sans-Serif" font-size="10.00" fill="#000000">::getEdge</text>
</a>
</g>
</g>
<!-- Node75&#45;&gt;Node94 -->
<g id="edge25" class="edge">
<title>Node75&#45;&gt;Node94</title>
<path fill="none" stroke="#191970" d="M71.5742,-346.944C87.7169,-326.3648 119.8648,-290.2679 157,-275 223.8591,-247.5113 307.4352,-247.5885 365.6998,-252.4719"/>
<polygon fill="#191970" stroke="#191970" points="365.6364,-255.9805 375.9118,-253.3986 366.2691,-249.0091 365.6364,-255.9805"/>
</g>
<!-- Node96 -->
<g id="node22" class="node">
<title>Node96</title>
<g id="a_node22"><a xlink:href="../../d2/d64/classhydrogen__framework_1_1Graph__Edge.html#a70c11cd235253c7c734506ffec7ac158" target="_top" xlink:title=" ">
<polygon fill="none" stroke="#000000" points="157,-61 157,-91 306,-91 306,-61 157,-61"/>
<text text-anchor="start" x="165" y="-79" font-family="Helvetica,sans-Serif" font-size="10.00" fill="#000000">hydrogen_framework</text>
<text text-anchor="middle" x="231.5" y="-68" font-family="Helvetica,sans-Serif" font-size="10.00" fill="#000000">::Graph_Edge::getEdgeType</text>
</a>
</g>
</g>
<!-- Node75&#45;&gt;Node96 -->
<g id="edge28" class="edge">
<title>Node75&#45;&gt;Node96</title>
<path fill="none" stroke="#191970" d="M61.6442,-346.9065C65.8079,-302.6374 84.0078,-171.8076 157,-101 158.631,-99.4178 160.3652,-97.9356 162.1822,-96.5472"/>
<polygon fill="#191970" stroke="#191970" points="164.1565,-99.4382 170.6162,-91.0404 160.3295,-93.5769 164.1565,-99.4382"/>
</g>
<!-- Node97 -->
<g id="node23" class="node">
<title>Node97</title>
<g id="a_node23"><a xlink:href="../../db/d17/MVICFG_8cpp.html#af4e85a6116ecbc77986b2e11a8077e9d" target="_top" xlink:title=" ">
<polygon fill="none" stroke="#000000" points="160.5,-429 160.5,-459 302.5,-459 302.5,-429 160.5,-429"/>
<text text-anchor="start" x="168.5" y="-447" font-family="Helvetica,sans-Serif" font-size="10.00" fill="#000000">hydrogen_framework</text>
<text text-anchor="middle" x="231.5" y="-436" font-family="Helvetica,sans-Serif" font-size="10.00" fill="#000000">::getGraphLinesGivenLine</text>
</a>
</g>
</g>
<!-- Node75&#45;&gt;Node97 -->
<g id="edge31" class="edge">
<title>Node75&#45;&gt;Node97</title>
<path fill="none" stroke="#191970" d="M86.7169,-377.1549C105.8986,-387.9885 132.7054,-402.606 157,-414 165.0714,-417.7854 173.7582,-421.5513 182.2496,-425.0713"/>
<polygon fill="#191970" stroke="#191970" points="181.1289,-428.3941 191.7103,-428.929 183.772,-421.9123 181.1289,-428.3941"/>
</g>
<!-- Node98 -->
<g id="node24" class="node">
<title>Node98</title>
<g id="a_node24"><a xlink:href="../../db/d17/MVICFG_8cpp.html#a8c55b276e33d536dd4b0e230b5be7308" target="_top" xlink:title=" ">
<polygon fill="none" stroke="#000000" points="171,-285 171,-315 292,-315 292,-285 171,-285"/>
<text text-anchor="start" x="179" y="-303" font-family="Helvetica,sans-Serif" font-size="10.00" fill="#000000">hydrogen_framework</text>
<text text-anchor="middle" x="231.5" y="-292" font-family="Helvetica,sans-Serif" font-size="10.00" fill="#000000">::getInBetweenEdge</text>
</a>
</g>
</g>
<!-- Node75&#45;&gt;Node98 -->
<g id="edge36" class="edge">
<title>Node75&#45;&gt;Node98</title>
<path fill="none" stroke="#191970" d="M101.8943,-346.9915C125.4546,-338.4492 155.1679,-327.676 180.1989,-318.6004"/>
<polygon fill="#191970" stroke="#191970" points="181.6861,-321.7842 189.8942,-315.0851 179.3,-315.2034 181.6861,-321.7842"/>
</g>
<!-- Node99 -->
<g id="node25" class="node">
<title>Node99</title>
<g id="a_node25"><a xlink:href="../../da/df5/classhydrogen__framework_1_1Graph__Instruction.html#a1326a74a34cfc25f47a1e60e5e0ef2b0" target="_top" xlink:title=" ">
<polygon fill="none" stroke="#000000" points="171,-.5 171,-41.5 292,-41.5 292,-.5 171,-.5"/>
<text text-anchor="start" x="179" y="-29.5" font-family="Helvetica,sans-Serif" font-size="10.00" fill="#000000">hydrogen_framework</text>
<text text-anchor="start" x="179" y="-18.5" font-family="Helvetica,sans-Serif" font-size="10.00" fill="#000000">::Graph_Instruction</text>
<text text-anchor="middle" x="231.5" y="-7.5" font-family="Helvetica,sans-Serif" font-size="10.00" fill="#000000">::getInstructionLabel</text>
</a>
</g>
</g>
<!-- Node75&#45;&gt;Node99 -->
<g id="edge40" class="edge">
<title>Node75&#45;&gt;Node99</title>
<path fill="none" stroke="#191970" d="M63.4116,-346.8592C74.4411,-290.868 115.1534,-96.4245 157,-51 158.7359,-49.1156 160.6065,-47.3472 162.5834,-45.6878"/>
<polygon fill="#191970" stroke="#191970" points="164.6396,-48.5202 170.676,-39.8132 160.5273,-42.8555 164.6396,-48.5202"/>
</g>
<!-- Node100 -->
<g id="node26" class="node">
<title>Node100</title>
<g id="a_node26"><a xlink:href="../../db/d17/MVICFG_8cpp.html#a1d4ae9543ae0c613fedc7d032745b2c1" target="_top" xlink:title=" ">
<polygon fill="none" stroke="#000000" points="171,-535 171,-565 292,-565 292,-535 171,-535"/>
<text text-anchor="start" x="179" y="-553" font-family="Helvetica,sans-Serif" font-size="10.00" fill="#000000">hydrogen_framework</text>
<text text-anchor="middle" x="231.5" y="-542" font-family="Helvetica,sans-Serif" font-size="10.00" fill="#000000">::getNewlyAdded</text>
</a>
</g>
</g>
<!-- Node75&#45;&gt;Node100 -->
<g id="edge42" class="edge">
<title>Node75&#45;&gt;Node100</title>
<path fill="none" stroke="#191970" d="M65.9953,-377.26C77.898,-408.2992 108.9242,-479.2872 157,-520 161.5671,-523.8676 166.697,-527.2817 172.0726,-530.2855"/>
<polygon fill="#191970" stroke="#191970" points="170.7934,-533.561 181.2953,-534.9611 173.9587,-527.3175 170.7934,-533.561"/>
</g>
<!-- Node102 -->
<g id="node28" class="node">
<title>Node102</title>
<g id="a_node28"><a xlink:href="../../db/d17/MVICFG_8cpp.html#ae3d8d56d8de87926a4b050f28a5a1fe1" target="_top" xlink:title=" ">
<polygon fill="none" stroke="#000000" points="367.5,-180 367.5,-210 505.5,-210 505.5,-180 367.5,-180"/>
<text text-anchor="start" x="375.5" y="-198" font-family="Helvetica,sans-Serif" font-size="10.00" fill="#000000">hydrogen_framework</text>
<text text-anchor="middle" x="436.5" y="-187" font-family="Helvetica,sans-Serif" font-size="10.00" fill="#000000">::getPredGivenGraphLine</text>
</a>
</g>
</g>
<!-- Node75&#45;&gt;Node102 -->
<g id="edge50" class="edge">
<title>Node75&#45;&gt;Node102</title>
<path fill="none" stroke="#191970" d="M68.5336,-346.6468C82.7073,-321.2158 114.7011,-270.7096 157,-246 218.0971,-210.3092 298.4847,-198.6036 357.3592,-195.2095"/>
<polygon fill="#191970" stroke="#191970" points="357.5441,-198.7047 367.3532,-194.7009 357.1882,-191.7138 357.5441,-198.7047"/>
</g>
<!-- Node103 -->
<g id="node29" class="node">
<title>Node103</title>
<g id="a_node29"><a xlink:href="../../db/d17/MVICFG_8cpp.html#aea56e0949bba61be541008db2bd160a6" target="_top" xlink:title=" ">
<polygon fill="none" stroke="#000000" points="367,-113 367,-143 506,-143 506,-113 367,-113"/>
<text text-anchor="start" x="375" y="-131" font-family="Helvetica,sans-Serif" font-size="10.00" fill="#000000">hydrogen_framework</text>
<text text-anchor="middle" x="436.5" y="-120" font-family="Helvetica,sans-Serif" font-size="10.00" fill="#000000">::getSuccGivenGraphLine</text>
</a>
</g>
</g>
<!-- Node75&#45;&gt;Node103 -->
<g id="edge54" class="edge">
<title>Node75&#45;&gt;Node103</title>
<path fill="none" stroke="#191970" d="M64.8399,-346.9629C75.0889,-314.2499 104.0042,-236.4025 157,-197 211.6722,-156.3511 239.8636,-177.3512 306,-161 325.9897,-156.0579 347.6789,-150.6084 367.5296,-145.5862"/>
<polygon fill="#191970" stroke="#191970" points="368.582,-148.9303 377.4164,-143.0819 366.8631,-142.1446 368.582,-148.9303"/>
</g>
<!-- Node77 -->
<g id="node3" class="node">
<title>Node77</title>
<g id="a_node3"><a xlink:href="../../da/df5/classhydrogen__framework_1_1Graph__Instruction.html#ade4352d83d22adfdfba4a5c45f3b7292" target="_top" xlink:title=" ">
<polygon fill="none" stroke="#000000" points="375.5,-1109.5 375.5,-1150.5 497.5,-1150.5 497.5,-1109.5 375.5,-1109.5"/>
<text text-anchor="start" x="383.5" y="-1138.5" font-family="Helvetica,sans-Serif" font-size="10.00" fill="#000000">hydrogen_framework</text>
<text text-anchor="start" x="383.5" y="-1127.5" font-family="Helvetica,sans-Serif" font-size="10.00" fill="#000000">::Graph_Instruction</text>
<text text-anchor="middle" x="436.5" y="-1116.5" font-family="Helvetica,sans-Serif" font-size="10.00" fill="#000000">::pushEdgeInstruction</text>
</a>
</g>
</g>
<!-- Node76&#45;&gt;Node77 -->
<g id="edge2" class="edge">
<title>Node76&#45;&gt;Node77</title>
<path fill="none" stroke="#191970" d="M292.1747,-1130C315.1089,-1130 341.4151,-1130 365.2335,-1130"/>
<polygon fill="#191970" stroke="#191970" points="365.272,-1133.5001 375.272,-1130 365.272,-1126.5001 365.272,-1133.5001"/>
</g>
<!-- Node78 -->
<g id="node4" class="node">
<title>Node78</title>
<g id="a_node4"><a xlink:href="../../d4/d7a/classhydrogen__framework_1_1Graph.html#a654ec603b3fb6fcaaabc1419a18e0b96" target="_top" xlink:title=" ">
<polygon fill="none" stroke="#000000" points="366.5,-1170 366.5,-1200 506.5,-1200 506.5,-1170 366.5,-1170"/>
<text text-anchor="start" x="374.5" y="-1188" font-family="Helvetica,sans-Serif" font-size="10.00" fill="#000000">hydrogen_framework</text>
<text text-anchor="middle" x="436.5" y="-1177" font-family="Helvetica,sans-Serif" font-size="10.00" fill="#000000">::Graph::pushGraphEdges</text>
</a>
</g>
</g>
<!-- Node76&#45;&gt;Node78 -->
<g id="edge3" class="edge">
<title>Node76&#45;&gt;Node78</title>
<path fill="none" stroke="#191970" d="M286.563,-1145.0246C304.2587,-1149.8329 323.9513,-1155.1626 342,-1160 351.0029,-1162.4129 360.4923,-1164.9412 369.8452,-1167.4243"/>
<polygon fill="#191970" stroke="#191970" points="368.9533,-1170.8087 379.5164,-1169.9888 370.7476,-1164.0425 368.9533,-1170.8087"/>
</g>
<!-- Node79&#45;&gt;Node79 -->
<g id="edge6" class="edge">
<title>Node79&#45;&gt;Node79</title>
<path fill="none" stroke="#191970" d="M201.874,-749.159C194.7301,-758.5566 204.6055,-767.5 231.5,-767.5 247.8889,-767.5 257.9578,-764.179 261.7069,-759.4579"/>
<polygon fill="#191970" stroke="#191970" points="265.1837,-758.946 261.126,-749.159 258.1948,-759.3403 265.1837,-758.946"/>
</g>
<!-- Node80 -->
<g id="node6" class="node">
<title>Node80</title>
<g id="a_node6"><a xlink:href="../../d0/d21/classhydrogen__framework_1_1Diff__Mapping.html#a4326f5b36e7bc06e3fd4410d399d6c41" target="_top" xlink:title=" ">
<polygon fill="none" stroke="#000000" points="360.5,-999.5 360.5,-1040.5 512.5,-1040.5 512.5,-999.5 360.5,-999.5"/>
<text text-anchor="start" x="368.5" y="-1028.5" font-family="Helvetica,sans-Serif" font-size="10.00" fill="#000000">hydrogen_framework</text>
<text text-anchor="start" x="368.5" y="-1017.5" font-family="Helvetica,sans-Serif" font-size="10.00" fill="#000000">::Diff_Mapping::getAfterLine</text>
<text text-anchor="middle" x="436.5" y="-1006.5" font-family="Helvetica,sans-Serif" font-size="10.00" fill="#000000">Number</text>
</a>
</g>
</g>
<!-- Node79&#45;&gt;Node80 -->
<g id="edge7" class="edge">
<title>Node79&#45;&gt;Node80</title>
<path fill="none" stroke="#191970" d="M237.1926,-749.148C256.9728,-801.4812 322.5697,-972.4231 342,-990 344.8482,-992.5765 347.9178,-994.9318 351.1486,-997.0849"/>
<polygon fill="#191970" stroke="#191970" points="349.6438,-1000.2607 360.0356,-1002.3248 353.1991,-994.2308 349.6438,-1000.2607"/>
</g>
<!-- Node81 -->
<g id="node7" class="node">
<title>Node81</title>
<g id="a_node7"><a xlink:href="../../d0/d21/classhydrogen__framework_1_1Diff__Mapping.html#ae9f45495f5f3d03365cb9303424503e7" target="_top" xlink:title=" ">
<polygon fill="none" stroke="#000000" points="356,-939.5 356,-980.5 517,-980.5 517,-939.5 356,-939.5"/>
<text text-anchor="start" x="364" y="-968.5" font-family="Helvetica,sans-Serif" font-size="10.00" fill="#000000">hydrogen_framework</text>
<text text-anchor="start" x="364" y="-957.5" font-family="Helvetica,sans-Serif" font-size="10.00" fill="#000000">::Diff_Mapping::getBeforeLine</text>
<text text-anchor="middle" x="436.5" y="-946.5" font-family="Helvetica,sans-Serif" font-size="10.00" fill="#000000">Number</text>
</a>
</g>
</g>
<!-- Node79&#45;&gt;Node81 -->
<g id="edge8" class="edge">
<title>Node79&#45;&gt;Node81</title>
<path fill="none" stroke="#191970" d="M235.7522,-749.0231C246.8721,-785.5846 280.3093,-879.8659 342,-930 343.603,-931.3027 345.2633,-932.5492 346.9722,-933.7419"/>
<polygon fill="#191970" stroke="#191970" points="345.5363,-936.9699 355.8789,-939.2681 349.2268,-931.0218 345.5363,-936.9699"/>
</g>
<!-- Node79&#45;&gt;Node82 -->
<g id="edge9" class="edge">
<title>Node79&#45;&gt;Node82</title>
<path fill="none" stroke="#191970" d="M238.2301,-749.397C252.0076,-781.2383 283.9801,-856.8062 306,-922 324.9108,-977.9886 299.8893,-1008.5388 342,-1050 344.6982,-1052.6566 347.644,-1055.0401 350.7737,-1057.1778"/>
<polygon fill="#191970" stroke="#191970" points="349.0504,-1060.2248 359.4438,-1062.2813 352.6014,-1054.1923 349.0504,-1060.2248"/>
</g>
<!-- Node83 -->
<g id="node9" class="node">
<title>Node83</title>
<g id="a_node9"><a xlink:href="../../dc/d7a/classhydrogen__framework_1_1Graph__Function.html#a6a9a8a2315e726618c6546d55bea6ba5" target="_top" xlink:title=" ">
<polygon fill="none" stroke="#000000" points="348.5,-626 348.5,-656 524.5,-656 524.5,-626 348.5,-626"/>
<text text-anchor="start" x="356.5" y="-644" font-family="Helvetica,sans-Serif" font-size="10.00" fill="#000000">hydrogen_framework</text>
<text text-anchor="middle" x="436.5" y="-633" font-family="Helvetica,sans-Serif" font-size="10.00" fill="#000000">::Graph_Function::getFunctionFile</text>
</a>
</g>
</g>
<!-- Node79&#45;&gt;Node83 -->
<g id="edge10" class="edge">
<title>Node79&#45;&gt;Node83</title>
<path fill="none" stroke="#191970" d="M254.4651,-718.9973C276.3141,-705.191 310.4441,-684.8198 342,-671 351.7782,-666.7177 362.3646,-662.7496 372.7937,-659.1948"/>
<polygon fill="#191970" stroke="#191970" points="373.9055,-662.5137 382.2996,-656.0492 371.7064,-655.868 373.9055,-662.5137"/>
</g>
<!-- Node84 -->
<g id="node10" class="node">
<title>Node84</title>
<g id="a_node10"><a xlink:href="../../dc/d7a/classhydrogen__framework_1_1Graph__Function.html#a014d9adac948494beaa418a2a5e3e002" target="_top" xlink:title=" ">
<polygon fill="none" stroke="#000000" points="342,-890 342,-920 531,-920 531,-890 342,-890"/>
<text text-anchor="start" x="350" y="-908" font-family="Helvetica,sans-Serif" font-size="10.00" fill="#000000">hydrogen_framework</text>
<text text-anchor="middle" x="436.5" y="-897" font-family="Helvetica,sans-Serif" font-size="10.00" fill="#000000">::Graph_Function::getFunctionName</text>
</a>
</g>
</g>
<!-- Node79&#45;&gt;Node84 -->
<g id="edge11" class="edge">
<title>Node79&#45;&gt;Node84</title>
<path fill="none" stroke="#191970" d="M238.563,-749.0371C253.3522,-778.8341 290.5188,-845.4726 342,-880 345.0699,-882.0589 348.3015,-883.9485 351.6451,-885.6826"/>
<polygon fill="#191970" stroke="#191970" points="350.1811,-888.8617 360.7231,-889.9192 353.1415,-882.5185 350.1811,-888.8617"/>
</g>
<!-- Node85 -->
<g id="node11" class="node">
<title>Node85</title>
<g id="a_node11"><a xlink:href="../../d8/d0b/classhydrogen__framework_1_1Graph__Line.html#a8f3052170907f9eb0a6e2a4ea0ba7f5d" target="_top" xlink:title=" ">
<polygon fill="none" stroke="#000000" points="352,-577 352,-607 521,-607 521,-577 352,-577"/>
<text text-anchor="start" x="360" y="-595" font-family="Helvetica,sans-Serif" font-size="10.00" fill="#000000">hydrogen_framework</text>
<text text-anchor="middle" x="436.5" y="-584" font-family="Helvetica,sans-Serif" font-size="10.00" fill="#000000">::Graph_Line::getGraphFunction</text>
</a>
</g>
</g>
<!-- Node79&#45;&gt;Node85 -->
<g id="edge12" class="edge">
<title>Node79&#45;&gt;Node85</title>
<path fill="none" stroke="#191970" d="M241.467,-718.9009C258.8285,-693.8201 297.0879,-643.6959 342,-617 345.6926,-614.8051 349.5789,-612.7998 353.5844,-610.9682"/>
<polygon fill="#191970" stroke="#191970" points="355.2254,-614.0763 363.1122,-607.0017 352.535,-607.6139 355.2254,-614.0763"/>
</g>
<!-- Node79&#45;&gt;Node86 -->
<g id="edge13" class="edge">
<title>Node79&#45;&gt;Node86</title>
<path fill="none" stroke="#191970" d="M239.7147,-718.8549C253.6226,-693.1253 282.579,-639.1725 306,-593 322.5455,-560.3821 318.045,-546.6376 342,-519 357.3911,-501.2429 378.8025,-486.2031 397.3532,-475.1739"/>
<polygon fill="#191970" stroke="#191970" points="399.27,-478.109 406.1913,-470.0873 395.7783,-472.042 399.27,-478.109"/>
</g>
<!-- Node87 -->
<g id="node13" class="node">
<title>Node87</title>
<g id="a_node13"><a xlink:href="../../db/d17/MVICFG_8cpp.html#a107ab967667e37747c5b7687e6baccec" target="_top" xlink:title=" ">
<polygon fill="none" stroke="#000000" points="573.5,-652.5 573.5,-693.5 718.5,-693.5 718.5,-652.5 573.5,-652.5"/>
<text text-anchor="start" x="581.5" y="-681.5" font-family="Helvetica,sans-Serif" font-size="10.00" fill="#000000">hydrogen_framework</text>
<text text-anchor="start" x="581.5" y="-670.5" font-family="Helvetica,sans-Serif" font-size="10.00" fill="#000000">::getGraphLineInstructions</text>
<text text-anchor="middle" x="646" y="-659.5" font-family="Helvetica,sans-Serif" font-size="10.00" fill="#000000">AsString</text>
</a>
</g>
</g>
<!-- Node79&#45;&gt;Node87 -->
<g id="edge14" class="edge">
<title>Node79&#45;&gt;Node87</title>
<path fill="none" stroke="#191970" d="M280.061,-718.9728C299.2007,-713.5365 321.4775,-707.8058 342,-704 416.2406,-690.2324 501.8961,-682.1914 563.3265,-677.765"/>
<polygon fill="#191970" stroke="#191970" points="563.6252,-681.2527 573.3546,-677.0589 563.1335,-674.27 563.6252,-681.2527"/>
</g>
<!-- Node79&#45;&gt;Node89 -->
<g id="edge17" class="edge">
<title>Node79&#45;&gt;Node89</title>
<path fill="none" stroke="#191970" d="M241.185,-718.9821C256.9696,-693.8708 288.2586,-641.3435 306,-593 331.56,-523.3517 290.368,-483.276 342,-430 346.4839,-425.3734 351.7234,-421.592 357.3948,-418.5068"/>
<polygon fill="#191970" stroke="#191970" points="359.0299,-421.6063 366.616,-414.2102 356.0734,-415.2612 359.0299,-421.6063"/>
</g>
<!-- Node90 -->
<g id="node16" class="node">
<title>Node90</title>
<g id="a_node16"><a xlink:href="../../d8/d0b/classhydrogen__framework_1_1Graph__Line.html#ae6ad83ec04c972e87856c267d61ba6f5" target="_top" xlink:title=" ">
<polygon fill="none" stroke="#000000" points="567,-731 567,-761 725,-761 725,-731 567,-731"/>
<text text-anchor="start" x="575" y="-749" font-family="Helvetica,sans-Serif" font-size="10.00" fill="#000000">hydrogen_framework</text>
<text text-anchor="middle" x="646" y="-738" font-family="Helvetica,sans-Serif" font-size="10.00" fill="#000000">::Graph_Line::getLineNumber</text>
</a>
</g>
</g>
<!-- Node79&#45;&gt;Node90 -->
<g id="edge18" class="edge">
<title>Node79&#45;&gt;Node90</title>
<path fill="none" stroke="#191970" d="M257.7237,-749.0578C279.4955,-760.6427 311.6921,-775.7016 342,-782 424.2429,-799.0913 447.9646,-794.6931 531,-782 553.6596,-778.5362 577.9893,-771.4425 598.4083,-764.4608"/>
<polygon fill="#191970" stroke="#191970" points="599.8186,-767.6751 608.0936,-761.0588 597.4987,-761.0707 599.8186,-767.6751"/>
</g>
<!-- Node91 -->
<g id="node17" class="node">
<title>Node91</title>
<g id="a_node17"><a xlink:href="../../d4/d7a/classhydrogen__framework_1_1Graph.html#a3f18eb16e6ee20b9bfb19933aaab48df" target="_top" xlink:title=" ">
<polygon fill="none" stroke="#000000" points="364.5,-829.5 364.5,-870.5 508.5,-870.5 508.5,-829.5 364.5,-829.5"/>
<text text-anchor="start" x="372.5" y="-858.5" font-family="Helvetica,sans-Serif" font-size="10.00" fill="#000000">hydrogen_framework</text>
<text text-anchor="start" x="372.5" y="-847.5" font-family="Helvetica,sans-Serif" font-size="10.00" fill="#000000">::Graph::isVirtualNodeLine</text>
<text text-anchor="middle" x="436.5" y="-836.5" font-family="Helvetica,sans-Serif" font-size="10.00" fill="#000000">Number</text>
</a>
</g>
</g>
<!-- Node79&#45;&gt;Node91 -->
<g id="edge19" class="edge">
<title>Node79&#45;&gt;Node91</title>
<path fill="none" stroke="#191970" d="M248.8467,-749.1071C269.7827,-766.7536 306.6004,-795.9529 342,-815 349.0101,-818.7718 356.5135,-822.3085 364.1134,-825.5745"/>
<polygon fill="#191970" stroke="#191970" points="362.8266,-828.8298 373.4049,-829.4217 365.5045,-822.3623 362.8266,-828.8298"/>
</g>
<!-- Node92 -->
<g id="node18" class="node">
<title>Node92</title>
<g id="a_node18"><a xlink:href="../../db/d17/MVICFG_8cpp.html#aba1f11ef6a3442c674bce54fb19a092e" target="_top" xlink:title=" ">
<polygon fill="none" stroke="#000000" points="356,-713.5 356,-754.5 517,-754.5 517,-713.5 356,-713.5"/>
<text text-anchor="start" x="364" y="-742.5" font-family="Helvetica,sans-Serif" font-size="10.00" fill="#000000">hydrogen_framework</text>
<text text-anchor="start" x="364" y="-731.5" font-family="Helvetica,sans-Serif" font-size="10.00" fill="#000000">::resolveMatchedLinesWithNo</text>
<text text-anchor="middle" x="436.5" y="-720.5" font-family="Helvetica,sans-Serif" font-size="10.00" fill="#000000">ExtactStringMatch</text>
</a>
</g>
</g>
<!-- Node79&#45;&gt;Node92 -->
<g id="edge20" class="edge">
<title>Node79&#45;&gt;Node92</title>
<path fill="none" stroke="#191970" d="M292.1747,-734C309.0101,-734 327.6625,-734 345.8141,-734"/>
<polygon fill="#191970" stroke="#191970" points="345.8321,-737.5001 355.832,-734 345.832,-730.5001 345.8321,-737.5001"/>
</g>
<!-- Node87&#45;&gt;Node87 -->
<g id="edge15" class="edge">
<title>Node87&#45;&gt;Node87</title>
<path fill="none" stroke="#191970" d="M608.874,-693.8644C604.8239,-703.5433 617.1992,-712 646,-712 664.0005,-712 675.5848,-708.6966 680.7529,-703.8561"/>
<polygon fill="#191970" stroke="#191970" points="684.2204,-704.4026 683.126,-693.8644 677.4098,-702.785 684.2204,-704.4026"/>
</g>
<!-- Node87&#45;&gt;Node88 -->
<g id="edge16" class="edge">
<title>Node87&#45;&gt;Node88</title>
<path fill="none" stroke="#191970" d="M657.9407,-652.4714C693.2589,-591.752 797.1092,-413.2113 834.9776,-348.1075"/>
<polygon fill="#191970" stroke="#191970" points="838.0674,-349.7566 840.0699,-339.3527 832.0165,-346.237 838.0674,-349.7566"/>
</g>
<!-- Node92&#45;&gt;Node87 -->
<g id="edge21" class="edge">
<title>Node92&#45;&gt;Node87</title>
<path fill="none" stroke="#191970" d="M507.1351,-713.4332C525.9349,-707.9593 546.3804,-702.0062 565.658,-696.3931"/>
<polygon fill="#191970" stroke="#191970" points="566.6925,-699.7373 575.3153,-693.5812 564.7355,-693.0164 566.6925,-699.7373"/>
</g>
<!-- Node92&#45;&gt;Node90 -->
<g id="edge22" class="edge">
<title>Node92&#45;&gt;Node90</title>
<path fill="none" stroke="#191970" d="M517.1985,-738.6223C530.0229,-739.3569 543.3558,-740.1206 556.3705,-740.8661"/>
<polygon fill="#191970" stroke="#191970" points="556.5403,-744.3815 566.7241,-741.4591 556.9407,-737.3929 556.5403,-744.3815"/>
</g>
<!-- Node92&#45;&gt;Node92 -->
<g id="edge23" class="edge">
<title>Node92&#45;&gt;Node92</title>
<path fill="none" stroke="#191970" d="M399.0064,-754.8644C394.9162,-764.5433 407.4141,-773 436.5,-773 454.6787,-773 466.3777,-769.6966 471.597,-764.8561"/>
<polygon fill="#191970" stroke="#191970" points="475.0645,-765.405 473.9936,-754.8644 468.2576,-763.7722 475.0645,-765.405"/>
</g>
<!-- Node94&#45;&gt;Node94 -->
<g id="edge26" class="edge">
<title>Node94&#45;&gt;Node94</title>
<path fill="none" stroke="#191970" d="M400.9488,-277.159C392.3762,-286.5566 404.2266,-295.5 436.5,-295.5 456.1666,-295.5 468.2494,-292.179 472.7483,-287.4579"/>
<polygon fill="#191970" stroke="#191970" points="476.2187,-286.8998 472.0512,-277.159 469.2346,-287.3726 476.2187,-286.8998"/>
</g>
<!-- Node95 -->
<g id="node21" class="node">
<title>Node95</title>
<g id="a_node21"><a xlink:href="../../da/df5/classhydrogen__framework_1_1Graph__Instruction.html#a56b37c9df4d67cf2dba65a843f792d03" target="_top" xlink:title=" ">
<polygon fill="none" stroke="#000000" points="585.5,-174.5 585.5,-215.5 706.5,-215.5 706.5,-174.5 585.5,-174.5"/>
<text text-anchor="start" x="593.5" y="-203.5" font-family="Helvetica,sans-Serif" font-size="10.00" fill="#000000">hydrogen_framework</text>
<text text-anchor="start" x="593.5" y="-192.5" font-family="Helvetica,sans-Serif" font-size="10.00" fill="#000000">::Graph_Instruction</text>
<text text-anchor="middle" x="646" y="-181.5" font-family="Helvetica,sans-Serif" font-size="10.00" fill="#000000">::getInstructionEdges</text>
</a>
</g>
</g>
<!-- Node94&#45;&gt;Node95 -->
<g id="edge27" class="edge">
<title>Node94&#45;&gt;Node95</title>
<path fill="none" stroke="#191970" d="M496.7268,-246.9506C508.1622,-243.844 519.9905,-240.4587 531,-237 548.0359,-231.648 566.2755,-225.2855 583.094,-219.1522"/>
<polygon fill="#191970" stroke="#191970" points="584.6359,-222.3143 592.8124,-215.5768 582.2189,-215.7448 584.6359,-222.3143"/>
</g>
<!-- Node97&#45;&gt;Node86 -->
<g id="edge32" class="edge">
<title>Node97&#45;&gt;Node86</title>
<path fill="none" stroke="#191970" d="M302.6237,-447.8164C318.4252,-448.6643 335.3276,-449.5712 351.618,-450.4454"/>
<polygon fill="#191970" stroke="#191970" points="351.4934,-453.9436 361.6666,-450.9845 351.8685,-446.9537 351.4934,-453.9436"/>
</g>
<!-- Node97&#45;&gt;Node89 -->
<g id="edge34" class="edge">
<title>Node97&#45;&gt;Node89</title>
<path fill="none" stroke="#191970" d="M302.6237,-430.8161C320.1869,-427.5605 339.1103,-424.0527 357.0415,-420.7289"/>
<polygon fill="#191970" stroke="#191970" points="357.6917,-424.1681 366.8863,-418.904 356.4159,-417.2853 357.6917,-424.1681"/>
</g>
<!-- Node97&#45;&gt;Node97 -->
<g id="edge33" class="edge">
<title>Node97&#45;&gt;Node97</title>
<path fill="none" stroke="#191970" d="M201.874,-459.159C194.7301,-468.5566 204.6055,-477.5 231.5,-477.5 247.8889,-477.5 257.9578,-474.179 261.7069,-469.4579"/>
<polygon fill="#191970" stroke="#191970" points="265.1837,-468.946 261.126,-459.159 258.1948,-469.3403 265.1837,-468.946"/>
</g>
<!-- Node98&#45;&gt;Node88 -->
<g id="edge39" class="edge">
<title>Node98&#45;&gt;Node88</title>
<path fill="none" stroke="#191970" d="M292.1152,-302.3559C398.9209,-306.507 621.5252,-315.1589 750.6059,-320.1758"/>
<polygon fill="#191970" stroke="#191970" points="750.7545,-323.6841 760.883,-320.5752 751.0265,-316.6894 750.7545,-323.6841"/>
</g>
<!-- Node98&#45;&gt;Node94 -->
<g id="edge37" class="edge">
<title>Node98&#45;&gt;Node94</title>
<path fill="none" stroke="#191970" d="M292.1747,-288.753C315.3155,-284.4635 341.8894,-279.5376 365.8766,-275.0912"/>
<polygon fill="#191970" stroke="#191970" points="366.7864,-278.4822 375.981,-273.2182 365.5106,-271.5995 366.7864,-278.4822"/>
</g>
<!-- Node98&#45;&gt;Node98 -->
<g id="edge38" class="edge">
<title>Node98&#45;&gt;Node98</title>
<path fill="none" stroke="#191970" d="M201.874,-315.159C194.7301,-324.5566 204.6055,-333.5 231.5,-333.5 247.8889,-333.5 257.9578,-330.179 261.7069,-325.4579"/>
<polygon fill="#191970" stroke="#191970" points="265.1837,-324.946 261.126,-315.159 258.1948,-325.3403 265.1837,-324.946"/>
</g>
<!-- Node100&#45;&gt;Node83 -->
<g id="edge44" class="edge">
<title>Node100&#45;&gt;Node83</title>
<path fill="none" stroke="#191970" d="M252.0947,-565.0637C273.5705,-580.1373 308.6873,-603.0377 342,-617 347.0249,-619.1061 352.2801,-621.062 357.6283,-622.8721"/>
<polygon fill="#191970" stroke="#191970" points="356.7349,-626.261 367.3258,-625.974 358.8675,-619.5937 356.7349,-626.261"/>
</g>
<!-- Node100&#45;&gt;Node85 -->
<g id="edge45" class="edge">
<title>Node100&#45;&gt;Node85</title>
<path fill="none" stroke="#191970" d="M292.1747,-562.4309C311.2496,-566.339 332.6572,-570.7249 353.0259,-574.898"/>
<polygon fill="#191970" stroke="#191970" points="352.4279,-578.3481 362.9269,-576.9265 353.8329,-571.4905 352.4279,-578.3481"/>
</g>
<!-- Node100&#45;&gt;Node86 -->
<g id="edge46" class="edge">
<title>Node100&#45;&gt;Node86</title>
<path fill="none" stroke="#191970" d="M277.0287,-534.9368C286.9452,-530.774 297.1191,-525.7813 306,-520 324.7018,-507.8255 322.8525,-496.4608 342,-485 349.2186,-480.6793 357.1254,-476.9149 365.1945,-473.6518"/>
<polygon fill="#191970" stroke="#191970" points="366.5976,-476.8631 374.7099,-470.0483 364.1184,-470.3168 366.5976,-476.8631"/>
</g>
<!-- Node100&#45;&gt;Node89 -->
<g id="edge47" class="edge">
<title>Node100&#45;&gt;Node89</title>
<path fill="none" stroke="#191970" d="M252.2176,-534.8561C268.0229,-522.705 289.7679,-504.6497 306,-486 325.4253,-463.6815 317.9893,-447.29 342,-430 346.7519,-426.5782 351.9452,-423.6429 357.3737,-421.1252"/>
<polygon fill="#191970" stroke="#191970" points="358.7921,-424.3261 366.6954,-417.27 356.1168,-417.8575 358.7921,-424.3261"/>
</g>
<!-- Node100&#45;&gt;Node90 -->
<g id="edge48" class="edge">
<title>Node100&#45;&gt;Node90</title>
<path fill="none" stroke="#191970" d="M260.2,-534.8483C318.6195,-506.3342 452.4525,-453.2135 531,-519 600.9111,-577.5533 506.8459,-652.4614 567,-721 568.1743,-722.338 569.4197,-723.605 570.7265,-724.8049"/>
<polygon fill="#191970" stroke="#191970" points="568.7405,-727.6918 578.8162,-730.9678 572.9826,-722.1236 568.7405,-727.6918"/>
</g>
<!-- Node100&#45;&gt;Node100 -->
<g id="edge49" class="edge">
<title>Node100&#45;&gt;Node100</title>
<path fill="none" stroke="#191970" d="M201.874,-565.159C194.7301,-574.5566 204.6055,-583.5 231.5,-583.5 247.8889,-583.5 257.9578,-580.179 261.7069,-575.4579"/>
<polygon fill="#191970" stroke="#191970" points="265.1837,-574.946 261.126,-565.159 258.1948,-575.3403 265.1837,-574.946"/>
</g>
<!-- Node101 -->
<g id="node27" class="node">
<title>Node101</title>
<g id="a_node27"><a xlink:href="../../d0/d21/classhydrogen__framework_1_1Diff__Mapping.html#a3febde10ce387d410bf97d9d2b3e3f1f" target="_top" xlink:title=" ">
<polygon fill="none" stroke="#000000" points="354.5,-528 354.5,-558 518.5,-558 518.5,-528 354.5,-528"/>
<text text-anchor="start" x="362.5" y="-546" font-family="Helvetica,sans-Serif" font-size="10.00" fill="#000000">hydrogen_framework</text>
<text text-anchor="middle" x="436.5" y="-535" font-family="Helvetica,sans-Serif" font-size="10.00" fill="#000000">::Diff_Mapping::getAddedLines</text>
</a>
</g>
</g>
<!-- Node100&#45;&gt;Node101 -->
<g id="edge43" class="edge">
<title>Node100&#45;&gt;Node101</title>
<path fill="none" stroke="#191970" d="M292.1747,-547.9282C308.4594,-547.3721 326.4443,-546.758 344.0314,-546.1575"/>
<polygon fill="#191970" stroke="#191970" points="344.4499,-549.6453 354.3246,-545.806 344.211,-542.6494 344.4499,-549.6453"/>
</g>
<!-- Node102&#45;&gt;Node88 -->
<g id="edge52" class="edge">
<title>Node102&#45;&gt;Node88</title>
<path fill="none" stroke="#191970" d="M484.6263,-210.0504C560.9038,-233.9045 709.2926,-280.3097 791.2107,-305.9277"/>
<polygon fill="#191970" stroke="#191970" points="790.273,-309.3016 800.8618,-308.9459 792.3623,-302.6206 790.273,-309.3016"/>
</g>
<!-- Node102&#45;&gt;Node95 -->
<g id="edge51" class="edge">
<title>Node102&#45;&gt;Node95</title>
<path fill="none" stroke="#191970" d="M505.6787,-195C528.0036,-195 552.7745,-195 575.2137,-195"/>
<polygon fill="#191970" stroke="#191970" points="575.3424,-198.5001 585.3424,-195 575.3424,-191.5001 575.3424,-198.5001"/>
</g>
<!-- Node102&#45;&gt;Node102 -->
<g id="edge53" class="edge">
<title>Node102&#45;&gt;Node102</title>
<path fill="none" stroke="#191970" d="M400.9488,-210.159C392.3762,-219.5566 404.2266,-228.5 436.5,-228.5 456.1666,-228.5 468.2494,-225.179 472.7483,-220.4579"/>
<polygon fill="#191970" stroke="#191970" points="476.2187,-219.8998 472.0512,-210.159 469.2346,-220.3726 476.2187,-219.8998"/>
</g>
<!-- Node103&#45;&gt;Node88 -->
<g id="edge56" class="edge">
<title>Node103&#45;&gt;Node88</title>
<path fill="none" stroke="#191970" d="M506.1268,-122.5785C567.6414,-120.9818 657.7656,-126.6824 725,-165 780.3222,-196.5287 819.6307,-263.5266 837.7518,-299.6712"/>
<polygon fill="#191970" stroke="#191970" points="834.7681,-301.5381 842.2968,-308.9926 841.0601,-298.4702 834.7681,-301.5381"/>
</g>
<!-- Node103&#45;&gt;Node95 -->
<g id="edge55" class="edge">
<title>Node103&#45;&gt;Node95</title>
<path fill="none" stroke="#191970" d="M483.5159,-143.0361C510.6217,-151.7048 545.2281,-162.7722 575.5321,-172.4637"/>
<polygon fill="#191970" stroke="#191970" points="574.6141,-175.8447 585.205,-175.5572 576.7464,-169.1774 574.6141,-175.8447"/>
</g>
<!-- Node103&#45;&gt;Node103 -->
<g id="edge57" class="edge">
<title>Node103&#45;&gt;Node103</title>
<path fill="none" stroke="#191970" d="M400.9488,-143.159C392.3762,-152.5566 404.2266,-161.5 436.5,-161.5 456.1666,-161.5 468.2494,-158.179 472.7483,-153.4579"/>
<polygon fill="#191970" stroke="#191970" points="476.2187,-152.8998 472.0512,-143.159 469.2346,-153.3726 476.2187,-152.8998"/>
</g>
</g>
</svg>
