<?xml version="1.0" encoding="UTF-8" standalone="no"?>
<!DOCTYPE svg PUBLIC "-//W3C//DTD SVG 1.1//EN"
 "http://www.w3.org/Graphics/SVG/1.1/DTD/svg11.dtd">
<!-- Generated by graphviz version 2.40.1 (20161225.0304)
 -->
<!-- Title: hydrogen_framework::getGraphLineGivenLine Pages: 1 -->
<svg width="330pt" height="88pt"
 viewBox="0.00 0.00 330.00 88.00" xmlns="http://www.w3.org/2000/svg" xmlns:xlink="http://www.w3.org/1999/xlink">
<g id="graph0" class="graph" transform="scale(1 1) rotate(0) translate(4 84)">
<title>hydrogen_framework::getGraphLineGivenLine</title>
<!-- Node147 -->
<g id="node1" class="node">
<title>Node147</title>
<g id="a_node1"><a xlink:title=" ">
<polygon fill="#bfbfbf" stroke="#000000" points="0,-24.5 0,-54.5 137,-54.5 137,-24.5 0,-24.5"/>
<text text-anchor="start" x="8" y="-42.5" font-family="Helvetica,sans-Serif" font-size="10.00" fill="#000000">hydrogen_framework</text>
<text text-anchor="middle" x="68.5" y="-31.5" font-family="Helvetica,sans-Serif" font-size="10.00" fill="#000000">::getGraphLineGivenLine</text>
</a>
</g>
</g>
<!-- Node147&#45;&gt;Node147 -->
<g id="edge2" class="edge">
<title>Node147&#45;&gt;Node147</title>
<path fill="none" stroke="#191970" d="M37.4798,-54.659C29.9998,-64.0566 40.3398,-73 68.5,-73 85.6601,-73 96.2029,-69.679 100.1285,-64.9579"/>
<polygon fill="#191970" stroke="#191970" points="103.6038,-64.4352 99.5202,-54.659 96.616,-64.848 103.6038,-64.4352"/>
</g>
<!-- Node148 -->
<g id="node2" class="node">
<title>Node148</title>
<g id="a_node2"><a xlink:href="../../d4/d7a/classhydrogen__framework_1_1Graph.html#a7eec182dc5d509ffef12e7b0f50802e7" target="_top" xlink:title=" ">
<polygon fill="none" stroke="#000000" points="173,-49.5 173,-79.5 322,-79.5 322,-49.5 173,-49.5"/>
<text text-anchor="start" x="181" y="-67.5" font-family="Helvetica,sans-Serif" font-size="10.00" fill="#000000">hydrogen_framework</text>
<text text-anchor="middle" x="247.5" y="-56.5" font-family="Helvetica,sans-Serif" font-size="10.00" fill="#000000">::Graph::getGraphFunctions</text>
</a>
</g>
</g>
<!-- Node147&#45;&gt;Node148 -->
<g id="edge1" class="edge">
<title>Node147&#45;&gt;Node148</title>
<path fill="none" stroke="#191970" d="M137.1941,-49.0942C145.556,-50.262 154.1743,-51.4657 162.7347,-52.6613"/>
<polygon fill="#191970" stroke="#191970" points="162.3503,-56.1415 172.7384,-54.0584 163.3187,-49.2088 162.3503,-56.1415"/>
</g>
<!-- Node149 -->
<g id="node3" class="node">
<title>Node149</title>
<g id="a_node3"><a xlink:href="../../d4/d7a/classhydrogen__framework_1_1Graph.html#a3e9e35a4f8633968db44f453ccee09b0" target="_top" xlink:title=" ">
<polygon fill="none" stroke="#000000" points="178,-.5 178,-30.5 317,-30.5 317,-.5 178,-.5"/>
<text text-anchor="start" x="186" y="-18.5" font-family="Helvetica,sans-Serif" font-size="10.00" fill="#000000">hydrogen_framework</text>
<text text-anchor="middle" x="247.5" y="-7.5" font-family="Helvetica,sans-Serif" font-size="10.00" fill="#000000">::Graph::getGraphVersion</text>
</a>
</g>
</g>
<!-- Node147&#45;&gt;Node149 -->
<g id="edge3" class="edge">
<title>Node147&#45;&gt;Node149</title>
<path fill="none" stroke="#191970" d="M137.1941,-30.2896C147.1766,-28.9512 157.5245,-27.5637 167.7031,-26.199"/>
<polygon fill="#191970" stroke="#191970" points="168.3592,-29.6425 177.8054,-24.8445 167.429,-22.7045 168.3592,-29.6425"/>
</g>
</g>
</svg>
