<?xml version="1.0" encoding="UTF-8" standalone="no"?>
<!DOCTYPE svg PUBLIC "-//W3C//DTD SVG 1.1//EN"
 "http://www.w3.org/Graphics/SVG/1.1/DTD/svg11.dtd">
<!-- Generated by graphviz version 2.40.1 (20161225.0304)
 -->
<!-- Title: hydrogen_framework::getGraphLineInstructionsAsString Pages: 1 -->
<svg width="365pt" height="68pt"
 viewBox="0.00 0.00 365.00 68.00" xmlns="http://www.w3.org/2000/svg" xmlns:xlink="http://www.w3.org/1999/xlink">
<g id="graph0" class="graph" transform="scale(1 1) rotate(0) translate(4 64)">
<title>hydrogen_framework::getGraphLineInstructionsAsString</title>
<!-- Node162 -->
<g id="node1" class="node">
<title>Node162</title>
<g id="a_node1"><a xlink:title=" ">
<polygon fill="#bfbfbf" stroke="#000000" points="0,-.5 0,-41.5 145,-41.5 145,-.5 0,-.5"/>
<text text-anchor="start" x="8" y="-29.5" font-family="Helvetica,sans-Serif" font-size="10.00" fill="#000000">hydrogen_framework</text>
<text text-anchor="start" x="8" y="-18.5" font-family="Helvetica,sans-Serif" font-size="10.00" fill="#000000">::getGraphLineInstructions</text>
<text text-anchor="middle" x="72.5" y="-7.5" font-family="Helvetica,sans-Serif" font-size="10.00" fill="#000000">AsString</text>
</a>
</g>
</g>
<!-- Node162&#45;&gt;Node162 -->
<g id="edge1" class="edge">
<title>Node162&#45;&gt;Node162</title>
<path fill="none" stroke="#191970" d="M36.4767,-41.8644C32.5469,-51.5433 44.5547,-60 72.5,-60 89.9658,-60 101.206,-56.6966 106.2206,-51.8561"/>
<polygon fill="#191970" stroke="#191970" points="109.6881,-52.395 108.5233,-41.8644 102.8669,-50.823 109.6881,-52.395"/>
</g>
<!-- Node163 -->
<g id="node2" class="node">
<title>Node163</title>
<g id="a_node2"><a xlink:href="../../d8/d0b/classhydrogen__framework_1_1Graph__Line.html#af0f712f66ed43d42a1daf4905b3ace16" target="_top" target="_top" xlink:title=" ">
<polygon fill="none" stroke="#000000" points="181,-6 181,-36 357,-36 357,-6 181,-6"/>
<text text-anchor="start" x="189" y="-24" font-family="Helvetica,sans-Serif" font-size="10.00" fill="#000000">hydrogen_framework</text>
<text text-anchor="middle" x="269" y="-13" font-family="Helvetica,sans-Serif" font-size="10.00" fill="#000000">::Graph_Line::getLineInstructions</text>
</a>
</g>
</g>
<!-- Node162&#45;&gt;Node163 -->
<g id="edge2" class="edge">
<title>Node162&#45;&gt;Node163</title>
<path fill="none" stroke="#191970" d="M145.1111,-21C153.4404,-21 162.0341,-21 170.6291,-21"/>
<polygon fill="#191970" stroke="#191970" points="170.7036,-24.5001 180.7036,-21 170.7035,-17.5001 170.7036,-24.5001"/>
</g>
</g>
</svg>
