<?xml version="1.0" encoding="UTF-8" standalone="no"?>
<!DOCTYPE svg PUBLIC "-//W3C//DTD SVG 1.1//EN"
 "http://www.w3.org/Graphics/SVG/1.1/DTD/svg11.dtd">
<!-- Generated by graphviz version 2.40.1 (0)
 -->
<!-- Title: hydrogen_framework::getEdgesForAddedLines Pages: 1 -->
<svg width="532pt" height="455pt"
 viewBox="0.00 0.00 532.00 454.50" xmlns="http://www.w3.org/2000/svg" xmlns:xlink="http://www.w3.org/1999/xlink">
<g id="graph0" class="graph" transform="scale(1 1) rotate(0) translate(4 450.5)">
<title>hydrogen_framework::getEdgesForAddedLines</title>
<!-- Node146 -->
<g id="node1" class="node">
<title>Node146</title>
<g id="a_node1"><a xlink:title=" ">
<polygon fill="#bfbfbf" stroke="#000000" points="0,-250.5 0,-280.5 139,-280.5 139,-250.5 0,-250.5"/>
<text text-anchor="start" x="8" y="-268.5" font-family="Helvetica,sans-Serif" font-size="10.00" fill="#000000">hydrogen_framework</text>
<text text-anchor="middle" x="69.5" y="-257.5" font-family="Helvetica,sans-Serif" font-size="10.00" fill="#000000">::getEdgesForAddedLines</text>
</a>
</g>
</g>
<!-- Node146&#45;&gt;Node146 -->
<g id="edge7" class="edge">
<title>Node146&#45;&gt;Node146</title>
<path fill="none" stroke="#191970" d="M37.7827,-280.659C30.1346,-290.0566 40.707,-299 69.5,-299 87.0457,-299 97.8254,-295.679 101.8392,-290.9579"/>
<polygon fill="#191970" stroke="#191970" points="105.3138,-290.4298 101.2173,-280.659 98.3265,-290.8518 105.3138,-290.4298"/>
</g>
<!-- Node147 -->
<g id="node2" class="node">
<title>Node147</title>
<g id="a_node2"><a xlink:href="../../d4/d7a/classhydrogen__framework_1_1Graph.html#ab2ca1cb2b3ca08c12139e86389d34038" target="_top" xlink:title=" ">
<polygon fill="none" stroke="#000000" points="192,-361.5 192,-391.5 313,-391.5 313,-361.5 192,-361.5"/>
<text text-anchor="start" x="200" y="-379.5" font-family="Helvetica,sans-Serif" font-size="10.00" fill="#000000">hydrogen_framework</text>
<text text-anchor="middle" x="252.5" y="-368.5" font-family="Helvetica,sans-Serif" font-size="10.00" fill="#000000">::Graph::addEdge</text>
</a>
</g>
</g>
<!-- Node146&#45;&gt;Node147 -->
<g id="edge1" class="edge">
<title>Node146&#45;&gt;Node147</title>
<path fill="none" stroke="#191970" d="M83.8497,-280.5209C102.9742,-299.7385 138.6489,-332.879 175,-352.5 178.2924,-354.2771 181.7359,-355.9438 185.2638,-357.5039"/>
<polygon fill="#191970" stroke="#191970" points="184.1726,-360.8391 194.7533,-361.3871 186.8238,-354.3605 184.1726,-360.8391"/>
</g>
<!-- Node150 -->
<g id="node5" class="node">
<title>Node150</title>
<g id="a_node5"><a xlink:href="../../db/d17/MVICFG_8cpp.html#ada0e47addc20cb09435186c57d5aa66a" target="_top" xlink:title=" ">
<polygon fill="none" stroke="#000000" points="192,-294.5 192,-324.5 313,-324.5 313,-294.5 192,-294.5"/>
<text text-anchor="start" x="200" y="-312.5" font-family="Helvetica,sans-Serif" font-size="10.00" fill="#000000">hydrogen_framework</text>
<text text-anchor="middle" x="252.5" y="-301.5" font-family="Helvetica,sans-Serif" font-size="10.00" fill="#000000">::getEdge</text>
</a>
</g>
</g>
<!-- Node146&#45;&gt;Node150 -->
<g id="edge4" class="edge">
<title>Node146&#45;&gt;Node150</title>
<path fill="none" stroke="#191970" d="M131.9664,-280.5192C148.0009,-284.3745 165.3625,-288.5489 181.7814,-292.4966"/>
<polygon fill="#191970" stroke="#191970" points="181.3213,-295.9857 191.8625,-294.9205 182.9578,-289.1796 181.3213,-295.9857"/>
</g>
<!-- Node151 -->
<g id="node6" class="node">
<title>Node151</title>
<g id="a_node6"><a xlink:href="../../da/df5/classhydrogen__framework_1_1Graph__Instruction.html#a56b37c9df4d67cf2dba65a843f792d03" target="_top" xlink:title=" ">
<polygon fill="none" stroke="#000000" points="384.5,-282 384.5,-323 505.5,-323 505.5,-282 384.5,-282"/>
<text text-anchor="start" x="392.5" y="-311" font-family="Helvetica,sans-Serif" font-size="10.00" fill="#000000">hydrogen_framework</text>
<text text-anchor="start" x="392.5" y="-300" font-family="Helvetica,sans-Serif" font-size="10.00" fill="#000000">::Graph_Instruction</text>
<text text-anchor="middle" x="445" y="-289" font-family="Helvetica,sans-Serif" font-size="10.00" fill="#000000">::getInstructionEdges</text>
</a>
</g>
</g>
<!-- Node146&#45;&gt;Node151 -->
<g id="edge9" class="edge">
<title>Node146&#45;&gt;Node151</title>
<path fill="none" stroke="#191970" d="M139.0066,-269.5067C191.554,-272.8581 265.4284,-278.2576 330,-285.5 344.3404,-287.1084 359.6411,-289.1445 374.2471,-291.2439"/>
<polygon fill="#191970" stroke="#191970" points="373.8264,-294.7195 384.2275,-292.703 374.839,-287.7932 373.8264,-294.7195"/>
</g>
<!-- Node152 -->
<g id="node7" class="node">
<title>Node152</title>
<g id="a_node7"><a xlink:href="../../d4/d7a/classhydrogen__framework_1_1Graph.html#a3e9e35a4f8633968db44f453ccee09b0" target="_top" xlink:title=" ">
<polygon fill="none" stroke="#000000" points="375.5,-219.5 375.5,-249.5 514.5,-249.5 514.5,-219.5 375.5,-219.5"/>
<text text-anchor="start" x="383.5" y="-237.5" font-family="Helvetica,sans-Serif" font-size="10.00" fill="#000000">hydrogen_framework</text>
<text text-anchor="middle" x="445" y="-226.5" font-family="Helvetica,sans-Serif" font-size="10.00" fill="#000000">::Graph::getGraphVersion</text>
</a>
</g>
</g>
<!-- Node146&#45;&gt;Node152 -->
<g id="edge8" class="edge">
<title>Node146&#45;&gt;Node152</title>
<path fill="none" stroke="#191970" d="M139.2229,-255.5565C151.1426,-254.0548 163.415,-252.632 175,-251.5 238.7864,-245.2671 311.2853,-240.8488 365.0856,-238.0815"/>
<polygon fill="#191970" stroke="#191970" points="365.4372,-241.5683 375.2474,-237.567 365.0831,-234.5773 365.4372,-241.5683"/>
</g>
<!-- Node153 -->
<g id="node8" class="node">
<title>Node153</title>
<g id="a_node8"><a xlink:href="../../db/d17/MVICFG_8cpp.html#ae8aa13258ce9819a72598738dcf54fb2" target="_top" xlink:title=" ">
<polygon fill="none" stroke="#000000" points="175,-135 175,-176 330,-176 330,-135 175,-135"/>
<text text-anchor="start" x="183" y="-164" font-family="Helvetica,sans-Serif" font-size="10.00" fill="#000000">hydrogen_framework</text>
<text text-anchor="start" x="183" y="-153" font-family="Helvetica,sans-Serif" font-size="10.00" fill="#000000">::getMatchedInstructionFrom</text>
<text text-anchor="middle" x="252.5" y="-142" font-family="Helvetica,sans-Serif" font-size="10.00" fill="#000000">Graph</text>
</a>
</g>
</g>
<!-- Node146&#45;&gt;Node153 -->
<g id="edge10" class="edge">
<title>Node146&#45;&gt;Node153</title>
<path fill="none" stroke="#191970" d="M94.5617,-250.4356C124.0706,-232.698 173.5816,-202.9373 209.3118,-181.4601"/>
<polygon fill="#191970" stroke="#191970" points="211.3106,-184.3423 218.0783,-176.1907 207.7043,-178.3428 211.3106,-184.3423"/>
</g>
<!-- Node148 -->
<g id="node3" class="node">
<title>Node148</title>
<g id="a_node3"><a xlink:href="../../da/df5/classhydrogen__framework_1_1Graph__Instruction.html#ade4352d83d22adfdfba4a5c45f3b7292" target="_top" xlink:title=" ">
<polygon fill="none" stroke="#000000" points="384,-405 384,-446 506,-446 506,-405 384,-405"/>
<text text-anchor="start" x="392" y="-434" font-family="Helvetica,sans-Serif" font-size="10.00" fill="#000000">hydrogen_framework</text>
<text text-anchor="start" x="392" y="-423" font-family="Helvetica,sans-Serif" font-size="10.00" fill="#000000">::Graph_Instruction</text>
<text text-anchor="middle" x="445" y="-412" font-family="Helvetica,sans-Serif" font-size="10.00" fill="#000000">::pushEdgeInstruction</text>
</a>
</g>
</g>
<!-- Node147&#45;&gt;Node148 -->
<g id="edge2" class="edge">
<title>Node147&#45;&gt;Node148</title>
<path fill="none" stroke="#191970" d="M311.5646,-391.5346C331.225,-396.5391 353.3316,-402.1662 373.8111,-407.3792"/>
<polygon fill="#191970" stroke="#191970" points="373.1618,-410.8254 383.7162,-409.9005 374.8886,-404.0418 373.1618,-410.8254"/>
</g>
<!-- Node149 -->
<g id="node4" class="node">
<title>Node149</title>
<g id="a_node4"><a xlink:href="../../d4/d7a/classhydrogen__framework_1_1Graph.html#a654ec603b3fb6fcaaabc1419a18e0b96" target="_top" xlink:title=" ">
<polygon fill="none" stroke="#000000" points="375,-355.5 375,-385.5 515,-385.5 515,-355.5 375,-355.5"/>
<text text-anchor="start" x="383" y="-373.5" font-family="Helvetica,sans-Serif" font-size="10.00" fill="#000000">hydrogen_framework</text>
<text text-anchor="middle" x="445" y="-362.5" font-family="Helvetica,sans-Serif" font-size="10.00" fill="#000000">::Graph::pushGraphEdges</text>
</a>
</g>
</g>
<!-- Node147&#45;&gt;Node149 -->
<g id="edge3" class="edge">
<title>Node147&#45;&gt;Node149</title>
<path fill="none" stroke="#191970" d="M313.144,-374.6098C329.5423,-374.0987 347.5458,-373.5375 364.8364,-372.9986"/>
<polygon fill="#191970" stroke="#191970" points="365.0309,-376.4943 374.917,-372.6844 364.8128,-369.4977 365.0309,-376.4943"/>
</g>
<!-- Node150&#45;&gt;Node150 -->
<g id="edge5" class="edge">
<title>Node150&#45;&gt;Node150</title>
<path fill="none" stroke="#191970" d="M220.7827,-324.659C213.1346,-334.0566 223.707,-343 252.5,-343 270.0457,-343 280.8254,-339.679 284.8392,-334.9579"/>
<polygon fill="#191970" stroke="#191970" points="288.3138,-334.4298 284.2173,-324.659 281.3265,-334.8518 288.3138,-334.4298"/>
</g>
<!-- Node150&#45;&gt;Node151 -->
<g id="edge6" class="edge">
<title>Node150&#45;&gt;Node151</title>
<path fill="none" stroke="#191970" d="M313.144,-307.2948C332.5652,-306.5885 354.238,-305.8004 374.3115,-305.0705"/>
<polygon fill="#191970" stroke="#191970" points="374.4641,-308.5674 384.3302,-304.7062 374.2096,-301.572 374.4641,-308.5674"/>
</g>
<!-- Node153&#45;&gt;Node152 -->
<g id="edge13" class="edge">
<title>Node153&#45;&gt;Node152</title>
<path fill="none" stroke="#191970" d="M291.2224,-176.1295C312.8544,-187.1768 340.5123,-200.5236 366,-210.5 371.089,-212.4919 376.4143,-214.4228 381.7928,-216.2667"/>
<polygon fill="#191970" stroke="#191970" points="380.8983,-219.6576 391.4917,-219.4862 383.1036,-213.014 380.8983,-219.6576"/>
</g>
<!-- Node153&#45;&gt;Node153 -->
<g id="edge16" class="edge">
<title>Node153&#45;&gt;Node153</title>
<path fill="none" stroke="#191970" d="M219.0498,-176.3644C215.4007,-186.0433 226.5508,-194.5 252.5,-194.5 268.7183,-194.5 279.1556,-191.1966 283.812,-186.3561"/>
<polygon fill="#191970" stroke="#191970" points="287.28,-186.8755 285.9502,-176.3644 280.435,-185.4106 287.28,-186.8755"/>
</g>
<!-- Node154 -->
<g id="node9" class="node">
<title>Node154</title>
<g id="a_node9"><a xlink:href="../../d4/d7a/classhydrogen__framework_1_1Graph.html#a7eec182dc5d509ffef12e7b0f50802e7" target="_top" xlink:title=" ">
<polygon fill="none" stroke="#000000" points="370.5,-170.5 370.5,-200.5 519.5,-200.5 519.5,-170.5 370.5,-170.5"/>
<text text-anchor="start" x="378.5" y="-188.5" font-family="Helvetica,sans-Serif" font-size="10.00" fill="#000000">hydrogen_framework</text>
<text text-anchor="middle" x="445" y="-177.5" font-family="Helvetica,sans-Serif" font-size="10.00" fill="#000000">::Graph::getGraphFunctions</text>
</a>
</g>
</g>
<!-- Node153&#45;&gt;Node154 -->
<g id="edge11" class="edge">
<title>Node153&#45;&gt;Node154</title>
<path fill="none" stroke="#191970" d="M330.2422,-167.6157C340.1813,-169.1646 350.394,-170.7562 360.4346,-172.321"/>
<polygon fill="#191970" stroke="#191970" points="359.9815,-175.7925 370.4012,-173.8742 361.0595,-168.876 359.9815,-175.7925"/>
</g>
<!-- Node155 -->
<g id="node10" class="node">
<title>Node155</title>
<g id="a_node10"><a xlink:href="../../da/df5/classhydrogen__framework_1_1Graph__Instruction.html#a1a44d9594f2492dd558c125e9d6038fd" target="_top" xlink:title=" ">
<polygon fill="none" stroke="#000000" points="384.5,-110 384.5,-151 505.5,-151 505.5,-110 384.5,-110"/>
<text text-anchor="start" x="392.5" y="-139" font-family="Helvetica,sans-Serif" font-size="10.00" fill="#000000">hydrogen_framework</text>
<text text-anchor="start" x="392.5" y="-128" font-family="Helvetica,sans-Serif" font-size="10.00" fill="#000000">::Graph_Instruction</text>
<text text-anchor="middle" x="445" y="-117" font-family="Helvetica,sans-Serif" font-size="10.00" fill="#000000">::getGraphLine</text>
</a>
</g>
</g>
<!-- Node153&#45;&gt;Node155 -->
<g id="edge12" class="edge">
<title>Node153&#45;&gt;Node155</title>
<path fill="none" stroke="#191970" d="M330.2422,-145.4036C344.7685,-143.5171 359.8793,-141.5546 374.1828,-139.697"/>
<polygon fill="#191970" stroke="#191970" points="374.9695,-143.1244 384.4354,-138.3655 374.0679,-136.1826 374.9695,-143.1244"/>
</g>
<!-- Node156 -->
<g id="node11" class="node">
<title>Node156</title>
<g id="a_node11"><a xlink:href="../../da/df5/classhydrogen__framework_1_1Graph__Instruction.html#ac3af98350f654c0a1902f4b882d581d1" target="_top" xlink:title=" ">
<polygon fill="none" stroke="#000000" points="384.5,-50 384.5,-91 505.5,-91 505.5,-50 384.5,-50"/>
<text text-anchor="start" x="392.5" y="-79" font-family="Helvetica,sans-Serif" font-size="10.00" fill="#000000">hydrogen_framework</text>
<text text-anchor="start" x="392.5" y="-68" font-family="Helvetica,sans-Serif" font-size="10.00" fill="#000000">::Graph_Instruction</text>
<text text-anchor="middle" x="445" y="-57" font-family="Helvetica,sans-Serif" font-size="10.00" fill="#000000">::getInstructionPtr</text>
</a>
</g>
</g>
<!-- Node153&#45;&gt;Node156 -->
<g id="edge14" class="edge">
<title>Node153&#45;&gt;Node156</title>
<path fill="none" stroke="#191970" d="M292.8104,-134.8929C314.3215,-124.1702 341.3688,-111.1201 366,-100.5 370.3995,-98.6031 374.962,-96.702 379.5745,-94.8286"/>
<polygon fill="#191970" stroke="#191970" points="381.0883,-97.9928 389.076,-91.0324 378.4911,-91.4925 381.0883,-97.9928"/>
</g>
<!-- Node157 -->
<g id="node12" class="node">
<title>Node157</title>
<g id="a_node12"><a xlink:href="../../d8/d0b/classhydrogen__framework_1_1Graph__Line.html#ae6ad83ec04c972e87856c267d61ba6f5" target="_top" xlink:title=" ">
<polygon fill="none" stroke="#000000" points="366,-.5 366,-30.5 524,-30.5 524,-.5 366,-.5"/>
<text text-anchor="start" x="374" y="-18.5" font-family="Helvetica,sans-Serif" font-size="10.00" fill="#000000">hydrogen_framework</text>
<text text-anchor="middle" x="445" y="-7.5" font-family="Helvetica,sans-Serif" font-size="10.00" fill="#000000">::Graph_Line::getLineNumber</text>
</a>
</g>
</g>
<!-- Node153&#45;&gt;Node157 -->
<g id="edge15" class="edge">
<title>Node153&#45;&gt;Node157</title>
<path fill="none" stroke="#191970" d="M267.8486,-134.616C287.7577,-108.9419 324.8471,-65.6871 366,-40.5 369.4222,-38.4055 373.0364,-36.4707 376.7601,-34.6855"/>
<polygon fill="#191970" stroke="#191970" points="378.4407,-37.7704 386.1951,-30.5509 375.6311,-31.359 378.4407,-37.7704"/>
</g>
</g>
</svg>
