<?xml version="1.0" encoding="UTF-8" standalone="no"?>
<!DOCTYPE svg PUBLIC "-//W3C//DTD SVG 1.1//EN"
 "http://www.w3.org/Graphics/SVG/1.1/DTD/svg11.dtd">
<!-- Generated by graphviz version 2.40.1 (0)
 -->
<!-- Title: hydrogen_framework::matchedInMVICFG Pages: 1 -->
<!--zoomable 1111 -->
<svg id="main" version="1.1" xmlns="http://www.w3.org/2000/svg" xmlns:xlink="http://www.w3.org/1999/xlink" xml:space="preserve" onload="init(evt)">
<style type="text/css"><![CDATA[
.edge:hover path { stroke: red; }
.edge:hover polygon { stroke: red; fill: red; }
]]></style>
<script type="text/javascript"><![CDATA[
var edges = document.getElementsByTagName('g');
if (edges && edges.length) {
  for (var i=0;i<edges.length;i++) {
    if (edges[i].id.substr(0,4)=='edge') {
      edges[i].setAttribute('class','edge');
    }
  }
}
]]></script>
        <defs>
                <circle id="rim" cx="0" cy="0" r="7"/>
                <circle id="rim2" cx="0" cy="0" r="3.5"/>
                <g id="zoomPlus">
                        <use xlink:href="#rim" fill="#404040">
                                <set attributeName="fill" to="#808080" begin="zoomplus.mouseover" end="zoomplus.mouseout"/>
                        </use>
                        <path d="M-4,0h8M0,-4v8" fill="none" stroke="white" stroke-width="1.5" pointer-events="none"/>
                </g>
                <g id="zoomMin">
                        <use xlink:href="#rim" fill="#404040">
                                <set attributeName="fill" to="#808080" begin="zoomminus.mouseover" end="zoomminus.mouseout"/>
                        </use>
                        <path d="M-4,0h8" fill="none" stroke="white" stroke-width="1.5" pointer-events="none"/>
                </g>
                <g id="dirArrow">
                        <path fill="none" stroke="white" stroke-width="1.5" d="M0,-3.0v7 M-2.5,-0.5L0,-3.0L2.5,-0.5"/>
                </g>
               <g id="resetDef">
                       <use xlink:href="#rim2" fill="#404040">
                               <set attributeName="fill" to="#808080" begin="reset.mouseover" end="reset.mouseout"/>
                       </use>
               </g>
        </defs>

<script type="text/javascript">
var viewWidth = 972;
var viewHeight = 1111;
var sectionId = 'dynsection-29';
</script>
<script xlink:href="../../svgpan.js"/>
<svg id="graph" class="graph">
<g id="viewport">
<title>hydrogen_framework::matchedInMVICFG</title>
<!-- Node221 -->
<g id="node1" class="node">
<title>Node221</title>
<g id="a_node1"><a xlink:title=" ">
<polygon fill="#bfbfbf" stroke="#000000" points="0,-319.5 0,-349.5 121,-349.5 121,-319.5 0,-319.5"/>
<text text-anchor="start" x="8" y="-337.5" font-family="Helvetica,sans-Serif" font-size="10.00" fill="#000000">hydrogen_framework</text>
<text text-anchor="middle" x="60.5" y="-326.5" font-family="Helvetica,sans-Serif" font-size="10.00" fill="#000000">::matchedInMVICFG</text>
</a>
</g>
</g>
<!-- Node221&#45;&gt;Node221 -->
<g id="edge45" class="edge">
<title>Node221&#45;&gt;Node221</title>
<path fill="none" stroke="#191970" d="M28.4342,-349.659C20.702,-359.0566 31.3906,-368 60.5,-368 78.2385,-368 89.1367,-364.679 93.1946,-359.9579"/>
<polygon fill="#191970" stroke="#191970" points="96.6688,-359.4271 92.5658,-349.659 89.6818,-359.8537 96.6688,-359.4271"/>
</g>
<!-- Node222 -->
<g id="node2" class="node">
<title>Node222</title>
<g id="a_node2"><a xlink:href="../../db/d17/MVICFG_8cpp.html#aca7226f27a892ce8314159fbd4eaeeb1" target="_top" xlink:title=" ">
<polygon fill="none" stroke="#000000" points="184.5,-743.5 184.5,-773.5 305.5,-773.5 305.5,-743.5 184.5,-743.5"/>
<text text-anchor="start" x="192.5" y="-761.5" font-family="Helvetica,sans-Serif" font-size="10.00" fill="#000000">hydrogen_framework</text>
<text text-anchor="middle" x="245" y="-750.5" font-family="Helvetica,sans-Serif" font-size="10.00" fill="#000000">::findMatchedLine</text>
</a>
</g>
</g>
<!-- Node221&#45;&gt;Node222 -->
<g id="edge1" class="edge">
<title>Node221&#45;&gt;Node222</title>
<path fill="none" stroke="#191970" d="M67.0665,-349.5904C94.4662,-412.5579 199.8446,-654.7283 234.143,-733.5495"/>
<polygon fill="#191970" stroke="#191970" points="231.12,-735.3744 238.3194,-743.1473 237.5387,-732.5813 231.12,-735.3744"/>
</g>
<!-- Node225 -->
<g id="node5" class="node">
<title>Node225</title>
<g id="a_node5"><a xlink:href="../../d0/d21/classhydrogen__framework_1_1Diff__Mapping.html#aa478ea59c018a81e417a816d10ceb9fe" target="_top" xlink:title=" ">
<polygon fill="none" stroke="#000000" points="386.5,-1072.5 386.5,-1102.5 540.5,-1102.5 540.5,-1072.5 386.5,-1072.5"/>
<text text-anchor="start" x="394.5" y="-1090.5" font-family="Helvetica,sans-Serif" font-size="10.00" fill="#000000">hydrogen_framework</text>
<text text-anchor="middle" x="463.5" y="-1079.5" font-family="Helvetica,sans-Serif" font-size="10.00" fill="#000000">::Diff_Mapping::getFileName</text>
</a>
</g>
</g>
<!-- Node221&#45;&gt;Node225 -->
<g id="edge23" class="edge">
<title>Node221&#45;&gt;Node225</title>
<path fill="none" stroke="#191970" d="M61.0824,-349.8041C63.8971,-410.1244 79.3637,-636.1524 157,-800.5 221.1278,-936.2515 242.6435,-982.4144 369,-1063.5 371.6222,-1065.1827 374.3558,-1066.7475 377.1713,-1068.2026"/>
<polygon fill="#191970" stroke="#191970" points="375.8611,-1071.4531 386.4053,-1072.487 378.8072,-1065.1032 375.8611,-1071.4531"/>
</g>
<!-- Node231 -->
<g id="node11" class="node">
<title>Node231</title>
<g id="a_node11"><a xlink:href="../../d8/d0b/classhydrogen__framework_1_1Graph__Line.html#af0f712f66ed43d42a1daf4905b3ace16" target="_top" xlink:title=" ">
<polygon fill="none" stroke="#000000" points="788,-312.5 788,-342.5 964,-342.5 964,-312.5 788,-312.5"/>
<text text-anchor="start" x="796" y="-330.5" font-family="Helvetica,sans-Serif" font-size="10.00" fill="#000000">hydrogen_framework</text>
<text text-anchor="middle" x="876" y="-319.5" font-family="Helvetica,sans-Serif" font-size="10.00" fill="#000000">::Graph_Line::getLineInstructions</text>
</a>
</g>
</g>
<!-- Node221&#45;&gt;Node231 -->
<g id="edge34" class="edge">
<title>Node221&#45;&gt;Node231</title>
<path fill="none" stroke="#191970" d="M71.4782,-319.2026C87.5068,-298.3365 119.5201,-261.9008 157,-247.5 397.9409,-154.9237 715.3966,-262.5389 831.2453,-308.5889"/>
<polygon fill="#191970" stroke="#191970" points="830.2703,-311.9691 840.8541,-312.452 832.8815,-305.4743 830.2703,-311.9691"/>
</g>
<!-- Node232 -->
<g id="node12" class="node">
<title>Node232</title>
<g id="a_node12"><a xlink:href="../../d4/d7a/classhydrogen__framework_1_1Graph.html#a3e9e35a4f8633968db44f453ccee09b0" target="_top" xlink:title=" ">
<polygon fill="none" stroke="#000000" points="394,-491.5 394,-521.5 533,-521.5 533,-491.5 394,-491.5"/>
<text text-anchor="start" x="402" y="-509.5" font-family="Helvetica,sans-Serif" font-size="10.00" fill="#000000">hydrogen_framework</text>
<text text-anchor="middle" x="463.5" y="-498.5" font-family="Helvetica,sans-Serif" font-size="10.00" fill="#000000">::Graph::getGraphVersion</text>
</a>
</g>
</g>
<!-- Node221&#45;&gt;Node232 -->
<g id="edge28" class="edge">
<title>Node221&#45;&gt;Node232</title>
<path fill="none" stroke="#191970" d="M78.7962,-349.5626C97.55,-364.4655 127.9938,-387.204 157,-402.5 232.724,-442.4319 326.8698,-471.6685 390.6926,-488.7973"/>
<polygon fill="#191970" stroke="#191970" points="390.1049,-492.2624 400.6679,-491.4422 391.8989,-485.4962 390.1049,-492.2624"/>
</g>
<!-- Node236 -->
<g id="node16" class="node">
<title>Node236</title>
<g id="a_node16"><a xlink:href="../../db/d17/MVICFG_8cpp.html#ada0e47addc20cb09435186c57d5aa66a" target="_top" xlink:title=" ">
<polygon fill="none" stroke="#000000" points="403,-290.5 403,-320.5 524,-320.5 524,-290.5 403,-290.5"/>
<text text-anchor="start" x="411" y="-308.5" font-family="Helvetica,sans-Serif" font-size="10.00" fill="#000000">hydrogen_framework</text>
<text text-anchor="middle" x="463.5" y="-297.5" font-family="Helvetica,sans-Serif" font-size="10.00" fill="#000000">::getEdge</text>
</a>
</g>
</g>
<!-- Node221&#45;&gt;Node236 -->
<g id="edge20" class="edge">
<title>Node221&#45;&gt;Node236</title>
<path fill="none" stroke="#191970" d="M121.2695,-330.127C194.081,-324.8875 315.8591,-316.1243 392.8106,-310.5868"/>
<polygon fill="#191970" stroke="#191970" points="393.173,-314.0699 402.896,-309.8611 392.6705,-307.088 393.173,-314.0699"/>
</g>
<!-- Node238 -->
<g id="node18" class="node">
<title>Node238</title>
<g id="a_node18"><a xlink:href="../../db/d17/MVICFG_8cpp.html#af4e85a6116ecbc77986b2e11a8077e9d" target="_top" xlink:title=" ">
<polygon fill="none" stroke="#000000" points="174,-491.5 174,-521.5 316,-521.5 316,-491.5 174,-491.5"/>
<text text-anchor="start" x="182" y="-509.5" font-family="Helvetica,sans-Serif" font-size="10.00" fill="#000000">hydrogen_framework</text>
<text text-anchor="middle" x="245" y="-498.5" font-family="Helvetica,sans-Serif" font-size="10.00" fill="#000000">::getGraphLinesGivenLine</text>
</a>
</g>
</g>
<!-- Node221&#45;&gt;Node238 -->
<g id="edge24" class="edge">
<title>Node221&#45;&gt;Node238</title>
<path fill="none" stroke="#191970" d="M67.2321,-349.7232C80.4627,-377.991 112.4878,-438.857 157,-473.5 163.9231,-478.8881 171.8198,-483.4686 179.9758,-487.343"/>
<polygon fill="#191970" stroke="#191970" points="178.6932,-490.6024 189.2563,-491.4228 181.5103,-484.1943 178.6932,-490.6024"/>
</g>
<!-- Node239 -->
<g id="node19" class="node">
<title>Node239</title>
<g id="a_node19"><a xlink:href="../../db/d17/MVICFG_8cpp.html#a8c55b276e33d536dd4b0e230b5be7308" target="_top" xlink:title=" ">
<polygon fill="none" stroke="#000000" points="184.5,-257.5 184.5,-287.5 305.5,-287.5 305.5,-257.5 184.5,-257.5"/>
<text text-anchor="start" x="192.5" y="-275.5" font-family="Helvetica,sans-Serif" font-size="10.00" fill="#000000">hydrogen_framework</text>
<text text-anchor="middle" x="245" y="-264.5" font-family="Helvetica,sans-Serif" font-size="10.00" fill="#000000">::getInBetweenEdge</text>
</a>
</g>
</g>
<!-- Node221&#45;&gt;Node239 -->
<g id="edge29" class="edge">
<title>Node221&#45;&gt;Node239</title>
<path fill="none" stroke="#191970" d="M105.1623,-319.4915C130.8076,-310.8736 163.2097,-299.9851 190.3647,-290.8598"/>
<polygon fill="#191970" stroke="#191970" points="191.7453,-294.0883 200.1095,-287.5851 189.5155,-287.4529 191.7453,-294.0883"/>
</g>
<!-- Node240 -->
<g id="node20" class="node">
<title>Node240</title>
<g id="a_node20"><a xlink:href="../../da/df5/classhydrogen__framework_1_1Graph__Instruction.html#a1326a74a34cfc25f47a1e60e5e0ef2b0" target="_top" xlink:title=" ">
<polygon fill="none" stroke="#000000" points="184.5,-159 184.5,-200 305.5,-200 305.5,-159 184.5,-159"/>
<text text-anchor="start" x="192.5" y="-188" font-family="Helvetica,sans-Serif" font-size="10.00" fill="#000000">hydrogen_framework</text>
<text text-anchor="start" x="192.5" y="-177" font-family="Helvetica,sans-Serif" font-size="10.00" fill="#000000">::Graph_Instruction</text>
<text text-anchor="middle" x="245" y="-166" font-family="Helvetica,sans-Serif" font-size="10.00" fill="#000000">::getInstructionLabel</text>
</a>
</g>
</g>
<!-- Node221&#45;&gt;Node240 -->
<g id="edge33" class="edge">
<title>Node221&#45;&gt;Node240</title>
<path fill="none" stroke="#191970" d="M69.227,-319.1155C84.1823,-294.0003 116.9981,-244.0372 157,-214.5 162.5098,-210.4316 168.5565,-206.7605 174.8195,-203.4651"/>
<polygon fill="#191970" stroke="#191970" points="176.6784,-206.4517 184.113,-198.9034 173.5939,-200.1679 176.6784,-206.4517"/>
</g>
<!-- Node241 -->
<g id="node21" class="node">
<title>Node241</title>
<g id="a_node21"><a xlink:href="../../d0/d21/classhydrogen__framework_1_1Diff__Mapping.html#a11135a89cdee7b239f378fdd01838f8a" target="_top" xlink:title=" ">
<polygon fill="none" stroke="#000000" points="170.5,-99 170.5,-140 319.5,-140 319.5,-99 170.5,-99"/>
<text text-anchor="start" x="178.5" y="-128" font-family="Helvetica,sans-Serif" font-size="10.00" fill="#000000">hydrogen_framework</text>
<text text-anchor="start" x="178.5" y="-117" font-family="Helvetica,sans-Serif" font-size="10.00" fill="#000000">::Diff_Mapping::getMatched</text>
<text text-anchor="middle" x="245" y="-106" font-family="Helvetica,sans-Serif" font-size="10.00" fill="#000000">Lines</text>
</a>
</g>
</g>
<!-- Node221&#45;&gt;Node241 -->
<g id="edge35" class="edge">
<title>Node221&#45;&gt;Node241</title>
<path fill="none" stroke="#191970" d="M64.2274,-319.3799C73.6304,-284.3565 101.6103,-197.0395 157,-149.5 158.5157,-148.1991 160.0906,-146.9538 161.7153,-145.7619"/>
<polygon fill="#191970" stroke="#191970" points="163.7367,-148.6223 170.2111,-140.2358 159.9199,-142.7544 163.7367,-148.6223"/>
</g>
<!-- Node242 -->
<g id="node22" class="node">
<title>Node242</title>
<g id="a_node22"><a xlink:href="../../db/d17/MVICFG_8cpp.html#ae3d8d56d8de87926a4b050f28a5a1fe1" target="_top" xlink:title=" ">
<polygon fill="none" stroke="#000000" points="394.5,-424.5 394.5,-454.5 532.5,-454.5 532.5,-424.5 394.5,-424.5"/>
<text text-anchor="start" x="402.5" y="-442.5" font-family="Helvetica,sans-Serif" font-size="10.00" fill="#000000">hydrogen_framework</text>
<text text-anchor="middle" x="463.5" y="-431.5" font-family="Helvetica,sans-Serif" font-size="10.00" fill="#000000">::getPredGivenGraphLine</text>
</a>
</g>
</g>
<!-- Node221&#45;&gt;Node242 -->
<g id="edge36" class="edge">
<title>Node221&#45;&gt;Node242</title>
<path fill="none" stroke="#191970" d="M104.9726,-349.5452C121.2598,-354.8541 139.8897,-360.6933 157,-365.5 233.8792,-387.0973 322.6665,-408.1097 384.8266,-422.1907"/>
<polygon fill="#191970" stroke="#191970" points="384.4285,-425.6889 394.9538,-424.4769 385.97,-418.8607 384.4285,-425.6889"/>
</g>
<!-- Node243 -->
<g id="node23" class="node">
<title>Node243</title>
<g id="a_node23"><a xlink:href="../../db/d17/MVICFG_8cpp.html#aea56e0949bba61be541008db2bd160a6" target="_top" xlink:title=" ">
<polygon fill="none" stroke="#000000" points="394,-357.5 394,-387.5 533,-387.5 533,-357.5 394,-357.5"/>
<text text-anchor="start" x="402" y="-375.5" font-family="Helvetica,sans-Serif" font-size="10.00" fill="#000000">hydrogen_framework</text>
<text text-anchor="middle" x="463.5" y="-364.5" font-family="Helvetica,sans-Serif" font-size="10.00" fill="#000000">::getSuccGivenGraphLine</text>
</a>
</g>
</g>
<!-- Node221&#45;&gt;Node243 -->
<g id="edge40" class="edge">
<title>Node221&#45;&gt;Node243</title>
<path fill="none" stroke="#191970" d="M121.2695,-340.2301C191.2401,-346.8279 306.4307,-357.6895 383.6041,-364.9664"/>
<polygon fill="#191970" stroke="#191970" points="383.4771,-368.4699 393.7615,-365.9242 384.1342,-361.5008 383.4771,-368.4699"/>
</g>
<!-- Node244 -->
<g id="node24" class="node">
<title>Node244</title>
<g id="a_node24"><a xlink:href="../../d2/d64/classhydrogen__framework_1_1Graph__Edge.html#aec36a6939daf95cc445ced75df1dad71" target="_top" xlink:title=" ">
<polygon fill="none" stroke="#000000" points="167.5,-49.5 167.5,-79.5 322.5,-79.5 322.5,-49.5 167.5,-49.5"/>
<text text-anchor="start" x="175.5" y="-67.5" font-family="Helvetica,sans-Serif" font-size="10.00" fill="#000000">hydrogen_framework</text>
<text text-anchor="middle" x="245" y="-56.5" font-family="Helvetica,sans-Serif" font-size="10.00" fill="#000000">::Graph_Edge::isPartOfGraph</text>
</a>
</g>
</g>
<!-- Node221&#45;&gt;Node244 -->
<g id="edge44" class="edge">
<title>Node221&#45;&gt;Node244</title>
<path fill="none" stroke="#191970" d="M61.9042,-319.2453C66.6833,-276.3542 86.1981,-153.6553 157,-89.5 158.7213,-87.9403 160.5331,-86.4773 162.4194,-85.1048"/>
<polygon fill="#191970" stroke="#191970" points="164.5059,-87.9277 171.1186,-79.6498 160.7871,-81.9973 164.5059,-87.9277"/>
</g>
<!-- Node245 -->
<g id="node25" class="node">
<title>Node245</title>
<g id="a_node25"><a xlink:href="../../d2/d64/classhydrogen__framework_1_1Graph__Edge.html#af1060c9ed4a1ac9f3c7bf11231bcdb30" target="_top" xlink:title=" ">
<polygon fill="none" stroke="#000000" points="157,-.5 157,-30.5 333,-30.5 333,-.5 157,-.5"/>
<text text-anchor="start" x="165" y="-18.5" font-family="Helvetica,sans-Serif" font-size="10.00" fill="#000000">hydrogen_framework</text>
<text text-anchor="middle" x="245" y="-7.5" font-family="Helvetica,sans-Serif" font-size="10.00" fill="#000000">::Graph_Edge::pushEdgeVersions</text>
</a>
</g>
</g>
<!-- Node221&#45;&gt;Node245 -->
<g id="edge46" class="edge">
<title>Node221&#45;&gt;Node245</title>
<path fill="none" stroke="#191970" d="M63.5104,-319.2311C74.5723,-264.5904 114.5422,-79.8905 157,-39.5 158.1115,-38.4426 159.2649,-37.4309 160.4554,-36.4629"/>
<polygon fill="#191970" stroke="#191970" points="162.5693,-39.2564 168.8012,-30.6882 158.5863,-33.5 162.5693,-39.2564"/>
</g>
<!-- Node222&#45;&gt;Node222 -->
<g id="edge2" class="edge">
<title>Node222&#45;&gt;Node222</title>
<path fill="none" stroke="#191970" d="M212.9342,-773.659C205.202,-783.0566 215.8906,-792 245,-792 262.7385,-792 273.6367,-788.679 277.6946,-783.9579"/>
<polygon fill="#191970" stroke="#191970" points="281.1688,-783.4271 277.0658,-773.659 274.1818,-783.8537 281.1688,-783.4271"/>
</g>
<!-- Node223 -->
<g id="node3" class="node">
<title>Node223</title>
<g id="a_node3"><a xlink:href="../../d0/d21/classhydrogen__framework_1_1Diff__Mapping.html#a4326f5b36e7bc06e3fd4410d399d6c41" target="_top" xlink:title=" ">
<polygon fill="none" stroke="#000000" points="387.5,-816 387.5,-857 539.5,-857 539.5,-816 387.5,-816"/>
<text text-anchor="start" x="395.5" y="-845" font-family="Helvetica,sans-Serif" font-size="10.00" fill="#000000">hydrogen_framework</text>
<text text-anchor="start" x="395.5" y="-834" font-family="Helvetica,sans-Serif" font-size="10.00" fill="#000000">::Diff_Mapping::getAfterLine</text>
<text text-anchor="middle" x="463.5" y="-823" font-family="Helvetica,sans-Serif" font-size="10.00" fill="#000000">Number</text>
</a>
</g>
</g>
<!-- Node222&#45;&gt;Node223 -->
<g id="edge3" class="edge">
<title>Node222&#45;&gt;Node223</title>
<path fill="none" stroke="#191970" d="M282.217,-773.6C306.7274,-783.3726 339.6031,-796.1553 369,-806.5 374.9139,-808.5811 381.0578,-810.6772 387.2466,-812.7421"/>
<polygon fill="#191970" stroke="#191970" points="386.3891,-816.1447 396.9822,-815.9544 388.5825,-809.4972 386.3891,-816.1447"/>
</g>
<!-- Node224 -->
<g id="node4" class="node">
<title>Node224</title>
<g id="a_node4"><a xlink:href="../../d0/d21/classhydrogen__framework_1_1Diff__Mapping.html#ae9f45495f5f3d03365cb9303424503e7" target="_top" xlink:title=" ">
<polygon fill="none" stroke="#000000" points="383,-678 383,-719 544,-719 544,-678 383,-678"/>
<text text-anchor="start" x="391" y="-707" font-family="Helvetica,sans-Serif" font-size="10.00" fill="#000000">hydrogen_framework</text>
<text text-anchor="start" x="391" y="-696" font-family="Helvetica,sans-Serif" font-size="10.00" fill="#000000">::Diff_Mapping::getBeforeLine</text>
<text text-anchor="middle" x="463.5" y="-685" font-family="Helvetica,sans-Serif" font-size="10.00" fill="#000000">Number</text>
</a>
</g>
</g>
<!-- Node222&#45;&gt;Node224 -->
<g id="edge4" class="edge">
<title>Node222&#45;&gt;Node224</title>
<path fill="none" stroke="#191970" d="M299.8547,-743.4369C323.8359,-736.8517 352.5116,-728.9774 379.111,-721.6732"/>
<polygon fill="#191970" stroke="#191970" points="380.0881,-725.0345 388.8043,-719.0114 378.2344,-718.2844 380.0881,-725.0345"/>
</g>
<!-- Node222&#45;&gt;Node225 -->
<g id="edge5" class="edge">
<title>Node222&#45;&gt;Node225</title>
<path fill="none" stroke="#191970" d="M253.4381,-773.6024C270.2736,-804.1793 308.5175,-875.9162 333,-939.5 353.6206,-993.054 327.7406,-1023.6139 369,-1063.5 371.5728,-1065.9872 374.3652,-1068.2273 377.3232,-1070.2441"/>
<polygon fill="#191970" stroke="#191970" points="375.6557,-1073.3235 386.0537,-1075.3565 379.193,-1067.283 375.6557,-1073.3235"/>
</g>
<!-- Node226 -->
<g id="node6" class="node">
<title>Node226</title>
<g id="a_node6"><a xlink:href="../../dc/d7a/classhydrogen__framework_1_1Graph__Function.html#a6a9a8a2315e726618c6546d55bea6ba5" target="_top" xlink:title=" ">
<polygon fill="none" stroke="#000000" points="375.5,-628.5 375.5,-658.5 551.5,-658.5 551.5,-628.5 375.5,-628.5"/>
<text text-anchor="start" x="383.5" y="-646.5" font-family="Helvetica,sans-Serif" font-size="10.00" fill="#000000">hydrogen_framework</text>
<text text-anchor="middle" x="463.5" y="-635.5" font-family="Helvetica,sans-Serif" font-size="10.00" fill="#000000">::Graph_Function::getFunctionFile</text>
</a>
</g>
</g>
<!-- Node222&#45;&gt;Node226 -->
<g id="edge6" class="edge">
<title>Node222&#45;&gt;Node226</title>
<path fill="none" stroke="#191970" d="M261.7562,-743.1672C284.4433,-723.1904 326.9473,-688.4638 369,-668.5 374.0304,-666.1119 379.3238,-663.9253 384.7301,-661.9277"/>
<polygon fill="#191970" stroke="#191970" points="386.2427,-665.1081 394.5509,-658.5335 383.9562,-658.4921 386.2427,-665.1081"/>
</g>
<!-- Node227 -->
<g id="node7" class="node">
<title>Node227</title>
<g id="a_node7"><a xlink:href="../../dc/d7a/classhydrogen__framework_1_1Graph__Function.html#a014d9adac948494beaa418a2a5e3e002" target="_top" xlink:title=" ">
<polygon fill="none" stroke="#000000" points="369,-1023.5 369,-1053.5 558,-1053.5 558,-1023.5 369,-1023.5"/>
<text text-anchor="start" x="377" y="-1041.5" font-family="Helvetica,sans-Serif" font-size="10.00" fill="#000000">hydrogen_framework</text>
<text text-anchor="middle" x="463.5" y="-1030.5" font-family="Helvetica,sans-Serif" font-size="10.00" fill="#000000">::Graph_Function::getFunctionName</text>
</a>
</g>
</g>
<!-- Node222&#45;&gt;Node227 -->
<g id="edge7" class="edge">
<title>Node222&#45;&gt;Node227</title>
<path fill="none" stroke="#191970" d="M252.3268,-773.5052C267.452,-804.4956 303.2101,-877.8348 333,-939.5 349.0836,-972.7931 340.3895,-991.0788 369,-1014.5 370.5718,-1015.7867 372.2038,-1017.0055 373.887,-1018.1599"/>
<polygon fill="#191970" stroke="#191970" points="372.3069,-1021.2928 382.6876,-1023.4122 375.8943,-1015.2819 372.3069,-1021.2928"/>
</g>
<!-- Node228 -->
<g id="node8" class="node">
<title>Node228</title>
<g id="a_node8"><a xlink:href="../../d8/d0b/classhydrogen__framework_1_1Graph__Line.html#a8f3052170907f9eb0a6e2a4ea0ba7f5d" target="_top" xlink:title=" ">
<polygon fill="none" stroke="#000000" points="379,-974.5 379,-1004.5 548,-1004.5 548,-974.5 379,-974.5"/>
<text text-anchor="start" x="387" y="-992.5" font-family="Helvetica,sans-Serif" font-size="10.00" fill="#000000">hydrogen_framework</text>
<text text-anchor="middle" x="463.5" y="-981.5" font-family="Helvetica,sans-Serif" font-size="10.00" fill="#000000">::Graph_Line::getGraphFunction</text>
</a>
</g>
</g>
<!-- Node222&#45;&gt;Node228 -->
<g id="edge8" class="edge">
<title>Node222&#45;&gt;Node228</title>
<path fill="none" stroke="#191970" d="M252.5886,-773.6717C273.949,-815.8498 335.2226,-933.1379 369,-959.5 374.2879,-963.627 380.1556,-967.1927 386.3041,-970.2724"/>
<polygon fill="#191970" stroke="#191970" points="384.9267,-973.4909 395.4785,-974.4454 387.825,-967.119 384.9267,-973.4909"/>
</g>
<!-- Node229 -->
<g id="node9" class="node">
<title>Node229</title>
<g id="a_node9"><a xlink:href="../../d4/d7a/classhydrogen__framework_1_1Graph.html#a7eec182dc5d509ffef12e7b0f50802e7" target="_top" xlink:title=" ">
<polygon fill="none" stroke="#000000" points="389,-540.5 389,-570.5 538,-570.5 538,-540.5 389,-540.5"/>
<text text-anchor="start" x="397" y="-558.5" font-family="Helvetica,sans-Serif" font-size="10.00" fill="#000000">hydrogen_framework</text>
<text text-anchor="middle" x="463.5" y="-547.5" font-family="Helvetica,sans-Serif" font-size="10.00" fill="#000000">::Graph::getGraphFunctions</text>
</a>
</g>
</g>
<!-- Node222&#45;&gt;Node229 -->
<g id="edge9" class="edge">
<title>Node222&#45;&gt;Node229</title>
<path fill="none" stroke="#191970" d="M251.7375,-743.2699C267.3649,-709.6863 309.351,-628.8225 369,-585.5 374.6145,-581.4223 380.804,-577.8849 387.2484,-574.8187"/>
<polygon fill="#191970" stroke="#191970" points="389.0567,-577.8493 396.835,-570.6557 386.2684,-571.4286 389.0567,-577.8493"/>
</g>
<!-- Node230 -->
<g id="node10" class="node">
<title>Node230</title>
<g id="a_node10"><a xlink:href="../../db/d17/MVICFG_8cpp.html#a107ab967667e37747c5b7687e6baccec" target="_top" xlink:title=" ">
<polygon fill="none" stroke="#000000" points="600.5,-579 600.5,-620 745.5,-620 745.5,-579 600.5,-579"/>
<text text-anchor="start" x="608.5" y="-608" font-family="Helvetica,sans-Serif" font-size="10.00" fill="#000000">hydrogen_framework</text>
<text text-anchor="start" x="608.5" y="-597" font-family="Helvetica,sans-Serif" font-size="10.00" fill="#000000">::getGraphLineInstructions</text>
<text text-anchor="middle" x="673" y="-586" font-family="Helvetica,sans-Serif" font-size="10.00" fill="#000000">AsString</text>
</a>
</g>
</g>
<!-- Node222&#45;&gt;Node230 -->
<g id="edge10" class="edge">
<title>Node222&#45;&gt;Node230</title>
<path fill="none" stroke="#191970" d="M253.075,-743.1728C269.9392,-712.9676 312.1049,-646.277 369,-618.5 438.0134,-584.8067 526.5616,-583.2274 590.2692,-588.1688"/>
<polygon fill="#191970" stroke="#191970" points="590.0146,-591.6597 600.2738,-589.0139 590.6039,-584.6845 590.0146,-591.6597"/>
</g>
<!-- Node222&#45;&gt;Node232 -->
<g id="edge13" class="edge">
<title>Node222&#45;&gt;Node232</title>
<path fill="none" stroke="#191970" d="M248.7167,-743.2284C259.5621,-702.0329 295.1781,-587.8758 369,-530.5 373.7091,-526.84 378.9121,-523.7329 384.3837,-521.0957"/>
<polygon fill="#191970" stroke="#191970" points="385.9747,-524.2225 393.8061,-517.0867 383.234,-517.7813 385.9747,-524.2225"/>
</g>
<!-- Node233 -->
<g id="node13" class="node">
<title>Node233</title>
<g id="a_node13"><a xlink:href="../../d8/d0b/classhydrogen__framework_1_1Graph__Line.html#ae6ad83ec04c972e87856c267d61ba6f5" target="_top" xlink:title=" ">
<polygon fill="none" stroke="#000000" points="594,-836.5 594,-866.5 752,-866.5 752,-836.5 594,-836.5"/>
<text text-anchor="start" x="602" y="-854.5" font-family="Helvetica,sans-Serif" font-size="10.00" fill="#000000">hydrogen_framework</text>
<text text-anchor="middle" x="673" y="-843.5" font-family="Helvetica,sans-Serif" font-size="10.00" fill="#000000">::Graph_Line::getLineNumber</text>
</a>
</g>
</g>
<!-- Node222&#45;&gt;Node233 -->
<g id="edge14" class="edge">
<title>Node222&#45;&gt;Node233</title>
<path fill="none" stroke="#191970" d="M250.6008,-773.6249C264.4123,-808.4016 303.7914,-893.5828 369,-926.5 443.9874,-964.3535 477.4824,-950.4355 558,-926.5 592.8465,-916.1412 626.9899,-891.505 648.8998,-873.2802"/>
<polygon fill="#191970" stroke="#191970" points="651.3348,-875.8035 656.6739,-866.6523 646.7933,-870.4767 651.3348,-875.8035"/>
</g>
<!-- Node234 -->
<g id="node14" class="node">
<title>Node234</title>
<g id="a_node14"><a xlink:href="../../d4/d7a/classhydrogen__framework_1_1Graph.html#a3f18eb16e6ee20b9bfb19933aaab48df" target="_top" xlink:title=" ">
<polygon fill="none" stroke="#000000" points="391.5,-876 391.5,-917 535.5,-917 535.5,-876 391.5,-876"/>
<text text-anchor="start" x="399.5" y="-905" font-family="Helvetica,sans-Serif" font-size="10.00" fill="#000000">hydrogen_framework</text>
<text text-anchor="start" x="399.5" y="-894" font-family="Helvetica,sans-Serif" font-size="10.00" fill="#000000">::Graph::isVirtualNodeLine</text>
<text text-anchor="middle" x="463.5" y="-883" font-family="Helvetica,sans-Serif" font-size="10.00" fill="#000000">Number</text>
</a>
</g>
</g>
<!-- Node222&#45;&gt;Node234 -->
<g id="edge15" class="edge">
<title>Node222&#45;&gt;Node234</title>
<path fill="none" stroke="#191970" d="M258.3881,-773.5939C279.661,-796.7154 323.4551,-840.9062 369,-866.5 373.1876,-868.8532 377.5852,-871.0499 382.0972,-873.0962"/>
<polygon fill="#191970" stroke="#191970" points="380.9165,-876.3973 391.4888,-877.0872 383.6543,-869.9549 380.9165,-876.3973"/>
</g>
<!-- Node235 -->
<g id="node15" class="node">
<title>Node235</title>
<g id="a_node15"><a xlink:href="../../db/d17/MVICFG_8cpp.html#aba1f11ef6a3442c674bce54fb19a092e" target="_top" xlink:title=" ">
<polygon fill="none" stroke="#000000" points="383,-738 383,-779 544,-779 544,-738 383,-738"/>
<text text-anchor="start" x="391" y="-767" font-family="Helvetica,sans-Serif" font-size="10.00" fill="#000000">hydrogen_framework</text>
<text text-anchor="start" x="391" y="-756" font-family="Helvetica,sans-Serif" font-size="10.00" fill="#000000">::resolveMatchedLinesWithNo</text>
<text text-anchor="middle" x="463.5" y="-745" font-family="Helvetica,sans-Serif" font-size="10.00" fill="#000000">ExtactStringMatch</text>
</a>
</g>
</g>
<!-- Node222&#45;&gt;Node235 -->
<g id="edge16" class="edge">
<title>Node222&#45;&gt;Node235</title>
<path fill="none" stroke="#191970" d="M305.5743,-758.5C326.2741,-758.5 349.9045,-758.5 372.4679,-758.5"/>
<polygon fill="#191970" stroke="#191970" points="372.7456,-762.0001 382.7455,-758.5 372.7455,-755.0001 372.7456,-762.0001"/>
</g>
<!-- Node230&#45;&gt;Node230 -->
<g id="edge11" class="edge">
<title>Node230&#45;&gt;Node230</title>
<path fill="none" stroke="#191970" d="M635.874,-620.3644C631.8239,-630.0433 644.1992,-638.5 673,-638.5 691.0005,-638.5 702.5848,-635.1966 707.7529,-630.3561"/>
<polygon fill="#191970" stroke="#191970" points="711.2204,-630.9026 710.126,-620.3644 704.4098,-629.285 711.2204,-630.9026"/>
</g>
<!-- Node230&#45;&gt;Node231 -->
<g id="edge12" class="edge">
<title>Node230&#45;&gt;Node231</title>
<path fill="none" stroke="#191970" d="M688.592,-578.6083C725.8041,-528.7477 819.6041,-403.0649 858.589,-350.829"/>
<polygon fill="#191970" stroke="#191970" points="861.6068,-352.6372 864.783,-342.5296 855.9969,-348.4503 861.6068,-352.6372"/>
</g>
<!-- Node235&#45;&gt;Node230 -->
<g id="edge17" class="edge">
<title>Node235&#45;&gt;Node230</title>
<path fill="none" stroke="#191970" d="M540.9148,-737.8038C546.8818,-735.0532 552.6555,-731.9639 558,-728.5 598.6144,-702.1768 633.7062,-657.8068 654.109,-628.5854"/>
<polygon fill="#191970" stroke="#191970" points="657.1983,-630.2686 659.9592,-620.0398 651.4221,-626.3143 657.1983,-630.2686"/>
</g>
<!-- Node235&#45;&gt;Node233 -->
<g id="edge18" class="edge">
<title>Node235&#45;&gt;Node233</title>
<path fill="none" stroke="#191970" d="M509.735,-779.0244C545.4216,-794.8661 594.4492,-816.6302 629.4441,-832.1649"/>
<polygon fill="#191970" stroke="#191970" points="628.3596,-835.5128 638.9196,-836.3712 631.1997,-829.1149 628.3596,-835.5128"/>
</g>
<!-- Node235&#45;&gt;Node235 -->
<g id="edge19" class="edge">
<title>Node235&#45;&gt;Node235</title>
<path fill="none" stroke="#191970" d="M425.2712,-779.3644C421.1008,-789.0433 433.8438,-797.5 463.5,-797.5 482.0352,-797.5 493.9635,-794.1966 499.2852,-789.3561"/>
<polygon fill="#191970" stroke="#191970" points="502.7529,-789.9096 501.7288,-779.3644 495.9533,-788.2466 502.7529,-789.9096"/>
</g>
<!-- Node236&#45;&gt;Node236 -->
<g id="edge21" class="edge">
<title>Node236&#45;&gt;Node236</title>
<path fill="none" stroke="#191970" d="M427.2517,-320.659C418.511,-330.0566 430.5938,-339 463.5,-339 483.5522,-339 495.8719,-335.679 500.4591,-330.9579"/>
<polygon fill="#191970" stroke="#191970" points="503.9286,-330.3943 499.7483,-320.659 496.9452,-330.8763 503.9286,-330.3943"/>
</g>
<!-- Node237 -->
<g id="node17" class="node">
<title>Node237</title>
<g id="a_node17"><a xlink:href="../../da/df5/classhydrogen__framework_1_1Graph__Instruction.html#a56b37c9df4d67cf2dba65a843f792d03" target="_top" xlink:title=" ">
<polygon fill="none" stroke="#000000" points="612.5,-356 612.5,-397 733.5,-397 733.5,-356 612.5,-356"/>
<text text-anchor="start" x="620.5" y="-385" font-family="Helvetica,sans-Serif" font-size="10.00" fill="#000000">hydrogen_framework</text>
<text text-anchor="start" x="620.5" y="-374" font-family="Helvetica,sans-Serif" font-size="10.00" fill="#000000">::Graph_Instruction</text>
<text text-anchor="middle" x="673" y="-363" font-family="Helvetica,sans-Serif" font-size="10.00" fill="#000000">::getInstructionEdges</text>
</a>
</g>
</g>
<!-- Node236&#45;&gt;Node237 -->
<g id="edge22" class="edge">
<title>Node236&#45;&gt;Node237</title>
<path fill="none" stroke="#191970" d="M507.9296,-320.5573C535.4688,-329.8904 571.446,-342.0831 602.7812,-352.7027"/>
<polygon fill="#191970" stroke="#191970" points="601.7481,-356.048 612.3424,-355.943 603.9949,-349.4184 601.7481,-356.048"/>
</g>
<!-- Node238&#45;&gt;Node229 -->
<g id="edge25" class="edge">
<title>Node238&#45;&gt;Node229</title>
<path fill="none" stroke="#191970" d="M312.0421,-521.5346C335.637,-526.8259 362.3357,-532.8133 386.6737,-538.2712"/>
<polygon fill="#191970" stroke="#191970" points="386.0611,-541.7207 396.5847,-540.4938 387.5929,-534.8903 386.0611,-541.7207"/>
</g>
<!-- Node238&#45;&gt;Node232 -->
<g id="edge27" class="edge">
<title>Node238&#45;&gt;Node232</title>
<path fill="none" stroke="#191970" d="M316.2427,-506.5C337.842,-506.5 361.7055,-506.5 383.8207,-506.5"/>
<polygon fill="#191970" stroke="#191970" points="383.8444,-510.0001 393.8443,-506.5 383.8443,-503.0001 383.8444,-510.0001"/>
</g>
<!-- Node238&#45;&gt;Node238 -->
<g id="edge26" class="edge">
<title>Node238&#45;&gt;Node238</title>
<path fill="none" stroke="#191970" d="M212.9342,-521.659C205.202,-531.0566 215.8906,-540 245,-540 262.7385,-540 273.6367,-536.679 277.6946,-531.9579"/>
<polygon fill="#191970" stroke="#191970" points="281.1688,-531.4271 277.0658,-521.659 274.1818,-531.8537 281.1688,-531.4271"/>
</g>
<!-- Node239&#45;&gt;Node231 -->
<g id="edge32" class="edge">
<title>Node239&#45;&gt;Node231</title>
<path fill="none" stroke="#191970" d="M305.71,-271.8778C368.8591,-271.7398 470.5373,-272.9468 558,-280.5 634.2637,-287.086 720.0932,-300.1069 783.3449,-310.7766"/>
<polygon fill="#191970" stroke="#191970" points="782.8527,-314.243 793.2977,-312.4674 784.0252,-307.3419 782.8527,-314.243"/>
</g>
<!-- Node239&#45;&gt;Node236 -->
<g id="edge30" class="edge">
<title>Node239&#45;&gt;Node236</title>
<path fill="none" stroke="#191970" d="M305.5743,-281.6485C332.5702,-285.7257 364.5504,-290.5557 392.6482,-294.7993"/>
<polygon fill="#191970" stroke="#191970" points="392.3973,-298.301 402.8079,-296.3337 393.4427,-291.3795 392.3973,-298.301"/>
</g>
<!-- Node239&#45;&gt;Node239 -->
<g id="edge31" class="edge">
<title>Node239&#45;&gt;Node239</title>
<path fill="none" stroke="#191970" d="M212.9342,-287.659C205.202,-297.0566 215.8906,-306 245,-306 262.7385,-306 273.6367,-302.679 277.6946,-297.9579"/>
<polygon fill="#191970" stroke="#191970" points="281.1688,-297.4271 277.0658,-287.659 274.1818,-297.8537 281.1688,-297.4271"/>
</g>
<!-- Node242&#45;&gt;Node231 -->
<g id="edge38" class="edge">
<title>Node242&#45;&gt;Node231</title>
<path fill="none" stroke="#191970" d="M532.7802,-440.2391C592.4776,-438.8624 680.1292,-431.9695 752,-406.5 789.0178,-393.3817 826.3301,-367.4958 850.2115,-348.9279"/>
<polygon fill="#191970" stroke="#191970" points="852.4104,-351.6511 858.076,-342.6983 848.064,-346.1639 852.4104,-351.6511"/>
</g>
<!-- Node242&#45;&gt;Node237 -->
<g id="edge37" class="edge">
<title>Node242&#45;&gt;Node237</title>
<path fill="none" stroke="#191970" d="M522.6336,-424.4449C534.3874,-421.2869 546.6128,-417.8842 558,-414.5 572.7979,-410.1021 588.5666,-405.1013 603.5321,-400.2052"/>
<polygon fill="#191970" stroke="#191970" points="604.8292,-403.463 613.2323,-397.0102 602.6393,-396.8143 604.8292,-403.463"/>
</g>
<!-- Node242&#45;&gt;Node242 -->
<g id="edge39" class="edge">
<title>Node242&#45;&gt;Node242</title>
<path fill="none" stroke="#191970" d="M427.2517,-454.659C418.511,-464.0566 430.5938,-473 463.5,-473 483.5522,-473 495.8719,-469.679 500.4591,-464.9579"/>
<polygon fill="#191970" stroke="#191970" points="503.9286,-464.3943 499.7483,-454.659 496.9452,-464.8763 503.9286,-464.3943"/>
</g>
<!-- Node243&#45;&gt;Node231 -->
<g id="edge42" class="edge">
<title>Node243&#45;&gt;Node231</title>
<path fill="none" stroke="#191970" d="M530.2824,-357.4677C550.6467,-353.3511 573.1604,-349.2662 594,-346.5 654.6634,-338.4477 723.1466,-333.7317 777.4337,-331.0125"/>
<polygon fill="#191970" stroke="#191970" points="777.9289,-334.4926 787.7472,-330.5112 777.589,-327.5009 777.9289,-334.4926"/>
</g>
<!-- Node243&#45;&gt;Node237 -->
<g id="edge41" class="edge">
<title>Node243&#45;&gt;Node237</title>
<path fill="none" stroke="#191970" d="M533.2605,-373.8319C555.4532,-374.2557 580.0132,-374.7246 602.2735,-375.1496"/>
<polygon fill="#191970" stroke="#191970" points="602.2576,-378.6499 612.3226,-375.3415 602.3913,-371.6511 602.2576,-378.6499"/>
</g>
<!-- Node243&#45;&gt;Node243 -->
<g id="edge43" class="edge">
<title>Node243&#45;&gt;Node243</title>
<path fill="none" stroke="#191970" d="M427.2517,-387.659C418.511,-397.0566 430.5938,-406 463.5,-406 483.5522,-406 495.8719,-402.679 500.4591,-397.9579"/>
<polygon fill="#191970" stroke="#191970" points="503.9286,-397.3943 499.7483,-387.659 496.9452,-397.8763 503.9286,-397.3943"/>
</g>
</g>
</svg>
        <g id="navigator" transform="translate(0 0)" fill="#404254">
                <rect fill="#f2f5e9" fill-opacity="0.5" stroke="#606060" stroke-width=".5" x="0" y="0" width="60" height="60"/>
                <use id="zoomplus" xlink:href="#zoomPlus" x="17" y="9" onmousedown="handleZoom(evt,'in')"/>
                <use id="zoomminus" xlink:href="#zoomMin" x="42" y="9" onmousedown="handleZoom(evt,'out')"/>
                <use id="reset" xlink:href="#resetDef" x="30" y="36" onmousedown="handleReset()"/>
                <g id="arrowUp" xlink:href="#dirArrow" transform="translate(30 24)" onmousedown="handlePan(0,-1)">
                  <use xlink:href="#rim" fill="#404040">
                        <set attributeName="fill" to="#808080" begin="arrowUp.mouseover" end="arrowUp.mouseout"/>
                  </use>
                  <path fill="none" stroke="white" stroke-width="1.5" d="M0,-3.0v7 M-2.5,-0.5L0,-3.0L2.5,-0.5"/>
                </g>
                <g id="arrowRight" xlink:href="#dirArrow" transform="rotate(90) translate(36 -43)" onmousedown="handlePan(1,0)">
                  <use xlink:href="#rim" fill="#404040">
                        <set attributeName="fill" to="#808080" begin="arrowRight.mouseover" end="arrowRight.mouseout"/>
                  </use>
                  <path fill="none" stroke="white" stroke-width="1.5" d="M0,-3.0v7 M-2.5,-0.5L0,-3.0L2.5,-0.5"/>
                </g>
                <g id="arrowDown" xlink:href="#dirArrow" transform="rotate(180) translate(-30 -48)" onmousedown="handlePan(0,1)">
                  <use xlink:href="#rim" fill="#404040">
                        <set attributeName="fill" to="#808080" begin="arrowDown.mouseover" end="arrowDown.mouseout"/>
                  </use>
                  <path fill="none" stroke="white" stroke-width="1.5" d="M0,-3.0v7 M-2.5,-0.5L0,-3.0L2.5,-0.5"/>
                </g>
                <g id="arrowLeft" xlink:href="#dirArrow" transform="rotate(270) translate(-36 17)" onmousedown="handlePan(-1,0)">
                  <use xlink:href="#rim" fill="#404040">
                        <set attributeName="fill" to="#808080" begin="arrowLeft.mouseover" end="arrowLeft.mouseout"/>
                  </use>
                  <path fill="none" stroke="white" stroke-width="1.5" d="M0,-3.0v7 M-2.5,-0.5L0,-3.0L2.5,-0.5"/>
                </g>
        </g>
        <svg viewBox="0 0 15 15" width="100%" height="30px" preserveAspectRatio="xMaxYMin meet">
         <g id="arrow_out" transform="scale(0.3 0.3)">
          <a xlink:href="MVICFG_8cpp_a27bf2e73daf11e2ad6363e34bd06de89_cgraph_org.svg" target="_base">
           <rect id="button" ry="5" rx="5" y="6" x="6" height="38" width="38"
                fill="#f2f5e9" fill-opacity="0.5" stroke="#606060" stroke-width="1.0"/>
           <path id="arrow"
             d="M 11.500037,31.436501 C 11.940474,20.09759 22.043105,11.32322 32.158766,21.979434 L 37.068811,17.246167 C 37.068811,17.246167 37.088388,32 37.088388,32 L 22.160133,31.978069 C 22.160133,31.978069 26.997745,27.140456 26.997745,27.140456 C 18.528582,18.264221 13.291696,25.230495 11.500037,31.436501 z"
             style="fill:#404040;"/>
          </a>
         </g>
        </svg>
</svg>
