<?xml version="1.0" encoding="UTF-8" standalone="no"?>
<!DOCTYPE svg PUBLIC "-//W3C//DTD SVG 1.1//EN"
 "http://www.w3.org/Graphics/SVG/1.1/DTD/svg11.dtd">
<!-- Generated by graphviz version 2.40.1 (20161225.0304)
 -->
<!-- Title: hydrogen_framework::updateMVICFGVersion Pages: 1 -->
<svg width="332pt" height="357pt"
 viewBox="0.00 0.00 332.00 356.50" xmlns="http://www.w3.org/2000/svg" xmlns:xlink="http://www.w3.org/1999/xlink">
<g id="graph0" class="graph" transform="scale(1 1) rotate(0) translate(4 352.5)">
<title>hydrogen_framework::updateMVICFGVersion</title>
<!-- Node260 -->
<g id="node1" class="node">
<title>Node260</title>
<g id="a_node1"><a xlink:title=" ">
<polygon fill="#bfbfbf" stroke="#000000" points="0,-165 0,-195 130,-195 130,-165 0,-165"/>
<text text-anchor="start" x="8" y="-183" font-family="Helvetica,sans-Serif" font-size="10.00" fill="#000000">hydrogen_framework</text>
<text text-anchor="middle" x="65" y="-172" font-family="Helvetica,sans-Serif" font-size="10.00" fill="#000000">::updateMVICFGVersion</text>
</a>
</g>
</g>
<!-- Node260&#45;&gt;Node260 -->
<g id="edge8" class="edge">
<title>Node260&#45;&gt;Node260</title>
<path fill="none" stroke="#191970" d="M33.6313,-195.159C26.0672,-204.5566 36.5234,-213.5 65,-213.5 82.3529,-213.5 93.0142,-210.179 96.9838,-205.4579"/>
<polygon fill="#191970" stroke="#191970" points="100.4588,-204.9325 96.3687,-195.159 93.4712,-205.3499 100.4588,-204.9325"/>
</g>
<!-- Node261 -->
<g id="node2" class="node">
<title>Node261</title>
<g id="a_node2"><a xlink:href="../../d0/d21/classhydrogen__framework_1_1Diff__Mapping.html#aa478ea59c018a81e417a816d10ceb9fe" target="_top" target="_top" xlink:title=" ">
<polygon fill="none" stroke="#000000" points="168,-318 168,-348 322,-348 322,-318 168,-318"/>
<text text-anchor="start" x="176" y="-336" font-family="Helvetica,sans-Serif" font-size="10.00" fill="#000000">hydrogen_framework</text>
<text text-anchor="middle" x="245" y="-325" font-family="Helvetica,sans-Serif" font-size="10.00" fill="#000000">::Diff_Mapping::getFileName</text>
</a>
</g>
</g>
<!-- Node260&#45;&gt;Node261 -->
<g id="edge1" class="edge">
<title>Node260&#45;&gt;Node261</title>
<path fill="none" stroke="#191970" d="M72.7886,-195.2104C87.3779,-222.1901 121.419,-278.4521 166,-309 168.2504,-310.542 170.6027,-311.9874 173.0295,-313.342"/>
<polygon fill="#191970" stroke="#191970" points="171.5816,-316.5309 182.0927,-317.86 174.7047,-310.2662 171.5816,-316.5309"/>
</g>
<!-- Node262 -->
<g id="node3" class="node">
<title>Node262</title>
<g id="a_node3"><a xlink:href="../../d4/d7a/classhydrogen__framework_1_1Graph.html#aa0e18aa0db63e1f8a5f90620147683eb" target="_top" target="_top" xlink:title=" ">
<polygon fill="none" stroke="#000000" points="179,-269 179,-299 311,-299 311,-269 179,-269"/>
<text text-anchor="start" x="187" y="-287" font-family="Helvetica,sans-Serif" font-size="10.00" fill="#000000">hydrogen_framework</text>
<text text-anchor="middle" x="245" y="-276" font-family="Helvetica,sans-Serif" font-size="10.00" fill="#000000">::Graph::getGraphEdges</text>
</a>
</g>
</g>
<!-- Node260&#45;&gt;Node262 -->
<g id="edge2" class="edge">
<title>Node260&#45;&gt;Node262</title>
<path fill="none" stroke="#191970" d="M80.1313,-195.0463C98.8274,-212.8688 132.3126,-242.3585 166,-260 169.4722,-261.8183 173.104,-263.522 176.8216,-265.1149"/>
<polygon fill="#191970" stroke="#191970" points="175.612,-268.4004 186.1973,-268.8479 178.2014,-261.897 175.612,-268.4004"/>
</g>
<!-- Node263 -->
<g id="node4" class="node">
<title>Node263</title>
<g id="a_node4"><a xlink:href="../../d4/d7a/classhydrogen__framework_1_1Graph.html#a7eec182dc5d509ffef12e7b0f50802e7" target="_top" target="_top" xlink:title=" ">
<polygon fill="none" stroke="#000000" points="170.5,-220 170.5,-250 319.5,-250 319.5,-220 170.5,-220"/>
<text text-anchor="start" x="178.5" y="-238" font-family="Helvetica,sans-Serif" font-size="10.00" fill="#000000">hydrogen_framework</text>
<text text-anchor="middle" x="245" y="-227" font-family="Helvetica,sans-Serif" font-size="10.00" fill="#000000">::Graph::getGraphFunctions</text>
</a>
</g>
</g>
<!-- Node260&#45;&gt;Node263 -->
<g id="edge3" class="edge">
<title>Node260&#45;&gt;Node263</title>
<path fill="none" stroke="#191970" d="M114.1858,-195.029C136.4093,-201.8195 162.845,-209.8971 186.1158,-217.0076"/>
<polygon fill="#191970" stroke="#191970" points="185.2874,-220.4142 195.8737,-219.9892 187.3329,-213.7197 185.2874,-220.4142"/>
</g>
<!-- Node264 -->
<g id="node5" class="node">
<title>Node264</title>
<g id="a_node5"><a xlink:href="../../da/df5/classhydrogen__framework_1_1Graph__Instruction.html#a1a44d9594f2492dd558c125e9d6038fd" target="_top" target="_top" xlink:title=" ">
<polygon fill="none" stroke="#000000" points="184.5,-159.5 184.5,-200.5 305.5,-200.5 305.5,-159.5 184.5,-159.5"/>
<text text-anchor="start" x="192.5" y="-188.5" font-family="Helvetica,sans-Serif" font-size="10.00" fill="#000000">hydrogen_framework</text>
<text text-anchor="start" x="192.5" y="-177.5" font-family="Helvetica,sans-Serif" font-size="10.00" fill="#000000">::Graph_Instruction</text>
<text text-anchor="middle" x="245" y="-166.5" font-family="Helvetica,sans-Serif" font-size="10.00" fill="#000000">::getGraphLine</text>
</a>
</g>
</g>
<!-- Node260&#45;&gt;Node264 -->
<g id="edge4" class="edge">
<title>Node260&#45;&gt;Node264</title>
<path fill="none" stroke="#191970" d="M130.2386,-180C144.4877,-180 159.6347,-180 174.0926,-180"/>
<polygon fill="#191970" stroke="#191970" points="174.4757,-183.5001 184.4757,-180 174.4757,-176.5001 174.4757,-183.5001"/>
</g>
<!-- Node265 -->
<g id="node6" class="node">
<title>Node265</title>
<g id="a_node6"><a xlink:href="../../d4/d7a/classhydrogen__framework_1_1Graph.html#a3e9e35a4f8633968db44f453ccee09b0" target="_top" target="_top" xlink:title=" ">
<polygon fill="none" stroke="#000000" points="175.5,-110 175.5,-140 314.5,-140 314.5,-110 175.5,-110"/>
<text text-anchor="start" x="183.5" y="-128" font-family="Helvetica,sans-Serif" font-size="10.00" fill="#000000">hydrogen_framework</text>
<text text-anchor="middle" x="245" y="-117" font-family="Helvetica,sans-Serif" font-size="10.00" fill="#000000">::Graph::getGraphVersion</text>
</a>
</g>
</g>
<!-- Node260&#45;&gt;Node265 -->
<g id="edge5" class="edge">
<title>Node260&#45;&gt;Node265</title>
<path fill="none" stroke="#191970" d="M114.1858,-164.971C136.4093,-158.1805 162.845,-150.1029 186.1158,-142.9924"/>
<polygon fill="#191970" stroke="#191970" points="187.3329,-146.2803 195.8737,-140.0108 185.2874,-139.5858 187.3329,-146.2803"/>
</g>
<!-- Node266 -->
<g id="node7" class="node">
<title>Node266</title>
<g id="a_node7"><a xlink:href="../../d8/d0b/classhydrogen__framework_1_1Graph__Line.html#ae6ad83ec04c972e87856c267d61ba6f5" target="_top" target="_top" xlink:title=" ">
<polygon fill="none" stroke="#000000" points="166,-61 166,-91 324,-91 324,-61 166,-61"/>
<text text-anchor="start" x="174" y="-79" font-family="Helvetica,sans-Serif" font-size="10.00" fill="#000000">hydrogen_framework</text>
<text text-anchor="middle" x="245" y="-68" font-family="Helvetica,sans-Serif" font-size="10.00" fill="#000000">::Graph_Line::getLineNumber</text>
</a>
</g>
</g>
<!-- Node260&#45;&gt;Node266 -->
<g id="edge6" class="edge">
<title>Node260&#45;&gt;Node266</title>
<path fill="none" stroke="#191970" d="M80.5349,-164.9081C99.363,-147.3532 132.7191,-118.5441 166,-101 170.2313,-98.7695 174.6962,-96.6966 179.2625,-94.7781"/>
<polygon fill="#191970" stroke="#191970" points="180.7085,-97.9705 188.7358,-91.0558 178.1485,-91.4554 180.7085,-97.9705"/>
</g>
<!-- Node267 -->
<g id="node8" class="node">
<title>Node267</title>
<g id="a_node8"><a xlink:href="../../d4/d7a/classhydrogen__framework_1_1Graph.html#a3f18eb16e6ee20b9bfb19933aaab48df" target="_top" target="_top" xlink:title=" ">
<polygon fill="none" stroke="#000000" points="173,-.5 173,-41.5 317,-41.5 317,-.5 173,-.5"/>
<text text-anchor="start" x="181" y="-29.5" font-family="Helvetica,sans-Serif" font-size="10.00" fill="#000000">hydrogen_framework</text>
<text text-anchor="start" x="181" y="-18.5" font-family="Helvetica,sans-Serif" font-size="10.00" fill="#000000">::Graph::isVirtualNodeLine</text>
<text text-anchor="middle" x="245" y="-7.5" font-family="Helvetica,sans-Serif" font-size="10.00" fill="#000000">Number</text>
</a>
</g>
</g>
<!-- Node260&#45;&gt;Node267 -->
<g id="edge7" class="edge">
<title>Node260&#45;&gt;Node267</title>
<path fill="none" stroke="#191970" d="M73.3044,-164.8375C88.4595,-138.4545 123.0349,-83.8794 166,-52 168.6031,-50.0686 171.3422,-48.2402 174.1747,-46.5113"/>
<polygon fill="#191970" stroke="#191970" points="175.8946,-49.5596 182.91,-41.6201 172.4747,-43.4519 175.8946,-49.5596"/>
</g>
</g>
</svg>
