<?xml version="1.0" encoding="UTF-8" standalone="no"?>
<!DOCTYPE svg PUBLIC "-//W3C//DTD SVG 1.1//EN"
 "http://www.w3.org/Graphics/SVG/1.1/DTD/svg11.dtd">
<!-- Generated by graphviz version 2.40.1 (20161225.0304)
 -->
<!-- Title: hydrogen_framework::getNewlyAdded Pages: 1 -->
<svg width="341pt" height="284pt"
 viewBox="0.00 0.00 341.00 284.00" xmlns="http://www.w3.org/2000/svg" xmlns:xlink="http://www.w3.org/1999/xlink">
<g id="graph0" class="graph" transform="scale(1 1) rotate(0) translate(4 280)">
<title>hydrogen_framework::getNewlyAdded</title>
<!-- Node197 -->
<g id="node1" class="node">
<title>Node197</title>
<g id="a_node1"><a xlink:title=" ">
<polygon fill="#bfbfbf" stroke="#000000" points="0,-122.5 0,-152.5 121,-152.5 121,-122.5 0,-122.5"/>
<text text-anchor="start" x="8" y="-140.5" font-family="Helvetica,sans-Serif" font-size="10.00" fill="#000000">hydrogen_framework</text>
<text text-anchor="middle" x="60.5" y="-129.5" font-family="Helvetica,sans-Serif" font-size="10.00" fill="#000000">::getNewlyAdded</text>
</a>
</g>
</g>
<!-- Node197&#45;&gt;Node197 -->
<g id="edge7" class="edge">
<title>Node197&#45;&gt;Node197</title>
<path fill="none" stroke="#191970" d="M28.4342,-152.659C20.702,-162.0566 31.3906,-171 60.5,-171 78.2385,-171 89.1367,-167.679 93.1946,-162.9579"/>
<polygon fill="#191970" stroke="#191970" points="96.6688,-162.4271 92.5658,-152.659 89.6818,-162.8537 96.6688,-162.4271"/>
</g>
<!-- Node198 -->
<g id="node2" class="node">
<title>Node198</title>
<g id="a_node2"><a xlink:href="../../d0/d21/classhydrogen__framework_1_1Diff__Mapping.html#a3febde10ce387d410bf97d9d2b3e3f1f" target="_top" target="_top" xlink:title=" ">
<polygon fill="none" stroke="#000000" points="163,-245.5 163,-275.5 327,-275.5 327,-245.5 163,-245.5"/>
<text text-anchor="start" x="171" y="-263.5" font-family="Helvetica,sans-Serif" font-size="10.00" fill="#000000">hydrogen_framework</text>
<text text-anchor="middle" x="245" y="-252.5" font-family="Helvetica,sans-Serif" font-size="10.00" fill="#000000">::Diff_Mapping::getAddedLines</text>
</a>
</g>
</g>
<!-- Node197&#45;&gt;Node198 -->
<g id="edge1" class="edge">
<title>Node197&#45;&gt;Node198</title>
<path fill="none" stroke="#191970" d="M71.122,-152.6987C87.188,-174.5389 119.7724,-214.5766 157,-236.5 160.0254,-238.2817 163.1869,-239.9348 166.4382,-241.4682"/>
<polygon fill="#191970" stroke="#191970" points="165.2299,-244.7582 175.8002,-245.4802 167.9872,-238.3241 165.2299,-244.7582"/>
</g>
<!-- Node199 -->
<g id="node3" class="node">
<title>Node199</title>
<g id="a_node3"><a xlink:href="../../dc/d7a/classhydrogen__framework_1_1Graph__Function.html#a6a9a8a2315e726618c6546d55bea6ba5" target="_top" target="_top" xlink:title=" ">
<polygon fill="none" stroke="#000000" points="157,-196.5 157,-226.5 333,-226.5 333,-196.5 157,-196.5"/>
<text text-anchor="start" x="165" y="-214.5" font-family="Helvetica,sans-Serif" font-size="10.00" fill="#000000">hydrogen_framework</text>
<text text-anchor="middle" x="245" y="-203.5" font-family="Helvetica,sans-Serif" font-size="10.00" fill="#000000">::Graph_Function::getFunctionFile</text>
</a>
</g>
</g>
<!-- Node197&#45;&gt;Node199 -->
<g id="edge2" class="edge">
<title>Node197&#45;&gt;Node199</title>
<path fill="none" stroke="#191970" d="M86.0169,-152.6188C105.0794,-163.439 132.0404,-177.7573 157,-187.5 162.3867,-189.6026 168.0271,-191.5938 173.7393,-193.4624"/>
<polygon fill="#191970" stroke="#191970" points="172.7989,-196.8355 183.3881,-196.4895 174.8944,-190.1565 172.7989,-196.8355"/>
</g>
<!-- Node200 -->
<g id="node4" class="node">
<title>Node200</title>
<g id="a_node4"><a xlink:href="../../d8/d0b/classhydrogen__framework_1_1Graph__Line.html#a8f3052170907f9eb0a6e2a4ea0ba7f5d" target="_top" target="_top" xlink:title=" ">
<polygon fill="none" stroke="#000000" points="160.5,-147.5 160.5,-177.5 329.5,-177.5 329.5,-147.5 160.5,-147.5"/>
<text text-anchor="start" x="168.5" y="-165.5" font-family="Helvetica,sans-Serif" font-size="10.00" fill="#000000">hydrogen_framework</text>
<text text-anchor="middle" x="245" y="-154.5" font-family="Helvetica,sans-Serif" font-size="10.00" fill="#000000">::Graph_Line::getGraphFunction</text>
</a>
</g>
</g>
<!-- Node197&#45;&gt;Node200 -->
<g id="edge3" class="edge">
<title>Node197&#45;&gt;Node200</title>
<path fill="none" stroke="#191970" d="M121.1677,-145.7206C130.4439,-146.9775 140.2046,-148.3001 150.0066,-149.6283"/>
<polygon fill="#191970" stroke="#191970" points="149.8383,-153.1374 160.2177,-151.0119 150.7783,-146.2008 149.8383,-153.1374"/>
</g>
<!-- Node201 -->
<g id="node5" class="node">
<title>Node201</title>
<g id="a_node5"><a xlink:href="../../d4/d7a/classhydrogen__framework_1_1Graph.html#a7eec182dc5d509ffef12e7b0f50802e7" target="_top" target="_top" xlink:title=" ">
<polygon fill="none" stroke="#000000" points="170.5,-98.5 170.5,-128.5 319.5,-128.5 319.5,-98.5 170.5,-98.5"/>
<text text-anchor="start" x="178.5" y="-116.5" font-family="Helvetica,sans-Serif" font-size="10.00" fill="#000000">hydrogen_framework</text>
<text text-anchor="middle" x="245" y="-105.5" font-family="Helvetica,sans-Serif" font-size="10.00" fill="#000000">::Graph::getGraphFunctions</text>
</a>
</g>
</g>
<!-- Node197&#45;&gt;Node201 -->
<g id="edge4" class="edge">
<title>Node197&#45;&gt;Node201</title>
<path fill="none" stroke="#191970" d="M121.1677,-129.6083C133.7219,-127.9752 147.1636,-126.2267 160.3942,-124.5056"/>
<polygon fill="#191970" stroke="#191970" points="160.9873,-127.9581 170.4523,-123.1973 160.0843,-121.0165 160.9873,-127.9581"/>
</g>
<!-- Node202 -->
<g id="node6" class="node">
<title>Node202</title>
<g id="a_node6"><a xlink:href="../../d4/d7a/classhydrogen__framework_1_1Graph.html#a3e9e35a4f8633968db44f453ccee09b0" target="_top" target="_top" xlink:title=" ">
<polygon fill="none" stroke="#000000" points="175.5,-49.5 175.5,-79.5 314.5,-79.5 314.5,-49.5 175.5,-49.5"/>
<text text-anchor="start" x="183.5" y="-67.5" font-family="Helvetica,sans-Serif" font-size="10.00" fill="#000000">hydrogen_framework</text>
<text text-anchor="middle" x="245" y="-56.5" font-family="Helvetica,sans-Serif" font-size="10.00" fill="#000000">::Graph::getGraphVersion</text>
</a>
</g>
</g>
<!-- Node197&#45;&gt;Node202 -->
<g id="edge5" class="edge">
<title>Node197&#45;&gt;Node202</title>
<path fill="none" stroke="#191970" d="M87.3456,-122.4674C106.3783,-112.2301 132.7434,-98.8855 157,-89.5 163.2697,-87.0741 169.8719,-84.7669 176.5253,-82.6055"/>
<polygon fill="#191970" stroke="#191970" points="177.7831,-85.8792 186.277,-79.5464 175.6878,-79.2001 177.7831,-85.8792"/>
</g>
<!-- Node203 -->
<g id="node7" class="node">
<title>Node203</title>
<g id="a_node7"><a xlink:href="../../d8/d0b/classhydrogen__framework_1_1Graph__Line.html#ae6ad83ec04c972e87856c267d61ba6f5" target="_top" target="_top" xlink:title=" ">
<polygon fill="none" stroke="#000000" points="166,-.5 166,-30.5 324,-30.5 324,-.5 166,-.5"/>
<text text-anchor="start" x="174" y="-18.5" font-family="Helvetica,sans-Serif" font-size="10.00" fill="#000000">hydrogen_framework</text>
<text text-anchor="middle" x="245" y="-7.5" font-family="Helvetica,sans-Serif" font-size="10.00" fill="#000000">::Graph_Line::getLineNumber</text>
</a>
</g>
</g>
<!-- Node197&#45;&gt;Node203 -->
<g id="edge6" class="edge">
<title>Node197&#45;&gt;Node203</title>
<path fill="none" stroke="#191970" d="M71.4959,-122.3103C87.782,-100.9076 120.3645,-62.0831 157,-40.5 160.6947,-38.3233 164.589,-36.3277 168.5996,-34.4991"/>
<polygon fill="#191970" stroke="#191970" points="170.2445,-37.6055 178.1296,-30.5291 167.5526,-31.1438 170.2445,-37.6055"/>
</g>
</g>
</svg>
