<?xml version="1.0" encoding="UTF-8" standalone="no"?>
<!DOCTYPE svg PUBLIC "-//W3C//DTD SVG 1.1//EN"
 "http://www.w3.org/Graphics/SVG/1.1/DTD/svg11.dtd">
<!-- Generated by graphviz version 2.40.1 (20161225.0304)
 -->
<!-- Title: hydrogen_framework::getGraphLinesGivenLine Pages: 1 -->
<svg width="335pt" height="88pt"
 viewBox="0.00 0.00 335.00 88.00" xmlns="http://www.w3.org/2000/svg" xmlns:xlink="http://www.w3.org/1999/xlink">
<g id="graph0" class="graph" transform="scale(1 1) rotate(0) translate(4 84)">
<title>hydrogen_framework::getGraphLinesGivenLine</title>
<!-- Node171 -->
<g id="node1" class="node">
<title>Node171</title>
<g id="a_node1"><a xlink:title=" ">
<polygon fill="#bfbfbf" stroke="#000000" points="0,-24.5 0,-54.5 142,-54.5 142,-24.5 0,-24.5"/>
<text text-anchor="start" x="8" y="-42.5" font-family="Helvetica,sans-Serif" font-size="10.00" fill="#000000">hydrogen_framework</text>
<text text-anchor="middle" x="71" y="-31.5" font-family="Helvetica,sans-Serif" font-size="10.00" fill="#000000">::getGraphLinesGivenLine</text>
</a>
</g>
</g>
<!-- Node171&#45;&gt;Node171 -->
<g id="edge2" class="edge">
<title>Node171&#45;&gt;Node171</title>
<path fill="none" stroke="#191970" d="M39.6313,-54.659C32.0672,-64.0566 42.5234,-73 71,-73 88.3529,-73 99.0142,-69.679 102.9838,-64.9579"/>
<polygon fill="#191970" stroke="#191970" points="106.4588,-64.4325 102.3687,-54.659 99.4712,-64.8499 106.4588,-64.4325"/>
</g>
<!-- Node172 -->
<g id="node2" class="node">
<title>Node172</title>
<g id="a_node2"><a xlink:href="../../d4/d7a/classhydrogen__framework_1_1Graph.html#a7eec182dc5d509ffef12e7b0f50802e7" target="_top" target="_top" xlink:title=" ">
<polygon fill="none" stroke="#000000" points="178,-49.5 178,-79.5 327,-79.5 327,-49.5 178,-49.5"/>
<text text-anchor="start" x="186" y="-67.5" font-family="Helvetica,sans-Serif" font-size="10.00" fill="#000000">hydrogen_framework</text>
<text text-anchor="middle" x="252.5" y="-56.5" font-family="Helvetica,sans-Serif" font-size="10.00" fill="#000000">::Graph::getGraphFunctions</text>
</a>
</g>
</g>
<!-- Node171&#45;&gt;Node172 -->
<g id="edge1" class="edge">
<title>Node171&#45;&gt;Node172</title>
<path fill="none" stroke="#191970" d="M142.2127,-49.3089C150.6357,-50.4691 159.2944,-51.6618 167.8796,-52.8443"/>
<polygon fill="#191970" stroke="#191970" points="167.5215,-56.3279 177.9056,-54.2253 168.4768,-49.3934 167.5215,-56.3279"/>
</g>
<!-- Node173 -->
<g id="node3" class="node">
<title>Node173</title>
<g id="a_node3"><a xlink:href="../../d4/d7a/classhydrogen__framework_1_1Graph.html#a3e9e35a4f8633968db44f453ccee09b0" target="_top" target="_top" xlink:title=" ">
<polygon fill="none" stroke="#000000" points="183,-.5 183,-30.5 322,-30.5 322,-.5 183,-.5"/>
<text text-anchor="start" x="191" y="-18.5" font-family="Helvetica,sans-Serif" font-size="10.00" fill="#000000">hydrogen_framework</text>
<text text-anchor="middle" x="252.5" y="-7.5" font-family="Helvetica,sans-Serif" font-size="10.00" fill="#000000">::Graph::getGraphVersion</text>
</a>
</g>
</g>
<!-- Node171&#45;&gt;Node173 -->
<g id="edge3" class="edge">
<title>Node171&#45;&gt;Node173</title>
<path fill="none" stroke="#191970" d="M142.2127,-30.0834C152.2681,-28.7538 162.6595,-27.3797 172.8608,-26.0308"/>
<polygon fill="#191970" stroke="#191970" points="173.5243,-29.4736 182.9791,-24.6928 172.6066,-22.534 173.5243,-29.4736"/>
</g>
</g>
</svg>
