<?xml version="1.0" encoding="UTF-8" standalone="no"?>
<!DOCTYPE svg PUBLIC "-//W3C//DTD SVG 1.1//EN"
 "http://www.w3.org/Graphics/SVG/1.1/DTD/svg11.dtd">
<!-- Generated by graphviz version 2.40.1 (20161225.0304)
 -->
<!-- Title: hydrogen_framework::getMatchedInstructionFromGraph Pages: 1 -->
<svg width="415pt" height="68pt"
 viewBox="0.00 0.00 415.00 68.00" xmlns="http://www.w3.org/2000/svg" xmlns:xlink="http://www.w3.org/1999/xlink">
<g id="graph0" class="graph" transform="scale(1 1) rotate(0) translate(4 64)">
<title>hydrogen_framework::getMatchedInstructionFromGraph</title>
<!-- Node194 -->
<g id="node1" class="node">
<title>Node194</title>
<g id="a_node1"><a xlink:title=" ">
<polygon fill="#bfbfbf" stroke="#000000" points="252,-.5 252,-41.5 407,-41.5 407,-.5 252,-.5"/>
<text text-anchor="start" x="260" y="-29.5" font-family="Helvetica,sans-Serif" font-size="10.00" fill="#000000">hydrogen_framework</text>
<text text-anchor="start" x="260" y="-18.5" font-family="Helvetica,sans-Serif" font-size="10.00" fill="#000000">::getMatchedInstructionFrom</text>
<text text-anchor="middle" x="329.5" y="-7.5" font-family="Helvetica,sans-Serif" font-size="10.00" fill="#000000">Graph</text>
</a>
</g>
</g>
<!-- Node194&#45;&gt;Node194 -->
<g id="edge4" class="edge">
<title>Node194&#45;&gt;Node194</title>
<path fill="none" stroke="#191970" d="M360.812,-51.8561C356.1556,-56.6966 345.7183,-60 329.5,-60 303.5508,-60 292.4007,-51.5433 296.0498,-41.8644"/>
<polygon fill="#191970" stroke="#191970" points="364.28,-52.3755 362.9502,-41.8644 357.435,-50.9106 364.28,-52.3755"/>
</g>
<!-- Node195 -->
<g id="node2" class="node">
<title>Node195</title>
<g id="a_node2"><a xlink:href="../../db/d17/MVICFG_8cpp.html#a8f5c2085a43bf3b517575d9db43e4b92" target="_top" target="_top" xlink:title=" ">
<polygon fill="none" stroke="#000000" points="77,-6 77,-36 216,-36 216,-6 77,-6"/>
<text text-anchor="start" x="85" y="-24" font-family="Helvetica,sans-Serif" font-size="10.00" fill="#000000">hydrogen_framework</text>
<text text-anchor="middle" x="146.5" y="-13" font-family="Helvetica,sans-Serif" font-size="10.00" fill="#000000">::getEdgesForAddedLines</text>
</a>
</g>
</g>
<!-- Node194&#45;&gt;Node195 -->
<g id="edge1" class="edge">
<title>Node194&#45;&gt;Node195</title>
<path fill="none" stroke="#191970" d="M241.8063,-21C233.1818,-21 224.5121,-21 216.1045,-21"/>
<polygon fill="#191970" stroke="#191970" points="241.8916,-24.5001 251.8915,-21 241.8915,-17.5001 241.8916,-24.5001"/>
</g>
<!-- Node195&#45;&gt;Node195 -->
<g id="edge2" class="edge">
<title>Node195&#45;&gt;Node195</title>
<path fill="none" stroke="#191970" d="M168.8887,-46.4579C166.1099,-51.179 158.647,-54.5 146.5,-54.5 126.5664,-54.5 119.247,-45.5566 124.5419,-36.159"/>
<polygon fill="#191970" stroke="#191970" points="172.3729,-46.004 168.4581,-36.159 165.379,-46.2965 172.3729,-46.004"/>
</g>
<!-- Node196 -->
<g id="node3" class="node">
<title>Node196</title>
<g id="a_node3"><a xlink:href="../../de/d64/Hydrogen_8cpp.html#a0ddf1224851353fc92bfbff6f499fa97" target="_top" target="_top" xlink:title=" ">
<polygon fill="none" stroke="#000000" points="0,-11.5 0,-30.5 41,-30.5 41,-11.5 0,-11.5"/>
<text text-anchor="middle" x="20.5" y="-18.5" font-family="Helvetica,sans-Serif" font-size="10.00" fill="#000000">main</text>
</a>
</g>
</g>
<!-- Node195&#45;&gt;Node196 -->
<g id="edge3" class="edge">
<title>Node195&#45;&gt;Node196</title>
<path fill="none" stroke="#191970" d="M66.8582,-21C57.4037,-21 48.4878,-21 41.0487,-21"/>
<polygon fill="#191970" stroke="#191970" points="66.8665,-24.5001 76.8664,-21 66.8664,-17.5001 66.8665,-24.5001"/>
</g>
</g>
</svg>
