<?xml version="1.0" encoding="UTF-8" standalone="no"?>
<!DOCTYPE svg PUBLIC "-//W3C//DTD SVG 1.1//EN"
 "http://www.w3.org/Graphics/SVG/1.1/DTD/svg11.dtd">
<!-- Generated by graphviz version 2.40.1 (20161225.0304)
 -->
<!-- Title: hydrogen_framework::getSuccGivenGraphLine Pages: 1 -->
<svg width="359pt" height="100pt"
 viewBox="0.00 0.00 359.00 99.50" xmlns="http://www.w3.org/2000/svg" xmlns:xlink="http://www.w3.org/1999/xlink">
<g id="graph0" class="graph" transform="scale(1 1) rotate(0) translate(4 95.5)">
<title>hydrogen_framework::getSuccGivenGraphLine</title>
<!-- Node215 -->
<g id="node1" class="node">
<title>Node215</title>
<g id="a_node1"><a xlink:title=" ">
<polygon fill="#bfbfbf" stroke="#000000" points="0,-27.5 0,-57.5 139,-57.5 139,-27.5 0,-27.5"/>
<text text-anchor="start" x="8" y="-45.5" font-family="Helvetica,sans-Serif" font-size="10.00" fill="#000000">hydrogen_framework</text>
<text text-anchor="middle" x="69.5" y="-34.5" font-family="Helvetica,sans-Serif" font-size="10.00" fill="#000000">::getSuccGivenGraphLine</text>
</a>
</g>
</g>
<!-- Node215&#45;&gt;Node215 -->
<g id="edge3" class="edge">
<title>Node215&#45;&gt;Node215</title>
<path fill="none" stroke="#191970" d="M36.04,-57.659C27.9717,-67.0566 39.125,-76 69.5,-76 88.0098,-76 99.3818,-72.679 103.6161,-67.9579"/>
<polygon fill="#191970" stroke="#191970" points="107.0888,-67.4162 102.96,-57.659 100.1029,-67.8613 107.0888,-67.4162"/>
</g>
<!-- Node216 -->
<g id="node2" class="node">
<title>Node216</title>
<g id="a_node2"><a xlink:href="../../da/df5/classhydrogen__framework_1_1Graph__Instruction.html#a56b37c9df4d67cf2dba65a843f792d03" target="_top" target="_top" xlink:title=" ">
<polygon fill="none" stroke="#000000" points="202.5,-50 202.5,-91 323.5,-91 323.5,-50 202.5,-50"/>
<text text-anchor="start" x="210.5" y="-79" font-family="Helvetica,sans-Serif" font-size="10.00" fill="#000000">hydrogen_framework</text>
<text text-anchor="start" x="210.5" y="-68" font-family="Helvetica,sans-Serif" font-size="10.00" fill="#000000">::Graph_Instruction</text>
<text text-anchor="middle" x="263" y="-57" font-family="Helvetica,sans-Serif" font-size="10.00" fill="#000000">::getInstructionEdges</text>
</a>
</g>
</g>
<!-- Node215&#45;&gt;Node216 -->
<g id="edge1" class="edge">
<title>Node215&#45;&gt;Node216</title>
<path fill="none" stroke="#191970" d="M139.0846,-52.5691C156.384,-55.0724 174.9443,-57.7581 192.2968,-60.269"/>
<polygon fill="#191970" stroke="#191970" points="191.9573,-63.7563 202.3555,-61.7246 192.9598,-56.8284 191.9573,-63.7563"/>
</g>
<!-- Node217 -->
<g id="node3" class="node">
<title>Node217</title>
<g id="a_node3"><a xlink:href="../../d8/d0b/classhydrogen__framework_1_1Graph__Line.html#af0f712f66ed43d42a1daf4905b3ace16" target="_top" target="_top" xlink:title=" ">
<polygon fill="none" stroke="#000000" points="175,-.5 175,-30.5 351,-30.5 351,-.5 175,-.5"/>
<text text-anchor="start" x="183" y="-18.5" font-family="Helvetica,sans-Serif" font-size="10.00" fill="#000000">hydrogen_framework</text>
<text text-anchor="middle" x="263" y="-7.5" font-family="Helvetica,sans-Serif" font-size="10.00" fill="#000000">::Graph_Line::getLineInstructions</text>
</a>
</g>
</g>
<!-- Node215&#45;&gt;Node217 -->
<g id="edge2" class="edge">
<title>Node215&#45;&gt;Node217</title>
<path fill="none" stroke="#191970" d="M139.0846,-32.7905C147.4173,-31.6278 156.0425,-30.4243 164.6844,-29.2185"/>
<polygon fill="#191970" stroke="#191970" points="165.4,-32.6526 174.8204,-27.8041 164.4326,-25.7198 165.4,-32.6526"/>
</g>
</g>
</svg>
