<?xml version="1.0" encoding="UTF-8" standalone="no"?>
<!DOCTYPE svg PUBLIC "-//W3C//DTD SVG 1.1//EN"
 "http://www.w3.org/Graphics/SVG/1.1/DTD/svg11.dtd">
<!-- Generated by graphviz version 2.40.1 (20161225.0304)
 -->
<!-- Title: hydrogen_framework::Diff_Sequence Pages: 1 -->
<svg width="315pt" height="470pt"
 viewBox="0.00 0.00 315.00 470.00" xmlns="http://www.w3.org/2000/svg" xmlns:xlink="http://www.w3.org/1999/xlink">
<g id="graph0" class="graph" transform="scale(1 1) rotate(0) translate(4 466)">
<title>hydrogen_framework::Diff_Sequence</title>
<!-- Node3 -->
<g id="node1" class="node">
<title>Node3</title>
<g id="a_node1"><a xlink:title=" ">
<polygon fill="#bfbfbf" stroke="#000000" points="139.5,-.5 139.5,-101.5 260.5,-101.5 260.5,-.5 139.5,-.5"/>
<text text-anchor="start" x="147.5" y="-89.5" font-family="Helvetica,sans-Serif" font-size="10.00" fill="#000000">hydrogen_framework</text>
<text text-anchor="middle" x="200" y="-78.5" font-family="Helvetica,sans-Serif" font-size="10.00" fill="#000000">::Diff_Sequence</text>
<polyline fill="none" stroke="#000000" points="139.5,-71.5 260.5,-71.5 "/>
<text text-anchor="middle" x="200" y="-59.5" font-family="Helvetica,sans-Serif" font-size="10.00" fill="#000000"> </text>
<polyline fill="none" stroke="#000000" points="139.5,-52.5 260.5,-52.5 "/>
<text text-anchor="start" x="147.5" y="-40.5" font-family="Helvetica,sans-Serif" font-size="10.00" fill="#000000">+ Diff_Sequence()</text>
<text text-anchor="start" x="147.5" y="-29.5" font-family="Helvetica,sans-Serif" font-size="10.00" fill="#000000">+ ~Diff_Sequence()</text>
<text text-anchor="start" x="147.5" y="-18.5" font-family="Helvetica,sans-Serif" font-size="10.00" fill="#000000">+ addSequence()</text>
<text text-anchor="start" x="147.5" y="-7.5" font-family="Helvetica,sans-Serif" font-size="10.00" fill="#000000">+ getSequence()</text>
</a>
</g>
</g>
<!-- Node4 -->
<g id="node2" class="node">
<title>Node4</title>
<g id="a_node2"><a xlink:href="../../d3/db1/classhydrogen__framework_1_1Diff__Vars.html" target="_top" xlink:title=" ">
<polygon fill="none" stroke="#000000" points="58.5,-149.5 58.5,-228.5 179.5,-228.5 179.5,-149.5 58.5,-149.5"/>
<text text-anchor="start" x="66.5" y="-216.5" font-family="Helvetica,sans-Serif" font-size="10.00" fill="#000000">hydrogen_framework</text>
<text text-anchor="middle" x="119" y="-205.5" font-family="Helvetica,sans-Serif" font-size="10.00" fill="#000000">::Diff_Vars</text>
<polyline fill="none" stroke="#000000" points="58.5,-198.5 179.5,-198.5 "/>
<text text-anchor="middle" x="119" y="-186.5" font-family="Helvetica,sans-Serif" font-size="10.00" fill="#000000"> </text>
<polyline fill="none" stroke="#000000" points="58.5,-179.5 179.5,-179.5 "/>
<text text-anchor="start" x="66.5" y="-167.5" font-family="Helvetica,sans-Serif" font-size="10.00" fill="#000000">+ Diff_Vars()</text>
<text text-anchor="start" x="66.5" y="-156.5" font-family="Helvetica,sans-Serif" font-size="10.00" fill="#000000">+ ~Diff_Vars()</text>
</a>
</g>
</g>
<!-- Node4&#45;&gt;Node3 -->
<g id="edge1" class="edge">
<title>Node4&#45;&gt;Node3</title>
<path fill="none" stroke="#191970" d="M147.4691,-140.497C154.8541,-127.9152 162.8261,-114.3333 170.2739,-101.6445"/>
<polygon fill="none" stroke="#191970" points="144.2549,-139.0588 142.2113,-149.4547 150.2919,-142.6023 144.2549,-139.0588"/>
</g>
<!-- Node5 -->
<g id="node3" class="node">
<title>Node5</title>
<g id="a_node3"><a xlink:title="STL class.">
<polygon fill="none" stroke="#bfbfbf" points="19.5,-298.5 19.5,-355.5 84.5,-355.5 84.5,-298.5 19.5,-298.5"/>
<text text-anchor="middle" x="52" y="-343.5" font-family="Helvetica,sans-Serif" font-size="10.00" fill="#000000">std::string</text>
<polyline fill="none" stroke="#bfbfbf" points="19.5,-336.5 84.5,-336.5 "/>
<text text-anchor="middle" x="52" y="-324.5" font-family="Helvetica,sans-Serif" font-size="10.00" fill="#000000"> </text>
<polyline fill="none" stroke="#bfbfbf" points="19.5,-317.5 84.5,-317.5 "/>
<text text-anchor="middle" x="52" y="-305.5" font-family="Helvetica,sans-Serif" font-size="10.00" fill="#000000"> </text>
</a>
</g>
</g>
<!-- Node5&#45;&gt;Node4 -->
<g id="edge2" class="edge">
<title>Node5&#45;&gt;Node4</title>
<path fill="none" stroke="#404040" d="M46.8532,-298.3629C45.3292,-282.528 45.6857,-262.8997 53,-247 54.3109,-244.1504 55.837,-241.3845 57.5353,-238.707"/>
<polygon fill="none" stroke="#404040" points="57.708,-238.4737 58.0633,-231.2713 64.8483,-228.8292 64.493,-236.0316 57.708,-238.4737"/>
<text text-anchor="middle" x="109" y="-272" font-family="Helvetica,sans-Serif" font-size="10.00" fill="#000000"> +SES_MARK_ADD</text>
<text text-anchor="middle" x="109" y="-261" font-family="Helvetica,sans-Serif" font-size="10.00" fill="#000000">+SES_MARK_COMMON</text>
<text text-anchor="middle" x="109" y="-250" font-family="Helvetica,sans-Serif" font-size="10.00" fill="#000000">+SES_MARK_DELETE</text>
</g>
<!-- Node6 -->
<g id="node4" class="node">
<title>Node6</title>
<g id="a_node4"><a xlink:title="STL class.">
<polygon fill="none" stroke="#bfbfbf" points="0,-393.5 0,-461.5 104,-461.5 104,-393.5 0,-393.5"/>
<text text-anchor="start" x="8" y="-449.5" font-family="Helvetica,sans-Serif" font-size="10.00" fill="#000000">std::basic_string&lt;</text>
<text text-anchor="middle" x="52" y="-438.5" font-family="Helvetica,sans-Serif" font-size="10.00" fill="#000000"> char &gt;</text>
<polyline fill="none" stroke="#bfbfbf" points="0,-431.5 104,-431.5 "/>
<text text-anchor="middle" x="52" y="-419.5" font-family="Helvetica,sans-Serif" font-size="10.00" fill="#000000"> </text>
<polyline fill="none" stroke="#bfbfbf" points="0,-412.5 104,-412.5 "/>
<text text-anchor="middle" x="52" y="-400.5" font-family="Helvetica,sans-Serif" font-size="10.00" fill="#000000"> </text>
</a>
</g>
</g>
<!-- Node6&#45;&gt;Node5 -->
<g id="edge3" class="edge">
<title>Node6&#45;&gt;Node5</title>
<path fill="none" stroke="#191970" d="M52,-383.4301C52,-374.0073 52,-364.2901 52,-355.6312"/>
<polygon fill="none" stroke="#191970" points="48.5001,-383.4752 52,-393.4753 55.5001,-383.4753 48.5001,-383.4752"/>
</g>
<!-- Node7 -->
<g id="node5" class="node">
<title>Node7</title>
<g id="a_node5"><a xlink:title=" ">
<polygon fill="none" stroke="#bfbfbf" points="156.5,-298.5 156.5,-355.5 217.5,-355.5 217.5,-298.5 156.5,-298.5"/>
<text text-anchor="middle" x="187" y="-343.5" font-family="Helvetica,sans-Serif" font-size="10.00" fill="#000000">unsigned</text>
<polyline fill="none" stroke="#bfbfbf" points="156.5,-336.5 217.5,-336.5 "/>
<text text-anchor="middle" x="187" y="-324.5" font-family="Helvetica,sans-Serif" font-size="10.00" fill="#000000"> </text>
<polyline fill="none" stroke="#bfbfbf" points="156.5,-317.5 217.5,-317.5 "/>
<text text-anchor="middle" x="187" y="-305.5" font-family="Helvetica,sans-Serif" font-size="10.00" fill="#000000"> </text>
</a>
</g>
</g>
<!-- Node7&#45;&gt;Node4 -->
<g id="edge4" class="edge">
<title>Node7&#45;&gt;Node4</title>
<path fill="none" stroke="#404040" d="M182.0123,-298.2085C178.5817,-282.5076 173.1456,-263.0578 165,-247 163.6264,-244.2922 162.1146,-241.5902 160.5018,-238.916"/>
<polygon fill="none" stroke="#404040" points="160.4394,-238.8208 153.8042,-235.9969 153.8589,-228.786 160.4941,-231.6099 160.4394,-238.8208"/>
<text text-anchor="middle" x="242.5" y="-261" font-family="Helvetica,sans-Serif" font-size="10.00" fill="#000000"> +MAX_CORDINATES_SIZE</text>
</g>
<!-- Node8 -->
<g id="node6" class="node">
<title>Node8</title>
<g id="a_node6"><a xlink:title=" ">
<polygon fill="none" stroke="#bfbfbf" points="197.5,-160.5 197.5,-217.5 256.5,-217.5 256.5,-160.5 197.5,-160.5"/>
<text text-anchor="middle" x="227" y="-205.5" font-family="Helvetica,sans-Serif" font-size="10.00" fill="#000000">elemVec</text>
<polyline fill="none" stroke="#bfbfbf" points="197.5,-198.5 256.5,-198.5 "/>
<text text-anchor="middle" x="227" y="-186.5" font-family="Helvetica,sans-Serif" font-size="10.00" fill="#000000"> </text>
<polyline fill="none" stroke="#bfbfbf" points="197.5,-179.5 256.5,-179.5 "/>
<text text-anchor="middle" x="227" y="-167.5" font-family="Helvetica,sans-Serif" font-size="10.00" fill="#000000"> </text>
</a>
</g>
</g>
<!-- Node8&#45;&gt;Node3 -->
<g id="edge5" class="edge">
<title>Node8&#45;&gt;Node3</title>
<path fill="none" stroke="#404040" d="M221.4056,-160.4063C218.7333,-146.7478 215.4228,-129.8278 212.2107,-113.41"/>
<polygon fill="none" stroke="#404040" points="212.2038,-113.3746 207.1261,-108.2543 209.8996,-101.5979 214.9773,-106.7182 212.2038,-113.3746"/>
<text text-anchor="middle" x="244" y="-123" font-family="Helvetica,sans-Serif" font-size="10.00" fill="#000000"> #sequence</text>
</g>
</g>
</svg>
