<?xml version="1.0" encoding="UTF-8" standalone="no"?>
<!DOCTYPE svg PUBLIC "-//W3C//DTD SVG 1.1//EN"
 "http://www.w3.org/Graphics/SVG/1.1/DTD/svg11.dtd">
<!-- Generated by graphviz version 2.40.1 (20161225.0304)
 -->
<!-- Title: Get_Input.hpp Pages: 1 -->
<svg width="529pt" height="84pt"
 viewBox="0.00 0.00 529.00 84.00" xmlns="http://www.w3.org/2000/svg" xmlns:xlink="http://www.w3.org/1999/xlink">
<g id="graph0" class="graph" transform="scale(1 1) rotate(0) translate(4 80)">
<title>Get_Input.hpp</title>
<!-- Node0 -->
<g id="node1" class="node">
<title>Node0</title>
<g id="a_node1"><a xlink:title=" ">
<polygon fill="#bfbfbf" stroke="#000000" points="263.5,-56.5 263.5,-75.5 348.5,-75.5 348.5,-56.5 263.5,-56.5"/>
<text text-anchor="middle" x="306" y="-63.5" font-family="Helvetica,sans-Serif" font-size="10.00" fill="#000000">Get_Input.hpp</text>
</a>
</g>
</g>
<!-- Node1 -->
<g id="node2" class="node">
<title>Node1</title>
<g id="a_node2"><a xlink:title=" ">
<polygon fill="none" stroke="#bfbfbf" points="0,-.5 0,-19.5 64,-19.5 64,-.5 0,-.5"/>
<text text-anchor="middle" x="32" y="-7.5" font-family="Helvetica,sans-Serif" font-size="10.00" fill="#000000">algorithm</text>
</a>
</g>
</g>
<!-- Node0&#45;&gt;Node1 -->
<g id="edge1" class="edge">
<title>Node0&#45;&gt;Node1</title>
<path fill="none" stroke="#191970" d="M263.3651,-58.1698C218.6578,-49.8286 146.1203,-35.9281 74.3209,-20.2234"/>
<polygon fill="#191970" stroke="#191970" points="74.7161,-16.7267 64.1976,-17.9958 73.2117,-23.5631 74.7161,-16.7267"/>
</g>
<!-- Node2 -->
<g id="node3" class="node">
<title>Node2</title>
<g id="a_node3"><a xlink:title=" ">
<polygon fill="none" stroke="#bfbfbf" points="82,-.5 82,-19.5 228,-19.5 228,-.5 82,-.5"/>
<text text-anchor="middle" x="155" y="-7.5" font-family="Helvetica,sans-Serif" font-size="10.00" fill="#000000">boost/algorithm/string.hpp</text>
</a>
</g>
</g>
<!-- Node0&#45;&gt;Node2 -->
<g id="edge2" class="edge">
<title>Node0&#45;&gt;Node2</title>
<path fill="none" stroke="#191970" d="M280.0422,-56.3733C255.2593,-47.1822 217.7254,-33.2624 190.246,-23.0713"/>
<polygon fill="#191970" stroke="#191970" points="191.2121,-19.6968 180.6191,-19.5011 188.7781,-26.26 191.2121,-19.6968"/>
</g>
<!-- Node3 -->
<g id="node4" class="node">
<title>Node3</title>
<g id="a_node4"><a xlink:title=" ">
<polygon fill="none" stroke="#bfbfbf" points="246.5,-.5 246.5,-19.5 365.5,-19.5 365.5,-.5 246.5,-.5"/>
<text text-anchor="middle" x="306" y="-7.5" font-family="Helvetica,sans-Serif" font-size="10.00" fill="#000000">boost/filesystem.hpp</text>
</a>
</g>
</g>
<!-- Node0&#45;&gt;Node3 -->
<g id="edge3" class="edge">
<title>Node0&#45;&gt;Node3</title>
<path fill="none" stroke="#191970" d="M306,-56.2455C306,-48.9382 306,-38.6944 306,-29.7046"/>
<polygon fill="#191970" stroke="#191970" points="309.5001,-29.6426 306,-19.6427 302.5001,-29.6427 309.5001,-29.6426"/>
</g>
<!-- Node4 -->
<g id="node5" class="node">
<title>Node4</title>
<g id="a_node5"><a xlink:title=" ">
<polygon fill="none" stroke="#bfbfbf" points="383.5,-.5 383.5,-19.5 438.5,-19.5 438.5,-.5 383.5,-.5"/>
<text text-anchor="middle" x="411" y="-7.5" font-family="Helvetica,sans-Serif" font-size="10.00" fill="#000000">fstream</text>
</a>
</g>
</g>
<!-- Node0&#45;&gt;Node4 -->
<g id="edge4" class="edge">
<title>Node0&#45;&gt;Node4</title>
<path fill="none" stroke="#191970" d="M324.2896,-56.2455C340.7762,-47.4527 365.2352,-34.4079 383.9765,-24.4125"/>
<polygon fill="#191970" stroke="#191970" points="385.7435,-27.4368 392.92,-19.6427 382.4494,-21.2604 385.7435,-27.4368"/>
</g>
<!-- Node5 -->
<g id="node6" class="node">
<title>Node5</title>
<g id="a_node6"><a xlink:title=" ">
<polygon fill="none" stroke="#bfbfbf" points="457,-.5 457,-19.5 521,-19.5 521,-.5 457,-.5"/>
<text text-anchor="middle" x="489" y="-7.5" font-family="Helvetica,sans-Serif" font-size="10.00" fill="#000000">sys/stat.h</text>
</a>
</g>
</g>
<!-- Node0&#45;&gt;Node5 -->
<g id="edge5" class="edge">
<title>Node0&#45;&gt;Node5</title>
<path fill="none" stroke="#191970" d="M337.4588,-56.3733C368.0207,-47.021 414.5826,-32.7725 448.0261,-22.5385"/>
<polygon fill="#191970" stroke="#191970" points="449.4136,-25.7742 457.9517,-19.5011 447.3652,-19.0806 449.4136,-25.7742"/>
</g>
</g>
</svg>
