<?xml version="1.0" encoding="UTF-8" standalone="no"?>
<!DOCTYPE svg PUBLIC "-//W3C//DTD SVG 1.1//EN"
 "http://www.w3.org/Graphics/SVG/1.1/DTD/svg11.dtd">
<!-- Generated by graphviz version 2.40.1 (20161225.0304)
 -->
<!-- Title: Diff_Mapping.hpp Pages: 1 -->
<svg width="302pt" height="140pt"
 viewBox="0.00 0.00 302.00 140.00" xmlns="http://www.w3.org/2000/svg" xmlns:xlink="http://www.w3.org/1999/xlink">
<g id="graph0" class="graph" transform="scale(1 1) rotate(0) translate(4 136)">
<title>Diff_Mapping.hpp</title>
<!-- Node0 -->
<g id="node1" class="node">
<title>Node0</title>
<g id="a_node1"><a xlink:title=" ">
<polygon fill="#bfbfbf" stroke="#000000" points="93.5,-112.5 93.5,-131.5 194.5,-131.5 194.5,-112.5 93.5,-112.5"/>
<text text-anchor="middle" x="144" y="-119.5" font-family="Helvetica,sans-Serif" font-size="10.00" fill="#000000">Diff_Mapping.hpp</text>
</a>
</g>
</g>
<!-- Node1 -->
<g id="node2" class="node">
<title>Node1</title>
<g id="a_node2"><a xlink:href="../../db/dba/Diff__Util_8hpp.html" target="_top" xlink:title=" ">
<polygon fill="none" stroke="#000000" points="38.5,-56.5 38.5,-75.5 115.5,-75.5 115.5,-56.5 38.5,-56.5"/>
<text text-anchor="middle" x="77" y="-63.5" font-family="Helvetica,sans-Serif" font-size="10.00" fill="#000000">Diff_Util.hpp</text>
</a>
</g>
</g>
<!-- Node0&#45;&gt;Node1 -->
<g id="edge1" class="edge">
<title>Node0&#45;&gt;Node1</title>
<path fill="none" stroke="#191970" d="M132.3295,-112.2455C122.4339,-103.9746 108.0373,-91.9416 96.4099,-82.2232"/>
<polygon fill="#191970" stroke="#191970" points="98.4542,-79.3703 88.5368,-75.6427 93.965,-84.7413 98.4542,-79.3703"/>
</g>
<!-- Node2 -->
<g id="node3" class="node">
<title>Node2</title>
<g id="a_node3"><a xlink:title=" ">
<polygon fill="none" stroke="#bfbfbf" points="0,-.5 0,-19.5 32,-19.5 32,-.5 0,-.5"/>
<text text-anchor="middle" x="16" y="-7.5" font-family="Helvetica,sans-Serif" font-size="10.00" fill="#000000">list</text>
</a>
</g>
</g>
<!-- Node0&#45;&gt;Node2 -->
<g id="edge6" class="edge">
<title>Node0&#45;&gt;Node2</title>
<path fill="none" stroke="#191970" d="M93.2859,-112.7905C70.8124,-106.1874 45.9137,-94.9647 30,-76 19.3061,-63.2558 16.1689,-44.3371 15.4952,-30.0181"/>
<polygon fill="#191970" stroke="#191970" points="18.992,-29.6887 15.3856,-19.7265 11.9924,-29.7632 18.992,-29.6887"/>
</g>
<!-- Node4 -->
<g id="node5" class="node">
<title>Node4</title>
<g id="a_node5"><a xlink:title=" ">
<polygon fill="none" stroke="#bfbfbf" points="118.5,-.5 118.5,-19.5 165.5,-19.5 165.5,-.5 118.5,-.5"/>
<text text-anchor="middle" x="142" y="-7.5" font-family="Helvetica,sans-Serif" font-size="10.00" fill="#000000">vector</text>
</a>
</g>
</g>
<!-- Node0&#45;&gt;Node4 -->
<g id="edge8" class="edge">
<title>Node0&#45;&gt;Node4</title>
<path fill="none" stroke="#191970" d="M143.8295,-112.4509C143.5033,-94.184 142.7849,-53.9553 142.3517,-29.6976"/>
<polygon fill="#191970" stroke="#191970" points="145.8482,-29.4608 142.1701,-19.5249 138.8493,-29.5858 145.8482,-29.4608"/>
</g>
<!-- Node5 -->
<g id="node6" class="node">
<title>Node5</title>
<g id="a_node6"><a xlink:title=" ">
<polygon fill="none" stroke="#bfbfbf" points="172,-56.5 172,-75.5 232,-75.5 232,-56.5 172,-56.5"/>
<text text-anchor="middle" x="202" y="-63.5" font-family="Helvetica,sans-Serif" font-size="10.00" fill="#000000">iostream</text>
</a>
</g>
</g>
<!-- Node0&#45;&gt;Node5 -->
<g id="edge5" class="edge">
<title>Node0&#45;&gt;Node5</title>
<path fill="none" stroke="#191970" d="M154.1028,-112.2455C162.5028,-104.1352 174.6494,-92.4075 184.6084,-82.7919"/>
<polygon fill="#191970" stroke="#191970" points="187.25,-85.1066 192.0129,-75.6427 182.3878,-80.0707 187.25,-85.1066"/>
</g>
<!-- Node6 -->
<g id="node7" class="node">
<title>Node6</title>
<g id="a_node7"><a xlink:title=" ">
<polygon fill="none" stroke="#bfbfbf" points="250,-56.5 250,-75.5 294,-75.5 294,-56.5 250,-56.5"/>
<text text-anchor="middle" x="272" y="-63.5" font-family="Helvetica,sans-Serif" font-size="10.00" fill="#000000">regex</text>
</a>
</g>
</g>
<!-- Node0&#45;&gt;Node6 -->
<g id="edge7" class="edge">
<title>Node0&#45;&gt;Node6</title>
<path fill="none" stroke="#191970" d="M166.004,-112.3733C186.6435,-103.3435 217.7158,-89.7494 240.8889,-79.6111"/>
<polygon fill="#191970" stroke="#191970" points="242.5245,-82.7159 250.2831,-75.5011 239.7187,-76.3028 242.5245,-82.7159"/>
</g>
<!-- Node1&#45;&gt;Node2 -->
<g id="edge2" class="edge">
<title>Node1&#45;&gt;Node2</title>
<path fill="none" stroke="#191970" d="M66.3746,-56.2455C57.4527,-48.0549 44.512,-36.1749 33.9808,-26.5069"/>
<polygon fill="#191970" stroke="#191970" points="36.2371,-23.8271 26.5036,-19.6427 31.5032,-28.9837 36.2371,-23.8271"/>
</g>
<!-- Node3 -->
<g id="node4" class="node">
<title>Node3</title>
<g id="a_node4"><a xlink:title=" ">
<polygon fill="none" stroke="#bfbfbf" points="55,-.5 55,-19.5 99,-19.5 99,-.5 55,-.5"/>
<text text-anchor="middle" x="77" y="-7.5" font-family="Helvetica,sans-Serif" font-size="10.00" fill="#000000">string</text>
</a>
</g>
</g>
<!-- Node1&#45;&gt;Node3 -->
<g id="edge3" class="edge">
<title>Node1&#45;&gt;Node3</title>
<path fill="none" stroke="#191970" d="M77,-56.2455C77,-48.9382 77,-38.6944 77,-29.7046"/>
<polygon fill="#191970" stroke="#191970" points="80.5001,-29.6426 77,-19.6427 73.5001,-29.6427 80.5001,-29.6426"/>
</g>
<!-- Node1&#45;&gt;Node4 -->
<g id="edge4" class="edge">
<title>Node1&#45;&gt;Node4</title>
<path fill="none" stroke="#191970" d="M88.3221,-56.2455C97.9223,-47.9746 111.8892,-35.9416 123.1695,-26.2232"/>
<polygon fill="#191970" stroke="#191970" points="125.516,-28.8214 130.8076,-19.6427 120.947,-23.5182 125.516,-28.8214"/>
</g>
</g>
</svg>
