<?xml version="1.0" encoding="UTF-8" standalone="no"?>
<!DOCTYPE svg PUBLIC "-//W3C//DTD SVG 1.1//EN"
 "http://www.w3.org/Graphics/SVG/1.1/DTD/svg11.dtd">
<!-- Generated by graphviz version 2.40.1 (20161225.0304)
 -->
<!-- Title: hydrogen_framework::Graph_Line::setLineNumber Pages: 1 -->
<svg width="600pt" height="161pt"
 viewBox="0.00 0.00 600.00 161.00" xmlns="http://www.w3.org/2000/svg" xmlns:xlink="http://www.w3.org/1999/xlink">
<g id="graph0" class="graph" transform="scale(1 1) rotate(0) translate(4 157)">
<title>hydrogen_framework::Graph_Line::setLineNumber</title>
<!-- Node62 -->
<g id="node1" class="node">
<title>Node62</title>
<g id="a_node1"><a xlink:title=" ">
<polygon fill="#bfbfbf" stroke="#000000" points="434,-56.5 434,-86.5 592,-86.5 592,-56.5 434,-56.5"/>
<text text-anchor="start" x="442" y="-74.5" font-family="Helvetica,sans-Serif" font-size="10.00" fill="#000000">hydrogen_framework</text>
<text text-anchor="middle" x="513" y="-63.5" font-family="Helvetica,sans-Serif" font-size="10.00" fill="#000000">::Graph_Line::setLineNumber</text>
</a>
</g>
</g>
<!-- Node63 -->
<g id="node2" class="node">
<title>Node63</title>
<g id="a_node2"><a xlink:href="../../d4/d7a/classhydrogen__framework_1_1Graph.html#a37c8344541a9008ee43ce284f28539ae" target="_top" xlink:title=" ">
<polygon fill="none" stroke="#000000" points="234,-122.5 234,-152.5 398,-152.5 398,-122.5 234,-122.5"/>
<text text-anchor="start" x="242" y="-140.5" font-family="Helvetica,sans-Serif" font-size="10.00" fill="#000000">hydrogen_framework</text>
<text text-anchor="middle" x="316" y="-129.5" font-family="Helvetica,sans-Serif" font-size="10.00" fill="#000000">::Graph::addFunctionCallEdges</text>
</a>
</g>
</g>
<!-- Node62&#45;&gt;Node63 -->
<g id="edge1" class="edge">
<title>Node62&#45;&gt;Node63</title>
<path fill="none" stroke="#191970" d="M458.1314,-89.8824C427.5143,-100.1399 389.8486,-112.7589 360.9855,-122.4287"/>
<polygon fill="#191970" stroke="#191970" points="459.4341,-93.1372 467.8042,-86.6417 457.2103,-86.4998 459.4341,-93.1372"/>
</g>
<!-- Node64 -->
<g id="node3" class="node">
<title>Node64</title>
<g id="a_node3"><a xlink:href="../../db/d17/MVICFG_8cpp.html#a8abab0f2232beace9b14c3c7dfa368dd" target="_top" xlink:title=" ">
<polygon fill="none" stroke="#000000" points="77,-72.5 77,-102.5 198,-102.5 198,-72.5 77,-72.5"/>
<text text-anchor="start" x="85" y="-90.5" font-family="Helvetica,sans-Serif" font-size="10.00" fill="#000000">hydrogen_framework</text>
<text text-anchor="middle" x="137.5" y="-79.5" font-family="Helvetica,sans-Serif" font-size="10.00" fill="#000000">::buildICFG</text>
</a>
</g>
</g>
<!-- Node62&#45;&gt;Node64 -->
<g id="edge10" class="edge">
<title>Node62&#45;&gt;Node64</title>
<path fill="none" stroke="#191970" d="M423.7332,-75.3036C354.0438,-78.2731 259.1039,-82.3185 198.0464,-84.9201"/>
<polygon fill="#191970" stroke="#191970" points="423.983,-78.7963 433.8249,-74.8736 423.685,-71.8026 423.983,-78.7963"/>
</g>
<!-- Node66 -->
<g id="node5" class="node">
<title>Node66</title>
<g id="a_node5"><a xlink:href="../../db/d17/MVICFG_8cpp.html#a40d68c502d0833e919395ded787b4599" target="_top" xlink:title=" ">
<polygon fill="none" stroke="#000000" points="77,-.5 77,-30.5 198,-30.5 198,-.5 77,-.5"/>
<text text-anchor="start" x="85" y="-18.5" font-family="Helvetica,sans-Serif" font-size="10.00" fill="#000000">hydrogen_framework</text>
<text text-anchor="middle" x="137.5" y="-7.5" font-family="Helvetica,sans-Serif" font-size="10.00" fill="#000000">::addToMVICFG</text>
</a>
</g>
</g>
<!-- Node62&#45;&gt;Node66 -->
<g id="edge5" class="edge">
<title>Node62&#45;&gt;Node66</title>
<path fill="none" stroke="#191970" d="M474.8696,-51.9326C452.9842,-41.7295 424.637,-30.2125 398,-24.5 330.7451,-10.0767 251.519,-9.6082 198.2474,-11.608"/>
<polygon fill="#191970" stroke="#191970" points="473.6019,-55.2057 484.1345,-56.3528 476.6162,-48.8879 473.6019,-55.2057"/>
</g>
<!-- Node67 -->
<g id="node6" class="node">
<title>Node67</title>
<g id="a_node6"><a xlink:href="../../d4/d7a/classhydrogen__framework_1_1Graph.html#a2baf6364fa45c8574b581fe8c6df79c6" target="_top" xlink:title=" ">
<polygon fill="none" stroke="#000000" points="246.5,-34.5 246.5,-64.5 385.5,-64.5 385.5,-34.5 246.5,-34.5"/>
<text text-anchor="start" x="254.5" y="-52.5" font-family="Helvetica,sans-Serif" font-size="10.00" fill="#000000">hydrogen_framework</text>
<text text-anchor="middle" x="316" y="-41.5" font-family="Helvetica,sans-Serif" font-size="10.00" fill="#000000">::Graph::addVirtualNodes</text>
</a>
</g>
</g>
<!-- Node62&#45;&gt;Node67 -->
<g id="edge8" class="edge">
<title>Node62&#45;&gt;Node67</title>
<path fill="none" stroke="#191970" d="M423.5664,-61.5125C410.8255,-60.0896 397.8805,-58.644 385.594,-57.2719"/>
<polygon fill="#191970" stroke="#191970" points="423.3974,-65.0153 433.7241,-62.6469 424.1744,-58.0585 423.3974,-65.0153"/>
</g>
<!-- Node63&#45;&gt;Node64 -->
<g id="edge2" class="edge">
<title>Node63&#45;&gt;Node64</title>
<path fill="none" stroke="#191970" d="M252.7616,-119.7862C232.6822,-114.1617 210.6781,-107.9981 191.3263,-102.5774"/>
<polygon fill="#191970" stroke="#191970" points="251.8707,-123.1713 262.4441,-122.4984 253.7588,-116.4307 251.8707,-123.1713"/>
</g>
<!-- Node64&#45;&gt;Node64 -->
<g id="edge3" class="edge">
<title>Node64&#45;&gt;Node64</title>
<path fill="none" stroke="#191970" d="M158.1118,-112.9579C155.5536,-117.679 148.683,-121 137.5,-121 119.1484,-121 112.41,-112.0566 117.2846,-102.659"/>
<polygon fill="#191970" stroke="#191970" points="161.5975,-112.517 157.7154,-102.659 154.6027,-112.7863 161.5975,-112.517"/>
</g>
<!-- Node65 -->
<g id="node4" class="node">
<title>Node65</title>
<g id="a_node4"><a xlink:href="../../de/d64/Hydrogen_8cpp.html#a0ddf1224851353fc92bfbff6f499fa97" target="_top" xlink:title=" ">
<polygon fill="none" stroke="#000000" points="0,-39 0,-58 41,-58 41,-39 0,-39"/>
<text text-anchor="middle" x="20.5" y="-46" font-family="Helvetica,sans-Serif" font-size="10.00" fill="#000000">main</text>
</a>
</g>
</g>
<!-- Node64&#45;&gt;Node65 -->
<g id="edge4" class="edge">
<title>Node64&#45;&gt;Node65</title>
<path fill="none" stroke="#191970" d="M82.6425,-69.2142C67.8712,-64.2904 52.789,-59.263 41.1826,-55.3942"/>
<polygon fill="#191970" stroke="#191970" points="81.6711,-72.5796 92.2647,-72.4216 83.8847,-65.9388 81.6711,-72.5796"/>
</g>
<!-- Node66&#45;&gt;Node65 -->
<g id="edge7" class="edge">
<title>Node66&#45;&gt;Node65</title>
<path fill="none" stroke="#191970" d="M74.4251,-33.2903C62.3374,-36.6997 50.5117,-40.0352 41.0294,-42.7096"/>
<polygon fill="#191970" stroke="#191970" points="75.4614,-36.6347 84.1357,-30.5515 73.5611,-29.8976 75.4614,-36.6347"/>
</g>
<!-- Node66&#45;&gt;Node66 -->
<g id="edge6" class="edge">
<title>Node66&#45;&gt;Node66</title>
<path fill="none" stroke="#191970" d="M158.1118,-40.9579C155.5536,-45.679 148.683,-49 137.5,-49 119.1484,-49 112.41,-40.0566 117.2846,-30.659"/>
<polygon fill="#191970" stroke="#191970" points="161.5975,-40.517 157.7154,-30.659 154.6027,-40.7863 161.5975,-40.517"/>
</g>
<!-- Node67&#45;&gt;Node64 -->
<g id="edge9" class="edge">
<title>Node67&#45;&gt;Node64</title>
<path fill="none" stroke="#191970" d="M236.6615,-66.39C223.7316,-69.1426 210.5206,-71.955 198.1324,-74.5923"/>
<polygon fill="#191970" stroke="#191970" points="237.4241,-69.8062 246.4761,-64.3006 235.9665,-62.9596 237.4241,-69.8062"/>
</g>
</g>
</svg>
