<?xml version="1.0" encoding="UTF-8" standalone="no"?>
<!DOCTYPE svg PUBLIC "-//W3C//DTD SVG 1.1//EN"
 "http://www.w3.org/Graphics/SVG/1.1/DTD/svg11.dtd">
<!-- Generated by graphviz version 2.40.1 (20161225.0304)
 -->
<!-- Title: hydrogen_framework::Graph_Line::getGraphFunction Pages: 1 -->
<svg width="568pt" height="191pt"
 viewBox="0.00 0.00 568.00 191.00" xmlns="http://www.w3.org/2000/svg" xmlns:xlink="http://www.w3.org/1999/xlink">
<g id="graph0" class="graph" transform="scale(1 1) rotate(0) translate(4 187)">
<title>hydrogen_framework::Graph_Line::getGraphFunction</title>
<!-- Node5 -->
<g id="node1" class="node">
<title>Node5</title>
<g id="a_node1"><a xlink:title=" ">
<polygon fill="#bfbfbf" stroke="#000000" points="391,-33.5 391,-63.5 560,-63.5 560,-33.5 391,-33.5"/>
<text text-anchor="start" x="399" y="-51.5" font-family="Helvetica,sans-Serif" font-size="10.00" fill="#000000">hydrogen_framework</text>
<text text-anchor="middle" x="475.5" y="-40.5" font-family="Helvetica,sans-Serif" font-size="10.00" fill="#000000">::Graph_Line::getGraphFunction</text>
</a>
</g>
</g>
<!-- Node6 -->
<g id="node2" class="node">
<title>Node6</title>
<g id="a_node2"><a xlink:href="../../db/d17/MVICFG_8cpp.html#aca7226f27a892ce8314159fbd4eaeeb1" target="_top" xlink:title=" ">
<polygon fill="none" stroke="#000000" points="234,-67.5 234,-97.5 355,-97.5 355,-67.5 234,-67.5"/>
<text text-anchor="start" x="242" y="-85.5" font-family="Helvetica,sans-Serif" font-size="10.00" fill="#000000">hydrogen_framework</text>
<text text-anchor="middle" x="294.5" y="-74.5" font-family="Helvetica,sans-Serif" font-size="10.00" fill="#000000">::findMatchedLine</text>
</a>
</g>
</g>
<!-- Node5&#45;&gt;Node6 -->
<g id="edge1" class="edge">
<title>Node5&#45;&gt;Node6</title>
<path fill="none" stroke="#191970" d="M385.7057,-65.3674C375.3803,-67.307 365.0428,-69.2489 355.2306,-71.092"/>
<polygon fill="#191970" stroke="#191970" points="386.402,-68.7979 395.5839,-63.5119 385.1096,-61.9183 386.402,-68.7979"/>
</g>
<!-- Node11 -->
<g id="node7" class="node">
<title>Node11</title>
<g id="a_node7"><a xlink:href="../../db/d17/MVICFG_8cpp.html#a1d4ae9543ae0c613fedc7d032745b2c1" target="_top" xlink:title=" ">
<polygon fill="none" stroke="#000000" points="234,-.5 234,-30.5 355,-30.5 355,-.5 234,-.5"/>
<text text-anchor="start" x="242" y="-18.5" font-family="Helvetica,sans-Serif" font-size="10.00" fill="#000000">hydrogen_framework</text>
<text text-anchor="middle" x="294.5" y="-7.5" font-family="Helvetica,sans-Serif" font-size="10.00" fill="#000000">::getNewlyAdded</text>
</a>
</g>
</g>
<!-- Node5&#45;&gt;Node11 -->
<g id="edge12" class="edge">
<title>Node5&#45;&gt;Node11</title>
<path fill="none" stroke="#191970" d="M383.2876,-31.6878C373.7587,-29.9505 364.2551,-28.2178 355.1996,-26.5668"/>
<polygon fill="#191970" stroke="#191970" points="382.7436,-35.1462 393.2092,-33.4967 383.9992,-28.2597 382.7436,-35.1462"/>
</g>
<!-- Node6&#45;&gt;Node6 -->
<g id="edge8" class="edge">
<title>Node6&#45;&gt;Node6</title>
<path fill="none" stroke="#191970" d="M322.2193,-107.9579C318.779,-112.679 309.5392,-116 294.5,-116 269.8203,-116 260.7582,-107.0566 267.3138,-97.659"/>
<polygon fill="#191970" stroke="#191970" points="325.6986,-107.4647 321.6862,-97.659 318.7079,-107.8266 325.6986,-107.4647"/>
</g>
<!-- Node7 -->
<g id="node3" class="node">
<title>Node7</title>
<g id="a_node3"><a xlink:href="../../db/d17/MVICFG_8cpp.html#a40d68c502d0833e919395ded787b4599" target="_top" xlink:title=" ">
<polygon fill="none" stroke="#000000" points="77,-134.5 77,-164.5 198,-164.5 198,-134.5 77,-134.5"/>
<text text-anchor="start" x="85" y="-152.5" font-family="Helvetica,sans-Serif" font-size="10.00" fill="#000000">hydrogen_framework</text>
<text text-anchor="middle" x="137.5" y="-141.5" font-family="Helvetica,sans-Serif" font-size="10.00" fill="#000000">::addToMVICFG</text>
</a>
</g>
</g>
<!-- Node6&#45;&gt;Node7 -->
<g id="edge2" class="edge">
<title>Node6&#45;&gt;Node7</title>
<path fill="none" stroke="#191970" d="M252.0686,-101.8637C235.295,-109.3984 215.8056,-118.0051 198,-125.5 191.0222,-128.4372 183.5527,-131.4809 176.327,-134.3741"/>
<polygon fill="#191970" stroke="#191970" points="253.9196,-104.8685 261.5975,-97.5677 251.0426,-98.487 253.9196,-104.8685"/>
</g>
<!-- Node9 -->
<g id="node5" class="node">
<title>Node9</title>
<g id="a_node5"><a xlink:href="../../db/d17/MVICFG_8cpp.html#ac6a97f6b1392ad5517822076e830168f" target="_top" xlink:title=" ">
<polygon fill="none" stroke="#000000" points="77,-.5 77,-30.5 198,-30.5 198,-.5 77,-.5"/>
<text text-anchor="start" x="85" y="-18.5" font-family="Helvetica,sans-Serif" font-size="10.00" fill="#000000">hydrogen_framework</text>
<text text-anchor="middle" x="137.5" y="-7.5" font-family="Helvetica,sans-Serif" font-size="10.00" fill="#000000">::deleteFromMVICFG</text>
</a>
</g>
</g>
<!-- Node6&#45;&gt;Node9 -->
<g id="edge5" class="edge">
<title>Node6&#45;&gt;Node9</title>
<path fill="none" stroke="#191970" d="M248.3772,-63.5455C243.5177,-61.5172 238.6542,-59.4742 234,-57.5 213.3105,-48.7238 190.2252,-38.6853 171.8226,-30.6234"/>
<polygon fill="#191970" stroke="#191970" points="247.084,-66.7982 257.6614,-67.4058 249.7715,-60.3347 247.084,-66.7982"/>
</g>
<!-- Node10 -->
<g id="node6" class="node">
<title>Node10</title>
<g id="a_node6"><a xlink:href="../../db/d17/MVICFG_8cpp.html#a27bf2e73daf11e2ad6363e34bd06de89" target="_top" xlink:title=" ">
<polygon fill="none" stroke="#000000" points="77,-67.5 77,-97.5 198,-97.5 198,-67.5 77,-67.5"/>
<text text-anchor="start" x="85" y="-85.5" font-family="Helvetica,sans-Serif" font-size="10.00" fill="#000000">hydrogen_framework</text>
<text text-anchor="middle" x="137.5" y="-74.5" font-family="Helvetica,sans-Serif" font-size="10.00" fill="#000000">::matchedInMVICFG</text>
</a>
</g>
</g>
<!-- Node6&#45;&gt;Node10 -->
<g id="edge9" class="edge">
<title>Node6&#45;&gt;Node10</title>
<path fill="none" stroke="#191970" d="M223.7902,-82.5C215.193,-82.5 206.4699,-82.5 198.0389,-82.5"/>
<polygon fill="#191970" stroke="#191970" points="223.7997,-86.0001 233.7997,-82.5 223.7997,-79.0001 223.7997,-86.0001"/>
</g>
<!-- Node7&#45;&gt;Node7 -->
<g id="edge3" class="edge">
<title>Node7&#45;&gt;Node7</title>
<path fill="none" stroke="#191970" d="M158.1118,-174.9579C155.5536,-179.679 148.683,-183 137.5,-183 119.1484,-183 112.41,-174.0566 117.2846,-164.659"/>
<polygon fill="#191970" stroke="#191970" points="161.5975,-174.517 157.7154,-164.659 154.6027,-174.7863 161.5975,-174.517"/>
</g>
<!-- Node8 -->
<g id="node4" class="node">
<title>Node8</title>
<g id="a_node4"><a xlink:href="../../de/d64/Hydrogen_8cpp.html#a0ddf1224851353fc92bfbff6f499fa97" target="_top" xlink:title=" ">
<polygon fill="none" stroke="#000000" points="0,-73 0,-92 41,-92 41,-73 0,-73"/>
<text text-anchor="middle" x="20.5" y="-80" font-family="Helvetica,sans-Serif" font-size="10.00" fill="#000000">main</text>
</a>
</g>
</g>
<!-- Node7&#45;&gt;Node8 -->
<g id="edge4" class="edge">
<title>Node7&#45;&gt;Node8</title>
<path fill="none" stroke="#191970" d="M85.8837,-130.1552C82.8366,-128.6657 79.8533,-127.1114 77,-125.5 59.8267,-115.8014 42.0497,-101.4291 31.132,-92.0139"/>
<polygon fill="#191970" stroke="#191970" points="84.6033,-133.4188 95.1506,-134.4214 87.5306,-127.0602 84.6033,-133.4188"/>
</g>
<!-- Node9&#45;&gt;Node8 -->
<g id="edge7" class="edge">
<title>Node9&#45;&gt;Node8</title>
<path fill="none" stroke="#191970" d="M102.3577,-35.6242C80.802,-47.9681 54.1837,-63.211 37.271,-72.8961"/>
<polygon fill="#191970" stroke="#191970" points="104.3043,-38.5428 111.2429,-30.5361 100.8257,-32.4683 104.3043,-38.5428"/>
</g>
<!-- Node9&#45;&gt;Node9 -->
<g id="edge6" class="edge">
<title>Node9&#45;&gt;Node9</title>
<path fill="none" stroke="#191970" d="M158.1118,-40.9579C155.5536,-45.679 148.683,-49 137.5,-49 119.1484,-49 112.41,-40.0566 117.2846,-30.659"/>
<polygon fill="#191970" stroke="#191970" points="161.5975,-40.517 157.7154,-30.659 154.6027,-40.7863 161.5975,-40.517"/>
</g>
<!-- Node10&#45;&gt;Node8 -->
<g id="edge10" class="edge">
<title>Node10&#45;&gt;Node8</title>
<path fill="none" stroke="#191970" d="M66.7111,-82.5C57.3948,-82.5 48.514,-82.5 41.0724,-82.5"/>
<polygon fill="#191970" stroke="#191970" points="66.9438,-86.0001 76.9437,-82.5 66.9437,-79.0001 66.9438,-86.0001"/>
</g>
<!-- Node10&#45;&gt;Node10 -->
<g id="edge11" class="edge">
<title>Node10&#45;&gt;Node10</title>
<path fill="none" stroke="#191970" d="M158.1118,-107.9579C155.5536,-112.679 148.683,-116 137.5,-116 119.1484,-116 112.41,-107.0566 117.2846,-97.659"/>
<polygon fill="#191970" stroke="#191970" points="161.5975,-107.517 157.7154,-97.659 154.6027,-107.7863 161.5975,-107.517"/>
</g>
<!-- Node11&#45;&gt;Node9 -->
<g id="edge13" class="edge">
<title>Node11&#45;&gt;Node9</title>
<path fill="none" stroke="#191970" d="M223.7902,-15.5C215.193,-15.5 206.4699,-15.5 198.0389,-15.5"/>
<polygon fill="#191970" stroke="#191970" points="223.7997,-19.0001 233.7997,-15.5 223.7997,-12.0001 223.7997,-19.0001"/>
</g>
<!-- Node11&#45;&gt;Node11 -->
<g id="edge14" class="edge">
<title>Node11&#45;&gt;Node11</title>
<path fill="none" stroke="#191970" d="M322.2193,-40.9579C318.779,-45.679 309.5392,-49 294.5,-49 269.8203,-49 260.7582,-40.0566 267.3138,-30.659"/>
<polygon fill="#191970" stroke="#191970" points="325.6986,-40.4647 321.6862,-30.659 318.7079,-40.8266 325.6986,-40.4647"/>
</g>
</g>
</svg>
