<?xml version="1.0" encoding="UTF-8" standalone="no"?>
<!DOCTYPE svg PUBLIC "-//W3C//DTD SVG 1.1//EN"
 "http://www.w3.org/Graphics/SVG/1.1/DTD/svg11.dtd">
<!-- Generated by graphviz version 2.40.1 (20161225.0304)
 -->
<!-- Title: hydrogen_framework::Graph_Line::getLineInstructions Pages: 1 -->
<svg width="971pt" height="468pt"
 viewBox="0.00 0.00 971.00 468.27" xmlns="http://www.w3.org/2000/svg" xmlns:xlink="http://www.w3.org/1999/xlink">
<g id="graph0" class="graph" transform="scale(1 1) rotate(0) translate(4 464.2682)">
<title>hydrogen_framework::Graph_Line::getLineInstructions</title>
<!-- Node15 -->
<g id="node1" class="node">
<title>Node15</title>
<g id="a_node1"><a xlink:title=" ">
<polygon fill="#bfbfbf" stroke="#000000" points="787,-206.7682 787,-236.7682 963,-236.7682 963,-206.7682 787,-206.7682"/>
<text text-anchor="start" x="795" y="-224.7682" font-family="Helvetica,sans-Serif" font-size="10.00" fill="#000000">hydrogen_framework</text>
<text text-anchor="middle" x="875" y="-213.7682" font-family="Helvetica,sans-Serif" font-size="10.00" fill="#000000">::Graph_Line::getLineInstructions</text>
</a>
</g>
</g>
<!-- Node16 -->
<g id="node2" class="node">
<title>Node16</title>
<g id="a_node2"><a xlink:href="../../d4/d7a/classhydrogen__framework_1_1Graph.html#a184878f1c0abbef7b5fb17548cb8d146" target="_top" xlink:title=" ">
<polygon fill="none" stroke="#000000" points="617,-411.7682 617,-441.7682 740,-441.7682 740,-411.7682 617,-411.7682"/>
<text text-anchor="start" x="625" y="-429.7682" font-family="Helvetica,sans-Serif" font-size="10.00" fill="#000000">hydrogen_framework</text>
<text text-anchor="middle" x="678.5" y="-418.7682" font-family="Helvetica,sans-Serif" font-size="10.00" fill="#000000">::Graph::addSeqEdges</text>
</a>
</g>
</g>
<!-- Node15&#45;&gt;Node16 -->
<g id="edge1" class="edge">
<title>Node15&#45;&gt;Node16</title>
<path fill="none" stroke="#191970" d="M863.5376,-245.8947C844.8039,-283.0037 804.3084,-354.2438 751,-396.7682 743.5459,-402.7144 734.7475,-407.6518 725.8974,-411.6876"/>
<polygon fill="#191970" stroke="#191970" points="866.7353,-247.3241 868.0321,-236.8089 860.461,-244.2203 866.7353,-247.3241"/>
</g>
<!-- Node19 -->
<g id="node5" class="node">
<title>Node19</title>
<g id="a_node5"><a xlink:href="../../db/d17/MVICFG_8cpp.html#a40d68c502d0833e919395ded787b4599" target="_top" xlink:title=" ">
<polygon fill="none" stroke="#000000" points="77,-271.7682 77,-301.7682 198,-301.7682 198,-271.7682 77,-271.7682"/>
<text text-anchor="start" x="85" y="-289.7682" font-family="Helvetica,sans-Serif" font-size="10.00" fill="#000000">hydrogen_framework</text>
<text text-anchor="middle" x="137.5" y="-278.7682" font-family="Helvetica,sans-Serif" font-size="10.00" fill="#000000">::addToMVICFG</text>
</a>
</g>
</g>
<!-- Node15&#45;&gt;Node19 -->
<g id="edge5" class="edge">
<title>Node15&#45;&gt;Node19</title>
<path fill="none" stroke="#191970" d="M832.9539,-240.9525C809.2244,-251.2978 778.8325,-263.7537 751,-272.7682 586.6078,-326.0124 544.5956,-343.4041 373,-363.7682 311.6527,-371.0486 290.7506,-388.1785 234,-363.7682 212.6287,-354.5757 215.9055,-340.6218 198,-325.7682 187.4201,-316.9916 174.7621,-308.5568 163.7653,-301.7905"/>
<polygon fill="#191970" stroke="#191970" points="834.6172,-244.0445 842.3586,-236.8112 831.7961,-237.6381 834.6172,-244.0445"/>
</g>
<!-- Node20 -->
<g id="node6" class="node">
<title>Node20</title>
<g id="a_node6"><a xlink:href="../../db/d17/MVICFG_8cpp.html#ac6a97f6b1392ad5517822076e830168f" target="_top" xlink:title=" ">
<polygon fill="none" stroke="#000000" points="77,-204.7682 77,-234.7682 198,-234.7682 198,-204.7682 77,-204.7682"/>
<text text-anchor="start" x="85" y="-222.7682" font-family="Helvetica,sans-Serif" font-size="10.00" fill="#000000">hydrogen_framework</text>
<text text-anchor="middle" x="137.5" y="-211.7682" font-family="Helvetica,sans-Serif" font-size="10.00" fill="#000000">::deleteFromMVICFG</text>
</a>
</g>
</g>
<!-- Node15&#45;&gt;Node20 -->
<g id="edge8" class="edge">
<title>Node15&#45;&gt;Node20</title>
<path fill="none" stroke="#191970" d="M827.4408,-203.3115C718.2689,-163.8966 443.0276,-81.4599 234,-162.7682 213.7714,-170.6368 216.3921,-184.2424 198,-195.7682 192.7338,-199.0684 186.9378,-202.0583 181.0829,-204.719"/>
<polygon fill="#191970" stroke="#191970" points="826.2715,-206.6106 836.8653,-206.757 828.6751,-200.0361 826.2715,-206.6106"/>
</g>
<!-- Node21 -->
<g id="node7" class="node">
<title>Node21</title>
<g id="a_node7"><a xlink:href="../../db/d17/MVICFG_8cpp.html#a107ab967667e37747c5b7687e6baccec" target="_top" xlink:title=" ">
<polygon fill="none" stroke="#000000" points="606,-60.2682 606,-101.2682 751,-101.2682 751,-60.2682 606,-60.2682"/>
<text text-anchor="start" x="614" y="-89.2682" font-family="Helvetica,sans-Serif" font-size="10.00" fill="#000000">hydrogen_framework</text>
<text text-anchor="start" x="614" y="-78.2682" font-family="Helvetica,sans-Serif" font-size="10.00" fill="#000000">::getGraphLineInstructions</text>
<text text-anchor="middle" x="678.5" y="-67.2682" font-family="Helvetica,sans-Serif" font-size="10.00" fill="#000000">AsString</text>
</a>
</g>
</g>
<!-- Node15&#45;&gt;Node21 -->
<g id="edge11" class="edge">
<title>Node15&#45;&gt;Node21</title>
<path fill="none" stroke="#191970" d="M845.5335,-200.6243C808.2051,-173.8391 744.2935,-127.9788 707.2898,-101.4266"/>
<polygon fill="#191970" stroke="#191970" points="843.8058,-203.6924 853.9711,-206.6787 847.8868,-198.0051 843.8058,-203.6924"/>
</g>
<!-- Node23 -->
<g id="node9" class="node">
<title>Node23</title>
<g id="a_node9"><a xlink:href="../../db/d17/MVICFG_8cpp.html#a27bf2e73daf11e2ad6363e34bd06de89" target="_top" xlink:title=" ">
<polygon fill="none" stroke="#000000" points="77,-137.7682 77,-167.7682 198,-167.7682 198,-137.7682 77,-137.7682"/>
<text text-anchor="start" x="85" y="-155.7682" font-family="Helvetica,sans-Serif" font-size="10.00" fill="#000000">hydrogen_framework</text>
<text text-anchor="middle" x="137.5" y="-144.7682" font-family="Helvetica,sans-Serif" font-size="10.00" fill="#000000">::matchedInMVICFG</text>
</a>
</g>
</g>
<!-- Node15&#45;&gt;Node23 -->
<g id="edge38" class="edge">
<title>Node15&#45;&gt;Node23</title>
<path fill="none" stroke="#191970" d="M864.4104,-197.2574C846.7331,-159.4346 807.4938,-87.392 751,-50.7682 682.0273,-6.0545 651.7586,-21.2581 570,-12.7682 420.1972,2.7874 365.1058,17.3542 234,-56.7682 197.1769,-77.5867 164.6691,-116.2269 148.445,-137.5879"/>
<polygon fill="#191970" stroke="#191970" points="861.3016,-198.876 868.6298,-206.5276 867.6727,-195.9761 861.3016,-198.876"/>
</g>
<!-- Node25 -->
<g id="node11" class="node">
<title>Node25</title>
<g id="a_node11"><a xlink:href="../../db/d17/MVICFG_8cpp.html#a8c55b276e33d536dd4b0e230b5be7308" target="_top" xlink:title=" ">
<polygon fill="none" stroke="#000000" points="243,-305.7682 243,-335.7682 364,-335.7682 364,-305.7682 243,-305.7682"/>
<text text-anchor="start" x="251" y="-323.7682" font-family="Helvetica,sans-Serif" font-size="10.00" fill="#000000">hydrogen_framework</text>
<text text-anchor="middle" x="303.5" y="-312.7682" font-family="Helvetica,sans-Serif" font-size="10.00" fill="#000000">::getInBetweenEdge</text>
</a>
</g>
</g>
<!-- Node15&#45;&gt;Node25 -->
<g id="edge23" class="edge">
<title>Node15&#45;&gt;Node25</title>
<path fill="none" stroke="#191970" d="M792.612,-238.7991C778.7372,-241.5466 764.4708,-244.2973 751,-246.7682 612.9386,-272.0928 450.1822,-298.0275 364.0553,-311.4448"/>
<polygon fill="#191970" stroke="#191970" points="793.5057,-242.1899 802.6289,-236.8031 792.1377,-235.3249 793.5057,-242.1899"/>
</g>
<!-- Node26 -->
<g id="node12" class="node">
<title>Node26</title>
<g id="a_node12"><a xlink:href="../../db/d17/MVICFG_8cpp.html#ae3d8d56d8de87926a4b050f28a5a1fe1" target="_top" xlink:title=" ">
<polygon fill="none" stroke="#000000" points="234.5,-238.7682 234.5,-268.7682 372.5,-268.7682 372.5,-238.7682 234.5,-238.7682"/>
<text text-anchor="start" x="242.5" y="-256.7682" font-family="Helvetica,sans-Serif" font-size="10.00" fill="#000000">hydrogen_framework</text>
<text text-anchor="middle" x="303.5" y="-245.7682" font-family="Helvetica,sans-Serif" font-size="10.00" fill="#000000">::getPredGivenGraphLine</text>
</a>
</g>
</g>
<!-- Node15&#45;&gt;Node26 -->
<g id="edge28" class="edge">
<title>Node15&#45;&gt;Node26</title>
<path fill="none" stroke="#191970" d="M776.7311,-227.2706C661.5638,-233.7191 473.667,-244.2401 372.7653,-249.8898"/>
<polygon fill="#191970" stroke="#191970" points="777.1669,-230.7518 786.9556,-226.6981 776.7755,-223.7627 777.1669,-230.7518"/>
</g>
<!-- Node27 -->
<g id="node13" class="node">
<title>Node27</title>
<g id="a_node13"><a xlink:href="../../db/d17/MVICFG_8cpp.html#aea56e0949bba61be541008db2bd160a6" target="_top" xlink:title=" ">
<polygon fill="none" stroke="#000000" points="234,-171.7682 234,-201.7682 373,-201.7682 373,-171.7682 234,-171.7682"/>
<text text-anchor="start" x="242" y="-189.7682" font-family="Helvetica,sans-Serif" font-size="10.00" fill="#000000">hydrogen_framework</text>
<text text-anchor="middle" x="303.5" y="-178.7682" font-family="Helvetica,sans-Serif" font-size="10.00" fill="#000000">::getSuccGivenGraphLine</text>
</a>
</g>
</g>
<!-- Node15&#45;&gt;Node27 -->
<g id="edge33" class="edge">
<title>Node15&#45;&gt;Node27</title>
<path fill="none" stroke="#191970" d="M776.7454,-215.7509C661.7424,-208.7078 474.2028,-197.2225 373.1942,-191.0364"/>
<polygon fill="#191970" stroke="#191970" points="776.7603,-219.2583 786.9556,-216.3762 777.1883,-212.2713 776.7603,-219.2583"/>
</g>
<!-- Node17 -->
<g id="node3" class="node">
<title>Node17</title>
<g id="a_node3"><a xlink:href="../../db/d17/MVICFG_8cpp.html#a8abab0f2232beace9b14c3c7dfa368dd" target="_top" xlink:title=" ">
<polygon fill="none" stroke="#000000" points="429,-411.7682 429,-441.7682 550,-441.7682 550,-411.7682 429,-411.7682"/>
<text text-anchor="start" x="437" y="-429.7682" font-family="Helvetica,sans-Serif" font-size="10.00" fill="#000000">hydrogen_framework</text>
<text text-anchor="middle" x="489.5" y="-418.7682" font-family="Helvetica,sans-Serif" font-size="10.00" fill="#000000">::buildICFG</text>
</a>
</g>
</g>
<!-- Node16&#45;&gt;Node17 -->
<g id="edge2" class="edge">
<title>Node16&#45;&gt;Node17</title>
<path fill="none" stroke="#191970" d="M606.6585,-426.7682C587.9994,-426.7682 568.0878,-426.7682 550.073,-426.7682"/>
<polygon fill="#191970" stroke="#191970" points="606.8759,-430.2683 616.8759,-426.7682 606.8758,-423.2683 606.8759,-430.2683"/>
</g>
<!-- Node17&#45;&gt;Node17 -->
<g id="edge3" class="edge">
<title>Node17&#45;&gt;Node17</title>
<path fill="none" stroke="#191970" d="M522.55,-452.2261C518.448,-456.9472 507.4313,-460.2682 489.5,-460.2682 460.0742,-460.2682 449.2694,-451.3248 457.0857,-441.9272"/>
<polygon fill="#191970" stroke="#191970" points="526.0238,-451.6926 521.9143,-441.9272 519.0371,-452.1239 526.0238,-451.6926"/>
</g>
<!-- Node18 -->
<g id="node4" class="node">
<title>Node18</title>
<g id="a_node4"><a xlink:href="../../de/d64/Hydrogen_8cpp.html#a0ddf1224851353fc92bfbff6f499fa97" target="_top" xlink:title=" ">
<polygon fill="none" stroke="#000000" points="0,-243.2682 0,-262.2682 41,-262.2682 41,-243.2682 0,-243.2682"/>
<text text-anchor="middle" x="20.5" y="-250.2682" font-family="Helvetica,sans-Serif" font-size="10.00" fill="#000000">main</text>
</a>
</g>
</g>
<!-- Node17&#45;&gt;Node18 -->
<g id="edge4" class="edge">
<title>Node17&#45;&gt;Node18</title>
<path fill="none" stroke="#191970" d="M418.4595,-427.718C329.4433,-425.2869 176.5208,-408.7047 77,-329.7682 52.7076,-310.5003 33.7573,-278.2956 25.3067,-262.335"/>
<polygon fill="#191970" stroke="#191970" points="418.6507,-431.223 428.7251,-427.9432 418.8043,-424.2246 418.6507,-431.223"/>
</g>
<!-- Node19&#45;&gt;Node18 -->
<g id="edge7" class="edge">
<title>Node19&#45;&gt;Node18</title>
<path fill="none" stroke="#191970" d="M76.173,-268.9467C63.5232,-265.2707 51.0501,-261.646 41.1269,-258.7624"/>
<polygon fill="#191970" stroke="#191970" points="75.262,-272.3267 85.8415,-271.7563 77.2155,-265.6048 75.262,-272.3267"/>
</g>
<!-- Node19&#45;&gt;Node19 -->
<g id="edge6" class="edge">
<title>Node19&#45;&gt;Node19</title>
<path fill="none" stroke="#191970" d="M158.1118,-312.2261C155.5536,-316.9472 148.683,-320.2682 137.5,-320.2682 119.1484,-320.2682 112.41,-311.3248 117.2846,-301.9272"/>
<polygon fill="#191970" stroke="#191970" points="161.5975,-311.7852 157.7154,-301.9272 154.6027,-312.0545 161.5975,-311.7852"/>
</g>
<!-- Node20&#45;&gt;Node18 -->
<g id="edge10" class="edge">
<title>Node20&#45;&gt;Node18</title>
<path fill="none" stroke="#191970" d="M74.4251,-237.5586C62.3374,-240.9679 50.5117,-244.3034 41.0294,-246.9779"/>
<polygon fill="#191970" stroke="#191970" points="75.4614,-240.9029 84.1357,-234.8197 73.5611,-234.1658 75.4614,-240.9029"/>
</g>
<!-- Node20&#45;&gt;Node20 -->
<g id="edge9" class="edge">
<title>Node20&#45;&gt;Node20</title>
<path fill="none" stroke="#191970" d="M158.1118,-245.2261C155.5536,-249.9472 148.683,-253.2682 137.5,-253.2682 119.1484,-253.2682 112.41,-244.3248 117.2846,-234.9272"/>
<polygon fill="#191970" stroke="#191970" points="161.5975,-244.7852 157.7154,-234.9272 154.6027,-245.0545 161.5975,-244.7852"/>
</g>
<!-- Node21&#45;&gt;Node21 -->
<g id="edge19" class="edge">
<title>Node21&#45;&gt;Node21</title>
<path fill="none" stroke="#191970" d="M710.8443,-111.6243C706.0344,-116.4648 695.2529,-119.7682 678.5,-119.7682 651.6953,-119.7682 640.1777,-111.3115 643.9471,-101.6326"/>
<polygon fill="#191970" stroke="#191970" points="714.312,-112.1524 713.0529,-101.6326 707.477,-110.6415 714.312,-112.1524"/>
</g>
<!-- Node22 -->
<g id="node8" class="node">
<title>Node22</title>
<g id="a_node8"><a xlink:href="../../db/d17/MVICFG_8cpp.html#aca7226f27a892ce8314159fbd4eaeeb1" target="_top" xlink:title=" ">
<polygon fill="none" stroke="#000000" points="243,-65.7682 243,-95.7682 364,-95.7682 364,-65.7682 243,-65.7682"/>
<text text-anchor="start" x="251" y="-83.7682" font-family="Helvetica,sans-Serif" font-size="10.00" fill="#000000">hydrogen_framework</text>
<text text-anchor="middle" x="303.5" y="-72.7682" font-family="Helvetica,sans-Serif" font-size="10.00" fill="#000000">::findMatchedLine</text>
</a>
</g>
</g>
<!-- Node21&#45;&gt;Node22 -->
<g id="edge12" class="edge">
<title>Node21&#45;&gt;Node22</title>
<path fill="none" stroke="#191970" d="M595.7396,-89.188C587.0561,-89.8345 578.3529,-90.3841 570,-90.7682 498.52,-94.0553 480.4757,-94.1481 409,-90.7682 394.4817,-90.0817 378.8772,-88.8666 364.2394,-87.5145"/>
<polygon fill="#191970" stroke="#191970" points="596.2073,-92.6621 605.9021,-88.3887 595.6584,-85.6837 596.2073,-92.6621"/>
</g>
<!-- Node24 -->
<g id="node10" class="node">
<title>Node24</title>
<g id="a_node10"><a xlink:href="../../db/d17/MVICFG_8cpp.html#aba1f11ef6a3442c674bce54fb19a092e" target="_top" xlink:title=" ">
<polygon fill="none" stroke="#000000" points="409,-22.2682 409,-63.2682 570,-63.2682 570,-22.2682 409,-22.2682"/>
<text text-anchor="start" x="417" y="-51.2682" font-family="Helvetica,sans-Serif" font-size="10.00" fill="#000000">hydrogen_framework</text>
<text text-anchor="start" x="417" y="-40.2682" font-family="Helvetica,sans-Serif" font-size="10.00" fill="#000000">::resolveMatchedLinesWithNo</text>
<text text-anchor="middle" x="489.5" y="-29.2682" font-family="Helvetica,sans-Serif" font-size="10.00" fill="#000000">ExtactStringMatch</text>
</a>
</g>
</g>
<!-- Node21&#45;&gt;Node24 -->
<g id="edge20" class="edge">
<title>Node21&#45;&gt;Node24</title>
<path fill="none" stroke="#191970" d="M595.9463,-64.1701C587.3417,-62.4401 578.6029,-60.6831 570.0213,-58.9577"/>
<polygon fill="#191970" stroke="#191970" points="595.4745,-67.6452 605.9682,-66.1851 596.8543,-60.7826 595.4745,-67.6452"/>
</g>
<!-- Node22&#45;&gt;Node19 -->
<g id="edge13" class="edge">
<title>Node22&#45;&gt;Node19</title>
<path fill="none" stroke="#191970" d="M280.4607,-103.3612C265.5955,-118.9484 246.729,-140.7574 234,-162.7682 210.3523,-203.6595 230.8611,-228.8351 198,-262.7682 194.6984,-266.1775 190.8518,-269.1141 186.7277,-271.6413"/>
<polygon fill="#191970" stroke="#191970" points="283.3462,-105.415 287.8159,-95.8091 278.3314,-100.531 283.3462,-105.415"/>
</g>
<!-- Node22&#45;&gt;Node20 -->
<g id="edge14" class="edge">
<title>Node22&#45;&gt;Node20</title>
<path fill="none" stroke="#191970" d="M266.8534,-101.3738C255.4098,-108.9754 243.3481,-118.3164 234,-128.7682 211.4643,-153.9646 223.2417,-173.2833 198,-195.7682 194.2031,-199.1504 189.8716,-202.0852 185.3109,-204.6252"/>
<polygon fill="#191970" stroke="#191970" points="268.8758,-104.2354 275.4288,-95.9102 265.1144,-98.3318 268.8758,-104.2354"/>
</g>
<!-- Node22&#45;&gt;Node22 -->
<g id="edge15" class="edge">
<title>Node22&#45;&gt;Node22</title>
<path fill="none" stroke="#191970" d="M332.9962,-106.2261C329.3353,-110.9472 319.5032,-114.2682 303.5,-114.2682 277.2383,-114.2682 267.5953,-105.3248 274.5711,-95.9272"/>
<polygon fill="#191970" stroke="#191970" points="336.4737,-105.7196 332.4289,-95.9272 329.4843,-106.1046 336.4737,-105.7196"/>
</g>
<!-- Node22&#45;&gt;Node23 -->
<g id="edge16" class="edge">
<title>Node22&#45;&gt;Node23</title>
<path fill="none" stroke="#191970" d="M259.381,-99.9041C232.1026,-111.7358 197.5854,-126.7071 172.2532,-137.6945"/>
<polygon fill="#191970" stroke="#191970" points="260.9195,-103.052 268.701,-95.8618 258.134,-96.63 260.9195,-103.052"/>
</g>
<!-- Node23&#45;&gt;Node18 -->
<g id="edge17" class="edge">
<title>Node23&#45;&gt;Node18</title>
<path fill="none" stroke="#191970" d="M105.9133,-173.6807C96.3653,-180.4056 86.0256,-188.1064 77,-195.7682 58.942,-211.0975 39.952,-231.2034 29.231,-242.9821"/>
<polygon fill="#191970" stroke="#191970" points="108.1677,-176.377 114.3989,-167.8083 104.1842,-170.6209 108.1677,-176.377"/>
</g>
<!-- Node23&#45;&gt;Node23 -->
<g id="edge18" class="edge">
<title>Node23&#45;&gt;Node23</title>
<path fill="none" stroke="#191970" d="M158.1118,-178.2261C155.5536,-182.9472 148.683,-186.2682 137.5,-186.2682 119.1484,-186.2682 112.41,-177.3248 117.2846,-167.9272"/>
<polygon fill="#191970" stroke="#191970" points="161.5975,-177.7852 157.7154,-167.9272 154.6027,-178.0545 161.5975,-177.7852"/>
</g>
<!-- Node24&#45;&gt;Node22 -->
<g id="edge21" class="edge">
<title>Node24&#45;&gt;Node22</title>
<path fill="none" stroke="#191970" d="M399.0947,-61.2381C387.2676,-63.6544 375.3845,-66.0821 364.2113,-68.3648"/>
<polygon fill="#191970" stroke="#191970" points="399.9025,-64.6455 408.9995,-59.2146 398.5012,-57.7871 399.9025,-64.6455"/>
</g>
<!-- Node24&#45;&gt;Node24 -->
<g id="edge22" class="edge">
<title>Node24&#45;&gt;Node24</title>
<path fill="none" stroke="#191970" d="M521.5002,-73.6243C516.7414,-78.4648 506.0747,-81.7682 489.5,-81.7682 462.9805,-81.7682 451.5854,-73.3115 455.3147,-63.6326"/>
<polygon fill="#191970" stroke="#191970" points="524.968,-74.1495 523.6853,-63.6326 518.1296,-72.6539 524.968,-74.1495"/>
</g>
<!-- Node25&#45;&gt;Node19 -->
<g id="edge24" class="edge">
<title>Node25&#45;&gt;Node19</title>
<path fill="none" stroke="#191970" d="M232.6287,-306.2524C221.1286,-303.897 209.311,-301.4765 198.0849,-299.1772"/>
<polygon fill="#191970" stroke="#191970" points="232.1314,-309.7231 242.6303,-308.3009 233.536,-302.8655 232.1314,-309.7231"/>
</g>
<!-- Node25&#45;&gt;Node20 -->
<g id="edge25" class="edge">
<title>Node25&#45;&gt;Node20</title>
<path fill="none" stroke="#191970" d="M242.7026,-301.5371C239.7031,-300.0435 236.7841,-298.4548 234,-296.7682 215.1767,-285.3652 215.0103,-276.7323 198,-262.7682 185.9484,-252.8749 171.7734,-242.7274 160.1747,-234.7763"/>
<polygon fill="#191970" stroke="#191970" points="241.3378,-304.7615 251.8878,-305.7354 244.2477,-298.395 241.3378,-304.7615"/>
</g>
<!-- Node25&#45;&gt;Node23 -->
<g id="edge27" class="edge">
<title>Node25&#45;&gt;Node23</title>
<path fill="none" stroke="#191970" d="M237.3734,-299.8281C236.2039,-298.854 235.0772,-297.8348 234,-296.7682 200.1364,-263.238 226.7509,-233.7735 198,-195.7682 189.5259,-184.5665 177.3,-175.1083 166.0535,-167.9396"/>
<polygon fill="#191970" stroke="#191970" points="235.4408,-302.7476 245.6381,-305.6225 239.4593,-297.0159 235.4408,-302.7476"/>
</g>
<!-- Node25&#45;&gt;Node25 -->
<g id="edge26" class="edge">
<title>Node25&#45;&gt;Node25</title>
<path fill="none" stroke="#191970" d="M332.9962,-346.2261C329.3353,-350.9472 319.5032,-354.2682 303.5,-354.2682 277.2383,-354.2682 267.5953,-345.3248 274.5711,-335.9272"/>
<polygon fill="#191970" stroke="#191970" points="336.4737,-345.7196 332.4289,-335.9272 329.4843,-346.1046 336.4737,-345.7196"/>
</g>
<!-- Node26&#45;&gt;Node19 -->
<g id="edge29" class="edge">
<title>Node26&#45;&gt;Node19</title>
<path fill="none" stroke="#191970" d="M224.2319,-269.5263C215.4852,-271.2651 206.6831,-273.0149 198.2153,-274.6983"/>
<polygon fill="#191970" stroke="#191970" points="224.9373,-272.9547 234.0629,-267.572 223.5724,-266.089 224.9373,-272.9547"/>
</g>
<!-- Node26&#45;&gt;Node20 -->
<g id="edge30" class="edge">
<title>Node26&#45;&gt;Node20</title>
<path fill="none" stroke="#191970" d="M224.2319,-237.5326C215.4852,-235.7411 206.6831,-233.9383 198.2153,-232.2039"/>
<polygon fill="#191970" stroke="#191970" points="223.5639,-240.9684 234.0629,-239.5462 224.9686,-234.1107 223.5639,-240.9684"/>
</g>
<!-- Node26&#45;&gt;Node23 -->
<g id="edge32" class="edge">
<title>Node26&#45;&gt;Node23</title>
<path fill="none" stroke="#191970" d="M242.7026,-234.5371C239.7031,-233.0435 236.7841,-231.4548 234,-229.7682 215.1767,-218.3652 215.0103,-209.7323 198,-195.7682 185.9484,-185.8749 171.7734,-175.7274 160.1747,-167.7763"/>
<polygon fill="#191970" stroke="#191970" points="241.3378,-237.7615 251.8878,-238.7354 244.2477,-231.395 241.3378,-237.7615"/>
</g>
<!-- Node26&#45;&gt;Node26 -->
<g id="edge31" class="edge">
<title>Node26&#45;&gt;Node26</title>
<path fill="none" stroke="#191970" d="M332.9962,-279.2261C329.3353,-283.9472 319.5032,-287.2682 303.5,-287.2682 277.2383,-287.2682 267.5953,-278.3248 274.5711,-268.9272"/>
<polygon fill="#191970" stroke="#191970" points="336.4737,-278.7196 332.4289,-268.9272 329.4843,-279.1046 336.4737,-278.7196"/>
</g>
<!-- Node27&#45;&gt;Node19 -->
<g id="edge34" class="edge">
<title>Node27&#45;&gt;Node19</title>
<path fill="none" stroke="#191970" d="M267.9686,-206.9839C256.8024,-213.7991 244.6222,-221.7265 234,-229.7682 216.6947,-242.8693 216.3921,-251.2424 198,-262.7682 192.7338,-266.0684 186.9378,-269.0583 181.0829,-271.719"/>
<polygon fill="#191970" stroke="#191970" points="269.8795,-209.9192 276.6571,-201.7758 266.2805,-203.9152 269.8795,-209.9192"/>
</g>
<!-- Node27&#45;&gt;Node20 -->
<g id="edge35" class="edge">
<title>Node27&#45;&gt;Node20</title>
<path fill="none" stroke="#191970" d="M223.575,-202.6569C215.0147,-204.3587 206.4108,-206.0691 198.128,-207.7157"/>
<polygon fill="#191970" stroke="#191970" points="224.4566,-206.0502 233.5822,-200.6675 223.0916,-199.1846 224.4566,-206.0502"/>
</g>
<!-- Node27&#45;&gt;Node23 -->
<g id="edge37" class="edge">
<title>Node27&#45;&gt;Node23</title>
<path fill="none" stroke="#191970" d="M223.575,-170.398C215.0147,-168.6447 206.4108,-166.8825 198.128,-165.186"/>
<polygon fill="#191970" stroke="#191970" points="223.0832,-173.8699 233.5822,-172.4477 224.4879,-167.0123 223.0832,-173.8699"/>
</g>
<!-- Node27&#45;&gt;Node27 -->
<g id="edge36" class="edge">
<title>Node27&#45;&gt;Node27</title>
<path fill="none" stroke="#191970" d="M332.9962,-212.2261C329.3353,-216.9472 319.5032,-220.2682 303.5,-220.2682 277.2383,-220.2682 267.5953,-211.3248 274.5711,-201.9272"/>
<polygon fill="#191970" stroke="#191970" points="336.4737,-211.7196 332.4289,-201.9272 329.4843,-212.1046 336.4737,-211.7196"/>
</g>
</g>
</svg>
