<?xml version="1.0" encoding="UTF-8" standalone="no"?>
<!DOCTYPE svg PUBLIC "-//W3C//DTD SVG 1.1//EN"
 "http://www.w3.org/Graphics/SVG/1.1/DTD/svg11.dtd">
<!-- Generated by graphviz version 2.40.1 (20161225.0304)
 -->
<!-- Title: hydrogen_framework::Graph_Line::getLineNumber Pages: 1 -->
<svg width="772pt" height="377pt"
 viewBox="0.00 0.00 772.00 376.90" xmlns="http://www.w3.org/2000/svg" xmlns:xlink="http://www.w3.org/1999/xlink">
<g id="graph0" class="graph" transform="scale(1 1) rotate(0) translate(4 372.897)">
<title>hydrogen_framework::Graph_Line::getLineNumber</title>
<!-- Node29 -->
<g id="node1" class="node">
<title>Node29</title>
<g id="a_node1"><a xlink:title=" ">
<polygon fill="#bfbfbf" stroke="#000000" points="606,-172.397 606,-202.397 764,-202.397 764,-172.397 606,-172.397"/>
<text text-anchor="start" x="614" y="-190.397" font-family="Helvetica,sans-Serif" font-size="10.00" fill="#000000">hydrogen_framework</text>
<text text-anchor="middle" x="685" y="-179.397" font-family="Helvetica,sans-Serif" font-size="10.00" fill="#000000">::Graph_Line::getLineNumber</text>
</a>
</g>
</g>
<!-- Node30 -->
<g id="node2" class="node">
<title>Node30</title>
<g id="a_node2"><a xlink:href="../../db/d17/MVICFG_8cpp.html#a8abab0f2232beace9b14c3c7dfa368dd" target="_top" xlink:title=" ">
<polygon fill="none" stroke="#000000" points="252,-320.397 252,-350.397 373,-350.397 373,-320.397 252,-320.397"/>
<text text-anchor="start" x="260" y="-338.397" font-family="Helvetica,sans-Serif" font-size="10.00" fill="#000000">hydrogen_framework</text>
<text text-anchor="middle" x="312.5" y="-327.397" font-family="Helvetica,sans-Serif" font-size="10.00" fill="#000000">::buildICFG</text>
</a>
</g>
</g>
<!-- Node29&#45;&gt;Node30 -->
<g id="edge1" class="edge">
<title>Node29&#45;&gt;Node30</title>
<path fill="none" stroke="#191970" d="M663.6592,-209.9517C642.0756,-231.3838 606.7376,-262.8666 570,-280.397 506.7739,-310.5672 426.9682,-324.3255 373.0909,-330.5095"/>
<polygon fill="#191970" stroke="#191970" points="666.4283,-212.1289 670.9658,-202.5549 661.4482,-207.2096 666.4283,-212.1289"/>
</g>
<!-- Node32 -->
<g id="node4" class="node">
<title>Node32</title>
<g id="a_node4"><a xlink:href="../../db/d17/MVICFG_8cpp.html#aca7226f27a892ce8314159fbd4eaeeb1" target="_top" xlink:title=" ">
<polygon fill="none" stroke="#000000" points="252,-201.397 252,-231.397 373,-231.397 373,-201.397 252,-201.397"/>
<text text-anchor="start" x="260" y="-219.397" font-family="Helvetica,sans-Serif" font-size="10.00" fill="#000000">hydrogen_framework</text>
<text text-anchor="middle" x="312.5" y="-208.397" font-family="Helvetica,sans-Serif" font-size="10.00" fill="#000000">::findMatchedLine</text>
</a>
</g>
</g>
<!-- Node29&#45;&gt;Node32 -->
<g id="edge4" class="edge">
<title>Node29&#45;&gt;Node32</title>
<path fill="none" stroke="#191970" d="M660.4112,-208.9154C638.4209,-226.6284 604.433,-250.3911 570,-260.397 501.2868,-280.3644 478.9249,-275.5862 409,-260.397 383.4497,-254.8469 356.5533,-241.9161 337.6654,-231.5002"/>
<polygon fill="#191970" stroke="#191970" points="662.7431,-211.529 668.2277,-202.4643 658.2873,-206.1302 662.7431,-211.529"/>
</g>
<!-- Node36 -->
<g id="node8" class="node">
<title>Node36</title>
<g id="a_node8"><a xlink:href="../../db/d17/MVICFG_8cpp.html#ae8aa13258ce9819a72598738dcf54fb2" target="_top" xlink:title=" ">
<polygon fill="none" stroke="#000000" points="412,-75.897 412,-116.897 567,-116.897 567,-75.897 412,-75.897"/>
<text text-anchor="start" x="420" y="-104.897" font-family="Helvetica,sans-Serif" font-size="10.00" fill="#000000">hydrogen_framework</text>
<text text-anchor="start" x="420" y="-93.897" font-family="Helvetica,sans-Serif" font-size="10.00" fill="#000000">::getMatchedInstructionFrom</text>
<text text-anchor="middle" x="489.5" y="-82.897" font-family="Helvetica,sans-Serif" font-size="10.00" fill="#000000">Graph</text>
</a>
</g>
</g>
<!-- Node29&#45;&gt;Node36 -->
<g id="edge15" class="edge">
<title>Node29&#45;&gt;Node36</title>
<path fill="none" stroke="#191970" d="M643.5374,-168.0973C611.2324,-153.0601 566.4854,-132.2317 533.5416,-116.8972"/>
<polygon fill="#191970" stroke="#191970" points="642.1742,-171.3233 652.7172,-172.3702 645.1282,-164.9771 642.1742,-171.3233"/>
</g>
<!-- Node38 -->
<g id="node10" class="node">
<title>Node38</title>
<g id="a_node10"><a xlink:href="../../db/d17/MVICFG_8cpp.html#a1d4ae9543ae0c613fedc7d032745b2c1" target="_top" xlink:title=" ">
<polygon fill="none" stroke="#000000" points="252,-134.397 252,-164.397 373,-164.397 373,-134.397 252,-134.397"/>
<text text-anchor="start" x="260" y="-152.397" font-family="Helvetica,sans-Serif" font-size="10.00" fill="#000000">hydrogen_framework</text>
<text text-anchor="middle" x="312.5" y="-141.397" font-family="Helvetica,sans-Serif" font-size="10.00" fill="#000000">::getNewlyAdded</text>
</a>
</g>
</g>
<!-- Node29&#45;&gt;Node38 -->
<g id="edge20" class="edge">
<title>Node29&#45;&gt;Node38</title>
<path fill="none" stroke="#191970" d="M595.5749,-178.2744C526.7427,-171.2526 433.471,-161.7377 373.1366,-155.5828"/>
<polygon fill="#191970" stroke="#191970" points="595.2427,-181.7586 605.5463,-179.2917 595.9532,-174.7948 595.2427,-181.7586"/>
</g>
<!-- Node39 -->
<g id="node11" class="node">
<title>Node39</title>
<g id="a_node11"><a xlink:href="../../db/d17/MVICFG_8cpp.html#aba1f11ef6a3442c674bce54fb19a092e" target="_top" xlink:title=" ">
<polygon fill="none" stroke="#000000" points="409,-191.897 409,-232.897 570,-232.897 570,-191.897 409,-191.897"/>
<text text-anchor="start" x="417" y="-220.897" font-family="Helvetica,sans-Serif" font-size="10.00" fill="#000000">hydrogen_framework</text>
<text text-anchor="start" x="417" y="-209.897" font-family="Helvetica,sans-Serif" font-size="10.00" fill="#000000">::resolveMatchedLinesWithNo</text>
<text text-anchor="middle" x="489.5" y="-198.897" font-family="Helvetica,sans-Serif" font-size="10.00" fill="#000000">ExtactStringMatch</text>
</a>
</g>
</g>
<!-- Node29&#45;&gt;Node39 -->
<g id="edge23" class="edge">
<title>Node29&#45;&gt;Node39</title>
<path fill="none" stroke="#191970" d="M595.7795,-198.8063C587.2259,-199.9001 578.5846,-201.0051 570.1201,-202.0875"/>
<polygon fill="#191970" stroke="#191970" points="596.2893,-202.2697 605.7645,-197.5294 595.4013,-195.3262 596.2893,-202.2697"/>
</g>
<!-- Node40 -->
<g id="node12" class="node">
<title>Node40</title>
<g id="a_node12"><a xlink:href="../../db/d17/MVICFG_8cpp.html#a2ebefd41917d6565942bb86ec72f6adc" target="_top" xlink:title=" ">
<polygon fill="none" stroke="#000000" points="424.5,-8.397 424.5,-38.397 554.5,-38.397 554.5,-8.397 424.5,-8.397"/>
<text text-anchor="start" x="432.5" y="-26.397" font-family="Helvetica,sans-Serif" font-size="10.00" fill="#000000">hydrogen_framework</text>
<text text-anchor="middle" x="489.5" y="-15.397" font-family="Helvetica,sans-Serif" font-size="10.00" fill="#000000">::updateMVICFGVersion</text>
</a>
</g>
</g>
<!-- Node29&#45;&gt;Node40 -->
<g id="edge26" class="edge">
<title>Node29&#45;&gt;Node40</title>
<path fill="none" stroke="#191970" d="M666.9037,-164.291C645.6843,-138.2397 608.4931,-95.7027 570,-66.397 555.7543,-55.5514 538.4003,-45.9024 523.4577,-38.5067"/>
<polygon fill="#191970" stroke="#191970" points="664.2174,-166.5355 673.2133,-172.1323 669.671,-162.1471 664.2174,-166.5355"/>
</g>
<!-- Node30&#45;&gt;Node30 -->
<g id="edge2" class="edge">
<title>Node30&#45;&gt;Node30</title>
<path fill="none" stroke="#191970" d="M341.9962,-360.8549C338.3353,-365.576 328.5032,-368.897 312.5,-368.897 286.2383,-368.897 276.5953,-359.9536 283.5711,-350.556"/>
<polygon fill="#191970" stroke="#191970" points="345.4737,-360.3483 341.4289,-350.556 338.4843,-360.7334 345.4737,-360.3483"/>
</g>
<!-- Node31 -->
<g id="node3" class="node">
<title>Node31</title>
<g id="a_node3"><a xlink:href="../../de/d64/Hydrogen_8cpp.html#a0ddf1224851353fc92bfbff6f499fa97" target="_top" xlink:title=" ">
<polygon fill="none" stroke="#000000" points="0,-172.897 0,-191.897 41,-191.897 41,-172.897 0,-172.897"/>
<text text-anchor="middle" x="20.5" y="-179.897" font-family="Helvetica,sans-Serif" font-size="10.00" fill="#000000">main</text>
</a>
</g>
</g>
<!-- Node30&#45;&gt;Node31 -->
<g id="edge3" class="edge">
<title>Node30&#45;&gt;Node31</title>
<path fill="none" stroke="#191970" d="M241.6387,-351.7247C191.1739,-359.1343 124.2025,-359.9207 77,-326.397 31.4577,-294.0524 22.6228,-219.2053 20.9108,-192.2747"/>
<polygon fill="#191970" stroke="#191970" points="242.4944,-355.1328 251.8219,-350.1081 241.3968,-348.2194 242.4944,-355.1328"/>
</g>
<!-- Node32&#45;&gt;Node32 -->
<g id="edge11" class="edge">
<title>Node32&#45;&gt;Node32</title>
<path fill="none" stroke="#191970" d="M341.9962,-241.8549C338.3353,-246.576 328.5032,-249.897 312.5,-249.897 286.2383,-249.897 276.5953,-240.9536 283.5711,-231.556"/>
<polygon fill="#191970" stroke="#191970" points="345.4737,-241.3483 341.4289,-231.556 338.4843,-241.7334 345.4737,-241.3483"/>
</g>
<!-- Node33 -->
<g id="node5" class="node">
<title>Node33</title>
<g id="a_node5"><a xlink:href="../../db/d17/MVICFG_8cpp.html#a40d68c502d0833e919395ded787b4599" target="_top" xlink:title=" ">
<polygon fill="none" stroke="#000000" points="86,-268.397 86,-298.397 207,-298.397 207,-268.397 86,-268.397"/>
<text text-anchor="start" x="94" y="-286.397" font-family="Helvetica,sans-Serif" font-size="10.00" fill="#000000">hydrogen_framework</text>
<text text-anchor="middle" x="146.5" y="-275.397" font-family="Helvetica,sans-Serif" font-size="10.00" fill="#000000">::addToMVICFG</text>
</a>
</g>
</g>
<!-- Node32&#45;&gt;Node33 -->
<g id="edge5" class="edge">
<title>Node32&#45;&gt;Node33</title>
<path fill="none" stroke="#191970" d="M271.509,-235.6046C254.4801,-243.3369 234.4261,-252.126 216,-259.397 208.2818,-262.4426 200.0025,-265.4889 191.9445,-268.3391"/>
<polygon fill="#191970" stroke="#191970" points="272.9902,-238.7759 280.6287,-231.4339 270.079,-232.41 272.9902,-238.7759"/>
</g>
<!-- Node34 -->
<g id="node6" class="node">
<title>Node34</title>
<g id="a_node6"><a xlink:href="../../db/d17/MVICFG_8cpp.html#ac6a97f6b1392ad5517822076e830168f" target="_top" xlink:title=" ">
<polygon fill="none" stroke="#000000" points="86,-134.397 86,-164.397 207,-164.397 207,-134.397 86,-134.397"/>
<text text-anchor="start" x="94" y="-152.397" font-family="Helvetica,sans-Serif" font-size="10.00" fill="#000000">hydrogen_framework</text>
<text text-anchor="middle" x="146.5" y="-141.397" font-family="Helvetica,sans-Serif" font-size="10.00" fill="#000000">::deleteFromMVICFG</text>
</a>
</g>
</g>
<!-- Node32&#45;&gt;Node34 -->
<g id="edge8" class="edge">
<title>Node32&#45;&gt;Node34</title>
<path fill="none" stroke="#191970" d="M264.89,-197.559C260.5298,-195.8191 256.1821,-194.0787 252,-192.397 229.0616,-183.1728 203.3708,-172.7046 183.0844,-164.4065"/>
<polygon fill="#191970" stroke="#191970" points="263.8104,-200.8963 274.3958,-201.3442 266.4001,-194.393 263.8104,-200.8963"/>
</g>
<!-- Node35 -->
<g id="node7" class="node">
<title>Node35</title>
<g id="a_node7"><a xlink:href="../../db/d17/MVICFG_8cpp.html#a27bf2e73daf11e2ad6363e34bd06de89" target="_top" xlink:title=" ">
<polygon fill="none" stroke="#000000" points="86,-201.397 86,-231.397 207,-231.397 207,-201.397 86,-201.397"/>
<text text-anchor="start" x="94" y="-219.397" font-family="Helvetica,sans-Serif" font-size="10.00" fill="#000000">hydrogen_framework</text>
<text text-anchor="middle" x="146.5" y="-208.397" font-family="Helvetica,sans-Serif" font-size="10.00" fill="#000000">::matchedInMVICFG</text>
</a>
</g>
</g>
<!-- Node32&#45;&gt;Node35 -->
<g id="edge12" class="edge">
<title>Node32&#45;&gt;Node35</title>
<path fill="none" stroke="#191970" d="M241.6287,-216.397C230.1286,-216.397 218.311,-216.397 207.0849,-216.397"/>
<polygon fill="#191970" stroke="#191970" points="241.6304,-219.8971 251.6303,-216.397 241.6303,-212.8971 241.6304,-219.8971"/>
</g>
<!-- Node33&#45;&gt;Node31 -->
<g id="edge7" class="edge">
<title>Node33&#45;&gt;Node31</title>
<path fill="none" stroke="#191970" d="M82.8721,-263.3282C80.8432,-262.0907 78.8786,-260.7815 77,-259.397 52.0404,-241.0016 33.3977,-208.3947 25.1613,-192.1539"/>
<polygon fill="#191970" stroke="#191970" points="81.6479,-266.6442 92.1115,-268.3066 84.9684,-260.4819 81.6479,-266.6442"/>
</g>
<!-- Node33&#45;&gt;Node33 -->
<g id="edge6" class="edge">
<title>Node33&#45;&gt;Node33</title>
<path fill="none" stroke="#191970" d="M168.8887,-308.8549C166.1099,-313.576 158.647,-316.897 146.5,-316.897 126.5664,-316.897 119.247,-307.9536 124.5419,-298.556"/>
<polygon fill="#191970" stroke="#191970" points="172.3729,-308.401 168.4581,-298.556 165.379,-308.6935 172.3729,-308.401"/>
</g>
<!-- Node34&#45;&gt;Node31 -->
<g id="edge10" class="edge">
<title>Node34&#45;&gt;Node31</title>
<path fill="none" stroke="#191970" d="M78.9661,-167.0845C65.1623,-170.6997 51.6502,-174.2386 41.0992,-177.002"/>
<polygon fill="#191970" stroke="#191970" points="80.2438,-170.3679 89.0308,-164.4485 78.4703,-163.5963 80.2438,-170.3679"/>
</g>
<!-- Node34&#45;&gt;Node34 -->
<g id="edge9" class="edge">
<title>Node34&#45;&gt;Node34</title>
<path fill="none" stroke="#191970" d="M168.8887,-174.8549C166.1099,-179.576 158.647,-182.897 146.5,-182.897 126.5664,-182.897 119.247,-173.9536 124.5419,-164.556"/>
<polygon fill="#191970" stroke="#191970" points="172.3729,-174.401 168.4581,-164.556 165.379,-174.6935 172.3729,-174.401"/>
</g>
<!-- Node35&#45;&gt;Node31 -->
<g id="edge13" class="edge">
<title>Node35&#45;&gt;Node31</title>
<path fill="none" stroke="#191970" d="M80.8842,-198.6912C66.452,-194.7967 52.203,-190.9518 41.1741,-187.9757"/>
<polygon fill="#191970" stroke="#191970" points="80.3013,-202.159 90.8678,-201.3851 82.125,-195.4007 80.3013,-202.159"/>
</g>
<!-- Node35&#45;&gt;Node35 -->
<g id="edge14" class="edge">
<title>Node35&#45;&gt;Node35</title>
<path fill="none" stroke="#191970" d="M168.8887,-241.8549C166.1099,-246.576 158.647,-249.897 146.5,-249.897 126.5664,-249.897 119.247,-240.9536 124.5419,-231.556"/>
<polygon fill="#191970" stroke="#191970" points="172.3729,-241.401 168.4581,-231.556 165.379,-241.6935 172.3729,-241.401"/>
</g>
<!-- Node36&#45;&gt;Node36 -->
<g id="edge19" class="edge">
<title>Node36&#45;&gt;Node36</title>
<path fill="none" stroke="#191970" d="M519.7798,-127.2531C515.2768,-132.0936 505.1836,-135.397 489.5,-135.397 464.4063,-135.397 453.6238,-126.9403 457.1526,-117.2614"/>
<polygon fill="#191970" stroke="#191970" points="523.2483,-127.7632 521.8474,-117.2614 516.3935,-126.3447 523.2483,-127.7632"/>
</g>
<!-- Node37 -->
<g id="node9" class="node">
<title>Node37</title>
<g id="a_node9"><a xlink:href="../../db/d17/MVICFG_8cpp.html#a8f5c2085a43bf3b517575d9db43e4b92" target="_top" xlink:title=" ">
<polygon fill="none" stroke="#000000" points="77,-67.397 77,-97.397 216,-97.397 216,-67.397 77,-67.397"/>
<text text-anchor="start" x="85" y="-85.397" font-family="Helvetica,sans-Serif" font-size="10.00" fill="#000000">hydrogen_framework</text>
<text text-anchor="middle" x="146.5" y="-74.397" font-family="Helvetica,sans-Serif" font-size="10.00" fill="#000000">::getEdgesForAddedLines</text>
</a>
</g>
</g>
<!-- Node36&#45;&gt;Node37 -->
<g id="edge16" class="edge">
<title>Node36&#45;&gt;Node37</title>
<path fill="none" stroke="#191970" d="M401.4803,-92.8044C343.8784,-90.4533 269.6589,-87.4239 216.1646,-85.2405"/>
<polygon fill="#191970" stroke="#191970" points="401.5335,-96.3094 411.668,-93.2202 401.8191,-89.3152 401.5335,-96.3094"/>
</g>
<!-- Node37&#45;&gt;Node31 -->
<g id="edge18" class="edge">
<title>Node37&#45;&gt;Node31</title>
<path fill="none" stroke="#191970" d="M110.1691,-102.6536C99.1477,-109.3777 87.2516,-117.2429 77,-125.397 58.2439,-140.3157 39.1863,-160.9181 28.6992,-172.8322"/>
<polygon fill="#191970" stroke="#191970" points="111.9771,-105.6506 118.7723,-97.5219 108.3911,-99.6388 111.9771,-105.6506"/>
</g>
<!-- Node37&#45;&gt;Node37 -->
<g id="edge17" class="edge">
<title>Node37&#45;&gt;Node37</title>
<path fill="none" stroke="#191970" d="M168.8887,-107.8549C166.1099,-112.576 158.647,-115.897 146.5,-115.897 126.5664,-115.897 119.247,-106.9536 124.5419,-97.556"/>
<polygon fill="#191970" stroke="#191970" points="172.3729,-107.401 168.4581,-97.556 165.379,-107.6935 172.3729,-107.401"/>
</g>
<!-- Node38&#45;&gt;Node34 -->
<g id="edge21" class="edge">
<title>Node38&#45;&gt;Node34</title>
<path fill="none" stroke="#191970" d="M241.6287,-149.397C230.1286,-149.397 218.311,-149.397 207.0849,-149.397"/>
<polygon fill="#191970" stroke="#191970" points="241.6304,-152.8971 251.6303,-149.397 241.6303,-145.8971 241.6304,-152.8971"/>
</g>
<!-- Node38&#45;&gt;Node38 -->
<g id="edge22" class="edge">
<title>Node38&#45;&gt;Node38</title>
<path fill="none" stroke="#191970" d="M341.9962,-174.8549C338.3353,-179.576 328.5032,-182.897 312.5,-182.897 286.2383,-182.897 276.5953,-173.9536 283.5711,-164.556"/>
<polygon fill="#191970" stroke="#191970" points="345.4737,-174.3483 341.4289,-164.556 338.4843,-174.7334 345.4737,-174.3483"/>
</g>
<!-- Node39&#45;&gt;Node32 -->
<g id="edge24" class="edge">
<title>Node39&#45;&gt;Node32</title>
<path fill="none" stroke="#191970" d="M398.6661,-214.4497C390.0544,-214.6444 381.4722,-214.8383 373.246,-215.0242"/>
<polygon fill="#191970" stroke="#191970" points="398.8511,-217.9466 408.7694,-214.2214 398.6929,-210.9483 398.8511,-217.9466"/>
</g>
<!-- Node39&#45;&gt;Node39 -->
<g id="edge25" class="edge">
<title>Node39&#45;&gt;Node39</title>
<path fill="none" stroke="#191970" d="M519.7798,-243.2531C515.2768,-248.0936 505.1836,-251.397 489.5,-251.397 464.4063,-251.397 453.6238,-242.9403 457.1526,-233.2614"/>
<polygon fill="#191970" stroke="#191970" points="523.2483,-243.7632 521.8474,-233.2614 516.3935,-242.3447 523.2483,-243.7632"/>
</g>
<!-- Node40&#45;&gt;Node31 -->
<g id="edge27" class="edge">
<title>Node40&#45;&gt;Node31</title>
<path fill="none" stroke="#191970" d="M414.4759,-8.6946C325.4938,4.3561 176.6984,11.8721 77,-58.397 37.5528,-86.2001 25.0965,-148.4332 21.6637,-172.5683"/>
<polygon fill="#191970" stroke="#191970" points="414.0773,-12.1742 424.4911,-10.224 415.1341,-5.2544 414.0773,-12.1742"/>
</g>
<!-- Node40&#45;&gt;Node40 -->
<g id="edge28" class="edge">
<title>Node40&#45;&gt;Node40</title>
<path fill="none" stroke="#191970" d="M520.7731,-48.8549C516.8916,-53.576 506.4673,-56.897 489.5,-56.897 461.6563,-56.897 451.4324,-47.9536 458.8284,-38.556"/>
<polygon fill="#191970" stroke="#191970" points="524.2488,-48.3349 520.1716,-38.556 517.2607,-48.7431 524.2488,-48.3349"/>
</g>
</g>
</svg>
