<?xml version="1.0" encoding="UTF-8" standalone="no"?>
<!DOCTYPE svg PUBLIC "-//W3C//DTD SVG 1.1//EN"
 "http://www.w3.org/Graphics/SVG/1.1/DTD/svg11.dtd">
<!-- Generated by graphviz version 2.40.1 (20161225.0304)
 -->
<!-- Title: hydrogen_framework::Graph_Line::setGraphFunction Pages: 1 -->
<!--zoomable 141 -->
<svg id="main" version="1.1" xmlns="http://www.w3.org/2000/svg" xmlns:xlink="http://www.w3.org/1999/xlink" xml:space="preserve" onload="init(evt)">
<style type="text/css"><![CDATA[
.edge:hover path { stroke: red; }
.edge:hover polygon { stroke: red; fill: red; }
]]></style>
<script type="text/javascript"><![CDATA[
var edges = document.getElementsByTagName('g');
if (edges && edges.length) {
  for (var i=0;i<edges.length;i++) {
    if (edges[i].id.substr(0,4)=='edge') {
      edges[i].setAttribute('class','edge');
    }
  }
}
]]></script>
        <defs>
                <circle id="rim" cx="0" cy="0" r="7"/>
                <circle id="rim2" cx="0" cy="0" r="3.5"/>
                <g id="zoomPlus">
                        <use xlink:href="#rim" fill="#404040">
                                <set attributeName="fill" to="#808080" begin="zoomplus.mouseover" end="zoomplus.mouseout"/>
                        </use>
                        <path d="M-4,0h8M0,-4v8" fill="none" stroke="white" stroke-width="1.5" pointer-events="none"/>
                </g>
                <g id="zoomMin">
                        <use xlink:href="#rim" fill="#404040">
                                <set attributeName="fill" to="#808080" begin="zoomminus.mouseover" end="zoomminus.mouseout"/>
                        </use>
                        <path d="M-4,0h8" fill="none" stroke="white" stroke-width="1.5" pointer-events="none"/>
                </g>
                <g id="dirArrow">
                        <path fill="none" stroke="white" stroke-width="1.5" d="M0,-3.0v7 M-2.5,-0.5L0,-3.0L2.5,-0.5"/>
                </g>
               <g id="resetDef">
                       <use xlink:href="#rim2" fill="#404040">
                               <set attributeName="fill" to="#808080" begin="reset.mouseover" end="reset.mouseout"/>
                       </use>
               </g>
        </defs>

<script type="text/javascript">
var viewWidth = 813;
var viewHeight = 141;
var sectionId = 'dynsection-7';
</script>
<script xlink:href="../../svgpan.js"/>
<svg id="graph" class="graph">
<g id="viewport">
<title>hydrogen_framework::Graph_Line::setGraphFunction</title>
<!-- Node54 -->
<g id="node1" class="node">
<title>Node54</title>
<g id="a_node1"><a xlink:title=" ">
<polygon fill="#bfbfbf" stroke="#000000" points="637,-66.5 637,-96.5 805,-96.5 805,-66.5 637,-66.5"/>
<text text-anchor="start" x="645" y="-84.5" font-family="Helvetica,sans-Serif" font-size="10.00" fill="#000000">hydrogen_framework</text>
<text text-anchor="middle" x="721" y="-73.5" font-family="Helvetica,sans-Serif" font-size="10.00" fill="#000000">::Graph_Line::setGraphFunction</text>
</a>
</g>
</g>
<!-- Node55 -->
<g id="node2" class="node">
<title>Node55</title>
<g id="a_node2"><a xlink:href="../../dc/d7a/classhydrogen__framework_1_1Graph__Function.html#a836407a321fcfdd4cbc828ede65527e8" target="_top" xlink:title=" ">
<polygon fill="none" stroke="#000000" points="442,-91 442,-132 593,-132 593,-91 442,-91"/>
<text text-anchor="start" x="450" y="-120" font-family="Helvetica,sans-Serif" font-size="10.00" fill="#000000">hydrogen_framework</text>
<text text-anchor="start" x="450" y="-109" font-family="Helvetica,sans-Serif" font-size="10.00" fill="#000000">::Graph_Function::pushFront</text>
<text text-anchor="middle" x="517.5" y="-98" font-family="Helvetica,sans-Serif" font-size="10.00" fill="#000000">FunctionLines</text>
</a>
</g>
</g>
<!-- Node54&#45;&gt;Node55 -->
<g id="edge1" class="edge">
<title>Node54&#45;&gt;Node55</title>
<path fill="none" stroke="#191970" d="M626.547,-95.4243C615.3734,-97.0715 604.0817,-98.7361 593.2149,-100.3381"/>
<polygon fill="#191970" stroke="#191970" points="627.3772,-98.8398 636.7598,-93.9187 626.3562,-91.9146 627.3772,-98.8398"/>
</g>
<!-- Node59 -->
<g id="node6" class="node">
<title>Node59</title>
<g id="a_node6"><a xlink:href="../../dc/d7a/classhydrogen__framework_1_1Graph__Function.html#ab8c42581be989318468e46db4341f4e9" target="_top" xlink:title=" ">
<polygon fill="none" stroke="#000000" points="434,-31 434,-72 601,-72 601,-31 434,-31"/>
<text text-anchor="start" x="442" y="-60" font-family="Helvetica,sans-Serif" font-size="10.00" fill="#000000">hydrogen_framework</text>
<text text-anchor="start" x="442" y="-49" font-family="Helvetica,sans-Serif" font-size="10.00" fill="#000000">::Graph_Function::pushFunction</text>
<text text-anchor="middle" x="517.5" y="-38" font-family="Helvetica,sans-Serif" font-size="10.00" fill="#000000">Lines</text>
</a>
</g>
</g>
<!-- Node54&#45;&gt;Node59 -->
<g id="edge6" class="edge">
<title>Node54&#45;&gt;Node59</title>
<path fill="none" stroke="#191970" d="M626.7336,-67.6032C618.1522,-66.3382 609.4995,-65.0626 601.0214,-63.8127"/>
<polygon fill="#191970" stroke="#191970" points="626.3562,-71.0854 636.7598,-69.0813 627.3772,-64.1602 626.3562,-71.0854"/>
</g>
<!-- Node56 -->
<g id="node3" class="node">
<title>Node56</title>
<g id="a_node3"><a xlink:href="../../d4/d7a/classhydrogen__framework_1_1Graph.html#a2baf6364fa45c8574b581fe8c6df79c6" target="_top" xlink:title=" ">
<polygon fill="none" stroke="#000000" points="246.5,-88.5 246.5,-118.5 385.5,-118.5 385.5,-88.5 246.5,-88.5"/>
<text text-anchor="start" x="254.5" y="-106.5" font-family="Helvetica,sans-Serif" font-size="10.00" fill="#000000">hydrogen_framework</text>
<text text-anchor="middle" x="316" y="-95.5" font-family="Helvetica,sans-Serif" font-size="10.00" fill="#000000">::Graph::addVirtualNodes</text>
</a>
</g>
</g>
<!-- Node55&#45;&gt;Node56 -->
<g id="edge2" class="edge">
<title>Node55&#45;&gt;Node56</title>
<path fill="none" stroke="#191970" d="M431.8623,-108.1C416.4649,-107.4887 400.5857,-106.8582 385.7075,-106.2675"/>
<polygon fill="#191970" stroke="#191970" points="431.7645,-111.5988 441.8956,-108.4983 432.0423,-104.6043 431.7645,-111.5988"/>
</g>
<!-- Node57 -->
<g id="node4" class="node">
<title>Node57</title>
<g id="a_node4"><a xlink:href="../../db/d17/MVICFG_8cpp.html#a8abab0f2232beace9b14c3c7dfa368dd" target="_top" xlink:title=" ">
<polygon fill="none" stroke="#000000" points="77,-44.5 77,-74.5 198,-74.5 198,-44.5 77,-44.5"/>
<text text-anchor="start" x="85" y="-62.5" font-family="Helvetica,sans-Serif" font-size="10.00" fill="#000000">hydrogen_framework</text>
<text text-anchor="middle" x="137.5" y="-51.5" font-family="Helvetica,sans-Serif" font-size="10.00" fill="#000000">::buildICFG</text>
</a>
</g>
</g>
<!-- Node56&#45;&gt;Node57 -->
<g id="edge3" class="edge">
<title>Node56&#45;&gt;Node57</title>
<path fill="none" stroke="#191970" d="M245.0087,-86.0007C229.4983,-82.1775 213.2195,-78.1647 198.1557,-74.4516"/>
<polygon fill="#191970" stroke="#191970" points="244.5226,-89.4856 255.0697,-88.4808 246.198,-82.6891 244.5226,-89.4856"/>
</g>
<!-- Node57&#45;&gt;Node57 -->
<g id="edge4" class="edge">
<title>Node57&#45;&gt;Node57</title>
<path fill="none" stroke="#191970" d="M158.1118,-84.9579C155.5536,-89.679 148.683,-93 137.5,-93 119.1484,-93 112.41,-84.0566 117.2846,-74.659"/>
<polygon fill="#191970" stroke="#191970" points="161.5975,-84.517 157.7154,-74.659 154.6027,-84.7863 161.5975,-84.517"/>
</g>
<!-- Node58 -->
<g id="node5" class="node">
<title>Node58</title>
<g id="a_node5"><a xlink:href="../../de/d64/Hydrogen_8cpp.html#a0ddf1224851353fc92bfbff6f499fa97" target="_top" xlink:title=" ">
<polygon fill="none" stroke="#000000" points="0,-50 0,-69 41,-69 41,-50 0,-50"/>
<text text-anchor="middle" x="20.5" y="-57" font-family="Helvetica,sans-Serif" font-size="10.00" fill="#000000">main</text>
</a>
</g>
</g>
<!-- Node57&#45;&gt;Node58 -->
<g id="edge5" class="edge">
<title>Node57&#45;&gt;Node58</title>
<path fill="none" stroke="#191970" d="M66.7111,-59.5C57.3948,-59.5 48.514,-59.5 41.0724,-59.5"/>
<polygon fill="#191970" stroke="#191970" points="66.9438,-63.0001 76.9437,-59.5 66.9437,-56.0001 66.9438,-63.0001"/>
</g>
<!-- Node59&#45;&gt;Node56 -->
<g id="edge9" class="edge">
<title>Node59&#45;&gt;Node56</title>
<path fill="none" stroke="#191970" d="M428.0816,-74.5757C409.8255,-79.287 391.0668,-84.1279 374.2441,-88.4693"/>
<polygon fill="#191970" stroke="#191970" points="429.0537,-77.9396 437.8619,-72.0518 427.3045,-71.1617 429.0537,-77.9396"/>
</g>
<!-- Node59&#45;&gt;Node57 -->
<g id="edge10" class="edge">
<title>Node59&#45;&gt;Node57</title>
<path fill="none" stroke="#191970" d="M423.4306,-53.4804C353.0366,-54.9624 258.8258,-56.9458 198.1405,-58.2234"/>
<polygon fill="#191970" stroke="#191970" points="423.7129,-56.9753 433.637,-53.2655 423.5655,-49.9769 423.7129,-56.9753"/>
</g>
<!-- Node60 -->
<g id="node7" class="node">
<title>Node60</title>
<g id="a_node7"><a xlink:href="../../d4/d7a/classhydrogen__framework_1_1Graph.html#a37c8344541a9008ee43ce284f28539ae" target="_top" xlink:title=" ">
<polygon fill="none" stroke="#000000" points="234,-.5 234,-30.5 398,-30.5 398,-.5 234,-.5"/>
<text text-anchor="start" x="242" y="-18.5" font-family="Helvetica,sans-Serif" font-size="10.00" fill="#000000">hydrogen_framework</text>
<text text-anchor="middle" x="316" y="-7.5" font-family="Helvetica,sans-Serif" font-size="10.00" fill="#000000">::Graph::addFunctionCallEdges</text>
</a>
</g>
</g>
<!-- Node59&#45;&gt;Node60 -->
<g id="edge7" class="edge">
<title>Node59&#45;&gt;Node60</title>
<path fill="none" stroke="#191970" d="M423.7908,-34.7579C415.2281,-33.2281 406.5973,-31.6861 398.1473,-30.1764"/>
<polygon fill="#191970" stroke="#191970" points="423.3367,-38.2321 433.7964,-36.5455 424.5679,-31.3412 423.3367,-38.2321"/>
</g>
<!-- Node60&#45;&gt;Node57 -->
<g id="edge8" class="edge">
<title>Node60&#45;&gt;Node57</title>
<path fill="none" stroke="#191970" d="M245.0087,-32.9993C229.4983,-36.8225 213.2195,-40.8353 198.1557,-44.5484"/>
<polygon fill="#191970" stroke="#191970" points="246.198,-36.3109 255.0697,-30.5192 244.5226,-29.5144 246.198,-36.3109"/>
</g>
</g>
</svg>
        <g id="navigator" transform="translate(0 0)" fill="#404254">
                <rect fill="#f2f5e9" fill-opacity="0.5" stroke="#606060" stroke-width=".5" x="0" y="0" width="60" height="60"/>
                <use id="zoomplus" xlink:href="#zoomPlus" x="17" y="9" onmousedown="handleZoom(evt,'in')"/>
                <use id="zoomminus" xlink:href="#zoomMin" x="42" y="9" onmousedown="handleZoom(evt,'out')"/>
                <use id="reset" xlink:href="#resetDef" x="30" y="36" onmousedown="handleReset()"/>
                <g id="arrowUp" xlink:href="#dirArrow" transform="translate(30 24)" onmousedown="handlePan(0,-1)">
                  <use xlink:href="#rim" fill="#404040">
                        <set attributeName="fill" to="#808080" begin="arrowUp.mouseover" end="arrowUp.mouseout"/>
                  </use>
                  <path fill="none" stroke="white" stroke-width="1.5" d="M0,-3.0v7 M-2.5,-0.5L0,-3.0L2.5,-0.5"/>
                </g>
                <g id="arrowRight" xlink:href="#dirArrow" transform="rotate(90) translate(36 -43)" onmousedown="handlePan(1,0)">
                  <use xlink:href="#rim" fill="#404040">
                        <set attributeName="fill" to="#808080" begin="arrowRight.mouseover" end="arrowRight.mouseout"/>
                  </use>
                  <path fill="none" stroke="white" stroke-width="1.5" d="M0,-3.0v7 M-2.5,-0.5L0,-3.0L2.5,-0.5"/>
                </g>
                <g id="arrowDown" xlink:href="#dirArrow" transform="rotate(180) translate(-30 -48)" onmousedown="handlePan(0,1)">
                  <use xlink:href="#rim" fill="#404040">
                        <set attributeName="fill" to="#808080" begin="arrowDown.mouseover" end="arrowDown.mouseout"/>
                  </use>
                  <path fill="none" stroke="white" stroke-width="1.5" d="M0,-3.0v7 M-2.5,-0.5L0,-3.0L2.5,-0.5"/>
                </g>
                <g id="arrowLeft" xlink:href="#dirArrow" transform="rotate(270) translate(-36 17)" onmousedown="handlePan(-1,0)">
                  <use xlink:href="#rim" fill="#404040">
                        <set attributeName="fill" to="#808080" begin="arrowLeft.mouseover" end="arrowLeft.mouseout"/>
                  </use>
                  <path fill="none" stroke="white" stroke-width="1.5" d="M0,-3.0v7 M-2.5,-0.5L0,-3.0L2.5,-0.5"/>
                </g>
        </g>
        <svg viewBox="0 0 15 15" width="100%" height="30px" preserveAspectRatio="xMaxYMin meet">
         <g id="arrow_out" transform="scale(0.3 0.3)">
          <a xlink:href="classhydrogen__framework_1_1Graph__Line_a99db3f64c0f212064037c367157fcace_icgraph_org.svg" target="_base">
           <rect id="button" ry="5" rx="5" y="6" x="6" height="38" width="38"
                fill="#f2f5e9" fill-opacity="0.5" stroke="#606060" stroke-width="1.0"/>
           <path id="arrow"
             d="M 11.500037,31.436501 C 11.940474,20.09759 22.043105,11.32322 32.158766,21.979434 L 37.068811,17.246167 C 37.068811,17.246167 37.088388,32 37.088388,32 L 22.160133,31.978069 C 22.160133,31.978069 26.997745,27.140456 26.997745,27.140456 C 18.528582,18.264221 13.291696,25.230495 11.500037,31.436501 z"
             style="fill:#404040;"/>
          </a>
         </g>
        </svg>
</svg>
