<?xml version="1.0" encoding="UTF-8" standalone="no"?>
<!DOCTYPE svg PUBLIC "-//W3C//DTD SVG 1.1//EN"
 "http://www.w3.org/Graphics/SVG/1.1/DTD/svg11.dtd">
<!-- Generated by graphviz version 2.40.1 (20161225.0304)
 -->
<!-- Title: hydrogen_framework::Diff_Vars::eleminfo Pages: 1 -->
<svg width="139pt" height="193pt"
 viewBox="0.00 0.00 138.50 193.00" xmlns="http://www.w3.org/2000/svg" xmlns:xlink="http://www.w3.org/1999/xlink">
<g id="graph0" class="graph" transform="scale(1 1) rotate(0) translate(4 189)">
<title>hydrogen_framework::Diff_Vars::eleminfo</title>
<!-- Node1 -->
<g id="node1" class="node">
<title>Node1</title>
<g id="a_node1"><a xlink:title=" ">
<polygon fill="#bfbfbf" stroke="#000000" points="9.5,-.5 9.5,-68.5 130.5,-68.5 130.5,-.5 9.5,-.5"/>
<text text-anchor="start" x="17.5" y="-56.5" font-family="Helvetica,sans-Serif" font-size="10.00" fill="#000000">hydrogen_framework</text>
<text text-anchor="middle" x="70" y="-45.5" font-family="Helvetica,sans-Serif" font-size="10.00" fill="#000000">::Diff_Vars::eleminfo</text>
<polyline fill="none" stroke="#000000" points="9.5,-38.5 130.5,-38.5 "/>
<text text-anchor="middle" x="70" y="-26.5" font-family="Helvetica,sans-Serif" font-size="10.00" fill="#000000"> </text>
<polyline fill="none" stroke="#000000" points="9.5,-19.5 130.5,-19.5 "/>
<text text-anchor="start" x="17.5" y="-7.5" font-family="Helvetica,sans-Serif" font-size="10.00" fill="#000000">+ operator==()</text>
</a>
</g>
</g>
<!-- Node2 -->
<g id="node2" class="node">
<title>Node2</title>
<g id="a_node2"><a xlink:title=" ">
<polygon fill="none" stroke="#bfbfbf" points="0,-127.5 0,-184.5 62,-184.5 62,-127.5 0,-127.5"/>
<text text-anchor="middle" x="31" y="-172.5" font-family="Helvetica,sans-Serif" font-size="10.00" fill="#000000">long long</text>
<polyline fill="none" stroke="#bfbfbf" points="0,-165.5 62,-165.5 "/>
<text text-anchor="middle" x="31" y="-153.5" font-family="Helvetica,sans-Serif" font-size="10.00" fill="#000000"> </text>
<polyline fill="none" stroke="#bfbfbf" points="0,-146.5 62,-146.5 "/>
<text text-anchor="middle" x="31" y="-134.5" font-family="Helvetica,sans-Serif" font-size="10.00" fill="#000000"> </text>
</a>
</g>
</g>
<!-- Node2&#45;&gt;Node1 -->
<g id="edge1" class="edge">
<title>Node2&#45;&gt;Node1</title>
<path fill="none" stroke="#404040" d="M27.595,-127.4905C27.0402,-114.7981 27.7349,-99.8485 32,-87 32.8497,-84.4405 33.8733,-81.9 35.031,-79.3975"/>
<polygon fill="none" stroke="#404040" points="35.1024,-79.2661 34.4583,-72.0838 40.8404,-68.7267 41.4845,-75.909 35.1024,-79.2661"/>
<text text-anchor="middle" x="59.5" y="-101" font-family="Helvetica,sans-Serif" font-size="10.00" fill="#000000"> +afterIdx</text>
<text text-anchor="middle" x="59.5" y="-90" font-family="Helvetica,sans-Serif" font-size="10.00" fill="#000000">+beforeIdx</text>
</g>
<!-- Node3 -->
<g id="node3" class="node">
<title>Node3</title>
<g id="a_node3"><a xlink:title=" ">
<polygon fill="none" stroke="#bfbfbf" points="94.5,-127.5 94.5,-184.5 123.5,-184.5 123.5,-127.5 94.5,-127.5"/>
<text text-anchor="middle" x="109" y="-172.5" font-family="Helvetica,sans-Serif" font-size="10.00" fill="#000000">int</text>
<polyline fill="none" stroke="#bfbfbf" points="94.5,-165.5 123.5,-165.5 "/>
<text text-anchor="middle" x="109" y="-153.5" font-family="Helvetica,sans-Serif" font-size="10.00" fill="#000000"> </text>
<polyline fill="none" stroke="#bfbfbf" points="94.5,-146.5 123.5,-146.5 "/>
<text text-anchor="middle" x="109" y="-134.5" font-family="Helvetica,sans-Serif" font-size="10.00" fill="#000000"> </text>
</a>
</g>
</g>
<!-- Node3&#45;&gt;Node1 -->
<g id="edge2" class="edge">
<title>Node3&#45;&gt;Node1</title>
<path fill="none" stroke="#404040" d="M99.9307,-127.4557C95.9726,-115.0243 91.2695,-100.2873 87,-87 86.2856,-84.7767 85.5531,-82.5008 84.8125,-80.2026"/>
<polygon fill="none" stroke="#404040" points="84.7742,-80.0837 79.1242,-75.6029 81.0873,-68.6641 86.7373,-73.1449 84.7742,-80.0837"/>
<text text-anchor="middle" x="110" y="-95.5" font-family="Helvetica,sans-Serif" font-size="10.00" fill="#000000"> +type</text>
</g>
</g>
</svg>
