<?xml version="1.0" encoding="UTF-8" standalone="no"?>
<!DOCTYPE svg PUBLIC "-//W3C//DTD SVG 1.1//EN"
 "http://www.w3.org/Graphics/SVG/1.1/DTD/svg11.dtd">
<!-- Generated by graphviz version 2.40.1 (20161225.0304)
 -->
<!-- Title: hydrogen_framework::Hydrogen::processInputs Pages: 1 -->
<svg width="308pt" height="88pt"
 viewBox="0.00 0.00 308.00 88.00" xmlns="http://www.w3.org/2000/svg" xmlns:xlink="http://www.w3.org/1999/xlink">
<g id="graph0" class="graph" transform="scale(1 1) rotate(0) translate(4 84)">
<title>hydrogen_framework::Hydrogen::processInputs</title>
<!-- Node7 -->
<g id="node1" class="node">
<title>Node7</title>
<g id="a_node1"><a xlink:title=" ">
<polygon fill="#bfbfbf" stroke="#000000" points="0,-24.5 0,-54.5 143,-54.5 143,-24.5 0,-24.5"/>
<text text-anchor="start" x="8" y="-42.5" font-family="Helvetica,sans-Serif" font-size="10.00" fill="#000000">hydrogen_framework</text>
<text text-anchor="middle" x="71.5" y="-31.5" font-family="Helvetica,sans-Serif" font-size="10.00" fill="#000000">::Hydrogen::processInputs</text>
</a>
</g>
</g>
<!-- Node8 -->
<g id="node2" class="node">
<title>Node8</title>
<g id="a_node2"><a xlink:href="../../da/d32/classhydrogen__framework_1_1Module.html#a490b106a7e0fa2ade868e4812319749d" target="_top" xlink:title=" ">
<polygon fill="none" stroke="#000000" points="179,-49.5 179,-79.5 300,-79.5 300,-49.5 179,-49.5"/>
<text text-anchor="start" x="187" y="-67.5" font-family="Helvetica,sans-Serif" font-size="10.00" fill="#000000">hydrogen_framework</text>
<text text-anchor="middle" x="239.5" y="-56.5" font-family="Helvetica,sans-Serif" font-size="10.00" fill="#000000">::Module::getVersion</text>
</a>
</g>
</g>
<!-- Node7&#45;&gt;Node8 -->
<g id="edge1" class="edge">
<title>Node7&#45;&gt;Node8</title>
<path fill="none" stroke="#191970" d="M143.2344,-50.1748C151.6671,-51.4296 160.2684,-52.7096 168.6883,-53.9625"/>
<polygon fill="#191970" stroke="#191970" points="168.4391,-57.4639 178.8454,-55.474 169.4695,-50.5402 168.4391,-57.4639"/>
</g>
<!-- Node9 -->
<g id="node3" class="node">
<title>Node9</title>
<g id="a_node3"><a xlink:href="../../da/d32/classhydrogen__framework_1_1Module.html#acbe49165dc7900c25fcaf7bba7d376e8" target="_top" xlink:title=" ">
<polygon fill="none" stroke="#000000" points="179,-.5 179,-30.5 300,-30.5 300,-.5 179,-.5"/>
<text text-anchor="start" x="187" y="-18.5" font-family="Helvetica,sans-Serif" font-size="10.00" fill="#000000">hydrogen_framework</text>
<text text-anchor="middle" x="239.5" y="-7.5" font-family="Helvetica,sans-Serif" font-size="10.00" fill="#000000">::Module::setModule</text>
</a>
</g>
</g>
<!-- Node7&#45;&gt;Node9 -->
<g id="edge2" class="edge">
<title>Node7&#45;&gt;Node9</title>
<path fill="none" stroke="#191970" d="M143.2344,-29.2522C151.6671,-28.0476 160.2684,-26.8188 168.6883,-25.616"/>
<polygon fill="#191970" stroke="#191970" points="169.4409,-29.0441 178.8454,-24.1649 168.4509,-22.1144 169.4409,-29.0441"/>
</g>
</g>
</svg>
