<?xml version="1.0" encoding="UTF-8" standalone="no"?>
<!DOCTYPE svg PUBLIC "-//W3C//DTD SVG 1.1//EN"
 "http://www.w3.org/Graphics/SVG/1.1/DTD/svg11.dtd">
<!-- Generated by graphviz version 2.40.1 (20161225.0304)
 -->
<!-- Title: hydrogen_framework::Diff_Mapping Pages: 1 -->
<svg width="909pt" height="612pt"
 viewBox="0.00 0.00 908.50 612.00" xmlns="http://www.w3.org/2000/svg" xmlns:xlink="http://www.w3.org/1999/xlink">
<g id="graph0" class="graph" transform="scale(1 1) rotate(0) translate(4 608)">
<title>hydrogen_framework::Diff_Mapping</title>
<!-- Node2 -->
<g id="node1" class="node">
<title>Node2</title>
<g id="a_node1"><a xlink:title=" ">
<polygon fill="#bfbfbf" stroke="#000000" points="368,-.5 368,-222.5 511,-222.5 511,-.5 368,-.5"/>
<text text-anchor="start" x="376" y="-210.5" font-family="Helvetica,sans-Serif" font-size="10.00" fill="#000000">hydrogen_framework</text>
<text text-anchor="middle" x="439.5" y="-199.5" font-family="Helvetica,sans-Serif" font-size="10.00" fill="#000000">::Diff_Mapping</text>
<polyline fill="none" stroke="#000000" points="368,-192.5 511,-192.5 "/>
<text text-anchor="middle" x="439.5" y="-180.5" font-family="Helvetica,sans-Serif" font-size="10.00" fill="#000000"> </text>
<polyline fill="none" stroke="#000000" points="368,-173.5 511,-173.5 "/>
<text text-anchor="start" x="376" y="-161.5" font-family="Helvetica,sans-Serif" font-size="10.00" fill="#000000">+ Diff_Mapping()</text>
<text text-anchor="start" x="376" y="-150.5" font-family="Helvetica,sans-Serif" font-size="10.00" fill="#000000">+ ~Diff_Mapping()</text>
<text text-anchor="start" x="376" y="-139.5" font-family="Helvetica,sans-Serif" font-size="10.00" fill="#000000">+ getAddedLines()</text>
<text text-anchor="start" x="376" y="-128.5" font-family="Helvetica,sans-Serif" font-size="10.00" fill="#000000">+ getAfterLineNumber()</text>
<text text-anchor="start" x="376" y="-117.5" font-family="Helvetica,sans-Serif" font-size="10.00" fill="#000000">+ getBeforeLineNumber()</text>
<text text-anchor="start" x="376" y="-106.5" font-family="Helvetica,sans-Serif" font-size="10.00" fill="#000000">+ getDeletedLines()</text>
<text text-anchor="start" x="376" y="-95.5" font-family="Helvetica,sans-Serif" font-size="10.00" fill="#000000">+ getFileName()</text>
<text text-anchor="start" x="376" y="-84.5" font-family="Helvetica,sans-Serif" font-size="10.00" fill="#000000">+ getMapping()</text>
<text text-anchor="start" x="376" y="-73.5" font-family="Helvetica,sans-Serif" font-size="10.00" fill="#000000">+ getMatchedLines()</text>
<text text-anchor="start" x="376" y="-62.5" font-family="Helvetica,sans-Serif" font-size="10.00" fill="#000000">+ printAddedLines()</text>
<text text-anchor="start" x="376" y="-51.5" font-family="Helvetica,sans-Serif" font-size="10.00" fill="#000000">+ printDeletedLines()</text>
<text text-anchor="start" x="376" y="-40.5" font-family="Helvetica,sans-Serif" font-size="10.00" fill="#000000">+ printFileInfo()</text>
<text text-anchor="start" x="376" y="-29.5" font-family="Helvetica,sans-Serif" font-size="10.00" fill="#000000">+ printMapping()</text>
<text text-anchor="start" x="376" y="-18.5" font-family="Helvetica,sans-Serif" font-size="10.00" fill="#000000">+ printMatchedLines()</text>
<text text-anchor="start" x="376" y="-7.5" font-family="Helvetica,sans-Serif" font-size="10.00" fill="#000000">+ putMapping()</text>
</a>
</g>
</g>
<!-- Node3 -->
<g id="node2" class="node">
<title>Node3</title>
<g id="a_node2"><a xlink:href="../../d3/db1/classhydrogen__framework_1_1Diff__Vars.html" target="_top" xlink:title=" ">
<polygon fill="none" stroke="#000000" points="122,-281.5 122,-360.5 243,-360.5 243,-281.5 122,-281.5"/>
<text text-anchor="start" x="130" y="-348.5" font-family="Helvetica,sans-Serif" font-size="10.00" fill="#000000">hydrogen_framework</text>
<text text-anchor="middle" x="182.5" y="-337.5" font-family="Helvetica,sans-Serif" font-size="10.00" fill="#000000">::Diff_Vars</text>
<polyline fill="none" stroke="#000000" points="122,-330.5 243,-330.5 "/>
<text text-anchor="middle" x="182.5" y="-318.5" font-family="Helvetica,sans-Serif" font-size="10.00" fill="#000000"> </text>
<polyline fill="none" stroke="#000000" points="122,-311.5 243,-311.5 "/>
<text text-anchor="start" x="130" y="-299.5" font-family="Helvetica,sans-Serif" font-size="10.00" fill="#000000">+ Diff_Vars()</text>
<text text-anchor="start" x="130" y="-288.5" font-family="Helvetica,sans-Serif" font-size="10.00" fill="#000000">+ ~Diff_Vars()</text>
</a>
</g>
</g>
<!-- Node3&#45;&gt;Node2 -->
<g id="edge1" class="edge">
<title>Node3&#45;&gt;Node2</title>
<path fill="none" stroke="#191970" d="M239.0269,-274.9207C276.8901,-244.0555 327.0592,-203.159 367.737,-169.9994"/>
<polygon fill="none" stroke="#191970" points="236.6814,-272.3171 231.1419,-281.3484 241.1043,-277.7428 236.6814,-272.3171"/>
</g>
<!-- Node4 -->
<g id="node3" class="node">
<title>Node4</title>
<g id="a_node3"><a xlink:title="STL class.">
<polygon fill="none" stroke="#bfbfbf" points="198,-430.5 198,-487.5 263,-487.5 263,-430.5 198,-430.5"/>
<text text-anchor="middle" x="230.5" y="-475.5" font-family="Helvetica,sans-Serif" font-size="10.00" fill="#000000">std::string</text>
<polyline fill="none" stroke="#bfbfbf" points="198,-468.5 263,-468.5 "/>
<text text-anchor="middle" x="230.5" y="-456.5" font-family="Helvetica,sans-Serif" font-size="10.00" fill="#000000"> </text>
<polyline fill="none" stroke="#bfbfbf" points="198,-449.5 263,-449.5 "/>
<text text-anchor="middle" x="230.5" y="-437.5" font-family="Helvetica,sans-Serif" font-size="10.00" fill="#000000"> </text>
</a>
</g>
</g>
<!-- Node4&#45;&gt;Node2 -->
<g id="edge17" class="edge">
<title>Node4&#45;&gt;Node2</title>
<path fill="none" stroke="#404040" d="M263.2298,-442.3883C275.1779,-434.7208 287.6681,-424.5122 295.5,-412 326.8636,-361.8937 295.6501,-335.5179 318.5,-281 329.3226,-255.1781 344.6693,-229.4687 360.8128,-206.1664"/>
<polygon fill="none" stroke="#404040" points="360.8386,-206.1299 361.0386,-198.9215 367.7694,-196.3337 367.5694,-203.5421 360.8386,-206.1299"/>
<text text-anchor="middle" x="344.5" y="-318.5" font-family="Helvetica,sans-Serif" font-size="10.00" fill="#000000"> &#45;fileName</text>
</g>
<!-- Node4&#45;&gt;Node3 -->
<g id="edge2" class="edge">
<title>Node4&#45;&gt;Node3</title>
<path fill="none" stroke="#404040" d="M197.7931,-433.1892C191.9917,-426.9231 186.7664,-419.7648 183.5,-412 178.4395,-399.9704 176.5406,-386.2296 176.2899,-373.1345"/>
<polygon fill="none" stroke="#404040" points="176.2947,-372.8522 172.4005,-366.783 176.505,-360.854 180.3993,-366.9232 176.2947,-372.8522"/>
<text text-anchor="middle" x="239.5" y="-404" font-family="Helvetica,sans-Serif" font-size="10.00" fill="#000000"> +SES_MARK_ADD</text>
<text text-anchor="middle" x="239.5" y="-393" font-family="Helvetica,sans-Serif" font-size="10.00" fill="#000000">+SES_MARK_COMMON</text>
<text text-anchor="middle" x="239.5" y="-382" font-family="Helvetica,sans-Serif" font-size="10.00" fill="#000000">+SES_MARK_DELETE</text>
</g>
<!-- Node5 -->
<g id="node4" class="node">
<title>Node5</title>
<g id="a_node4"><a xlink:title="STL class.">
<polygon fill="none" stroke="#bfbfbf" points="178.5,-535.5 178.5,-603.5 282.5,-603.5 282.5,-535.5 178.5,-535.5"/>
<text text-anchor="start" x="186.5" y="-591.5" font-family="Helvetica,sans-Serif" font-size="10.00" fill="#000000">std::basic_string&lt;</text>
<text text-anchor="middle" x="230.5" y="-580.5" font-family="Helvetica,sans-Serif" font-size="10.00" fill="#000000"> char &gt;</text>
<polyline fill="none" stroke="#bfbfbf" points="178.5,-573.5 282.5,-573.5 "/>
<text text-anchor="middle" x="230.5" y="-561.5" font-family="Helvetica,sans-Serif" font-size="10.00" fill="#000000"> </text>
<polyline fill="none" stroke="#bfbfbf" points="178.5,-554.5 282.5,-554.5 "/>
<text text-anchor="middle" x="230.5" y="-542.5" font-family="Helvetica,sans-Serif" font-size="10.00" fill="#000000"> </text>
</a>
</g>
</g>
<!-- Node5&#45;&gt;Node4 -->
<g id="edge3" class="edge">
<title>Node5&#45;&gt;Node4</title>
<path fill="none" stroke="#191970" d="M230.5,-525.0661C230.5,-512.4172 230.5,-498.9812 230.5,-487.5519"/>
<polygon fill="none" stroke="#191970" points="227.0001,-525.4447 230.5,-535.4447 234.0001,-525.4447 227.0001,-525.4447"/>
</g>
<!-- Node6 -->
<g id="node5" class="node">
<title>Node6</title>
<g id="a_node5"><a xlink:title=" ">
<polygon fill="none" stroke="#bfbfbf" points="0,-430.5 0,-487.5 61,-487.5 61,-430.5 0,-430.5"/>
<text text-anchor="middle" x="30.5" y="-475.5" font-family="Helvetica,sans-Serif" font-size="10.00" fill="#000000">unsigned</text>
<polyline fill="none" stroke="#bfbfbf" points="0,-468.5 61,-468.5 "/>
<text text-anchor="middle" x="30.5" y="-456.5" font-family="Helvetica,sans-Serif" font-size="10.00" fill="#000000"> </text>
<polyline fill="none" stroke="#bfbfbf" points="0,-449.5 61,-449.5 "/>
<text text-anchor="middle" x="30.5" y="-437.5" font-family="Helvetica,sans-Serif" font-size="10.00" fill="#000000"> </text>
</a>
</g>
</g>
<!-- Node6&#45;&gt;Node3 -->
<g id="edge4" class="edge">
<title>Node6&#45;&gt;Node3</title>
<path fill="none" stroke="#404040" d="M29.0315,-430.3533C29.6414,-413.7382 33.0731,-393.3322 44.5,-379 60.9337,-358.3879 86.0103,-345.0042 110.3005,-336.3567"/>
<polygon fill="none" stroke="#404040" points="110.3447,-336.3422 114.7954,-330.6685 121.7445,-332.5946 117.2938,-338.2683 110.3447,-336.3422"/>
<text text-anchor="middle" x="109" y="-393" font-family="Helvetica,sans-Serif" font-size="10.00" fill="#000000"> +MAX_CORDINATES_SIZE</text>
</g>
<!-- Node7 -->
<g id="node6" class="node">
<title>Node7</title>
<g id="a_node6"><a xlink:title=" ">
<polygon fill="none" stroke="#bfbfbf" points="380,-292.5 380,-349.5 499,-349.5 499,-292.5 380,-292.5"/>
<text text-anchor="middle" x="439.5" y="-337.5" font-family="Helvetica,sans-Serif" font-size="10.00" fill="#000000">std::list&lt; elemInfo &gt;</text>
<polyline fill="none" stroke="#bfbfbf" points="380,-330.5 499,-330.5 "/>
<text text-anchor="middle" x="439.5" y="-318.5" font-family="Helvetica,sans-Serif" font-size="10.00" fill="#000000"> </text>
<polyline fill="none" stroke="#bfbfbf" points="380,-311.5 499,-311.5 "/>
<text text-anchor="middle" x="439.5" y="-299.5" font-family="Helvetica,sans-Serif" font-size="10.00" fill="#000000"> </text>
</a>
</g>
</g>
<!-- Node7&#45;&gt;Node2 -->
<g id="edge5" class="edge">
<title>Node7&#45;&gt;Node2</title>
<path fill="none" stroke="#404040" d="M439.5,-292.3092C439.5,-276.7078 439.5,-256.2225 439.5,-234.6628"/>
<polygon fill="none" stroke="#404040" points="439.5001,-234.5988 435.5,-228.5988 439.5,-222.5988 443.5,-228.5988 439.5001,-234.5988"/>
<text text-anchor="middle" x="462.5" y="-249.5" font-family="Helvetica,sans-Serif" font-size="10.00" fill="#000000"> &#45;lineMap</text>
</g>
<!-- Node8 -->
<g id="node7" class="node">
<title>Node8</title>
<g id="a_node7"><a xlink:title=" ">
<polygon fill="none" stroke="#bfbfbf" points="332.5,-430.5 332.5,-487.5 392.5,-487.5 392.5,-430.5 332.5,-430.5"/>
<text text-anchor="middle" x="362.5" y="-475.5" font-family="Helvetica,sans-Serif" font-size="10.00" fill="#000000">elemInfo</text>
<polyline fill="none" stroke="#bfbfbf" points="332.5,-468.5 392.5,-468.5 "/>
<text text-anchor="middle" x="362.5" y="-456.5" font-family="Helvetica,sans-Serif" font-size="10.00" fill="#000000"> </text>
<polyline fill="none" stroke="#bfbfbf" points="332.5,-449.5 392.5,-449.5 "/>
<text text-anchor="middle" x="362.5" y="-437.5" font-family="Helvetica,sans-Serif" font-size="10.00" fill="#000000"> </text>
</a>
</g>
</g>
<!-- Node8&#45;&gt;Node7 -->
<g id="edge6" class="edge">
<title>Node8&#45;&gt;Node7</title>
<path fill="none" stroke="#404040" d="M356.9317,-430.1601C355.2758,-414.2617 355.6408,-394.6375 363.5,-379 367.4457,-371.1493 373.0093,-364.0653 379.3531,-357.7666"/>
<polygon fill="none" stroke="#404040" points="379.4648,-357.6667 381.2698,-350.6851 388.4086,-349.6661 386.6036,-356.6476 379.4648,-357.6667"/>
<text text-anchor="middle" x="392.5" y="-393" font-family="Helvetica,sans-Serif" font-size="10.00" fill="#000000"> +elements</text>
</g>
<!-- Node9 -->
<g id="node8" class="node">
<title>Node9</title>
<g id="a_node8"><a xlink:title="STL class.">
<polygon fill="none" stroke="#bfbfbf" points="496,-430.5 496,-487.5 577,-487.5 577,-430.5 496,-430.5"/>
<text text-anchor="middle" x="536.5" y="-475.5" font-family="Helvetica,sans-Serif" font-size="10.00" fill="#000000">std::list&lt; T &gt;</text>
<polyline fill="none" stroke="#bfbfbf" points="496,-468.5 577,-468.5 "/>
<text text-anchor="middle" x="536.5" y="-456.5" font-family="Helvetica,sans-Serif" font-size="10.00" fill="#000000"> </text>
<polyline fill="none" stroke="#bfbfbf" points="496,-449.5 577,-449.5 "/>
<text text-anchor="middle" x="536.5" y="-437.5" font-family="Helvetica,sans-Serif" font-size="10.00" fill="#000000"> </text>
</a>
</g>
</g>
<!-- Node9&#45;&gt;Node7 -->
<g id="edge7" class="edge">
<title>Node9&#45;&gt;Node7</title>
<path fill="none" stroke="#ffa500" d="M486.927,-436.8876C476.5445,-430.2202 466.6049,-421.9615 459.5,-412 446.5379,-393.8265 441.7388,-368.8028 440.0686,-349.5952"/>
<polygon fill="#ffa500" stroke="#ffa500" points="485.3179,-440.0031 495.6999,-442.1165 488.9018,-433.9901 485.3179,-440.0031"/>
<text text-anchor="middle" x="494.5" y="-393" font-family="Helvetica,sans-Serif" font-size="10.00" fill="#000000"> &lt; elemInfo &gt;</text>
</g>
<!-- Node11 -->
<g id="node10" class="node">
<title>Node11</title>
<g id="a_node10"><a xlink:title=" ">
<polygon fill="none" stroke="#bfbfbf" points="517.5,-292.5 517.5,-349.5 637.5,-349.5 637.5,-292.5 517.5,-292.5"/>
<text text-anchor="middle" x="577.5" y="-337.5" font-family="Helvetica,sans-Serif" font-size="10.00" fill="#000000">std::list&lt; long long &gt;</text>
<polyline fill="none" stroke="#bfbfbf" points="517.5,-330.5 637.5,-330.5 "/>
<text text-anchor="middle" x="577.5" y="-318.5" font-family="Helvetica,sans-Serif" font-size="10.00" fill="#000000"> </text>
<polyline fill="none" stroke="#bfbfbf" points="517.5,-311.5 637.5,-311.5 "/>
<text text-anchor="middle" x="577.5" y="-299.5" font-family="Helvetica,sans-Serif" font-size="10.00" fill="#000000"> </text>
</a>
</g>
</g>
<!-- Node9&#45;&gt;Node11 -->
<g id="edge11" class="edge">
<title>Node9&#45;&gt;Node11</title>
<path fill="none" stroke="#ffa500" d="M532.4541,-419.9543C532.2613,-406.6878 533.3784,-391.9504 537.5,-379 540.8015,-368.6263 546.6421,-358.4554 552.8572,-349.6001"/>
<polygon fill="#ffa500" stroke="#ffa500" points="528.9673,-420.3614 532.8572,-430.2163 535.9619,-420.0866 528.9673,-420.3614"/>
<text text-anchor="middle" x="573" y="-393" font-family="Helvetica,sans-Serif" font-size="10.00" fill="#000000"> &lt; long long &gt;</text>
</g>
<!-- Node10 -->
<g id="node9" class="node">
<title>Node10</title>
<g id="a_node9"><a xlink:title=" ">
<polygon fill="none" stroke="#bfbfbf" points="578,-541 578,-598 607,-598 607,-541 578,-541"/>
<text text-anchor="middle" x="592.5" y="-586" font-family="Helvetica,sans-Serif" font-size="10.00" fill="#000000">T</text>
<polyline fill="none" stroke="#bfbfbf" points="578,-579 607,-579 "/>
<text text-anchor="middle" x="592.5" y="-567" font-family="Helvetica,sans-Serif" font-size="10.00" fill="#000000"> </text>
<polyline fill="none" stroke="#bfbfbf" points="578,-560 607,-560 "/>
<text text-anchor="middle" x="592.5" y="-548" font-family="Helvetica,sans-Serif" font-size="10.00" fill="#000000"> </text>
</a>
</g>
</g>
<!-- Node10&#45;&gt;Node9 -->
<g id="edge8" class="edge">
<title>Node10&#45;&gt;Node9</title>
<path fill="none" stroke="#404040" d="M577.9328,-540.7559C571.3866,-527.8387 563.5565,-512.3882 556.4746,-498.4141"/>
<polygon fill="none" stroke="#404040" points="556.4189,-498.3041 550.1386,-494.7604 550.9942,-487.6002 557.2745,-491.1439 556.4189,-498.3041"/>
<text text-anchor="middle" x="593.5" y="-509" font-family="Helvetica,sans-Serif" font-size="10.00" fill="#000000"> +elements</text>
</g>
<!-- Node14 -->
<g id="node13" class="node">
<title>Node14</title>
<g id="a_node13"><a xlink:title="STL class.">
<polygon fill="none" stroke="#bfbfbf" points="726,-430.5 726,-487.5 827,-487.5 827,-430.5 726,-430.5"/>
<text text-anchor="middle" x="776.5" y="-475.5" font-family="Helvetica,sans-Serif" font-size="10.00" fill="#000000">std::map&lt; K, T &gt;</text>
<polyline fill="none" stroke="#bfbfbf" points="726,-468.5 827,-468.5 "/>
<text text-anchor="middle" x="776.5" y="-456.5" font-family="Helvetica,sans-Serif" font-size="10.00" fill="#000000"> </text>
<polyline fill="none" stroke="#bfbfbf" points="726,-449.5 827,-449.5 "/>
<text text-anchor="middle" x="776.5" y="-437.5" font-family="Helvetica,sans-Serif" font-size="10.00" fill="#000000"> </text>
</a>
</g>
</g>
<!-- Node10&#45;&gt;Node14 -->
<g id="edge16" class="edge">
<title>Node10&#45;&gt;Node14</title>
<path fill="none" stroke="#404040" d="M607.2465,-560.6441C631.0991,-546.3196 679.4023,-517.3114 718.3231,-493.9377"/>
<polygon fill="none" stroke="#404040" points="718.7364,-493.6896 721.8208,-487.1714 729.0239,-487.5115 725.9395,-494.0297 718.7364,-493.6896"/>
<text text-anchor="middle" x="725.5" y="-509" font-family="Helvetica,sans-Serif" font-size="10.00" fill="#000000"> +elements</text>
</g>
<!-- Node11&#45;&gt;Node2 -->
<g id="edge9" class="edge">
<title>Node11&#45;&gt;Node2</title>
<path fill="none" stroke="#404040" d="M558.601,-292.3092C547.6697,-275.7141 533.0984,-253.5931 517.9071,-230.5311"/>
<polygon fill="none" stroke="#404040" points="517.7333,-230.2671 511.0923,-227.4568 511.1321,-220.2458 517.7731,-223.0561 517.7333,-230.2671"/>
<text text-anchor="middle" x="571" y="-255" font-family="Helvetica,sans-Serif" font-size="10.00" fill="#000000"> &#45;addedLines</text>
<text text-anchor="middle" x="571" y="-244" font-family="Helvetica,sans-Serif" font-size="10.00" fill="#000000">&#45;deletedLines</text>
</g>
<!-- Node12 -->
<g id="node11" class="node">
<title>Node12</title>
<g id="a_node11"><a xlink:title=" ">
<polygon fill="none" stroke="#bfbfbf" points="614.5,-430.5 614.5,-487.5 676.5,-487.5 676.5,-430.5 614.5,-430.5"/>
<text text-anchor="middle" x="645.5" y="-475.5" font-family="Helvetica,sans-Serif" font-size="10.00" fill="#000000">long long</text>
<polyline fill="none" stroke="#bfbfbf" points="614.5,-468.5 676.5,-468.5 "/>
<text text-anchor="middle" x="645.5" y="-456.5" font-family="Helvetica,sans-Serif" font-size="10.00" fill="#000000"> </text>
<polyline fill="none" stroke="#bfbfbf" points="614.5,-449.5 676.5,-449.5 "/>
<text text-anchor="middle" x="645.5" y="-437.5" font-family="Helvetica,sans-Serif" font-size="10.00" fill="#000000"> </text>
</a>
</g>
</g>
<!-- Node12&#45;&gt;Node11 -->
<g id="edge10" class="edge">
<title>Node12&#45;&gt;Node11</title>
<path fill="none" stroke="#404040" d="M632.7104,-430.3003C625.7593,-414.9747 616.8901,-395.8485 608.5,-379 605.5099,-372.9955 602.2596,-366.6923 599.0259,-360.5438"/>
<polygon fill="none" stroke="#404040" points="598.9161,-360.3371 592.5677,-356.9169 593.2831,-349.7413 599.6315,-353.1616 598.9161,-360.3371"/>
<text text-anchor="middle" x="653.5" y="-393" font-family="Helvetica,sans-Serif" font-size="10.00" fill="#000000"> +elements</text>
</g>
<!-- Node13 -->
<g id="node12" class="node">
<title>Node13</title>
<g id="a_node12"><a xlink:title=" ">
<polygon fill="none" stroke="#bfbfbf" points="656,-287 656,-355 775,-355 775,-287 656,-287"/>
<text text-anchor="start" x="664" y="-343" font-family="Helvetica,sans-Serif" font-size="10.00" fill="#000000">std::map&lt; long long,</text>
<text text-anchor="middle" x="715.5" y="-332" font-family="Helvetica,sans-Serif" font-size="10.00" fill="#000000"> long long &gt;</text>
<polyline fill="none" stroke="#bfbfbf" points="656,-325 775,-325 "/>
<text text-anchor="middle" x="715.5" y="-313" font-family="Helvetica,sans-Serif" font-size="10.00" fill="#000000"> </text>
<polyline fill="none" stroke="#bfbfbf" points="656,-306 775,-306 "/>
<text text-anchor="middle" x="715.5" y="-294" font-family="Helvetica,sans-Serif" font-size="10.00" fill="#000000"> </text>
</a>
</g>
</g>
<!-- Node12&#45;&gt;Node13 -->
<g id="edge13" class="edge">
<title>Node12&#45;&gt;Node13</title>
<path fill="none" stroke="#404040" d="M673.7236,-430.3093C678.435,-424.5531 682.9399,-418.3213 686.5,-412 694.333,-398.0918 700.3757,-381.7758 704.8669,-366.8296"/>
<polygon fill="none" stroke="#404040" points="704.8867,-366.7592 702.6636,-359.8993 708.1408,-355.2088 710.3638,-362.0687 704.8867,-366.7592"/>
<text text-anchor="middle" x="729.5" y="-398.5" font-family="Helvetica,sans-Serif" font-size="10.00" fill="#000000"> +elements</text>
<text text-anchor="middle" x="729.5" y="-387.5" font-family="Helvetica,sans-Serif" font-size="10.00" fill="#000000">+keys</text>
</g>
<!-- Node13&#45;&gt;Node2 -->
<g id="edge12" class="edge">
<title>Node13&#45;&gt;Node2</title>
<path fill="none" stroke="#404040" d="M670.5416,-286.8739C630.0867,-256.1664 569.6642,-210.3022 520.756,-173.178"/>
<polygon fill="none" stroke="#404040" points="520.6955,-173.1321 513.4979,-172.6906 511.1372,-165.8768 518.3348,-166.3184 520.6955,-173.1321"/>
<text text-anchor="middle" x="672.5" y="-249.5" font-family="Helvetica,sans-Serif" font-size="10.00" fill="#000000"> &#45;matchedLines</text>
</g>
<!-- Node14&#45;&gt;Node13 -->
<g id="edge14" class="edge">
<title>Node14&#45;&gt;Node13</title>
<path fill="none" stroke="#ffa500" d="M778.8199,-420.4365C778.3058,-406.8499 776.1622,-391.7869 770.5,-379 766.7355,-370.4986 761.1742,-362.4744 755.0144,-355.2598"/>
<polygon fill="#ffa500" stroke="#ffa500" points="775.3204,-420.5142 778.9266,-430.4764 782.32,-420.4397 775.3204,-420.5142"/>
<text text-anchor="middle" x="839.5" y="-393" font-family="Helvetica,sans-Serif" font-size="10.00" fill="#000000"> &lt; long long, long long &gt;</text>
</g>
<!-- Node15 -->
<g id="node14" class="node">
<title>Node15</title>
<g id="a_node14"><a xlink:title=" ">
<polygon fill="none" stroke="#bfbfbf" points="762,-541 762,-598 791,-598 791,-541 762,-541"/>
<text text-anchor="middle" x="776.5" y="-586" font-family="Helvetica,sans-Serif" font-size="10.00" fill="#000000">K</text>
<polyline fill="none" stroke="#bfbfbf" points="762,-579 791,-579 "/>
<text text-anchor="middle" x="776.5" y="-567" font-family="Helvetica,sans-Serif" font-size="10.00" fill="#000000"> </text>
<polyline fill="none" stroke="#bfbfbf" points="762,-560 791,-560 "/>
<text text-anchor="middle" x="776.5" y="-548" font-family="Helvetica,sans-Serif" font-size="10.00" fill="#000000"> </text>
</a>
</g>
</g>
<!-- Node15&#45;&gt;Node14 -->
<g id="edge15" class="edge">
<title>Node15&#45;&gt;Node14</title>
<path fill="none" stroke="#404040" d="M776.5,-540.7559C776.5,-528.2224 776.5,-513.3039 776.5,-499.6631"/>
<polygon fill="none" stroke="#404040" points="776.5001,-499.6002 772.5,-493.6002 776.5,-487.6002 780.5,-493.6002 776.5001,-499.6002"/>
<text text-anchor="middle" x="794" y="-509" font-family="Helvetica,sans-Serif" font-size="10.00" fill="#000000"> +keys</text>
</g>
</g>
</svg>
