<?xml version="1.0" encoding="UTF-8" standalone="no"?>
<!DOCTYPE svg PUBLIC "-//W3C//DTD SVG 1.1//EN"
 "http://www.w3.org/Graphics/SVG/1.1/DTD/svg11.dtd">
<!-- Generated by graphviz version 2.40.1 (20161225.0304)
 -->
<!-- Title: hydrogen_framework::Graph_Function::pushFunctionLines Pages: 1 -->
<svg width="609pt" height="127pt"
 viewBox="0.00 0.00 609.00 127.00" xmlns="http://www.w3.org/2000/svg" xmlns:xlink="http://www.w3.org/1999/xlink">
<g id="graph0" class="graph" transform="scale(1 1) rotate(0) translate(4 123)">
<title>hydrogen_framework::Graph_Function::pushFunctionLines</title>
<!-- Node46 -->
<g id="node1" class="node">
<title>Node46</title>
<g id="a_node1"><a xlink:title=" ">
<polygon fill="#bfbfbf" stroke="#000000" points="434,-39 434,-80 601,-80 601,-39 434,-39"/>
<text text-anchor="start" x="442" y="-68" font-family="Helvetica,sans-Serif" font-size="10.00" fill="#000000">hydrogen_framework</text>
<text text-anchor="start" x="442" y="-57" font-family="Helvetica,sans-Serif" font-size="10.00" fill="#000000">::Graph_Function::pushFunction</text>
<text text-anchor="middle" x="517.5" y="-46" font-family="Helvetica,sans-Serif" font-size="10.00" fill="#000000">Lines</text>
</a>
</g>
</g>
<!-- Node47 -->
<g id="node2" class="node">
<title>Node47</title>
<g id="a_node2"><a xlink:href="../../d4/d7a/classhydrogen__framework_1_1Graph.html#a37c8344541a9008ee43ce284f28539ae" target="_top" xlink:title=" ">
<polygon fill="none" stroke="#000000" points="234,-88.5 234,-118.5 398,-118.5 398,-88.5 234,-88.5"/>
<text text-anchor="start" x="242" y="-106.5" font-family="Helvetica,sans-Serif" font-size="10.00" fill="#000000">hydrogen_framework</text>
<text text-anchor="middle" x="316" y="-95.5" font-family="Helvetica,sans-Serif" font-size="10.00" fill="#000000">::Graph::addFunctionCallEdges</text>
</a>
</g>
</g>
<!-- Node46&#45;&gt;Node47 -->
<g id="edge1" class="edge">
<title>Node46&#45;&gt;Node47</title>
<path fill="none" stroke="#191970" d="M423.7857,-79.9637C410.6342,-82.8355 397.3221,-85.7423 384.7516,-88.4872"/>
<polygon fill="#191970" stroke="#191970" points="424.7733,-83.3306 433.7964,-77.7777 423.2799,-76.4917 424.7733,-83.3306"/>
</g>
<!-- Node48 -->
<g id="node3" class="node">
<title>Node48</title>
<g id="a_node3"><a xlink:href="../../db/d17/MVICFG_8cpp.html#a8abab0f2232beace9b14c3c7dfa368dd" target="_top" xlink:title=" ">
<polygon fill="none" stroke="#000000" points="77,-44.5 77,-74.5 198,-74.5 198,-44.5 77,-44.5"/>
<text text-anchor="start" x="85" y="-62.5" font-family="Helvetica,sans-Serif" font-size="10.00" fill="#000000">hydrogen_framework</text>
<text text-anchor="middle" x="137.5" y="-51.5" font-family="Helvetica,sans-Serif" font-size="10.00" fill="#000000">::buildICFG</text>
</a>
</g>
</g>
<!-- Node46&#45;&gt;Node48 -->
<g id="edge7" class="edge">
<title>Node46&#45;&gt;Node48</title>
<path fill="none" stroke="#191970" d="M423.4306,-59.5C353.0366,-59.5 258.8258,-59.5 198.1405,-59.5"/>
<polygon fill="#191970" stroke="#191970" points="423.637,-63.0001 433.637,-59.5 423.6369,-56.0001 423.637,-63.0001"/>
</g>
<!-- Node50 -->
<g id="node5" class="node">
<title>Node50</title>
<g id="a_node5"><a xlink:href="../../d4/d7a/classhydrogen__framework_1_1Graph.html#a2baf6364fa45c8574b581fe8c6df79c6" target="_top" xlink:title=" ">
<polygon fill="none" stroke="#000000" points="246.5,-.5 246.5,-30.5 385.5,-30.5 385.5,-.5 246.5,-.5"/>
<text text-anchor="start" x="254.5" y="-18.5" font-family="Helvetica,sans-Serif" font-size="10.00" fill="#000000">hydrogen_framework</text>
<text text-anchor="middle" x="316" y="-7.5" font-family="Helvetica,sans-Serif" font-size="10.00" fill="#000000">::Graph::addVirtualNodes</text>
</a>
</g>
</g>
<!-- Node46&#45;&gt;Node50 -->
<g id="edge5" class="edge">
<title>Node46&#45;&gt;Node50</title>
<path fill="none" stroke="#191970" d="M423.7857,-39.0363C410.6342,-36.1645 397.3221,-33.2577 384.7516,-30.5128"/>
<polygon fill="#191970" stroke="#191970" points="423.2799,-42.5083 433.7964,-41.2223 424.7733,-35.6694 423.2799,-42.5083"/>
</g>
<!-- Node47&#45;&gt;Node48 -->
<g id="edge2" class="edge">
<title>Node47&#45;&gt;Node48</title>
<path fill="none" stroke="#191970" d="M245.0087,-86.0007C229.4983,-82.1775 213.2195,-78.1647 198.1557,-74.4516"/>
<polygon fill="#191970" stroke="#191970" points="244.5226,-89.4856 255.0697,-88.4808 246.198,-82.6891 244.5226,-89.4856"/>
</g>
<!-- Node48&#45;&gt;Node48 -->
<g id="edge3" class="edge">
<title>Node48&#45;&gt;Node48</title>
<path fill="none" stroke="#191970" d="M158.1118,-84.9579C155.5536,-89.679 148.683,-93 137.5,-93 119.1484,-93 112.41,-84.0566 117.2846,-74.659"/>
<polygon fill="#191970" stroke="#191970" points="161.5975,-84.517 157.7154,-74.659 154.6027,-84.7863 161.5975,-84.517"/>
</g>
<!-- Node49 -->
<g id="node4" class="node">
<title>Node49</title>
<g id="a_node4"><a xlink:href="../../de/d64/Hydrogen_8cpp.html#a0ddf1224851353fc92bfbff6f499fa97" target="_top" xlink:title=" ">
<polygon fill="none" stroke="#000000" points="0,-50 0,-69 41,-69 41,-50 0,-50"/>
<text text-anchor="middle" x="20.5" y="-57" font-family="Helvetica,sans-Serif" font-size="10.00" fill="#000000">main</text>
</a>
</g>
</g>
<!-- Node48&#45;&gt;Node49 -->
<g id="edge4" class="edge">
<title>Node48&#45;&gt;Node49</title>
<path fill="none" stroke="#191970" d="M66.7111,-59.5C57.3948,-59.5 48.514,-59.5 41.0724,-59.5"/>
<polygon fill="#191970" stroke="#191970" points="66.9438,-63.0001 76.9437,-59.5 66.9437,-56.0001 66.9438,-63.0001"/>
</g>
<!-- Node50&#45;&gt;Node48 -->
<g id="edge6" class="edge">
<title>Node50&#45;&gt;Node48</title>
<path fill="none" stroke="#191970" d="M245.0087,-32.9993C229.4983,-36.8225 213.2195,-40.8353 198.1557,-44.5484"/>
<polygon fill="#191970" stroke="#191970" points="246.198,-36.3109 255.0697,-30.5192 244.5226,-29.5144 246.198,-36.3109"/>
</g>
</g>
</svg>
