<?xml version="1.0" encoding="UTF-8" standalone="no"?>
<!DOCTYPE svg PUBLIC "-//W3C//DTD SVG 1.1//EN"
 "http://www.w3.org/Graphics/SVG/1.1/DTD/svg11.dtd">
<!-- Generated by graphviz version 2.40.1 (20161225.0304)
 -->
<!-- Title: hydrogen_framework::Graph_Function::pushFrontFunctionLines Pages: 1 -->
<svg width="568pt" height="63pt"
 viewBox="0.00 0.00 568.00 62.50" xmlns="http://www.w3.org/2000/svg" xmlns:xlink="http://www.w3.org/1999/xlink">
<g id="graph0" class="graph" transform="scale(1 1) rotate(0) translate(4 58.5)">
<title>hydrogen_framework::Graph_Function::pushFrontFunctionLines</title>
<!-- Node40 -->
<g id="node1" class="node">
<title>Node40</title>
<g id="a_node1"><a xlink:title=" ">
<polygon fill="#bfbfbf" stroke="#000000" points="409,-.5 409,-41.5 560,-41.5 560,-.5 409,-.5"/>
<text text-anchor="start" x="417" y="-29.5" font-family="Helvetica,sans-Serif" font-size="10.00" fill="#000000">hydrogen_framework</text>
<text text-anchor="start" x="417" y="-18.5" font-family="Helvetica,sans-Serif" font-size="10.00" fill="#000000">::Graph_Function::pushFront</text>
<text text-anchor="middle" x="484.5" y="-7.5" font-family="Helvetica,sans-Serif" font-size="10.00" fill="#000000">FunctionLines</text>
</a>
</g>
</g>
<!-- Node41 -->
<g id="node2" class="node">
<title>Node41</title>
<g id="a_node2"><a xlink:href="../../d4/d7a/classhydrogen__framework_1_1Graph.html#a2baf6364fa45c8574b581fe8c6df79c6" target="_top" xlink:title=" ">
<polygon fill="none" stroke="#000000" points="234,-6 234,-36 373,-36 373,-6 234,-6"/>
<text text-anchor="start" x="242" y="-24" font-family="Helvetica,sans-Serif" font-size="10.00" fill="#000000">hydrogen_framework</text>
<text text-anchor="middle" x="303.5" y="-13" font-family="Helvetica,sans-Serif" font-size="10.00" fill="#000000">::Graph::addVirtualNodes</text>
</a>
</g>
</g>
<!-- Node40&#45;&gt;Node41 -->
<g id="edge1" class="edge">
<title>Node40&#45;&gt;Node41</title>
<path fill="none" stroke="#191970" d="M398.7532,-21C390.1664,-21 381.5223,-21 373.1315,-21"/>
<polygon fill="#191970" stroke="#191970" points="398.7885,-24.5001 408.7884,-21 398.7884,-17.5001 398.7885,-24.5001"/>
</g>
<!-- Node42 -->
<g id="node3" class="node">
<title>Node42</title>
<g id="a_node3"><a xlink:href="../../db/d17/MVICFG_8cpp.html#a8abab0f2232beace9b14c3c7dfa368dd" target="_top" xlink:title=" ">
<polygon fill="none" stroke="#000000" points="77,-6 77,-36 198,-36 198,-6 77,-6"/>
<text text-anchor="start" x="85" y="-24" font-family="Helvetica,sans-Serif" font-size="10.00" fill="#000000">hydrogen_framework</text>
<text text-anchor="middle" x="137.5" y="-13" font-family="Helvetica,sans-Serif" font-size="10.00" fill="#000000">::buildICFG</text>
</a>
</g>
</g>
<!-- Node41&#45;&gt;Node42 -->
<g id="edge2" class="edge">
<title>Node41&#45;&gt;Node42</title>
<path fill="none" stroke="#191970" d="M223.575,-21C215.0147,-21 206.4108,-21 198.128,-21"/>
<polygon fill="#191970" stroke="#191970" points="223.5822,-24.5001 233.5822,-21 223.5821,-17.5001 223.5822,-24.5001"/>
</g>
<!-- Node42&#45;&gt;Node42 -->
<g id="edge3" class="edge">
<title>Node42&#45;&gt;Node42</title>
<path fill="none" stroke="#191970" d="M158.1118,-46.4579C155.5536,-51.179 148.683,-54.5 137.5,-54.5 119.1484,-54.5 112.41,-45.5566 117.2846,-36.159"/>
<polygon fill="#191970" stroke="#191970" points="161.5975,-46.017 157.7154,-36.159 154.6027,-46.2863 161.5975,-46.017"/>
</g>
<!-- Node43 -->
<g id="node4" class="node">
<title>Node43</title>
<g id="a_node4"><a xlink:href="../../de/d64/Hydrogen_8cpp.html#a0ddf1224851353fc92bfbff6f499fa97" target="_top" xlink:title=" ">
<polygon fill="none" stroke="#000000" points="0,-11.5 0,-30.5 41,-30.5 41,-11.5 0,-11.5"/>
<text text-anchor="middle" x="20.5" y="-18.5" font-family="Helvetica,sans-Serif" font-size="10.00" fill="#000000">main</text>
</a>
</g>
</g>
<!-- Node42&#45;&gt;Node43 -->
<g id="edge4" class="edge">
<title>Node42&#45;&gt;Node43</title>
<path fill="none" stroke="#191970" d="M66.7111,-21C57.3948,-21 48.514,-21 41.0724,-21"/>
<polygon fill="#191970" stroke="#191970" points="66.9438,-24.5001 76.9437,-21 66.9437,-17.5001 66.9438,-24.5001"/>
</g>
</g>
</svg>
