<?xml version="1.0" encoding="UTF-8" standalone="no"?>
<!DOCTYPE svg PUBLIC "-//W3C//DTD SVG 1.1//EN"
 "http://www.w3.org/Graphics/SVG/1.1/DTD/svg11.dtd">
<!-- Generated by graphviz version 2.40.1 (20161225.0304)
 -->
<!-- Title: hydrogen_framework::Graph_Function::setFunctionName Pages: 1 -->
<!--zoomable 124 -->
<svg id="main" version="1.1" xmlns="http://www.w3.org/2000/svg" xmlns:xlink="http://www.w3.org/1999/xlink" xml:space="preserve" onload="init(evt)">
<style type="text/css"><![CDATA[
.edge:hover path { stroke: red; }
.edge:hover polygon { stroke: red; fill: red; }
]]></style>
<script type="text/javascript"><![CDATA[
var edges = document.getElementsByTagName('g');
if (edges && edges.length) {
  for (var i=0;i<edges.length;i++) {
    if (edges[i].id.substr(0,4)=='edge') {
      edges[i].setAttribute('class','edge');
    }
  }
}
]]></script>
        <defs>
                <circle id="rim" cx="0" cy="0" r="7"/>
                <circle id="rim2" cx="0" cy="0" r="3.5"/>
                <g id="zoomPlus">
                        <use xlink:href="#rim" fill="#404040">
                                <set attributeName="fill" to="#808080" begin="zoomplus.mouseover" end="zoomplus.mouseout"/>
                        </use>
                        <path d="M-4,0h8M0,-4v8" fill="none" stroke="white" stroke-width="1.5" pointer-events="none"/>
                </g>
                <g id="zoomMin">
                        <use xlink:href="#rim" fill="#404040">
                                <set attributeName="fill" to="#808080" begin="zoomminus.mouseover" end="zoomminus.mouseout"/>
                        </use>
                        <path d="M-4,0h8" fill="none" stroke="white" stroke-width="1.5" pointer-events="none"/>
                </g>
                <g id="dirArrow">
                        <path fill="none" stroke="white" stroke-width="1.5" d="M0,-3.0v7 M-2.5,-0.5L0,-3.0L2.5,-0.5"/>
                </g>
               <g id="resetDef">
                       <use xlink:href="#rim2" fill="#404040">
                               <set attributeName="fill" to="#808080" begin="reset.mouseover" end="reset.mouseout"/>
                       </use>
               </g>
        </defs>

<script type="text/javascript">
var viewWidth = 630;
var viewHeight = 124;
var sectionId = 'dynsection-11';
</script>
<script xlink:href="../../svgpan.js"/>
<svg id="graph" class="graph">
<g id="viewport">
<title>hydrogen_framework::Graph_Function::setFunctionName</title>
<!-- Node57 -->
<g id="node1" class="node">
<title>Node57</title>
<g id="a_node1"><a xlink:title=" ">
<polygon fill="#bfbfbf" stroke="#000000" points="434,-38.5 434,-68.5 622,-68.5 622,-38.5 434,-38.5"/>
<text text-anchor="start" x="442" y="-56.5" font-family="Helvetica,sans-Serif" font-size="10.00" fill="#000000">hydrogen_framework</text>
<text text-anchor="middle" x="528" y="-45.5" font-family="Helvetica,sans-Serif" font-size="10.00" fill="#000000">::Graph_Function::setFunctionName</text>
</a>
</g>
</g>
<!-- Node58 -->
<g id="node2" class="node">
<title>Node58</title>
<g id="a_node2"><a xlink:href="../../d4/d7a/classhydrogen__framework_1_1Graph.html#a37c8344541a9008ee43ce284f28539ae" target="_top" xlink:title=" ">
<polygon fill="none" stroke="#000000" points="234,-82.5 234,-112.5 398,-112.5 398,-82.5 234,-82.5"/>
<text text-anchor="start" x="242" y="-100.5" font-family="Helvetica,sans-Serif" font-size="10.00" fill="#000000">hydrogen_framework</text>
<text text-anchor="middle" x="316" y="-89.5" font-family="Helvetica,sans-Serif" font-size="10.00" fill="#000000">::Graph::addFunctionCallEdges</text>
</a>
</g>
</g>
<!-- Node57&#45;&gt;Node58 -->
<g id="edge1" class="edge">
<title>Node57&#45;&gt;Node58</title>
<path fill="none" stroke="#191970" d="M445.8413,-70.5518C426.9007,-74.4829 406.8892,-78.6362 388.399,-82.4738"/>
<polygon fill="#191970" stroke="#191970" points="446.5545,-73.9785 455.6346,-68.5192 445.1319,-67.1245 446.5545,-73.9785"/>
</g>
<!-- Node59 -->
<g id="node3" class="node">
<title>Node59</title>
<g id="a_node3"><a xlink:href="../../db/d17/MVICFG_8cpp.html#a8abab0f2232beace9b14c3c7dfa368dd" target="_top" xlink:title=" ">
<polygon fill="none" stroke="#000000" points="77,-67.5 77,-97.5 198,-97.5 198,-67.5 77,-67.5"/>
<text text-anchor="start" x="85" y="-85.5" font-family="Helvetica,sans-Serif" font-size="10.00" fill="#000000">hydrogen_framework</text>
<text text-anchor="middle" x="137.5" y="-74.5" font-family="Helvetica,sans-Serif" font-size="10.00" fill="#000000">::buildICFG</text>
</a>
</g>
</g>
<!-- Node57&#45;&gt;Node59 -->
<g id="edge8" class="edge">
<title>Node57&#45;&gt;Node59</title>
<path fill="none" stroke="#191970" d="M423.6238,-59.9616C367.4136,-63.6025 296.8881,-68.4291 234,-73.5 222.4275,-74.4331 210.0829,-75.5171 198.223,-76.6027"/>
<polygon fill="#191970" stroke="#191970" points="424.1938,-63.4322 433.9478,-59.2958 423.7432,-56.4467 424.1938,-63.4322"/>
</g>
<!-- Node61 -->
<g id="node5" class="node">
<title>Node61</title>
<g id="a_node5"><a xlink:href="../../db/d17/MVICFG_8cpp.html#a40d68c502d0833e919395ded787b4599" target="_top" xlink:title=" ">
<polygon fill="none" stroke="#000000" points="77,-.5 77,-30.5 198,-30.5 198,-.5 77,-.5"/>
<text text-anchor="start" x="85" y="-18.5" font-family="Helvetica,sans-Serif" font-size="10.00" fill="#000000">hydrogen_framework</text>
<text text-anchor="middle" x="137.5" y="-7.5" font-family="Helvetica,sans-Serif" font-size="10.00" fill="#000000">::addToMVICFG</text>
</a>
</g>
</g>
<!-- Node57&#45;&gt;Node61 -->
<g id="edge5" class="edge">
<title>Node57&#45;&gt;Node61</title>
<path fill="none" stroke="#191970" d="M423.946,-43.3744C351.87,-36.3606 258.4105,-27.2659 198.1938,-21.4062"/>
<polygon fill="#191970" stroke="#191970" points="423.6766,-46.8646 433.9686,-44.3497 424.3546,-39.8975 423.6766,-46.8646"/>
</g>
<!-- Node58&#45;&gt;Node59 -->
<g id="edge2" class="edge">
<title>Node58&#45;&gt;Node59</title>
<path fill="none" stroke="#191970" d="M223.6686,-89.7411C215.034,-89.0155 206.4378,-88.2931 198.2039,-87.6012"/>
<polygon fill="#191970" stroke="#191970" points="223.5453,-93.2429 233.8033,-90.5927 224.1315,-86.2675 223.5453,-93.2429"/>
</g>
<!-- Node59&#45;&gt;Node59 -->
<g id="edge3" class="edge">
<title>Node59&#45;&gt;Node59</title>
<path fill="none" stroke="#191970" d="M158.1118,-107.9579C155.5536,-112.679 148.683,-116 137.5,-116 119.1484,-116 112.41,-107.0566 117.2846,-97.659"/>
<polygon fill="#191970" stroke="#191970" points="161.5975,-107.517 157.7154,-97.659 154.6027,-107.7863 161.5975,-107.517"/>
</g>
<!-- Node60 -->
<g id="node4" class="node">
<title>Node60</title>
<g id="a_node4"><a xlink:href="../../de/d64/Hydrogen_8cpp.html#a0ddf1224851353fc92bfbff6f499fa97" target="_top" xlink:title=" ">
<polygon fill="none" stroke="#000000" points="0,-39 0,-58 41,-58 41,-39 0,-39"/>
<text text-anchor="middle" x="20.5" y="-46" font-family="Helvetica,sans-Serif" font-size="10.00" fill="#000000">main</text>
</a>
</g>
</g>
<!-- Node59&#45;&gt;Node60 -->
<g id="edge4" class="edge">
<title>Node59&#45;&gt;Node60</title>
<path fill="none" stroke="#191970" d="M76.173,-64.6785C63.5232,-61.0025 51.0501,-57.3778 41.1269,-54.4942"/>
<polygon fill="#191970" stroke="#191970" points="75.262,-68.0585 85.8415,-67.4881 77.2155,-61.3366 75.262,-68.0585"/>
</g>
<!-- Node61&#45;&gt;Node60 -->
<g id="edge7" class="edge">
<title>Node61&#45;&gt;Node60</title>
<path fill="none" stroke="#191970" d="M74.4251,-33.2903C62.3374,-36.6997 50.5117,-40.0352 41.0294,-42.7096"/>
<polygon fill="#191970" stroke="#191970" points="75.4614,-36.6347 84.1357,-30.5515 73.5611,-29.8976 75.4614,-36.6347"/>
</g>
<!-- Node61&#45;&gt;Node61 -->
<g id="edge6" class="edge">
<title>Node61&#45;&gt;Node61</title>
<path fill="none" stroke="#191970" d="M158.1118,-40.9579C155.5536,-45.679 148.683,-49 137.5,-49 119.1484,-49 112.41,-40.0566 117.2846,-30.659"/>
<polygon fill="#191970" stroke="#191970" points="161.5975,-40.517 157.7154,-30.659 154.6027,-40.7863 161.5975,-40.517"/>
</g>
</g>
</svg>
        <g id="navigator" transform="translate(0 0)" fill="#404254">
                <rect fill="#f2f5e9" fill-opacity="0.5" stroke="#606060" stroke-width=".5" x="0" y="0" width="60" height="60"/>
                <use id="zoomplus" xlink:href="#zoomPlus" x="17" y="9" onmousedown="handleZoom(evt,'in')"/>
                <use id="zoomminus" xlink:href="#zoomMin" x="42" y="9" onmousedown="handleZoom(evt,'out')"/>
                <use id="reset" xlink:href="#resetDef" x="30" y="36" onmousedown="handleReset()"/>
                <g id="arrowUp" xlink:href="#dirArrow" transform="translate(30 24)" onmousedown="handlePan(0,-1)">
                  <use xlink:href="#rim" fill="#404040">
                        <set attributeName="fill" to="#808080" begin="arrowUp.mouseover" end="arrowUp.mouseout"/>
                  </use>
                  <path fill="none" stroke="white" stroke-width="1.5" d="M0,-3.0v7 M-2.5,-0.5L0,-3.0L2.5,-0.5"/>
                </g>
                <g id="arrowRight" xlink:href="#dirArrow" transform="rotate(90) translate(36 -43)" onmousedown="handlePan(1,0)">
                  <use xlink:href="#rim" fill="#404040">
                        <set attributeName="fill" to="#808080" begin="arrowRight.mouseover" end="arrowRight.mouseout"/>
                  </use>
                  <path fill="none" stroke="white" stroke-width="1.5" d="M0,-3.0v7 M-2.5,-0.5L0,-3.0L2.5,-0.5"/>
                </g>
                <g id="arrowDown" xlink:href="#dirArrow" transform="rotate(180) translate(-30 -48)" onmousedown="handlePan(0,1)">
                  <use xlink:href="#rim" fill="#404040">
                        <set attributeName="fill" to="#808080" begin="arrowDown.mouseover" end="arrowDown.mouseout"/>
                  </use>
                  <path fill="none" stroke="white" stroke-width="1.5" d="M0,-3.0v7 M-2.5,-0.5L0,-3.0L2.5,-0.5"/>
                </g>
                <g id="arrowLeft" xlink:href="#dirArrow" transform="rotate(270) translate(-36 17)" onmousedown="handlePan(-1,0)">
                  <use xlink:href="#rim" fill="#404040">
                        <set attributeName="fill" to="#808080" begin="arrowLeft.mouseover" end="arrowLeft.mouseout"/>
                  </use>
                  <path fill="none" stroke="white" stroke-width="1.5" d="M0,-3.0v7 M-2.5,-0.5L0,-3.0L2.5,-0.5"/>
                </g>
        </g>
        <svg viewBox="0 0 15 15" width="100%" height="30px" preserveAspectRatio="xMaxYMin meet">
         <g id="arrow_out" transform="scale(0.3 0.3)">
          <a xlink:href="classhydrogen__framework_1_1Graph__Function_a20e7d928dc29d5d84a1d06fe1c297bda_icgraph_org.svg" target="_base">
           <rect id="button" ry="5" rx="5" y="6" x="6" height="38" width="38"
                fill="#f2f5e9" fill-opacity="0.5" stroke="#606060" stroke-width="1.0"/>
           <path id="arrow"
             d="M 11.500037,31.436501 C 11.940474,20.09759 22.043105,11.32322 32.158766,21.979434 L 37.068811,17.246167 C 37.068811,17.246167 37.088388,32 37.088388,32 L 22.160133,31.978069 C 22.160133,31.978069 26.997745,27.140456 26.997745,27.140456 C 18.528582,18.264221 13.291696,25.230495 11.500037,31.436501 z"
             style="fill:#404040;"/>
          </a>
         </g>
        </svg>
</svg>
