<?xml version="1.0" encoding="UTF-8" standalone="no"?>
<!DOCTYPE svg PUBLIC "-//W3C//DTD SVG 1.1//EN"
 "http://www.w3.org/Graphics/SVG/1.1/DTD/svg11.dtd">
<!-- Generated by graphviz version 2.40.1 (20161225.0304)
 -->
<!-- Title: hydrogen_framework::Graph_Function::getFunctionName Pages: 1 -->
<svg width="606pt" height="258pt"
 viewBox="0.00 0.00 606.00 258.00" xmlns="http://www.w3.org/2000/svg" xmlns:xlink="http://www.w3.org/1999/xlink">
<g id="graph0" class="graph" transform="scale(1 1) rotate(0) translate(4 254)">
<title>hydrogen_framework::Graph_Function::getFunctionName</title>
<!-- Node20 -->
<g id="node1" class="node">
<title>Node20</title>
<g id="a_node1"><a xlink:title=" ">
<polygon fill="#bfbfbf" stroke="#000000" points="409,-134.5 409,-164.5 598,-164.5 598,-134.5 409,-134.5"/>
<text text-anchor="start" x="417" y="-152.5" font-family="Helvetica,sans-Serif" font-size="10.00" fill="#000000">hydrogen_framework</text>
<text text-anchor="middle" x="503.5" y="-141.5" font-family="Helvetica,sans-Serif" font-size="10.00" fill="#000000">::Graph_Function::getFunctionName</text>
</a>
</g>
</g>
<!-- Node21 -->
<g id="node2" class="node">
<title>Node21</title>
<g id="a_node2"><a xlink:href="../../db/d17/MVICFG_8cpp.html#a40d68c502d0833e919395ded787b4599" target="_top" xlink:title=" ">
<polygon fill="none" stroke="#000000" points="77,-134.5 77,-164.5 198,-164.5 198,-134.5 77,-134.5"/>
<text text-anchor="start" x="85" y="-152.5" font-family="Helvetica,sans-Serif" font-size="10.00" fill="#000000">hydrogen_framework</text>
<text text-anchor="middle" x="137.5" y="-141.5" font-family="Helvetica,sans-Serif" font-size="10.00" fill="#000000">::addToMVICFG</text>
</a>
</g>
</g>
<!-- Node20&#45;&gt;Node21 -->
<g id="edge1" class="edge">
<title>Node20&#45;&gt;Node21</title>
<path fill="none" stroke="#191970" d="M398.503,-149.5C333.6304,-149.5 252.669,-149.5 198.2644,-149.5"/>
<polygon fill="#191970" stroke="#191970" points="398.77,-153.0001 408.7699,-149.5 398.7699,-146.0001 398.77,-153.0001"/>
</g>
<!-- Node23 -->
<g id="node4" class="node">
<title>Node23</title>
<g id="a_node4"><a xlink:href="../../d4/d7a/classhydrogen__framework_1_1Graph.html#a2baf6364fa45c8574b581fe8c6df79c6" target="_top" xlink:title=" ">
<polygon fill="none" stroke="#000000" points="234,-189.5 234,-219.5 373,-219.5 373,-189.5 234,-189.5"/>
<text text-anchor="start" x="242" y="-207.5" font-family="Helvetica,sans-Serif" font-size="10.00" fill="#000000">hydrogen_framework</text>
<text text-anchor="middle" x="303.5" y="-196.5" font-family="Helvetica,sans-Serif" font-size="10.00" fill="#000000">::Graph::addVirtualNodes</text>
</a>
</g>
</g>
<!-- Node20&#45;&gt;Node23 -->
<g id="edge4" class="edge">
<title>Node20&#45;&gt;Node23</title>
<path fill="none" stroke="#191970" d="M439.0411,-167.2262C412.9288,-174.4071 383.0998,-182.6101 358.0848,-189.4892"/>
<polygon fill="#191970" stroke="#191970" points="440.1351,-170.5553 448.8491,-164.529 438.279,-163.8059 440.1351,-170.5553"/>
</g>
<!-- Node25 -->
<g id="node6" class="node">
<title>Node25</title>
<g id="a_node6"><a xlink:href="../../db/d17/MVICFG_8cpp.html#aca7226f27a892ce8314159fbd4eaeeb1" target="_top" xlink:title=" ">
<polygon fill="none" stroke="#000000" points="243,-70.5 243,-100.5 364,-100.5 364,-70.5 243,-70.5"/>
<text text-anchor="start" x="251" y="-88.5" font-family="Helvetica,sans-Serif" font-size="10.00" fill="#000000">hydrogen_framework</text>
<text text-anchor="middle" x="303.5" y="-77.5" font-family="Helvetica,sans-Serif" font-size="10.00" fill="#000000">::findMatchedLine</text>
</a>
</g>
</g>
<!-- Node20&#45;&gt;Node25 -->
<g id="edge8" class="edge">
<title>Node20&#45;&gt;Node25</title>
<path fill="none" stroke="#191970" d="M446.9662,-131.4092C416.4841,-121.6549 379.3118,-109.7598 350.4434,-100.5219"/>
<polygon fill="#191970" stroke="#191970" points="446.0179,-134.7805 456.6089,-134.4948 448.1514,-128.1135 446.0179,-134.7805"/>
</g>
<!-- Node21&#45;&gt;Node21 -->
<g id="edge2" class="edge">
<title>Node21&#45;&gt;Node21</title>
<path fill="none" stroke="#191970" d="M158.1118,-174.9579C155.5536,-179.679 148.683,-183 137.5,-183 119.1484,-183 112.41,-174.0566 117.2846,-164.659"/>
<polygon fill="#191970" stroke="#191970" points="161.5975,-174.517 157.7154,-164.659 154.6027,-174.7863 161.5975,-174.517"/>
</g>
<!-- Node22 -->
<g id="node3" class="node">
<title>Node22</title>
<g id="a_node3"><a xlink:href="../../de/d64/Hydrogen_8cpp.html#a0ddf1224851353fc92bfbff6f499fa97" target="_top" xlink:title=" ">
<polygon fill="none" stroke="#000000" points="0,-106 0,-125 41,-125 41,-106 0,-106"/>
<text text-anchor="middle" x="20.5" y="-113" font-family="Helvetica,sans-Serif" font-size="10.00" fill="#000000">main</text>
</a>
</g>
</g>
<!-- Node21&#45;&gt;Node22 -->
<g id="edge3" class="edge">
<title>Node21&#45;&gt;Node22</title>
<path fill="none" stroke="#191970" d="M76.173,-131.6785C63.5232,-128.0025 51.0501,-124.3778 41.1269,-121.4942"/>
<polygon fill="#191970" stroke="#191970" points="75.262,-135.0585 85.8415,-134.4881 77.2155,-128.3366 75.262,-135.0585"/>
</g>
<!-- Node24 -->
<g id="node5" class="node">
<title>Node24</title>
<g id="a_node5"><a xlink:href="../../db/d17/MVICFG_8cpp.html#a8abab0f2232beace9b14c3c7dfa368dd" target="_top" xlink:title=" ">
<polygon fill="none" stroke="#000000" points="77,-201.5 77,-231.5 198,-231.5 198,-201.5 77,-201.5"/>
<text text-anchor="start" x="85" y="-219.5" font-family="Helvetica,sans-Serif" font-size="10.00" fill="#000000">hydrogen_framework</text>
<text text-anchor="middle" x="137.5" y="-208.5" font-family="Helvetica,sans-Serif" font-size="10.00" fill="#000000">::buildICFG</text>
</a>
</g>
</g>
<!-- Node23&#45;&gt;Node24 -->
<g id="edge5" class="edge">
<title>Node23&#45;&gt;Node24</title>
<path fill="none" stroke="#191970" d="M223.575,-210.2777C215.0147,-210.8965 206.4108,-211.5185 198.128,-212.1173"/>
<polygon fill="#191970" stroke="#191970" points="223.8606,-213.7663 233.5822,-209.5543 223.3558,-206.7845 223.8606,-213.7663"/>
</g>
<!-- Node24&#45;&gt;Node22 -->
<g id="edge7" class="edge">
<title>Node24&#45;&gt;Node22</title>
<path fill="none" stroke="#191970" d="M82.5827,-196.4213C80.6492,-195.1814 78.7801,-193.875 77,-192.5 52.462,-173.5458 33.625,-141.1965 25.2532,-125.1352"/>
<polygon fill="#191970" stroke="#191970" points="80.9741,-199.533 91.3959,-201.4403 84.4382,-193.4502 80.9741,-199.533"/>
</g>
<!-- Node24&#45;&gt;Node24 -->
<g id="edge6" class="edge">
<title>Node24&#45;&gt;Node24</title>
<path fill="none" stroke="#191970" d="M158.1118,-241.9579C155.5536,-246.679 148.683,-250 137.5,-250 119.1484,-250 112.41,-241.0566 117.2846,-231.659"/>
<polygon fill="#191970" stroke="#191970" points="161.5975,-241.517 157.7154,-231.659 154.6027,-241.7863 161.5975,-241.517"/>
</g>
<!-- Node25&#45;&gt;Node21 -->
<g id="edge9" class="edge">
<title>Node25&#45;&gt;Node21</title>
<path fill="none" stroke="#191970" d="M254.9264,-104.2272C229.9444,-113.8588 199.9052,-125.4402 176.463,-134.4781"/>
<polygon fill="#191970" stroke="#191970" points="256.5089,-107.3682 264.5804,-100.5052 253.9907,-100.8368 256.5089,-107.3682"/>
</g>
<!-- Node25&#45;&gt;Node25 -->
<g id="edge13" class="edge">
<title>Node25&#45;&gt;Node25</title>
<path fill="none" stroke="#191970" d="M332.9962,-110.9579C329.3353,-115.679 319.5032,-119 303.5,-119 277.2383,-119 267.5953,-110.0566 274.5711,-100.659"/>
<polygon fill="#191970" stroke="#191970" points="336.4737,-110.4513 332.4289,-100.659 329.4843,-110.8364 336.4737,-110.4513"/>
</g>
<!-- Node26 -->
<g id="node7" class="node">
<title>Node26</title>
<g id="a_node7"><a xlink:href="../../db/d17/MVICFG_8cpp.html#ac6a97f6b1392ad5517822076e830168f" target="_top" xlink:title=" ">
<polygon fill="none" stroke="#000000" points="77,-67.5 77,-97.5 198,-97.5 198,-67.5 77,-67.5"/>
<text text-anchor="start" x="85" y="-85.5" font-family="Helvetica,sans-Serif" font-size="10.00" fill="#000000">hydrogen_framework</text>
<text text-anchor="middle" x="137.5" y="-74.5" font-family="Helvetica,sans-Serif" font-size="10.00" fill="#000000">::deleteFromMVICFG</text>
</a>
</g>
</g>
<!-- Node25&#45;&gt;Node26 -->
<g id="edge10" class="edge">
<title>Node25&#45;&gt;Node26</title>
<path fill="none" stroke="#191970" d="M232.6287,-84.2192C221.1286,-84.0114 209.311,-83.7978 198.0849,-83.5949"/>
<polygon fill="#191970" stroke="#191970" points="232.5687,-87.7186 242.6303,-84.3999 232.6952,-80.7197 232.5687,-87.7186"/>
</g>
<!-- Node27 -->
<g id="node8" class="node">
<title>Node27</title>
<g id="a_node8"><a xlink:href="../../db/d17/MVICFG_8cpp.html#a27bf2e73daf11e2ad6363e34bd06de89" target="_top" xlink:title=" ">
<polygon fill="none" stroke="#000000" points="77,-.5 77,-30.5 198,-30.5 198,-.5 77,-.5"/>
<text text-anchor="start" x="85" y="-18.5" font-family="Helvetica,sans-Serif" font-size="10.00" fill="#000000">hydrogen_framework</text>
<text text-anchor="middle" x="137.5" y="-7.5" font-family="Helvetica,sans-Serif" font-size="10.00" fill="#000000">::matchedInMVICFG</text>
</a>
</g>
</g>
<!-- Node25&#45;&gt;Node27 -->
<g id="edge14" class="edge">
<title>Node25&#45;&gt;Node27</title>
<path fill="none" stroke="#191970" d="M258.372,-66.4701C231.6455,-55.1999 198.25,-41.1175 173.3383,-30.6125"/>
<polygon fill="#191970" stroke="#191970" points="257.3146,-69.8226 267.8888,-70.4832 260.0345,-63.3727 257.3146,-69.8226"/>
</g>
<!-- Node26&#45;&gt;Node22 -->
<g id="edge12" class="edge">
<title>Node26&#45;&gt;Node22</title>
<path fill="none" stroke="#191970" d="M74.4251,-100.2903C62.3374,-103.6997 50.5117,-107.0352 41.0294,-109.7096"/>
<polygon fill="#191970" stroke="#191970" points="75.4614,-103.6347 84.1357,-97.5515 73.5611,-96.8976 75.4614,-103.6347"/>
</g>
<!-- Node26&#45;&gt;Node26 -->
<g id="edge11" class="edge">
<title>Node26&#45;&gt;Node26</title>
<path fill="none" stroke="#191970" d="M158.1118,-107.9579C155.5536,-112.679 148.683,-116 137.5,-116 119.1484,-116 112.41,-107.0566 117.2846,-97.659"/>
<polygon fill="#191970" stroke="#191970" points="161.5975,-107.517 157.7154,-97.659 154.6027,-107.7863 161.5975,-107.517"/>
</g>
<!-- Node27&#45;&gt;Node22 -->
<g id="edge15" class="edge">
<title>Node27&#45;&gt;Node22</title>
<path fill="none" stroke="#191970" d="M105.1205,-36.2868C95.772,-42.7336 85.7406,-50.0979 77,-57.5 58.5487,-73.1256 39.3863,-93.9364 28.7976,-105.9112"/>
<polygon fill="#191970" stroke="#191970" points="107.1339,-39.1505 113.4573,-30.6496 103.2129,-33.3517 107.1339,-39.1505"/>
</g>
<!-- Node27&#45;&gt;Node27 -->
<g id="edge16" class="edge">
<title>Node27&#45;&gt;Node27</title>
<path fill="none" stroke="#191970" d="M158.1118,-40.9579C155.5536,-45.679 148.683,-49 137.5,-49 119.1484,-49 112.41,-40.0566 117.2846,-30.659"/>
<polygon fill="#191970" stroke="#191970" points="161.5975,-40.517 157.7154,-30.659 154.6027,-40.7863 161.5975,-40.517"/>
</g>
</g>
</svg>
