<?xml version="1.0" encoding="UTF-8" standalone="no"?>
<!DOCTYPE svg PUBLIC "-//W3C//DTD SVG 1.1//EN"
 "http://www.w3.org/Graphics/SVG/1.1/DTD/svg11.dtd">
<!-- Generated by graphviz version 2.40.1 (20161225.0304)
 -->
<!-- Title: Get_Input.cpp Pages: 1 -->
<svg width="1746pt" height="196pt"
 viewBox="0.00 0.00 1745.50 196.00" xmlns="http://www.w3.org/2000/svg" xmlns:xlink="http://www.w3.org/1999/xlink">
<g id="graph0" class="graph" transform="scale(1 1) rotate(0) translate(4 192)">
<title>Get_Input.cpp</title>
<!-- Node0 -->
<g id="node1" class="node">
<title>Node0</title>
<g id="a_node1"><a xlink:title=" ">
<polygon fill="#bfbfbf" stroke="#000000" points="652.5,-168.5 652.5,-187.5 736.5,-187.5 736.5,-168.5 652.5,-168.5"/>
<text text-anchor="middle" x="694.5" y="-175.5" font-family="Helvetica,sans-Serif" font-size="10.00" fill="#000000">Get_Input.cpp</text>
</a>
</g>
</g>
<!-- Node1 -->
<g id="node2" class="node">
<title>Node1</title>
<g id="a_node2"><a xlink:href="../../df/ddd/Get__Input_8hpp.html" target="_top" xlink:title=" ">
<polygon fill="none" stroke="#000000" points="241,-112.5 241,-131.5 326,-131.5 326,-112.5 241,-112.5"/>
<text text-anchor="middle" x="283.5" y="-119.5" font-family="Helvetica,sans-Serif" font-size="10.00" fill="#000000">Get_Input.hpp</text>
</a>
</g>
</g>
<!-- Node0&#45;&gt;Node1 -->
<g id="edge1" class="edge">
<title>Node0&#45;&gt;Node1</title>
<path fill="none" stroke="#191970" d="M652.4473,-172.2702C576.9321,-161.981 418.5509,-140.4011 336.0271,-129.157"/>
<polygon fill="#191970" stroke="#191970" points="336.4895,-125.6877 326.1086,-127.8055 335.5444,-132.6236 336.4895,-125.6877"/>
</g>
<!-- Node7 -->
<g id="node8" class="node">
<title>Node7</title>
<g id="a_node8"><a xlink:href="../../df/d13/Diff__Mapping_8hpp.html" target="_top" xlink:title=" ">
<polygon fill="none" stroke="#000000" points="644,-112.5 644,-131.5 745,-131.5 745,-112.5 644,-112.5"/>
<text text-anchor="middle" x="694.5" y="-119.5" font-family="Helvetica,sans-Serif" font-size="10.00" fill="#000000">Diff_Mapping.hpp</text>
</a>
</g>
</g>
<!-- Node0&#45;&gt;Node7 -->
<g id="edge7" class="edge">
<title>Node0&#45;&gt;Node7</title>
<path fill="none" stroke="#191970" d="M694.5,-168.2455C694.5,-160.9382 694.5,-150.6944 694.5,-141.7046"/>
<polygon fill="#191970" stroke="#191970" points="698.0001,-141.6426 694.5,-131.6427 691.0001,-141.6427 698.0001,-141.6426"/>
</g>
<!-- Node14 -->
<g id="node15" class="node">
<title>Node14</title>
<g id="a_node15"><a xlink:href="../../d5/d44/Module_8hpp.html" target="_top" xlink:title=" ">
<polygon fill="none" stroke="#000000" points="1038,-112.5 1038,-131.5 1111,-131.5 1111,-112.5 1038,-112.5"/>
<text text-anchor="middle" x="1074.5" y="-119.5" font-family="Helvetica,sans-Serif" font-size="10.00" fill="#000000">Module.hpp</text>
</a>
</g>
</g>
<!-- Node0&#45;&gt;Node14 -->
<g id="edge16" class="edge">
<title>Node0&#45;&gt;Node14</title>
<path fill="none" stroke="#191970" d="M736.6186,-171.7931C808.2267,-161.2403 953.1761,-139.8793 1027.7908,-128.8835"/>
<polygon fill="#191970" stroke="#191970" points="1028.4547,-132.3235 1037.8376,-127.4029 1027.4341,-125.3983 1028.4547,-132.3235"/>
</g>
<!-- Node2 -->
<g id="node3" class="node">
<title>Node2</title>
<g id="a_node3"><a xlink:title=" ">
<polygon fill="none" stroke="#bfbfbf" points="292.5,-56.5 292.5,-75.5 356.5,-75.5 356.5,-56.5 292.5,-56.5"/>
<text text-anchor="middle" x="324.5" y="-63.5" font-family="Helvetica,sans-Serif" font-size="10.00" fill="#000000">algorithm</text>
</a>
</g>
</g>
<!-- Node1&#45;&gt;Node2 -->
<g id="edge2" class="edge">
<title>Node1&#45;&gt;Node2</title>
<path fill="none" stroke="#191970" d="M290.6417,-112.2455C296.3444,-104.4564 304.49,-93.3308 311.3625,-83.9439"/>
<polygon fill="#191970" stroke="#191970" points="314.3568,-85.7789 317.4402,-75.6427 308.7087,-81.6437 314.3568,-85.7789"/>
</g>
<!-- Node3 -->
<g id="node4" class="node">
<title>Node3</title>
<g id="a_node4"><a xlink:title=" ">
<polygon fill="none" stroke="#bfbfbf" points="374.5,-56.5 374.5,-75.5 520.5,-75.5 520.5,-56.5 374.5,-56.5"/>
<text text-anchor="middle" x="447.5" y="-63.5" font-family="Helvetica,sans-Serif" font-size="10.00" fill="#000000">boost/algorithm/string.hpp</text>
</a>
</g>
</g>
<!-- Node1&#45;&gt;Node3 -->
<g id="edge3" class="edge">
<title>Node1&#45;&gt;Node3</title>
<path fill="none" stroke="#191970" d="M311.6926,-112.3733C338.8453,-103.1016 380.0907,-89.0178 410.0025,-78.804"/>
<polygon fill="#191970" stroke="#191970" points="411.3428,-82.0449 419.6753,-75.5011 409.0808,-75.4204 411.3428,-82.0449"/>
</g>
<!-- Node4 -->
<g id="node5" class="node">
<title>Node4</title>
<g id="a_node5"><a xlink:title=" ">
<polygon fill="none" stroke="#bfbfbf" points="0,-56.5 0,-75.5 119,-75.5 119,-56.5 0,-56.5"/>
<text text-anchor="middle" x="59.5" y="-63.5" font-family="Helvetica,sans-Serif" font-size="10.00" fill="#000000">boost/filesystem.hpp</text>
</a>
</g>
</g>
<!-- Node1&#45;&gt;Node4 -->
<g id="edge4" class="edge">
<title>Node1&#45;&gt;Node4</title>
<path fill="none" stroke="#191970" d="M245.2475,-112.4369C207.1533,-102.9133 148.5687,-88.2672 107.4013,-77.9753"/>
<polygon fill="#191970" stroke="#191970" points="108.145,-74.5536 97.5947,-75.5237 106.4472,-81.3446 108.145,-74.5536"/>
</g>
<!-- Node5 -->
<g id="node6" class="node">
<title>Node5</title>
<g id="a_node6"><a xlink:title=" ">
<polygon fill="none" stroke="#bfbfbf" points="137,-56.5 137,-75.5 192,-75.5 192,-56.5 137,-56.5"/>
<text text-anchor="middle" x="164.5" y="-63.5" font-family="Helvetica,sans-Serif" font-size="10.00" fill="#000000">fstream</text>
</a>
</g>
</g>
<!-- Node1&#45;&gt;Node5 -->
<g id="edge5" class="edge">
<title>Node1&#45;&gt;Node5</title>
<path fill="none" stroke="#191970" d="M263.0432,-112.3733C244.0262,-103.4241 215.4825,-89.9917 194.0024,-79.8835"/>
<polygon fill="#191970" stroke="#191970" points="195.2284,-76.5923 184.6899,-75.5011 192.2478,-82.926 195.2284,-76.5923"/>
</g>
<!-- Node6 -->
<g id="node7" class="node">
<title>Node6</title>
<g id="a_node7"><a xlink:title=" ">
<polygon fill="none" stroke="#bfbfbf" points="210.5,-56.5 210.5,-75.5 274.5,-75.5 274.5,-56.5 210.5,-56.5"/>
<text text-anchor="middle" x="242.5" y="-63.5" font-family="Helvetica,sans-Serif" font-size="10.00" fill="#000000">sys/stat.h</text>
</a>
</g>
</g>
<!-- Node1&#45;&gt;Node6 -->
<g id="edge6" class="edge">
<title>Node1&#45;&gt;Node6</title>
<path fill="none" stroke="#191970" d="M276.3583,-112.2455C270.6556,-104.4564 262.51,-93.3308 255.6375,-83.9439"/>
<polygon fill="#191970" stroke="#191970" points="258.2913,-81.6437 249.5598,-75.6427 252.6432,-85.7789 258.2913,-81.6437"/>
</g>
<!-- Node8 -->
<g id="node9" class="node">
<title>Node8</title>
<g id="a_node9"><a xlink:href="../../db/dba/Diff__Util_8hpp.html" target="_top" xlink:title=" ">
<polygon fill="none" stroke="#000000" points="577,-56.5 577,-75.5 654,-75.5 654,-56.5 577,-56.5"/>
<text text-anchor="middle" x="615.5" y="-63.5" font-family="Helvetica,sans-Serif" font-size="10.00" fill="#000000">Diff_Util.hpp</text>
</a>
</g>
</g>
<!-- Node7&#45;&gt;Node8 -->
<g id="edge8" class="edge">
<title>Node7&#45;&gt;Node8</title>
<path fill="none" stroke="#191970" d="M680.7393,-112.2455C668.8448,-103.814 651.435,-91.4729 637.5915,-81.6598"/>
<polygon fill="#191970" stroke="#191970" points="639.2854,-78.5704 629.1031,-75.6427 635.2372,-84.2811 639.2854,-78.5704"/>
</g>
<!-- Node9 -->
<g id="node10" class="node">
<title>Node9</title>
<g id="a_node10"><a xlink:title=" ">
<polygon fill="none" stroke="#bfbfbf" points="728.5,-.5 728.5,-19.5 760.5,-19.5 760.5,-.5 728.5,-.5"/>
<text text-anchor="middle" x="744.5" y="-7.5" font-family="Helvetica,sans-Serif" font-size="10.00" fill="#000000">list</text>
</a>
</g>
</g>
<!-- Node7&#45;&gt;Node9 -->
<g id="edge13" class="edge">
<title>Node7&#45;&gt;Node9</title>
<path fill="none" stroke="#191970" d="M702.3552,-112.3119C709.2838,-103.3557 719.228,-89.4392 725.5,-76 732.4336,-61.1432 737.4002,-43.2058 740.5126,-29.7829"/>
<polygon fill="#191970" stroke="#191970" points="743.9924,-30.2512 742.6934,-19.7363 737.1517,-28.7663 743.9924,-30.2512"/>
</g>
<!-- Node11 -->
<g id="node12" class="node">
<title>Node11</title>
<g id="a_node12"><a xlink:title=" ">
<polygon fill="none" stroke="#bfbfbf" points="527,-.5 527,-19.5 574,-19.5 574,-.5 527,-.5"/>
<text text-anchor="middle" x="550.5" y="-7.5" font-family="Helvetica,sans-Serif" font-size="10.00" fill="#000000">vector</text>
</a>
</g>
</g>
<!-- Node7&#45;&gt;Node11 -->
<g id="edge15" class="edge">
<title>Node7&#45;&gt;Node11</title>
<path fill="none" stroke="#191970" d="M643.8236,-114.8012C617.975,-108.62 587.9666,-97.1701 568.5,-76 557.082,-63.5828 552.793,-44.6283 551.2371,-30.2125"/>
<polygon fill="#191970" stroke="#191970" points="554.6993,-29.5594 550.4913,-19.8361 547.7173,-30.0613 554.6993,-29.5594"/>
</g>
<!-- Node12 -->
<g id="node13" class="node">
<title>Node12</title>
<g id="a_node13"><a xlink:title=" ">
<polygon fill="none" stroke="#bfbfbf" points="772.5,-56.5 772.5,-75.5 832.5,-75.5 832.5,-56.5 772.5,-56.5"/>
<text text-anchor="middle" x="802.5" y="-63.5" font-family="Helvetica,sans-Serif" font-size="10.00" fill="#000000">iostream</text>
</a>
</g>
</g>
<!-- Node7&#45;&gt;Node12 -->
<g id="edge12" class="edge">
<title>Node7&#45;&gt;Node12</title>
<path fill="none" stroke="#191970" d="M713.3122,-112.2455C730.3473,-103.4125 755.6575,-90.2887 774.9681,-80.2758"/>
<polygon fill="#191970" stroke="#191970" points="776.637,-83.353 783.9034,-75.6427 773.4147,-77.1388 776.637,-83.353"/>
</g>
<!-- Node13 -->
<g id="node14" class="node">
<title>Node13</title>
<g id="a_node14"><a xlink:title=" ">
<polygon fill="none" stroke="#bfbfbf" points="672.5,-56.5 672.5,-75.5 716.5,-75.5 716.5,-56.5 672.5,-56.5"/>
<text text-anchor="middle" x="694.5" y="-63.5" font-family="Helvetica,sans-Serif" font-size="10.00" fill="#000000">regex</text>
</a>
</g>
</g>
<!-- Node7&#45;&gt;Node13 -->
<g id="edge14" class="edge">
<title>Node7&#45;&gt;Node13</title>
<path fill="none" stroke="#191970" d="M694.5,-112.2455C694.5,-104.9382 694.5,-94.6944 694.5,-85.7046"/>
<polygon fill="#191970" stroke="#191970" points="698.0001,-85.6426 694.5,-75.6427 691.0001,-85.6427 698.0001,-85.6426"/>
</g>
<!-- Node8&#45;&gt;Node9 -->
<g id="edge9" class="edge">
<title>Node8&#45;&gt;Node9</title>
<path fill="none" stroke="#191970" d="M637.6759,-56.3733C660.2415,-46.5773 695.1814,-31.4096 718.9073,-21.11"/>
<polygon fill="#191970" stroke="#191970" points="720.541,-24.2165 728.3202,-17.0238 717.7535,-17.7954 720.541,-24.2165"/>
</g>
<!-- Node10 -->
<g id="node11" class="node">
<title>Node10</title>
<g id="a_node11"><a xlink:title=" ">
<polygon fill="none" stroke="#bfbfbf" points="593.5,-.5 593.5,-19.5 637.5,-19.5 637.5,-.5 593.5,-.5"/>
<text text-anchor="middle" x="615.5" y="-7.5" font-family="Helvetica,sans-Serif" font-size="10.00" fill="#000000">string</text>
</a>
</g>
</g>
<!-- Node8&#45;&gt;Node10 -->
<g id="edge10" class="edge">
<title>Node8&#45;&gt;Node10</title>
<path fill="none" stroke="#191970" d="M615.5,-56.2455C615.5,-48.9382 615.5,-38.6944 615.5,-29.7046"/>
<polygon fill="#191970" stroke="#191970" points="619.0001,-29.6426 615.5,-19.6427 612.0001,-29.6427 619.0001,-29.6426"/>
</g>
<!-- Node8&#45;&gt;Node11 -->
<g id="edge11" class="edge">
<title>Node8&#45;&gt;Node11</title>
<path fill="none" stroke="#191970" d="M604.1779,-56.2455C594.5777,-47.9746 580.6108,-35.9416 569.3305,-26.2232"/>
<polygon fill="#191970" stroke="#191970" points="571.553,-23.5182 561.6924,-19.6427 566.984,-28.8214 571.553,-23.5182"/>
</g>
<!-- Node14&#45;&gt;Node9 -->
<g id="edge18" class="edge">
<title>Node14&#45;&gt;Node9</title>
<path fill="none" stroke="#191970" d="M1037.9788,-116.058C998.3989,-108.9969 933.7608,-95.6431 880.5,-76 862.2237,-69.2595 858.9692,-64.6189 841.5,-56 817.3354,-44.0778 789.5277,-30.9505 769.8987,-21.7817"/>
<polygon fill="#191970" stroke="#191970" points="771.2496,-18.55 760.7071,-17.4984 768.2928,-24.8948 771.2496,-18.55"/>
</g>
<!-- Node14&#45;&gt;Node12 -->
<g id="edge17" class="edge">
<title>Node14&#45;&gt;Node12</title>
<path fill="none" stroke="#191970" d="M1037.7181,-114.8658C992.6022,-106.049 913.8185,-90.4385 846.5,-76 845.2505,-75.732 843.9817,-75.4576 842.7009,-75.1786"/>
<polygon fill="#191970" stroke="#191970" points="843.2951,-71.7255 832.7752,-72.9827 841.783,-78.5603 843.2951,-71.7255"/>
</g>
<!-- Node15 -->
<g id="node16" class="node">
<title>Node15</title>
<g id="a_node16"><a xlink:title=" ">
<polygon fill="none" stroke="#bfbfbf" points="1495.5,-56.5 1495.5,-75.5 1621.5,-75.5 1621.5,-56.5 1495.5,-56.5"/>
<text text-anchor="middle" x="1558.5" y="-63.5" font-family="Helvetica,sans-Serif" font-size="10.00" fill="#000000">llvm/IR/LLVMContext.h</text>
</a>
</g>
</g>
<!-- Node14&#45;&gt;Node15 -->
<g id="edge19" class="edge">
<title>Node14&#45;&gt;Node15</title>
<path fill="none" stroke="#191970" d="M1111.1916,-118.2371C1181.5976,-110.9444 1340.7732,-94.1085 1485.3548,-76.1177"/>
<polygon fill="#191970" stroke="#191970" points="1485.8075,-79.5885 1495.2966,-74.8759 1484.9398,-72.6425 1485.8075,-79.5885"/>
</g>
<!-- Node16 -->
<g id="node17" class="node">
<title>Node16</title>
<g id="a_node17"><a xlink:title=" ">
<polygon fill="none" stroke="#bfbfbf" points="1639.5,-56.5 1639.5,-75.5 1737.5,-75.5 1737.5,-56.5 1639.5,-56.5"/>
<text text-anchor="middle" x="1688.5" y="-63.5" font-family="Helvetica,sans-Serif" font-size="10.00" fill="#000000">llvm/IR/Module.h</text>
</a>
</g>
</g>
<!-- Node14&#45;&gt;Node16 -->
<g id="edge20" class="edge">
<title>Node14&#45;&gt;Node16</title>
<path fill="none" stroke="#191970" d="M1111.0459,-120.0947C1198.6473,-115.2886 1427.6804,-101.3083 1629.3105,-76.0501"/>
<polygon fill="#191970" stroke="#191970" points="1630.0164,-79.4888 1639.498,-74.7613 1629.1377,-72.5442 1630.0164,-79.4888"/>
</g>
<!-- Node17 -->
<g id="node18" class="node">
<title>Node17</title>
<g id="a_node18"><a xlink:title=" ">
<polygon fill="none" stroke="#bfbfbf" points="889,-56.5 889,-75.5 986,-75.5 986,-56.5 889,-56.5"/>
<text text-anchor="middle" x="937.5" y="-63.5" font-family="Helvetica,sans-Serif" font-size="10.00" fill="#000000">llvm/IR/Verifier.h</text>
</a>
</g>
</g>
<!-- Node14&#45;&gt;Node17 -->
<g id="edge21" class="edge">
<title>Node14&#45;&gt;Node17</title>
<path fill="none" stroke="#191970" d="M1050.9489,-112.3733C1028.6609,-103.2629 995.0063,-89.5062 970.1363,-79.3404"/>
<polygon fill="#191970" stroke="#191970" points="971.3247,-76.0451 960.7438,-75.5011 968.6761,-82.5247 971.3247,-76.0451"/>
</g>
<!-- Node18 -->
<g id="node19" class="node">
<title>Node18</title>
<g id="a_node19"><a xlink:title=" ">
<polygon fill="none" stroke="#bfbfbf" points="1004.5,-56.5 1004.5,-75.5 1144.5,-75.5 1144.5,-56.5 1004.5,-56.5"/>
<text text-anchor="middle" x="1074.5" y="-63.5" font-family="Helvetica,sans-Serif" font-size="10.00" fill="#000000">llvm/IRReader/IRReader.h</text>
</a>
</g>
</g>
<!-- Node14&#45;&gt;Node18 -->
<g id="edge22" class="edge">
<title>Node14&#45;&gt;Node18</title>
<path fill="none" stroke="#191970" d="M1074.5,-112.2455C1074.5,-104.9382 1074.5,-94.6944 1074.5,-85.7046"/>
<polygon fill="#191970" stroke="#191970" points="1078.0001,-85.6426 1074.5,-75.6427 1071.0001,-85.6427 1078.0001,-85.6426"/>
</g>
<!-- Node19 -->
<g id="node20" class="node">
<title>Node19</title>
<g id="a_node20"><a xlink:title=" ">
<polygon fill="none" stroke="#bfbfbf" points="1163,-56.5 1163,-75.5 1304,-75.5 1304,-56.5 1163,-56.5"/>
<text text-anchor="middle" x="1233.5" y="-63.5" font-family="Helvetica,sans-Serif" font-size="10.00" fill="#000000">llvm/Support/SourceMgr.h</text>
</a>
</g>
</g>
<!-- Node14&#45;&gt;Node19 -->
<g id="edge23" class="edge">
<title>Node14&#45;&gt;Node19</title>
<path fill="none" stroke="#191970" d="M1101.8331,-112.3733C1128.0434,-103.1419 1167.7984,-89.1402 1196.7668,-78.9375"/>
<polygon fill="#191970" stroke="#191970" points="1198.2542,-82.1244 1206.5236,-75.5011 1195.9288,-75.5219 1198.2542,-82.1244"/>
</g>
<!-- Node20 -->
<g id="node21" class="node">
<title>Node20</title>
<g id="a_node21"><a xlink:title=" ">
<polygon fill="none" stroke="#bfbfbf" points="1322,-56.5 1322,-75.5 1477,-75.5 1477,-56.5 1322,-56.5"/>
<text text-anchor="middle" x="1399.5" y="-63.5" font-family="Helvetica,sans-Serif" font-size="10.00" fill="#000000">llvm/Support/raw_ostream.h</text>
</a>
</g>
</g>
<!-- Node14&#45;&gt;Node20 -->
<g id="edge24" class="edge">
<title>Node14&#45;&gt;Node20</title>
<path fill="none" stroke="#191970" d="M1111.1499,-115.6849C1165.2311,-106.3663 1267.2305,-88.7911 1334.274,-77.2389"/>
<polygon fill="#191970" stroke="#191970" points="1335.051,-80.6567 1344.3114,-75.5094 1333.8623,-73.7584 1335.051,-80.6567"/>
</g>
</g>
</svg>
